<?xml version="1.0" encoding="UTF-8" standalone="no"?>
<!-- Created with Inkscape (http://www.inkscape.org/) -->

<svg
   xmlns:dc="http://purl.org/dc/elements/1.1/"
   xmlns:cc="http://creativecommons.org/ns#"
   xmlns:rdf="http://www.w3.org/1999/02/22-rdf-syntax-ns#"
   xmlns:svg="http://www.w3.org/2000/svg"
   xmlns="http://www.w3.org/2000/svg"
   xmlns:sodipodi="http://sodipodi.sourceforge.net/DTD/sodipodi-0.dtd"
   xmlns:inkscape="http://www.inkscape.org/namespaces/inkscape"
   width="2in"
   height="2in"
   viewBox="0 0 180 180"
   id="svg2"
   version="1.1"
   inkscape:version="0.91 r13725"
   sodipodi:docname="circle sticker.svg">
  <defs
     id="defs4">
    <pattern
       y="0"
       x="0"
       height="6"
       width="6"
       patternUnits="userSpaceOnUse"
       id="WMFhbasepattern" />
    <clipPath
       id="clipPath4254"
       clipPathUnits="userSpaceOnUse">
      <path
         inkscape:connector-curvature="0"
         id="path4256"
         d="m 0,955.984 1689.854,0 L 1689.854,0 0,0 0,955.984 Z" />
    </clipPath>
    <clipPath
       id="clipPath4694"
       clipPathUnits="userSpaceOnUse">
      <path
         inkscape:connector-curvature="0"
         id="path4696"
         d="m 0,955.984 1689.854,0 L 1689.854,0 0,0 0,955.984 Z" />
    </clipPath>
    <clipPath
       id="clipPath4720"
       clipPathUnits="userSpaceOnUse">
      <path
         inkscape:connector-curvature="0"
         id="path4722"
         d="m 0,955.984 1689.854,0 L 1689.854,0 0,0 0,955.984 Z" />
    </clipPath>
    <clipPath
       id="clipPath4744"
       clipPathUnits="userSpaceOnUse">
      <path
         inkscape:connector-curvature="0"
         id="path4746"
         d="m 0,955.984 1689.854,0 L 1689.854,0 0,0 0,955.984 Z" />
    </clipPath>
    <clipPath
       id="clipPath4768"
       clipPathUnits="userSpaceOnUse">
      <path
         inkscape:connector-curvature="0"
         id="path4770"
         d="m 0,955.984 1689.854,0 L 1689.854,0 0,0 0,955.984 Z" />
    </clipPath>
    <clipPath
       id="clipPath4792"
       clipPathUnits="userSpaceOnUse">
      <path
         inkscape:connector-curvature="0"
         id="path4794"
         d="m 0,955.984 1689.854,0 L 1689.854,0 0,0 0,955.984 Z" />
    </clipPath>
    <clipPath
       id="clipPath4810"
       clipPathUnits="userSpaceOnUse">
      <path
         inkscape:connector-curvature="0"
         id="path4812"
         d="m 0,955.984 1689.854,0 L 1689.854,0 0,0 0,955.984 Z" />
    </clipPath>
    <clipPath
       id="clipPath4828"
       clipPathUnits="userSpaceOnUse">
      <path
         inkscape:connector-curvature="0"
         id="path4830"
         d="m 0,955.984 1689.854,0 L 1689.854,0 0,0 0,955.984 Z" />
    </clipPath>
    <clipPath
       id="clipPath4852"
       clipPathUnits="userSpaceOnUse">
      <path
         inkscape:connector-curvature="0"
         id="path4854"
         d="m 0,955.984 1689.854,0 L 1689.854,0 0,0 0,955.984 Z" />
    </clipPath>
    <clipPath
       id="clipPath4876"
       clipPathUnits="userSpaceOnUse">
      <path
         inkscape:connector-curvature="0"
         id="path4878"
         d="m 0,955.984 1689.854,0 L 1689.854,0 0,0 0,955.984 Z" />
    </clipPath>
  </defs>
  <sodipodi:namedview
     id="base"
     pagecolor="#ffffff"
     bordercolor="#666666"
     borderopacity="1.0"
     inkscape:pageopacity="0.0"
     inkscape:pageshadow="2"
     inkscape:zoom="3.959798"
     inkscape:cx="130.39515"
     inkscape:cy="79.843048"
     inkscape:document-units="px"
     inkscape:current-layer="layer1"
     showgrid="false"
     units="in"
     inkscape:window-width="1680"
     inkscape:window-height="929"
     inkscape:window-x="0"
     inkscape:window-y="0"
     inkscape:window-maximized="1" />
  <metadata
     id="metadata7">
    <rdf:RDF>
      <cc:Work
         rdf:about="">
        <dc:format>image/svg+xml</dc:format>
        <dc:type
           rdf:resource="http://purl.org/dc/dcmitype/StillImage" />
        <dc:title></dc:title>
      </cc:Work>
    </rdf:RDF>
  </metadata>
  <g
     inkscape:label="Layer 1"
     inkscape:groupmode="layer"
     id="layer1"
     transform="translate(0,-872.36215)">
    <ellipse
       style="fill:none;fill-opacity:1;fill-rule:nonzero;stroke:#000000;stroke-width:0;stroke-linecap:round;stroke-linejoin:round;stroke-miterlimit:4;stroke-dasharray:none;stroke-dashoffset:0;stroke-opacity:1"
       id="path4136"
       cx="88.922272"
       cy="962.17712"
       rx="82.00161"
       ry="82.001617" />
    <g
       id="g4580"
       transform="matrix(0.31030659,0,0,0.29613375,50.158055,949.71306)">
      <g
         id="g6681">
        <path
           style="fill:none;stroke:#000000;stroke-width:2.55849314px;stroke-linecap:round;stroke-linejoin:miter;stroke-miterlimit:4;stroke-dasharray:none;stroke-opacity:1"
           d="m 191.76739,-44.08557 4.50727,13.76989 -0.84511,9.4668"
           id="path7-8"
           inkscape:connector-curvature="0" />
        <path
           style="fill:none;stroke:#000000;stroke-width:5.11698627px;stroke-linecap:round;stroke-linejoin:miter;stroke-miterlimit:4;stroke-dasharray:none;stroke-opacity:1"
           d="m 136.27154,-55.417069 52.39709,0.573972"
           id="path9-9"
           inkscape:connector-curvature="0" />
        <path
           style="fill:none;stroke:#000000;stroke-width:1.56352365px;stroke-linecap:butt;stroke-linejoin:miter;stroke-miterlimit:4;stroke-dasharray:none;stroke-opacity:1"
           d="m 69.366661,-37.057236 1.971933,-0.860618 3.662158,-2.294935 2.535343,-0.717228 2.9579,-0.573972 4.225572,0 3.803014,0.430309 5.634099,2.151548 0.563431,0.286646 1.549376,0.717226 2.394487,2.151546 3.098756,4.016174 1.97193,2.438462"
           id="path11-4"
           inkscape:connector-curvature="0" />
        <path
           style="fill:#000000;fill-opacity:1;fill-rule:nonzero;stroke:#000000;stroke-width:0.99496949px;stroke-linecap:butt;stroke-linejoin:miter;stroke-miterlimit:4;stroke-dasharray:none;stroke-opacity:1"
           d="m 79.93059,-31.750067 0.563434,1.721236 -0.563434,2.725315 -0.985968,0.71716 -1.267671,0.143668 -2.253642,-1.577776 -0.845114,-1.577844 -0.563431,-1.721239 0.563431,-2.725244 0.98597,-0.717229 1.126816,-0.143668 2.394495,1.721237 0.845114,1.434384 z"
           id="path13-6"
           inkscape:connector-curvature="0" />
        <path
           style="fill:#000000;fill-opacity:1;fill-rule:nonzero;stroke:#000000;stroke-width:0.42641553px;stroke-linecap:butt;stroke-linejoin:miter;stroke-miterlimit:4;stroke-dasharray:none;stroke-opacity:1"
           d="m 96.128613,-30.45914 0.28168,1.290927 -1.690229,2.868707 -1.831081,1.147535 -1.831085,1.00401 -2.535343,0.143668 -1.126815,-0.430309 -0.281684,-0.430309 -0.281683,-1.290927 1.831085,-2.868707 1.690229,-1.147467 1.831081,-1.004078 2.535343,-0.286646 1.126819,0.573971 0.281683,0.430309 z"
           id="path15-1"
           inkscape:connector-curvature="0" />
        <path
           style="fill:none;stroke:#000000;stroke-width:5.11698627px;stroke-linecap:round;stroke-linejoin:miter;stroke-miterlimit:4;stroke-dasharray:none;stroke-opacity:1"
           d="m 64.014266,-106.48039 -9.296258,-0.43031 -6.197504,0.43031 -5.352387,2.00808 -4.929838,4.15963"
           id="path17-1"
           inkscape:connector-curvature="0" />
        <path
           style="fill:none;stroke:#000000;stroke-width:6.2540946px;stroke-linecap:round;stroke-linejoin:miter;stroke-miterlimit:4;stroke-dasharray:none;stroke-opacity:1"
           d="m 121.6229,-101.74699 5.9158,0.28664 6.90177,1.721241 5.9158,3.442472 5.49324,5.880868"
           id="path19-3"
           inkscape:connector-curvature="0" />
        <path
           style="fill:#000000;fill-opacity:1;fill-rule:evenodd;stroke:#000000;stroke-width:1.13710809px;stroke-linecap:butt;stroke-linejoin:miter;stroke-miterlimit:4;stroke-dasharray:none;stroke-opacity:1"
           d="m 76.831837,6.1171369 -3.803015,-9.6102594 -0.140864,-1.4343194 0.422558,-2.8687714 1.267671,-1.7212363 0.704266,-0.7171614 1.831077,-1.434387 2.112786,-0.717158 1.831082,-0.286646 3.94387,-0.573972 2.112786,0.286646 1.97193,0.143668 4.366427,0.860618 2.253634,1.434387 3.239609,2.0080859 3.239606,2.5818545 2.11278,1.8646961 2.81705,3.0121635 1.12682,1.86462843 0.42256,0.86061817 -11.409044,4.0162414 -12.958424,4.159631 -2.253634,0.717221 -2.9579,0.717169 -2.253642,-5.1637119 z"
           id="path21-9"
           inkscape:connector-curvature="0" />
        <path
           style="fill:#ffffff;fill-opacity:1;fill-rule:evenodd;stroke:#ffffff;stroke-width:0.71069258px;stroke-linecap:butt;stroke-linejoin:miter;stroke-miterlimit:4;stroke-dasharray:none;stroke-opacity:1"
           d="m 80.353147,4.8262097 1.267672,-2.2950052 1.690228,-2.15154535 0.704261,-0.71715838 3.239602,-3.01216617 1.831084,-0.5739691 2.112786,-0.4303091 3.94387,0.1436679 2.112786,0.286649 2.394487,0.717226 3.662157,2.72524661 1.69023,1.43438439 -25.494277,8.6061841 0.422557,-2.4383973 0.422557,-2.2950025 z"
           id="path23-1"
           inkscape:connector-curvature="0" />
        <path
           style="fill:none;stroke:#000000;stroke-width:2.55849314px;stroke-linecap:round;stroke-linejoin:miter;stroke-miterlimit:4;stroke-dasharray:none;stroke-opacity:1"
           d="m 34.435265,-47.384654 -6.760915,11.331496 -2.253634,4.446551 -1.126823,4.446483 0.422557,6.311244 1.549381,6.741488 2.676191,5.1637086 4.50728,6.311179 3.943863,3.5859324 5.774952,4.7333998 6.620059,4.1596362 5.35239,2.868779 3.521313,1.290904 5.634096,3.155577 7.746877,6.88495 3.803014,3.729382 5.070686,3.155568 4.788985,2.008151 7.042616,0 24.508317,-6.88495 22.53639,-7.602172 24.36746,-11.905207 17.18399,-10.6142697 5.21154,-4.5900078"
           id="path25-5"
           inkscape:connector-curvature="0" />
        <path
           style="fill:none;stroke:#000000;stroke-width:2.55849314px;stroke-linecap:round;stroke-linejoin:miter;stroke-miterlimit:4;stroke-dasharray:none;stroke-opacity:1"
           d="m 183.31624,-10.808379 10.56393,3.5859319 6.47922,0.2866465 8.02858,-1.4343844 5.63409,-2.725247 5.49325,-5.020319 3.23961,-6.741485 1.12681,-5.737478 0.14087,-5.450561 -0.56343,-10.470878 -1.69023,-4.876792 -2.53535,-3.442472 -3.80301,-3.012164 -6.47921,-2.295005 -10.56393,0.573972 -8.59199,4.733402 -2.25365,1.721237"
           id="path27-0"
           inkscape:connector-curvature="0" />
        <path
           style="fill:none;stroke:#000000;stroke-width:2.55849314px;stroke-linecap:round;stroke-linejoin:miter;stroke-miterlimit:4;stroke-dasharray:none;stroke-opacity:1"
           d="m 192.47165,-45.806809 4.64813,-1.864694 7.46518,1.864694 3.5213,6.741488 -0.70426,6.884945 -4.08471,6.598096 -7.60603,5.88087"
           id="path29-1"
           inkscape:connector-curvature="0" />
        <path
           style="fill:none;stroke:none"
           d="m 214.44462,-55.417069 6.05666,-11.618345 6.90176,-13.626433 3.52131,-20.511443 -0.42256,-19.65076 -1.40852,-12.90928 -3.23961,-16.78205 -14.50779,-21.94577 -29.15644,-20.22453 -13.94439,-11.04458 -25.49428,-3.29908 -22.53639,-0.43031 -9.4371,2.86878 -2.9579,0.28664 -9.155414,0 -13.66268,-1.14747 2.112786,1.14747 8.31029,3.87279 7.465178,2.58185 -3.239607,1.86469 -13.240128,5.02026 -12.254157,7.74556 -6.901763,7.74557 -1.408525,7.0284 7.606029,-9.32341 15.634615,-9.4668 13.099276,-3.29901 -10.423077,2.8687 -2.394497,0.57397 -7.042616,6.31118 -10.845633,12.33557 0.704261,-1.57784 -7.746885,13.33958 -1.126816,11.76181 8.16944,-10.18397 6.479205,-4.7334 9.859671,-6.59809 9.577961,-1.8647 -1.831077,6.02433 0,1.8647 0.281681,4.01624 0.281683,2.58185 0.704266,0.43031 3.239603,-5.30717 4.50727,-6.59809 3.23961,-2.00809 32.11435,-13.48304 20.00103,4.87686 10.42309,3.44247 3.2396,3.72932 5.07069,4.44655 1.97193,2.15155 0.70426,1.14747 -4.08472,-1.43432 -6.05665,-2.72531 -7.18347,0.57397 5.49324,2.43839 4.78898,3.72939 8.16944,11.9052 9.01456,17.78613 1.69022,15.34767 -3.66216,18.216444 -2.53535,11.905197 -0.98596,8.462725 0,7.745563 0.98596,5.163709 0.28169,4.159701 3.94386,4.159631 6.19751,-4.016241 8.02858,-0.717159 4.64814,0.286647 4.92983,3.155623"
           id="path31-2"
           inkscape:connector-curvature="0" />
        <path
           style="fill:#000000;fill-opacity:1;stroke:#000000;stroke-width:0.71069258px;stroke-linecap:butt;stroke-linejoin:miter;stroke-miterlimit:4;stroke-dasharray:none;stroke-opacity:1"
           d="m 214.44462,-55.417069 6.05666,-11.618345 6.90176,-13.626433 3.52131,-20.511443 -0.42256,-19.65076 -1.40852,-12.90928 -3.23961,-16.78205 -14.50779,-21.94577 -29.15644,-20.22453 -13.94439,-11.04458 -25.49428,-3.29908 -22.53639,-0.43031 -9.4371,2.86878 -2.9579,0.28664 -9.155414,0 -13.66268,-1.14747 2.112786,1.14747 8.31029,3.87279 7.465178,2.58185 -3.239607,1.86469 -13.240128,5.02026 -12.254157,7.74556 -6.901763,7.74557 -1.408525,7.0284 7.606029,-9.32341 15.634615,-9.4668 13.099276,-3.29901 -10.423077,2.8687 -2.394497,0.57397 -7.042616,6.31118 -10.845633,12.33557 0.704261,-1.57784 -7.746885,13.33958 -1.126816,11.76181 8.16944,-10.18397 6.479205,-4.7334 9.859671,-6.59809 9.577961,-1.8647 -1.831077,6.02433 0,1.8647 0.281681,4.01624 0.281683,2.58185 0.704266,0.43031 3.239603,-5.30717 4.50727,-6.59809 3.23961,-2.00809 32.11435,-13.48304 20.00103,4.87686 10.42309,3.44247 3.2396,3.72932 5.07069,4.44655 1.97193,2.15155 0.70426,1.14747 -4.08472,-1.43432 -6.05665,-2.72531 -7.18347,0.57397 5.49324,2.43839 4.78898,3.72939 8.16944,11.9052 9.01456,17.78613 1.69022,15.34767 -3.66216,18.216444 -2.53535,11.905197 -0.98596,8.462725 0,7.745563 0.98596,5.163709 0.28169,4.159701 3.94386,4.159631 6.19751,-4.016241 8.02858,-0.717159 4.64814,0.286647 4.92983,3.155623"
           id="path33-2"
           inkscape:connector-curvature="0" />
        <path
           style="fill:none;stroke:#000000;stroke-width:2.55849314px;stroke-linecap:round;stroke-linejoin:miter;stroke-miterlimit:4;stroke-dasharray:none;stroke-opacity:1"
           d="m 34.576118,-47.528046 1.971933,-5.450626 0.281683,-12.765815 -3.380458,-10.901186 -2.957902,-7.458647 -2.676191,-7.602174 -1.408525,-8.749576 -0.281683,-10.32742 1.126818,-10.32741 3.098753,-10.18403 15.212058,-23.23669 8.169442,-9.17989 9.859663,-7.31525 2.535343,-2.00816"
           id="path35-6"
           inkscape:connector-curvature="0" />
        <path
           style="fill:#000000;fill-opacity:1;fill-rule:evenodd;stroke:#000000;stroke-width:0.71069258px;stroke-linecap:butt;stroke-linejoin:miter;stroke-miterlimit:4;stroke-dasharray:none;stroke-opacity:1"
           d="m 96.128613,-198.99685 -15.916319,3.58586 -39.016115,19.07706 -9.718814,12.47896 -10.423076,13.48304 -4.788985,11.61835 18.592518,-18.07298 -16.338876,22.94977 -1.126816,8.74965 19.860187,-27.39633 -8.310295,15.06082 0.563431,7.88896 10.986486,-17.06891 4.225572,-7.1718 9.014556,-10.32742 12.395006,-9.32341 5.9158,-7.02833 2.394495,-3.01217 9.577961,-6.31124 7.324325,-3.29902 7.042619,-2.295 4.084717,-2.29494 -3.521307,-1.86469 -2.817052,0.57397 z"
           id="path37-9"
           inkscape:connector-curvature="0" />
        <path
           style="fill:none;stroke:#000000;stroke-width:2.70063162px;stroke-linecap:round;stroke-linejoin:miter;stroke-miterlimit:4;stroke-dasharray:none;stroke-opacity:1"
           d="m 34.294417,-74.207211 -7.887738,0.717161 -5.634092,2.438395 -3.803014,3.729392 -2.394498,4.876789 -0.704258,4.87686 0.281683,5.020252 1.126816,3.442472 2.112785,2.581855 2.676199,4.016241 4.084716,4.159631 2.535343,1.577847"
           id="path39-8"
           inkscape:connector-curvature="0" />
        <path
           style="fill:none;stroke:#000000;stroke-width:1.98993897px;stroke-linecap:round;stroke-linejoin:miter;stroke-miterlimit:4;stroke-dasharray:none;stroke-opacity:1"
           d="m 32.322479,-45.3765 -5.9158,-4.016239 -1.549376,-2.008088 -1.126815,-2.008154 -0.281683,-1.577779 -0.422557,-2.438394 0.563431,-2.151546 1.267671,-1.721236 1.831085,-1.004078 1.690228,-0.143668 2.112786,0.143668 3.239602,0.430309 2.9579,0.286646 0.281683,5.594021 -1.690229,4.446548 -1.690229,3.585865 -1.267671,2.581854 z"
           id="path41-9"
           inkscape:connector-curvature="0" />
        <path
           style="fill:#000000;fill-opacity:1;fill-rule:nonzero;stroke:#000000;stroke-width:2.41635466px;stroke-linecap:butt;stroke-linejoin:miter;stroke-miterlimit:4;stroke-dasharray:none;stroke-opacity:1"
           d="m 41.477888,-78.079993 35.917359,4.446483 -2.253639,24.67108 -36.058214,-4.446551 2.394494,-24.671012 z"
           id="path43-3"
           inkscape:connector-curvature="0" />
        <path
           style="fill:#000000;fill-opacity:1;fill-rule:nonzero;stroke:#000000;stroke-width:2.55849314px;stroke-linecap:butt;stroke-linejoin:miter;stroke-miterlimit:4;stroke-dasharray:none;stroke-opacity:1"
           d="m 101.05845,-70.764738 39.72037,3.155555 -1.40852,26.822625 -39.579521,-3.155623 1.267671,-26.822557 z"
           id="path45-8"
           inkscape:connector-curvature="0" />
        <path
           style="fill:none;stroke:#000000;stroke-width:3.26918554px;stroke-linecap:round;stroke-linejoin:miter;stroke-miterlimit:4;stroke-dasharray:none;stroke-opacity:1"
           d="m 101.05845,-55.703918 -9.85967,-6.741556 -8.169442,-1.290927 -9.296257,2.868774"
           id="path47-7"
           inkscape:connector-curvature="0" />
        <path
           style="fill:none;stroke:#000000;stroke-width:5.25912523px;stroke-linecap:round;stroke-linejoin:miter;stroke-miterlimit:4;stroke-dasharray:none;stroke-opacity:1"
           d="m 44.435789,-62.158554 -3.662167,-3.442473 -3.662161,-3.299083"
           id="path49-8"
           inkscape:connector-curvature="0" />
      </g>
    </g>
    <g
       id="g5803"
       transform="translate(-1.0101525,2.2728432)">
      <path
         inkscape:connector-curvature="0"
         id="path51"
         d="m 47.987651,1001.2458 -0.278378,-0.045 -0.196501,-0.1048 -0.180125,-0.1198 -0.114627,-0.1348 -0.04913,-0.1048 -0.08188,-0.1797 -0.03275,-0.1048 0,-0.09 0,-7.78649 -0.163752,0.0599 -0.114626,0.0449 -0.114626,0.0299 -0.180126,0.015 -0.16375,-0.015 -0.294751,-0.0899 -0.130999,-0.0898 -0.08188,-0.10482 -0.114626,-0.22461 0,-0.11979 0.01638,-0.19466 0.229252,-0.32943 0.229251,-0.13477 0.245624,-0.13477 0.57313,-0.2246 0.327501,-0.0898 0.671382,-0.17969 0.704128,-0.10481 0.704128,-0.0749 0.50763,-0.015 0.687755,0.015 1.228132,0.20964 0.556755,0.19465 0.524003,0.22461 0.900631,0.55404 0.393,0.3444 0.343878,0.35938 0.556753,0.82357 0.212878,0.44922 0.180125,0.47916 0.196503,0.97332 0.01638,0.50911 -0.01638,0.52409 -0.212875,1.01823 -0.180129,0.50912 -0.229251,0.47916 -0.638629,0.86849 -0.409378,0.38932 -0.294752,0.23959 -0.671378,0.41924 -0.360254,0.1647 -0.720505,0.2845 -0.786004,0.2096 -0.802382,0.1498 -0.80238,0.1048 -0.818757,0.09 -0.769629,0.06 z m 1.899511,-9.22393 -0.311125,0.015 -0.327504,0.0299 -0.327501,0.0299 -0.311128,0.0449 0,7.63673 0.556752,-0.0599 0.589506,-0.0599 0.622253,-0.0898 0.589505,-0.11979 0.57313,-0.14975 0.524002,-0.20963 0.245625,-0.11979 0.425754,-0.28451 0.180125,-0.17968 0.294752,-0.29948 0.458503,-0.68881 0.163752,-0.37434 0.147376,-0.38932 0.147376,-0.77865 0.01638,-0.38932 -0.01638,-0.34441 -0.130999,-0.67383 -0.131003,-0.32942 -0.147375,-0.29948 -0.409378,-0.56895 -0.262002,-0.25455 -0.278377,-0.23959 -0.655005,-0.4043 -0.393001,-0.14974 -0.409378,-0.13477 -0.917006,-0.14973 -0.507629,-0.015 z"
         style="fill:#000000;fill-opacity:1;fill-rule:nonzero;stroke:none" />
      <path
         inkscape:connector-curvature="0"
         id="path53"
         d="m 59.253725,1000.3624 -0.01638,0.1946 -0.130998,0.2995 -0.114627,0.1048 -0.114626,0.09 -0.245627,0.1048 -0.147376,0.015 -0.130999,-0.015 -0.245629,-0.09 -0.114625,-0.09 -0.09825,-0.09 -0.147376,-0.2845 -0.03275,-0.1797 -0.01638,-1.64716 -0.03275,-1.69207 0,-1.67708 -0.01638,-1.64714 0.04912,-0.16471 0.163752,-0.25456 0.09825,-0.10482 0.09825,-0.0749 0.245628,-0.0898 0.131,0 0.114625,0 0.229252,0.0749 0.09825,0.0749 0.114626,0.0898 0.163748,0.23959 0.04913,0.16471 0.01638,1.63217 0,1.69205 0.01638,1.69207 0.01638,1.63215 z m -1.735764,-9.43363 0.01638,-0.17969 0.130998,-0.32942 0.114627,-0.13477 0.147375,-0.11979 0.311128,-0.13477 0.196501,-0.015 0.180126,0.015 0.327505,0.13477 0.130998,0.11979 0.131003,0.13477 0.147375,0.32942 0,0.17969 0,0.17969 -0.147375,0.32943 -0.131003,0.13476 -0.130998,0.11979 -0.327505,0.13477 -0.180126,0 -0.196501,0 -0.311128,-0.13477 -0.147375,-0.11979 -0.114627,-0.13476 -0.131002,-0.32943 -0.01638,-0.17969 z"
         style="fill:#000000;fill-opacity:1;fill-rule:nonzero;stroke:none" />
      <path
         inkscape:connector-curvature="0"
         id="path55"
         d="m 62.217618,1004.3455 -0.114627,-0.1198 -0.147374,-0.2396 -0.03275,-0.1348 -0.01638,-0.2396 0.08188,-0.2096 0.163752,-0.1797 0.229251,-0.1198 0.147376,-0.03 0.311128,0.015 0.180125,0.045 0.229252,0.1048 0.180126,0.09 0.163752,0.1048 0.180125,0.075 0.163753,0.075 0.180126,0.06 0.196501,0.06 0.229251,0.045 0.360252,0.06 0.376627,0.015 0.393004,-0.015 0.393001,-0.075 0.376626,-0.1048 0.327505,-0.1647 0.163749,-0.1048 0.278377,-0.2546 0.09825,-0.1497 0.114624,-0.2246 0.03275,-0.2845 0.01638,-0.2845 0,-0.2546 0,-1.123 -0.294752,0.1347 -0.311127,0.09 -0.294752,0.09 -0.327505,0.09 -0.4585,0.075 -0.442129,0.03 -0.458501,0.015 -0.458504,-0.075 -0.474879,-0.09 -0.818754,-0.3593 -0.343877,-0.2696 -0.327502,-0.2994 -0.491253,-0.67387 -0.196502,-0.38933 -0.147376,-0.38932 -0.163752,-0.83854 -0.01638,-0.43425 0,-0.43424 0.163749,-0.83855 0.147378,-0.38932 0.147376,-0.31445 0.393001,-0.56901 0.245628,-0.26953 0.262002,-0.23959 0.573129,-0.41927 0.311124,-0.14974 0.327505,-0.14974 0.687755,-0.17969 0.36025,-0.0299 0.376628,-0.015 0.720505,0.11979 0.343878,0.13477 0.540379,0.25456 0.507626,0.2845 0.0655,-0.11979 0.147376,-0.16471 0.09825,-0.0599 0.114627,-0.0599 0.212875,-0.0449 0.114625,0.015 0.229252,0.0449 0.180125,0.11979 0.114626,0.0898 0.147379,0.22461 0.04912,0.14974 0,7.38218 -0.01638,0.4492 -0.147375,0.8086 -0.147376,0.3444 -0.163752,0.3294 -0.589502,0.599 -0.409378,0.2545 -0.37663,0.2097 -0.409377,0.1647 -0.409377,0.1347 -0.409378,0.06 -0.458503,0.03 -0.86788,-0.03 -0.425751,-0.075 -0.573129,-0.1348 -0.442127,-0.1947 -0.44213,-0.2096 -0.524003,-0.2545 z m 5.125411,-5.18104 0.08187,-0.015 0.04913,-0.015 0,-3.11459 -0.01638,-0.015 0,-0.015 -0.393004,-0.31446 -0.47488,-0.29947 -0.245624,-0.14975 -0.491254,-0.20963 -0.262001,-0.0749 -0.458504,0.0299 -0.458503,0.0299 -0.147376,0.0749 -0.163752,0.0749 -0.311125,0.13476 -0.229251,0.22461 -0.360254,0.44922 -0.262002,0.44922 -0.147376,0.44922 -0.03275,0.22461 -0.01638,0.47917 0.229251,1.00325 0.245629,0.55404 0.09825,0.10482 0.114625,0.10482 0.114626,0.10482 0.09825,0.10482 0.442128,0.17968 0.884253,0.16472 0.867881,-0.0898 0.835131,-0.3444 0.409383,-0.28436 z"
         style="fill:#000000;fill-opacity:1;fill-rule:nonzero;stroke:none" />
      <path
         inkscape:connector-curvature="0"
         id="path57"
         d="m 73.172564,1000.3624 -0.01638,0.1946 -0.131003,0.2995 -0.114625,0.1048 -0.114626,0.09 -0.262002,0.1048 -0.130999,0.015 -0.131002,-0.015 -0.245626,-0.09 -0.114625,-0.09 -0.114626,-0.09 -0.131,-0.2845 -0.04912,-0.1797 -0.01638,-1.64716 -0.01638,-1.69207 0,-1.67708 -0.01638,-1.64714 0.04913,-0.16471 0.147376,-0.25456 0.09825,-0.10482 0.114626,-0.0749 0.229252,-0.0898 0.130999,0 0.131002,0 0.229252,0.0749 0.09825,0.0749 0.114626,0.0898 0.147376,0.23959 0.06551,0.16471 0.01638,1.63217 0,1.69205 0.01638,1.69207 0.01638,1.63215 z m -1.735762,-9.43363 0,-0.17969 0.147376,-0.32942 0.114626,-0.13477 0.131002,-0.11979 0.327502,-0.13477 0.180125,-0.015 0.196503,0.015 0.311127,0.13477 0.147376,0.11979 0.131002,0.13477 0.130999,0.32942 0.01638,0.17969 -0.01638,0.17969 -0.130999,0.32943 -0.131002,0.13476 -0.147376,0.11979 -0.311127,0.13477 -0.196503,0 -0.180125,0 -0.327502,-0.13477 -0.131002,-0.11979 -0.114626,-0.13476 -0.147376,-0.32943 0,-0.17969 z"
         style="fill:#000000;fill-opacity:1;fill-rule:nonzero;stroke:none" />
      <path
         inkscape:connector-curvature="0"
         id="path59"
         d="m 75.59608,994.82201 -0.196502,-0.0299 -0.327501,-0.13476 -0.09825,-0.10482 -0.09825,-0.10482 -0.08188,-0.22461 -0.01638,-0.11979 0.01638,-0.11979 0.09825,-0.22461 0.09825,-0.1198 0.114626,-0.10481 0.327505,-0.13477 0.212875,0 1.064382,0 0,-2.74023 0.04912,-0.16472 0.147378,-0.26953 0.09825,-0.0898 0.114626,-0.0749 0.229252,-0.0898 0.131002,-0.015 0.130999,0.015 0.229252,0.0749 0.09825,0.0749 0.114626,0.0898 0.147376,0.23959 0.06551,0.14974 0,2.80013 1.817635,0 0.163752,0.0449 0.262001,0.14974 0.09825,0.0898 0.08187,0.10483 0.08188,0.20963 0,0.10482 0,0.11979 -0.09825,0.22461 -0.08188,0.0898 -0.09825,0.0899 -0.294752,0.14974 -0.180125,0.0449 -1.752135,0 -0.01638,1.34766 0.01638,1.40755 0.01638,1.39258 0,1.34764 -0.01638,0.1946 -0.131002,0.2995 -0.114625,0.1048 -0.131003,0.09 -0.262001,0.1048 -0.131,0 -0.131002,0 -0.245625,-0.1048 -0.114626,-0.09 -0.09825,-0.09 -0.147376,-0.2695 -0.03275,-0.1947 0,-1.36259 -0.01638,-1.40756 0,-2.77018 -1.113506,0 0,0 z"
         style="fill:#000000;fill-opacity:1;fill-rule:nonzero;stroke:none" />
      <path
         inkscape:connector-curvature="0"
         id="path61"
         d="m 88.38504,1000.1827 0,0.015 -0.01641,0 0.04912,0.1198 0.03272,0.2246 -0.03272,0.1048 -0.06552,0.1947 -0.163755,0.1347 -0.163746,0.1198 -0.245626,0.045 -0.131008,0.015 -0.261995,-0.045 -0.147376,-0.06 -0.180132,-0.1647 -0.147375,-0.1647 -0.147376,-0.1947 -0.11462,-0.1946 -0.393004,0.2845 -0.425759,0.2695 -0.21287,0.1198 -0.442126,0.1198 -0.212873,0.015 -0.753257,0.03 -0.736879,0 -0.37663,-0.03 -0.704128,-0.2246 -0.327502,-0.1947 -0.262002,-0.1947 -0.425752,-0.4342 -0.163753,-0.23959 -0.130999,-0.25456 -0.196502,-0.53906 -0.04913,-0.26953 -0.03275,-0.28451 0.01638,-0.58398 0.03275,-0.29948 0.114626,-0.56902 0.212875,-0.55403 0.09825,-0.23959 0.147376,-0.2246 0.147378,-0.22462 0.147376,-0.23958 0.229252,-0.3444 0.245625,-0.29948 0.278374,-0.29948 0.327502,-0.23959 0.245628,-0.16471 0.229252,-0.14974 0.245625,-0.14974 0.245628,-0.14974 0.196502,-0.10482 0.311125,-0.10481 0.376627,-0.10482 0.376624,-0.0749 0.42576,-0.0749 0.393,-0.015 0.393004,0.015 0.311122,0.0898 0.131006,-0.015 0.261998,0.0599 0.114629,0.0749 0.130996,0.0898 0.196501,0.23958 0.06553,0.16472 0,1.18294 -0.01641,1.19792 0,0.59895 0.08188,1.18295 0.09825,0.59896 0.03272,0.16471 0.09825,0.20964 0.261995,0.41927 0.147375,0.20963 0.114629,0.17969 0.09825,0.14982 0.01641,0.075 z m -2.407143,-1.19793 0.03273,-0.015 0.03272,-0.0299 0.01641,-0.015 0.03272,-0.015 -0.114626,-0.52408 -0.114622,-1.07813 -0.01641,-0.55404 0.01641,-1.0931 0.01641,-0.95833 -0.163751,0 -0.212879,0.0299 -0.196501,0.0449 -0.212873,0.0599 -0.180131,0.0449 -0.180122,0.0599 -0.131,0.0449 -0.09825,0.0449 -0.278378,0.11979 -0.474877,0.32943 -0.212875,0.17969 -0.196501,0.19465 -0.327501,0.43425 -0.131003,0.23958 -0.229252,0.47917 -0.147376,0.53907 -0.114625,0.50911 -0.01638,0.53906 0.03275,0.13477 0.04913,0.14974 0.0655,0.13476 0.03275,0.13477 0.09825,0.0898 0.09825,0.10482 0.114626,0.10482 0.114627,0.0898 0.163751,0.0599 0.16375,0.0599 0.343877,0.10482 0.327501,0 0.294754,0.015 0.311125,0 0.294749,-0.0749 0.278383,-0.16472 0.278376,-0.17969 0.278372,-0.17968 0.262004,-0.19466 z"
         style="fill:#000000;fill-opacity:1;fill-rule:nonzero;stroke:none" />
      <path
         inkscape:connector-curvature="0"
         id="path63"
         d="m 92.102187,1000.0928 0.147376,0.1198 0.196502,0.2546 0.04912,0.1497 0.01641,0.1348 -0.04912,0.2396 -0.06553,0.1048 -0.06553,0.1048 -0.229249,0.1348 -0.130999,0.06 -0.147376,0.03 -0.343877,-0.045 -0.180123,-0.075 -0.343877,-0.2096 -0.163755,-0.1048 -0.196499,-0.1048 -0.147376,-0.1348 -0.08187,-0.1198 -0.04913,-0.1497 -0.03272,-0.1947 0,-9.62826 0.03272,-0.16471 0.147376,-0.25456 0.09825,-0.0898 0.114622,-0.0749 0.229255,-0.0898 0.114624,0 0.114625,-0.015 0.245628,0.0749 0.11463,0.0749 0.09825,0.0898 0.180122,0.23959 0.04913,0.14974 0,9.32878 0.06553,0.0449 0.04913,0.0449 0.163752,0.075 z"
         style="fill:#000000;fill-opacity:1;fill-rule:nonzero;stroke:none" />
      <path
         inkscape:connector-curvature="0"
         id="path65"
         d="m 101.8945,999.5987 -0.0982,-0.22461 -0.0164,-0.22461 0,-0.13476 0.0983,-0.23958 0.0819,-0.0898 0.11463,-0.0898 0.26201,-0.0898 0.14737,-0.015 0.14738,0.015 0.29475,0.0898 0.131,0.0898 0.34388,0.32943 0.393,0.25456 0.44213,0.20963 0.47488,0.16471 0.49125,0.10482 0.49125,0.0599 0.50763,0.0449 0.47488,0.015 0.29475,-0.0898 0.14738,-0.0299 0.11462,-0.0449 0.0819,-0.0299 0.0819,-0.0449 0.0982,-0.0599 0.11462,-0.0899 0.24562,-0.14974 0.0819,-0.11979 0.0819,-0.10482 0.0819,-0.10481 0.0983,-0.1198 0.16376,-0.47916 0,-0.22461 0,-0.11979 -0.0164,-0.13477 -0.0491,-0.11979 -0.0491,-0.10482 -0.11462,-0.23958 -0.11463,-0.11979 -0.11462,-0.10482 -0.0982,-0.10482 -0.0983,-0.11979 -0.18013,-0.0899 -0.16375,-0.10482 -0.18013,-0.0898 -0.19649,-0.0749 -0.76963,-0.20963 -0.67139,-0.1198 -0.63863,-0.10481 -0.5895,-0.13477 -0.27837,-0.0749 -0.54038,-0.23958 -0.26201,-0.14974 -0.26199,-0.16471 -0.49126,-0.50912 -0.24562,-0.32943 -0.0819,-0.13477 -0.0327,-0.0749 -0.0327,-0.0899 -0.0164,-0.14974 -0.0164,-0.13477 -0.0164,-0.13476 0,-0.25456 0.0164,-0.29947 0.0327,-0.25457 0.0982,-0.23957 0.11462,-0.22462 0.14738,-0.2246 0.1965,-0.22461 0.21288,-0.25457 0.27837,-0.26953 0.34388,-0.29947 0.393,-0.20964 0.42576,-0.19466 0.44213,-0.11979 0.4585,-0.10482 0.47488,-0.0449 0.49125,-0.0449 0.4585,-0.015 0.26201,0 0.13099,0.015 0.13101,0.015 0.42575,0.0449 0.393,0.13477 0.393,0.14973 0.40938,0.1198 0.21288,0.13477 0.21288,0.3444 0.0164,0.19466 -0.0164,0.11979 -0.11463,0.23959 -0.0983,0.10481 -0.11463,0.0898 -0.29475,0.0898 -0.1965,0.015 -0.0982,0 -0.0327,-0.015 -0.0327,0 -0.58948,-0.16472 -0.49125,-0.10482 -0.45851,-0.0749 -0.42575,-0.0299 -0.4585,0.0299 -0.47488,0.11979 -0.49125,0.16472 -0.60588,0.29948 -0.11462,0.13476 -0.11463,0.11979 -0.11463,0.10482 -0.11462,0.11979 -0.11463,0.20964 -0.0655,0.20963 0,0.20964 0.0164,0.10482 0.0164,0.0898 0.0655,0.0898 0.0655,0.0749 0.0655,0.0899 0.0655,0.0898 0.80238,0.41927 0.55676,0.10482 0.49125,0.10482 0.49125,0.0898 0.4585,0.1198 0.4585,0.10481 0.42575,0.14974 0.47489,0.17969 0.49125,0.23959 0.262,0.14973 0.1965,0.20964 0.18013,0.20964 0.18012,0.19466 0.14738,0.16471 0.21288,0.37435 0.0819,0.20964 0.11463,0.41927 0.0327,0.43424 -0.0164,0.31446 -0.131,0.61393 -0.11463,0.2845 -0.14738,0.29948 -0.37662,0.47919 -0.24563,0.1947 -0.16375,0.1347 -0.18013,0.1348 -0.34387,0.2096 -0.42575,0.2097 -0.47489,0.1497 -0.49125,0.1048 -0.54038,0.015 -0.62225,-0.015 -0.65501,-0.1198 -0.60587,-0.1347 -0.60588,-0.2097 -0.55676,-0.2545 -0.50762,-0.2995 -0.47489,-0.32946 -0.36024,-0.35937 z"
         style="fill:#000000;fill-opacity:1;fill-rule:nonzero;stroke:none" />
      <path
         inkscape:connector-curvature="0"
         id="path67"
         d="m 118.49886,1004.4952 -0.0164,0.1797 -0.11463,0.2845 -0.11462,0.1048 -0.11463,0.1048 -0.24562,0.1048 -0.14738,0 -0.131,0 -0.24562,-0.09 -0.13101,-0.075 -0.11462,-0.1048 -0.131,-0.2695 -0.0327,-0.1947 0,-3.9232 -0.34388,0.1048 -0.68775,0.1498 -0.34388,0.03 -0.40938,0.03 -0.49125,-0.015 -0.47488,-0.045 -0.393,-0.09 -0.47487,-0.1348 -0.75326,-0.4193 -0.29475,-0.29944 -0.24563,-0.29948 -0.36026,-0.6888 -0.11462,-0.37435 -0.0819,-0.38932 -0.0327,-0.8086 0.0491,-0.41927 0.0655,-0.41927 0.21287,-0.79363 0.14738,-0.35937 0.131,-0.26953 0.36025,-0.47917 0.21288,-0.20963 0.24562,-0.19466 0.52401,-0.31446 0.29475,-0.13476 0.29475,-0.11979 0.60588,-0.17969 0.3275,-0.0599 0.32751,-0.0449 0.63863,-0.0299 0.29475,0.015 0.31112,0.0449 0.55676,0.13477 0.262,0.10482 0.14738,-0.0898 0.3275,-0.0299 0.18012,0.0449 0.18013,0.0749 0.262,0.28451 0.0819,0.22461 0,10.34701 0,0 z m -4.73241,-5.25587 0.40938,0.13476 0.81876,0.13477 0.40938,-0.015 0.40937,-0.0299 0.76963,-0.22461 0.37663,-0.19466 0,-3.93816 -0.0819,-0.0449 -0.0327,-0.0749 -0.22925,-0.0749 -0.49125,-0.10482 -0.262,-0.0299 -0.262,0 -0.50763,0.0449 -0.24563,0.0449 -0.22925,0.0749 -0.42575,0.19466 -0.21288,0.13477 -0.1965,0.14974 -0.31113,0.3444 -0.131,0.20963 -0.14737,0.29949 -0.16376,0.61393 -0.0164,0.32943 0.0164,0.64387 0.0983,0.62891 0.0819,0.10482 0.0491,0.11979 0.0819,0.10482 0.0819,0.11979 0.16375,0.16472 0.0983,0.0599 0.0819,0.0749 z"
         style="fill:#000000;fill-opacity:1;fill-rule:nonzero;stroke:none" />
      <path
         inkscape:connector-curvature="0"
         id="path69"
         d="m 120.92237,994.8819 -0.26199,-0.13477 -0.16376,-0.19465 -0.0982,-0.17969 -0.0327,-0.19466 0.0164,-0.13477 0.0983,-0.22461 0.0982,-0.0898 0.11463,-0.10482 0.27837,-0.10482 0.18013,0 0.27838,0.0299 0.37662,0.13476 0.37664,0.17969 0.24562,0.20963 0.60587,-0.41927 0.60589,-0.32942 0.31113,-0.13477 0.63862,-0.14974 0.3275,-0.015 0.21288,0.015 0.3275,0.0749 0.36026,0.10482 0.34387,0.16471 0.34388,0.17969 0.27838,0.26953 0.11463,0.13476 0.14737,0.32943 0,0.17969 0,0.13477 -0.11463,0.23958 -0.0819,0.10482 -0.11463,0.0749 -0.262,0.0898 -0.14738,0.015 -0.1965,-0.0299 -0.18012,-0.0749 -0.14738,-0.11979 -0.16375,-0.13476 -0.16375,-0.11979 -0.18013,-0.1198 -0.18012,-0.0898 -0.21288,-0.015 -0.27838,0.0299 -0.31113,0.13477 -0.31112,0.14974 -0.31113,0.19467 -0.31113,0.20963 -0.27837,0.23959 -0.27838,0.23957 -0.21287,0.19467 0,4.61191 -0.0164,0.1947 -0.14738,0.2845 -0.0982,0.1048 -0.131,0.1048 -0.24562,0.1048 -0.14738,0 -0.131,0 -0.24562,-0.1048 -0.11463,-0.075 -0.0982,-0.1049 -0.14738,-0.2695 -0.0327,-0.1947 0,-4.73168 0,-0.0299 -0.0164,-0.0299 0,-0.0898 0,-0.0749 0.0164,-0.0449 0,-0.0449 0,-0.49414 -0.0655,-0.0299 -0.0655,-0.0299 z"
         style="fill:#000000;fill-opacity:1;fill-rule:nonzero;stroke:none" />
      <path
         inkscape:connector-curvature="0"
         id="path71"
         d="m 129.24093,994.82201 -0.1965,-0.0299 -0.31113,-0.13476 -0.11462,-0.10482 -0.0983,-0.10482 -0.0819,-0.22461 -0.0164,-0.11979 0.0164,-0.11979 0.0983,-0.22461 0.0983,-0.1198 0.11463,-0.10481 0.34387,-0.13477 0.19651,0 1.06437,0 0,-2.74023 0.0491,-0.16472 0.14738,-0.26953 0.0983,-0.0898 0.11463,-0.0749 0.22924,-0.0898 0.13101,-0.015 0.131,0.015 0.22925,0.0749 0.0983,0.0749 0.11463,0.0899 0.16375,0.23958 0.0491,0.14974 0,2.80013 1.81763,0 0.16374,0.0449 0.26201,0.14973 0.0983,0.0898 0.0819,0.10483 0.0819,0.20963 0,0.10482 0,0.11979 -0.0983,0.22461 -0.0819,0.0898 -0.0983,0.0899 -0.29474,0.14974 -0.18013,0.0449 -1.75213,0 -0.0164,1.34766 0.0164,1.40755 0.0164,1.39258 0,1.34766 -0.0164,0.1946 -0.13101,0.2995 -0.11462,0.1048 -0.13101,0.09 -0.24562,0.1048 -0.131,0 -0.131,0 -0.24563,-0.1048 -0.131,-0.09 -0.0983,-0.09 -0.14738,-0.2695 -0.0327,-0.1947 0,-1.36261 -0.0164,-1.40756 0,-2.77018 -1.11351,0 0,0 z"
         style="fill:#000000;fill-opacity:1;fill-rule:nonzero;stroke:none" />
      <path
         inkscape:connector-curvature="0"
         id="path73"
         d="m 57.22321,1010.38 0.09825,0 0.04912,0.045 0.0655,0.06 0.01638,0.06 0,0.06 -0.04913,0.06 -0.04913,0.06 -0.08187,0.03 -0.245628,0 -0.245625,0.015 -0.245628,-0.015 -0.245626,0 -0.08187,-0.015 -0.0655,-0.045 -0.03275,-0.06 -0.01638,-0.075 0.01638,-0.06 0.04912,-0.06 0.0655,-0.045 0.08188,-0.015 0.147376,0 0.0655,0 0.0655,0 0,-2.0065 -0.294752,0 -0.09825,-0.015 -0.04913,-0.045 -0.04912,-0.06 0,-0.075 0.01638,-0.06 0.03275,-0.06 0.06551,-0.045 0.09825,-0.015 0.96613,0 0.08188,0.03 0.04913,0.06 0.03275,0.045 0,0.06 0,0.06 -0.04913,0.06 -0.04912,0.045 -0.08188,0.015 -0.278378,0 0,2.0215 0.114625,0 0.0655,-0.015 0.0655,0 z"
         style="fill:#000000;fill-opacity:1;fill-rule:nonzero;stroke:none" />
      <path
         inkscape:connector-curvature="0"
         id="path75"
         d="m 58.254843,1009.1521 -0.09825,-0.015 -0.04913,-0.045 -0.04913,-0.06 0,-0.06 0,-0.075 0.04913,-0.06 0.0655,-0.045 0.09825,-0.015 0.262001,0 0,-0.7187 0.03275,-0.09 0.03275,-0.06 0.0655,-0.03 0.0655,-0.015 0.04913,0.015 0.04912,0.03 0.0655,0.045 0.01638,0.09 0,0.7337 0.458503,0 0.08188,0.03 0.04912,0.045 0.03275,0.06 0,0.06 0,0.06 -0.04913,0.045 -0.04913,0.045 -0.08187,0.03 -0.442131,0 0,0.3594 0,0.3743 0.01638,0.3744 0,0.3444 -0.01638,0.1048 -0.04912,0.06 -0.06551,0.045 -0.0655,0.015 -0.0655,-0.015 -0.0655,-0.045 -0.04913,-0.06 -0.01638,-0.09 0,-0.3593 0,-0.3744 0,-0.7337 -0.278378,0 0,0 z"
         style="fill:#000000;fill-opacity:1;fill-rule:nonzero;stroke:none" />
      <path
         inkscape:connector-curvature="0"
         id="path77"
         d="m 59.843228,1007.8344 0.01638,-0.09 0.04913,-0.06 0.0655,-0.03 0.04913,-0.015 0.0655,0.015 0.04913,0.03 0.04912,0.045 0.03275,0.09 0,0.6888 -0.01638,0.1048 -0.04912,0.06 -0.04913,0.045 -0.08188,0 -0.04912,0 -0.0655,-0.045 -0.04912,-0.06 -0.01638,-0.09 0,-0.6888 0,0 z"
         style="fill:#000000;fill-opacity:1;fill-rule:nonzero;stroke:none" />
      <path
         inkscape:connector-curvature="0"
         id="path79"
         d="m 60.612859,1010.4399 -0.03275,-0.09 0,-0.06 0.01638,-0.06 0.03275,-0.045 0.04913,-0.03 0.0655,-0.015 0.08188,0.015 0.0655,0.045 0.114627,0.1197 0.147375,0.075 0.147376,0.075 0.163752,0.015 0.09825,-0.03 0.03275,-0.015 0.01638,-0.015 0.01638,-0.015 0,0 0.01638,-0.015 0.01638,-0.015 0.01638,-0.015 0.01638,-0.03 0.01638,-0.015 0,-0.015 0,-0.03 0.01638,-0.015 0,-0.045 0,-0.015 0,-0.03 -0.03275,-0.075 0,-0.015 -0.03275,-0.03 -0.01638,-0.03 -0.114626,-0.075 -0.130999,-0.03 -0.114629,-0.03 -0.114623,-0.03 -0.09825,-0.045 -0.114627,-0.06 -0.09825,-0.06 -0.09825,-0.1198 -0.0655,-0.1048 -0.03275,-0.1348 0.01638,-0.1497 0.03275,-0.1348 0.0655,-0.1348 0.09825,-0.1048 0.114626,-0.09 0.131002,-0.045 0.196502,-0.03 0.196499,0.03 0.196501,0.045 0.180126,0.075 0.08188,0.06 0.01638,0.075 0.01638,0.075 -0.03275,0.06 -0.03275,0.045 -0.08187,0.03 -0.06551,0.015 -0.09825,-0.03 -0.114625,-0.06 -0.114626,-0.015 -0.131002,-0.015 -0.114623,0.015 -0.01638,0 -0.01638,0 -0.01638,0.015 -0.01638,0 -0.04913,0.06 -0.03275,0.06 -0.01638,0.045 0,0.075 0.01638,0.03 0.01638,0.03 0.01638,0.015 0,0.015 0.01638,0.015 0.01638,0.015 0.114625,0.06 0.131,0.045 0.131002,0.03 0.130999,0.045 0.131003,0.045 0.09825,0.075 0.09825,0.075 0.08188,0.1198 0.04912,0.1348 0.01638,0.2396 -0.03275,0.1198 -0.04912,0.1048 -0.163751,0.1797 -0.09825,0.075 -0.06551,0.045 -0.08187,0.015 -0.0655,0.03 -0.0655,0 -0.245664,-0.015 -0.245628,-0.09 -0.229252,-0.1347 -0.163749,-0.1797 z"
         style="fill:#000000;fill-opacity:1;fill-rule:nonzero;stroke:none" />
      <path
         inkscape:connector-curvature="0"
         id="path81"
         d="m 64.444632,1009.1521 -0.08188,-0.015 -0.0655,-0.045 -0.04912,-0.06 0,-0.06 0.01638,-0.075 0.03275,-0.06 0.0655,-0.045 0.09825,-0.015 0.262002,0 0,-0.7187 0.03275,-0.09 0.04913,-0.06 0.04912,-0.03 0.06551,-0.015 0.04912,0.015 0.0655,0.03 0.04913,0.045 0.03275,0.09 0,0.7337 0.44213,0 0.08188,0.03 0.04912,0.045 0.03275,0.06 0.01638,0.06 -0.01638,0.06 -0.03275,0.045 -0.0655,0.045 -0.08187,0.03 -0.425753,0 -0.01638,0.3594 0.01638,0.3743 0,0.3744 0,0.3444 -0.01638,0.1048 -0.04912,0.06 -0.06551,0.045 -0.0655,0.015 -0.0655,-0.015 -0.04913,-0.045 -0.04912,-0.06 -0.03275,-0.09 0,-0.3593 0,-0.3744 0,-0.7337 -0.278375,0 0,0 z"
         style="fill:#000000;fill-opacity:1;fill-rule:nonzero;stroke:none" />
      <path
         inkscape:connector-curvature="0"
         id="path83"
         d="m 66.524271,1010.6345 -0.01638,0.09 -0.04913,0.06 -0.04913,0.045 -0.0655,0 -0.0655,0 -0.0655,-0.045 -0.04913,-0.045 -0.01638,-0.09 0,-2.5605 0.01638,-0.075 0.04913,-0.06 0.04913,-0.03 0.0655,-0.015 0.04913,0 0.0655,0.045 0.04912,0.045 0.03275,0.075 0,1.0781 0.0655,-0.06 0.0655,-0.045 0.09825,-0.06 0.08188,-0.045 0.08188,-0.03 0.09825,-0.03 0.08187,-0.015 0.09825,0 0.08187,0.015 0.08188,0.03 0.131003,0.045 0.114626,0.09 0.09825,0.09 0.0655,0.1198 0.06551,0.1198 0.03275,0.1347 0.03275,0.1348 0.01638,0.1348 0,0.2246 0,0.2096 0,0.2097 0,0.2246 -0.01638,0.09 -0.04913,0.06 -0.04912,0.045 -0.08187,0.015 -0.04913,-0.015 -0.0655,-0.03 -0.04912,-0.06 -0.03275,-0.09 0,-0.4343 0,-0.2096 0,-0.2246 -0.01638,-0.1647 -0.04913,-0.1348 -0.0655,-0.1348 -0.131,-0.09 -0.114625,-0.03 -0.114626,0.03 -0.08188,0.03 -0.09825,0.075 -0.06551,0.06 -0.08187,0.09 -0.0655,0.09 -0.06551,0.075 -0.01638,0.015 -0.01638,0.015 0,0.015 -0.01638,0 0,0.8984 0,0 z"
         style="fill:#000000;fill-opacity:1;fill-rule:nonzero;stroke:none" />
      <path
         inkscape:connector-curvature="0"
         id="path85"
         d="m 69.979419,1010.2302 0.09825,-0.015 0.0655,0.015 0.0655,0.03 0.03275,0.045 0.03275,0.075 -0.01638,0.06 -0.03275,0.075 -0.08188,0.06 -0.147374,0.075 -0.180127,0.075 -0.180125,0.075 -0.180126,0.03 -0.180125,0.015 -0.180128,-0.015 -0.180126,-0.045 -0.163751,-0.09 -0.180126,-0.1497 -0.114626,-0.2097 -0.08188,-0.2395 -0.03275,-0.2396 0.01638,-0.2396 0.08187,-0.2246 0.114626,-0.2246 0.180129,-0.1498 0.229249,-0.1347 0.245627,-0.075 0.245626,-0.06 0.262004,0.045 0.130999,0.03 0.09825,0.09 0.09825,0.09 0.0655,0.1048 0.04913,0.1198 0.01638,0.1348 0,0.1198 -0.0655,0.1198 -0.08188,0.1198 -0.147375,0.1048 -0.147376,0.09 -0.180126,0.06 -0.163751,0.06 -0.180126,0.045 -0.163753,0.045 -0.147376,0.03 -0.04913,0.015 -0.04913,-0.015 0.08188,0.1498 0.114627,0.1048 0.163751,0.075 0.180126,0 0.163752,-0.03 0.163752,-0.06 0.163749,-0.075 0.147376,-0.09 z m -0.917006,-0.9733 -0.147376,0.1048 -0.09825,0.1498 -0.08188,0.1497 -0.01638,0.1797 0.03275,-0.03 0.04912,-0.015 0.163753,-0.045 0.08187,-0.03 0.09825,-0.015 0.0655,-0.015 0.08188,-0.03 0.09825,-0.03 0.09825,-0.03 0.09825,-0.045 0.09825,-0.045 0.0655,-0.045 0.04913,-0.06 -0.01638,-0.1348 -0.0655,-0.075 -0.08188,-0.045 -0.114626,-0.015 -0.130999,0.015 -0.114626,0.03 -0.114626,0.045 -0.09825,0.03 z"
         style="fill:#000000;fill-opacity:1;fill-rule:nonzero;stroke:none" />
      <path
         inkscape:connector-curvature="0"
         id="path87"
         d="m 72.779563,1010.5447 0.08188,0.075 0.01638,0.075 0.01638,0.06 -0.03275,0.06 -0.03275,0.06 -0.08187,0.015 -0.0655,0.015 -0.09825,-0.03 -0.08187,-0.06 -0.03275,-0.03 -0.04913,-0.015 -0.03275,-0.045 -0.03275,-0.03 0,-0.045 -0.01638,-0.045 0,-2.5456 0.01638,-0.09 0.04913,-0.045 0.0655,-0.045 0.04913,0 0.0655,0 0.04913,0.03 0.04912,0.045 0.03275,0.09 0,2.4708 0.01638,0 0.01638,0.015 0.03275,0.015 z"
         style="fill:#000000;fill-opacity:1;fill-rule:nonzero;stroke:none" />
      <path
         inkscape:connector-curvature="0"
         id="path89"
         d="m 73.778444,1010.6196 0,0.1048 -0.0655,0.06 -0.04912,0.045 -0.06551,0 -0.0655,0 -0.0655,-0.045 -0.04913,-0.06 -0.01638,-0.09 0,-0.4342 -0.01638,-0.4492 0,-0.4343 0,-0.4342 0.03275,-0.09 0.04913,-0.06 0.04912,-0.03 0.0655,-0.015 0.04913,0.015 0.0655,0.03 0.04913,0.045 0.03275,0.09 0,0.4342 0,0.4343 0,0.4492 0,0.4342 z m -0.425752,-2.4857 0.01638,-0.1048 0.04913,-0.075 0.0655,-0.06 0.09825,-0.015 0.08188,0.015 0.08187,0.06 0.04913,0.075 0.01638,0.1048 -0.01638,0.09 -0.04913,0.075 -0.08187,0.06 -0.08188,0 -0.09825,0 -0.0655,-0.06 -0.04913,-0.075 -0.01638,-0.09 z"
         style="fill:#000000;fill-opacity:1;fill-rule:nonzero;stroke:none" />
      <path
         inkscape:connector-curvature="0"
         id="path91"
         d="m 74.384322,1009.1521 -0.09825,-0.015 -0.0655,-0.045 -0.03275,-0.06 -0.01638,-0.06 0.01638,-0.075 0.03275,-0.06 0.0655,-0.045 0.09825,-0.015 0.262002,0 0,-0.7187 0.03275,-0.09 0.04912,-0.06 0.04913,-0.03 0.0655,-0.015 0.0655,0.015 0.04913,0.03 0.04913,0.045 0.03275,0.09 0,0.7337 0.442126,0 0.08188,0.03 0.04913,0.045 0.03275,0.06 0.01638,0.06 -0.01638,0.06 -0.03275,0.045 -0.04913,0.045 -0.09825,0.03 -0.425753,0 0,0.3594 0,0.3743 0,0.3744 0,0.3444 0,0.1048 -0.0655,0.06 -0.0655,0.045 -0.0655,0.015 -0.04913,-0.015 -0.0655,-0.045 -0.04913,-0.06 -0.01638,-0.09 0,-0.3593 -0.01638,-0.3744 0,-0.7337 -0.262001,0 0,0 z"
         style="fill:#000000;fill-opacity:1;fill-rule:nonzero;stroke:none" />
      <path
         inkscape:connector-curvature="0"
         id="path93"
         d="m 76.185585,1009.1521 -0.09825,-0.015 -0.04912,-0.045 -0.04913,-0.06 0,-0.06 0,-0.075 0.04913,-0.06 0.0655,-0.045 0.09825,-0.015 0.262,0 0,-0.7187 0.03275,-0.09 0.04912,-0.06 0.04913,-0.03 0.0655,-0.015 0.04912,0.015 0.06551,0.03 0.04912,0.045 0.03275,0.09 0,0.7337 0.442128,0 0.08188,0.03 0.04913,0.045 0.03275,0.06 0.01638,0.06 -0.01638,0.06 -0.03275,0.045 -0.06551,0.045 -0.08187,0.03 -0.425753,0 -0.01638,0.3594 0.01638,0.3743 0,0.3744 0,0.3444 -0.01638,0.1048 -0.04912,0.06 -0.0655,0.045 -0.06551,0.015 -0.0655,-0.015 -0.04912,-0.045 -0.04913,-0.06 -0.03275,-0.09 0,-0.3593 0,-0.3744 0,-0.7337 -0.278378,0 0,0 z"
         style="fill:#000000;fill-opacity:1;fill-rule:nonzero;stroke:none" />
      <path
         inkscape:connector-curvature="0"
         id="path95"
         d="m 78.379851,1010.5447 0.0655,0.075 0.03275,0.075 0,0.06 -0.03275,0.06 -0.03275,0.06 -0.0655,0.015 -0.08187,0.015 -0.08187,-0.03 -0.08188,-0.06 -0.04912,-0.03 -0.04913,-0.015 -0.03275,-0.045 -0.01638,-0.03 -0.01638,-0.045 -0.01638,-0.045 0,-2.5456 0.03275,-0.09 0.04913,-0.045 0.04912,-0.045 0.06551,0 0.04912,0 0.0655,0.03 0.04913,0.045 0.03275,0.09 0,2.4708 0.01638,0 0.01638,0.015 0.03275,0.015 z"
         style="fill:#000000;fill-opacity:1;fill-rule:nonzero;stroke:none" />
      <path
         inkscape:connector-curvature="0"
         id="path97"
         d="m 80.459489,1010.2302 0.09825,-0.015 0.08188,0.015 0.0655,0.03 0.03275,0.045 0.01638,0.075 -0.01638,0.06 -0.03275,0.075 -0.0655,0.06 -0.163752,0.075 -0.180126,0.075 -0.163753,0.075 -0.196498,0.03 -0.180128,0.015 -0.180126,-0.015 -0.163752,-0.045 -0.163749,-0.09 -0.180129,-0.1497 -0.130999,-0.2097 -0.08188,-0.2395 -0.01638,-0.2396 0,-0.2396 0.08187,-0.2246 0.11463,-0.2246 0.196499,-0.1498 0.212877,-0.1347 0.245626,-0.075 0.262001,-0.06 0.245628,0.045 0.131,0.03 0.09825,0.09 0.09825,0.09 0.0655,0.1048 0.0655,0.1198 0.01638,0.1348 -0.01638,0.1198 -0.04912,0.1198 -0.09825,0.1198 -0.130999,0.1048 -0.163752,0.09 -0.163752,0.06 -0.180131,0.06 -0.180126,0.045 -0.163749,0.045 -0.131002,0.03 -0.0655,0.015 -0.04913,-0.015 0.08188,0.1498 0.131002,0.1048 0.147376,0.075 0.196501,0 0.163749,-0.03 0.163752,-0.06 0.163753,-0.075 0.130999,-0.09 z m -0.900633,-0.9733 -0.163749,0.1048 -0.09825,0.1498 -0.0655,0.1497 -0.01638,0.1797 0.03275,-0.03 0.03275,-0.015 0.163752,-0.045 0.09825,-0.03 0.08187,-0.015 0.06551,-0.015 0.08187,-0.03 0.114626,-0.03 0.09825,-0.03 0.09825,-0.045 0.08188,-0.045 0.08187,-0.045 0.03275,-0.06 0,-0.1348 -0.08188,-0.075 -0.08188,-0.045 -0.114626,-0.015 -0.114626,0.015 -0.130999,0.03 -0.114626,0.045 -0.08188,0.03 z"
         style="fill:#000000;fill-opacity:1;fill-rule:nonzero;stroke:none" />
      <path
         inkscape:connector-curvature="0"
         id="path99"
         d="m 83.030382,1009.1521 -0.09825,-0.015 -0.0655,-0.045 -0.03275,-0.06 -0.01638,-0.06 0.01638,-0.075 0.04913,-0.06 0.04912,-0.045 0.114625,-0.015 0.262002,0 0,-0.7187 0.01638,-0.09 0.04912,-0.06 0.04913,-0.03 0.0655,-0.015 0.0655,0.015 0.04913,0.03 0.04913,0.045 0.03275,0.09 0,0.7337 0.442126,0 0.08188,0.03 0.04912,0.045 0.04913,0.06 0,0.06 -0.01638,0.06 -0.03275,0.045 -0.04912,0.045 -0.08188,0.03 -0.442126,0 0,0.3594 0,0.3743 0,0.3744 0,0.3444 0,0.1048 -0.0655,0.06 -0.0655,0.045 -0.04913,0.015 -0.0655,-0.015 -0.0655,-0.045 -0.04913,-0.06 -0.01638,-0.09 0,-0.3593 0,-0.3744 0,-0.7337 -0.278378,0 0,0 z"
         style="fill:#000000;fill-opacity:1;fill-rule:nonzero;stroke:none" />
      <path
         inkscape:connector-curvature="0"
         id="path101"
         d="m 85.093644,1010.6345 0,0.09 -0.04913,0.06 -0.06553,0.045 -0.06552,0 -0.06553,0 -0.0655,-0.045 -0.04913,-0.045 -0.01638,-0.09 0,-2.5605 0.01638,-0.075 0.04913,-0.06 0.0655,-0.03 0.04913,-0.015 0.06552,0 0.04913,0.045 0.04913,0.045 0.03272,0.075 0,1.0781 0.08187,-0.06 0.04913,-0.045 0.09825,-0.06 0.08188,-0.045 0.08187,-0.03 0.114628,-0.03 0.08187,-0.015 0.08187,0 0.08188,0.015 0.09825,0.03 0.130997,0.045 0.09825,0.09 0.09825,0.09 0.06553,0.1198 0.06553,0.1198 0.04912,0.1347 0.01641,0.1348 0.01641,0.1348 0,0.2246 0,0.2096 0,0.2097 0,0.2246 -0.01641,0.09 -0.03272,0.06 -0.06553,0.045 -0.06553,0.015 -0.06552,-0.015 -0.06553,-0.03 -0.04913,-0.06 -0.01641,-0.09 0,-0.4343 0,-0.2096 0,-0.2246 -0.01641,-0.1647 -0.04913,-0.1348 -0.08187,-0.1348 -0.131006,-0.09 -0.114619,-0.03 -0.09825,0.03 -0.09825,0.03 -0.08188,0.075 -0.08187,0.06 -0.06552,0.09 -0.08187,0.09 -0.06553,0.075 0,0.015 -0.01641,0.015 -0.01641,0.015 -0.01641,0 0,0.8984 0,0 z"
         style="fill:#000000;fill-opacity:1;fill-rule:nonzero;stroke:none" />
      <path
         inkscape:connector-curvature="0"
         id="path103"
         d="m 87.484406,1010.6196 -0.01641,0.1048 -0.04913,0.06 -0.06553,0.045 -0.06553,0 -0.06552,0 -0.04913,-0.045 -0.04913,-0.06 -0.01641,-0.09 -0.01641,-0.4342 0,-0.4492 0,-0.4343 0,-0.4342 0.01641,-0.09 0.04913,-0.06 0.06553,-0.03 0.04912,-0.015 0.06553,0.015 0.04913,0.03 0.04913,0.045 0.03272,0.09 0,0.4342 0,0.4343 0.01641,0.4492 0,0.4342 z m -0.42575,-2.4857 0,-0.1048 0.06553,-0.075 0.06552,-0.06 0.08187,-0.015 0.09825,0.015 0.06553,0.06 0.06552,0.075 0,0.1048 0,0.09 -0.06552,0.075 -0.06553,0.06 -0.09825,0 -0.08187,0 -0.06552,-0.06 -0.06553,-0.075 0,-0.09 z"
         style="fill:#000000;fill-opacity:1;fill-rule:nonzero;stroke:none" />
      <path
         inkscape:connector-curvature="0"
         id="path105"
         d="m 89.776926,1010.6345 -0.01641,0.09 -0.04913,0.06 -0.04913,0.045 -0.08188,0.015 -0.06553,0 -0.04913,-0.045 -0.04912,-0.06 -0.01641,-0.09 0,-0.2096 -0.01641,-0.2096 0,-0.4193 0,-0.2995 0,-0.1647 -0.01641,-0.1498 -0.03272,-0.06 -0.04913,-0.015 -0.04913,-0.015 -0.04912,0 -0.163746,0 -0.147375,0.075 -0.147379,0.075 -0.09825,0.1347 -0.04913,0.075 -0.03272,0.045 -0.03272,0.06 -0.01641,0.1049 0,0.4642 0,0.2246 0.01641,0.2396 -0.01641,0.1048 -0.04913,0.06 -0.06552,0.045 -0.06553,0 -0.06553,0 -0.04913,-0.045 -0.04912,-0.06 -0.03273,-0.09 0,-0.4192 0,-0.2097 0,-0.2096 0,-0.4043 0,-0.4343 0.03273,-0.09 0.04912,-0.045 0.04913,-0.045 0.06553,0 0.04913,0 0.06552,0.045 0.04913,0.045 0.01641,0.075 0,0.045 0.147376,-0.1048 0.163755,-0.075 0.180131,-0.06 0.163746,-0.015 0.163752,0.015 0.163755,0.06 0.147376,0.1048 0.09825,0.1498 0.03272,0.075 0.01641,0.075 0,0.09 0,0.1049 0.01641,0.09 -0.01641,0.1048 0,0.1048 0,0.09 0,0.5391 0,0.3144 0,0 z"
         style="fill:#000000;fill-opacity:1;fill-rule:nonzero;stroke:none" />
      <path
         inkscape:connector-curvature="0"
         id="path107"
         d="m 90.448303,1011.6827 -0.06553,-0.075 -0.01641,-0.06 0,-0.06 0.01641,-0.06 0.03273,-0.045 0.06553,-0.03 0.06553,-0.015 0.09825,0.015 0.04913,0.03 0.04912,0.03 0.03272,0.03 0.04913,0.015 0.04912,0.015 0.03273,0.015 0.04912,0.015 0.06553,0.015 0.08187,0.015 0.09825,0 0.09825,0 0.09825,-0.015 0.08188,-0.03 0.08187,-0.045 0.08187,-0.06 0.04913,-0.075 0.03273,-0.06 0.01641,-0.075 0,-0.075 0,-0.06 0,-0.2995 -0.08187,0.03 -0.06553,0.03 -0.08187,0.015 -0.08187,0.03 -0.09825,0.015 -0.114628,0.015 -0.114629,0 -0.11462,-0.015 -0.229258,-0.06 -0.180122,-0.1348 -0.147378,-0.1647 -0.09825,-0.1947 -0.06553,-0.2096 -0.01641,-0.2396 0.01641,-0.2246 0.06553,-0.2097 0.06553,-0.1647 0.114629,-0.1347 0.130996,-0.1348 0.163755,-0.09 0.163746,-0.06 0.180131,-0.03 0.180123,0 0.163756,0.06 0.147374,0.075 0.114621,0.075 0.03272,-0.06 0.04912,-0.03 0.04913,-0.03 0.06553,0 0.04913,0.015 0.04912,0.03 0.04913,0.045 0.01641,0.075 0,1.9616 0,0.2246 -0.06553,0.1947 -0.09825,0.1647 -0.196501,0.1497 -0.08187,0.06 -0.11463,0.045 -0.09825,0.03 -0.09825,0.015 -0.229249,0.015 -0.196499,-0.03 -0.147378,-0.045 -0.114626,-0.045 -0.114623,-0.06 -0.114626,-0.06 z m 1.260881,-1.3776 0.01641,0 0.01641,0 0,-0.8385 0,0 0,0 -0.09824,-0.09 -0.114679,-0.075 -0.131,-0.075 -0.131006,-0.045 -0.09825,0.015 -0.114619,0.015 -0.04913,0.015 -0.03272,0.015 -0.08188,0.03 -0.09825,0.1198 -0.131,0.2395 -0.01641,0.1198 0,0.2546 0.114629,0.2845 0.01641,0.03 0.03273,0.03 0.01641,0.03 0.03272,0.03 0.229249,0.075 0.425751,-0.045 0.196502,-0.1347 z"
         style="fill:#000000;fill-opacity:1;fill-rule:nonzero;stroke:none" />
      <path
         inkscape:connector-curvature="0"
         id="path109"
         d="m 92.56069,1010.4399 -0.03272,-0.09 0.01641,-0.06 0.01641,-0.06 0.03272,-0.045 0.04912,-0.03 0.06553,-0.015 0.08187,0.015 0.06553,0.045 0.11462,0.1197 0.147376,0.075 0.147376,0.075 0.163754,0.015 0.09825,-0.03 0.03272,-0.015 0.01641,-0.015 0.01641,-0.015 0,0 0.01641,-0.015 0,-0.015 0.01641,-0.015 0.03272,-0.03 0.01641,-0.015 0,-0.015 0,-0.03 0.01641,-0.015 0,-0.045 0,-0.015 0,-0.03 -0.03273,-0.075 -0.01641,-0.015 -0.01641,-0.03 -0.01641,-0.03 -0.130998,-0.075 -0.114626,-0.03 -0.114623,-0.03 -0.11463,-0.03 -0.09825,-0.045 -0.114628,-0.06 -0.09825,-0.06 -0.09825,-0.1198 -0.06552,-0.1048 -0.03273,-0.1348 0,-0.1497 0.04913,-0.1348 0.06553,-0.1348 0.09825,-0.1048 0.11463,-0.09 0.130996,-0.045 0.196502,-0.03 0.196501,0.03 0.196503,0.045 0.180122,0.075 0.08188,0.06 0.01641,0.075 0.01641,0.075 -0.03272,0.06 -0.04912,0.045 -0.06553,0.03 -0.06553,0.015 -0.09825,-0.03 -0.114622,-0.06 -0.114627,-0.015 -0.130998,-0.015 -0.11463,0.015 -0.01641,0 -0.01641,0 -0.01641,0.015 -0.01641,0 -0.04913,0.06 -0.03272,0.06 -0.01641,0.045 0,0.075 0.01641,0.03 0.01641,0.03 0,0.015 0.01641,0.015 0.01641,0.015 0.01641,0.015 0.11462,0.06 0.131005,0.045 0.130999,0.03 0.131,0.045 0.114626,0.045 0.114628,0.075 0.09825,0.075 0.06552,0.1198 0.04913,0.1348 0.01641,0.2396 -0.03272,0.1198 -0.03272,0.1048 -0.163746,0.1797 -0.09825,0.075 -0.06553,0.045 -0.08187,0.015 -0.06553,0.03 -0.06553,0 -0.261995,-0.015 -0.245628,-0.09 -0.212879,-0.1347 -0.180122,-0.1797 z"
         style="fill:#000000;fill-opacity:1;fill-rule:nonzero;stroke:none" />
      <path
         inkscape:connector-curvature="0"
         id="path111"
         d="m 96.408837,1009.1521 -0.08187,-0.015 -0.06553,-0.045 -0.03273,-0.06 -0.01641,-0.06 0.01641,-0.075 0.03273,-0.06 0.06553,-0.045 0.09825,-0.015 0.262004,0 0,-0.7187 0.03273,-0.09 0.04913,-0.06 0.04912,-0.03 0.06553,-0.015 0.06553,0.015 0.04912,0.03 0.04913,0.045 0.03273,0.09 0,0.7337 0.442127,0 0.08187,0.03 0.04913,0.045 0.03272,0.06 0.01641,0.06 -0.01641,0.06 -0.03272,0.045 -0.06553,0.045 -0.08187,0.03 -0.42575,0 -0.01641,0.3594 0.01641,0.3743 0,0.3744 0,0.3444 -0.01641,0.1048 -0.04913,0.06 -0.06552,0.045 -0.06553,0.015 -0.06553,-0.015 -0.04913,-0.045 -0.04912,-0.06 -0.01641,-0.09 -0.01641,-0.3593 0,-0.3744 0,-0.7337 -0.27838,0 0,0 z"
         style="fill:#000000;fill-opacity:1;fill-rule:nonzero;stroke:none" />
      <path
         inkscape:connector-curvature="0"
         id="path113"
         d="m 98.488479,1010.6345 -0.01641,0.09 -0.04913,0.06 -0.04913,0.045 -0.06553,0 -0.06552,0 -0.06553,-0.045 -0.04913,-0.045 -0.01641,-0.09 0,-2.5605 0.01641,-0.075 0.04913,-0.06 0.04913,-0.03 0.06552,-0.015 0.06553,0 0.04913,0.045 0.04913,0.045 0.03272,0.075 0,1.0781 0.06553,-0.06 0.06553,-0.045 0.09825,-0.06 0.08188,-0.045 0.08187,-0.03 0.09825,-0.03 0.09825,-0.015 0.08187,0 0.08188,0.015 0.08187,0.03 0.131,0.045 0.114625,0.09 0.09825,0.09 0.06553,0.1198 0.06552,0.1198 0.03273,0.1347 0.03272,0.1348 0.01641,0.1348 0,0.2246 0,0.2096 0,0.2097 0,0.2246 -0.01641,0.09 -0.04913,0.06 -0.04913,0.045 -0.06553,0.015 -0.06552,-0.015 -0.06553,-0.03 -0.04913,-0.06 -0.01641,-0.09 0,-0.4343 0,-0.2096 -0.01641,-0.2246 -0.01641,-0.1647 -0.04913,-0.1348 -0.06553,-0.1348 -0.130996,-0.09 -0.11463,-0.03 -0.09825,0.03 -0.09825,0.03 -0.09825,0.075 -0.06553,0.06 -0.08188,0.09 -0.06552,0.09 -0.06553,0.075 -0.01641,0.015 0,0.015 -0.01641,0.015 -0.01641,0 0,0.8984 0,0 z"
         style="fill:#000000;fill-opacity:1;fill-rule:nonzero;stroke:none" />
      <path
         inkscape:connector-curvature="0"
         id="path115"
         d="m 102.222,1010.5746 0,0 -0.0164,0 0.0327,0.06 -0.0164,0.06 -0.0164,0.06 -0.0327,0.03 -0.0491,0.03 -0.0491,0.015 -0.0655,0 -0.0819,-0.03 -0.0327,-0.03 -0.0491,-0.06 -0.0327,-0.045 -0.0327,-0.045 -0.0819,0.075 -0.11463,0.075 -0.0983,0.045 -0.11463,0.015 -0.18012,0.015 -0.1965,-0.015 -0.18013,-0.015 -0.16375,-0.1048 -0.11463,-0.09 -0.0982,-0.1347 -0.0491,-0.1348 -0.0327,-0.1498 -0.0164,-0.1497 0.0164,-0.1497 0.0327,-0.1498 0.0491,-0.1497 0.0164,-0.06 0.0491,-0.06 0.0327,-0.06 0.0327,-0.075 0.0491,-0.09 0.0655,-0.075 0.0655,-0.075 0.0819,-0.06 0.0655,-0.045 0.0655,-0.045 0.0491,-0.045 0.0655,-0.03 0.0491,-0.03 0.0819,-0.03 0.0819,-0.03 0.0983,-0.015 0.0982,-0.03 0.0983,0 0.0982,0.015 0.0819,0.015 0.0655,0 0.0655,0.03 0.0491,0.06 0.0491,0.075 0,0.3144 -0.0164,0.3145 0.0164,0.3144 0.0327,0.3145 0.0164,0.045 0.0164,0.06 0.0655,0.1049 0.0327,0.06 0.0327,0.045 0.0164,0.045 0.0164,0.015 z m -0.60588,-0.3144 0.0164,0 0,-0.015 0.0164,0 0,0 -0.0491,-0.2845 -0.0164,-0.2845 0.0164,-0.2995 0,-0.2546 -0.0491,0 -0.0491,0.015 -0.0491,0 -0.0491,0.03 -0.0491,0 -0.0327,0.015 -0.0491,0.015 -0.0164,0.015 -0.13101,0.075 -0.0983,0.09 -0.0982,0.1048 -0.0655,0.1347 -0.0655,0.1198 -0.0327,0.1348 -0.0327,0.1497 0,0.1348 0,0.045 0.0164,0.03 0.0164,0.03 0.0164,0.045 0.0164,0.015 0.0327,0.03 0.0164,0.03 0.0327,0.03 0.0491,0.015 0.0327,0.015 0.0819,0.03 0.0819,0 0.0819,0 0.0655,0 0.0819,-0.015 0.0655,-0.045 0.0655,-0.045 0.0655,-0.06 0.0655,-0.045 z"
         style="fill:#000000;fill-opacity:1;fill-rule:nonzero;stroke:none" />
      <path
         inkscape:connector-curvature="0"
         id="path117"
         d="m 102.63138,1009.1521 -0.0982,-0.015 -0.0491,-0.045 -0.0491,-0.06 0,-0.06 0,-0.075 0.0491,-0.06 0.0655,-0.045 0.0982,-0.015 0.26201,0 0,-0.7187 0.0327,-0.09 0.0327,-0.06 0.0655,-0.03 0.0655,-0.015 0.0491,0.015 0.0491,0.03 0.0491,0.045 0.0327,0.09 0,0.7337 0.4585,0 0.0819,0.03 0.0491,0.045 0.0327,0.06 0,0.06 0,0.06 -0.0491,0.045 -0.0491,0.045 -0.0819,0.03 -0.44213,0 0,0.3594 0,0.3743 0,0.3744 0.0164,0.3444 -0.0164,0.1048 -0.0491,0.06 -0.0655,0.045 -0.0655,0.015 -0.0655,-0.015 -0.0655,-0.045 -0.0491,-0.06 -0.0164,-0.09 0,-0.3593 0,-0.3744 0,-0.7337 -0.27837,0 0,0 z"
         style="fill:#000000;fill-opacity:1;fill-rule:nonzero;stroke:none" />
      <path
         inkscape:connector-curvature="0"
         id="path119"
         d="m 107.13454,1010.2752 0.0655,-0.045 0.0819,-0.015 0.0655,0.015 0.0655,0.03 0.0327,0.06 0.0164,0.075 -0.0164,0.075 -0.0491,0.075 -0.16375,0.1497 -0.1965,0.075 -0.21288,0.06 -0.1965,-0.015 -0.1965,-0.045 -0.18012,-0.1198 -0.16376,-0.1348 -0.0982,-0.2096 -0.0491,-0.1198 -0.0164,-0.1348 -0.0327,-0.1347 0.0164,-0.1348 0.0164,-0.2246 0.0819,-0.2246 0.0982,-0.2097 0.14738,-0.1796 0.16375,-0.1498 0.21287,-0.09 0.0983,-0.03 0.24563,0 0.11463,0.03 0.131,0.045 0.0983,0.06 0.0982,0.06 0.0982,0.09 0.0491,0.075 0,0.075 0,0.06 -0.0327,0.045 -0.0491,0.045 -0.0655,0.015 -0.0655,0 -0.0819,-0.03 -0.14737,-0.1348 -0.14738,-0.045 -0.14738,-0.015 -0.131,0.045 -0.11462,0.06 -0.0982,0.1198 -0.0819,0.1198 -0.0655,0.1497 -0.0491,0.1498 0,0.1647 0,0.1647 0.0655,0.1498 0.0655,0.1197 0.0819,0.075 0.0983,0.06 0.11463,0.03 0.0983,0 0.11462,-0.03 0.11463,-0.06 0.0983,-0.09 z"
         style="fill:#000000;fill-opacity:1;fill-rule:nonzero;stroke:none" />
      <path
         inkscape:connector-curvature="0"
         id="path121"
         d="m 107.78954,1009.6462 0.0655,-0.1497 0.0655,-0.1348 0.0819,-0.1347 0.0982,-0.1198 0.11462,-0.1048 0.11463,-0.09 0.14738,-0.075 0.16375,-0.045 0.131,-0.03 0.22925,0.03 0.0982,0.03 0.1965,0.1197 0.131,0.1797 0.11463,0.1947 0.0491,0.2396 0.0327,0.2246 -0.0491,0.2246 -0.0819,0.2695 -0.16375,0.2396 -0.0982,0.1048 -0.22925,0.1797 -0.131,0.06 -0.1965,0.06 -0.18013,-0.015 -0.18013,-0.03 -0.16375,-0.075 -0.131,-0.1049 -0.11463,-0.1497 -0.0819,-0.1647 -0.0491,-0.1947 -0.0164,-0.1198 0,-0.1198 0,-0.1197 0.0327,-0.1198 0,-0.06 z m 0.37663,0.1049 -0.0164,0.09 -0.0164,0.09 0,0.09 0.0164,0.09 0.0164,0.1198 0.0491,0.1048 0.0819,0.09 0.0819,0.06 0.0982,0.045 0.11462,0.015 0.11462,-0.015 0.11463,-0.06 0.14738,-0.1048 0.0983,-0.1348 0.0819,-0.1497 0.0491,-0.1647 0.0327,-0.1498 -0.0164,-0.1497 -0.0164,-0.1497 -0.0655,-0.1348 -0.0983,-0.1048 -0.11463,-0.06 -0.131,-0.03 -0.16375,0.045 -0.18013,0.09 -0.11462,0.1497 -0.0983,0.1498 -0.0655,0.1797 z"
         style="fill:#000000;fill-opacity:1;fill-rule:nonzero;stroke:none" />
      <path
         inkscape:connector-curvature="0"
         id="path123"
         d="m 111.89969,1010.4548 0.0491,0.06 0,0.09 0,0.06 -0.0491,0.06 -0.0491,0.045 -0.0655,0 -0.0982,-0.015 -0.0819,-0.075 -0.0819,-0.1048 -0.0491,-0.1048 -0.13101,0.1197 -0.14737,0.09 -0.18013,0.075 -0.16375,0.015 -0.131,0 -0.11463,-0.045 -0.11462,-0.045 -0.0983,-0.075 -0.0982,-0.075 -0.0819,-0.1048 -0.0655,-0.09 -0.0491,-0.1198 -0.0327,-0.1198 -0.0164,-0.1347 -0.0164,-0.1498 0,-0.1497 0,-0.1947 0.0164,-0.1797 0,-0.1647 0,-0.1497 0.0327,-0.09 0.0491,-0.045 0.0491,-0.045 0.0655,0 0.0491,0 0.0655,0.03 0.0491,0.06 0.0327,0.075 -0.0164,0.2096 0,0.2097 0,0.1946 0,0.2246 0.0164,0.2396 0.0983,0.1797 0.0491,0.075 0.14738,0.09 0.0983,0 0.0655,0 0.0819,-0.015 0.0655,-0.03 0.0655,-0.045 0.0491,-0.06 0.0655,-0.045 0.0491,-0.06 0.0327,-0.06 0.0164,-0.015 0.0164,0 0.0164,-0.015 0,-0.015 -0.0164,-0.2246 -0.0164,-0.2246 0,-0.2695 0.0164,-0.1348 0.0164,-0.1198 0.0327,-0.1048 0.0327,-0.075 0.0655,-0.06 0.0819,-0.015 0.0655,0.015 0.0491,0.045 0.0491,0.06 0.0164,0.09 0,0.1048 -0.0164,0.1497 -0.0164,0.1498 0,0.1647 0,0.1348 0,0.1198 0.0164,0.1347 0.0164,0.1198 0.0327,0.1048 0.0327,0.1048 0.0327,0.09 0.0491,0.075 z"
         style="fill:#000000;fill-opacity:1;fill-rule:nonzero;stroke:none" />
      <path
         inkscape:connector-curvature="0"
         id="path125"
         d="m 114.04483,1010.6345 -0.0164,0.09 -0.0491,0.06 -0.0655,0.045 -0.0655,0.015 -0.0655,0 -0.0491,-0.045 -0.0491,-0.06 -0.0327,-0.09 0,-0.2096 0,-0.2096 0,-0.4193 0,-0.2995 0,-0.1647 -0.0164,-0.1498 -0.0327,-0.06 -0.0491,-0.015 -0.0491,-0.015 -0.0655,0 -0.14738,0 -0.16375,0.075 -0.131,0.075 -0.11463,0.1347 -0.0491,0.075 -0.0327,0.045 -0.0164,0.06 -0.0164,0.1049 0,0.4642 0,0.2246 0,0.2396 -0.0164,0.1048 -0.0491,0.06 -0.0491,0.045 -0.0655,0 -0.0655,0 -0.0655,-0.045 -0.0491,-0.06 -0.0164,-0.09 0,-0.4192 0,-0.2097 0,-0.2096 0,-0.4043 0,-0.4343 0.0164,-0.09 0.0491,-0.045 0.0491,-0.045 0.0655,0 0.0655,0 0.0491,0.045 0.0491,0.045 0.0327,0.075 0,0.045 0.14738,-0.1048 0.16376,-0.075 0.16375,-0.06 0.18012,-0.015 0.16375,0.015 0.14738,0.06 0.14738,0.1048 0.11462,0.1498 0.0164,0.075 0.0164,0.075 0.0164,0.09 0,0.1049 0,0.09 0,0.1048 0,0.1048 0,0.09 0,0.539 0,0.3145 0,0 z"
         style="fill:#000000;fill-opacity:1;fill-rule:nonzero;stroke:none" />
      <path
         inkscape:connector-curvature="0"
         id="path127"
         d="m 114.65071,1009.1521 -0.0983,-0.015 -0.0655,-0.045 -0.0327,-0.06 0,-0.06 0,-0.075 0.0491,-0.06 0.0655,-0.045 0.0982,-0.015 0.262,0 0,-0.7187 0.0164,-0.09 0.0491,-0.06 0.0655,-0.03 0.0491,-0.015 0.0655,0.015 0.0491,0.03 0.0491,0.045 0.0327,0.09 0,0.7337 0.45849,0 0.0655,0.03 0.0655,0.045 0.0327,0.06 0,0.06 0,0.06 -0.0491,0.045 -0.0491,0.045 -0.0819,0.03 -0.44213,0 0,0.3594 0,0.3743 0,0.3744 0,0.3444 0,0.1048 -0.0655,0.06 -0.0491,0.045 -0.0655,0.015 -0.0655,-0.015 -0.0655,-0.045 -0.0491,-0.06 -0.0164,-0.09 0,-0.3593 0,-0.3744 0,-0.7337 -0.27837,0 0,0 z"
         style="fill:#000000;fill-opacity:1;fill-rule:nonzero;stroke:none" />
      <text
         transform="scale(1.0208867,0.97954063)"
         sodipodi:linespacing="125%"
         id="text4604"
         y="998.55273"
         x="19.124073"
         style="font-style:normal;font-variant:normal;font-weight:normal;font-stretch:normal;font-size:19.87870789px;line-height:125%;font-family:Chalkboard;-inkscape-font-specification:'Chalkboard, Normal';text-align:start;letter-spacing:0px;word-spacing:0px;writing-mode:lr-tb;text-anchor:start;fill:#000000;fill-opacity:1;stroke:none;stroke-width:1px;stroke-linecap:butt;stroke-linejoin:miter;stroke-opacity:1"
         xml:space="preserve"><tspan
           y="998.55273"
           x="19.124073"
           id="tspan4606"
           sodipodi:role="line">Little Driver 1.9</tspan></text>
      <g
         id="text4604-1"
         style="font-style:normal;font-variant:normal;font-weight:normal;font-stretch:normal;font-size:7.07115459px;line-height:125%;font-family:Chalkboard;-inkscape-font-specification:'Chalkboard, Normal';text-align:start;letter-spacing:0px;word-spacing:0px;writing-mode:lr-tb;text-anchor:start;fill:#000000;fill-opacity:1;stroke:none;stroke-width:1px;stroke-linecap:butt;stroke-linejoin:miter;stroke-opacity:1"
         transform="matrix(1.0219156,0,0,1.0778,1119.8158,399.47526)">
        <path
           id="path6555"
           d="m -1039.9748,575.64719 q 0.078,-0.13283 0.1797,-0.17189 0.1094,-0.0469 0.2031,-0.0156 0.1016,0.0234 0.1641,0.12502 0.07,0.0938 0.062,0.24221 -0.2266,0.7579 -0.4688,1.52362 -0.2344,0.7579 -0.5782,1.47674 -0.1172,0.14064 -0.2578,0.14845 -0.1407,0.008 -0.2735,-0.12501 -0.2188,-0.43755 -0.4063,-0.88292 -0.1875,-0.44536 -0.3672,-0.89854 -0.031,-0.0625 -0.062,-0.12502 -0.024,-0.0703 -0.047,-0.14064 -0.1016,0.25003 -0.1953,0.49225 -0.094,0.2344 -0.1876,0.48443 -0.094,0.24222 -0.1953,0.50006 -0.1016,0.25784 -0.2188,0.55475 -0.1406,0.1719 -0.3125,0.14846 -0.1719,-0.0234 -0.2657,-0.21878 -0.1797,-0.42974 -0.3203,-0.85948 -0.1328,-0.43755 -0.2657,-0.88291 -0.094,-0.29691 -0.1719,-0.58601 -0.07,-0.29691 -0.1172,-0.59382 -0.023,-0.1719 0.055,-0.27347 0.078,-0.10939 0.1875,-0.13283 0.1094,-0.0234 0.2188,0.0469 0.1172,0.0625 0.1641,0.22659 0.086,0.5235 0.2266,1.047 0.1485,0.5235 0.3282,1.03919 0.1015,-0.25785 0.1875,-0.48444 0.094,-0.22659 0.1797,-0.45318 0.094,-0.22658 0.1953,-0.48443 0.1094,-0.25784 0.2344,-0.57819 0.062,-0.10939 0.1485,-0.15627 0.094,-0.0469 0.1797,-0.0312 0.094,0.008 0.1719,0.0781 0.078,0.0625 0.1172,0.18752 0.07,0.25003 0.1641,0.49225 0.1015,0.2344 0.1953,0.4688 0.1016,0.26566 0.2032,0.53132 0.1093,0.25784 0.2187,0.51568 0.2188,-0.54694 0.3829,-1.1095 0.1719,-0.56257 0.3438,-1.12514 z"
           inkscape:connector-curvature="0" />
        <path
           id="path6557"
           d="m -1034.8786,575.64719 q 0.078,-0.13283 0.1797,-0.17189 0.1094,-0.0469 0.2031,-0.0156 0.1016,0.0234 0.1641,0.12502 0.07,0.0938 0.062,0.24221 -0.2266,0.7579 -0.4688,1.52362 -0.2344,0.7579 -0.5782,1.47674 -0.1172,0.14064 -0.2578,0.14845 -0.1407,0.008 -0.2735,-0.12501 -0.2188,-0.43755 -0.4063,-0.88292 -0.1875,-0.44536 -0.3672,-0.89854 -0.031,-0.0625 -0.062,-0.12502 -0.024,-0.0703 -0.047,-0.14064 -0.1016,0.25003 -0.1953,0.49225 -0.094,0.2344 -0.1876,0.48443 -0.094,0.24222 -0.1953,0.50006 -0.1016,0.25784 -0.2188,0.55475 -0.1406,0.1719 -0.3125,0.14846 -0.1719,-0.0234 -0.2657,-0.21878 -0.1797,-0.42974 -0.3203,-0.85948 -0.1328,-0.43755 -0.2657,-0.88291 -0.094,-0.29691 -0.1719,-0.58601 -0.07,-0.29691 -0.1172,-0.59382 -0.023,-0.1719 0.055,-0.27347 0.078,-0.10939 0.1876,-0.13283 0.1093,-0.0234 0.2187,0.0469 0.1172,0.0625 0.1641,0.22659 0.086,0.5235 0.2266,1.047 0.1485,0.5235 0.3282,1.03919 0.1015,-0.25785 0.1875,-0.48444 0.094,-0.22659 0.1797,-0.45318 0.094,-0.22658 0.1953,-0.48443 0.1094,-0.25784 0.2344,-0.57819 0.062,-0.10939 0.1485,-0.15627 0.094,-0.0469 0.1797,-0.0312 0.094,0.008 0.1719,0.0781 0.078,0.0625 0.1172,0.18752 0.07,0.25003 0.1641,0.49225 0.1016,0.2344 0.1953,0.4688 0.1016,0.26566 0.2032,0.53132 0.1093,0.25784 0.2187,0.51568 0.2188,-0.54694 0.3829,-1.1095 0.1719,-0.56257 0.3438,-1.12514 z"
           inkscape:connector-curvature="0" />
        <path
           id="path6559"
           d="m -1029.7824,575.64719 q 0.078,-0.13283 0.1797,-0.17189 0.1094,-0.0469 0.2031,-0.0156 0.1016,0.0234 0.1641,0.12502 0.07,0.0938 0.062,0.24221 -0.2266,0.7579 -0.4688,1.52362 -0.2344,0.7579 -0.5782,1.47674 -0.1172,0.14064 -0.2578,0.14845 -0.1406,0.008 -0.2735,-0.12501 -0.2188,-0.43755 -0.4063,-0.88292 -0.1875,-0.44536 -0.3672,-0.89854 -0.031,-0.0625 -0.062,-0.12502 -0.024,-0.0703 -0.047,-0.14064 -0.1016,0.25003 -0.1953,0.49225 -0.094,0.2344 -0.1876,0.48443 -0.094,0.24222 -0.1953,0.50006 -0.1016,0.25784 -0.2188,0.55475 -0.1406,0.1719 -0.3125,0.14846 -0.1719,-0.0234 -0.2657,-0.21878 -0.1797,-0.42974 -0.3203,-0.85948 -0.1328,-0.43755 -0.2657,-0.88291 -0.094,-0.29691 -0.1719,-0.58601 -0.07,-0.29691 -0.1172,-0.59382 -0.023,-0.1719 0.055,-0.27347 0.078,-0.10939 0.1876,-0.13283 0.1093,-0.0234 0.2187,0.0469 0.1172,0.0625 0.1641,0.22659 0.086,0.5235 0.2266,1.047 0.1485,0.5235 0.3282,1.03919 0.1015,-0.25785 0.1875,-0.48444 0.094,-0.22659 0.1797,-0.45318 0.094,-0.22658 0.1953,-0.48443 0.1094,-0.25784 0.2344,-0.57819 0.062,-0.10939 0.1485,-0.15627 0.094,-0.0469 0.1797,-0.0312 0.094,0.008 0.1719,0.0781 0.078,0.0625 0.1172,0.18752 0.07,0.25003 0.1641,0.49225 0.1016,0.2344 0.1953,0.4688 0.1016,0.26566 0.2032,0.53132 0.1094,0.25784 0.2187,0.51568 0.2188,-0.54694 0.3829,-1.1095 0.1719,-0.56257 0.3438,-1.12514 z"
           inkscape:connector-curvature="0" />
        <path
           id="path6561"
           d="m -1027.9275,578.51472 q 0,0.17971 -0.1407,0.31254 -0.1328,0.12501 -0.3203,0.12501 -0.211,0 -0.3516,-0.12501 -0.1329,-0.13283 -0.1329,-0.31254 0,-0.17971 0.1329,-0.31254 0.1406,-0.13282 0.3516,-0.13282 0.1875,0 0.3203,0.13282 0.1407,0.13283 0.1407,0.31254 z"
           inkscape:connector-curvature="0" />
        <path
           id="path6563"
           d="m -1024.1709,578.36627 q 0.1015,0.14064 0.078,0.27347 -0.016,0.12501 -0.1016,0.20315 -0.078,0.0703 -0.2109,0.0703 -0.1251,-0.008 -0.2501,-0.13283 -0.039,-0.0391 -0.07,-0.0781 -0.031,-0.0469 -0.047,-0.0859 -0.2344,0.20315 -0.5469,0.31253 -0.3047,0.11721 -0.6251,0.11721 -0.3125,0 -0.6016,-0.12502 -0.2891,-0.13283 -0.4844,-0.4063 -0.1485,-0.21096 -0.2188,-0.4688 -0.062,-0.26566 -0.062,-0.53132 0,-0.27347 0.062,-0.53131 0.07,-0.26566 0.1719,-0.49225 0.094,-0.20315 0.2656,-0.36723 0.1797,-0.16408 0.3751,-0.26565 0.1797,-0.10158 0.3985,-0.16409 0.2265,-0.0703 0.4297,-0.0781 0.1875,0 0.375,0.008 0.1876,0.008 0.3673,0.0625 -0.01,-0.56257 -0.016,-0.94542 0,-0.39068 0,-0.5235 0.031,-0.14846 0.1172,-0.22659 0.094,-0.0781 0.1876,-0.0781 0.1015,-0.008 0.1953,0.0625 0.094,0.0703 0.1406,0.21878 l 0,4.08642 q 0.016,0.0234 0.031,0.0469 0.023,0.0156 0.039,0.0391 z m -0.6876,-0.56257 0,-0.10939 q 0,-0.2891 0,-0.63289 0,-0.3516 -0.01,-0.66414 l -0.047,-0.0234 q -0.023,-0.0156 -0.047,-0.0312 -0.016,-0.0156 -0.039,-0.0313 -0.2344,-0.0703 -0.4922,-0.0625 -0.2578,0.008 -0.4844,0.10157 -0.2266,0.0859 -0.4063,0.25785 -0.1719,0.17189 -0.2423,0.43755 -0.062,0.24221 -0.047,0.42192 0.016,0.17971 0.047,0.42193 0.031,0.0625 0.055,0.12501 0.031,0.0625 0.063,0.12502 l 0.1562,0.15627 q 0.094,0.0312 0.1797,0.0781 0.3126,0.0312 0.5704,-0.0312 0.2657,-0.0625 0.5079,-0.27347 0.01,-0.0156 0.031,-0.0391 0.031,-0.0312 0.062,-0.0625 0.031,-0.0312 0.055,-0.0547 0.031,-0.0313 0.039,-0.0391 l 0.047,-0.0703 z"
           inkscape:connector-curvature="0" />
        <path
           id="path6565"
           d="m -1022.5624,578.67099 q -0.01,0.17971 -0.1093,0.26566 -0.094,0.0938 -0.211,0.0938 -0.1094,0 -0.2032,-0.0859 -0.094,-0.0781 -0.1172,-0.25003 -0.01,-0.73446 -0.016,-1.50018 0,-0.76571 -0.01,-1.50018 0.039,-0.15626 0.125,-0.2344 0.086,-0.0781 0.1954,-0.0781 0.1015,0 0.1875,0.0703 0.094,0.0703 0.1328,0.21877 0.01,0.73447 0.01,1.50018 0.01,0.76572 0.016,1.50018 z m -0.7188,-4.25051 q 0,-0.17189 0.1094,-0.28909 0.1094,-0.12502 0.2657,-0.12502 0.1562,0 0.2656,0.12502 0.1172,0.1172 0.1172,0.28909 0,0.16409 -0.1172,0.2891 -0.1094,0.1172 -0.2656,0.1172 -0.1563,0 -0.2657,-0.1172 -0.1094,-0.12501 -0.1094,-0.2891 z"
           inkscape:connector-curvature="0" />
        <path
           id="path6567"
           d="m -1021.3415,580.46027 q -0.1016,-0.10158 -0.125,-0.21878 -0.016,-0.1172 0.031,-0.20315 0.055,-0.0859 0.1641,-0.13283 0.1094,-0.0391 0.2579,0.008 0.1015,0.0547 0.1719,0.0938 0.07,0.0469 0.1406,0.0781 0.07,0.0391 0.1406,0.0625 0.078,0.0234 0.1797,0.0469 0.1407,0.0312 0.3048,0.0312 0.164,0 0.3203,-0.0391 0.1641,-0.0391 0.2969,-0.12502 0.1407,-0.086 0.2188,-0.22659 0.055,-0.0938 0.062,-0.22659 0.01,-0.13283 0.01,-0.24221 l 0,-0.50788 q -0.125,0.0625 -0.25,0.10158 -0.125,0.0391 -0.2578,0.0781 -0.1876,0.0391 -0.3751,0.0469 -0.1875,0.0156 -0.375,-0.0234 -0.4063,-0.0703 -0.6798,-0.32816 -0.2735,-0.25785 -0.4141,-0.60945 -0.1328,-0.3516 -0.1407,-0.75009 0,-0.39848 0.1329,-0.75009 0.1094,-0.28128 0.3203,-0.51568 0.211,-0.23441 0.4766,-0.36724 0.2657,-0.14064 0.5704,-0.16408 0.3047,-0.0234 0.5938,0.10939 0.2266,0.10939 0.4298,0.24222 0.047,-0.10939 0.1328,-0.15627 0.086,-0.0547 0.1797,-0.0391 0.094,0.008 0.1719,0.0781 0.086,0.0703 0.125,0.20314 l 0,3.32853 q 0,0.42192 -0.125,0.71883 -0.125,0.30473 -0.4844,0.53913 -0.1485,0.0938 -0.3204,0.16408 -0.1719,0.0703 -0.3438,0.086 -0.375,0.0469 -0.7188,-0.0313 -0.25,-0.0547 -0.4219,-0.14845 -0.1719,-0.086 -0.3985,-0.21096 z m 2.1174,-2.32841 q 0.031,-0.0156 0.055,-0.0156 l 0,-1.40642 q -0.01,0 -0.01,-0.008 -0.1563,-0.14846 -0.3594,-0.28129 -0.1953,-0.13283 -0.4141,-0.19533 -0.094,0.008 -0.1875,0.0156 -0.094,0.008 -0.1876,0.0156 -0.062,0.0312 -0.1328,0.0625 -0.062,0.0312 -0.125,0.0625 -0.3907,0.39848 -0.4297,0.81259 -0.031,0.41411 0.1953,0.91417 0.039,0.0469 0.086,0.0938 0.047,0.0469 0.086,0.0938 0.7501,0.37504 1.422,-0.16409 z"
           inkscape:connector-curvature="0" />
        <path
           id="path6569"
           d="m -1016.817,578.67099 q -0.01,0.17971 -0.1094,0.26566 -0.094,0.0938 -0.211,0.0938 -0.1094,0 -0.2031,-0.0859 -0.094,-0.0781 -0.1172,-0.25003 -0.01,-0.73446 -0.016,-1.50018 0,-0.76571 -0.01,-1.50018 0.039,-0.15626 0.125,-0.2344 0.086,-0.0781 0.1954,-0.0781 0.1015,0 0.1875,0.0703 0.094,0.0703 0.1328,0.21877 0.01,0.73447 0.01,1.50018 0.01,0.76572 0.016,1.50018 z m -0.7189,-4.25051 q 0,-0.17189 0.1094,-0.28909 0.1094,-0.12502 0.2657,-0.12502 0.1562,0 0.2656,0.12502 0.1172,0.1172 0.1172,0.28909 0,0.16409 -0.1172,0.2891 -0.1094,0.1172 -0.2656,0.1172 -0.1563,0 -0.2657,-0.1172 -0.1094,-0.12501 -0.1094,-0.2891 z"
           inkscape:connector-curvature="0" />
        <path
           id="path6571"
           d="m -1015.819,576.17069 q -0.1719,-0.0234 -0.2579,-0.1172 -0.078,-0.0938 -0.078,-0.20315 0,-0.10939 0.086,-0.21096 0.094,-0.10939 0.2734,-0.10939 l 0.4376,0 0,-1.23452 q 0.039,-0.15627 0.125,-0.2344 0.086,-0.0781 0.1953,-0.0781 0.1016,0 0.1876,0.0703 0.094,0.0703 0.1328,0.21878 l 0,1.25796 0.7501,0 q 0.1484,0.0391 0.2188,0.13283 0.07,0.086 0.07,0.18752 0,0.10939 -0.078,0.19534 -0.078,0.086 -0.2344,0.12501 l -0.7266,0 q -0.01,0.60164 0,1.24234 0.01,0.63289 0.01,1.23452 0,0.17971 -0.1094,0.27347 -0.1016,0.086 -0.211,0.086 -0.1093,0 -0.2031,-0.086 -0.094,-0.0781 -0.1172,-0.25003 0,-0.60945 -0.01,-1.25015 0,-0.6407 0,-1.25015 l -0.461,0 0,0 z"
           inkscape:connector-curvature="0" />
        <path
           id="path6573"
           d="m -1010.536,578.58504 q 0,0.008 -0.01,0.008 0.047,0.10938 0.023,0.20315 -0.023,0.0938 -0.094,0.14845 -0.062,0.0625 -0.1718,0.0781 -0.1016,0.0156 -0.2266,-0.0469 -0.07,-0.0703 -0.1329,-0.14845 -0.062,-0.086 -0.1094,-0.1719 -0.1562,0.13283 -0.3359,0.25003 -0.1797,0.10939 -0.3594,0.11721 -0.3126,0.0156 -0.6173,0.008 -0.3047,-0.008 -0.5782,-0.20315 -0.2266,-0.16408 -0.3516,-0.39067 -0.1172,-0.22659 -0.1563,-0.47662 -0.031,-0.25784 0.01,-0.5235 0.039,-0.26566 0.1329,-0.50787 0.039,-0.10939 0.1015,-0.21097 0.062,-0.10157 0.1251,-0.21096 0.086,-0.15627 0.1953,-0.2891 0.1094,-0.14064 0.25,-0.24221 0.1016,-0.0703 0.1954,-0.14064 0.1015,-0.0703 0.2031,-0.13283 0.07,-0.0469 0.211,-0.0938 0.1484,-0.0547 0.3125,-0.0859 0.1719,-0.0391 0.336,-0.0391 0.1719,0 0.2891,0.0469 0.1094,-0.0156 0.2109,0.0547 0.1094,0.0703 0.1641,0.22659 0,0.53131 -0.01,1.07044 -0.01,0.53912 0.07,1.07044 0.01,0.0703 0.055,0.17189 0.055,0.0938 0.1094,0.18752 0.062,0.0938 0.1094,0.1719 0.047,0.0781 0.047,0.10157 z m -0.9923,-0.53912 q 0.016,-0.008 0.023,-0.0156 0.01,-0.008 0.024,-0.0156 -0.1016,-0.4688 -0.1016,-0.96886 0.01,-0.50788 0.016,-0.9298 -0.07,0 -0.1563,0.0156 -0.086,0.0156 -0.1719,0.0469 -0.078,0.0234 -0.1484,0.0469 -0.062,0.0234 -0.094,0.0391 -0.2344,0.10939 -0.3985,0.2891 -0.164,0.1719 -0.2734,0.39067 -0.1016,0.21097 -0.1563,0.45318 -0.055,0.2344 -0.055,0.47662 0.016,0.0625 0.039,0.12502 0.023,0.0625 0.039,0.12501 0.039,0.0391 0.078,0.086 0.047,0.0469 0.094,0.0859 0.07,0.0312 0.1407,0.0547 0.07,0.0234 0.1406,0.0469 0.1329,0 0.2579,0.008 0.125,0.008 0.25,-0.0312 0.1172,-0.0781 0.2266,-0.15627 0.1172,-0.0781 0.2266,-0.17189 z"
           inkscape:connector-curvature="0" />
        <path
           id="path6575"
           d="m -1009.0036,578.54598 q 0.1407,0.10157 0.1641,0.2344 0.024,0.12501 -0.039,0.21877 -0.055,0.0938 -0.1797,0.13283 -0.1172,0.0391 -0.2734,-0.0391 -0.07,-0.0469 -0.1407,-0.0938 -0.07,-0.0469 -0.1484,-0.0938 -0.07,-0.0625 -0.094,-0.1172 -0.023,-0.0547 -0.039,-0.15627 l 0,-4.33645 q 0.031,-0.14846 0.1172,-0.22659 0.094,-0.0781 0.1876,-0.0781 0.1015,-0.008 0.1953,0.0625 0.094,0.0703 0.1406,0.21878 l 0,4.20362 q 0.024,0.0156 0.047,0.0391 0.031,0.0156 0.062,0.0313 z"
           inkscape:connector-curvature="0" />
        <path
           id="path6577"
           d="m -1007.5252,577.66306 q -0.1719,-0.0234 -0.2579,-0.1172 -0.078,-0.0938 -0.078,-0.20315 0,-0.10939 0.086,-0.21097 0.094,-0.10938 0.2734,-0.10938 0.094,0 0.3907,0 0.3047,0 0.6485,0 0.3516,-0.008 0.6485,-0.008 0.3048,0 0.3985,0 0.1485,0.0391 0.2188,0.13283 0.07,0.086 0.07,0.18752 0,0.10939 -0.078,0.19534 -0.078,0.086 -0.2344,0.12501 -0.5235,0 -1.047,0.008 -0.5157,0 -1.0392,0 z"
           inkscape:connector-curvature="0" />
        <path
           id="path6579"
           d="m -1004.5929,578.35064 q -0.07,-0.14064 -0.047,-0.25003 0.023,-0.1172 0.094,-0.17971 0.078,-0.0703 0.1953,-0.0703 0.1172,0 0.2422,0.0859 0.1797,0.22659 0.4219,0.3516 0.2501,0.12502 0.5314,0.14846 l 0.164,-0.0469 q 0.062,-0.0469 0.086,-0.0625 0.023,-0.0156 0.031,-0.0234 0.016,-0.0156 0.031,-0.0391 0.023,-0.0234 0.07,-0.086 0.016,-0.0312 0.023,-0.0625 0.01,-0.0313 0.023,-0.0703 0,-0.0391 0,-0.0703 0.01,-0.0313 0.01,-0.0703 l -0.047,-0.14064 q -0.023,-0.0312 -0.055,-0.0625 -0.023,-0.0313 -0.047,-0.0625 -0.1954,-0.12502 -0.3907,-0.17971 -0.1954,-0.0547 -0.3829,-0.10939 -0.1797,-0.0625 -0.3594,-0.15627 -0.1719,-0.0938 -0.3282,-0.30472 -0.1484,-0.18752 -0.164,-0.42974 -0.01,-0.25003 0.078,-0.47662 0.094,-0.22659 0.2656,-0.39848 0.1798,-0.17971 0.4063,-0.22659 0.3282,-0.0781 0.6642,-0.0156 0.3438,0.0625 0.6407,0.21878 0.1406,0.10157 0.1641,0.2344 0.023,0.12501 -0.039,0.21877 -0.055,0.0938 -0.1797,0.13283 -0.1172,0.0391 -0.2735,-0.0391 -0.1875,-0.10158 -0.3985,-0.13283 -0.2031,-0.0313 -0.4141,0 -0.023,0.0156 -0.055,0.0234 -0.023,0.008 -0.047,0.0234 -0.086,0.0938 -0.1251,0.18752 -0.039,0.086 -0.031,0.21878 0.01,0.0312 0.039,0.0938 0.023,0.0312 0.047,0.0547 0.024,0.0234 0.047,0.0547 0.1875,0.10157 0.4063,0.16408 0.2266,0.0547 0.4376,0.13283 0.2109,0.0703 0.3906,0.19533 0.1797,0.1172 0.2813,0.35161 0.1875,0.44536 0.055,0.82041 -0.125,0.37504 -0.5157,0.63288 -0.1015,0.0625 -0.2266,0.10158 -0.125,0.0469 -0.2344,0.0469 -0.4219,0 -0.8282,-0.18752 -0.4063,-0.19534 -0.6563,-0.53913 z"
           inkscape:connector-curvature="0" />
        <path
           id="path6581"
           d="m -998.55417,580.53059 q -0.008,0.17189 -0.10158,0.25784 -0.0938,0.0938 -0.21096,0.0938 -0.10939,0.008 -0.21096,-0.0781 -0.0938,-0.0781 -0.1172,-0.25003 l 0,-1.77365 q -0.28129,0.10939 -0.56257,0.13283 -0.16408,0.0156 -0.37506,0.008 -0.2031,-0.0156 -0.3594,-0.0625 -0.3985,-0.10938 -0.6251,-0.38286 -0.2188,-0.27347 -0.2969,-0.61726 -0.078,-0.3516 -0.031,-0.72665 0.047,-0.38285 0.1797,-0.71102 0.1015,-0.25003 0.2891,-0.42974 0.1953,-0.1797 0.4375,-0.28909 0.2422,-0.1172 0.5079,-0.16408 0.27346,-0.0469 0.52349,-0.0235 0.25784,0.0235 0.46099,0.12502 0.12502,-0.0859 0.27347,-0.0312 0.15627,0.0547 0.21878,0.25784 l 0,4.66462 0,0 z m -1.95333,-2.36747 q 0.3281,0.13283 0.67192,0.1172 0.3438,-0.0234 0.64071,-0.20315 l 0,-1.77365 q -0.0391,-0.0234 -0.0469,-0.0547 -0.18753,-0.0781 -0.4063,-0.0938 -0.21097,-0.0156 -0.41413,0.0391 -0.1953,0.0547 -0.3594,0.17971 -0.1641,0.12502 -0.2656,0.32035 -0.1329,0.25785 -0.1329,0.55476 0,0.29691 0.047,0.57819 0.031,0.0469 0.055,0.10157 0.031,0.0469 0.062,0.10158 0.039,0.0391 0.07,0.0703 0.039,0.0234 0.078,0.0625 z"
           inkscape:connector-curvature="0" />
        <path
           id="path6583"
           d="m -997.55686,576.20195 q -0.1172,-0.0625 -0.1719,-0.14846 -0.0547,-0.086 -0.0547,-0.17189 0,-0.11721 0.086,-0.20315 0.086,-0.0938 0.2344,-0.0938 0.10939,0 0.27347,0.0781 0.16408,0.0781 0.25784,0.1719 0.24222,-0.20315 0.50006,-0.33598 0.25785,-0.13283 0.5235,-0.13283 0.0781,0 0.22659,0.0391 0.14846,0.0391 0.2891,0.1172 0.14845,0.0781 0.25784,0.20315 0.10939,0.12501 0.10939,0.28909 0,0.13283 -0.086,0.21878 -0.0859,0.0781 -0.21096,0.0781 -0.086,0 -0.15627,-0.0469 -0.0625,-0.0547 -0.13283,-0.10938 -0.0625,-0.0625 -0.14064,-0.10939 -0.0703,-0.0469 -0.16408,-0.0469 -0.10939,0 -0.24222,0.0703 -0.12501,0.0625 -0.25784,0.15627 -0.12501,0.0938 -0.24222,0.20315 -0.1172,0.10938 -0.20315,0.19533 l 0,2.07837 q -0.008,0.17971 -0.10938,0.26566 -0.0938,0.0938 -0.21097,0.0938 -0.10938,0 -0.20315,-0.0859 -0.0938,-0.0781 -0.1172,-0.25003 l 0,-2.13306 q 0,-0.0156 -0.008,-0.0313 0,-0.0234 0,-0.0391 0,-0.0156 0,-0.0313 0.008,-0.0234 0.008,-0.0391 l 0,-0.22659 q -0.0312,-0.0156 -0.0547,-0.0234 z"
           inkscape:connector-curvature="0" />
        <path
           id="path6585"
           d="m -994.12216,576.17069 q -0.1719,-0.0234 -0.25785,-0.1172 -0.0781,-0.0938 -0.0781,-0.20315 0,-0.10939 0.0859,-0.21096 0.0938,-0.10939 0.27347,-0.10939 l 0.43755,0 0,-1.23452 q 0.0391,-0.15627 0.12501,-0.2344 0.086,-0.0781 0.19534,-0.0781 0.10157,0 0.18752,0.0703 0.0938,0.0703 0.13283,0.21878 l 0,1.25796 0.75009,0 q 0.14845,0.0391 0.21877,0.13283 0.0703,0.086 0.0703,0.18752 0,0.10939 -0.0781,0.19534 -0.0781,0.086 -0.2344,0.12501 l -0.72665,0 q -0.008,0.60164 0,1.24234 0.008,0.63289 0.008,1.23452 0,0.17971 -0.10939,0.27347 -0.10157,0.086 -0.21096,0.086 -0.10939,0 -0.20315,-0.086 -0.0938,-0.0781 -0.1172,-0.25003 0,-0.60945 -0.008,-1.25015 0,-0.6407 0,-1.25015 l -0.46099,0 0,0 z"
           inkscape:connector-curvature="0" />
        <path
           id="path6587"
           d="m -991.08019,578.51472 q 0,0.17971 -0.14065,0.31254 -0.13282,0.12501 -0.32035,0.12501 -0.21096,0 -0.3516,-0.12501 -0.13283,-0.13283 -0.13283,-0.31254 0,-0.17971 0.13283,-0.31254 0.14064,-0.13282 0.3516,-0.13282 0.18753,0 0.32035,0.13282 0.14065,0.13283 0.14065,0.31254 z"
           inkscape:connector-curvature="0" />
        <path
           id="path6589"
           d="m -988.31955,578.07717 q 0.13283,-0.10939 0.25784,-0.10157 0.13283,0.008 0.21097,0.0859 0.0781,0.0781 0.0859,0.21097 0.008,0.12501 -0.10157,0.25784 -0.25784,0.28128 -0.60945,0.39848 -0.34379,0.11721 -0.68758,0.0625 -0.33598,-0.0469 -0.62507,-0.26566 -0.2891,-0.21877 -0.42974,-0.59382 -0.086,-0.21096 -0.12502,-0.44536 -0.0391,-0.2344 -0.0234,-0.46099 0.0234,-0.37505 0.1719,-0.75009 0.15627,-0.38286 0.41411,-0.66414 0.26566,-0.28129 0.61726,-0.4063 0.35942,-0.13283 0.78134,0 0.21097,0.0703 0.38286,0.17189 0.1719,0.10158 0.32817,0.25785 0.0859,0.12501 0.0859,0.24221 0,0.1172 -0.0703,0.19534 -0.0625,0.0703 -0.17971,0.0938 -0.10938,0.0234 -0.25003,-0.0469 -0.25784,-0.25785 -0.50006,-0.30473 -0.24221,-0.0547 -0.45317,0.0391 -0.20315,0.0938 -0.36724,0.30473 -0.15626,0.20314 -0.24221,0.4688 -0.086,0.25784 -0.086,0.54694 0,0.28128 0.10939,0.5235 0.0938,0.21878 0.25003,0.33598 0.16408,0.1172 0.34379,0.14064 0.17971,0.0156 0.36723,-0.0547 0.19534,-0.0781 0.34379,-0.24222 z"
           inkscape:connector-curvature="0" />
        <path
           id="path6591"
           d="m -987.19598,577.00673 q 0.0859,-0.25003 0.21097,-0.48443 0.12501,-0.24222 0.29691,-0.43755 0.17189,-0.19534 0.39067,-0.33598 0.22659,-0.14064 0.50006,-0.20315 0.45318,-0.10158 0.78915,0.0703 0.34379,0.17189 0.54694,0.49225 0.20315,0.32035 0.26566,0.73446 0.0703,0.4063 -0.0312,0.78134 -0.11721,0.46099 -0.41412,0.85948 -0.29691,0.39848 -0.75008,0.57819 -0.33598,0.13283 -0.64852,0.0938 -0.30472,-0.0312 -0.55475,-0.19533 -0.24222,-0.16408 -0.41411,-0.42974 -0.1719,-0.26566 -0.23441,-0.60164 -0.0391,-0.21096 -0.0312,-0.41411 0.0156,-0.20315 0.0547,-0.4063 l 0.0234,-0.10157 z m 0.60945,0.17971 q -0.0312,0.16408 -0.0469,0.30472 -0.008,0.13283 0.0156,0.30473 0.0234,0.21096 0.13282,0.38285 0.10939,0.16409 0.26566,0.25785 0.15627,0.086 0.34379,0.086 0.19534,-0.008 0.39067,-0.12502 0.25785,-0.15627 0.4063,-0.4063 0.15627,-0.25003 0.23441,-0.53912 0.0625,-0.23441 0.0234,-0.50006 -0.0313,-0.26566 -0.15627,-0.46881 -0.12502,-0.20315 -0.33598,-0.2891 -0.21096,-0.0938 -0.50006,0.0234 -0.31254,0.13283 -0.49225,0.39849 -0.17971,0.26566 -0.28128,0.57038 z"
           inkscape:connector-curvature="0" />
        <path
           id="path6593"
           d="m -981.50643,576.72545 q 0,-0.0234 0.008,-0.0313 -0.008,-0.0234 -0.008,-0.0625 l 0,-0.086 q -0.0938,-0.24222 -0.29691,-0.35161 -0.20315,-0.10938 -0.44536,-0.1172 -0.1719,0.0547 -0.32817,0.16408 l -0.16408,0.21097 q -0.0234,0.0312 -0.0469,0.0547 -0.0234,0.0156 -0.0469,0.0312 l 0,2.1487 q -0.008,0.17971 -0.10939,0.26565 -0.0938,0.0938 -0.21096,0.0938 -0.10939,0 -0.20315,-0.0859 -0.0938,-0.0781 -0.1172,-0.25003 l 0,-3.0238 q 0.0391,-0.15627 0.12501,-0.22659 0.086,-0.0781 0.19534,-0.0781 0.0938,0 0.17971,0.0703 0.0938,0.0625 0.13282,0.20315 0.12502,-0.0859 0.29691,-0.15627 0.17971,-0.0781 0.37505,-0.0781 0.28128,0 0.57038,0.14846 0.29691,0.14064 0.47662,0.35942 0.086,-0.086 0.17971,-0.1719 0.10157,-0.0938 0.21096,-0.16408 0.10939,-0.0781 0.22659,-0.12502 0.1172,-0.0547 0.2344,-0.0547 0.24222,0 0.47662,0.086 0.23441,0.0781 0.41411,0.22659 0.18753,0.14064 0.29691,0.33597 0.11721,0.18753 0.11721,0.39849 0,0.0156 -0.008,0.0234 0,0.008 0,0.0234 0.008,0.008 0.008,0.0156 0,0.008 0.008,0.0156 l 0,2.11744 q -0.008,0.17971 -0.10939,0.26566 -0.0938,0.0938 -0.21096,0.0938 -0.10939,0 -0.20315,-0.086 -0.0938,-0.0781 -0.1172,-0.25003 l 0,-2.14088 q -0.0859,-0.27347 -0.26566,-0.36723 -0.17971,-0.10157 -0.35942,-0.10157 -0.20315,0 -0.36723,0.10157 -0.16408,0.10158 -0.27347,0.37505 l 0,2.10181 q -0.008,0.17971 -0.10939,0.27347 -0.0938,0.086 -0.21096,0.086 -0.10939,0 -0.20315,-0.086 -0.0938,-0.0781 -0.1172,-0.25003 l 0,-1.94554 0,0 z"
           inkscape:connector-curvature="0" />
      </g>
    </g>
  </g>
</svg>
