G04 #@! TF.FileFunction,Legend,Top*
%FSLAX46Y46*%
G04 Gerber Fmt 4.6, Leading zero omitted, Abs format (unit mm)*
G04 Created by KiCad (PCBNEW 4.0.6) date 04/27/17 23:51:26*
%MOMM*%
%LPD*%
G01*
G04 APERTURE LIST*
%ADD10C,0.100000*%
%ADD11C,0.150000*%
%ADD12C,0.300000*%
%ADD13C,0.010000*%
%ADD14C,0.120000*%
G04 APERTURE END LIST*
D10*
D11*
X115000000Y-139000000D02*
X115000000Y-107500000D01*
X67250000Y-139000000D02*
X115000000Y-139000000D01*
X67000000Y-139000000D02*
X67250000Y-139000000D01*
X67000000Y-107500000D02*
X67000000Y-139000000D01*
X115000000Y-107500000D02*
X67000000Y-107500000D01*
X67986667Y-121352381D02*
X67986667Y-122066667D01*
X67939047Y-122209524D01*
X67843809Y-122304762D01*
X67700952Y-122352381D01*
X67605714Y-122352381D01*
X68462857Y-122352381D02*
X68462857Y-121352381D01*
X68843810Y-121352381D01*
X68939048Y-121400000D01*
X68986667Y-121447619D01*
X69034286Y-121542857D01*
X69034286Y-121685714D01*
X68986667Y-121780952D01*
X68939048Y-121828571D01*
X68843810Y-121876190D01*
X68462857Y-121876190D01*
X69986667Y-122352381D02*
X69415238Y-122352381D01*
X69700952Y-122352381D02*
X69700952Y-121352381D01*
X69605714Y-121495238D01*
X69510476Y-121590476D01*
X69415238Y-121638095D01*
X68010477Y-119348571D02*
X67677143Y-119348571D01*
X67677143Y-119872381D02*
X67677143Y-118872381D01*
X68153334Y-118872381D01*
X68486667Y-119586667D02*
X68962858Y-119586667D01*
X68391429Y-119872381D02*
X68724762Y-118872381D01*
X69058096Y-119872381D01*
X69391429Y-119872381D02*
X69391429Y-118872381D01*
X69962858Y-119872381D01*
X69962858Y-118872381D01*
D12*
X75928572Y-114607143D02*
X77071429Y-114607143D01*
X71428572Y-114607143D02*
X72571429Y-114607143D01*
X72000000Y-115178571D02*
X72000000Y-114035714D01*
D10*
X92260417Y-111291667D02*
X91427084Y-111291667D01*
X91645834Y-109541667D01*
X92843751Y-111291667D02*
X92989584Y-110125000D01*
X93062501Y-109541667D02*
X92968750Y-109625000D01*
X93041667Y-109708333D01*
X93135417Y-109625000D01*
X93062501Y-109541667D01*
X93041667Y-109708333D01*
X93572917Y-110125000D02*
X94239583Y-110125000D01*
X93895834Y-109541667D02*
X93708334Y-111041667D01*
X93770833Y-111208333D01*
X93927084Y-111291667D01*
X94093750Y-111291667D01*
X94572917Y-110125000D02*
X95239583Y-110125000D01*
X94895834Y-109541667D02*
X94708334Y-111041667D01*
X94770833Y-111208333D01*
X94927084Y-111291667D01*
X95093750Y-111291667D01*
X95927084Y-111291667D02*
X95770833Y-111208333D01*
X95708334Y-111041667D01*
X95895834Y-109541667D01*
X97270833Y-111208333D02*
X97093751Y-111291667D01*
X96760417Y-111291667D01*
X96604167Y-111208333D01*
X96541667Y-111041667D01*
X96625000Y-110375000D01*
X96729167Y-110208333D01*
X96906250Y-110125000D01*
X97239584Y-110125000D01*
X97395833Y-110208333D01*
X97458334Y-110375000D01*
X97437501Y-110541667D01*
X96583333Y-110708333D01*
X99427084Y-111291667D02*
X99645834Y-109541667D01*
X100062500Y-109541667D01*
X100302083Y-109625000D01*
X100447917Y-109791667D01*
X100510416Y-109958333D01*
X100552084Y-110291667D01*
X100520834Y-110541667D01*
X100395833Y-110875000D01*
X100291667Y-111041667D01*
X100104166Y-111208333D01*
X99843750Y-111291667D01*
X99427084Y-111291667D01*
X101177084Y-111291667D02*
X101322917Y-110125000D01*
X101281250Y-110458333D02*
X101385417Y-110291667D01*
X101479166Y-110208333D01*
X101656250Y-110125000D01*
X101822917Y-110125000D01*
X102260417Y-111291667D02*
X102406250Y-110125000D01*
X102479167Y-109541667D02*
X102385416Y-109625000D01*
X102458333Y-109708333D01*
X102552083Y-109625000D01*
X102479167Y-109541667D01*
X102458333Y-109708333D01*
X103072916Y-110125000D02*
X103343750Y-111291667D01*
X103906249Y-110125000D01*
X105104165Y-111208333D02*
X104927083Y-111291667D01*
X104593749Y-111291667D01*
X104437499Y-111208333D01*
X104374999Y-111041667D01*
X104458332Y-110375000D01*
X104562499Y-110208333D01*
X104739582Y-110125000D01*
X105072916Y-110125000D01*
X105229165Y-110208333D01*
X105291666Y-110375000D01*
X105270833Y-110541667D01*
X104416665Y-110708333D01*
X105927083Y-111291667D02*
X106072916Y-110125000D01*
X106031249Y-110458333D02*
X106135416Y-110291667D01*
X106229165Y-110208333D01*
X106406249Y-110125000D01*
X106572916Y-110125000D01*
D11*
X91744047Y-112952381D02*
X91869047Y-111952381D01*
X91821428Y-112333333D02*
X91922619Y-112285714D01*
X92113096Y-112285714D01*
X92202381Y-112333333D01*
X92244048Y-112380952D01*
X92279762Y-112476190D01*
X92244048Y-112761905D01*
X92184524Y-112857143D01*
X92130953Y-112904762D01*
X92029762Y-112952381D01*
X91839285Y-112952381D01*
X91750000Y-112904762D01*
X92636905Y-112285714D02*
X92791666Y-112952381D01*
X93113096Y-112285714D02*
X92791666Y-112952381D01*
X92666666Y-113190476D01*
X92613095Y-113238095D01*
X92511905Y-113285714D01*
X94172619Y-112952381D02*
X94297619Y-111952381D01*
X94535714Y-111952381D01*
X94672620Y-112000000D01*
X94755953Y-112095238D01*
X94791668Y-112190476D01*
X94815477Y-112380952D01*
X94797620Y-112523810D01*
X94726191Y-112714286D01*
X94666668Y-112809524D01*
X94559525Y-112904762D01*
X94410714Y-112952381D01*
X94172619Y-112952381D01*
X95172619Y-112952381D02*
X95255953Y-112285714D01*
X95297619Y-111952381D02*
X95244048Y-112000000D01*
X95285715Y-112047619D01*
X95339286Y-112000000D01*
X95297619Y-111952381D01*
X95285715Y-112047619D01*
X96160715Y-112285714D02*
X96059524Y-113095238D01*
X96000000Y-113190476D01*
X95946429Y-113238095D01*
X95845238Y-113285714D01*
X95702381Y-113285714D01*
X95613095Y-113238095D01*
X96083334Y-112904762D02*
X95982143Y-112952381D01*
X95791666Y-112952381D01*
X95702381Y-112904762D01*
X95660714Y-112857143D01*
X95625000Y-112761905D01*
X95660714Y-112476190D01*
X95720238Y-112380952D01*
X95773809Y-112333333D01*
X95875000Y-112285714D01*
X96065477Y-112285714D01*
X96154762Y-112333333D01*
X96553571Y-112952381D02*
X96636905Y-112285714D01*
X96678571Y-111952381D02*
X96625000Y-112000000D01*
X96666667Y-112047619D01*
X96720238Y-112000000D01*
X96678571Y-111952381D01*
X96666667Y-112047619D01*
X96970238Y-112285714D02*
X97351190Y-112285714D01*
X97154761Y-111952381D02*
X97047619Y-112809524D01*
X97083333Y-112904762D01*
X97172618Y-112952381D01*
X97267856Y-112952381D01*
X98029762Y-112952381D02*
X98095239Y-112428571D01*
X98059524Y-112333333D01*
X97970239Y-112285714D01*
X97779762Y-112285714D01*
X97678571Y-112333333D01*
X98035715Y-112904762D02*
X97934524Y-112952381D01*
X97696428Y-112952381D01*
X97607143Y-112904762D01*
X97571429Y-112809524D01*
X97583333Y-112714286D01*
X97642857Y-112619048D01*
X97744047Y-112571429D01*
X97982143Y-112571429D01*
X98083334Y-112523810D01*
X98648809Y-112952381D02*
X98559524Y-112904762D01*
X98523810Y-112809524D01*
X98630952Y-111952381D01*
X99750001Y-112904762D02*
X99886905Y-112952381D01*
X100125001Y-112952381D01*
X100226192Y-112904762D01*
X100279763Y-112857143D01*
X100339287Y-112761905D01*
X100351192Y-112666667D01*
X100315477Y-112571429D01*
X100273811Y-112523810D01*
X100184525Y-112476190D01*
X100000001Y-112428571D01*
X99910715Y-112380952D01*
X99869048Y-112333333D01*
X99833334Y-112238095D01*
X99845239Y-112142857D01*
X99904763Y-112047619D01*
X99958334Y-112000000D01*
X100059524Y-111952381D01*
X100297620Y-111952381D01*
X100434525Y-112000000D01*
X101255954Y-112285714D02*
X101130954Y-113285714D01*
X101178573Y-112904762D02*
X101077382Y-112952381D01*
X100886905Y-112952381D01*
X100797620Y-112904762D01*
X100755953Y-112857143D01*
X100720239Y-112761905D01*
X100755953Y-112476190D01*
X100815477Y-112380952D01*
X100869048Y-112333333D01*
X100970239Y-112285714D01*
X101160716Y-112285714D01*
X101250001Y-112333333D01*
X101648810Y-112952381D02*
X101732144Y-112285714D01*
X101708334Y-112476190D02*
X101767858Y-112380952D01*
X101821429Y-112333333D01*
X101922620Y-112285714D01*
X102017859Y-112285714D01*
X102208335Y-112285714D02*
X102589287Y-112285714D01*
X102392858Y-111952381D02*
X102285716Y-112809524D01*
X102321430Y-112904762D01*
X102410715Y-112952381D01*
X102505953Y-112952381D01*
D10*
X104595238Y-111952381D02*
X104928571Y-112952381D01*
X105261905Y-111952381D01*
X105976191Y-112904762D02*
X105880953Y-112952381D01*
X105690476Y-112952381D01*
X105595238Y-112904762D01*
X105547619Y-112809524D01*
X105547619Y-112428571D01*
X105595238Y-112333333D01*
X105690476Y-112285714D01*
X105880953Y-112285714D01*
X105976191Y-112333333D01*
X106023810Y-112428571D01*
X106023810Y-112523810D01*
X105547619Y-112619048D01*
X106452381Y-112952381D02*
X106452381Y-112285714D01*
X106452381Y-112476190D02*
X106500000Y-112380952D01*
X106547619Y-112333333D01*
X106642857Y-112285714D01*
X106738096Y-112285714D01*
X108357144Y-112952381D02*
X107785715Y-112952381D01*
X108071429Y-112952381D02*
X108071429Y-111952381D01*
X107976191Y-112095238D01*
X107880953Y-112190476D01*
X107785715Y-112238095D01*
X108785715Y-112857143D02*
X108833334Y-112904762D01*
X108785715Y-112952381D01*
X108738096Y-112904762D01*
X108785715Y-112857143D01*
X108785715Y-112952381D01*
X109404762Y-112380952D02*
X109309524Y-112333333D01*
X109261905Y-112285714D01*
X109214286Y-112190476D01*
X109214286Y-112142857D01*
X109261905Y-112047619D01*
X109309524Y-112000000D01*
X109404762Y-111952381D01*
X109595239Y-111952381D01*
X109690477Y-112000000D01*
X109738096Y-112047619D01*
X109785715Y-112142857D01*
X109785715Y-112190476D01*
X109738096Y-112285714D01*
X109690477Y-112333333D01*
X109595239Y-112380952D01*
X109404762Y-112380952D01*
X109309524Y-112428571D01*
X109261905Y-112476190D01*
X109214286Y-112571429D01*
X109214286Y-112761905D01*
X109261905Y-112857143D01*
X109309524Y-112904762D01*
X109404762Y-112952381D01*
X109595239Y-112952381D01*
X109690477Y-112904762D01*
X109738096Y-112857143D01*
X109785715Y-112761905D01*
X109785715Y-112571429D01*
X109738096Y-112476190D01*
X109690477Y-112428571D01*
X109595239Y-112380952D01*
D13*
G36*
X85265892Y-109368270D02*
X85681711Y-109406540D01*
X86077701Y-109455770D01*
X86358754Y-109506918D01*
X86578344Y-109579539D01*
X86789945Y-109693188D01*
X87047033Y-109867419D01*
X87157491Y-109946214D01*
X87512064Y-110193396D01*
X87887963Y-110444817D01*
X88212547Y-110652053D01*
X88256757Y-110679019D01*
X88702842Y-111028177D01*
X89104798Y-111489795D01*
X89418595Y-112006999D01*
X89559133Y-112361354D01*
X89654082Y-112798805D01*
X89715697Y-113336308D01*
X89740823Y-113907295D01*
X89726303Y-114445195D01*
X89676895Y-114845149D01*
X89573741Y-115217945D01*
X89415851Y-115626918D01*
X89282547Y-115898956D01*
X89133863Y-116175380D01*
X89063746Y-116345784D01*
X89062649Y-116448745D01*
X89121022Y-116522844D01*
X89126899Y-116527789D01*
X89344891Y-116807469D01*
X89475501Y-117186784D01*
X89502861Y-117472296D01*
X89452219Y-117999778D01*
X89295824Y-118398093D01*
X89024655Y-118676431D01*
X88629691Y-118843977D01*
X88101913Y-118909919D01*
X88091041Y-118910234D01*
X87747959Y-118932842D01*
X87481249Y-118994444D01*
X87209812Y-119119455D01*
X87009768Y-119235766D01*
X86046911Y-119745548D01*
X84936837Y-120200923D01*
X83694568Y-120595971D01*
X83268112Y-120709561D01*
X82949084Y-120786968D01*
X82729634Y-120822607D01*
X82546042Y-120819511D01*
X82334587Y-120780714D01*
X82239158Y-120758540D01*
X82020619Y-120666992D01*
X81749970Y-120500264D01*
X81561093Y-120356065D01*
X81310917Y-120163287D01*
X81078379Y-120014185D01*
X80951268Y-119954869D01*
X80673559Y-119829991D01*
X80330468Y-119620504D01*
X79973392Y-119363950D01*
X79653725Y-119097875D01*
X79422865Y-118859822D01*
X79387369Y-118812457D01*
X79234276Y-118544499D01*
X79159143Y-118262543D01*
X79153032Y-118178625D01*
X79414212Y-118178625D01*
X79555630Y-118611324D01*
X79594530Y-118678464D01*
X79766220Y-118875688D01*
X80041924Y-119109974D01*
X80372359Y-119346452D01*
X80708242Y-119550255D01*
X81000290Y-119686515D01*
X81036667Y-119698783D01*
X81217306Y-119791254D01*
X81456581Y-119958151D01*
X81621162Y-120092992D01*
X81874895Y-120301231D01*
X82106039Y-120443564D01*
X82345175Y-120521840D01*
X82622881Y-120537908D01*
X82969738Y-120493618D01*
X83416326Y-120390817D01*
X83978612Y-120235548D01*
X84506764Y-120069202D01*
X85049688Y-119871830D01*
X85583672Y-119654868D01*
X86085004Y-119429753D01*
X86529972Y-119207924D01*
X86894864Y-119000817D01*
X87155967Y-118819870D01*
X87289570Y-118676520D01*
X87302000Y-118632540D01*
X87372175Y-118576473D01*
X87534833Y-118600094D01*
X87892378Y-118648601D01*
X88279738Y-118626585D01*
X88646025Y-118544805D01*
X88940351Y-118414018D01*
X89097628Y-118269749D01*
X89141645Y-118137154D01*
X89188812Y-117899705D01*
X89213336Y-117730272D01*
X89217252Y-117262509D01*
X89098883Y-116908073D01*
X88859270Y-116669813D01*
X88818279Y-116647007D01*
X88532249Y-116542112D01*
X88255360Y-116551181D01*
X87926432Y-116677387D01*
X87891294Y-116695054D01*
X87692216Y-116779627D01*
X87572068Y-116797892D01*
X87556000Y-116779721D01*
X87473458Y-116742629D01*
X87233863Y-116715287D01*
X86849266Y-116698572D01*
X86370667Y-116693334D01*
X85185333Y-116693334D01*
X85185333Y-117304266D01*
X84317500Y-117248381D01*
X83816223Y-117214500D01*
X83459453Y-117182634D01*
X83222644Y-117145068D01*
X83081250Y-117094087D01*
X83010726Y-117021978D01*
X82986524Y-116921026D01*
X82984000Y-116829288D01*
X82958254Y-116634508D01*
X82850828Y-116505599D01*
X82676041Y-116408508D01*
X82338921Y-116307466D01*
X82125708Y-116314887D01*
X81947652Y-116386647D01*
X81886647Y-116533341D01*
X81883333Y-116615394D01*
X81868065Y-116777488D01*
X81789059Y-116846308D01*
X81596517Y-116860229D01*
X81565833Y-116860053D01*
X81219868Y-116844027D01*
X80846496Y-116805826D01*
X80487714Y-116752402D01*
X80185522Y-116690708D01*
X79981919Y-116627696D01*
X79921322Y-116587816D01*
X79866049Y-116539697D01*
X79852630Y-116622020D01*
X79814556Y-116770166D01*
X79717490Y-117007320D01*
X79619094Y-117210004D01*
X79435412Y-117708792D01*
X79414212Y-118178625D01*
X79153032Y-118178625D01*
X79138274Y-117975983D01*
X79112289Y-117648186D01*
X79041269Y-117418408D01*
X78906126Y-117219715D01*
X78733545Y-116947195D01*
X78631787Y-116650268D01*
X78617938Y-116449975D01*
X78923980Y-116449975D01*
X78932290Y-116661488D01*
X78999135Y-116895685D01*
X79106283Y-117093822D01*
X79235500Y-117197153D01*
X79266002Y-117201334D01*
X79275931Y-117143199D01*
X79197426Y-116998999D01*
X79165421Y-116953838D01*
X79028932Y-116671954D01*
X79028339Y-116651569D01*
X79291135Y-116651569D01*
X79347298Y-116797818D01*
X79437058Y-116862667D01*
X79499125Y-116791894D01*
X79512667Y-116698330D01*
X79474307Y-116539563D01*
X79389190Y-116467580D01*
X79306575Y-116514979D01*
X79291135Y-116651569D01*
X79028339Y-116651569D01*
X79023656Y-116490733D01*
X79030803Y-116348137D01*
X78992436Y-116319892D01*
X78923980Y-116449975D01*
X78617938Y-116449975D01*
X78613317Y-116383146D01*
X78671177Y-116227667D01*
X79174000Y-116227667D01*
X79216333Y-116270000D01*
X79258667Y-116227667D01*
X79216333Y-116185334D01*
X79174000Y-116227667D01*
X78671177Y-116227667D01*
X78675386Y-116216357D01*
X78810135Y-116112804D01*
X79359191Y-116112804D01*
X79376227Y-116160208D01*
X79465349Y-116230360D01*
X79613748Y-116333938D01*
X79672061Y-116330674D01*
X79682000Y-116227667D01*
X79609909Y-116125475D01*
X79491500Y-116103360D01*
X79359191Y-116112804D01*
X78810135Y-116112804D01*
X78846042Y-116085210D01*
X79103936Y-115957492D01*
X79369900Y-115867978D01*
X79517075Y-115846667D01*
X79595987Y-115834674D01*
X79617988Y-115774902D01*
X79580010Y-115631658D01*
X79478984Y-115369251D01*
X79475215Y-115359834D01*
X79275660Y-114690419D01*
X79236115Y-114195667D01*
X79500090Y-114195667D01*
X79523618Y-114452634D01*
X79577790Y-114749554D01*
X79652955Y-115057174D01*
X79739464Y-115346245D01*
X79827666Y-115587515D01*
X79907911Y-115751733D01*
X79970549Y-115809647D01*
X80005929Y-115732007D01*
X80006195Y-115729733D01*
X80034056Y-115485800D01*
X80766379Y-115545220D01*
X81241302Y-115586691D01*
X81572529Y-115625825D01*
X81785427Y-115669855D01*
X81905364Y-115726013D01*
X81957706Y-115801533D01*
X81968000Y-115887843D01*
X81999930Y-116026032D01*
X82127359Y-116045879D01*
X82165325Y-116039464D01*
X82370299Y-116047213D01*
X82627604Y-116114117D01*
X82683665Y-116135872D01*
X82914321Y-116230315D01*
X83027838Y-116251307D01*
X83065521Y-116185140D01*
X83068674Y-116018106D01*
X83068667Y-116008099D01*
X83068667Y-115746197D01*
X83894167Y-115801363D01*
X84386548Y-115836151D01*
X84734764Y-115868986D01*
X84963714Y-115907403D01*
X85098300Y-115958935D01*
X85163422Y-116031120D01*
X85183981Y-116131490D01*
X85185333Y-116192061D01*
X85185333Y-116439334D01*
X87481709Y-116439334D01*
X87428264Y-116079500D01*
X87422649Y-115740053D01*
X87483350Y-115254171D01*
X87564998Y-114830667D01*
X87675587Y-114264005D01*
X87730527Y-113817492D01*
X87725616Y-113449950D01*
X87656649Y-113120197D01*
X87519421Y-112787054D01*
X87319465Y-112425663D01*
X87064475Y-112036423D01*
X86825372Y-111744581D01*
X86645833Y-111591799D01*
X86439534Y-111455395D01*
X86389955Y-111381088D01*
X86499214Y-111361897D01*
X86709333Y-111382462D01*
X86920584Y-111405793D01*
X87038867Y-111409145D01*
X87048000Y-111405125D01*
X86973781Y-111314129D01*
X86777937Y-111192150D01*
X86500686Y-111058007D01*
X86182245Y-110930522D01*
X85862833Y-110828515D01*
X85761422Y-110803042D01*
X85109845Y-110653202D01*
X84246200Y-110985101D01*
X83840227Y-111147747D01*
X83558187Y-111281356D01*
X83362668Y-111408301D01*
X83216261Y-111550953D01*
X83142393Y-111645202D01*
X82991945Y-111833904D01*
X82902903Y-111892914D01*
X82850401Y-111838250D01*
X82848849Y-111834290D01*
X82822304Y-111643756D01*
X82835659Y-111484921D01*
X82833462Y-111317728D01*
X82752221Y-111274667D01*
X82510415Y-111334478D01*
X82194333Y-111499276D01*
X81841775Y-111747111D01*
X81626002Y-111928740D01*
X81402859Y-112126488D01*
X81277236Y-112220854D01*
X81221122Y-112222103D01*
X81206503Y-112140499D01*
X81206000Y-112082642D01*
X81269935Y-111765979D01*
X81467157Y-111403155D01*
X81805786Y-110979828D01*
X81871224Y-110908123D01*
X82072351Y-110688578D01*
X82164446Y-110576174D01*
X82154324Y-110554550D01*
X82048802Y-110607345D01*
X81980307Y-110646266D01*
X81747055Y-110807621D01*
X81558036Y-110983482D01*
X81544789Y-110999500D01*
X81410068Y-111137894D01*
X81314888Y-111190000D01*
X81175635Y-111252888D01*
X80963111Y-111422739D01*
X80706022Y-111671332D01*
X80433074Y-111970448D01*
X80172974Y-112291866D01*
X80116353Y-112368225D01*
X79799754Y-112858128D01*
X79604883Y-113310011D01*
X79512780Y-113780092D01*
X79500090Y-114195667D01*
X79236115Y-114195667D01*
X79222002Y-114019102D01*
X79311554Y-113302759D01*
X79339330Y-113179667D01*
X79500685Y-112502334D01*
X79254953Y-112798667D01*
X79106706Y-112989739D01*
X79017940Y-113127831D01*
X79006944Y-113158500D01*
X78938384Y-113219210D01*
X78910821Y-113222000D01*
X78857134Y-113157275D01*
X78873435Y-112998328D01*
X78945773Y-112798004D01*
X79060197Y-112609146D01*
X79078461Y-112587000D01*
X79262798Y-112362766D01*
X79345100Y-112239785D01*
X79322648Y-112226379D01*
X79192722Y-112330865D01*
X79149147Y-112370776D01*
X78951399Y-112528597D01*
X78848847Y-112554775D01*
X78844641Y-112459797D01*
X78941934Y-112254151D01*
X79058686Y-112069648D01*
X79413041Y-111576564D01*
X79739702Y-111200054D01*
X80081338Y-110902674D01*
X80480619Y-110646976D01*
X80950679Y-110409274D01*
X81365226Y-110224155D01*
X81782529Y-110052461D01*
X82145680Y-109916897D01*
X82340679Y-109854685D01*
X82842999Y-109715027D01*
X82574833Y-109605604D01*
X82395281Y-109525579D01*
X82308210Y-109473492D01*
X82306667Y-109470060D01*
X82384754Y-109457991D01*
X82592708Y-109448631D01*
X82891065Y-109443508D01*
X83005167Y-109443005D01*
X83429390Y-109433394D01*
X83877164Y-109409054D01*
X84253360Y-109375195D01*
X84261655Y-109374195D01*
X84714071Y-109349761D01*
X85265892Y-109368270D01*
X85265892Y-109368270D01*
G37*
X85265892Y-109368270D02*
X85681711Y-109406540D01*
X86077701Y-109455770D01*
X86358754Y-109506918D01*
X86578344Y-109579539D01*
X86789945Y-109693188D01*
X87047033Y-109867419D01*
X87157491Y-109946214D01*
X87512064Y-110193396D01*
X87887963Y-110444817D01*
X88212547Y-110652053D01*
X88256757Y-110679019D01*
X88702842Y-111028177D01*
X89104798Y-111489795D01*
X89418595Y-112006999D01*
X89559133Y-112361354D01*
X89654082Y-112798805D01*
X89715697Y-113336308D01*
X89740823Y-113907295D01*
X89726303Y-114445195D01*
X89676895Y-114845149D01*
X89573741Y-115217945D01*
X89415851Y-115626918D01*
X89282547Y-115898956D01*
X89133863Y-116175380D01*
X89063746Y-116345784D01*
X89062649Y-116448745D01*
X89121022Y-116522844D01*
X89126899Y-116527789D01*
X89344891Y-116807469D01*
X89475501Y-117186784D01*
X89502861Y-117472296D01*
X89452219Y-117999778D01*
X89295824Y-118398093D01*
X89024655Y-118676431D01*
X88629691Y-118843977D01*
X88101913Y-118909919D01*
X88091041Y-118910234D01*
X87747959Y-118932842D01*
X87481249Y-118994444D01*
X87209812Y-119119455D01*
X87009768Y-119235766D01*
X86046911Y-119745548D01*
X84936837Y-120200923D01*
X83694568Y-120595971D01*
X83268112Y-120709561D01*
X82949084Y-120786968D01*
X82729634Y-120822607D01*
X82546042Y-120819511D01*
X82334587Y-120780714D01*
X82239158Y-120758540D01*
X82020619Y-120666992D01*
X81749970Y-120500264D01*
X81561093Y-120356065D01*
X81310917Y-120163287D01*
X81078379Y-120014185D01*
X80951268Y-119954869D01*
X80673559Y-119829991D01*
X80330468Y-119620504D01*
X79973392Y-119363950D01*
X79653725Y-119097875D01*
X79422865Y-118859822D01*
X79387369Y-118812457D01*
X79234276Y-118544499D01*
X79159143Y-118262543D01*
X79153032Y-118178625D01*
X79414212Y-118178625D01*
X79555630Y-118611324D01*
X79594530Y-118678464D01*
X79766220Y-118875688D01*
X80041924Y-119109974D01*
X80372359Y-119346452D01*
X80708242Y-119550255D01*
X81000290Y-119686515D01*
X81036667Y-119698783D01*
X81217306Y-119791254D01*
X81456581Y-119958151D01*
X81621162Y-120092992D01*
X81874895Y-120301231D01*
X82106039Y-120443564D01*
X82345175Y-120521840D01*
X82622881Y-120537908D01*
X82969738Y-120493618D01*
X83416326Y-120390817D01*
X83978612Y-120235548D01*
X84506764Y-120069202D01*
X85049688Y-119871830D01*
X85583672Y-119654868D01*
X86085004Y-119429753D01*
X86529972Y-119207924D01*
X86894864Y-119000817D01*
X87155967Y-118819870D01*
X87289570Y-118676520D01*
X87302000Y-118632540D01*
X87372175Y-118576473D01*
X87534833Y-118600094D01*
X87892378Y-118648601D01*
X88279738Y-118626585D01*
X88646025Y-118544805D01*
X88940351Y-118414018D01*
X89097628Y-118269749D01*
X89141645Y-118137154D01*
X89188812Y-117899705D01*
X89213336Y-117730272D01*
X89217252Y-117262509D01*
X89098883Y-116908073D01*
X88859270Y-116669813D01*
X88818279Y-116647007D01*
X88532249Y-116542112D01*
X88255360Y-116551181D01*
X87926432Y-116677387D01*
X87891294Y-116695054D01*
X87692216Y-116779627D01*
X87572068Y-116797892D01*
X87556000Y-116779721D01*
X87473458Y-116742629D01*
X87233863Y-116715287D01*
X86849266Y-116698572D01*
X86370667Y-116693334D01*
X85185333Y-116693334D01*
X85185333Y-117304266D01*
X84317500Y-117248381D01*
X83816223Y-117214500D01*
X83459453Y-117182634D01*
X83222644Y-117145068D01*
X83081250Y-117094087D01*
X83010726Y-117021978D01*
X82986524Y-116921026D01*
X82984000Y-116829288D01*
X82958254Y-116634508D01*
X82850828Y-116505599D01*
X82676041Y-116408508D01*
X82338921Y-116307466D01*
X82125708Y-116314887D01*
X81947652Y-116386647D01*
X81886647Y-116533341D01*
X81883333Y-116615394D01*
X81868065Y-116777488D01*
X81789059Y-116846308D01*
X81596517Y-116860229D01*
X81565833Y-116860053D01*
X81219868Y-116844027D01*
X80846496Y-116805826D01*
X80487714Y-116752402D01*
X80185522Y-116690708D01*
X79981919Y-116627696D01*
X79921322Y-116587816D01*
X79866049Y-116539697D01*
X79852630Y-116622020D01*
X79814556Y-116770166D01*
X79717490Y-117007320D01*
X79619094Y-117210004D01*
X79435412Y-117708792D01*
X79414212Y-118178625D01*
X79153032Y-118178625D01*
X79138274Y-117975983D01*
X79112289Y-117648186D01*
X79041269Y-117418408D01*
X78906126Y-117219715D01*
X78733545Y-116947195D01*
X78631787Y-116650268D01*
X78617938Y-116449975D01*
X78923980Y-116449975D01*
X78932290Y-116661488D01*
X78999135Y-116895685D01*
X79106283Y-117093822D01*
X79235500Y-117197153D01*
X79266002Y-117201334D01*
X79275931Y-117143199D01*
X79197426Y-116998999D01*
X79165421Y-116953838D01*
X79028932Y-116671954D01*
X79028339Y-116651569D01*
X79291135Y-116651569D01*
X79347298Y-116797818D01*
X79437058Y-116862667D01*
X79499125Y-116791894D01*
X79512667Y-116698330D01*
X79474307Y-116539563D01*
X79389190Y-116467580D01*
X79306575Y-116514979D01*
X79291135Y-116651569D01*
X79028339Y-116651569D01*
X79023656Y-116490733D01*
X79030803Y-116348137D01*
X78992436Y-116319892D01*
X78923980Y-116449975D01*
X78617938Y-116449975D01*
X78613317Y-116383146D01*
X78671177Y-116227667D01*
X79174000Y-116227667D01*
X79216333Y-116270000D01*
X79258667Y-116227667D01*
X79216333Y-116185334D01*
X79174000Y-116227667D01*
X78671177Y-116227667D01*
X78675386Y-116216357D01*
X78810135Y-116112804D01*
X79359191Y-116112804D01*
X79376227Y-116160208D01*
X79465349Y-116230360D01*
X79613748Y-116333938D01*
X79672061Y-116330674D01*
X79682000Y-116227667D01*
X79609909Y-116125475D01*
X79491500Y-116103360D01*
X79359191Y-116112804D01*
X78810135Y-116112804D01*
X78846042Y-116085210D01*
X79103936Y-115957492D01*
X79369900Y-115867978D01*
X79517075Y-115846667D01*
X79595987Y-115834674D01*
X79617988Y-115774902D01*
X79580010Y-115631658D01*
X79478984Y-115369251D01*
X79475215Y-115359834D01*
X79275660Y-114690419D01*
X79236115Y-114195667D01*
X79500090Y-114195667D01*
X79523618Y-114452634D01*
X79577790Y-114749554D01*
X79652955Y-115057174D01*
X79739464Y-115346245D01*
X79827666Y-115587515D01*
X79907911Y-115751733D01*
X79970549Y-115809647D01*
X80005929Y-115732007D01*
X80006195Y-115729733D01*
X80034056Y-115485800D01*
X80766379Y-115545220D01*
X81241302Y-115586691D01*
X81572529Y-115625825D01*
X81785427Y-115669855D01*
X81905364Y-115726013D01*
X81957706Y-115801533D01*
X81968000Y-115887843D01*
X81999930Y-116026032D01*
X82127359Y-116045879D01*
X82165325Y-116039464D01*
X82370299Y-116047213D01*
X82627604Y-116114117D01*
X82683665Y-116135872D01*
X82914321Y-116230315D01*
X83027838Y-116251307D01*
X83065521Y-116185140D01*
X83068674Y-116018106D01*
X83068667Y-116008099D01*
X83068667Y-115746197D01*
X83894167Y-115801363D01*
X84386548Y-115836151D01*
X84734764Y-115868986D01*
X84963714Y-115907403D01*
X85098300Y-115958935D01*
X85163422Y-116031120D01*
X85183981Y-116131490D01*
X85185333Y-116192061D01*
X85185333Y-116439334D01*
X87481709Y-116439334D01*
X87428264Y-116079500D01*
X87422649Y-115740053D01*
X87483350Y-115254171D01*
X87564998Y-114830667D01*
X87675587Y-114264005D01*
X87730527Y-113817492D01*
X87725616Y-113449950D01*
X87656649Y-113120197D01*
X87519421Y-112787054D01*
X87319465Y-112425663D01*
X87064475Y-112036423D01*
X86825372Y-111744581D01*
X86645833Y-111591799D01*
X86439534Y-111455395D01*
X86389955Y-111381088D01*
X86499214Y-111361897D01*
X86709333Y-111382462D01*
X86920584Y-111405793D01*
X87038867Y-111409145D01*
X87048000Y-111405125D01*
X86973781Y-111314129D01*
X86777937Y-111192150D01*
X86500686Y-111058007D01*
X86182245Y-110930522D01*
X85862833Y-110828515D01*
X85761422Y-110803042D01*
X85109845Y-110653202D01*
X84246200Y-110985101D01*
X83840227Y-111147747D01*
X83558187Y-111281356D01*
X83362668Y-111408301D01*
X83216261Y-111550953D01*
X83142393Y-111645202D01*
X82991945Y-111833904D01*
X82902903Y-111892914D01*
X82850401Y-111838250D01*
X82848849Y-111834290D01*
X82822304Y-111643756D01*
X82835659Y-111484921D01*
X82833462Y-111317728D01*
X82752221Y-111274667D01*
X82510415Y-111334478D01*
X82194333Y-111499276D01*
X81841775Y-111747111D01*
X81626002Y-111928740D01*
X81402859Y-112126488D01*
X81277236Y-112220854D01*
X81221122Y-112222103D01*
X81206503Y-112140499D01*
X81206000Y-112082642D01*
X81269935Y-111765979D01*
X81467157Y-111403155D01*
X81805786Y-110979828D01*
X81871224Y-110908123D01*
X82072351Y-110688578D01*
X82164446Y-110576174D01*
X82154324Y-110554550D01*
X82048802Y-110607345D01*
X81980307Y-110646266D01*
X81747055Y-110807621D01*
X81558036Y-110983482D01*
X81544789Y-110999500D01*
X81410068Y-111137894D01*
X81314888Y-111190000D01*
X81175635Y-111252888D01*
X80963111Y-111422739D01*
X80706022Y-111671332D01*
X80433074Y-111970448D01*
X80172974Y-112291866D01*
X80116353Y-112368225D01*
X79799754Y-112858128D01*
X79604883Y-113310011D01*
X79512780Y-113780092D01*
X79500090Y-114195667D01*
X79236115Y-114195667D01*
X79222002Y-114019102D01*
X79311554Y-113302759D01*
X79339330Y-113179667D01*
X79500685Y-112502334D01*
X79254953Y-112798667D01*
X79106706Y-112989739D01*
X79017940Y-113127831D01*
X79006944Y-113158500D01*
X78938384Y-113219210D01*
X78910821Y-113222000D01*
X78857134Y-113157275D01*
X78873435Y-112998328D01*
X78945773Y-112798004D01*
X79060197Y-112609146D01*
X79078461Y-112587000D01*
X79262798Y-112362766D01*
X79345100Y-112239785D01*
X79322648Y-112226379D01*
X79192722Y-112330865D01*
X79149147Y-112370776D01*
X78951399Y-112528597D01*
X78848847Y-112554775D01*
X78844641Y-112459797D01*
X78941934Y-112254151D01*
X79058686Y-112069648D01*
X79413041Y-111576564D01*
X79739702Y-111200054D01*
X80081338Y-110902674D01*
X80480619Y-110646976D01*
X80950679Y-110409274D01*
X81365226Y-110224155D01*
X81782529Y-110052461D01*
X82145680Y-109916897D01*
X82340679Y-109854685D01*
X82842999Y-109715027D01*
X82574833Y-109605604D01*
X82395281Y-109525579D01*
X82308210Y-109473492D01*
X82306667Y-109470060D01*
X82384754Y-109457991D01*
X82592708Y-109448631D01*
X82891065Y-109443508D01*
X83005167Y-109443005D01*
X83429390Y-109433394D01*
X83877164Y-109409054D01*
X84253360Y-109375195D01*
X84261655Y-109374195D01*
X84714071Y-109349761D01*
X85265892Y-109368270D01*
G36*
X82736623Y-118612360D02*
X83106719Y-118785963D01*
X83343833Y-118960332D01*
X83461429Y-119094780D01*
X83461401Y-119206522D01*
X83329838Y-119309979D01*
X83052830Y-119419573D01*
X82835833Y-119486984D01*
X82516936Y-119581933D01*
X82257315Y-119660765D01*
X82102875Y-119709501D01*
X82086127Y-119715326D01*
X82005081Y-119663566D01*
X81894311Y-119496275D01*
X82052667Y-119496275D01*
X82066241Y-119565608D01*
X82128221Y-119589180D01*
X82270496Y-119563647D01*
X82524954Y-119485668D01*
X82695518Y-119428892D01*
X83011867Y-119318009D01*
X83190695Y-119239000D01*
X83256808Y-119175538D01*
X83235015Y-119111296D01*
X83213566Y-119087947D01*
X82991727Y-118973118D01*
X82704556Y-118959255D01*
X82419454Y-119042178D01*
X82266422Y-119146705D01*
X82120074Y-119324769D01*
X82053104Y-119486326D01*
X82052667Y-119496275D01*
X81894311Y-119496275D01*
X81892643Y-119493756D01*
X81803655Y-119310831D01*
X81614723Y-118871647D01*
X81792256Y-118694114D01*
X82038670Y-118559449D01*
X82367033Y-118534527D01*
X82736623Y-118612360D01*
X82736623Y-118612360D01*
G37*
X82736623Y-118612360D02*
X83106719Y-118785963D01*
X83343833Y-118960332D01*
X83461429Y-119094780D01*
X83461401Y-119206522D01*
X83329838Y-119309979D01*
X83052830Y-119419573D01*
X82835833Y-119486984D01*
X82516936Y-119581933D01*
X82257315Y-119660765D01*
X82102875Y-119709501D01*
X82086127Y-119715326D01*
X82005081Y-119663566D01*
X81894311Y-119496275D01*
X82052667Y-119496275D01*
X82066241Y-119565608D01*
X82128221Y-119589180D01*
X82270496Y-119563647D01*
X82524954Y-119485668D01*
X82695518Y-119428892D01*
X83011867Y-119318009D01*
X83190695Y-119239000D01*
X83256808Y-119175538D01*
X83235015Y-119111296D01*
X83213566Y-119087947D01*
X82991727Y-118973118D01*
X82704556Y-118959255D01*
X82419454Y-119042178D01*
X82266422Y-119146705D01*
X82120074Y-119324769D01*
X82053104Y-119486326D01*
X82052667Y-119496275D01*
X81894311Y-119496275D01*
X81892643Y-119493756D01*
X81803655Y-119310831D01*
X81614723Y-118871647D01*
X81792256Y-118694114D01*
X82038670Y-118559449D01*
X82367033Y-118534527D01*
X82736623Y-118612360D01*
G36*
X88180272Y-116813507D02*
X88488391Y-116942327D01*
X88671918Y-117161998D01*
X88723585Y-117441268D01*
X88636122Y-117748886D01*
X88456169Y-117999638D01*
X88247563Y-118203970D01*
X88104388Y-118287847D01*
X87988986Y-118265154D01*
X87911600Y-118200400D01*
X87836333Y-118046795D01*
X87804049Y-117840567D01*
X87778509Y-117595535D01*
X87733839Y-117418196D01*
X87725201Y-117206922D01*
X87734259Y-117180109D01*
X87942238Y-117180109D01*
X87986394Y-117403469D01*
X88008725Y-117461510D01*
X88077173Y-117680519D01*
X88092178Y-117841806D01*
X88088260Y-117857558D01*
X88087587Y-117939512D01*
X88160804Y-117922638D01*
X88268129Y-117833617D01*
X88369782Y-117699130D01*
X88393816Y-117652614D01*
X88454959Y-117385280D01*
X88379496Y-117184356D01*
X88210823Y-117086248D01*
X88016346Y-117075672D01*
X87942238Y-117180109D01*
X87734259Y-117180109D01*
X87792562Y-117007534D01*
X87901450Y-116839170D01*
X88037082Y-116794083D01*
X88180272Y-116813507D01*
X88180272Y-116813507D01*
G37*
X88180272Y-116813507D02*
X88488391Y-116942327D01*
X88671918Y-117161998D01*
X88723585Y-117441268D01*
X88636122Y-117748886D01*
X88456169Y-117999638D01*
X88247563Y-118203970D01*
X88104388Y-118287847D01*
X87988986Y-118265154D01*
X87911600Y-118200400D01*
X87836333Y-118046795D01*
X87804049Y-117840567D01*
X87778509Y-117595535D01*
X87733839Y-117418196D01*
X87725201Y-117206922D01*
X87734259Y-117180109D01*
X87942238Y-117180109D01*
X87986394Y-117403469D01*
X88008725Y-117461510D01*
X88077173Y-117680519D01*
X88092178Y-117841806D01*
X88088260Y-117857558D01*
X88087587Y-117939512D01*
X88160804Y-117922638D01*
X88268129Y-117833617D01*
X88369782Y-117699130D01*
X88393816Y-117652614D01*
X88454959Y-117385280D01*
X88379496Y-117184356D01*
X88210823Y-117086248D01*
X88016346Y-117075672D01*
X87942238Y-117180109D01*
X87734259Y-117180109D01*
X87792562Y-117007534D01*
X87901450Y-116839170D01*
X88037082Y-116794083D01*
X88180272Y-116813507D01*
G36*
X82844010Y-117707578D02*
X82853551Y-117715818D01*
X82876905Y-117823374D01*
X82777318Y-117926700D01*
X82592299Y-118034759D01*
X82477567Y-118018102D01*
X82437247Y-117969127D01*
X82452648Y-117864982D01*
X82568442Y-117760593D01*
X82720329Y-117695083D01*
X82844010Y-117707578D01*
X82844010Y-117707578D01*
G37*
X82844010Y-117707578D02*
X82853551Y-117715818D01*
X82876905Y-117823374D01*
X82777318Y-117926700D01*
X82592299Y-118034759D01*
X82477567Y-118018102D01*
X82437247Y-117969127D01*
X82452648Y-117864982D01*
X82568442Y-117760593D01*
X82720329Y-117695083D01*
X82844010Y-117707578D01*
G36*
X81908158Y-117511122D02*
X82024895Y-117619366D01*
X82088907Y-117764985D01*
X82082344Y-117838784D01*
X81995261Y-117953663D01*
X81869353Y-117910482D01*
X81815600Y-117861734D01*
X81721948Y-117693572D01*
X81749348Y-117540921D01*
X81791841Y-117501885D01*
X81908158Y-117511122D01*
X81908158Y-117511122D01*
G37*
X81908158Y-117511122D02*
X82024895Y-117619366D01*
X82088907Y-117764985D01*
X82082344Y-117838784D01*
X81995261Y-117953663D01*
X81869353Y-117910482D01*
X81815600Y-117861734D01*
X81721948Y-117693572D01*
X81749348Y-117540921D01*
X81791841Y-117501885D01*
X81908158Y-117511122D01*
G36*
X82578236Y-117250767D02*
X82886080Y-117364379D01*
X83046759Y-117479608D01*
X83177233Y-117637873D01*
X83219305Y-117748859D01*
X83212343Y-117763212D01*
X83158279Y-117757226D01*
X83153333Y-117722200D01*
X83076216Y-117571861D01*
X82874133Y-117444467D01*
X82590985Y-117350404D01*
X82270671Y-117300060D01*
X81957094Y-117303819D01*
X81694153Y-117372070D01*
X81687267Y-117375338D01*
X81560259Y-117433785D01*
X81572226Y-117409023D01*
X81671667Y-117326338D01*
X81909571Y-117224896D01*
X82232247Y-117201989D01*
X82578236Y-117250767D01*
X82578236Y-117250767D01*
G37*
X82578236Y-117250767D02*
X82886080Y-117364379D01*
X83046759Y-117479608D01*
X83177233Y-117637873D01*
X83219305Y-117748859D01*
X83212343Y-117763212D01*
X83158279Y-117757226D01*
X83153333Y-117722200D01*
X83076216Y-117571861D01*
X82874133Y-117444467D01*
X82590985Y-117350404D01*
X82270671Y-117300060D01*
X81957094Y-117303819D01*
X81694153Y-117372070D01*
X81687267Y-117375338D01*
X81560259Y-117433785D01*
X81572226Y-117409023D01*
X81671667Y-117326338D01*
X81909571Y-117224896D01*
X82232247Y-117201989D01*
X82578236Y-117250767D01*
G36*
X84603568Y-114038371D02*
X84877083Y-114182654D01*
X84919927Y-114206282D01*
X85225340Y-114374808D01*
X85409544Y-114481347D01*
X85497986Y-114548567D01*
X85516112Y-114599132D01*
X85489368Y-114655710D01*
X85466989Y-114693574D01*
X85408696Y-114749478D01*
X85305229Y-114743601D01*
X85123268Y-114666513D01*
X84845395Y-114517642D01*
X84577588Y-114368067D01*
X84375168Y-114253981D01*
X84276611Y-114197088D01*
X84273174Y-114194836D01*
X84279044Y-114113719D01*
X84304100Y-114036623D01*
X84349445Y-113974273D01*
X84438478Y-113971884D01*
X84603568Y-114038371D01*
X84603568Y-114038371D01*
G37*
X84603568Y-114038371D02*
X84877083Y-114182654D01*
X84919927Y-114206282D01*
X85225340Y-114374808D01*
X85409544Y-114481347D01*
X85497986Y-114548567D01*
X85516112Y-114599132D01*
X85489368Y-114655710D01*
X85466989Y-114693574D01*
X85408696Y-114749478D01*
X85305229Y-114743601D01*
X85123268Y-114666513D01*
X84845395Y-114517642D01*
X84577588Y-114368067D01*
X84375168Y-114253981D01*
X84276611Y-114197088D01*
X84273174Y-114194836D01*
X84279044Y-114113719D01*
X84304100Y-114036623D01*
X84349445Y-113974273D01*
X84438478Y-113971884D01*
X84603568Y-114038371D01*
G36*
X81060652Y-113951797D02*
X81148824Y-114018184D01*
X81138263Y-114103556D01*
X81008787Y-114163208D01*
X80799438Y-114202519D01*
X80505668Y-114272076D01*
X80246373Y-114376572D01*
X80180443Y-114416213D01*
X80013252Y-114508317D01*
X79908461Y-114520374D01*
X79905276Y-114517721D01*
X79856224Y-114410146D01*
X79937166Y-114286139D01*
X80084167Y-114170479D01*
X80318513Y-114049087D01*
X80593043Y-113967360D01*
X80857257Y-113932521D01*
X81060652Y-113951797D01*
X81060652Y-113951797D01*
G37*
X81060652Y-113951797D02*
X81148824Y-114018184D01*
X81138263Y-114103556D01*
X81008787Y-114163208D01*
X80799438Y-114202519D01*
X80505668Y-114272076D01*
X80246373Y-114376572D01*
X80180443Y-114416213D01*
X80013252Y-114508317D01*
X79908461Y-114520374D01*
X79905276Y-114517721D01*
X79856224Y-114410146D01*
X79937166Y-114286139D01*
X80084167Y-114170479D01*
X80318513Y-114049087D01*
X80593043Y-113967360D01*
X80857257Y-113932521D01*
X81060652Y-113951797D01*
D11*
X70430000Y-115520000D02*
X70430000Y-123140000D01*
X70430000Y-123140000D02*
X78050000Y-123140000D01*
X78050000Y-123140000D02*
X78050000Y-115520000D01*
X78050000Y-115520000D02*
X70430000Y-115520000D01*
X91000000Y-122500000D02*
X91000000Y-120500000D01*
X89500000Y-122954000D02*
X91500000Y-122954000D01*
X89500000Y-120046000D02*
X91600000Y-120046000D01*
D14*
X102910000Y-121000000D02*
X101760000Y-121000000D01*
X102910000Y-115800000D02*
X101710000Y-115800000D01*
X102900000Y-116000000D02*
X102900000Y-115800000D01*
X102900000Y-121000000D02*
X102900000Y-120800000D01*
D11*
X79300000Y-123800000D02*
X79300000Y-137000000D01*
X79300000Y-137000000D02*
X69100000Y-137000000D01*
X69100000Y-137000000D02*
X69100000Y-123800000D01*
X69100000Y-123800000D02*
X79300000Y-123800000D01*
X101800000Y-123800000D02*
X101800000Y-137000000D01*
X101800000Y-137000000D02*
X91600000Y-137000000D01*
X91600000Y-137000000D02*
X91600000Y-123800000D01*
X91600000Y-123800000D02*
X101800000Y-123800000D01*
X90550000Y-123800000D02*
X90550000Y-137000000D01*
X90550000Y-137000000D02*
X80350000Y-137000000D01*
X80350000Y-137000000D02*
X80350000Y-123800000D01*
X80350000Y-123800000D02*
X90550000Y-123800000D01*
X113050000Y-123800000D02*
X113050000Y-137000000D01*
X113050000Y-137000000D02*
X102850000Y-137000000D01*
X102850000Y-137000000D02*
X102850000Y-123800000D01*
X102850000Y-123800000D02*
X113050000Y-123800000D01*
D13*
G36*
X109055814Y-116468931D02*
X109139635Y-116913555D01*
X109448920Y-117041053D01*
X109758206Y-117168551D01*
X110129246Y-116916246D01*
X110233157Y-116845996D01*
X110327087Y-116783272D01*
X110406652Y-116730938D01*
X110467470Y-116691857D01*
X110505157Y-116668893D01*
X110515421Y-116663942D01*
X110533910Y-116676676D01*
X110573420Y-116711882D01*
X110629522Y-116765062D01*
X110697787Y-116831718D01*
X110773786Y-116907354D01*
X110853092Y-116987472D01*
X110931275Y-117067574D01*
X111003907Y-117143164D01*
X111066559Y-117209745D01*
X111114803Y-117262818D01*
X111144210Y-117297887D01*
X111151241Y-117309623D01*
X111141123Y-117331260D01*
X111112759Y-117378662D01*
X111069129Y-117447193D01*
X111013218Y-117532215D01*
X110948006Y-117629093D01*
X110910219Y-117684350D01*
X110841343Y-117785248D01*
X110780140Y-117876299D01*
X110729578Y-117952970D01*
X110692628Y-118010728D01*
X110672258Y-118045043D01*
X110669197Y-118052254D01*
X110676136Y-118072748D01*
X110695051Y-118120513D01*
X110723087Y-118188832D01*
X110757391Y-118270989D01*
X110795109Y-118360270D01*
X110833387Y-118449958D01*
X110869370Y-118533338D01*
X110900206Y-118603694D01*
X110923039Y-118654310D01*
X110935017Y-118678471D01*
X110935724Y-118679422D01*
X110954531Y-118684036D01*
X111004618Y-118694328D01*
X111080793Y-118709287D01*
X111177865Y-118727901D01*
X111290643Y-118749159D01*
X111356442Y-118761418D01*
X111476950Y-118784362D01*
X111585797Y-118806195D01*
X111677476Y-118825722D01*
X111746481Y-118841748D01*
X111787304Y-118853079D01*
X111795511Y-118856674D01*
X111803548Y-118881006D01*
X111810033Y-118935959D01*
X111814970Y-119015108D01*
X111818364Y-119112026D01*
X111820218Y-119220287D01*
X111820538Y-119333465D01*
X111819327Y-119445135D01*
X111816590Y-119548868D01*
X111812331Y-119638241D01*
X111806555Y-119706826D01*
X111799267Y-119748197D01*
X111794895Y-119756810D01*
X111768764Y-119767133D01*
X111713393Y-119781892D01*
X111636107Y-119799352D01*
X111544230Y-119817780D01*
X111512158Y-119823741D01*
X111357524Y-119852066D01*
X111235375Y-119874876D01*
X111141673Y-119893080D01*
X111072384Y-119907583D01*
X111023471Y-119919292D01*
X110990897Y-119929115D01*
X110970628Y-119937956D01*
X110958626Y-119946724D01*
X110956947Y-119948457D01*
X110940184Y-119976371D01*
X110914614Y-120030695D01*
X110882788Y-120104777D01*
X110847260Y-120191965D01*
X110810583Y-120285608D01*
X110775311Y-120379052D01*
X110743996Y-120465647D01*
X110719193Y-120538740D01*
X110703454Y-120591678D01*
X110699332Y-120617811D01*
X110699676Y-120618726D01*
X110713641Y-120640086D01*
X110745322Y-120687084D01*
X110791391Y-120754827D01*
X110848518Y-120838423D01*
X110913373Y-120932982D01*
X110931843Y-120959854D01*
X110997699Y-121057275D01*
X111055650Y-121146163D01*
X111102538Y-121221412D01*
X111135207Y-121277920D01*
X111150500Y-121310581D01*
X111151241Y-121314593D01*
X111138392Y-121335684D01*
X111102888Y-121377464D01*
X111049293Y-121435445D01*
X110982171Y-121505135D01*
X110906087Y-121582045D01*
X110825604Y-121661683D01*
X110745287Y-121739561D01*
X110669699Y-121811186D01*
X110603405Y-121872070D01*
X110550969Y-121917721D01*
X110516955Y-121943650D01*
X110507545Y-121947883D01*
X110485643Y-121937912D01*
X110440800Y-121911020D01*
X110380321Y-121871736D01*
X110333789Y-121840117D01*
X110249475Y-121782098D01*
X110149626Y-121713784D01*
X110049473Y-121645579D01*
X109995627Y-121609075D01*
X109813371Y-121485800D01*
X109660381Y-121568520D01*
X109590682Y-121604759D01*
X109531414Y-121632926D01*
X109491311Y-121648991D01*
X109481103Y-121651226D01*
X109468829Y-121634722D01*
X109444613Y-121588082D01*
X109410263Y-121515609D01*
X109367588Y-121421606D01*
X109318394Y-121310374D01*
X109264490Y-121186215D01*
X109207684Y-121053432D01*
X109149782Y-120916327D01*
X109092593Y-120779202D01*
X109037924Y-120646358D01*
X108987584Y-120522098D01*
X108943380Y-120410725D01*
X108907119Y-120316539D01*
X108880609Y-120243844D01*
X108865658Y-120196941D01*
X108863254Y-120180833D01*
X108882311Y-120160286D01*
X108924036Y-120126933D01*
X108979706Y-120087702D01*
X108984378Y-120084599D01*
X109128264Y-119969423D01*
X109244283Y-119835053D01*
X109331430Y-119685784D01*
X109388699Y-119525913D01*
X109415086Y-119359737D01*
X109409585Y-119191552D01*
X109371190Y-119025655D01*
X109298895Y-118866342D01*
X109277626Y-118831487D01*
X109166996Y-118690737D01*
X109036302Y-118577714D01*
X108890064Y-118493003D01*
X108732808Y-118437194D01*
X108569057Y-118410874D01*
X108403333Y-118414630D01*
X108240162Y-118449050D01*
X108084065Y-118514723D01*
X107939567Y-118612235D01*
X107894869Y-118651813D01*
X107781112Y-118775703D01*
X107698218Y-118906124D01*
X107641356Y-119052315D01*
X107609687Y-119197088D01*
X107601869Y-119359860D01*
X107627938Y-119523440D01*
X107685245Y-119682298D01*
X107771144Y-119830906D01*
X107882986Y-119963735D01*
X108018123Y-120075256D01*
X108035883Y-120087011D01*
X108092150Y-120125508D01*
X108134923Y-120158863D01*
X108155372Y-120180160D01*
X108155669Y-120180833D01*
X108151279Y-120203871D01*
X108133876Y-120256157D01*
X108105268Y-120333390D01*
X108067265Y-120431268D01*
X108021674Y-120545491D01*
X107970303Y-120671758D01*
X107914962Y-120805767D01*
X107857458Y-120943218D01*
X107799601Y-121079808D01*
X107743198Y-121211237D01*
X107690058Y-121333205D01*
X107641990Y-121441409D01*
X107600801Y-121531549D01*
X107568301Y-121599323D01*
X107546297Y-121640430D01*
X107537436Y-121651226D01*
X107510360Y-121642819D01*
X107459697Y-121620272D01*
X107394183Y-121587613D01*
X107358159Y-121568520D01*
X107205168Y-121485800D01*
X107022912Y-121609075D01*
X106929875Y-121672228D01*
X106828015Y-121741727D01*
X106732562Y-121807165D01*
X106684750Y-121840117D01*
X106617505Y-121885273D01*
X106560564Y-121921057D01*
X106521354Y-121942938D01*
X106508619Y-121947563D01*
X106490083Y-121935085D01*
X106449059Y-121900252D01*
X106389525Y-121846678D01*
X106315458Y-121777983D01*
X106230835Y-121697781D01*
X106177315Y-121646286D01*
X106083681Y-121554286D01*
X106002759Y-121471999D01*
X105937823Y-121402945D01*
X105892142Y-121350644D01*
X105868989Y-121318616D01*
X105866768Y-121312116D01*
X105877076Y-121287394D01*
X105905561Y-121237405D01*
X105949063Y-121167212D01*
X106004423Y-121081875D01*
X106068480Y-120986456D01*
X106086697Y-120959854D01*
X106153073Y-120863167D01*
X106212622Y-120776117D01*
X106262016Y-120703595D01*
X106297925Y-120650493D01*
X106317019Y-120621703D01*
X106318864Y-120618726D01*
X106316105Y-120595782D01*
X106301462Y-120545336D01*
X106277487Y-120474041D01*
X106246734Y-120388547D01*
X106211756Y-120295507D01*
X106175107Y-120201574D01*
X106139339Y-120113399D01*
X106107006Y-120037634D01*
X106080662Y-119980931D01*
X106062858Y-119949943D01*
X106061593Y-119948457D01*
X106050706Y-119939601D01*
X106032318Y-119930843D01*
X106002394Y-119921277D01*
X105956897Y-119909996D01*
X105891791Y-119896093D01*
X105803039Y-119878663D01*
X105686607Y-119856798D01*
X105538458Y-119829591D01*
X105506382Y-119823741D01*
X105411314Y-119805374D01*
X105328435Y-119787405D01*
X105265070Y-119771569D01*
X105228542Y-119759600D01*
X105223644Y-119756810D01*
X105215573Y-119732072D01*
X105209013Y-119676790D01*
X105203967Y-119597389D01*
X105200441Y-119500296D01*
X105198439Y-119391938D01*
X105197964Y-119278740D01*
X105199023Y-119167128D01*
X105201618Y-119063529D01*
X105205754Y-118974368D01*
X105211437Y-118906072D01*
X105218669Y-118865066D01*
X105223029Y-118856674D01*
X105247302Y-118848208D01*
X105302574Y-118834435D01*
X105383338Y-118816550D01*
X105484088Y-118795748D01*
X105599317Y-118773223D01*
X105662098Y-118761418D01*
X105781213Y-118739151D01*
X105887435Y-118718979D01*
X105975573Y-118701915D01*
X106040434Y-118688969D01*
X106076826Y-118681155D01*
X106082816Y-118679422D01*
X106092939Y-118659890D01*
X106114338Y-118612843D01*
X106144161Y-118545003D01*
X106179555Y-118463091D01*
X106217668Y-118373828D01*
X106255647Y-118283935D01*
X106290640Y-118200135D01*
X106319794Y-118129147D01*
X106340257Y-118077694D01*
X106349177Y-118052497D01*
X106349343Y-118051396D01*
X106339231Y-118031519D01*
X106310883Y-117985777D01*
X106267277Y-117918717D01*
X106211394Y-117834884D01*
X106146213Y-117738826D01*
X106108321Y-117683650D01*
X106039275Y-117582481D01*
X105977950Y-117490630D01*
X105927337Y-117412744D01*
X105890429Y-117353469D01*
X105870218Y-117317451D01*
X105867299Y-117309377D01*
X105879847Y-117290584D01*
X105914537Y-117250457D01*
X105966937Y-117193493D01*
X106032616Y-117124185D01*
X106107144Y-117047031D01*
X106186087Y-116966525D01*
X106265017Y-116887163D01*
X106339500Y-116813440D01*
X106405106Y-116749852D01*
X106457404Y-116700894D01*
X106491961Y-116671061D01*
X106503522Y-116663942D01*
X106522346Y-116673953D01*
X106567369Y-116702078D01*
X106634213Y-116745454D01*
X106718501Y-116801218D01*
X106815856Y-116866506D01*
X106889293Y-116916246D01*
X107260333Y-117168551D01*
X107878905Y-116913555D01*
X107962725Y-116468931D01*
X108046546Y-116024307D01*
X108971994Y-116024307D01*
X109055814Y-116468931D01*
X109055814Y-116468931D01*
G37*
X109055814Y-116468931D02*
X109139635Y-116913555D01*
X109448920Y-117041053D01*
X109758206Y-117168551D01*
X110129246Y-116916246D01*
X110233157Y-116845996D01*
X110327087Y-116783272D01*
X110406652Y-116730938D01*
X110467470Y-116691857D01*
X110505157Y-116668893D01*
X110515421Y-116663942D01*
X110533910Y-116676676D01*
X110573420Y-116711882D01*
X110629522Y-116765062D01*
X110697787Y-116831718D01*
X110773786Y-116907354D01*
X110853092Y-116987472D01*
X110931275Y-117067574D01*
X111003907Y-117143164D01*
X111066559Y-117209745D01*
X111114803Y-117262818D01*
X111144210Y-117297887D01*
X111151241Y-117309623D01*
X111141123Y-117331260D01*
X111112759Y-117378662D01*
X111069129Y-117447193D01*
X111013218Y-117532215D01*
X110948006Y-117629093D01*
X110910219Y-117684350D01*
X110841343Y-117785248D01*
X110780140Y-117876299D01*
X110729578Y-117952970D01*
X110692628Y-118010728D01*
X110672258Y-118045043D01*
X110669197Y-118052254D01*
X110676136Y-118072748D01*
X110695051Y-118120513D01*
X110723087Y-118188832D01*
X110757391Y-118270989D01*
X110795109Y-118360270D01*
X110833387Y-118449958D01*
X110869370Y-118533338D01*
X110900206Y-118603694D01*
X110923039Y-118654310D01*
X110935017Y-118678471D01*
X110935724Y-118679422D01*
X110954531Y-118684036D01*
X111004618Y-118694328D01*
X111080793Y-118709287D01*
X111177865Y-118727901D01*
X111290643Y-118749159D01*
X111356442Y-118761418D01*
X111476950Y-118784362D01*
X111585797Y-118806195D01*
X111677476Y-118825722D01*
X111746481Y-118841748D01*
X111787304Y-118853079D01*
X111795511Y-118856674D01*
X111803548Y-118881006D01*
X111810033Y-118935959D01*
X111814970Y-119015108D01*
X111818364Y-119112026D01*
X111820218Y-119220287D01*
X111820538Y-119333465D01*
X111819327Y-119445135D01*
X111816590Y-119548868D01*
X111812331Y-119638241D01*
X111806555Y-119706826D01*
X111799267Y-119748197D01*
X111794895Y-119756810D01*
X111768764Y-119767133D01*
X111713393Y-119781892D01*
X111636107Y-119799352D01*
X111544230Y-119817780D01*
X111512158Y-119823741D01*
X111357524Y-119852066D01*
X111235375Y-119874876D01*
X111141673Y-119893080D01*
X111072384Y-119907583D01*
X111023471Y-119919292D01*
X110990897Y-119929115D01*
X110970628Y-119937956D01*
X110958626Y-119946724D01*
X110956947Y-119948457D01*
X110940184Y-119976371D01*
X110914614Y-120030695D01*
X110882788Y-120104777D01*
X110847260Y-120191965D01*
X110810583Y-120285608D01*
X110775311Y-120379052D01*
X110743996Y-120465647D01*
X110719193Y-120538740D01*
X110703454Y-120591678D01*
X110699332Y-120617811D01*
X110699676Y-120618726D01*
X110713641Y-120640086D01*
X110745322Y-120687084D01*
X110791391Y-120754827D01*
X110848518Y-120838423D01*
X110913373Y-120932982D01*
X110931843Y-120959854D01*
X110997699Y-121057275D01*
X111055650Y-121146163D01*
X111102538Y-121221412D01*
X111135207Y-121277920D01*
X111150500Y-121310581D01*
X111151241Y-121314593D01*
X111138392Y-121335684D01*
X111102888Y-121377464D01*
X111049293Y-121435445D01*
X110982171Y-121505135D01*
X110906087Y-121582045D01*
X110825604Y-121661683D01*
X110745287Y-121739561D01*
X110669699Y-121811186D01*
X110603405Y-121872070D01*
X110550969Y-121917721D01*
X110516955Y-121943650D01*
X110507545Y-121947883D01*
X110485643Y-121937912D01*
X110440800Y-121911020D01*
X110380321Y-121871736D01*
X110333789Y-121840117D01*
X110249475Y-121782098D01*
X110149626Y-121713784D01*
X110049473Y-121645579D01*
X109995627Y-121609075D01*
X109813371Y-121485800D01*
X109660381Y-121568520D01*
X109590682Y-121604759D01*
X109531414Y-121632926D01*
X109491311Y-121648991D01*
X109481103Y-121651226D01*
X109468829Y-121634722D01*
X109444613Y-121588082D01*
X109410263Y-121515609D01*
X109367588Y-121421606D01*
X109318394Y-121310374D01*
X109264490Y-121186215D01*
X109207684Y-121053432D01*
X109149782Y-120916327D01*
X109092593Y-120779202D01*
X109037924Y-120646358D01*
X108987584Y-120522098D01*
X108943380Y-120410725D01*
X108907119Y-120316539D01*
X108880609Y-120243844D01*
X108865658Y-120196941D01*
X108863254Y-120180833D01*
X108882311Y-120160286D01*
X108924036Y-120126933D01*
X108979706Y-120087702D01*
X108984378Y-120084599D01*
X109128264Y-119969423D01*
X109244283Y-119835053D01*
X109331430Y-119685784D01*
X109388699Y-119525913D01*
X109415086Y-119359737D01*
X109409585Y-119191552D01*
X109371190Y-119025655D01*
X109298895Y-118866342D01*
X109277626Y-118831487D01*
X109166996Y-118690737D01*
X109036302Y-118577714D01*
X108890064Y-118493003D01*
X108732808Y-118437194D01*
X108569057Y-118410874D01*
X108403333Y-118414630D01*
X108240162Y-118449050D01*
X108084065Y-118514723D01*
X107939567Y-118612235D01*
X107894869Y-118651813D01*
X107781112Y-118775703D01*
X107698218Y-118906124D01*
X107641356Y-119052315D01*
X107609687Y-119197088D01*
X107601869Y-119359860D01*
X107627938Y-119523440D01*
X107685245Y-119682298D01*
X107771144Y-119830906D01*
X107882986Y-119963735D01*
X108018123Y-120075256D01*
X108035883Y-120087011D01*
X108092150Y-120125508D01*
X108134923Y-120158863D01*
X108155372Y-120180160D01*
X108155669Y-120180833D01*
X108151279Y-120203871D01*
X108133876Y-120256157D01*
X108105268Y-120333390D01*
X108067265Y-120431268D01*
X108021674Y-120545491D01*
X107970303Y-120671758D01*
X107914962Y-120805767D01*
X107857458Y-120943218D01*
X107799601Y-121079808D01*
X107743198Y-121211237D01*
X107690058Y-121333205D01*
X107641990Y-121441409D01*
X107600801Y-121531549D01*
X107568301Y-121599323D01*
X107546297Y-121640430D01*
X107537436Y-121651226D01*
X107510360Y-121642819D01*
X107459697Y-121620272D01*
X107394183Y-121587613D01*
X107358159Y-121568520D01*
X107205168Y-121485800D01*
X107022912Y-121609075D01*
X106929875Y-121672228D01*
X106828015Y-121741727D01*
X106732562Y-121807165D01*
X106684750Y-121840117D01*
X106617505Y-121885273D01*
X106560564Y-121921057D01*
X106521354Y-121942938D01*
X106508619Y-121947563D01*
X106490083Y-121935085D01*
X106449059Y-121900252D01*
X106389525Y-121846678D01*
X106315458Y-121777983D01*
X106230835Y-121697781D01*
X106177315Y-121646286D01*
X106083681Y-121554286D01*
X106002759Y-121471999D01*
X105937823Y-121402945D01*
X105892142Y-121350644D01*
X105868989Y-121318616D01*
X105866768Y-121312116D01*
X105877076Y-121287394D01*
X105905561Y-121237405D01*
X105949063Y-121167212D01*
X106004423Y-121081875D01*
X106068480Y-120986456D01*
X106086697Y-120959854D01*
X106153073Y-120863167D01*
X106212622Y-120776117D01*
X106262016Y-120703595D01*
X106297925Y-120650493D01*
X106317019Y-120621703D01*
X106318864Y-120618726D01*
X106316105Y-120595782D01*
X106301462Y-120545336D01*
X106277487Y-120474041D01*
X106246734Y-120388547D01*
X106211756Y-120295507D01*
X106175107Y-120201574D01*
X106139339Y-120113399D01*
X106107006Y-120037634D01*
X106080662Y-119980931D01*
X106062858Y-119949943D01*
X106061593Y-119948457D01*
X106050706Y-119939601D01*
X106032318Y-119930843D01*
X106002394Y-119921277D01*
X105956897Y-119909996D01*
X105891791Y-119896093D01*
X105803039Y-119878663D01*
X105686607Y-119856798D01*
X105538458Y-119829591D01*
X105506382Y-119823741D01*
X105411314Y-119805374D01*
X105328435Y-119787405D01*
X105265070Y-119771569D01*
X105228542Y-119759600D01*
X105223644Y-119756810D01*
X105215573Y-119732072D01*
X105209013Y-119676790D01*
X105203967Y-119597389D01*
X105200441Y-119500296D01*
X105198439Y-119391938D01*
X105197964Y-119278740D01*
X105199023Y-119167128D01*
X105201618Y-119063529D01*
X105205754Y-118974368D01*
X105211437Y-118906072D01*
X105218669Y-118865066D01*
X105223029Y-118856674D01*
X105247302Y-118848208D01*
X105302574Y-118834435D01*
X105383338Y-118816550D01*
X105484088Y-118795748D01*
X105599317Y-118773223D01*
X105662098Y-118761418D01*
X105781213Y-118739151D01*
X105887435Y-118718979D01*
X105975573Y-118701915D01*
X106040434Y-118688969D01*
X106076826Y-118681155D01*
X106082816Y-118679422D01*
X106092939Y-118659890D01*
X106114338Y-118612843D01*
X106144161Y-118545003D01*
X106179555Y-118463091D01*
X106217668Y-118373828D01*
X106255647Y-118283935D01*
X106290640Y-118200135D01*
X106319794Y-118129147D01*
X106340257Y-118077694D01*
X106349177Y-118052497D01*
X106349343Y-118051396D01*
X106339231Y-118031519D01*
X106310883Y-117985777D01*
X106267277Y-117918717D01*
X106211394Y-117834884D01*
X106146213Y-117738826D01*
X106108321Y-117683650D01*
X106039275Y-117582481D01*
X105977950Y-117490630D01*
X105927337Y-117412744D01*
X105890429Y-117353469D01*
X105870218Y-117317451D01*
X105867299Y-117309377D01*
X105879847Y-117290584D01*
X105914537Y-117250457D01*
X105966937Y-117193493D01*
X106032616Y-117124185D01*
X106107144Y-117047031D01*
X106186087Y-116966525D01*
X106265017Y-116887163D01*
X106339500Y-116813440D01*
X106405106Y-116749852D01*
X106457404Y-116700894D01*
X106491961Y-116671061D01*
X106503522Y-116663942D01*
X106522346Y-116673953D01*
X106567369Y-116702078D01*
X106634213Y-116745454D01*
X106718501Y-116801218D01*
X106815856Y-116866506D01*
X106889293Y-116916246D01*
X107260333Y-117168551D01*
X107878905Y-116913555D01*
X107962725Y-116468931D01*
X108046546Y-116024307D01*
X108971994Y-116024307D01*
X109055814Y-116468931D01*
D11*
X68209524Y-117117143D02*
X68161905Y-117164762D01*
X68019048Y-117212381D01*
X67923810Y-117212381D01*
X67780952Y-117164762D01*
X67685714Y-117069524D01*
X67638095Y-116974286D01*
X67590476Y-116783810D01*
X67590476Y-116640952D01*
X67638095Y-116450476D01*
X67685714Y-116355238D01*
X67780952Y-116260000D01*
X67923810Y-116212381D01*
X68019048Y-116212381D01*
X68161905Y-116260000D01*
X68209524Y-116307619D01*
X68638095Y-117212381D02*
X68638095Y-116212381D01*
X69209524Y-117212381D01*
X69209524Y-116212381D01*
X70209524Y-117212381D02*
X69638095Y-117212381D01*
X69923809Y-117212381D02*
X69923809Y-116212381D01*
X69828571Y-116355238D01*
X69733333Y-116450476D01*
X69638095Y-116498095D01*
X91151905Y-119592381D02*
X91151905Y-118592381D01*
X91390000Y-118592381D01*
X91532858Y-118640000D01*
X91628096Y-118735238D01*
X91675715Y-118830476D01*
X91723334Y-119020952D01*
X91723334Y-119163810D01*
X91675715Y-119354286D01*
X91628096Y-119449524D01*
X91532858Y-119544762D01*
X91390000Y-119592381D01*
X91151905Y-119592381D01*
X92056667Y-118592381D02*
X92675715Y-118592381D01*
X92342381Y-118973333D01*
X92485239Y-118973333D01*
X92580477Y-119020952D01*
X92628096Y-119068571D01*
X92675715Y-119163810D01*
X92675715Y-119401905D01*
X92628096Y-119497143D01*
X92580477Y-119544762D01*
X92485239Y-119592381D01*
X92199524Y-119592381D01*
X92104286Y-119544762D01*
X92056667Y-119497143D01*
X102904762Y-122797619D02*
X102809524Y-122750000D01*
X102714286Y-122654762D01*
X102571429Y-122511905D01*
X102476190Y-122464286D01*
X102380952Y-122464286D01*
X102428571Y-122702381D02*
X102333333Y-122654762D01*
X102238095Y-122559524D01*
X102190476Y-122369048D01*
X102190476Y-122035714D01*
X102238095Y-121845238D01*
X102333333Y-121750000D01*
X102428571Y-121702381D01*
X102619048Y-121702381D01*
X102714286Y-121750000D01*
X102809524Y-121845238D01*
X102857143Y-122035714D01*
X102857143Y-122369048D01*
X102809524Y-122559524D01*
X102714286Y-122654762D01*
X102619048Y-122702381D01*
X102428571Y-122702381D01*
X103809524Y-122702381D02*
X103238095Y-122702381D01*
X103523809Y-122702381D02*
X103523809Y-121702381D01*
X103428571Y-121845238D01*
X103333333Y-121940476D01*
X103238095Y-121988095D01*
X71421429Y-138352381D02*
X71421429Y-137352381D01*
X71802382Y-137352381D01*
X71897620Y-137400000D01*
X71945239Y-137447619D01*
X71992858Y-137542857D01*
X71992858Y-137685714D01*
X71945239Y-137780952D01*
X71897620Y-137828571D01*
X71802382Y-137876190D01*
X71421429Y-137876190D01*
X72611905Y-137352381D02*
X72802382Y-137352381D01*
X72897620Y-137400000D01*
X72992858Y-137495238D01*
X73040477Y-137685714D01*
X73040477Y-138019048D01*
X72992858Y-138209524D01*
X72897620Y-138304762D01*
X72802382Y-138352381D01*
X72611905Y-138352381D01*
X72516667Y-138304762D01*
X72421429Y-138209524D01*
X72373810Y-138019048D01*
X72373810Y-137685714D01*
X72421429Y-137495238D01*
X72516667Y-137400000D01*
X72611905Y-137352381D01*
X73373810Y-137352381D02*
X73611905Y-138352381D01*
X73802382Y-137638095D01*
X73992858Y-138352381D01*
X74230953Y-137352381D01*
X74611905Y-137828571D02*
X74945239Y-137828571D01*
X75088096Y-138352381D02*
X74611905Y-138352381D01*
X74611905Y-137352381D01*
X75088096Y-137352381D01*
X76088096Y-138352381D02*
X75754762Y-137876190D01*
X75516667Y-138352381D02*
X75516667Y-137352381D01*
X75897620Y-137352381D01*
X75992858Y-137400000D01*
X76040477Y-137447619D01*
X76088096Y-137542857D01*
X76088096Y-137685714D01*
X76040477Y-137780952D01*
X75992858Y-137828571D01*
X75897620Y-137876190D01*
X75516667Y-137876190D01*
X76516667Y-137971429D02*
X77278572Y-137971429D01*
X76897620Y-138352381D02*
X76897620Y-137590476D01*
X95850001Y-137828571D02*
X95992858Y-137876190D01*
X96040477Y-137923810D01*
X96088096Y-138019048D01*
X96088096Y-138161905D01*
X96040477Y-138257143D01*
X95992858Y-138304762D01*
X95897620Y-138352381D01*
X95516667Y-138352381D01*
X95516667Y-137352381D01*
X95850001Y-137352381D01*
X95945239Y-137400000D01*
X95992858Y-137447619D01*
X96040477Y-137542857D01*
X96040477Y-137638095D01*
X95992858Y-137733333D01*
X95945239Y-137780952D01*
X95850001Y-137828571D01*
X95516667Y-137828571D01*
X96516667Y-137828571D02*
X96850001Y-137828571D01*
X96992858Y-138352381D02*
X96516667Y-138352381D01*
X96516667Y-137352381D01*
X96992858Y-137352381D01*
X97421429Y-138352381D02*
X97421429Y-137352381D01*
X97659524Y-137352381D01*
X97802382Y-137400000D01*
X97897620Y-137495238D01*
X97945239Y-137590476D01*
X97992858Y-137780952D01*
X97992858Y-137923810D01*
X97945239Y-138114286D01*
X97897620Y-138209524D01*
X97802382Y-138304762D01*
X97659524Y-138352381D01*
X97421429Y-138352381D01*
X98421429Y-137971429D02*
X99183334Y-137971429D01*
X84350001Y-137828571D02*
X84492858Y-137876190D01*
X84540477Y-137923810D01*
X84588096Y-138019048D01*
X84588096Y-138161905D01*
X84540477Y-138257143D01*
X84492858Y-138304762D01*
X84397620Y-138352381D01*
X84016667Y-138352381D01*
X84016667Y-137352381D01*
X84350001Y-137352381D01*
X84445239Y-137400000D01*
X84492858Y-137447619D01*
X84540477Y-137542857D01*
X84540477Y-137638095D01*
X84492858Y-137733333D01*
X84445239Y-137780952D01*
X84350001Y-137828571D01*
X84016667Y-137828571D01*
X85016667Y-137828571D02*
X85350001Y-137828571D01*
X85492858Y-138352381D02*
X85016667Y-138352381D01*
X85016667Y-137352381D01*
X85492858Y-137352381D01*
X85921429Y-138352381D02*
X85921429Y-137352381D01*
X86159524Y-137352381D01*
X86302382Y-137400000D01*
X86397620Y-137495238D01*
X86445239Y-137590476D01*
X86492858Y-137780952D01*
X86492858Y-137923810D01*
X86445239Y-138114286D01*
X86397620Y-138209524D01*
X86302382Y-138304762D01*
X86159524Y-138352381D01*
X85921429Y-138352381D01*
X86921429Y-137971429D02*
X87683334Y-137971429D01*
X87302382Y-138352381D02*
X87302382Y-137590476D01*
X105171429Y-138352381D02*
X105171429Y-137352381D01*
X105552382Y-137352381D01*
X105647620Y-137400000D01*
X105695239Y-137447619D01*
X105742858Y-137542857D01*
X105742858Y-137685714D01*
X105695239Y-137780952D01*
X105647620Y-137828571D01*
X105552382Y-137876190D01*
X105171429Y-137876190D01*
X106361905Y-137352381D02*
X106552382Y-137352381D01*
X106647620Y-137400000D01*
X106742858Y-137495238D01*
X106790477Y-137685714D01*
X106790477Y-138019048D01*
X106742858Y-138209524D01*
X106647620Y-138304762D01*
X106552382Y-138352381D01*
X106361905Y-138352381D01*
X106266667Y-138304762D01*
X106171429Y-138209524D01*
X106123810Y-138019048D01*
X106123810Y-137685714D01*
X106171429Y-137495238D01*
X106266667Y-137400000D01*
X106361905Y-137352381D01*
X107123810Y-137352381D02*
X107361905Y-138352381D01*
X107552382Y-137638095D01*
X107742858Y-138352381D01*
X107980953Y-137352381D01*
X108361905Y-137828571D02*
X108695239Y-137828571D01*
X108838096Y-138352381D02*
X108361905Y-138352381D01*
X108361905Y-137352381D01*
X108838096Y-137352381D01*
X109838096Y-138352381D02*
X109504762Y-137876190D01*
X109266667Y-138352381D02*
X109266667Y-137352381D01*
X109647620Y-137352381D01*
X109742858Y-137400000D01*
X109790477Y-137447619D01*
X109838096Y-137542857D01*
X109838096Y-137685714D01*
X109790477Y-137780952D01*
X109742858Y-137828571D01*
X109647620Y-137876190D01*
X109266667Y-137876190D01*
X110266667Y-137971429D02*
X111028572Y-137971429D01*
M02*
