G04 #@! TF.FileFunction,Legend,Top*
%FSLAX46Y46*%
G04 Gerber Fmt 4.6, Leading zero omitted, Abs format (unit mm)*
G04 Created by KiCad (PCBNEW 4.0.5) date 02/22/17 23:49:27*
%MOMM*%
%LPD*%
G01*
G04 APERTURE LIST*
%ADD10C,0.100000*%
%ADD11C,0.150000*%
%ADD12C,0.300000*%
%ADD13C,0.400000*%
%ADD14C,0.120000*%
%ADD15C,0.002540*%
%ADD16C,0.080000*%
G04 APERTURE END LIST*
D10*
D11*
X79999600Y-155999600D02*
X79999600Y-187999600D01*
X187999600Y-187999600D01*
X187999600Y-155999600D01*
X79999600Y-155999600D01*
D10*
D11*
X10000000Y-10000000D02*
X10000000Y-189999600D01*
X189999600Y-189999600D01*
X189999600Y-10000000D01*
X10000000Y-10000000D01*
D10*
D11*
X12000000Y-12000000D02*
X12000000Y-187999600D01*
X187999600Y-187999600D01*
X187999600Y-12000000D01*
X12000000Y-12000000D01*
D10*
D11*
X60000000Y-12000000D02*
X60000000Y-10000000D01*
D10*
D11*
X110000000Y-12000000D02*
X110000000Y-10000000D01*
D10*
D11*
X160000000Y-12000000D02*
X160000000Y-10000000D01*
D10*
D11*
X35990476Y-11588095D02*
X35247619Y-11588095D01*
X35619048Y-11588095D02*
X35619048Y-10288095D01*
X35495238Y-10473810D01*
X35371429Y-10597619D01*
X35247619Y-10659524D01*
D10*
D11*
X85247619Y-10411905D02*
X85309524Y-10350000D01*
X85433333Y-10288095D01*
X85742857Y-10288095D01*
X85866667Y-10350000D01*
X85928571Y-10411905D01*
X85990476Y-10535714D01*
X85990476Y-10659524D01*
X85928571Y-10845238D01*
X85185714Y-11588095D01*
X85990476Y-11588095D01*
D10*
D11*
X135185714Y-10288095D02*
X135990476Y-10288095D01*
X135557143Y-10783333D01*
X135742857Y-10783333D01*
X135866667Y-10845238D01*
X135928571Y-10907143D01*
X135990476Y-11030952D01*
X135990476Y-11340476D01*
X135928571Y-11464286D01*
X135866667Y-11526190D01*
X135742857Y-11588095D01*
X135371429Y-11588095D01*
X135247619Y-11526190D01*
X135185714Y-11464286D01*
D10*
D11*
X185866667Y-10721429D02*
X185866667Y-11588095D01*
X185557143Y-10226190D02*
X185247619Y-11154762D01*
X186052381Y-11154762D01*
D10*
D11*
X60000000Y-187999600D02*
X60000000Y-189999600D01*
D10*
D11*
X110000000Y-187999600D02*
X110000000Y-189999600D01*
D10*
D11*
X160000000Y-187999600D02*
X160000000Y-189999600D01*
D10*
D11*
X35990476Y-189587695D02*
X35247619Y-189587695D01*
X35619048Y-189587695D02*
X35619048Y-188287695D01*
X35495238Y-188473410D01*
X35371429Y-188597219D01*
X35247619Y-188659124D01*
D10*
D11*
X85247619Y-188411505D02*
X85309524Y-188349600D01*
X85433333Y-188287695D01*
X85742857Y-188287695D01*
X85866667Y-188349600D01*
X85928571Y-188411505D01*
X85990476Y-188535314D01*
X85990476Y-188659124D01*
X85928571Y-188844838D01*
X85185714Y-189587695D01*
X85990476Y-189587695D01*
D10*
D11*
X135185714Y-188287695D02*
X135990476Y-188287695D01*
X135557143Y-188782933D01*
X135742857Y-188782933D01*
X135866667Y-188844838D01*
X135928571Y-188906743D01*
X135990476Y-189030552D01*
X135990476Y-189340076D01*
X135928571Y-189463886D01*
X135866667Y-189525790D01*
X135742857Y-189587695D01*
X135371429Y-189587695D01*
X135247619Y-189525790D01*
X135185714Y-189463886D01*
D10*
D11*
X185866667Y-188721029D02*
X185866667Y-189587695D01*
X185557143Y-188225790D02*
X185247619Y-189154362D01*
X186052381Y-189154362D01*
D10*
D11*
X10000000Y-60000000D02*
X12000000Y-60000000D01*
D10*
D11*
X10000000Y-110000000D02*
X12000000Y-110000000D01*
D10*
D11*
X10000000Y-160000000D02*
X12000000Y-160000000D01*
D10*
D11*
X10690476Y-35216667D02*
X11309524Y-35216667D01*
X10566667Y-35588095D02*
X11000000Y-34288095D01*
X11433333Y-35588095D01*
D10*
D11*
X11092857Y-84907143D02*
X11278571Y-84969048D01*
X11340476Y-85030952D01*
X11402381Y-85154762D01*
X11402381Y-85340476D01*
X11340476Y-85464286D01*
X11278571Y-85526190D01*
X11154762Y-85588095D01*
X10659524Y-85588095D01*
X10659524Y-84288095D01*
X11092857Y-84288095D01*
X11216667Y-84350000D01*
X11278571Y-84411905D01*
X11340476Y-84535714D01*
X11340476Y-84659524D01*
X11278571Y-84783333D01*
X11216667Y-84845238D01*
X11092857Y-84907143D01*
X10659524Y-84907143D01*
D10*
D11*
X11402381Y-135464286D02*
X11340476Y-135526190D01*
X11154762Y-135588095D01*
X11030952Y-135588095D01*
X10845238Y-135526190D01*
X10721429Y-135402381D01*
X10659524Y-135278571D01*
X10597619Y-135030952D01*
X10597619Y-134845238D01*
X10659524Y-134597619D01*
X10721429Y-134473810D01*
X10845238Y-134350000D01*
X11030952Y-134288095D01*
X11154762Y-134288095D01*
X11340476Y-134350000D01*
X11402381Y-134411905D01*
D10*
D11*
X10659524Y-185588095D02*
X10659524Y-184288095D01*
X10969048Y-184288095D01*
X11154762Y-184350000D01*
X11278571Y-184473810D01*
X11340476Y-184597619D01*
X11402381Y-184845238D01*
X11402381Y-185030952D01*
X11340476Y-185278571D01*
X11278571Y-185402381D01*
X11154762Y-185526190D01*
X10969048Y-185588095D01*
X10659524Y-185588095D01*
D10*
D11*
X189999600Y-60000000D02*
X187999600Y-60000000D01*
D10*
D11*
X189999600Y-110000000D02*
X187999600Y-110000000D01*
D10*
D11*
X189999600Y-160000000D02*
X187999600Y-160000000D01*
D10*
D11*
X188690076Y-35216667D02*
X189309124Y-35216667D01*
X188566267Y-35588095D02*
X188999600Y-34288095D01*
X189432933Y-35588095D01*
D10*
D11*
X189092457Y-84907143D02*
X189278171Y-84969048D01*
X189340076Y-85030952D01*
X189401981Y-85154762D01*
X189401981Y-85340476D01*
X189340076Y-85464286D01*
X189278171Y-85526190D01*
X189154362Y-85588095D01*
X188659124Y-85588095D01*
X188659124Y-84288095D01*
X189092457Y-84288095D01*
X189216267Y-84350000D01*
X189278171Y-84411905D01*
X189340076Y-84535714D01*
X189340076Y-84659524D01*
X189278171Y-84783333D01*
X189216267Y-84845238D01*
X189092457Y-84907143D01*
X188659124Y-84907143D01*
D10*
D11*
X189401981Y-135464286D02*
X189340076Y-135526190D01*
X189154362Y-135588095D01*
X189030552Y-135588095D01*
X188844838Y-135526190D01*
X188721029Y-135402381D01*
X188659124Y-135278571D01*
X188597219Y-135030952D01*
X188597219Y-134845238D01*
X188659124Y-134597619D01*
X188721029Y-134473810D01*
X188844838Y-134350000D01*
X189030552Y-134288095D01*
X189154362Y-134288095D01*
X189340076Y-134350000D01*
X189401981Y-134411905D01*
D10*
D11*
X188659124Y-185588095D02*
X188659124Y-184288095D01*
X188968648Y-184288095D01*
X189154362Y-184350000D01*
X189278171Y-184473810D01*
X189340076Y-184597619D01*
X189401981Y-184845238D01*
X189401981Y-185030952D01*
X189340076Y-185278571D01*
X189278171Y-185402381D01*
X189154362Y-185526190D01*
X188968648Y-185588095D01*
X188659124Y-185588095D01*
D10*
D11*
X103356743Y-183778171D02*
X103356743Y-182278171D01*
X103713886Y-182278171D01*
X103928171Y-182349600D01*
X104071029Y-182492457D01*
X104142457Y-182635314D01*
X104213886Y-182921029D01*
X104213886Y-183135314D01*
X104142457Y-183421029D01*
X104071029Y-183563886D01*
X103928171Y-183706743D01*
X103713886Y-183778171D01*
X103356743Y-183778171D01*
X105499600Y-183778171D02*
X105499600Y-182992457D01*
X105428171Y-182849600D01*
X105285314Y-182778171D01*
X104999600Y-182778171D01*
X104856743Y-182849600D01*
X105499600Y-183706743D02*
X105356743Y-183778171D01*
X104999600Y-183778171D01*
X104856743Y-183706743D01*
X104785314Y-183563886D01*
X104785314Y-183421029D01*
X104856743Y-183278171D01*
X104999600Y-183206743D01*
X105356743Y-183206743D01*
X105499600Y-183135314D01*
X105999600Y-182778171D02*
X106571029Y-182778171D01*
X106213886Y-182278171D02*
X106213886Y-183563886D01*
X106285314Y-183706743D01*
X106428172Y-183778171D01*
X106571029Y-183778171D01*
X107642457Y-183706743D02*
X107499600Y-183778171D01*
X107213886Y-183778171D01*
X107071029Y-183706743D01*
X106999600Y-183563886D01*
X106999600Y-182992457D01*
X107071029Y-182849600D01*
X107213886Y-182778171D01*
X107499600Y-182778171D01*
X107642457Y-182849600D01*
X107713886Y-182992457D01*
X107713886Y-183135314D01*
X106999600Y-183278171D01*
X108356743Y-183635314D02*
X108428171Y-183706743D01*
X108356743Y-183778171D01*
X108285314Y-183706743D01*
X108356743Y-183635314D01*
X108356743Y-183778171D01*
X108356743Y-182849600D02*
X108428171Y-182921029D01*
X108356743Y-182992457D01*
X108285314Y-182921029D01*
X108356743Y-182849600D01*
X108356743Y-182992457D01*
D10*
D11*
X79999600Y-184499600D02*
X187999600Y-184499600D01*
D10*
D11*
X81356743Y-186578171D02*
X81356743Y-185078171D01*
X82213886Y-186578171D02*
X81571029Y-185721029D01*
X82213886Y-185078171D02*
X81356743Y-185935314D01*
X82856743Y-186578171D02*
X82856743Y-185578171D01*
X82856743Y-185078171D02*
X82785314Y-185149600D01*
X82856743Y-185221029D01*
X82928171Y-185149600D01*
X82856743Y-185078171D01*
X82856743Y-185221029D01*
X84428172Y-186435314D02*
X84356743Y-186506743D01*
X84142457Y-186578171D01*
X83999600Y-186578171D01*
X83785315Y-186506743D01*
X83642457Y-186363886D01*
X83571029Y-186221029D01*
X83499600Y-185935314D01*
X83499600Y-185721029D01*
X83571029Y-185435314D01*
X83642457Y-185292457D01*
X83785315Y-185149600D01*
X83999600Y-185078171D01*
X84142457Y-185078171D01*
X84356743Y-185149600D01*
X84428172Y-185221029D01*
X85713886Y-186578171D02*
X85713886Y-185792457D01*
X85642457Y-185649600D01*
X85499600Y-185578171D01*
X85213886Y-185578171D01*
X85071029Y-185649600D01*
X85713886Y-186506743D02*
X85571029Y-186578171D01*
X85213886Y-186578171D01*
X85071029Y-186506743D01*
X84999600Y-186363886D01*
X84999600Y-186221029D01*
X85071029Y-186078171D01*
X85213886Y-186006743D01*
X85571029Y-186006743D01*
X85713886Y-185935314D01*
X87071029Y-186578171D02*
X87071029Y-185078171D01*
X87071029Y-186506743D02*
X86928172Y-186578171D01*
X86642458Y-186578171D01*
X86499600Y-186506743D01*
X86428172Y-186435314D01*
X86356743Y-186292457D01*
X86356743Y-185863886D01*
X86428172Y-185721029D01*
X86499600Y-185649600D01*
X86642458Y-185578171D01*
X86928172Y-185578171D01*
X87071029Y-185649600D01*
X88928172Y-185792457D02*
X89428172Y-185792457D01*
X89642458Y-186578171D02*
X88928172Y-186578171D01*
X88928172Y-185078171D01*
X89642458Y-185078171D01*
X90285315Y-186435314D02*
X90356743Y-186506743D01*
X90285315Y-186578171D01*
X90213886Y-186506743D01*
X90285315Y-186435314D01*
X90285315Y-186578171D01*
X90999601Y-186578171D02*
X90999601Y-185078171D01*
X91356744Y-185078171D01*
X91571029Y-185149600D01*
X91713887Y-185292457D01*
X91785315Y-185435314D01*
X91856744Y-185721029D01*
X91856744Y-185935314D01*
X91785315Y-186221029D01*
X91713887Y-186363886D01*
X91571029Y-186506743D01*
X91356744Y-186578171D01*
X90999601Y-186578171D01*
X92499601Y-186435314D02*
X92571029Y-186506743D01*
X92499601Y-186578171D01*
X92428172Y-186506743D01*
X92499601Y-186435314D01*
X92499601Y-186578171D01*
X93142458Y-186149600D02*
X93856744Y-186149600D01*
X92999601Y-186578171D02*
X93499601Y-185078171D01*
X93999601Y-186578171D01*
X94499601Y-186435314D02*
X94571029Y-186506743D01*
X94499601Y-186578171D01*
X94428172Y-186506743D01*
X94499601Y-186435314D01*
X94499601Y-186578171D01*
X97499601Y-186578171D02*
X97499601Y-185078171D01*
X97642458Y-186006743D02*
X98071029Y-186578171D01*
X98071029Y-185578171D02*
X97499601Y-186149600D01*
X98713887Y-186578171D02*
X98713887Y-185578171D01*
X98713887Y-185078171D02*
X98642458Y-185149600D01*
X98713887Y-185221029D01*
X98785315Y-185149600D01*
X98713887Y-185078171D01*
X98713887Y-185221029D01*
X100071030Y-186506743D02*
X99928173Y-186578171D01*
X99642459Y-186578171D01*
X99499601Y-186506743D01*
X99428173Y-186435314D01*
X99356744Y-186292457D01*
X99356744Y-185863886D01*
X99428173Y-185721029D01*
X99499601Y-185649600D01*
X99642459Y-185578171D01*
X99928173Y-185578171D01*
X100071030Y-185649600D01*
X101356744Y-186578171D02*
X101356744Y-185792457D01*
X101285315Y-185649600D01*
X101142458Y-185578171D01*
X100856744Y-185578171D01*
X100713887Y-185649600D01*
X101356744Y-186506743D02*
X101213887Y-186578171D01*
X100856744Y-186578171D01*
X100713887Y-186506743D01*
X100642458Y-186363886D01*
X100642458Y-186221029D01*
X100713887Y-186078171D01*
X100856744Y-186006743D01*
X101213887Y-186006743D01*
X101356744Y-185935314D01*
X102713887Y-186578171D02*
X102713887Y-185078171D01*
X102713887Y-186506743D02*
X102571030Y-186578171D01*
X102285316Y-186578171D01*
X102142458Y-186506743D01*
X102071030Y-186435314D01*
X101999601Y-186292457D01*
X101999601Y-185863886D01*
X102071030Y-185721029D01*
X102142458Y-185649600D01*
X102285316Y-185578171D01*
X102571030Y-185578171D01*
X102713887Y-185649600D01*
X105213887Y-185578171D02*
X105213887Y-186578171D01*
X104856744Y-185006743D02*
X104499601Y-186078171D01*
X105428173Y-186078171D01*
X105999601Y-186435314D02*
X106071029Y-186506743D01*
X105999601Y-186578171D01*
X105928172Y-186506743D01*
X105999601Y-186435314D01*
X105999601Y-186578171D01*
X106999601Y-185078171D02*
X107142458Y-185078171D01*
X107285315Y-185149600D01*
X107356744Y-185221029D01*
X107428173Y-185363886D01*
X107499601Y-185649600D01*
X107499601Y-186006743D01*
X107428173Y-186292457D01*
X107356744Y-186435314D01*
X107285315Y-186506743D01*
X107142458Y-186578171D01*
X106999601Y-186578171D01*
X106856744Y-186506743D01*
X106785315Y-186435314D01*
X106713887Y-186292457D01*
X106642458Y-186006743D01*
X106642458Y-185649600D01*
X106713887Y-185363886D01*
X106785315Y-185221029D01*
X106856744Y-185149600D01*
X106999601Y-185078171D01*
X108142458Y-186435314D02*
X108213886Y-186506743D01*
X108142458Y-186578171D01*
X108071029Y-186506743D01*
X108142458Y-186435314D01*
X108142458Y-186578171D01*
X109571030Y-185078171D02*
X108856744Y-185078171D01*
X108785315Y-185792457D01*
X108856744Y-185721029D01*
X108999601Y-185649600D01*
X109356744Y-185649600D01*
X109499601Y-185721029D01*
X109571030Y-185792457D01*
X109642458Y-185935314D01*
X109642458Y-186292457D01*
X109571030Y-186435314D01*
X109499601Y-186506743D01*
X109356744Y-186578171D01*
X108999601Y-186578171D01*
X108856744Y-186506743D01*
X108785315Y-186435314D01*
D10*
D11*
X79999600Y-181499600D02*
X187999600Y-181499600D01*
D10*
D12*
X167213886Y-183778171D02*
X166713886Y-183063886D01*
X166356743Y-183778171D02*
X166356743Y-182278171D01*
X166928171Y-182278171D01*
X167071029Y-182349600D01*
X167142457Y-182421029D01*
X167213886Y-182563886D01*
X167213886Y-182778171D01*
X167142457Y-182921029D01*
X167071029Y-182992457D01*
X166928171Y-183063886D01*
X166356743Y-183063886D01*
X168428171Y-183706743D02*
X168285314Y-183778171D01*
X167999600Y-183778171D01*
X167856743Y-183706743D01*
X167785314Y-183563886D01*
X167785314Y-182992457D01*
X167856743Y-182849600D01*
X167999600Y-182778171D01*
X168285314Y-182778171D01*
X168428171Y-182849600D01*
X168499600Y-182992457D01*
X168499600Y-183135314D01*
X167785314Y-183278171D01*
X168999600Y-182778171D02*
X169356743Y-183778171D01*
X169713885Y-182778171D01*
X170285314Y-183635314D02*
X170356742Y-183706743D01*
X170285314Y-183778171D01*
X170213885Y-183706743D01*
X170285314Y-183635314D01*
X170285314Y-183778171D01*
X170285314Y-182849600D02*
X170356742Y-182921029D01*
X170285314Y-182992457D01*
X170213885Y-182921029D01*
X170285314Y-182849600D01*
X170285314Y-182992457D01*
D10*
D11*
X81285314Y-183706743D02*
X81499600Y-183778171D01*
X81856743Y-183778171D01*
X81999600Y-183706743D01*
X82071029Y-183635314D01*
X82142457Y-183492457D01*
X82142457Y-183349600D01*
X82071029Y-183206743D01*
X81999600Y-183135314D01*
X81856743Y-183063886D01*
X81571029Y-182992457D01*
X81428171Y-182921029D01*
X81356743Y-182849600D01*
X81285314Y-182706743D01*
X81285314Y-182563886D01*
X81356743Y-182421029D01*
X81428171Y-182349600D01*
X81571029Y-182278171D01*
X81928171Y-182278171D01*
X82142457Y-182349600D01*
X82785314Y-183778171D02*
X82785314Y-182778171D01*
X82785314Y-182278171D02*
X82713885Y-182349600D01*
X82785314Y-182421029D01*
X82856742Y-182349600D01*
X82785314Y-182278171D01*
X82785314Y-182421029D01*
X83356743Y-182778171D02*
X84142457Y-182778171D01*
X83356743Y-183778171D01*
X84142457Y-183778171D01*
X85285314Y-183706743D02*
X85142457Y-183778171D01*
X84856743Y-183778171D01*
X84713886Y-183706743D01*
X84642457Y-183563886D01*
X84642457Y-182992457D01*
X84713886Y-182849600D01*
X84856743Y-182778171D01*
X85142457Y-182778171D01*
X85285314Y-182849600D01*
X85356743Y-182992457D01*
X85356743Y-183135314D01*
X84642457Y-183278171D01*
X85999600Y-183635314D02*
X86071028Y-183706743D01*
X85999600Y-183778171D01*
X85928171Y-183706743D01*
X85999600Y-183635314D01*
X85999600Y-183778171D01*
X85999600Y-182849600D02*
X86071028Y-182921029D01*
X85999600Y-182992457D01*
X85928171Y-182921029D01*
X85999600Y-182849600D01*
X85999600Y-182992457D01*
X87856743Y-182278171D02*
X87856743Y-183492457D01*
X87928171Y-183635314D01*
X87999600Y-183706743D01*
X88142457Y-183778171D01*
X88428171Y-183778171D01*
X88571029Y-183706743D01*
X88642457Y-183635314D01*
X88713886Y-183492457D01*
X88713886Y-182278171D01*
X89356743Y-183706743D02*
X89499600Y-183778171D01*
X89785315Y-183778171D01*
X89928172Y-183706743D01*
X89999600Y-183563886D01*
X89999600Y-183492457D01*
X89928172Y-183349600D01*
X89785315Y-183278171D01*
X89571029Y-183278171D01*
X89428172Y-183206743D01*
X89356743Y-183063886D01*
X89356743Y-182992457D01*
X89428172Y-182849600D01*
X89571029Y-182778171D01*
X89785315Y-182778171D01*
X89928172Y-182849600D01*
X91213886Y-183706743D02*
X91071029Y-183778171D01*
X90785315Y-183778171D01*
X90642458Y-183706743D01*
X90571029Y-183563886D01*
X90571029Y-182992457D01*
X90642458Y-182849600D01*
X90785315Y-182778171D01*
X91071029Y-182778171D01*
X91213886Y-182849600D01*
X91285315Y-182992457D01*
X91285315Y-183135314D01*
X90571029Y-183278171D01*
X91928172Y-183778171D02*
X91928172Y-182778171D01*
X91928172Y-183063886D02*
X91999600Y-182921029D01*
X92071029Y-182849600D01*
X92213886Y-182778171D01*
X92356743Y-182778171D01*
D10*
D11*
X166356743Y-186578171D02*
X166356743Y-185078171D01*
X167713886Y-186578171D02*
X167713886Y-185078171D01*
X167713886Y-186506743D02*
X167571029Y-186578171D01*
X167285315Y-186578171D01*
X167142457Y-186506743D01*
X167071029Y-186435314D01*
X166999600Y-186292457D01*
X166999600Y-185863886D01*
X167071029Y-185721029D01*
X167142457Y-185649600D01*
X167285315Y-185578171D01*
X167571029Y-185578171D01*
X167713886Y-185649600D01*
X168428172Y-186435314D02*
X168499600Y-186506743D01*
X168428172Y-186578171D01*
X168356743Y-186506743D01*
X168428172Y-186435314D01*
X168428172Y-186578171D01*
X168428172Y-185649600D02*
X168499600Y-185721029D01*
X168428172Y-185792457D01*
X168356743Y-185721029D01*
X168428172Y-185649600D01*
X168428172Y-185792457D01*
X171071029Y-186578171D02*
X170213886Y-186578171D01*
X170642458Y-186578171D02*
X170642458Y-185078171D01*
X170499601Y-185292457D01*
X170356743Y-185435314D01*
X170213886Y-185506743D01*
X172785314Y-185006743D02*
X171499600Y-186935314D01*
X174071029Y-186578171D02*
X173213886Y-186578171D01*
X173642458Y-186578171D02*
X173642458Y-185078171D01*
X173499601Y-185292457D01*
X173356743Y-185435314D01*
X173213886Y-185506743D01*
D10*
D11*
X79999600Y-177499600D02*
X187999600Y-177499600D01*
D10*
D13*
X81451981Y-178204362D02*
X82594838Y-178204362D01*
X81773410Y-180204362D02*
X82023410Y-178204362D01*
X83011505Y-180204362D02*
X83178171Y-178871029D01*
X83261505Y-178204362D02*
X83154362Y-178299600D01*
X83237695Y-178394838D01*
X83344839Y-178299600D01*
X83261505Y-178204362D01*
X83237695Y-178394838D01*
X83844838Y-178871029D02*
X84606743Y-178871029D01*
X84213886Y-178204362D02*
X83999600Y-179918648D01*
X84071030Y-180109124D01*
X84249601Y-180204362D01*
X84440077Y-180204362D01*
X85392458Y-180204362D02*
X85213887Y-180109124D01*
X85142457Y-179918648D01*
X85356743Y-178204362D01*
X86928172Y-180109124D02*
X86725791Y-180204362D01*
X86344839Y-180204362D01*
X86166267Y-180109124D01*
X86094838Y-179918648D01*
X86190076Y-179156743D01*
X86309124Y-178966267D01*
X86511505Y-178871029D01*
X86892457Y-178871029D01*
X87071029Y-178966267D01*
X87142457Y-179156743D01*
X87118648Y-179347219D01*
X86142457Y-179537695D01*
X87892457Y-180013886D02*
X87975792Y-180109124D01*
X87868648Y-180204362D01*
X87785315Y-180109124D01*
X87892457Y-180013886D01*
X87868648Y-180204362D01*
X88023410Y-178966267D02*
X88106744Y-179061505D01*
X87999600Y-179156743D01*
X87916267Y-179061505D01*
X88023410Y-178966267D01*
X87999600Y-179156743D01*
D10*
D11*
X81856743Y-175592457D02*
X81356743Y-175592457D01*
X81356743Y-176378171D02*
X81356743Y-174878171D01*
X82071029Y-174878171D01*
X82642457Y-176378171D02*
X82642457Y-175378171D01*
X82642457Y-174878171D02*
X82571028Y-174949600D01*
X82642457Y-175021029D01*
X82713885Y-174949600D01*
X82642457Y-174878171D01*
X82642457Y-175021029D01*
X83571029Y-176378171D02*
X83428171Y-176306743D01*
X83356743Y-176163886D01*
X83356743Y-174878171D01*
X84713885Y-176306743D02*
X84571028Y-176378171D01*
X84285314Y-176378171D01*
X84142457Y-176306743D01*
X84071028Y-176163886D01*
X84071028Y-175592457D01*
X84142457Y-175449600D01*
X84285314Y-175378171D01*
X84571028Y-175378171D01*
X84713885Y-175449600D01*
X84785314Y-175592457D01*
X84785314Y-175735314D01*
X84071028Y-175878171D01*
X85428171Y-176235314D02*
X85499599Y-176306743D01*
X85428171Y-176378171D01*
X85356742Y-176306743D01*
X85428171Y-176235314D01*
X85428171Y-176378171D01*
X85428171Y-175449600D02*
X85499599Y-175521029D01*
X85428171Y-175592457D01*
X85356742Y-175521029D01*
X85428171Y-175449600D01*
X85428171Y-175592457D01*
X87285314Y-176378171D02*
X87285314Y-174878171D01*
X87285314Y-175592457D02*
X88142457Y-175592457D01*
X88142457Y-176378171D02*
X88142457Y-174878171D01*
X88856743Y-176378171D02*
X88856743Y-175378171D01*
X88856743Y-174878171D02*
X88785314Y-174949600D01*
X88856743Y-175021029D01*
X88928171Y-174949600D01*
X88856743Y-174878171D01*
X88856743Y-175021029D01*
X90213886Y-175378171D02*
X90213886Y-176592457D01*
X90142457Y-176735314D01*
X90071029Y-176806743D01*
X89928172Y-176878171D01*
X89713886Y-176878171D01*
X89571029Y-176806743D01*
X90213886Y-176306743D02*
X90071029Y-176378171D01*
X89785315Y-176378171D01*
X89642457Y-176306743D01*
X89571029Y-176235314D01*
X89499600Y-176092457D01*
X89499600Y-175663886D01*
X89571029Y-175521029D01*
X89642457Y-175449600D01*
X89785315Y-175378171D01*
X90071029Y-175378171D01*
X90213886Y-175449600D01*
X90928172Y-176378171D02*
X90928172Y-174878171D01*
X91571029Y-176378171D02*
X91571029Y-175592457D01*
X91499600Y-175449600D01*
X91356743Y-175378171D01*
X91142458Y-175378171D01*
X90999600Y-175449600D01*
X90928172Y-175521029D01*
X93428172Y-176378171D02*
X93428172Y-174878171D01*
X93999600Y-174878171D01*
X94142458Y-174949600D01*
X94213886Y-175021029D01*
X94285315Y-175163886D01*
X94285315Y-175378171D01*
X94213886Y-175521029D01*
X94142458Y-175592457D01*
X93999600Y-175663886D01*
X93428172Y-175663886D01*
X95142458Y-176378171D02*
X94999600Y-176306743D01*
X94928172Y-176235314D01*
X94856743Y-176092457D01*
X94856743Y-175663886D01*
X94928172Y-175521029D01*
X94999600Y-175449600D01*
X95142458Y-175378171D01*
X95356743Y-175378171D01*
X95499600Y-175449600D01*
X95571029Y-175521029D01*
X95642458Y-175663886D01*
X95642458Y-176092457D01*
X95571029Y-176235314D01*
X95499600Y-176306743D01*
X95356743Y-176378171D01*
X95142458Y-176378171D01*
X96142458Y-175378171D02*
X96428172Y-176378171D01*
X96713886Y-175663886D01*
X96999601Y-176378171D01*
X97285315Y-175378171D01*
X98428172Y-176306743D02*
X98285315Y-176378171D01*
X97999601Y-176378171D01*
X97856744Y-176306743D01*
X97785315Y-176163886D01*
X97785315Y-175592457D01*
X97856744Y-175449600D01*
X97999601Y-175378171D01*
X98285315Y-175378171D01*
X98428172Y-175449600D01*
X98499601Y-175592457D01*
X98499601Y-175735314D01*
X97785315Y-175878171D01*
X99142458Y-176378171D02*
X99142458Y-175378171D01*
X99142458Y-175663886D02*
X99213886Y-175521029D01*
X99285315Y-175449600D01*
X99428172Y-175378171D01*
X99571029Y-175378171D01*
X101142457Y-176306743D02*
X101356743Y-176378171D01*
X101713886Y-176378171D01*
X101856743Y-176306743D01*
X101928172Y-176235314D01*
X101999600Y-176092457D01*
X101999600Y-175949600D01*
X101928172Y-175806743D01*
X101856743Y-175735314D01*
X101713886Y-175663886D01*
X101428172Y-175592457D01*
X101285314Y-175521029D01*
X101213886Y-175449600D01*
X101142457Y-175306743D01*
X101142457Y-175163886D01*
X101213886Y-175021029D01*
X101285314Y-174949600D01*
X101428172Y-174878171D01*
X101785314Y-174878171D01*
X101999600Y-174949600D01*
X102499600Y-174878171D02*
X102856743Y-176378171D01*
X103142457Y-175306743D01*
X103428171Y-176378171D01*
X103785314Y-174878171D01*
X104356743Y-176235314D02*
X104428171Y-176306743D01*
X104356743Y-176378171D01*
X104285314Y-176306743D01*
X104356743Y-176235314D01*
X104356743Y-176378171D01*
X105071029Y-176378171D02*
X105071029Y-174878171D01*
X105213886Y-175806743D02*
X105642457Y-176378171D01*
X105642457Y-175378171D02*
X105071029Y-175949600D01*
X106285315Y-176378171D02*
X106285315Y-175378171D01*
X106285315Y-174878171D02*
X106213886Y-174949600D01*
X106285315Y-175021029D01*
X106356743Y-174949600D01*
X106285315Y-174878171D01*
X106285315Y-175021029D01*
X107642458Y-176306743D02*
X107499601Y-176378171D01*
X107213887Y-176378171D01*
X107071029Y-176306743D01*
X106999601Y-176235314D01*
X106928172Y-176092457D01*
X106928172Y-175663886D01*
X106999601Y-175521029D01*
X107071029Y-175449600D01*
X107213887Y-175378171D01*
X107499601Y-175378171D01*
X107642458Y-175449600D01*
X108928172Y-176378171D02*
X108928172Y-175592457D01*
X108856743Y-175449600D01*
X108713886Y-175378171D01*
X108428172Y-175378171D01*
X108285315Y-175449600D01*
X108928172Y-176306743D02*
X108785315Y-176378171D01*
X108428172Y-176378171D01*
X108285315Y-176306743D01*
X108213886Y-176163886D01*
X108213886Y-176021029D01*
X108285315Y-175878171D01*
X108428172Y-175806743D01*
X108785315Y-175806743D01*
X108928172Y-175735314D01*
X110285315Y-176378171D02*
X110285315Y-174878171D01*
X110285315Y-176306743D02*
X110142458Y-176378171D01*
X109856744Y-176378171D01*
X109713886Y-176306743D01*
X109642458Y-176235314D01*
X109571029Y-176092457D01*
X109571029Y-175663886D01*
X109642458Y-175521029D01*
X109713886Y-175449600D01*
X109856744Y-175378171D01*
X110142458Y-175378171D01*
X110285315Y-175449600D01*
X110642458Y-176521029D02*
X111785315Y-176521029D01*
X112142458Y-175378171D02*
X112142458Y-176878171D01*
X112142458Y-175449600D02*
X112285315Y-175378171D01*
X112571029Y-175378171D01*
X112713886Y-175449600D01*
X112785315Y-175521029D01*
X112856744Y-175663886D01*
X112856744Y-176092457D01*
X112785315Y-176235314D01*
X112713886Y-176306743D01*
X112571029Y-176378171D01*
X112285315Y-176378171D01*
X112142458Y-176306743D01*
X114142458Y-176306743D02*
X113999601Y-176378171D01*
X113713887Y-176378171D01*
X113571029Y-176306743D01*
X113499601Y-176235314D01*
X113428172Y-176092457D01*
X113428172Y-175663886D01*
X113499601Y-175521029D01*
X113571029Y-175449600D01*
X113713887Y-175378171D01*
X113999601Y-175378171D01*
X114142458Y-175449600D01*
X114785315Y-176378171D02*
X114785315Y-174878171D01*
X114785315Y-175449600D02*
X114928172Y-175378171D01*
X115213886Y-175378171D01*
X115356743Y-175449600D01*
X115428172Y-175521029D01*
X115499601Y-175663886D01*
X115499601Y-176092457D01*
X115428172Y-176235314D01*
X115356743Y-176306743D01*
X115213886Y-176378171D01*
X114928172Y-176378171D01*
X114785315Y-176306743D01*
D10*
D11*
X79999600Y-171499600D02*
X187999600Y-171499600D01*
D10*
D11*
X81285314Y-173606743D02*
X81499600Y-173678171D01*
X81856743Y-173678171D01*
X81999600Y-173606743D01*
X82071029Y-173535314D01*
X82142457Y-173392457D01*
X82142457Y-173249600D01*
X82071029Y-173106743D01*
X81999600Y-173035314D01*
X81856743Y-172963886D01*
X81571029Y-172892457D01*
X81428171Y-172821029D01*
X81356743Y-172749600D01*
X81285314Y-172606743D01*
X81285314Y-172463886D01*
X81356743Y-172321029D01*
X81428171Y-172249600D01*
X81571029Y-172178171D01*
X81928171Y-172178171D01*
X82142457Y-172249600D01*
X82785314Y-173678171D02*
X82785314Y-172178171D01*
X83428171Y-173678171D02*
X83428171Y-172892457D01*
X83356742Y-172749600D01*
X83213885Y-172678171D01*
X82999600Y-172678171D01*
X82856742Y-172749600D01*
X82785314Y-172821029D01*
X84713885Y-173606743D02*
X84571028Y-173678171D01*
X84285314Y-173678171D01*
X84142457Y-173606743D01*
X84071028Y-173463886D01*
X84071028Y-172892457D01*
X84142457Y-172749600D01*
X84285314Y-172678171D01*
X84571028Y-172678171D01*
X84713885Y-172749600D01*
X84785314Y-172892457D01*
X84785314Y-173035314D01*
X84071028Y-173178171D01*
X85999599Y-173606743D02*
X85856742Y-173678171D01*
X85571028Y-173678171D01*
X85428171Y-173606743D01*
X85356742Y-173463886D01*
X85356742Y-172892457D01*
X85428171Y-172749600D01*
X85571028Y-172678171D01*
X85856742Y-172678171D01*
X85999599Y-172749600D01*
X86071028Y-172892457D01*
X86071028Y-173035314D01*
X85356742Y-173178171D01*
X86499599Y-172678171D02*
X87071028Y-172678171D01*
X86713885Y-172178171D02*
X86713885Y-173463886D01*
X86785313Y-173606743D01*
X86928171Y-173678171D01*
X87071028Y-173678171D01*
X87571028Y-173535314D02*
X87642456Y-173606743D01*
X87571028Y-173678171D01*
X87499599Y-173606743D01*
X87571028Y-173535314D01*
X87571028Y-173678171D01*
X87571028Y-172749600D02*
X87642456Y-172821029D01*
X87571028Y-172892457D01*
X87499599Y-172821029D01*
X87571028Y-172749600D01*
X87571028Y-172892457D01*
D10*
D11*
X99999600Y-181499600D02*
X99999600Y-184499600D01*
D10*
D11*
X163999600Y-181499600D02*
X163999600Y-187999600D01*
D12*
X78278571Y-104378571D02*
X78635714Y-105878571D01*
X78921428Y-104807143D01*
X79207142Y-105878571D01*
X79564285Y-104378571D01*
X79992857Y-104378571D02*
X80350000Y-105878571D01*
X80635714Y-104807143D01*
X80921428Y-105878571D01*
X81278571Y-104378571D01*
X81707143Y-104378571D02*
X82064286Y-105878571D01*
X82350000Y-104807143D01*
X82635714Y-105878571D01*
X82992857Y-104378571D01*
X83564286Y-105735714D02*
X83635714Y-105807143D01*
X83564286Y-105878571D01*
X83492857Y-105807143D01*
X83564286Y-105735714D01*
X83564286Y-105878571D01*
X84278572Y-105878571D02*
X84278572Y-104378571D01*
X84635715Y-104378571D01*
X84850000Y-104450000D01*
X84992858Y-104592857D01*
X85064286Y-104735714D01*
X85135715Y-105021429D01*
X85135715Y-105235714D01*
X85064286Y-105521429D01*
X84992858Y-105664286D01*
X84850000Y-105807143D01*
X84635715Y-105878571D01*
X84278572Y-105878571D01*
X85778572Y-105878571D02*
X85778572Y-104878571D01*
X85778572Y-104378571D02*
X85707143Y-104450000D01*
X85778572Y-104521429D01*
X85850000Y-104450000D01*
X85778572Y-104378571D01*
X85778572Y-104521429D01*
X87135715Y-104878571D02*
X87135715Y-106092857D01*
X87064286Y-106235714D01*
X86992858Y-106307143D01*
X86850001Y-106378571D01*
X86635715Y-106378571D01*
X86492858Y-106307143D01*
X87135715Y-105807143D02*
X86992858Y-105878571D01*
X86707144Y-105878571D01*
X86564286Y-105807143D01*
X86492858Y-105735714D01*
X86421429Y-105592857D01*
X86421429Y-105164286D01*
X86492858Y-105021429D01*
X86564286Y-104950000D01*
X86707144Y-104878571D01*
X86992858Y-104878571D01*
X87135715Y-104950000D01*
X87850001Y-105878571D02*
X87850001Y-104878571D01*
X87850001Y-104378571D02*
X87778572Y-104450000D01*
X87850001Y-104521429D01*
X87921429Y-104450000D01*
X87850001Y-104378571D01*
X87850001Y-104521429D01*
X88350001Y-104878571D02*
X88921430Y-104878571D01*
X88564287Y-104378571D02*
X88564287Y-105664286D01*
X88635715Y-105807143D01*
X88778573Y-105878571D01*
X88921430Y-105878571D01*
X90064287Y-105878571D02*
X90064287Y-105092857D01*
X89992858Y-104950000D01*
X89850001Y-104878571D01*
X89564287Y-104878571D01*
X89421430Y-104950000D01*
X90064287Y-105807143D02*
X89921430Y-105878571D01*
X89564287Y-105878571D01*
X89421430Y-105807143D01*
X89350001Y-105664286D01*
X89350001Y-105521429D01*
X89421430Y-105378571D01*
X89564287Y-105307143D01*
X89921430Y-105307143D01*
X90064287Y-105235714D01*
X90992859Y-105878571D02*
X90850001Y-105807143D01*
X90778573Y-105664286D01*
X90778573Y-104378571D01*
X91564287Y-105307143D02*
X92707144Y-105307143D01*
X93350001Y-105807143D02*
X93564287Y-105878571D01*
X93921430Y-105878571D01*
X94064287Y-105807143D01*
X94135716Y-105735714D01*
X94207144Y-105592857D01*
X94207144Y-105450000D01*
X94135716Y-105307143D01*
X94064287Y-105235714D01*
X93921430Y-105164286D01*
X93635716Y-105092857D01*
X93492858Y-105021429D01*
X93421430Y-104950000D01*
X93350001Y-104807143D01*
X93350001Y-104664286D01*
X93421430Y-104521429D01*
X93492858Y-104450000D01*
X93635716Y-104378571D01*
X93992858Y-104378571D01*
X94207144Y-104450000D01*
X95492858Y-104878571D02*
X95492858Y-106378571D01*
X95492858Y-105807143D02*
X95350001Y-105878571D01*
X95064287Y-105878571D01*
X94921429Y-105807143D01*
X94850001Y-105735714D01*
X94778572Y-105592857D01*
X94778572Y-105164286D01*
X94850001Y-105021429D01*
X94921429Y-104950000D01*
X95064287Y-104878571D01*
X95350001Y-104878571D01*
X95492858Y-104950000D01*
X96207144Y-105878571D02*
X96207144Y-104878571D01*
X96207144Y-105164286D02*
X96278572Y-105021429D01*
X96350001Y-104950000D01*
X96492858Y-104878571D01*
X96635715Y-104878571D01*
X96921429Y-104878571D02*
X97492858Y-104878571D01*
X97135715Y-104378571D02*
X97135715Y-105664286D01*
X97207143Y-105807143D01*
X97350001Y-105878571D01*
X97492858Y-105878571D01*
X97992858Y-105735714D02*
X98064286Y-105807143D01*
X97992858Y-105878571D01*
X97921429Y-105807143D01*
X97992858Y-105735714D01*
X97992858Y-105878571D01*
X99564287Y-105735714D02*
X99492858Y-105807143D01*
X99278572Y-105878571D01*
X99135715Y-105878571D01*
X98921430Y-105807143D01*
X98778572Y-105664286D01*
X98707144Y-105521429D01*
X98635715Y-105235714D01*
X98635715Y-105021429D01*
X98707144Y-104735714D01*
X98778572Y-104592857D01*
X98921430Y-104450000D01*
X99135715Y-104378571D01*
X99278572Y-104378571D01*
X99492858Y-104450000D01*
X99564287Y-104521429D01*
X100492858Y-104378571D02*
X100778572Y-104378571D01*
X100921430Y-104450000D01*
X101064287Y-104592857D01*
X101135715Y-104878571D01*
X101135715Y-105378571D01*
X101064287Y-105664286D01*
X100921430Y-105807143D01*
X100778572Y-105878571D01*
X100492858Y-105878571D01*
X100350001Y-105807143D01*
X100207144Y-105664286D01*
X100135715Y-105378571D01*
X100135715Y-104878571D01*
X100207144Y-104592857D01*
X100350001Y-104450000D01*
X100492858Y-104378571D01*
X101778573Y-105878571D02*
X101778573Y-104378571D01*
X102278573Y-105450000D01*
X102778573Y-104378571D01*
X102778573Y-105878571D01*
D11*
X67100000Y-102900000D02*
X67100000Y-134900000D01*
X115100000Y-102900000D02*
X67100000Y-102900000D01*
X115100000Y-134900000D02*
X115100000Y-102900000D01*
X68766666Y-134900000D02*
G75*
G03X68766666Y-134900000I-1666666J0D01*
G01*
X64600000Y-134900000D02*
X69600000Y-134900000D01*
X67100000Y-132400000D02*
X67100000Y-137400000D01*
X69266667Y-114352381D02*
X69266667Y-115066667D01*
X69219047Y-115209524D01*
X69123809Y-115304762D01*
X68980952Y-115352381D01*
X68885714Y-115352381D01*
X69742857Y-115352381D02*
X69742857Y-114352381D01*
X70123810Y-114352381D01*
X70219048Y-114400000D01*
X70266667Y-114447619D01*
X70314286Y-114542857D01*
X70314286Y-114685714D01*
X70266667Y-114780952D01*
X70219048Y-114828571D01*
X70123810Y-114876190D01*
X69742857Y-114876190D01*
X71266667Y-115352381D02*
X70695238Y-115352381D01*
X70980952Y-115352381D02*
X70980952Y-114352381D01*
X70885714Y-114495238D01*
X70790476Y-114590476D01*
X70695238Y-114638095D01*
X69290477Y-111828571D02*
X68957143Y-111828571D01*
X68957143Y-112352381D02*
X68957143Y-111352381D01*
X69433334Y-111352381D01*
X69766667Y-112066667D02*
X70242858Y-112066667D01*
X69671429Y-112352381D02*
X70004762Y-111352381D01*
X70338096Y-112352381D01*
X70671429Y-112352381D02*
X70671429Y-111352381D01*
X71242858Y-112352381D01*
X71242858Y-111352381D01*
X115100000Y-134900000D02*
X67100000Y-134900000D01*
X68766666Y-134900000D02*
G75*
G03X68766666Y-134900000I-1666666J0D01*
G01*
X64600000Y-134900000D02*
X69600000Y-134900000D01*
X67100000Y-132400000D02*
X67100000Y-137400000D01*
D12*
X78528572Y-107007143D02*
X79671429Y-107007143D01*
X72528572Y-107007143D02*
X73671429Y-107007143D01*
X73100000Y-107578571D02*
X73100000Y-106435714D01*
D11*
X81100000Y-118975000D02*
X79100000Y-118975000D01*
X79100000Y-116825000D02*
X81100000Y-116825000D01*
X99600000Y-108975000D02*
X97600000Y-108975000D01*
X97600000Y-106825000D02*
X99600000Y-106825000D01*
X106350000Y-110975000D02*
X104350000Y-110975000D01*
X104350000Y-108825000D02*
X106350000Y-108825000D01*
X72100000Y-116825000D02*
X74100000Y-116825000D01*
X74100000Y-118975000D02*
X72100000Y-118975000D01*
X83900000Y-111700000D02*
X86300000Y-111700000D01*
X86300000Y-111700000D02*
X86300000Y-116100000D01*
X86300000Y-116100000D02*
X83900000Y-116100000D01*
X83900000Y-116100000D02*
X83900000Y-111700000D01*
D12*
X86000000Y-112250000D02*
G75*
G03X86000000Y-112250000I-250000J0D01*
G01*
D11*
X72290000Y-108090000D02*
X72290000Y-115710000D01*
X72290000Y-115710000D02*
X79910000Y-115710000D01*
X79910000Y-115710000D02*
X79910000Y-108090000D01*
X79910000Y-108090000D02*
X72290000Y-108090000D01*
X81025000Y-113900000D02*
X81025000Y-111900000D01*
X83175000Y-111900000D02*
X83175000Y-113900000D01*
X90600000Y-117900000D02*
X90600000Y-115900000D01*
X89100000Y-118354000D02*
X91100000Y-118354000D01*
X89100000Y-115446000D02*
X91200000Y-115446000D01*
D14*
X102910000Y-116500000D02*
X101760000Y-116500000D01*
X102910000Y-111300000D02*
X101710000Y-111300000D01*
X102900000Y-111500000D02*
X102900000Y-111300000D01*
X102900000Y-116500000D02*
X102900000Y-116300000D01*
D15*
G36*
X105717729Y-112563276D02*
X105717729Y-112647943D01*
X105717729Y-114399484D01*
X105717729Y-114484151D01*
X105802396Y-114484151D01*
X109797604Y-114484151D01*
X109882271Y-114484151D01*
X109882271Y-114399484D01*
X109882271Y-112563276D01*
X109716572Y-112563276D01*
X109712938Y-114314818D01*
X105887062Y-114314818D01*
X105887062Y-112732609D01*
X109142319Y-112732609D01*
X109142319Y-112563276D01*
X105802396Y-112563276D01*
X105717729Y-112563276D01*
X105717729Y-112563276D01*
G37*
X105717729Y-112563276D02*
X105717729Y-112647943D01*
X105717729Y-114399484D01*
X105717729Y-114484151D01*
X105802396Y-114484151D01*
X109797604Y-114484151D01*
X109882271Y-114484151D01*
X109882271Y-114399484D01*
X109882271Y-112563276D01*
X109716572Y-112563276D01*
X109712938Y-114314818D01*
X105887062Y-114314818D01*
X105887062Y-112732609D01*
X109142319Y-112732609D01*
X109142319Y-112563276D01*
X105802396Y-112563276D01*
X105717729Y-112563276D01*
G36*
X106694816Y-113544397D02*
X106834383Y-113544397D01*
X106833101Y-113606843D01*
X106829256Y-113665196D01*
X106822848Y-113719457D01*
X106813877Y-113769624D01*
X106802343Y-113815699D01*
X106788246Y-113857681D01*
X106771586Y-113895570D01*
X106752362Y-113929366D01*
X106722854Y-113968172D01*
X106688568Y-113999922D01*
X106649505Y-114024616D01*
X106605665Y-114042255D01*
X106557048Y-114052839D01*
X106503654Y-114056366D01*
X106450259Y-114052857D01*
X106401642Y-114042329D01*
X106357802Y-114024782D01*
X106318739Y-114000216D01*
X106284454Y-113968631D01*
X106254946Y-113930028D01*
X106235877Y-113896366D01*
X106219351Y-113858549D01*
X106205367Y-113816577D01*
X106193926Y-113770451D01*
X106185027Y-113720170D01*
X106178671Y-113665734D01*
X106174858Y-113607143D01*
X106173586Y-113544397D01*
X106174858Y-113481797D01*
X106178671Y-113423310D01*
X106185027Y-113368936D01*
X106193926Y-113318675D01*
X106205367Y-113272528D01*
X106219351Y-113230495D01*
X106235877Y-113192574D01*
X106254946Y-113158767D01*
X106284638Y-113119962D01*
X106319033Y-113088212D01*
X106358133Y-113063518D01*
X106401936Y-113045879D01*
X106450443Y-113035296D01*
X106503654Y-113031767D01*
X106557048Y-113035296D01*
X106605665Y-113045879D01*
X106649505Y-113063518D01*
X106688568Y-113088212D01*
X106722854Y-113119962D01*
X106752362Y-113158767D01*
X106771586Y-113192574D01*
X106788246Y-113230495D01*
X106802343Y-113272528D01*
X106813877Y-113318675D01*
X106822848Y-113368936D01*
X106829256Y-113423310D01*
X106833101Y-113481797D01*
X106834383Y-113544397D01*
X106694816Y-113544397D01*
X106693566Y-113475312D01*
X106689817Y-113413135D01*
X106683570Y-113357867D01*
X106674824Y-113309507D01*
X106663580Y-113268055D01*
X106649836Y-113233512D01*
X106624080Y-113192709D01*
X106591131Y-113163564D01*
X106550989Y-113146076D01*
X106503654Y-113140246D01*
X106456566Y-113146076D01*
X106416507Y-113163564D01*
X106383475Y-113192709D01*
X106357472Y-113233512D01*
X106343930Y-113268055D01*
X106332851Y-113309507D01*
X106324233Y-113357867D01*
X106318078Y-113413135D01*
X106314385Y-113475312D01*
X106313154Y-113544397D01*
X106314385Y-113613281D01*
X106318078Y-113675293D01*
X106324233Y-113730433D01*
X106332851Y-113778701D01*
X106343930Y-113820097D01*
X106357472Y-113854621D01*
X106383475Y-113895425D01*
X106416507Y-113924571D01*
X106456566Y-113942058D01*
X106503654Y-113947887D01*
X106550989Y-113942099D01*
X106591131Y-113924736D01*
X106624080Y-113895797D01*
X106649836Y-113855283D01*
X106663580Y-113820740D01*
X106674824Y-113779289D01*
X106683570Y-113730929D01*
X106689817Y-113675660D01*
X106693566Y-113613483D01*
X106694816Y-113544397D01*
X106694816Y-113544397D01*
G37*
X106694816Y-113544397D02*
X106834383Y-113544397D01*
X106833101Y-113606843D01*
X106829256Y-113665196D01*
X106822848Y-113719457D01*
X106813877Y-113769624D01*
X106802343Y-113815699D01*
X106788246Y-113857681D01*
X106771586Y-113895570D01*
X106752362Y-113929366D01*
X106722854Y-113968172D01*
X106688568Y-113999922D01*
X106649505Y-114024616D01*
X106605665Y-114042255D01*
X106557048Y-114052839D01*
X106503654Y-114056366D01*
X106450259Y-114052857D01*
X106401642Y-114042329D01*
X106357802Y-114024782D01*
X106318739Y-114000216D01*
X106284454Y-113968631D01*
X106254946Y-113930028D01*
X106235877Y-113896366D01*
X106219351Y-113858549D01*
X106205367Y-113816577D01*
X106193926Y-113770451D01*
X106185027Y-113720170D01*
X106178671Y-113665734D01*
X106174858Y-113607143D01*
X106173586Y-113544397D01*
X106174858Y-113481797D01*
X106178671Y-113423310D01*
X106185027Y-113368936D01*
X106193926Y-113318675D01*
X106205367Y-113272528D01*
X106219351Y-113230495D01*
X106235877Y-113192574D01*
X106254946Y-113158767D01*
X106284638Y-113119962D01*
X106319033Y-113088212D01*
X106358133Y-113063518D01*
X106401936Y-113045879D01*
X106450443Y-113035296D01*
X106503654Y-113031767D01*
X106557048Y-113035296D01*
X106605665Y-113045879D01*
X106649505Y-113063518D01*
X106688568Y-113088212D01*
X106722854Y-113119962D01*
X106752362Y-113158767D01*
X106771586Y-113192574D01*
X106788246Y-113230495D01*
X106802343Y-113272528D01*
X106813877Y-113318675D01*
X106822848Y-113368936D01*
X106829256Y-113423310D01*
X106833101Y-113481797D01*
X106834383Y-113544397D01*
X106694816Y-113544397D01*
X106693566Y-113475312D01*
X106689817Y-113413135D01*
X106683570Y-113357867D01*
X106674824Y-113309507D01*
X106663580Y-113268055D01*
X106649836Y-113233512D01*
X106624080Y-113192709D01*
X106591131Y-113163564D01*
X106550989Y-113146076D01*
X106503654Y-113140246D01*
X106456566Y-113146076D01*
X106416507Y-113163564D01*
X106383475Y-113192709D01*
X106357472Y-113233512D01*
X106343930Y-113268055D01*
X106332851Y-113309507D01*
X106324233Y-113357867D01*
X106318078Y-113413135D01*
X106314385Y-113475312D01*
X106313154Y-113544397D01*
X106314385Y-113613281D01*
X106318078Y-113675293D01*
X106324233Y-113730433D01*
X106332851Y-113778701D01*
X106343930Y-113820097D01*
X106357472Y-113854621D01*
X106383475Y-113895425D01*
X106416507Y-113924571D01*
X106456566Y-113942058D01*
X106503654Y-113947887D01*
X106550989Y-113942099D01*
X106591131Y-113924736D01*
X106624080Y-113895797D01*
X106649836Y-113855283D01*
X106663580Y-113820740D01*
X106674824Y-113779289D01*
X106683570Y-113730929D01*
X106689817Y-113675660D01*
X106693566Y-113613483D01*
X106694816Y-113544397D01*
G36*
X107580508Y-113083361D02*
X107580508Y-113218960D01*
X107539865Y-113195075D01*
X107499075Y-113175451D01*
X107458138Y-113160090D01*
X107417422Y-113149067D01*
X107376411Y-113142452D01*
X107335107Y-113140246D01*
X107276458Y-113145171D01*
X107226628Y-113159944D01*
X107185617Y-113184564D01*
X107155117Y-113217123D01*
X107136816Y-113256590D01*
X107130716Y-113302965D01*
X107139646Y-113360678D01*
X107166435Y-113402846D01*
X107197597Y-113424527D01*
X107242576Y-113443709D01*
X107301373Y-113460392D01*
X107371487Y-113476267D01*
X107424033Y-113490714D01*
X107470547Y-113508123D01*
X107511028Y-113528496D01*
X107545477Y-113551832D01*
X107573894Y-113578132D01*
X107601674Y-113616001D01*
X107621518Y-113660153D01*
X107633424Y-113710589D01*
X107637394Y-113767309D01*
X107633901Y-113820993D01*
X107623423Y-113869332D01*
X107605961Y-113912327D01*
X107581513Y-113949977D01*
X107550081Y-113982283D01*
X107511981Y-114008953D01*
X107467531Y-114029696D01*
X107416731Y-114044513D01*
X107359581Y-114053403D01*
X107296081Y-114056366D01*
X107249705Y-114054676D01*
X107203183Y-114049605D01*
X107156513Y-114041153D01*
X107109697Y-114029761D01*
X107062733Y-114014988D01*
X107015623Y-113996835D01*
X107015623Y-113854621D01*
X107065379Y-113883946D01*
X107113224Y-113907538D01*
X107159159Y-113925397D01*
X107204653Y-113937892D01*
X107250293Y-113945388D01*
X107296081Y-113947887D01*
X107343871Y-113945076D01*
X107386039Y-113936642D01*
X107422585Y-113922586D01*
X107453508Y-113902908D01*
X107484743Y-113868512D01*
X107503485Y-113826179D01*
X107509732Y-113775908D01*
X107505396Y-113730415D01*
X107492387Y-113692711D01*
X107470706Y-113662798D01*
X107438735Y-113638766D01*
X107393977Y-113618702D01*
X107336430Y-113602606D01*
X107264992Y-113586069D01*
X107212975Y-113572364D01*
X107166991Y-113556119D01*
X107127039Y-113537333D01*
X107093119Y-113516008D01*
X107065232Y-113492142D01*
X107038030Y-113458036D01*
X107018599Y-113418556D01*
X107006941Y-113373700D01*
X107003055Y-113323471D01*
X107006600Y-113272671D01*
X107017237Y-113226104D01*
X107034964Y-113183771D01*
X107059782Y-113145671D01*
X107091691Y-113111804D01*
X107129737Y-113082991D01*
X107172441Y-113060581D01*
X107219801Y-113044574D01*
X107271819Y-113034969D01*
X107328492Y-113031767D01*
X107367077Y-113033238D01*
X107406985Y-113037648D01*
X107448216Y-113044996D01*
X107490843Y-113054845D01*
X107534941Y-113067634D01*
X107580508Y-113083361D01*
X107580508Y-113083361D01*
G37*
X107580508Y-113083361D02*
X107580508Y-113218960D01*
X107539865Y-113195075D01*
X107499075Y-113175451D01*
X107458138Y-113160090D01*
X107417422Y-113149067D01*
X107376411Y-113142452D01*
X107335107Y-113140246D01*
X107276458Y-113145171D01*
X107226628Y-113159944D01*
X107185617Y-113184564D01*
X107155117Y-113217123D01*
X107136816Y-113256590D01*
X107130716Y-113302965D01*
X107139646Y-113360678D01*
X107166435Y-113402846D01*
X107197597Y-113424527D01*
X107242576Y-113443709D01*
X107301373Y-113460392D01*
X107371487Y-113476267D01*
X107424033Y-113490714D01*
X107470547Y-113508123D01*
X107511028Y-113528496D01*
X107545477Y-113551832D01*
X107573894Y-113578132D01*
X107601674Y-113616001D01*
X107621518Y-113660153D01*
X107633424Y-113710589D01*
X107637394Y-113767309D01*
X107633901Y-113820993D01*
X107623423Y-113869332D01*
X107605961Y-113912327D01*
X107581513Y-113949977D01*
X107550081Y-113982283D01*
X107511981Y-114008953D01*
X107467531Y-114029696D01*
X107416731Y-114044513D01*
X107359581Y-114053403D01*
X107296081Y-114056366D01*
X107249705Y-114054676D01*
X107203183Y-114049605D01*
X107156513Y-114041153D01*
X107109697Y-114029761D01*
X107062733Y-114014988D01*
X107015623Y-113996835D01*
X107015623Y-113854621D01*
X107065379Y-113883946D01*
X107113224Y-113907538D01*
X107159159Y-113925397D01*
X107204653Y-113937892D01*
X107250293Y-113945388D01*
X107296081Y-113947887D01*
X107343871Y-113945076D01*
X107386039Y-113936642D01*
X107422585Y-113922586D01*
X107453508Y-113902908D01*
X107484743Y-113868512D01*
X107503485Y-113826179D01*
X107509732Y-113775908D01*
X107505396Y-113730415D01*
X107492387Y-113692711D01*
X107470706Y-113662798D01*
X107438735Y-113638766D01*
X107393977Y-113618702D01*
X107336430Y-113602606D01*
X107264992Y-113586069D01*
X107212975Y-113572364D01*
X107166991Y-113556119D01*
X107127039Y-113537333D01*
X107093119Y-113516008D01*
X107065232Y-113492142D01*
X107038030Y-113458036D01*
X107018599Y-113418556D01*
X107006941Y-113373700D01*
X107003055Y-113323471D01*
X107006600Y-113272671D01*
X107017237Y-113226104D01*
X107034964Y-113183771D01*
X107059782Y-113145671D01*
X107091691Y-113111804D01*
X107129737Y-113082991D01*
X107172441Y-113060581D01*
X107219801Y-113044574D01*
X107271819Y-113034969D01*
X107328492Y-113031767D01*
X107367077Y-113033238D01*
X107406985Y-113037648D01*
X107448216Y-113044996D01*
X107490843Y-113054845D01*
X107534941Y-113067634D01*
X107580508Y-113083361D01*
G36*
X107816649Y-113049627D02*
X107950925Y-113049627D01*
X107950925Y-113454439D01*
X108316711Y-113454439D01*
X108316711Y-113049627D01*
X108450987Y-113049627D01*
X108450987Y-114037184D01*
X108316711Y-114037184D01*
X108316711Y-113566887D01*
X107950925Y-113566887D01*
X107950925Y-114037184D01*
X107816649Y-114037184D01*
X107816649Y-113049627D01*
X107816649Y-113049627D01*
G37*
X107816649Y-113049627D02*
X107950925Y-113049627D01*
X107950925Y-113454439D01*
X108316711Y-113454439D01*
X108316711Y-113049627D01*
X108450987Y-113049627D01*
X108450987Y-114037184D01*
X108316711Y-114037184D01*
X108316711Y-113566887D01*
X107950925Y-113566887D01*
X107950925Y-114037184D01*
X107816649Y-114037184D01*
X107816649Y-113049627D01*
G36*
X108540946Y-113049627D02*
X108671253Y-113049627D01*
X108765841Y-113851314D01*
X108878289Y-113320825D01*
X109017857Y-113320825D01*
X109131628Y-113852637D01*
X109451994Y-112315849D01*
X109582302Y-112315849D01*
X109209018Y-114037184D01*
X109082680Y-114037184D01*
X108948404Y-113450471D01*
X108814789Y-114037184D01*
X108688451Y-114037184D01*
X108540946Y-113049627D01*
X108540946Y-113049627D01*
G37*
X108540946Y-113049627D02*
X108671253Y-113049627D01*
X108765841Y-113851314D01*
X108878289Y-113320825D01*
X109017857Y-113320825D01*
X109131628Y-113852637D01*
X109451994Y-112315849D01*
X109582302Y-112315849D01*
X109209018Y-114037184D01*
X109082680Y-114037184D01*
X108948404Y-113450471D01*
X108814789Y-114037184D01*
X108688451Y-114037184D01*
X108540946Y-113049627D01*
D11*
X79300000Y-119300000D02*
X79300000Y-132500000D01*
X79300000Y-132500000D02*
X69100000Y-132500000D01*
X69100000Y-132500000D02*
X69100000Y-119300000D01*
X69100000Y-119300000D02*
X79300000Y-119300000D01*
X101800000Y-119300000D02*
X101800000Y-132500000D01*
X101800000Y-132500000D02*
X91600000Y-132500000D01*
X91600000Y-132500000D02*
X91600000Y-119300000D01*
X91600000Y-119300000D02*
X101800000Y-119300000D01*
X90550000Y-119300000D02*
X90550000Y-132500000D01*
X90550000Y-132500000D02*
X80350000Y-132500000D01*
X80350000Y-132500000D02*
X80350000Y-119300000D01*
X80350000Y-119300000D02*
X90550000Y-119300000D01*
X113050000Y-119300000D02*
X113050000Y-132500000D01*
X113050000Y-132500000D02*
X102850000Y-132500000D01*
X102850000Y-132500000D02*
X102850000Y-119300000D01*
X102850000Y-119300000D02*
X113050000Y-119300000D01*
X80552381Y-118066666D02*
X80076190Y-118400000D01*
X80552381Y-118638095D02*
X79552381Y-118638095D01*
X79552381Y-118257142D01*
X79600000Y-118161904D01*
X79647619Y-118114285D01*
X79742857Y-118066666D01*
X79885714Y-118066666D01*
X79980952Y-118114285D01*
X80028571Y-118161904D01*
X80076190Y-118257142D01*
X80076190Y-118638095D01*
X79552381Y-117161904D02*
X79552381Y-117638095D01*
X80028571Y-117685714D01*
X79980952Y-117638095D01*
X79933333Y-117542857D01*
X79933333Y-117304761D01*
X79980952Y-117209523D01*
X80028571Y-117161904D01*
X80123810Y-117114285D01*
X80361905Y-117114285D01*
X80457143Y-117161904D01*
X80504762Y-117209523D01*
X80552381Y-117304761D01*
X80552381Y-117542857D01*
X80504762Y-117638095D01*
X80457143Y-117685714D01*
X102843334Y-108192381D02*
X102510000Y-107716190D01*
X102271905Y-108192381D02*
X102271905Y-107192381D01*
X102652858Y-107192381D01*
X102748096Y-107240000D01*
X102795715Y-107287619D01*
X102843334Y-107382857D01*
X102843334Y-107525714D01*
X102795715Y-107620952D01*
X102748096Y-107668571D01*
X102652858Y-107716190D01*
X102271905Y-107716190D01*
X103795715Y-108192381D02*
X103224286Y-108192381D01*
X103510000Y-108192381D02*
X103510000Y-107192381D01*
X103414762Y-107335238D01*
X103319524Y-107430476D01*
X103224286Y-107478095D01*
X109453334Y-110372381D02*
X109120000Y-109896190D01*
X108881905Y-110372381D02*
X108881905Y-109372381D01*
X109262858Y-109372381D01*
X109358096Y-109420000D01*
X109405715Y-109467619D01*
X109453334Y-109562857D01*
X109453334Y-109705714D01*
X109405715Y-109800952D01*
X109358096Y-109848571D01*
X109262858Y-109896190D01*
X108881905Y-109896190D01*
X109834286Y-109467619D02*
X109881905Y-109420000D01*
X109977143Y-109372381D01*
X110215239Y-109372381D01*
X110310477Y-109420000D01*
X110358096Y-109467619D01*
X110405715Y-109562857D01*
X110405715Y-109658095D01*
X110358096Y-109800952D01*
X109786667Y-110372381D01*
X110405715Y-110372381D01*
X68583334Y-118522381D02*
X68250000Y-118046190D01*
X68011905Y-118522381D02*
X68011905Y-117522381D01*
X68392858Y-117522381D01*
X68488096Y-117570000D01*
X68535715Y-117617619D01*
X68583334Y-117712857D01*
X68583334Y-117855714D01*
X68535715Y-117950952D01*
X68488096Y-117998571D01*
X68392858Y-118046190D01*
X68011905Y-118046190D01*
X69440477Y-117855714D02*
X69440477Y-118522381D01*
X69202381Y-117474762D02*
X68964286Y-118189048D01*
X69583334Y-118189048D01*
X86758095Y-111622381D02*
X86758095Y-112431905D01*
X86805714Y-112527143D01*
X86853333Y-112574762D01*
X86948571Y-112622381D01*
X87139048Y-112622381D01*
X87234286Y-112574762D01*
X87281905Y-112527143D01*
X87329524Y-112431905D01*
X87329524Y-111622381D01*
X88329524Y-112622381D02*
X87758095Y-112622381D01*
X88043809Y-112622381D02*
X88043809Y-111622381D01*
X87948571Y-111765238D01*
X87853333Y-111860476D01*
X87758095Y-111908095D01*
X69409524Y-109257143D02*
X69361905Y-109304762D01*
X69219048Y-109352381D01*
X69123810Y-109352381D01*
X68980952Y-109304762D01*
X68885714Y-109209524D01*
X68838095Y-109114286D01*
X68790476Y-108923810D01*
X68790476Y-108780952D01*
X68838095Y-108590476D01*
X68885714Y-108495238D01*
X68980952Y-108400000D01*
X69123810Y-108352381D01*
X69219048Y-108352381D01*
X69361905Y-108400000D01*
X69409524Y-108447619D01*
X69838095Y-109352381D02*
X69838095Y-108352381D01*
X70409524Y-109352381D01*
X70409524Y-108352381D01*
X71409524Y-109352381D02*
X70838095Y-109352381D01*
X71123809Y-109352381D02*
X71123809Y-108352381D01*
X71028571Y-108495238D01*
X70933333Y-108590476D01*
X70838095Y-108638095D01*
X81923334Y-109362381D02*
X81590000Y-108886190D01*
X81351905Y-109362381D02*
X81351905Y-108362381D01*
X81732858Y-108362381D01*
X81828096Y-108410000D01*
X81875715Y-108457619D01*
X81923334Y-108552857D01*
X81923334Y-108695714D01*
X81875715Y-108790952D01*
X81828096Y-108838571D01*
X81732858Y-108886190D01*
X81351905Y-108886190D01*
X82256667Y-108362381D02*
X82875715Y-108362381D01*
X82542381Y-108743333D01*
X82685239Y-108743333D01*
X82780477Y-108790952D01*
X82828096Y-108838571D01*
X82875715Y-108933810D01*
X82875715Y-109171905D01*
X82828096Y-109267143D01*
X82780477Y-109314762D01*
X82685239Y-109362381D01*
X82399524Y-109362381D01*
X82304286Y-109314762D01*
X82256667Y-109267143D01*
X89051905Y-115012381D02*
X89051905Y-114012381D01*
X89290000Y-114012381D01*
X89432858Y-114060000D01*
X89528096Y-114155238D01*
X89575715Y-114250476D01*
X89623334Y-114440952D01*
X89623334Y-114583810D01*
X89575715Y-114774286D01*
X89528096Y-114869524D01*
X89432858Y-114964762D01*
X89290000Y-115012381D01*
X89051905Y-115012381D01*
X89956667Y-114012381D02*
X90575715Y-114012381D01*
X90242381Y-114393333D01*
X90385239Y-114393333D01*
X90480477Y-114440952D01*
X90528096Y-114488571D01*
X90575715Y-114583810D01*
X90575715Y-114821905D01*
X90528096Y-114917143D01*
X90480477Y-114964762D01*
X90385239Y-115012381D01*
X90099524Y-115012381D01*
X90004286Y-114964762D01*
X89956667Y-114917143D01*
X93404762Y-110297619D02*
X93309524Y-110250000D01*
X93214286Y-110154762D01*
X93071429Y-110011905D01*
X92976190Y-109964286D01*
X92880952Y-109964286D01*
X92928571Y-110202381D02*
X92833333Y-110154762D01*
X92738095Y-110059524D01*
X92690476Y-109869048D01*
X92690476Y-109535714D01*
X92738095Y-109345238D01*
X92833333Y-109250000D01*
X92928571Y-109202381D01*
X93119048Y-109202381D01*
X93214286Y-109250000D01*
X93309524Y-109345238D01*
X93357143Y-109535714D01*
X93357143Y-109869048D01*
X93309524Y-110059524D01*
X93214286Y-110154762D01*
X93119048Y-110202381D01*
X92928571Y-110202381D01*
X94309524Y-110202381D02*
X93738095Y-110202381D01*
X94023809Y-110202381D02*
X94023809Y-109202381D01*
X93928571Y-109345238D01*
X93833333Y-109440476D01*
X93738095Y-109488095D01*
D16*
X105664761Y-114876905D02*
X105664761Y-115354524D01*
X105692856Y-115410714D01*
X105720952Y-115438810D01*
X105777142Y-115466905D01*
X105889523Y-115466905D01*
X105945714Y-115438810D01*
X105973809Y-115410714D01*
X106001904Y-115354524D01*
X106001904Y-114876905D01*
X106254761Y-115438810D02*
X106339047Y-115466905D01*
X106479523Y-115466905D01*
X106535713Y-115438810D01*
X106563809Y-115410714D01*
X106591904Y-115354524D01*
X106591904Y-115298333D01*
X106563809Y-115242143D01*
X106535713Y-115214048D01*
X106479523Y-115185952D01*
X106367142Y-115157857D01*
X106310951Y-115129762D01*
X106282856Y-115101667D01*
X106254761Y-115045476D01*
X106254761Y-114989286D01*
X106282856Y-114933095D01*
X106310951Y-114905000D01*
X106367142Y-114876905D01*
X106507618Y-114876905D01*
X106591904Y-114905000D01*
X106957142Y-114876905D02*
X107013333Y-114876905D01*
X107069523Y-114905000D01*
X107097618Y-114933095D01*
X107125714Y-114989286D01*
X107153809Y-115101667D01*
X107153809Y-115242143D01*
X107125714Y-115354524D01*
X107097618Y-115410714D01*
X107069523Y-115438810D01*
X107013333Y-115466905D01*
X106957142Y-115466905D01*
X106900952Y-115438810D01*
X106872856Y-115410714D01*
X106844761Y-115354524D01*
X106816666Y-115242143D01*
X106816666Y-115101667D01*
X106844761Y-114989286D01*
X106872856Y-114933095D01*
X106900952Y-114905000D01*
X106957142Y-114876905D01*
X107519047Y-114876905D02*
X107575238Y-114876905D01*
X107631428Y-114905000D01*
X107659523Y-114933095D01*
X107687619Y-114989286D01*
X107715714Y-115101667D01*
X107715714Y-115242143D01*
X107687619Y-115354524D01*
X107659523Y-115410714D01*
X107631428Y-115438810D01*
X107575238Y-115466905D01*
X107519047Y-115466905D01*
X107462857Y-115438810D01*
X107434761Y-115410714D01*
X107406666Y-115354524D01*
X107378571Y-115242143D01*
X107378571Y-115101667D01*
X107406666Y-114989286D01*
X107434761Y-114933095D01*
X107462857Y-114905000D01*
X107519047Y-114876905D01*
X108080952Y-114876905D02*
X108137143Y-114876905D01*
X108193333Y-114905000D01*
X108221428Y-114933095D01*
X108249524Y-114989286D01*
X108277619Y-115101667D01*
X108277619Y-115242143D01*
X108249524Y-115354524D01*
X108221428Y-115410714D01*
X108193333Y-115438810D01*
X108137143Y-115466905D01*
X108080952Y-115466905D01*
X108024762Y-115438810D01*
X107996666Y-115410714D01*
X107968571Y-115354524D01*
X107940476Y-115242143D01*
X107940476Y-115101667D01*
X107968571Y-114989286D01*
X107996666Y-114933095D01*
X108024762Y-114905000D01*
X108080952Y-114876905D01*
X108642857Y-114876905D02*
X108699048Y-114876905D01*
X108755238Y-114905000D01*
X108783333Y-114933095D01*
X108811429Y-114989286D01*
X108839524Y-115101667D01*
X108839524Y-115242143D01*
X108811429Y-115354524D01*
X108783333Y-115410714D01*
X108755238Y-115438810D01*
X108699048Y-115466905D01*
X108642857Y-115466905D01*
X108586667Y-115438810D01*
X108558571Y-115410714D01*
X108530476Y-115354524D01*
X108502381Y-115242143D01*
X108502381Y-115101667D01*
X108530476Y-114989286D01*
X108558571Y-114933095D01*
X108586667Y-114905000D01*
X108642857Y-114876905D01*
X109345238Y-114876905D02*
X109232857Y-114876905D01*
X109176667Y-114905000D01*
X109148572Y-114933095D01*
X109092381Y-115017381D01*
X109064286Y-115129762D01*
X109064286Y-115354524D01*
X109092381Y-115410714D01*
X109120476Y-115438810D01*
X109176667Y-115466905D01*
X109289048Y-115466905D01*
X109345238Y-115438810D01*
X109373334Y-115410714D01*
X109401429Y-115354524D01*
X109401429Y-115214048D01*
X109373334Y-115157857D01*
X109345238Y-115129762D01*
X109289048Y-115101667D01*
X109176667Y-115101667D01*
X109120476Y-115129762D01*
X109092381Y-115157857D01*
X109064286Y-115214048D01*
X109626191Y-114933095D02*
X109654286Y-114905000D01*
X109710477Y-114876905D01*
X109850953Y-114876905D01*
X109907143Y-114905000D01*
X109935239Y-114933095D01*
X109963334Y-114989286D01*
X109963334Y-115045476D01*
X109935239Y-115129762D01*
X109598096Y-115466905D01*
X109963334Y-115466905D01*
D11*
X71421429Y-133852381D02*
X71421429Y-132852381D01*
X71802382Y-132852381D01*
X71897620Y-132900000D01*
X71945239Y-132947619D01*
X71992858Y-133042857D01*
X71992858Y-133185714D01*
X71945239Y-133280952D01*
X71897620Y-133328571D01*
X71802382Y-133376190D01*
X71421429Y-133376190D01*
X72611905Y-132852381D02*
X72802382Y-132852381D01*
X72897620Y-132900000D01*
X72992858Y-132995238D01*
X73040477Y-133185714D01*
X73040477Y-133519048D01*
X72992858Y-133709524D01*
X72897620Y-133804762D01*
X72802382Y-133852381D01*
X72611905Y-133852381D01*
X72516667Y-133804762D01*
X72421429Y-133709524D01*
X72373810Y-133519048D01*
X72373810Y-133185714D01*
X72421429Y-132995238D01*
X72516667Y-132900000D01*
X72611905Y-132852381D01*
X73373810Y-132852381D02*
X73611905Y-133852381D01*
X73802382Y-133138095D01*
X73992858Y-133852381D01*
X74230953Y-132852381D01*
X74611905Y-133328571D02*
X74945239Y-133328571D01*
X75088096Y-133852381D02*
X74611905Y-133852381D01*
X74611905Y-132852381D01*
X75088096Y-132852381D01*
X76088096Y-133852381D02*
X75754762Y-133376190D01*
X75516667Y-133852381D02*
X75516667Y-132852381D01*
X75897620Y-132852381D01*
X75992858Y-132900000D01*
X76040477Y-132947619D01*
X76088096Y-133042857D01*
X76088096Y-133185714D01*
X76040477Y-133280952D01*
X75992858Y-133328571D01*
X75897620Y-133376190D01*
X75516667Y-133376190D01*
X76516667Y-133471429D02*
X77278572Y-133471429D01*
X76897620Y-133852381D02*
X76897620Y-133090476D01*
X95850001Y-133328571D02*
X95992858Y-133376190D01*
X96040477Y-133423810D01*
X96088096Y-133519048D01*
X96088096Y-133661905D01*
X96040477Y-133757143D01*
X95992858Y-133804762D01*
X95897620Y-133852381D01*
X95516667Y-133852381D01*
X95516667Y-132852381D01*
X95850001Y-132852381D01*
X95945239Y-132900000D01*
X95992858Y-132947619D01*
X96040477Y-133042857D01*
X96040477Y-133138095D01*
X95992858Y-133233333D01*
X95945239Y-133280952D01*
X95850001Y-133328571D01*
X95516667Y-133328571D01*
X96516667Y-133328571D02*
X96850001Y-133328571D01*
X96992858Y-133852381D02*
X96516667Y-133852381D01*
X96516667Y-132852381D01*
X96992858Y-132852381D01*
X97421429Y-133852381D02*
X97421429Y-132852381D01*
X97659524Y-132852381D01*
X97802382Y-132900000D01*
X97897620Y-132995238D01*
X97945239Y-133090476D01*
X97992858Y-133280952D01*
X97992858Y-133423810D01*
X97945239Y-133614286D01*
X97897620Y-133709524D01*
X97802382Y-133804762D01*
X97659524Y-133852381D01*
X97421429Y-133852381D01*
X98421429Y-133471429D02*
X99183334Y-133471429D01*
X84350001Y-133328571D02*
X84492858Y-133376190D01*
X84540477Y-133423810D01*
X84588096Y-133519048D01*
X84588096Y-133661905D01*
X84540477Y-133757143D01*
X84492858Y-133804762D01*
X84397620Y-133852381D01*
X84016667Y-133852381D01*
X84016667Y-132852381D01*
X84350001Y-132852381D01*
X84445239Y-132900000D01*
X84492858Y-132947619D01*
X84540477Y-133042857D01*
X84540477Y-133138095D01*
X84492858Y-133233333D01*
X84445239Y-133280952D01*
X84350001Y-133328571D01*
X84016667Y-133328571D01*
X85016667Y-133328571D02*
X85350001Y-133328571D01*
X85492858Y-133852381D02*
X85016667Y-133852381D01*
X85016667Y-132852381D01*
X85492858Y-132852381D01*
X85921429Y-133852381D02*
X85921429Y-132852381D01*
X86159524Y-132852381D01*
X86302382Y-132900000D01*
X86397620Y-132995238D01*
X86445239Y-133090476D01*
X86492858Y-133280952D01*
X86492858Y-133423810D01*
X86445239Y-133614286D01*
X86397620Y-133709524D01*
X86302382Y-133804762D01*
X86159524Y-133852381D01*
X85921429Y-133852381D01*
X86921429Y-133471429D02*
X87683334Y-133471429D01*
X87302382Y-133852381D02*
X87302382Y-133090476D01*
X105171429Y-133852381D02*
X105171429Y-132852381D01*
X105552382Y-132852381D01*
X105647620Y-132900000D01*
X105695239Y-132947619D01*
X105742858Y-133042857D01*
X105742858Y-133185714D01*
X105695239Y-133280952D01*
X105647620Y-133328571D01*
X105552382Y-133376190D01*
X105171429Y-133376190D01*
X106361905Y-132852381D02*
X106552382Y-132852381D01*
X106647620Y-132900000D01*
X106742858Y-132995238D01*
X106790477Y-133185714D01*
X106790477Y-133519048D01*
X106742858Y-133709524D01*
X106647620Y-133804762D01*
X106552382Y-133852381D01*
X106361905Y-133852381D01*
X106266667Y-133804762D01*
X106171429Y-133709524D01*
X106123810Y-133519048D01*
X106123810Y-133185714D01*
X106171429Y-132995238D01*
X106266667Y-132900000D01*
X106361905Y-132852381D01*
X107123810Y-132852381D02*
X107361905Y-133852381D01*
X107552382Y-133138095D01*
X107742858Y-133852381D01*
X107980953Y-132852381D01*
X108361905Y-133328571D02*
X108695239Y-133328571D01*
X108838096Y-133852381D02*
X108361905Y-133852381D01*
X108361905Y-132852381D01*
X108838096Y-132852381D01*
X109838096Y-133852381D02*
X109504762Y-133376190D01*
X109266667Y-133852381D02*
X109266667Y-132852381D01*
X109647620Y-132852381D01*
X109742858Y-132900000D01*
X109790477Y-132947619D01*
X109838096Y-133042857D01*
X109838096Y-133185714D01*
X109790477Y-133280952D01*
X109742858Y-133328571D01*
X109647620Y-133376190D01*
X109266667Y-133376190D01*
X110266667Y-133471429D02*
X111028572Y-133471429D01*
M02*
