M48
;DRILL file {KiCad 4.0.6} date 04/13/17 22:34:52
;FORMAT={-:-/ absolute / metric / decimal}
FMAT,2
METRIC,TZ
T1C0.400
T2C1.000
T3C2.000
%
G90
G05
M71
T1
X74.Y-105.
X85.77Y-117.15
X103.39Y-113.26
X103.39Y-114.54
X103.39Y-115.81
T2
X95.81Y-112.15
X95.81Y-113.9
X95.81Y-115.65
X96.56Y-110.4
X96.56Y-117.4
X98.56Y-110.4
X98.56Y-117.4
X100.56Y-110.4
X100.56Y-117.4
T3
X70.68Y-120.9
X70.68Y-125.9
X70.68Y-130.9
X77.69Y-120.9
X77.69Y-125.9
X77.69Y-130.9
X81.93Y-120.9
X81.93Y-125.9
X81.93Y-130.9
X88.94Y-120.9
X88.94Y-125.9
X88.94Y-130.9
X93.18Y-120.9
X93.18Y-125.9
X93.18Y-130.9
X100.19Y-120.9
X100.19Y-125.9
X100.19Y-130.9
X104.43Y-120.9
X104.43Y-125.9
X104.43Y-130.9
X111.44Y-120.9
X111.44Y-125.9
X111.44Y-130.9
T0
M30
