%FSLAX45Y45*%
G04 Gerber Fmt 4.5, Leading zero omitted, Abs format (unit mm)*
G04 Created by KiCad (PCBNEW 4.0.5) date 02/10/17 23:38:41*
%MOMM*%
%LPD*%
G01*
G04 APERTURE LIST*
%ADD10C,0.127000*%
%ADD11C,0.150000*%
%ADD12C,0.200000*%
%ADD13C,0.300000*%
G04 APERTURE END LIST*
D10*
D11*
X11510000Y-13490000D02*
X6710000Y-13490000D01*
X11510000Y-13390000D02*
X11510000Y-13490000D01*
X11510000Y-9990000D02*
X11510000Y-13390000D01*
X6710000Y-9990000D02*
X11510000Y-9990000D01*
X6710000Y-13490000D02*
X6710000Y-9990000D01*
D12*
X7169000Y-11871000D02*
X7209000Y-11911000D01*
X7209000Y-11871000D02*
X7169000Y-11911000D01*
X7264000Y-11734000D02*
X7304000Y-11774000D01*
X7304000Y-11734000D02*
X7264000Y-11774000D01*
X7357000Y-10128000D02*
X7397000Y-10168000D01*
X7397000Y-10128000D02*
X7357000Y-10168000D01*
X7391000Y-11734000D02*
X7431000Y-11774000D01*
X7431000Y-11734000D02*
X7391000Y-11774000D01*
X7519000Y-11734000D02*
X7559000Y-11774000D01*
X7559000Y-11734000D02*
X7519000Y-11774000D01*
X7646000Y-11734000D02*
X7686000Y-11774000D01*
X7686000Y-11734000D02*
X7646000Y-11774000D01*
X7754000Y-10374000D02*
X7794000Y-10414000D01*
X7794000Y-10374000D02*
X7754000Y-10414000D01*
X9027000Y-10184000D02*
X9067000Y-10224000D01*
X9067000Y-10184000D02*
X9027000Y-10224000D01*
X9480000Y-10980000D02*
X9520000Y-11020000D01*
X9520000Y-10980000D02*
X9480000Y-11020000D01*
X9730000Y-10980000D02*
X9770000Y-11020000D01*
X9770000Y-10980000D02*
X9730000Y-11020000D01*
X10505000Y-10136000D02*
X10545000Y-10176000D01*
X10545000Y-10136000D02*
X10505000Y-10176000D01*
X10980000Y-10980000D02*
X11020000Y-11020000D01*
X11020000Y-10980000D02*
X10980000Y-11020000D01*
X11230000Y-11230000D02*
X11270000Y-11270000D01*
X11270000Y-11230000D02*
X11230000Y-11270000D01*
X11230000Y-11480000D02*
X11270000Y-11520000D01*
X11270000Y-11480000D02*
X11230000Y-11520000D01*
X7175000Y-11071000D02*
G75*
G03X7175000Y-11071000I-50000J0D01*
G01*
X7175000Y-11271000D02*
G75*
G03X7175000Y-11271000I-50000J0D01*
G01*
X7175000Y-11471000D02*
G75*
G03X7175000Y-11471000I-50000J0D01*
G01*
X7350000Y-10996000D02*
G75*
G03X7350000Y-10996000I-50000J0D01*
G01*
X7525000Y-10996000D02*
G75*
G03X7525000Y-10996000I-50000J0D01*
G01*
X7700000Y-10996000D02*
G75*
G03X7700000Y-10996000I-50000J0D01*
G01*
X7875000Y-11071000D02*
G75*
G03X7875000Y-11071000I-50000J0D01*
G01*
X7875000Y-11271000D02*
G75*
G03X7875000Y-11271000I-50000J0D01*
G01*
X7875000Y-11471000D02*
G75*
G03X7875000Y-11471000I-50000J0D01*
G01*
X7460000Y-12261000D02*
X7460000Y-12411000D01*
X7385000Y-12336000D02*
X7535000Y-12336000D01*
X7460000Y-12769000D02*
X7460000Y-12919000D01*
X7385000Y-12844000D02*
X7535000Y-12844000D01*
X8470000Y-12271000D02*
X8470000Y-12421000D01*
X8395000Y-12346000D02*
X8545000Y-12346000D01*
X8470000Y-12779000D02*
X8470000Y-12929000D01*
X8395000Y-12854000D02*
X8545000Y-12854000D01*
X9690000Y-12271000D02*
X9690000Y-12421000D01*
X9615000Y-12346000D02*
X9765000Y-12346000D01*
X9690000Y-12779000D02*
X9690000Y-12929000D01*
X9615000Y-12854000D02*
X9765000Y-12854000D01*
X10750000Y-12221000D02*
X10750000Y-12371000D01*
X10675000Y-12296000D02*
X10825000Y-12296000D01*
X10750000Y-12729000D02*
X10750000Y-12879000D01*
X10675000Y-12804000D02*
X10825000Y-12804000D01*
D13*
X6973928Y-13963214D02*
X6973928Y-13663214D01*
X7045357Y-13663214D01*
X7088214Y-13677500D01*
X7116786Y-13706071D01*
X7131071Y-13734643D01*
X7145357Y-13791786D01*
X7145357Y-13834643D01*
X7131071Y-13891786D01*
X7116786Y-13920357D01*
X7088214Y-13948929D01*
X7045357Y-13963214D01*
X6973928Y-13963214D01*
X7273928Y-13963214D02*
X7273928Y-13763214D01*
X7273928Y-13820357D02*
X7288214Y-13791786D01*
X7302500Y-13777500D01*
X7331071Y-13763214D01*
X7359643Y-13763214D01*
X7459643Y-13963214D02*
X7459643Y-13763214D01*
X7459643Y-13663214D02*
X7445357Y-13677500D01*
X7459643Y-13691786D01*
X7473928Y-13677500D01*
X7459643Y-13663214D01*
X7459643Y-13691786D01*
X7645357Y-13963214D02*
X7616786Y-13948929D01*
X7602500Y-13920357D01*
X7602500Y-13663214D01*
X7802500Y-13963214D02*
X7773928Y-13948929D01*
X7759643Y-13920357D01*
X7759643Y-13663214D01*
X8145357Y-13963214D02*
X8145357Y-13663214D01*
X8245357Y-13877500D01*
X8345357Y-13663214D01*
X8345357Y-13963214D01*
X8616786Y-13963214D02*
X8616786Y-13806071D01*
X8602500Y-13777500D01*
X8573929Y-13763214D01*
X8516786Y-13763214D01*
X8488214Y-13777500D01*
X8616786Y-13948929D02*
X8588214Y-13963214D01*
X8516786Y-13963214D01*
X8488214Y-13948929D01*
X8473929Y-13920357D01*
X8473929Y-13891786D01*
X8488214Y-13863214D01*
X8516786Y-13848929D01*
X8588214Y-13848929D01*
X8616786Y-13834643D01*
X8759643Y-13763214D02*
X8759643Y-14063214D01*
X8759643Y-13777500D02*
X8788214Y-13763214D01*
X8845357Y-13763214D01*
X8873929Y-13777500D01*
X8888214Y-13791786D01*
X8902500Y-13820357D01*
X8902500Y-13906071D01*
X8888214Y-13934643D01*
X8873929Y-13948929D01*
X8845357Y-13963214D01*
X8788214Y-13963214D01*
X8759643Y-13948929D01*
X9031071Y-13934643D02*
X9045357Y-13948929D01*
X9031071Y-13963214D01*
X9016786Y-13948929D01*
X9031071Y-13934643D01*
X9031071Y-13963214D01*
X9031071Y-13777500D02*
X9045357Y-13791786D01*
X9031071Y-13806071D01*
X9016786Y-13791786D01*
X9031071Y-13777500D01*
X9031071Y-13806071D01*
X6662500Y-14437500D02*
X6702500Y-14477500D01*
X6702500Y-14437500D02*
X6662500Y-14477500D01*
X7031071Y-14293214D02*
X7059643Y-14293214D01*
X7088214Y-14307500D01*
X7102500Y-14321786D01*
X7116786Y-14350357D01*
X7131071Y-14407500D01*
X7131071Y-14478929D01*
X7116786Y-14536071D01*
X7102500Y-14564643D01*
X7088214Y-14578929D01*
X7059643Y-14593214D01*
X7031071Y-14593214D01*
X7002500Y-14578929D01*
X6988214Y-14564643D01*
X6973928Y-14536071D01*
X6959643Y-14478929D01*
X6959643Y-14407500D01*
X6973928Y-14350357D01*
X6988214Y-14321786D01*
X7002500Y-14307500D01*
X7031071Y-14293214D01*
X7259643Y-14564643D02*
X7273928Y-14578929D01*
X7259643Y-14593214D01*
X7245357Y-14578929D01*
X7259643Y-14564643D01*
X7259643Y-14593214D01*
X7531071Y-14393214D02*
X7531071Y-14593214D01*
X7459643Y-14278929D02*
X7388214Y-14493214D01*
X7573928Y-14493214D01*
X7745357Y-14293214D02*
X7773928Y-14293214D01*
X7802500Y-14307500D01*
X7816786Y-14321786D01*
X7831071Y-14350357D01*
X7845357Y-14407500D01*
X7845357Y-14478929D01*
X7831071Y-14536071D01*
X7816786Y-14564643D01*
X7802500Y-14578929D01*
X7773928Y-14593214D01*
X7745357Y-14593214D01*
X7716786Y-14578929D01*
X7702500Y-14564643D01*
X7688214Y-14536071D01*
X7673928Y-14478929D01*
X7673928Y-14407500D01*
X7688214Y-14350357D01*
X7702500Y-14321786D01*
X7716786Y-14307500D01*
X7745357Y-14293214D01*
X7973928Y-14593214D02*
X7973928Y-14393214D01*
X7973928Y-14421786D02*
X7988214Y-14407500D01*
X8016786Y-14393214D01*
X8059643Y-14393214D01*
X8088214Y-14407500D01*
X8102500Y-14436071D01*
X8102500Y-14593214D01*
X8102500Y-14436071D02*
X8116786Y-14407500D01*
X8145357Y-14393214D01*
X8188214Y-14393214D01*
X8216786Y-14407500D01*
X8231071Y-14436071D01*
X8231071Y-14593214D01*
X8373928Y-14593214D02*
X8373928Y-14393214D01*
X8373928Y-14421786D02*
X8388214Y-14407500D01*
X8416786Y-14393214D01*
X8459643Y-14393214D01*
X8488214Y-14407500D01*
X8502500Y-14436071D01*
X8502500Y-14593214D01*
X8502500Y-14436071D02*
X8516786Y-14407500D01*
X8545357Y-14393214D01*
X8588214Y-14393214D01*
X8616786Y-14407500D01*
X8631071Y-14436071D01*
X8631071Y-14593214D01*
X9216786Y-14278929D02*
X8959643Y-14664643D01*
X9602500Y-14293214D02*
X9631071Y-14293214D01*
X9659643Y-14307500D01*
X9673928Y-14321786D01*
X9688214Y-14350357D01*
X9702500Y-14407500D01*
X9702500Y-14478929D01*
X9688214Y-14536071D01*
X9673928Y-14564643D01*
X9659643Y-14578929D01*
X9631071Y-14593214D01*
X9602500Y-14593214D01*
X9573928Y-14578929D01*
X9559643Y-14564643D01*
X9545357Y-14536071D01*
X9531071Y-14478929D01*
X9531071Y-14407500D01*
X9545357Y-14350357D01*
X9559643Y-14321786D01*
X9573928Y-14307500D01*
X9602500Y-14293214D01*
X9831071Y-14564643D02*
X9845357Y-14578929D01*
X9831071Y-14593214D01*
X9816786Y-14578929D01*
X9831071Y-14564643D01*
X9831071Y-14593214D01*
X10031071Y-14293214D02*
X10059643Y-14293214D01*
X10088214Y-14307500D01*
X10102500Y-14321786D01*
X10116786Y-14350357D01*
X10131071Y-14407500D01*
X10131071Y-14478929D01*
X10116786Y-14536071D01*
X10102500Y-14564643D01*
X10088214Y-14578929D01*
X10059643Y-14593214D01*
X10031071Y-14593214D01*
X10002500Y-14578929D01*
X9988214Y-14564643D01*
X9973928Y-14536071D01*
X9959643Y-14478929D01*
X9959643Y-14407500D01*
X9973928Y-14350357D01*
X9988214Y-14321786D01*
X10002500Y-14307500D01*
X10031071Y-14293214D01*
X10416786Y-14593214D02*
X10245357Y-14593214D01*
X10331071Y-14593214D02*
X10331071Y-14293214D01*
X10302500Y-14336071D01*
X10273928Y-14364643D01*
X10245357Y-14378929D01*
X10673928Y-14293214D02*
X10616786Y-14293214D01*
X10588214Y-14307500D01*
X10573928Y-14321786D01*
X10545357Y-14364643D01*
X10531071Y-14421786D01*
X10531071Y-14536071D01*
X10545357Y-14564643D01*
X10559643Y-14578929D01*
X10588214Y-14593214D01*
X10645357Y-14593214D01*
X10673928Y-14578929D01*
X10688214Y-14564643D01*
X10702500Y-14536071D01*
X10702500Y-14464643D01*
X10688214Y-14436071D01*
X10673928Y-14421786D01*
X10645357Y-14407500D01*
X10588214Y-14407500D01*
X10559643Y-14421786D01*
X10545357Y-14436071D01*
X10531071Y-14464643D01*
X10816786Y-14293214D02*
X10816786Y-14350357D01*
X10931071Y-14293214D02*
X10931071Y-14350357D01*
X11373928Y-14707500D02*
X11359643Y-14693214D01*
X11331071Y-14650357D01*
X11316785Y-14621786D01*
X11302500Y-14578929D01*
X11288214Y-14507500D01*
X11288214Y-14450357D01*
X11302500Y-14378929D01*
X11316785Y-14336071D01*
X11331071Y-14307500D01*
X11359643Y-14264643D01*
X11373928Y-14250357D01*
X11645357Y-14593214D02*
X11473928Y-14593214D01*
X11559643Y-14593214D02*
X11559643Y-14293214D01*
X11531071Y-14336071D01*
X11502500Y-14364643D01*
X11473928Y-14378929D01*
X11902500Y-14393214D02*
X11902500Y-14593214D01*
X11831071Y-14278929D02*
X11759643Y-14493214D01*
X11945357Y-14493214D01*
X12288214Y-14593214D02*
X12288214Y-14293214D01*
X12416785Y-14593214D02*
X12416785Y-14436071D01*
X12402500Y-14407500D01*
X12373928Y-14393214D01*
X12331071Y-14393214D01*
X12302500Y-14407500D01*
X12288214Y-14421786D01*
X12602500Y-14593214D02*
X12573928Y-14578929D01*
X12559643Y-14564643D01*
X12545357Y-14536071D01*
X12545357Y-14450357D01*
X12559643Y-14421786D01*
X12573928Y-14407500D01*
X12602500Y-14393214D01*
X12645357Y-14393214D01*
X12673928Y-14407500D01*
X12688214Y-14421786D01*
X12702500Y-14450357D01*
X12702500Y-14536071D01*
X12688214Y-14564643D01*
X12673928Y-14578929D01*
X12645357Y-14593214D01*
X12602500Y-14593214D01*
X12873928Y-14593214D02*
X12845357Y-14578929D01*
X12831071Y-14550357D01*
X12831071Y-14293214D01*
X13102500Y-14578929D02*
X13073928Y-14593214D01*
X13016786Y-14593214D01*
X12988214Y-14578929D01*
X12973928Y-14550357D01*
X12973928Y-14436071D01*
X12988214Y-14407500D01*
X13016786Y-14393214D01*
X13073928Y-14393214D01*
X13102500Y-14407500D01*
X13116786Y-14436071D01*
X13116786Y-14464643D01*
X12973928Y-14493214D01*
X13231071Y-14578929D02*
X13259643Y-14593214D01*
X13316786Y-14593214D01*
X13345357Y-14578929D01*
X13359643Y-14550357D01*
X13359643Y-14536071D01*
X13345357Y-14507500D01*
X13316786Y-14493214D01*
X13273928Y-14493214D01*
X13245357Y-14478929D01*
X13231071Y-14450357D01*
X13231071Y-14436071D01*
X13245357Y-14407500D01*
X13273928Y-14393214D01*
X13316786Y-14393214D01*
X13345357Y-14407500D01*
X13459643Y-14707500D02*
X13473928Y-14693214D01*
X13502500Y-14650357D01*
X13516786Y-14621786D01*
X13531071Y-14578929D01*
X13545357Y-14507500D01*
X13545357Y-14450357D01*
X13531071Y-14378929D01*
X13516786Y-14336071D01*
X13502500Y-14307500D01*
X13473928Y-14264643D01*
X13459643Y-14250357D01*
X6702500Y-14853500D02*
G75*
G03X6702500Y-14853500I-50000J0D01*
G01*
X7131071Y-14989214D02*
X6959643Y-14989214D01*
X7045357Y-14989214D02*
X7045357Y-14689214D01*
X7016786Y-14732071D01*
X6988214Y-14760643D01*
X6959643Y-14774929D01*
X7259643Y-14960643D02*
X7273928Y-14974929D01*
X7259643Y-14989214D01*
X7245357Y-14974929D01*
X7259643Y-14960643D01*
X7259643Y-14989214D01*
X7459643Y-14689214D02*
X7488214Y-14689214D01*
X7516786Y-14703500D01*
X7531071Y-14717786D01*
X7545357Y-14746357D01*
X7559643Y-14803500D01*
X7559643Y-14874929D01*
X7545357Y-14932071D01*
X7531071Y-14960643D01*
X7516786Y-14974929D01*
X7488214Y-14989214D01*
X7459643Y-14989214D01*
X7431071Y-14974929D01*
X7416786Y-14960643D01*
X7402500Y-14932071D01*
X7388214Y-14874929D01*
X7388214Y-14803500D01*
X7402500Y-14746357D01*
X7416786Y-14717786D01*
X7431071Y-14703500D01*
X7459643Y-14689214D01*
X7745357Y-14689214D02*
X7773928Y-14689214D01*
X7802500Y-14703500D01*
X7816786Y-14717786D01*
X7831071Y-14746357D01*
X7845357Y-14803500D01*
X7845357Y-14874929D01*
X7831071Y-14932071D01*
X7816786Y-14960643D01*
X7802500Y-14974929D01*
X7773928Y-14989214D01*
X7745357Y-14989214D01*
X7716786Y-14974929D01*
X7702500Y-14960643D01*
X7688214Y-14932071D01*
X7673928Y-14874929D01*
X7673928Y-14803500D01*
X7688214Y-14746357D01*
X7702500Y-14717786D01*
X7716786Y-14703500D01*
X7745357Y-14689214D01*
X7973928Y-14989214D02*
X7973928Y-14789214D01*
X7973928Y-14817786D02*
X7988214Y-14803500D01*
X8016786Y-14789214D01*
X8059643Y-14789214D01*
X8088214Y-14803500D01*
X8102500Y-14832071D01*
X8102500Y-14989214D01*
X8102500Y-14832071D02*
X8116786Y-14803500D01*
X8145357Y-14789214D01*
X8188214Y-14789214D01*
X8216786Y-14803500D01*
X8231071Y-14832071D01*
X8231071Y-14989214D01*
X8373928Y-14989214D02*
X8373928Y-14789214D01*
X8373928Y-14817786D02*
X8388214Y-14803500D01*
X8416786Y-14789214D01*
X8459643Y-14789214D01*
X8488214Y-14803500D01*
X8502500Y-14832071D01*
X8502500Y-14989214D01*
X8502500Y-14832071D02*
X8516786Y-14803500D01*
X8545357Y-14789214D01*
X8588214Y-14789214D01*
X8616786Y-14803500D01*
X8631071Y-14832071D01*
X8631071Y-14989214D01*
X9216786Y-14674929D02*
X8959643Y-15060643D01*
X9602500Y-14689214D02*
X9631071Y-14689214D01*
X9659643Y-14703500D01*
X9673928Y-14717786D01*
X9688214Y-14746357D01*
X9702500Y-14803500D01*
X9702500Y-14874929D01*
X9688214Y-14932071D01*
X9673928Y-14960643D01*
X9659643Y-14974929D01*
X9631071Y-14989214D01*
X9602500Y-14989214D01*
X9573928Y-14974929D01*
X9559643Y-14960643D01*
X9545357Y-14932071D01*
X9531071Y-14874929D01*
X9531071Y-14803500D01*
X9545357Y-14746357D01*
X9559643Y-14717786D01*
X9573928Y-14703500D01*
X9602500Y-14689214D01*
X9831071Y-14960643D02*
X9845357Y-14974929D01*
X9831071Y-14989214D01*
X9816786Y-14974929D01*
X9831071Y-14960643D01*
X9831071Y-14989214D01*
X10031071Y-14689214D02*
X10059643Y-14689214D01*
X10088214Y-14703500D01*
X10102500Y-14717786D01*
X10116786Y-14746357D01*
X10131071Y-14803500D01*
X10131071Y-14874929D01*
X10116786Y-14932071D01*
X10102500Y-14960643D01*
X10088214Y-14974929D01*
X10059643Y-14989214D01*
X10031071Y-14989214D01*
X10002500Y-14974929D01*
X9988214Y-14960643D01*
X9973928Y-14932071D01*
X9959643Y-14874929D01*
X9959643Y-14803500D01*
X9973928Y-14746357D01*
X9988214Y-14717786D01*
X10002500Y-14703500D01*
X10031071Y-14689214D01*
X10231071Y-14689214D02*
X10416786Y-14689214D01*
X10316786Y-14803500D01*
X10359643Y-14803500D01*
X10388214Y-14817786D01*
X10402500Y-14832071D01*
X10416786Y-14860643D01*
X10416786Y-14932071D01*
X10402500Y-14960643D01*
X10388214Y-14974929D01*
X10359643Y-14989214D01*
X10273928Y-14989214D01*
X10245357Y-14974929D01*
X10231071Y-14960643D01*
X10559643Y-14989214D02*
X10616786Y-14989214D01*
X10645357Y-14974929D01*
X10659643Y-14960643D01*
X10688214Y-14917786D01*
X10702500Y-14860643D01*
X10702500Y-14746357D01*
X10688214Y-14717786D01*
X10673928Y-14703500D01*
X10645357Y-14689214D01*
X10588214Y-14689214D01*
X10559643Y-14703500D01*
X10545357Y-14717786D01*
X10531071Y-14746357D01*
X10531071Y-14817786D01*
X10545357Y-14846357D01*
X10559643Y-14860643D01*
X10588214Y-14874929D01*
X10645357Y-14874929D01*
X10673928Y-14860643D01*
X10688214Y-14846357D01*
X10702500Y-14817786D01*
X10816786Y-14689214D02*
X10816786Y-14746357D01*
X10931071Y-14689214D02*
X10931071Y-14746357D01*
X11373928Y-15103500D02*
X11359643Y-15089214D01*
X11331071Y-15046357D01*
X11316785Y-15017786D01*
X11302500Y-14974929D01*
X11288214Y-14903500D01*
X11288214Y-14846357D01*
X11302500Y-14774929D01*
X11316785Y-14732071D01*
X11331071Y-14703500D01*
X11359643Y-14660643D01*
X11373928Y-14646357D01*
X11502500Y-14989214D02*
X11559643Y-14989214D01*
X11588214Y-14974929D01*
X11602500Y-14960643D01*
X11631071Y-14917786D01*
X11645357Y-14860643D01*
X11645357Y-14746357D01*
X11631071Y-14717786D01*
X11616785Y-14703500D01*
X11588214Y-14689214D01*
X11531071Y-14689214D01*
X11502500Y-14703500D01*
X11488214Y-14717786D01*
X11473928Y-14746357D01*
X11473928Y-14817786D01*
X11488214Y-14846357D01*
X11502500Y-14860643D01*
X11531071Y-14874929D01*
X11588214Y-14874929D01*
X11616785Y-14860643D01*
X11631071Y-14846357D01*
X11645357Y-14817786D01*
X12002500Y-14989214D02*
X12002500Y-14689214D01*
X12131071Y-14989214D02*
X12131071Y-14832071D01*
X12116785Y-14803500D01*
X12088214Y-14789214D01*
X12045357Y-14789214D01*
X12016785Y-14803500D01*
X12002500Y-14817786D01*
X12316785Y-14989214D02*
X12288214Y-14974929D01*
X12273928Y-14960643D01*
X12259643Y-14932071D01*
X12259643Y-14846357D01*
X12273928Y-14817786D01*
X12288214Y-14803500D01*
X12316785Y-14789214D01*
X12359643Y-14789214D01*
X12388214Y-14803500D01*
X12402500Y-14817786D01*
X12416785Y-14846357D01*
X12416785Y-14932071D01*
X12402500Y-14960643D01*
X12388214Y-14974929D01*
X12359643Y-14989214D01*
X12316785Y-14989214D01*
X12588214Y-14989214D02*
X12559643Y-14974929D01*
X12545357Y-14946357D01*
X12545357Y-14689214D01*
X12816786Y-14974929D02*
X12788214Y-14989214D01*
X12731071Y-14989214D01*
X12702500Y-14974929D01*
X12688214Y-14946357D01*
X12688214Y-14832071D01*
X12702500Y-14803500D01*
X12731071Y-14789214D01*
X12788214Y-14789214D01*
X12816786Y-14803500D01*
X12831071Y-14832071D01*
X12831071Y-14860643D01*
X12688214Y-14889214D01*
X12945357Y-14974929D02*
X12973928Y-14989214D01*
X13031071Y-14989214D01*
X13059643Y-14974929D01*
X13073928Y-14946357D01*
X13073928Y-14932071D01*
X13059643Y-14903500D01*
X13031071Y-14889214D01*
X12988214Y-14889214D01*
X12959643Y-14874929D01*
X12945357Y-14846357D01*
X12945357Y-14832071D01*
X12959643Y-14803500D01*
X12988214Y-14789214D01*
X13031071Y-14789214D01*
X13059643Y-14803500D01*
X13173928Y-15103500D02*
X13188214Y-15089214D01*
X13216786Y-15046357D01*
X13231071Y-15017786D01*
X13245357Y-14974929D01*
X13259643Y-14903500D01*
X13259643Y-14846357D01*
X13245357Y-14774929D01*
X13231071Y-14732071D01*
X13216786Y-14703500D01*
X13188214Y-14660643D01*
X13173928Y-14646357D01*
X6627500Y-15174500D02*
X6627500Y-15324500D01*
X6552500Y-15249500D02*
X6702500Y-15249500D01*
X7131071Y-15385214D02*
X6959643Y-15385214D01*
X7045357Y-15385214D02*
X7045357Y-15085214D01*
X7016786Y-15128071D01*
X6988214Y-15156643D01*
X6959643Y-15170929D01*
X7259643Y-15356643D02*
X7273928Y-15370929D01*
X7259643Y-15385214D01*
X7245357Y-15370929D01*
X7259643Y-15356643D01*
X7259643Y-15385214D01*
X7545357Y-15085214D02*
X7402500Y-15085214D01*
X7388214Y-15228071D01*
X7402500Y-15213786D01*
X7431071Y-15199500D01*
X7502500Y-15199500D01*
X7531071Y-15213786D01*
X7545357Y-15228071D01*
X7559643Y-15256643D01*
X7559643Y-15328071D01*
X7545357Y-15356643D01*
X7531071Y-15370929D01*
X7502500Y-15385214D01*
X7431071Y-15385214D01*
X7402500Y-15370929D01*
X7388214Y-15356643D01*
X7745357Y-15085214D02*
X7773928Y-15085214D01*
X7802500Y-15099500D01*
X7816786Y-15113786D01*
X7831071Y-15142357D01*
X7845357Y-15199500D01*
X7845357Y-15270929D01*
X7831071Y-15328071D01*
X7816786Y-15356643D01*
X7802500Y-15370929D01*
X7773928Y-15385214D01*
X7745357Y-15385214D01*
X7716786Y-15370929D01*
X7702500Y-15356643D01*
X7688214Y-15328071D01*
X7673928Y-15270929D01*
X7673928Y-15199500D01*
X7688214Y-15142357D01*
X7702500Y-15113786D01*
X7716786Y-15099500D01*
X7745357Y-15085214D01*
X7973928Y-15385214D02*
X7973928Y-15185214D01*
X7973928Y-15213786D02*
X7988214Y-15199500D01*
X8016786Y-15185214D01*
X8059643Y-15185214D01*
X8088214Y-15199500D01*
X8102500Y-15228071D01*
X8102500Y-15385214D01*
X8102500Y-15228071D02*
X8116786Y-15199500D01*
X8145357Y-15185214D01*
X8188214Y-15185214D01*
X8216786Y-15199500D01*
X8231071Y-15228071D01*
X8231071Y-15385214D01*
X8373928Y-15385214D02*
X8373928Y-15185214D01*
X8373928Y-15213786D02*
X8388214Y-15199500D01*
X8416786Y-15185214D01*
X8459643Y-15185214D01*
X8488214Y-15199500D01*
X8502500Y-15228071D01*
X8502500Y-15385214D01*
X8502500Y-15228071D02*
X8516786Y-15199500D01*
X8545357Y-15185214D01*
X8588214Y-15185214D01*
X8616786Y-15199500D01*
X8631071Y-15228071D01*
X8631071Y-15385214D01*
X9216786Y-15070929D02*
X8959643Y-15456643D01*
X9602500Y-15085214D02*
X9631071Y-15085214D01*
X9659643Y-15099500D01*
X9673928Y-15113786D01*
X9688214Y-15142357D01*
X9702500Y-15199500D01*
X9702500Y-15270929D01*
X9688214Y-15328071D01*
X9673928Y-15356643D01*
X9659643Y-15370929D01*
X9631071Y-15385214D01*
X9602500Y-15385214D01*
X9573928Y-15370929D01*
X9559643Y-15356643D01*
X9545357Y-15328071D01*
X9531071Y-15270929D01*
X9531071Y-15199500D01*
X9545357Y-15142357D01*
X9559643Y-15113786D01*
X9573928Y-15099500D01*
X9602500Y-15085214D01*
X9831071Y-15356643D02*
X9845357Y-15370929D01*
X9831071Y-15385214D01*
X9816786Y-15370929D01*
X9831071Y-15356643D01*
X9831071Y-15385214D01*
X10031071Y-15085214D02*
X10059643Y-15085214D01*
X10088214Y-15099500D01*
X10102500Y-15113786D01*
X10116786Y-15142357D01*
X10131071Y-15199500D01*
X10131071Y-15270929D01*
X10116786Y-15328071D01*
X10102500Y-15356643D01*
X10088214Y-15370929D01*
X10059643Y-15385214D01*
X10031071Y-15385214D01*
X10002500Y-15370929D01*
X9988214Y-15356643D01*
X9973928Y-15328071D01*
X9959643Y-15270929D01*
X9959643Y-15199500D01*
X9973928Y-15142357D01*
X9988214Y-15113786D01*
X10002500Y-15099500D01*
X10031071Y-15085214D01*
X10402500Y-15085214D02*
X10259643Y-15085214D01*
X10245357Y-15228071D01*
X10259643Y-15213786D01*
X10288214Y-15199500D01*
X10359643Y-15199500D01*
X10388214Y-15213786D01*
X10402500Y-15228071D01*
X10416786Y-15256643D01*
X10416786Y-15328071D01*
X10402500Y-15356643D01*
X10388214Y-15370929D01*
X10359643Y-15385214D01*
X10288214Y-15385214D01*
X10259643Y-15370929D01*
X10245357Y-15356643D01*
X10559643Y-15385214D02*
X10616786Y-15385214D01*
X10645357Y-15370929D01*
X10659643Y-15356643D01*
X10688214Y-15313786D01*
X10702500Y-15256643D01*
X10702500Y-15142357D01*
X10688214Y-15113786D01*
X10673928Y-15099500D01*
X10645357Y-15085214D01*
X10588214Y-15085214D01*
X10559643Y-15099500D01*
X10545357Y-15113786D01*
X10531071Y-15142357D01*
X10531071Y-15213786D01*
X10545357Y-15242357D01*
X10559643Y-15256643D01*
X10588214Y-15270929D01*
X10645357Y-15270929D01*
X10673928Y-15256643D01*
X10688214Y-15242357D01*
X10702500Y-15213786D01*
X10816786Y-15085214D02*
X10816786Y-15142357D01*
X10931071Y-15085214D02*
X10931071Y-15142357D01*
X11373928Y-15499500D02*
X11359643Y-15485214D01*
X11331071Y-15442357D01*
X11316785Y-15413786D01*
X11302500Y-15370929D01*
X11288214Y-15299500D01*
X11288214Y-15242357D01*
X11302500Y-15170929D01*
X11316785Y-15128071D01*
X11331071Y-15099500D01*
X11359643Y-15056643D01*
X11373928Y-15042357D01*
X11531071Y-15213786D02*
X11502500Y-15199500D01*
X11488214Y-15185214D01*
X11473928Y-15156643D01*
X11473928Y-15142357D01*
X11488214Y-15113786D01*
X11502500Y-15099500D01*
X11531071Y-15085214D01*
X11588214Y-15085214D01*
X11616785Y-15099500D01*
X11631071Y-15113786D01*
X11645357Y-15142357D01*
X11645357Y-15156643D01*
X11631071Y-15185214D01*
X11616785Y-15199500D01*
X11588214Y-15213786D01*
X11531071Y-15213786D01*
X11502500Y-15228071D01*
X11488214Y-15242357D01*
X11473928Y-15270929D01*
X11473928Y-15328071D01*
X11488214Y-15356643D01*
X11502500Y-15370929D01*
X11531071Y-15385214D01*
X11588214Y-15385214D01*
X11616785Y-15370929D01*
X11631071Y-15356643D01*
X11645357Y-15328071D01*
X11645357Y-15270929D01*
X11631071Y-15242357D01*
X11616785Y-15228071D01*
X11588214Y-15213786D01*
X12002500Y-15385214D02*
X12002500Y-15085214D01*
X12131071Y-15385214D02*
X12131071Y-15228071D01*
X12116785Y-15199500D01*
X12088214Y-15185214D01*
X12045357Y-15185214D01*
X12016785Y-15199500D01*
X12002500Y-15213786D01*
X12316785Y-15385214D02*
X12288214Y-15370929D01*
X12273928Y-15356643D01*
X12259643Y-15328071D01*
X12259643Y-15242357D01*
X12273928Y-15213786D01*
X12288214Y-15199500D01*
X12316785Y-15185214D01*
X12359643Y-15185214D01*
X12388214Y-15199500D01*
X12402500Y-15213786D01*
X12416785Y-15242357D01*
X12416785Y-15328071D01*
X12402500Y-15356643D01*
X12388214Y-15370929D01*
X12359643Y-15385214D01*
X12316785Y-15385214D01*
X12588214Y-15385214D02*
X12559643Y-15370929D01*
X12545357Y-15342357D01*
X12545357Y-15085214D01*
X12816786Y-15370929D02*
X12788214Y-15385214D01*
X12731071Y-15385214D01*
X12702500Y-15370929D01*
X12688214Y-15342357D01*
X12688214Y-15228071D01*
X12702500Y-15199500D01*
X12731071Y-15185214D01*
X12788214Y-15185214D01*
X12816786Y-15199500D01*
X12831071Y-15228071D01*
X12831071Y-15256643D01*
X12688214Y-15285214D01*
X12945357Y-15370929D02*
X12973928Y-15385214D01*
X13031071Y-15385214D01*
X13059643Y-15370929D01*
X13073928Y-15342357D01*
X13073928Y-15328071D01*
X13059643Y-15299500D01*
X13031071Y-15285214D01*
X12988214Y-15285214D01*
X12959643Y-15270929D01*
X12945357Y-15242357D01*
X12945357Y-15228071D01*
X12959643Y-15199500D01*
X12988214Y-15185214D01*
X13031071Y-15185214D01*
X13059643Y-15199500D01*
X13173928Y-15499500D02*
X13188214Y-15485214D01*
X13216786Y-15442357D01*
X13231071Y-15413786D01*
X13245357Y-15370929D01*
X13259643Y-15299500D01*
X13259643Y-15242357D01*
X13245357Y-15170929D01*
X13231071Y-15128071D01*
X13216786Y-15099500D01*
X13188214Y-15056643D01*
X13173928Y-15042357D01*
M02*
