%FSLAX45Y45*%
G04 Gerber Fmt 4.5, Leading zero omitted, Abs format (unit mm)*
G04 Created by KiCad (PCBNEW 4.0.6) date 05/13/17 18:14:58*
%MOMM*%
%LPD*%
G01*
G04 APERTURE LIST*
%ADD10C,0.127000*%
%ADD11C,0.150000*%
%ADD12C,0.200000*%
%ADD13C,0.300000*%
G04 APERTURE END LIST*
D10*
D11*
X11500000Y-10400000D02*
X11500000Y-13900000D01*
X6700000Y-10400000D02*
X11500000Y-10400000D01*
X6700000Y-13900000D02*
X6700000Y-10400000D01*
X6725000Y-13900000D02*
X11500000Y-13900000D01*
X6700000Y-13900000D02*
X6725000Y-13900000D01*
D12*
X6840000Y-10540000D02*
X7160000Y-10860000D01*
X7160000Y-10540000D02*
X6840000Y-10860000D01*
X11040000Y-10540000D02*
X11360000Y-10860000D01*
X11360000Y-10540000D02*
X11040000Y-10860000D01*
D13*
X6963928Y-14373214D02*
X6963928Y-14073214D01*
X7035357Y-14073214D01*
X7078214Y-14087500D01*
X7106786Y-14116071D01*
X7121071Y-14144643D01*
X7135357Y-14201786D01*
X7135357Y-14244643D01*
X7121071Y-14301786D01*
X7106786Y-14330357D01*
X7078214Y-14358929D01*
X7035357Y-14373214D01*
X6963928Y-14373214D01*
X7263928Y-14373214D02*
X7263928Y-14173214D01*
X7263928Y-14230357D02*
X7278214Y-14201786D01*
X7292500Y-14187500D01*
X7321071Y-14173214D01*
X7349643Y-14173214D01*
X7449643Y-14373214D02*
X7449643Y-14173214D01*
X7449643Y-14073214D02*
X7435357Y-14087500D01*
X7449643Y-14101786D01*
X7463928Y-14087500D01*
X7449643Y-14073214D01*
X7449643Y-14101786D01*
X7635357Y-14373214D02*
X7606786Y-14358929D01*
X7592500Y-14330357D01*
X7592500Y-14073214D01*
X7792500Y-14373214D02*
X7763928Y-14358929D01*
X7749643Y-14330357D01*
X7749643Y-14073214D01*
X8135357Y-14373214D02*
X8135357Y-14073214D01*
X8235357Y-14287500D01*
X8335357Y-14073214D01*
X8335357Y-14373214D01*
X8606786Y-14373214D02*
X8606786Y-14216071D01*
X8592500Y-14187500D01*
X8563929Y-14173214D01*
X8506786Y-14173214D01*
X8478214Y-14187500D01*
X8606786Y-14358929D02*
X8578214Y-14373214D01*
X8506786Y-14373214D01*
X8478214Y-14358929D01*
X8463929Y-14330357D01*
X8463929Y-14301786D01*
X8478214Y-14273214D01*
X8506786Y-14258929D01*
X8578214Y-14258929D01*
X8606786Y-14244643D01*
X8749643Y-14173214D02*
X8749643Y-14473214D01*
X8749643Y-14187500D02*
X8778214Y-14173214D01*
X8835357Y-14173214D01*
X8863929Y-14187500D01*
X8878214Y-14201786D01*
X8892500Y-14230357D01*
X8892500Y-14316071D01*
X8878214Y-14344643D01*
X8863929Y-14358929D01*
X8835357Y-14373214D01*
X8778214Y-14373214D01*
X8749643Y-14358929D01*
X9021071Y-14344643D02*
X9035357Y-14358929D01*
X9021071Y-14373214D01*
X9006786Y-14358929D01*
X9021071Y-14344643D01*
X9021071Y-14373214D01*
X9021071Y-14187500D02*
X9035357Y-14201786D01*
X9021071Y-14216071D01*
X9006786Y-14201786D01*
X9021071Y-14187500D01*
X9021071Y-14216071D01*
X6372500Y-14707500D02*
X6692500Y-15027500D01*
X6692500Y-14707500D02*
X6372500Y-15027500D01*
X6935357Y-14703214D02*
X7121071Y-14703214D01*
X7021071Y-14817500D01*
X7063928Y-14817500D01*
X7092500Y-14831786D01*
X7106786Y-14846071D01*
X7121071Y-14874643D01*
X7121071Y-14946071D01*
X7106786Y-14974643D01*
X7092500Y-14988929D01*
X7063928Y-15003214D01*
X6978214Y-15003214D01*
X6949643Y-14988929D01*
X6935357Y-14974643D01*
X7249643Y-14974643D02*
X7263928Y-14988929D01*
X7249643Y-15003214D01*
X7235357Y-14988929D01*
X7249643Y-14974643D01*
X7249643Y-15003214D01*
X7378214Y-14731786D02*
X7392500Y-14717500D01*
X7421071Y-14703214D01*
X7492500Y-14703214D01*
X7521071Y-14717500D01*
X7535357Y-14731786D01*
X7549643Y-14760357D01*
X7549643Y-14788929D01*
X7535357Y-14831786D01*
X7363928Y-15003214D01*
X7549643Y-15003214D01*
X7735357Y-14703214D02*
X7763928Y-14703214D01*
X7792500Y-14717500D01*
X7806786Y-14731786D01*
X7821071Y-14760357D01*
X7835357Y-14817500D01*
X7835357Y-14888929D01*
X7821071Y-14946071D01*
X7806786Y-14974643D01*
X7792500Y-14988929D01*
X7763928Y-15003214D01*
X7735357Y-15003214D01*
X7706786Y-14988929D01*
X7692500Y-14974643D01*
X7678214Y-14946071D01*
X7663928Y-14888929D01*
X7663928Y-14817500D01*
X7678214Y-14760357D01*
X7692500Y-14731786D01*
X7706786Y-14717500D01*
X7735357Y-14703214D01*
X7963928Y-15003214D02*
X7963928Y-14803214D01*
X7963928Y-14831786D02*
X7978214Y-14817500D01*
X8006786Y-14803214D01*
X8049643Y-14803214D01*
X8078214Y-14817500D01*
X8092500Y-14846071D01*
X8092500Y-15003214D01*
X8092500Y-14846071D02*
X8106786Y-14817500D01*
X8135357Y-14803214D01*
X8178214Y-14803214D01*
X8206786Y-14817500D01*
X8221071Y-14846071D01*
X8221071Y-15003214D01*
X8363928Y-15003214D02*
X8363928Y-14803214D01*
X8363928Y-14831786D02*
X8378214Y-14817500D01*
X8406786Y-14803214D01*
X8449643Y-14803214D01*
X8478214Y-14817500D01*
X8492500Y-14846071D01*
X8492500Y-15003214D01*
X8492500Y-14846071D02*
X8506786Y-14817500D01*
X8535357Y-14803214D01*
X8578214Y-14803214D01*
X8606786Y-14817500D01*
X8621071Y-14846071D01*
X8621071Y-15003214D01*
X9206786Y-14688929D02*
X8949643Y-15074643D01*
X9592500Y-14703214D02*
X9621071Y-14703214D01*
X9649643Y-14717500D01*
X9663928Y-14731786D01*
X9678214Y-14760357D01*
X9692500Y-14817500D01*
X9692500Y-14888929D01*
X9678214Y-14946071D01*
X9663928Y-14974643D01*
X9649643Y-14988929D01*
X9621071Y-15003214D01*
X9592500Y-15003214D01*
X9563928Y-14988929D01*
X9549643Y-14974643D01*
X9535357Y-14946071D01*
X9521071Y-14888929D01*
X9521071Y-14817500D01*
X9535357Y-14760357D01*
X9549643Y-14731786D01*
X9563928Y-14717500D01*
X9592500Y-14703214D01*
X9821071Y-14974643D02*
X9835357Y-14988929D01*
X9821071Y-15003214D01*
X9806786Y-14988929D01*
X9821071Y-14974643D01*
X9821071Y-15003214D01*
X10121071Y-15003214D02*
X9949643Y-15003214D01*
X10035357Y-15003214D02*
X10035357Y-14703214D01*
X10006786Y-14746071D01*
X9978214Y-14774643D01*
X9949643Y-14788929D01*
X10235357Y-14731786D02*
X10249643Y-14717500D01*
X10278214Y-14703214D01*
X10349643Y-14703214D01*
X10378214Y-14717500D01*
X10392500Y-14731786D01*
X10406786Y-14760357D01*
X10406786Y-14788929D01*
X10392500Y-14831786D01*
X10221071Y-15003214D01*
X10406786Y-15003214D01*
X10663928Y-14703214D02*
X10606786Y-14703214D01*
X10578214Y-14717500D01*
X10563928Y-14731786D01*
X10535357Y-14774643D01*
X10521071Y-14831786D01*
X10521071Y-14946071D01*
X10535357Y-14974643D01*
X10549643Y-14988929D01*
X10578214Y-15003214D01*
X10635357Y-15003214D01*
X10663928Y-14988929D01*
X10678214Y-14974643D01*
X10692500Y-14946071D01*
X10692500Y-14874643D01*
X10678214Y-14846071D01*
X10663928Y-14831786D01*
X10635357Y-14817500D01*
X10578214Y-14817500D01*
X10549643Y-14831786D01*
X10535357Y-14846071D01*
X10521071Y-14874643D01*
X10806786Y-14703214D02*
X10806786Y-14760357D01*
X10921071Y-14703214D02*
X10921071Y-14760357D01*
X11363928Y-15117500D02*
X11349643Y-15103214D01*
X11321071Y-15060357D01*
X11306785Y-15031786D01*
X11292500Y-14988929D01*
X11278214Y-14917500D01*
X11278214Y-14860357D01*
X11292500Y-14788929D01*
X11306785Y-14746071D01*
X11321071Y-14717500D01*
X11349643Y-14674643D01*
X11363928Y-14660357D01*
X11463928Y-14731786D02*
X11478214Y-14717500D01*
X11506785Y-14703214D01*
X11578214Y-14703214D01*
X11606785Y-14717500D01*
X11621071Y-14731786D01*
X11635357Y-14760357D01*
X11635357Y-14788929D01*
X11621071Y-14831786D01*
X11449643Y-15003214D01*
X11635357Y-15003214D01*
X11992500Y-15003214D02*
X11992500Y-14703214D01*
X12121071Y-15003214D02*
X12121071Y-14846071D01*
X12106785Y-14817500D01*
X12078214Y-14803214D01*
X12035357Y-14803214D01*
X12006785Y-14817500D01*
X11992500Y-14831786D01*
X12306785Y-15003214D02*
X12278214Y-14988929D01*
X12263928Y-14974643D01*
X12249643Y-14946071D01*
X12249643Y-14860357D01*
X12263928Y-14831786D01*
X12278214Y-14817500D01*
X12306785Y-14803214D01*
X12349643Y-14803214D01*
X12378214Y-14817500D01*
X12392500Y-14831786D01*
X12406785Y-14860357D01*
X12406785Y-14946071D01*
X12392500Y-14974643D01*
X12378214Y-14988929D01*
X12349643Y-15003214D01*
X12306785Y-15003214D01*
X12578214Y-15003214D02*
X12549643Y-14988929D01*
X12535357Y-14960357D01*
X12535357Y-14703214D01*
X12806786Y-14988929D02*
X12778214Y-15003214D01*
X12721071Y-15003214D01*
X12692500Y-14988929D01*
X12678214Y-14960357D01*
X12678214Y-14846071D01*
X12692500Y-14817500D01*
X12721071Y-14803214D01*
X12778214Y-14803214D01*
X12806786Y-14817500D01*
X12821071Y-14846071D01*
X12821071Y-14874643D01*
X12678214Y-14903214D01*
X12935357Y-14988929D02*
X12963928Y-15003214D01*
X13021071Y-15003214D01*
X13049643Y-14988929D01*
X13063928Y-14960357D01*
X13063928Y-14946071D01*
X13049643Y-14917500D01*
X13021071Y-14903214D01*
X12978214Y-14903214D01*
X12949643Y-14888929D01*
X12935357Y-14860357D01*
X12935357Y-14846071D01*
X12949643Y-14817500D01*
X12978214Y-14803214D01*
X13021071Y-14803214D01*
X13049643Y-14817500D01*
X13163928Y-15117500D02*
X13178214Y-15103214D01*
X13206786Y-15060357D01*
X13221071Y-15031786D01*
X13235357Y-14988929D01*
X13249643Y-14917500D01*
X13249643Y-14860357D01*
X13235357Y-14788929D01*
X13221071Y-14746071D01*
X13206786Y-14717500D01*
X13178214Y-14674643D01*
X13163928Y-14660357D01*
X13706786Y-15117500D02*
X13692500Y-15103214D01*
X13663928Y-15060357D01*
X13649643Y-15031786D01*
X13635357Y-14988929D01*
X13621071Y-14917500D01*
X13621071Y-14860357D01*
X13635357Y-14788929D01*
X13649643Y-14746071D01*
X13663928Y-14717500D01*
X13692500Y-14674643D01*
X13706786Y-14660357D01*
X13821071Y-14803214D02*
X13821071Y-15003214D01*
X13821071Y-14831786D02*
X13835357Y-14817500D01*
X13863928Y-14803214D01*
X13906786Y-14803214D01*
X13935357Y-14817500D01*
X13949643Y-14846071D01*
X13949643Y-15003214D01*
X14135357Y-15003214D02*
X14106786Y-14988929D01*
X14092500Y-14974643D01*
X14078214Y-14946071D01*
X14078214Y-14860357D01*
X14092500Y-14831786D01*
X14106786Y-14817500D01*
X14135357Y-14803214D01*
X14178214Y-14803214D01*
X14206786Y-14817500D01*
X14221071Y-14831786D01*
X14235357Y-14860357D01*
X14235357Y-14946071D01*
X14221071Y-14974643D01*
X14206786Y-14988929D01*
X14178214Y-15003214D01*
X14135357Y-15003214D01*
X14321071Y-14803214D02*
X14435357Y-14803214D01*
X14363928Y-14703214D02*
X14363928Y-14960357D01*
X14378214Y-14988929D01*
X14406786Y-15003214D01*
X14435357Y-15003214D01*
X14763928Y-14803214D02*
X14763928Y-15103214D01*
X14763928Y-14817500D02*
X14792500Y-14803214D01*
X14849643Y-14803214D01*
X14878214Y-14817500D01*
X14892500Y-14831786D01*
X14906786Y-14860357D01*
X14906786Y-14946071D01*
X14892500Y-14974643D01*
X14878214Y-14988929D01*
X14849643Y-15003214D01*
X14792500Y-15003214D01*
X14763928Y-14988929D01*
X15078214Y-15003214D02*
X15049643Y-14988929D01*
X15035357Y-14960357D01*
X15035357Y-14703214D01*
X15321071Y-15003214D02*
X15321071Y-14846071D01*
X15306786Y-14817500D01*
X15278214Y-14803214D01*
X15221071Y-14803214D01*
X15192500Y-14817500D01*
X15321071Y-14988929D02*
X15292500Y-15003214D01*
X15221071Y-15003214D01*
X15192500Y-14988929D01*
X15178214Y-14960357D01*
X15178214Y-14931786D01*
X15192500Y-14903214D01*
X15221071Y-14888929D01*
X15292500Y-14888929D01*
X15321071Y-14874643D01*
X15421071Y-14803214D02*
X15535357Y-14803214D01*
X15463929Y-14703214D02*
X15463929Y-14960357D01*
X15478214Y-14988929D01*
X15506786Y-15003214D01*
X15535357Y-15003214D01*
X15749643Y-14988929D02*
X15721071Y-15003214D01*
X15663929Y-15003214D01*
X15635357Y-14988929D01*
X15621071Y-14960357D01*
X15621071Y-14846071D01*
X15635357Y-14817500D01*
X15663929Y-14803214D01*
X15721071Y-14803214D01*
X15749643Y-14817500D01*
X15763929Y-14846071D01*
X15763929Y-14874643D01*
X15621071Y-14903214D01*
X16021071Y-15003214D02*
X16021071Y-14703214D01*
X16021071Y-14988929D02*
X15992500Y-15003214D01*
X15935357Y-15003214D01*
X15906786Y-14988929D01*
X15892500Y-14974643D01*
X15878214Y-14946071D01*
X15878214Y-14860357D01*
X15892500Y-14831786D01*
X15906786Y-14817500D01*
X15935357Y-14803214D01*
X15992500Y-14803214D01*
X16021071Y-14817500D01*
X16135357Y-15117500D02*
X16149643Y-15103214D01*
X16178214Y-15060357D01*
X16192500Y-15031786D01*
X16206786Y-14988929D01*
X16221071Y-14917500D01*
X16221071Y-14860357D01*
X16206786Y-14788929D01*
X16192500Y-14746071D01*
X16178214Y-14717500D01*
X16149643Y-14674643D01*
X16135357Y-14660357D01*
M02*
