G04 #@! TF.FileFunction,Paste,Top*
%FSLAX46Y46*%
G04 Gerber Fmt 4.6, Leading zero omitted, Abs format (unit mm)*
G04 Created by KiCad (PCBNEW 4.0.6) date 04/13/17 22:35:33*
%MOMM*%
%LPD*%
G01*
G04 APERTURE LIST*
%ADD10C,0.100000*%
%ADD11R,2.000000X1.700000*%
%ADD12R,0.750000X1.500000*%
%ADD13R,2.540000X1.270000*%
%ADD14R,1.700000X2.000000*%
%ADD15R,2.000000X2.700000*%
%ADD16R,0.600000X0.900000*%
%ADD17R,0.900000X0.600000*%
%ADD18R,1.050000X0.600000*%
%ADD19R,5.000000X5.000000*%
%ADD20R,5.000000X4.000000*%
G04 APERTURE END LIST*
D10*
D11*
X78100000Y-117900000D03*
X82100000Y-117900000D03*
X96600000Y-107900000D03*
X100600000Y-107900000D03*
X103350000Y-109900000D03*
X107350000Y-109900000D03*
X75100000Y-117900000D03*
X71100000Y-117900000D03*
D12*
X85770000Y-110650000D03*
X84500000Y-110650000D03*
X84500000Y-117150000D03*
X85770000Y-117150000D03*
D13*
X73830000Y-114440000D03*
X78370000Y-114440000D03*
X78370000Y-111900000D03*
X73830000Y-111900000D03*
X73830000Y-109360000D03*
X78370000Y-109360000D03*
D14*
X82100000Y-110900000D03*
X82100000Y-114900000D03*
D15*
X91700000Y-116900000D03*
X88600000Y-116900000D03*
D16*
X100360000Y-115050000D03*
X101210000Y-115050000D03*
X99510000Y-115050000D03*
X100360000Y-112750000D03*
X101210000Y-112750000D03*
X99510000Y-112750000D03*
X99510000Y-113900000D03*
X101210000Y-113900000D03*
D17*
X97660000Y-115780000D03*
X97660000Y-112020000D03*
X97660000Y-114500000D03*
D18*
X103390000Y-114540000D03*
X103390000Y-115810000D03*
X103390000Y-113260000D03*
X103390000Y-111990000D03*
D17*
X97660000Y-113300000D03*
D16*
X100360000Y-113900000D03*
D19*
X71680000Y-129900000D03*
X76690000Y-129900000D03*
D20*
X71680000Y-125900000D03*
X76690000Y-125900000D03*
D19*
X71680000Y-121900000D03*
X76690000Y-121900000D03*
X94180000Y-129900000D03*
X99190000Y-129900000D03*
D20*
X94180000Y-125900000D03*
X99190000Y-125900000D03*
D19*
X94180000Y-121900000D03*
X99190000Y-121900000D03*
X82930000Y-129900000D03*
X87940000Y-129900000D03*
D20*
X82930000Y-125900000D03*
X87940000Y-125900000D03*
D19*
X82930000Y-121900000D03*
X87940000Y-121900000D03*
X105430000Y-129900000D03*
X110440000Y-129900000D03*
D20*
X105430000Y-125900000D03*
X110440000Y-125900000D03*
D19*
X105430000Y-121900000D03*
X110440000Y-121900000D03*
M02*
