G04 #@! TF.FileFunction,Soldermask,Top*
%FSLAX46Y46*%
G04 Gerber Fmt 4.6, Leading zero omitted, Abs format (unit mm)*
G04 Created by KiCad (PCBNEW 4.0.6) date 04/13/17 23:57:20*
%MOMM*%
%LPD*%
G01*
G04 APERTURE LIST*
%ADD10C,0.100000*%
%ADD11C,3.600000*%
%ADD12R,2.400000X2.100000*%
%ADD13C,2.540000*%
%ADD14R,1.150000X1.900000*%
%ADD15R,2.940000X1.670000*%
%ADD16R,2.100000X2.400000*%
%ADD17R,2.400000X3.100000*%
%ADD18R,6.900000X9.400000*%
%ADD19R,1.900000X1.900000*%
%ADD20R,1.290000X0.840000*%
%ADD21R,1.690000X4.840000*%
%ADD22R,3.440000X4.340000*%
%ADD23R,5.400000X5.400000*%
%ADD24R,5.400000X4.400000*%
G04 APERTURE END LIST*
D10*
D11*
X70000000Y-136000000D03*
X114000000Y-136000000D03*
X114000000Y-92000000D03*
X70000000Y-92000000D03*
D12*
X79100000Y-115900000D03*
X83100000Y-115900000D03*
X97600000Y-105900000D03*
X101600000Y-105900000D03*
X104350000Y-107900000D03*
X108350000Y-107900000D03*
X76100000Y-115900000D03*
X72100000Y-115900000D03*
D13*
X110000000Y-95000000D03*
D14*
X86770000Y-108650000D03*
X85500000Y-108650000D03*
X85500000Y-115150000D03*
X86770000Y-115150000D03*
D15*
X74830000Y-112440000D03*
X79370000Y-112440000D03*
X79370000Y-109900000D03*
X74830000Y-109900000D03*
X74830000Y-107360000D03*
X79370000Y-107360000D03*
D16*
X83100000Y-108900000D03*
X83100000Y-112900000D03*
D17*
X92700000Y-114900000D03*
X89600000Y-114900000D03*
D18*
X99310000Y-111900000D03*
D19*
X97560000Y-115400000D03*
X97560000Y-108400000D03*
X99560000Y-108400000D03*
X101560000Y-108400000D03*
X99560000Y-115400000D03*
X96810000Y-110150000D03*
X96810000Y-113650000D03*
X101560000Y-115400000D03*
D20*
X104390000Y-112540000D03*
X104390000Y-113810000D03*
X104390000Y-111260000D03*
D21*
X98910000Y-111900000D03*
D22*
X101110000Y-111900000D03*
D20*
X104390000Y-109990000D03*
D18*
X99310000Y-111900000D03*
D19*
X96810000Y-111900000D03*
D23*
X72680000Y-127900000D03*
X77690000Y-127900000D03*
D24*
X72680000Y-123900000D03*
X77690000Y-123900000D03*
D23*
X72680000Y-119900000D03*
X77690000Y-119900000D03*
X95180000Y-127900000D03*
X100190000Y-127900000D03*
D24*
X95180000Y-123900000D03*
X100190000Y-123900000D03*
D23*
X95180000Y-119900000D03*
X100190000Y-119900000D03*
X83930000Y-127900000D03*
X88940000Y-127900000D03*
D24*
X83930000Y-123900000D03*
X88940000Y-123900000D03*
D23*
X83930000Y-119900000D03*
X88940000Y-119900000D03*
X106430000Y-127900000D03*
X111440000Y-127900000D03*
D24*
X106430000Y-123900000D03*
X111440000Y-123900000D03*
D23*
X106430000Y-119900000D03*
X111440000Y-119900000D03*
M02*
