G04 #@! TF.FileFunction,Copper,L1,Top,Signal*
%FSLAX46Y46*%
G04 Gerber Fmt 4.6, Leading zero omitted, Abs format (unit mm)*
G04 Created by KiCad (PCBNEW 4.0.5) date 02/12/17 12:32:31*
%MOMM*%
%LPD*%
G01*
G04 APERTURE LIST*
%ADD10C,0.100000*%
%ADD11C,0.150000*%
%ADD12C,0.300000*%
%ADD13C,0.400000*%
%ADD14R,6.000000X6.000000*%
%ADD15C,1.000000*%
%ADD16R,1.700000X2.000000*%
%ADD17R,2.000000X1.700000*%
%ADD18R,0.750000X1.500000*%
%ADD19R,2.540000X1.270000*%
%ADD20R,2.000000X2.700000*%
%ADD21R,1.500000X1.500000*%
%ADD22R,1.150000X0.700000*%
%ADD23R,1.550000X4.700000*%
%ADD24R,3.300000X4.200000*%
%ADD25R,6.500000X9.000000*%
%ADD26C,0.600000*%
%ADD27C,0.127000*%
G04 APERTURE END LIST*
D10*
D11*
X79999600Y-155999600D02*
X79999600Y-187999600D01*
X187999600Y-187999600D01*
X187999600Y-155999600D01*
X79999600Y-155999600D01*
D10*
D11*
X10000000Y-10000000D02*
X10000000Y-189999600D01*
X189999600Y-189999600D01*
X189999600Y-10000000D01*
X10000000Y-10000000D01*
D10*
D11*
X12000000Y-12000000D02*
X12000000Y-187999600D01*
X187999600Y-187999600D01*
X187999600Y-12000000D01*
X12000000Y-12000000D01*
D10*
D11*
X60000000Y-12000000D02*
X60000000Y-10000000D01*
D10*
D11*
X110000000Y-12000000D02*
X110000000Y-10000000D01*
D10*
D11*
X160000000Y-12000000D02*
X160000000Y-10000000D01*
D10*
D11*
X35990476Y-11588095D02*
X35247619Y-11588095D01*
X35619048Y-11588095D02*
X35619048Y-10288095D01*
X35495238Y-10473810D01*
X35371429Y-10597619D01*
X35247619Y-10659524D01*
D10*
D11*
X85247619Y-10411905D02*
X85309524Y-10350000D01*
X85433333Y-10288095D01*
X85742857Y-10288095D01*
X85866667Y-10350000D01*
X85928571Y-10411905D01*
X85990476Y-10535714D01*
X85990476Y-10659524D01*
X85928571Y-10845238D01*
X85185714Y-11588095D01*
X85990476Y-11588095D01*
D10*
D11*
X135185714Y-10288095D02*
X135990476Y-10288095D01*
X135557143Y-10783333D01*
X135742857Y-10783333D01*
X135866667Y-10845238D01*
X135928571Y-10907143D01*
X135990476Y-11030952D01*
X135990476Y-11340476D01*
X135928571Y-11464286D01*
X135866667Y-11526190D01*
X135742857Y-11588095D01*
X135371429Y-11588095D01*
X135247619Y-11526190D01*
X135185714Y-11464286D01*
D10*
D11*
X185866667Y-10721429D02*
X185866667Y-11588095D01*
X185557143Y-10226190D02*
X185247619Y-11154762D01*
X186052381Y-11154762D01*
D10*
D11*
X60000000Y-187999600D02*
X60000000Y-189999600D01*
D10*
D11*
X110000000Y-187999600D02*
X110000000Y-189999600D01*
D10*
D11*
X160000000Y-187999600D02*
X160000000Y-189999600D01*
D10*
D11*
X35990476Y-189587695D02*
X35247619Y-189587695D01*
X35619048Y-189587695D02*
X35619048Y-188287695D01*
X35495238Y-188473410D01*
X35371429Y-188597219D01*
X35247619Y-188659124D01*
D10*
D11*
X85247619Y-188411505D02*
X85309524Y-188349600D01*
X85433333Y-188287695D01*
X85742857Y-188287695D01*
X85866667Y-188349600D01*
X85928571Y-188411505D01*
X85990476Y-188535314D01*
X85990476Y-188659124D01*
X85928571Y-188844838D01*
X85185714Y-189587695D01*
X85990476Y-189587695D01*
D10*
D11*
X135185714Y-188287695D02*
X135990476Y-188287695D01*
X135557143Y-188782933D01*
X135742857Y-188782933D01*
X135866667Y-188844838D01*
X135928571Y-188906743D01*
X135990476Y-189030552D01*
X135990476Y-189340076D01*
X135928571Y-189463886D01*
X135866667Y-189525790D01*
X135742857Y-189587695D01*
X135371429Y-189587695D01*
X135247619Y-189525790D01*
X135185714Y-189463886D01*
D10*
D11*
X185866667Y-188721029D02*
X185866667Y-189587695D01*
X185557143Y-188225790D02*
X185247619Y-189154362D01*
X186052381Y-189154362D01*
D10*
D11*
X10000000Y-60000000D02*
X12000000Y-60000000D01*
D10*
D11*
X10000000Y-110000000D02*
X12000000Y-110000000D01*
D10*
D11*
X10000000Y-160000000D02*
X12000000Y-160000000D01*
D10*
D11*
X10690476Y-35216667D02*
X11309524Y-35216667D01*
X10566667Y-35588095D02*
X11000000Y-34288095D01*
X11433333Y-35588095D01*
D10*
D11*
X11092857Y-84907143D02*
X11278571Y-84969048D01*
X11340476Y-85030952D01*
X11402381Y-85154762D01*
X11402381Y-85340476D01*
X11340476Y-85464286D01*
X11278571Y-85526190D01*
X11154762Y-85588095D01*
X10659524Y-85588095D01*
X10659524Y-84288095D01*
X11092857Y-84288095D01*
X11216667Y-84350000D01*
X11278571Y-84411905D01*
X11340476Y-84535714D01*
X11340476Y-84659524D01*
X11278571Y-84783333D01*
X11216667Y-84845238D01*
X11092857Y-84907143D01*
X10659524Y-84907143D01*
D10*
D11*
X11402381Y-135464286D02*
X11340476Y-135526190D01*
X11154762Y-135588095D01*
X11030952Y-135588095D01*
X10845238Y-135526190D01*
X10721429Y-135402381D01*
X10659524Y-135278571D01*
X10597619Y-135030952D01*
X10597619Y-134845238D01*
X10659524Y-134597619D01*
X10721429Y-134473810D01*
X10845238Y-134350000D01*
X11030952Y-134288095D01*
X11154762Y-134288095D01*
X11340476Y-134350000D01*
X11402381Y-134411905D01*
D10*
D11*
X10659524Y-185588095D02*
X10659524Y-184288095D01*
X10969048Y-184288095D01*
X11154762Y-184350000D01*
X11278571Y-184473810D01*
X11340476Y-184597619D01*
X11402381Y-184845238D01*
X11402381Y-185030952D01*
X11340476Y-185278571D01*
X11278571Y-185402381D01*
X11154762Y-185526190D01*
X10969048Y-185588095D01*
X10659524Y-185588095D01*
D10*
D11*
X189999600Y-60000000D02*
X187999600Y-60000000D01*
D10*
D11*
X189999600Y-110000000D02*
X187999600Y-110000000D01*
D10*
D11*
X189999600Y-160000000D02*
X187999600Y-160000000D01*
D10*
D11*
X188690076Y-35216667D02*
X189309124Y-35216667D01*
X188566267Y-35588095D02*
X188999600Y-34288095D01*
X189432933Y-35588095D01*
D10*
D11*
X189092457Y-84907143D02*
X189278171Y-84969048D01*
X189340076Y-85030952D01*
X189401981Y-85154762D01*
X189401981Y-85340476D01*
X189340076Y-85464286D01*
X189278171Y-85526190D01*
X189154362Y-85588095D01*
X188659124Y-85588095D01*
X188659124Y-84288095D01*
X189092457Y-84288095D01*
X189216267Y-84350000D01*
X189278171Y-84411905D01*
X189340076Y-84535714D01*
X189340076Y-84659524D01*
X189278171Y-84783333D01*
X189216267Y-84845238D01*
X189092457Y-84907143D01*
X188659124Y-84907143D01*
D10*
D11*
X189401981Y-135464286D02*
X189340076Y-135526190D01*
X189154362Y-135588095D01*
X189030552Y-135588095D01*
X188844838Y-135526190D01*
X188721029Y-135402381D01*
X188659124Y-135278571D01*
X188597219Y-135030952D01*
X188597219Y-134845238D01*
X188659124Y-134597619D01*
X188721029Y-134473810D01*
X188844838Y-134350000D01*
X189030552Y-134288095D01*
X189154362Y-134288095D01*
X189340076Y-134350000D01*
X189401981Y-134411905D01*
D10*
D11*
X188659124Y-185588095D02*
X188659124Y-184288095D01*
X188968648Y-184288095D01*
X189154362Y-184350000D01*
X189278171Y-184473810D01*
X189340076Y-184597619D01*
X189401981Y-184845238D01*
X189401981Y-185030952D01*
X189340076Y-185278571D01*
X189278171Y-185402381D01*
X189154362Y-185526190D01*
X188968648Y-185588095D01*
X188659124Y-185588095D01*
D10*
D11*
X103356743Y-183778171D02*
X103356743Y-182278171D01*
X103713886Y-182278171D01*
X103928171Y-182349600D01*
X104071029Y-182492457D01*
X104142457Y-182635314D01*
X104213886Y-182921029D01*
X104213886Y-183135314D01*
X104142457Y-183421029D01*
X104071029Y-183563886D01*
X103928171Y-183706743D01*
X103713886Y-183778171D01*
X103356743Y-183778171D01*
X105499600Y-183778171D02*
X105499600Y-182992457D01*
X105428171Y-182849600D01*
X105285314Y-182778171D01*
X104999600Y-182778171D01*
X104856743Y-182849600D01*
X105499600Y-183706743D02*
X105356743Y-183778171D01*
X104999600Y-183778171D01*
X104856743Y-183706743D01*
X104785314Y-183563886D01*
X104785314Y-183421029D01*
X104856743Y-183278171D01*
X104999600Y-183206743D01*
X105356743Y-183206743D01*
X105499600Y-183135314D01*
X105999600Y-182778171D02*
X106571029Y-182778171D01*
X106213886Y-182278171D02*
X106213886Y-183563886D01*
X106285314Y-183706743D01*
X106428172Y-183778171D01*
X106571029Y-183778171D01*
X107642457Y-183706743D02*
X107499600Y-183778171D01*
X107213886Y-183778171D01*
X107071029Y-183706743D01*
X106999600Y-183563886D01*
X106999600Y-182992457D01*
X107071029Y-182849600D01*
X107213886Y-182778171D01*
X107499600Y-182778171D01*
X107642457Y-182849600D01*
X107713886Y-182992457D01*
X107713886Y-183135314D01*
X106999600Y-183278171D01*
X108356743Y-183635314D02*
X108428171Y-183706743D01*
X108356743Y-183778171D01*
X108285314Y-183706743D01*
X108356743Y-183635314D01*
X108356743Y-183778171D01*
X108356743Y-182849600D02*
X108428171Y-182921029D01*
X108356743Y-182992457D01*
X108285314Y-182921029D01*
X108356743Y-182849600D01*
X108356743Y-182992457D01*
D10*
D11*
X79999600Y-184499600D02*
X187999600Y-184499600D01*
D10*
D11*
X81356743Y-186578171D02*
X81356743Y-185078171D01*
X82213886Y-186578171D02*
X81571029Y-185721029D01*
X82213886Y-185078171D02*
X81356743Y-185935314D01*
X82856743Y-186578171D02*
X82856743Y-185578171D01*
X82856743Y-185078171D02*
X82785314Y-185149600D01*
X82856743Y-185221029D01*
X82928171Y-185149600D01*
X82856743Y-185078171D01*
X82856743Y-185221029D01*
X84428172Y-186435314D02*
X84356743Y-186506743D01*
X84142457Y-186578171D01*
X83999600Y-186578171D01*
X83785315Y-186506743D01*
X83642457Y-186363886D01*
X83571029Y-186221029D01*
X83499600Y-185935314D01*
X83499600Y-185721029D01*
X83571029Y-185435314D01*
X83642457Y-185292457D01*
X83785315Y-185149600D01*
X83999600Y-185078171D01*
X84142457Y-185078171D01*
X84356743Y-185149600D01*
X84428172Y-185221029D01*
X85713886Y-186578171D02*
X85713886Y-185792457D01*
X85642457Y-185649600D01*
X85499600Y-185578171D01*
X85213886Y-185578171D01*
X85071029Y-185649600D01*
X85713886Y-186506743D02*
X85571029Y-186578171D01*
X85213886Y-186578171D01*
X85071029Y-186506743D01*
X84999600Y-186363886D01*
X84999600Y-186221029D01*
X85071029Y-186078171D01*
X85213886Y-186006743D01*
X85571029Y-186006743D01*
X85713886Y-185935314D01*
X87071029Y-186578171D02*
X87071029Y-185078171D01*
X87071029Y-186506743D02*
X86928172Y-186578171D01*
X86642458Y-186578171D01*
X86499600Y-186506743D01*
X86428172Y-186435314D01*
X86356743Y-186292457D01*
X86356743Y-185863886D01*
X86428172Y-185721029D01*
X86499600Y-185649600D01*
X86642458Y-185578171D01*
X86928172Y-185578171D01*
X87071029Y-185649600D01*
X88928172Y-185792457D02*
X89428172Y-185792457D01*
X89642458Y-186578171D02*
X88928172Y-186578171D01*
X88928172Y-185078171D01*
X89642458Y-185078171D01*
X90285315Y-186435314D02*
X90356743Y-186506743D01*
X90285315Y-186578171D01*
X90213886Y-186506743D01*
X90285315Y-186435314D01*
X90285315Y-186578171D01*
X90999601Y-186578171D02*
X90999601Y-185078171D01*
X91356744Y-185078171D01*
X91571029Y-185149600D01*
X91713887Y-185292457D01*
X91785315Y-185435314D01*
X91856744Y-185721029D01*
X91856744Y-185935314D01*
X91785315Y-186221029D01*
X91713887Y-186363886D01*
X91571029Y-186506743D01*
X91356744Y-186578171D01*
X90999601Y-186578171D01*
X92499601Y-186435314D02*
X92571029Y-186506743D01*
X92499601Y-186578171D01*
X92428172Y-186506743D01*
X92499601Y-186435314D01*
X92499601Y-186578171D01*
X93142458Y-186149600D02*
X93856744Y-186149600D01*
X92999601Y-186578171D02*
X93499601Y-185078171D01*
X93999601Y-186578171D01*
X94499601Y-186435314D02*
X94571029Y-186506743D01*
X94499601Y-186578171D01*
X94428172Y-186506743D01*
X94499601Y-186435314D01*
X94499601Y-186578171D01*
X97499601Y-186578171D02*
X97499601Y-185078171D01*
X97642458Y-186006743D02*
X98071029Y-186578171D01*
X98071029Y-185578171D02*
X97499601Y-186149600D01*
X98713887Y-186578171D02*
X98713887Y-185578171D01*
X98713887Y-185078171D02*
X98642458Y-185149600D01*
X98713887Y-185221029D01*
X98785315Y-185149600D01*
X98713887Y-185078171D01*
X98713887Y-185221029D01*
X100071030Y-186506743D02*
X99928173Y-186578171D01*
X99642459Y-186578171D01*
X99499601Y-186506743D01*
X99428173Y-186435314D01*
X99356744Y-186292457D01*
X99356744Y-185863886D01*
X99428173Y-185721029D01*
X99499601Y-185649600D01*
X99642459Y-185578171D01*
X99928173Y-185578171D01*
X100071030Y-185649600D01*
X101356744Y-186578171D02*
X101356744Y-185792457D01*
X101285315Y-185649600D01*
X101142458Y-185578171D01*
X100856744Y-185578171D01*
X100713887Y-185649600D01*
X101356744Y-186506743D02*
X101213887Y-186578171D01*
X100856744Y-186578171D01*
X100713887Y-186506743D01*
X100642458Y-186363886D01*
X100642458Y-186221029D01*
X100713887Y-186078171D01*
X100856744Y-186006743D01*
X101213887Y-186006743D01*
X101356744Y-185935314D01*
X102713887Y-186578171D02*
X102713887Y-185078171D01*
X102713887Y-186506743D02*
X102571030Y-186578171D01*
X102285316Y-186578171D01*
X102142458Y-186506743D01*
X102071030Y-186435314D01*
X101999601Y-186292457D01*
X101999601Y-185863886D01*
X102071030Y-185721029D01*
X102142458Y-185649600D01*
X102285316Y-185578171D01*
X102571030Y-185578171D01*
X102713887Y-185649600D01*
X105213887Y-185578171D02*
X105213887Y-186578171D01*
X104856744Y-185006743D02*
X104499601Y-186078171D01*
X105428173Y-186078171D01*
X105999601Y-186435314D02*
X106071029Y-186506743D01*
X105999601Y-186578171D01*
X105928172Y-186506743D01*
X105999601Y-186435314D01*
X105999601Y-186578171D01*
X106999601Y-185078171D02*
X107142458Y-185078171D01*
X107285315Y-185149600D01*
X107356744Y-185221029D01*
X107428173Y-185363886D01*
X107499601Y-185649600D01*
X107499601Y-186006743D01*
X107428173Y-186292457D01*
X107356744Y-186435314D01*
X107285315Y-186506743D01*
X107142458Y-186578171D01*
X106999601Y-186578171D01*
X106856744Y-186506743D01*
X106785315Y-186435314D01*
X106713887Y-186292457D01*
X106642458Y-186006743D01*
X106642458Y-185649600D01*
X106713887Y-185363886D01*
X106785315Y-185221029D01*
X106856744Y-185149600D01*
X106999601Y-185078171D01*
X108142458Y-186435314D02*
X108213886Y-186506743D01*
X108142458Y-186578171D01*
X108071029Y-186506743D01*
X108142458Y-186435314D01*
X108142458Y-186578171D01*
X109571030Y-185078171D02*
X108856744Y-185078171D01*
X108785315Y-185792457D01*
X108856744Y-185721029D01*
X108999601Y-185649600D01*
X109356744Y-185649600D01*
X109499601Y-185721029D01*
X109571030Y-185792457D01*
X109642458Y-185935314D01*
X109642458Y-186292457D01*
X109571030Y-186435314D01*
X109499601Y-186506743D01*
X109356744Y-186578171D01*
X108999601Y-186578171D01*
X108856744Y-186506743D01*
X108785315Y-186435314D01*
D10*
D11*
X79999600Y-181499600D02*
X187999600Y-181499600D01*
D10*
D12*
X167213886Y-183778171D02*
X166713886Y-183063886D01*
X166356743Y-183778171D02*
X166356743Y-182278171D01*
X166928171Y-182278171D01*
X167071029Y-182349600D01*
X167142457Y-182421029D01*
X167213886Y-182563886D01*
X167213886Y-182778171D01*
X167142457Y-182921029D01*
X167071029Y-182992457D01*
X166928171Y-183063886D01*
X166356743Y-183063886D01*
X168428171Y-183706743D02*
X168285314Y-183778171D01*
X167999600Y-183778171D01*
X167856743Y-183706743D01*
X167785314Y-183563886D01*
X167785314Y-182992457D01*
X167856743Y-182849600D01*
X167999600Y-182778171D01*
X168285314Y-182778171D01*
X168428171Y-182849600D01*
X168499600Y-182992457D01*
X168499600Y-183135314D01*
X167785314Y-183278171D01*
X168999600Y-182778171D02*
X169356743Y-183778171D01*
X169713885Y-182778171D01*
X170285314Y-183635314D02*
X170356742Y-183706743D01*
X170285314Y-183778171D01*
X170213885Y-183706743D01*
X170285314Y-183635314D01*
X170285314Y-183778171D01*
X170285314Y-182849600D02*
X170356742Y-182921029D01*
X170285314Y-182992457D01*
X170213885Y-182921029D01*
X170285314Y-182849600D01*
X170285314Y-182992457D01*
D10*
D11*
X81285314Y-183706743D02*
X81499600Y-183778171D01*
X81856743Y-183778171D01*
X81999600Y-183706743D01*
X82071029Y-183635314D01*
X82142457Y-183492457D01*
X82142457Y-183349600D01*
X82071029Y-183206743D01*
X81999600Y-183135314D01*
X81856743Y-183063886D01*
X81571029Y-182992457D01*
X81428171Y-182921029D01*
X81356743Y-182849600D01*
X81285314Y-182706743D01*
X81285314Y-182563886D01*
X81356743Y-182421029D01*
X81428171Y-182349600D01*
X81571029Y-182278171D01*
X81928171Y-182278171D01*
X82142457Y-182349600D01*
X82785314Y-183778171D02*
X82785314Y-182778171D01*
X82785314Y-182278171D02*
X82713885Y-182349600D01*
X82785314Y-182421029D01*
X82856742Y-182349600D01*
X82785314Y-182278171D01*
X82785314Y-182421029D01*
X83356743Y-182778171D02*
X84142457Y-182778171D01*
X83356743Y-183778171D01*
X84142457Y-183778171D01*
X85285314Y-183706743D02*
X85142457Y-183778171D01*
X84856743Y-183778171D01*
X84713886Y-183706743D01*
X84642457Y-183563886D01*
X84642457Y-182992457D01*
X84713886Y-182849600D01*
X84856743Y-182778171D01*
X85142457Y-182778171D01*
X85285314Y-182849600D01*
X85356743Y-182992457D01*
X85356743Y-183135314D01*
X84642457Y-183278171D01*
X85999600Y-183635314D02*
X86071028Y-183706743D01*
X85999600Y-183778171D01*
X85928171Y-183706743D01*
X85999600Y-183635314D01*
X85999600Y-183778171D01*
X85999600Y-182849600D02*
X86071028Y-182921029D01*
X85999600Y-182992457D01*
X85928171Y-182921029D01*
X85999600Y-182849600D01*
X85999600Y-182992457D01*
X87856743Y-182278171D02*
X87856743Y-183492457D01*
X87928171Y-183635314D01*
X87999600Y-183706743D01*
X88142457Y-183778171D01*
X88428171Y-183778171D01*
X88571029Y-183706743D01*
X88642457Y-183635314D01*
X88713886Y-183492457D01*
X88713886Y-182278171D01*
X89356743Y-183706743D02*
X89499600Y-183778171D01*
X89785315Y-183778171D01*
X89928172Y-183706743D01*
X89999600Y-183563886D01*
X89999600Y-183492457D01*
X89928172Y-183349600D01*
X89785315Y-183278171D01*
X89571029Y-183278171D01*
X89428172Y-183206743D01*
X89356743Y-183063886D01*
X89356743Y-182992457D01*
X89428172Y-182849600D01*
X89571029Y-182778171D01*
X89785315Y-182778171D01*
X89928172Y-182849600D01*
X91213886Y-183706743D02*
X91071029Y-183778171D01*
X90785315Y-183778171D01*
X90642458Y-183706743D01*
X90571029Y-183563886D01*
X90571029Y-182992457D01*
X90642458Y-182849600D01*
X90785315Y-182778171D01*
X91071029Y-182778171D01*
X91213886Y-182849600D01*
X91285315Y-182992457D01*
X91285315Y-183135314D01*
X90571029Y-183278171D01*
X91928172Y-183778171D02*
X91928172Y-182778171D01*
X91928172Y-183063886D02*
X91999600Y-182921029D01*
X92071029Y-182849600D01*
X92213886Y-182778171D01*
X92356743Y-182778171D01*
D10*
D11*
X166356743Y-186578171D02*
X166356743Y-185078171D01*
X167713886Y-186578171D02*
X167713886Y-185078171D01*
X167713886Y-186506743D02*
X167571029Y-186578171D01*
X167285315Y-186578171D01*
X167142457Y-186506743D01*
X167071029Y-186435314D01*
X166999600Y-186292457D01*
X166999600Y-185863886D01*
X167071029Y-185721029D01*
X167142457Y-185649600D01*
X167285315Y-185578171D01*
X167571029Y-185578171D01*
X167713886Y-185649600D01*
X168428172Y-186435314D02*
X168499600Y-186506743D01*
X168428172Y-186578171D01*
X168356743Y-186506743D01*
X168428172Y-186435314D01*
X168428172Y-186578171D01*
X168428172Y-185649600D02*
X168499600Y-185721029D01*
X168428172Y-185792457D01*
X168356743Y-185721029D01*
X168428172Y-185649600D01*
X168428172Y-185792457D01*
X171071029Y-186578171D02*
X170213886Y-186578171D01*
X170642458Y-186578171D02*
X170642458Y-185078171D01*
X170499601Y-185292457D01*
X170356743Y-185435314D01*
X170213886Y-185506743D01*
X172785314Y-185006743D02*
X171499600Y-186935314D01*
X174071029Y-186578171D02*
X173213886Y-186578171D01*
X173642458Y-186578171D02*
X173642458Y-185078171D01*
X173499601Y-185292457D01*
X173356743Y-185435314D01*
X173213886Y-185506743D01*
D10*
D11*
X79999600Y-177499600D02*
X187999600Y-177499600D01*
D10*
D13*
X81451981Y-178204362D02*
X82594838Y-178204362D01*
X81773410Y-180204362D02*
X82023410Y-178204362D01*
X83011505Y-180204362D02*
X83178171Y-178871029D01*
X83261505Y-178204362D02*
X83154362Y-178299600D01*
X83237695Y-178394838D01*
X83344839Y-178299600D01*
X83261505Y-178204362D01*
X83237695Y-178394838D01*
X83844838Y-178871029D02*
X84606743Y-178871029D01*
X84213886Y-178204362D02*
X83999600Y-179918648D01*
X84071030Y-180109124D01*
X84249601Y-180204362D01*
X84440077Y-180204362D01*
X85392458Y-180204362D02*
X85213887Y-180109124D01*
X85142457Y-179918648D01*
X85356743Y-178204362D01*
X86928172Y-180109124D02*
X86725791Y-180204362D01*
X86344839Y-180204362D01*
X86166267Y-180109124D01*
X86094838Y-179918648D01*
X86190076Y-179156743D01*
X86309124Y-178966267D01*
X86511505Y-178871029D01*
X86892457Y-178871029D01*
X87071029Y-178966267D01*
X87142457Y-179156743D01*
X87118648Y-179347219D01*
X86142457Y-179537695D01*
X87892457Y-180013886D02*
X87975792Y-180109124D01*
X87868648Y-180204362D01*
X87785315Y-180109124D01*
X87892457Y-180013886D01*
X87868648Y-180204362D01*
X88023410Y-178966267D02*
X88106744Y-179061505D01*
X87999600Y-179156743D01*
X87916267Y-179061505D01*
X88023410Y-178966267D01*
X87999600Y-179156743D01*
D10*
D11*
X81856743Y-175592457D02*
X81356743Y-175592457D01*
X81356743Y-176378171D02*
X81356743Y-174878171D01*
X82071029Y-174878171D01*
X82642457Y-176378171D02*
X82642457Y-175378171D01*
X82642457Y-174878171D02*
X82571028Y-174949600D01*
X82642457Y-175021029D01*
X82713885Y-174949600D01*
X82642457Y-174878171D01*
X82642457Y-175021029D01*
X83571029Y-176378171D02*
X83428171Y-176306743D01*
X83356743Y-176163886D01*
X83356743Y-174878171D01*
X84713885Y-176306743D02*
X84571028Y-176378171D01*
X84285314Y-176378171D01*
X84142457Y-176306743D01*
X84071028Y-176163886D01*
X84071028Y-175592457D01*
X84142457Y-175449600D01*
X84285314Y-175378171D01*
X84571028Y-175378171D01*
X84713885Y-175449600D01*
X84785314Y-175592457D01*
X84785314Y-175735314D01*
X84071028Y-175878171D01*
X85428171Y-176235314D02*
X85499599Y-176306743D01*
X85428171Y-176378171D01*
X85356742Y-176306743D01*
X85428171Y-176235314D01*
X85428171Y-176378171D01*
X85428171Y-175449600D02*
X85499599Y-175521029D01*
X85428171Y-175592457D01*
X85356742Y-175521029D01*
X85428171Y-175449600D01*
X85428171Y-175592457D01*
X87285314Y-176378171D02*
X87285314Y-174878171D01*
X87285314Y-175592457D02*
X88142457Y-175592457D01*
X88142457Y-176378171D02*
X88142457Y-174878171D01*
X88856743Y-176378171D02*
X88856743Y-175378171D01*
X88856743Y-174878171D02*
X88785314Y-174949600D01*
X88856743Y-175021029D01*
X88928171Y-174949600D01*
X88856743Y-174878171D01*
X88856743Y-175021029D01*
X90213886Y-175378171D02*
X90213886Y-176592457D01*
X90142457Y-176735314D01*
X90071029Y-176806743D01*
X89928172Y-176878171D01*
X89713886Y-176878171D01*
X89571029Y-176806743D01*
X90213886Y-176306743D02*
X90071029Y-176378171D01*
X89785315Y-176378171D01*
X89642457Y-176306743D01*
X89571029Y-176235314D01*
X89499600Y-176092457D01*
X89499600Y-175663886D01*
X89571029Y-175521029D01*
X89642457Y-175449600D01*
X89785315Y-175378171D01*
X90071029Y-175378171D01*
X90213886Y-175449600D01*
X90928172Y-176378171D02*
X90928172Y-174878171D01*
X91571029Y-176378171D02*
X91571029Y-175592457D01*
X91499600Y-175449600D01*
X91356743Y-175378171D01*
X91142458Y-175378171D01*
X90999600Y-175449600D01*
X90928172Y-175521029D01*
X93428172Y-176378171D02*
X93428172Y-174878171D01*
X93999600Y-174878171D01*
X94142458Y-174949600D01*
X94213886Y-175021029D01*
X94285315Y-175163886D01*
X94285315Y-175378171D01*
X94213886Y-175521029D01*
X94142458Y-175592457D01*
X93999600Y-175663886D01*
X93428172Y-175663886D01*
X95142458Y-176378171D02*
X94999600Y-176306743D01*
X94928172Y-176235314D01*
X94856743Y-176092457D01*
X94856743Y-175663886D01*
X94928172Y-175521029D01*
X94999600Y-175449600D01*
X95142458Y-175378171D01*
X95356743Y-175378171D01*
X95499600Y-175449600D01*
X95571029Y-175521029D01*
X95642458Y-175663886D01*
X95642458Y-176092457D01*
X95571029Y-176235314D01*
X95499600Y-176306743D01*
X95356743Y-176378171D01*
X95142458Y-176378171D01*
X96142458Y-175378171D02*
X96428172Y-176378171D01*
X96713886Y-175663886D01*
X96999601Y-176378171D01*
X97285315Y-175378171D01*
X98428172Y-176306743D02*
X98285315Y-176378171D01*
X97999601Y-176378171D01*
X97856744Y-176306743D01*
X97785315Y-176163886D01*
X97785315Y-175592457D01*
X97856744Y-175449600D01*
X97999601Y-175378171D01*
X98285315Y-175378171D01*
X98428172Y-175449600D01*
X98499601Y-175592457D01*
X98499601Y-175735314D01*
X97785315Y-175878171D01*
X99142458Y-176378171D02*
X99142458Y-175378171D01*
X99142458Y-175663886D02*
X99213886Y-175521029D01*
X99285315Y-175449600D01*
X99428172Y-175378171D01*
X99571029Y-175378171D01*
X101142457Y-176306743D02*
X101356743Y-176378171D01*
X101713886Y-176378171D01*
X101856743Y-176306743D01*
X101928172Y-176235314D01*
X101999600Y-176092457D01*
X101999600Y-175949600D01*
X101928172Y-175806743D01*
X101856743Y-175735314D01*
X101713886Y-175663886D01*
X101428172Y-175592457D01*
X101285314Y-175521029D01*
X101213886Y-175449600D01*
X101142457Y-175306743D01*
X101142457Y-175163886D01*
X101213886Y-175021029D01*
X101285314Y-174949600D01*
X101428172Y-174878171D01*
X101785314Y-174878171D01*
X101999600Y-174949600D01*
X102499600Y-174878171D02*
X102856743Y-176378171D01*
X103142457Y-175306743D01*
X103428171Y-176378171D01*
X103785314Y-174878171D01*
X104356743Y-176235314D02*
X104428171Y-176306743D01*
X104356743Y-176378171D01*
X104285314Y-176306743D01*
X104356743Y-176235314D01*
X104356743Y-176378171D01*
X105071029Y-176378171D02*
X105071029Y-174878171D01*
X105213886Y-175806743D02*
X105642457Y-176378171D01*
X105642457Y-175378171D02*
X105071029Y-175949600D01*
X106285315Y-176378171D02*
X106285315Y-175378171D01*
X106285315Y-174878171D02*
X106213886Y-174949600D01*
X106285315Y-175021029D01*
X106356743Y-174949600D01*
X106285315Y-174878171D01*
X106285315Y-175021029D01*
X107642458Y-176306743D02*
X107499601Y-176378171D01*
X107213887Y-176378171D01*
X107071029Y-176306743D01*
X106999601Y-176235314D01*
X106928172Y-176092457D01*
X106928172Y-175663886D01*
X106999601Y-175521029D01*
X107071029Y-175449600D01*
X107213887Y-175378171D01*
X107499601Y-175378171D01*
X107642458Y-175449600D01*
X108928172Y-176378171D02*
X108928172Y-175592457D01*
X108856743Y-175449600D01*
X108713886Y-175378171D01*
X108428172Y-175378171D01*
X108285315Y-175449600D01*
X108928172Y-176306743D02*
X108785315Y-176378171D01*
X108428172Y-176378171D01*
X108285315Y-176306743D01*
X108213886Y-176163886D01*
X108213886Y-176021029D01*
X108285315Y-175878171D01*
X108428172Y-175806743D01*
X108785315Y-175806743D01*
X108928172Y-175735314D01*
X110285315Y-176378171D02*
X110285315Y-174878171D01*
X110285315Y-176306743D02*
X110142458Y-176378171D01*
X109856744Y-176378171D01*
X109713886Y-176306743D01*
X109642458Y-176235314D01*
X109571029Y-176092457D01*
X109571029Y-175663886D01*
X109642458Y-175521029D01*
X109713886Y-175449600D01*
X109856744Y-175378171D01*
X110142458Y-175378171D01*
X110285315Y-175449600D01*
X110642458Y-176521029D02*
X111785315Y-176521029D01*
X112142458Y-175378171D02*
X112142458Y-176878171D01*
X112142458Y-175449600D02*
X112285315Y-175378171D01*
X112571029Y-175378171D01*
X112713886Y-175449600D01*
X112785315Y-175521029D01*
X112856744Y-175663886D01*
X112856744Y-176092457D01*
X112785315Y-176235314D01*
X112713886Y-176306743D01*
X112571029Y-176378171D01*
X112285315Y-176378171D01*
X112142458Y-176306743D01*
X114142458Y-176306743D02*
X113999601Y-176378171D01*
X113713887Y-176378171D01*
X113571029Y-176306743D01*
X113499601Y-176235314D01*
X113428172Y-176092457D01*
X113428172Y-175663886D01*
X113499601Y-175521029D01*
X113571029Y-175449600D01*
X113713887Y-175378171D01*
X113999601Y-175378171D01*
X114142458Y-175449600D01*
X114785315Y-176378171D02*
X114785315Y-174878171D01*
X114785315Y-175449600D02*
X114928172Y-175378171D01*
X115213886Y-175378171D01*
X115356743Y-175449600D01*
X115428172Y-175521029D01*
X115499601Y-175663886D01*
X115499601Y-176092457D01*
X115428172Y-176235314D01*
X115356743Y-176306743D01*
X115213886Y-176378171D01*
X114928172Y-176378171D01*
X114785315Y-176306743D01*
D10*
D11*
X79999600Y-171499600D02*
X187999600Y-171499600D01*
D10*
D11*
X81285314Y-173606743D02*
X81499600Y-173678171D01*
X81856743Y-173678171D01*
X81999600Y-173606743D01*
X82071029Y-173535314D01*
X82142457Y-173392457D01*
X82142457Y-173249600D01*
X82071029Y-173106743D01*
X81999600Y-173035314D01*
X81856743Y-172963886D01*
X81571029Y-172892457D01*
X81428171Y-172821029D01*
X81356743Y-172749600D01*
X81285314Y-172606743D01*
X81285314Y-172463886D01*
X81356743Y-172321029D01*
X81428171Y-172249600D01*
X81571029Y-172178171D01*
X81928171Y-172178171D01*
X82142457Y-172249600D01*
X82785314Y-173678171D02*
X82785314Y-172178171D01*
X83428171Y-173678171D02*
X83428171Y-172892457D01*
X83356742Y-172749600D01*
X83213885Y-172678171D01*
X82999600Y-172678171D01*
X82856742Y-172749600D01*
X82785314Y-172821029D01*
X84713885Y-173606743D02*
X84571028Y-173678171D01*
X84285314Y-173678171D01*
X84142457Y-173606743D01*
X84071028Y-173463886D01*
X84071028Y-172892457D01*
X84142457Y-172749600D01*
X84285314Y-172678171D01*
X84571028Y-172678171D01*
X84713885Y-172749600D01*
X84785314Y-172892457D01*
X84785314Y-173035314D01*
X84071028Y-173178171D01*
X85999599Y-173606743D02*
X85856742Y-173678171D01*
X85571028Y-173678171D01*
X85428171Y-173606743D01*
X85356742Y-173463886D01*
X85356742Y-172892457D01*
X85428171Y-172749600D01*
X85571028Y-172678171D01*
X85856742Y-172678171D01*
X85999599Y-172749600D01*
X86071028Y-172892457D01*
X86071028Y-173035314D01*
X85356742Y-173178171D01*
X86499599Y-172678171D02*
X87071028Y-172678171D01*
X86713885Y-172178171D02*
X86713885Y-173463886D01*
X86785313Y-173606743D01*
X86928171Y-173678171D01*
X87071028Y-173678171D01*
X87571028Y-173535314D02*
X87642456Y-173606743D01*
X87571028Y-173678171D01*
X87499599Y-173606743D01*
X87571028Y-173535314D01*
X87571028Y-173678171D01*
X87571028Y-172749600D02*
X87642456Y-172821029D01*
X87571028Y-172892457D01*
X87499599Y-172821029D01*
X87571028Y-172749600D01*
X87571028Y-172892457D01*
D10*
D11*
X99999600Y-181499600D02*
X99999600Y-184499600D01*
D10*
D11*
X163999600Y-181499600D02*
X163999600Y-187999600D01*
X67100000Y-102900000D02*
X67100000Y-134900000D01*
X115100000Y-102900000D02*
X67100000Y-102900000D01*
X115100000Y-134900000D02*
X115100000Y-102900000D01*
X68766666Y-134900000D02*
G75*
G03X68766666Y-134900000I-1666666J0D01*
G01*
X64600000Y-134900000D02*
X69600000Y-134900000D01*
X67100000Y-132400000D02*
X67100000Y-137400000D01*
X115100000Y-134900000D02*
X67100000Y-134900000D01*
X68766666Y-134900000D02*
G75*
G03X68766666Y-134900000I-1666666J0D01*
G01*
X64600000Y-134900000D02*
X69600000Y-134900000D01*
X67100000Y-132400000D02*
X67100000Y-137400000D01*
D14*
X106100000Y-129440000D03*
X106100000Y-124360000D03*
D15*
X113600000Y-133300000D03*
D16*
X81100000Y-121900000D03*
X81100000Y-117900000D03*
D17*
X101100000Y-107900000D03*
X105100000Y-107900000D03*
X105100000Y-110900000D03*
X109100000Y-110900000D03*
X78100000Y-117900000D03*
X74100000Y-117900000D03*
D15*
X68500000Y-133300000D03*
X89100000Y-106900000D03*
D18*
X85770000Y-110650000D03*
X84500000Y-110650000D03*
X84500000Y-117150000D03*
X85770000Y-117150000D03*
D19*
X73830000Y-114440000D03*
X78370000Y-114440000D03*
X78370000Y-111900000D03*
X73830000Y-111900000D03*
X73830000Y-109360000D03*
X78370000Y-109360000D03*
D16*
X82100000Y-110900000D03*
X82100000Y-114900000D03*
D20*
X92700000Y-117900000D03*
X89600000Y-117900000D03*
D14*
X86100000Y-129440000D03*
X86100000Y-124360000D03*
X96100000Y-129440000D03*
X96100000Y-124360000D03*
X76100000Y-129440000D03*
X76100000Y-124360000D03*
D21*
X98060000Y-118400000D03*
X98060000Y-111400000D03*
X100060000Y-111400000D03*
X102060000Y-111400000D03*
X100060000Y-118400000D03*
X97310000Y-113150000D03*
X97310000Y-116650000D03*
X102060000Y-118400000D03*
D22*
X104890000Y-115540000D03*
X104890000Y-116810000D03*
X104890000Y-114260000D03*
D23*
X99410000Y-114900000D03*
D24*
X101610000Y-114900000D03*
D22*
X104890000Y-112990000D03*
D25*
X99810000Y-114900000D03*
D21*
X97310000Y-114900000D03*
D26*
X104890000Y-116810000D03*
X104890000Y-115540000D03*
X104890000Y-114260000D03*
D13*
X109100000Y-110900000D02*
X109100000Y-107390000D01*
X80130000Y-111900000D02*
X77370000Y-111900000D01*
X81110000Y-112880000D02*
X80130000Y-111900000D01*
X89320000Y-112880000D02*
X81110000Y-112880000D01*
X89999998Y-112200002D02*
X89320000Y-112880000D01*
X89999998Y-110241472D02*
X89999998Y-112200002D01*
X91691470Y-108550000D02*
X89999998Y-110241472D01*
X97820000Y-108550000D02*
X91691470Y-108550000D01*
X99950000Y-106420000D02*
X97820000Y-108550000D01*
X108130000Y-106420000D02*
X99950000Y-106420000D01*
X109100000Y-107390000D02*
X108130000Y-106420000D01*
X77370000Y-111900000D02*
X78980000Y-111900000D01*
X74830000Y-111900000D02*
X75400000Y-111900000D01*
X76120000Y-112620000D02*
X76120000Y-124340000D01*
X75400000Y-111900000D02*
X76120000Y-112620000D01*
X76120000Y-124340000D02*
X76100000Y-124360000D01*
X85770000Y-117150000D02*
X85770000Y-118170000D01*
X79740000Y-120540000D02*
X81100000Y-121900000D01*
X79740000Y-116700000D02*
X79740000Y-120540000D01*
X80070000Y-116370000D02*
X79740000Y-116700000D01*
X82560000Y-116370000D02*
X80070000Y-116370000D01*
X83110000Y-116920000D02*
X82560000Y-116370000D01*
X83110000Y-117700000D02*
X83110000Y-116920000D01*
X83900000Y-118490000D02*
X83110000Y-117700000D01*
X85450000Y-118490000D02*
X83900000Y-118490000D01*
X85770000Y-118170000D02*
X85450000Y-118490000D01*
X84500000Y-110650000D02*
X84500000Y-111590000D01*
X71930000Y-113350000D02*
X73020000Y-114440000D01*
X71930000Y-108020000D02*
X71930000Y-113350000D01*
X72700000Y-107250000D02*
X71930000Y-108020000D01*
X85530000Y-107250000D02*
X72700000Y-107250000D01*
X86940000Y-108660000D02*
X85530000Y-107250000D01*
X86940000Y-111710000D02*
X86940000Y-108660000D01*
X86600000Y-112050000D02*
X86940000Y-111710000D01*
X84960000Y-112050000D02*
X86600000Y-112050000D01*
X84500000Y-111590000D02*
X84960000Y-112050000D01*
X73020000Y-114440000D02*
X74830000Y-114440000D01*
X74100000Y-117900000D02*
X74100000Y-115170000D01*
X74100000Y-115170000D02*
X74830000Y-114440000D01*
X81100000Y-117900000D02*
X81340000Y-117900000D01*
X81340000Y-117900000D02*
X82740000Y-119300000D01*
X82740000Y-119300000D02*
X88700000Y-119300000D01*
X88700000Y-119300000D02*
X90100000Y-117900000D01*
X77370000Y-114440000D02*
X81640000Y-114440000D01*
X81640000Y-114440000D02*
X82100000Y-114900000D01*
X77370000Y-114440000D02*
X77370000Y-117170000D01*
X77370000Y-117170000D02*
X78100000Y-117900000D01*
X74830000Y-109360000D02*
X74830000Y-109070000D01*
X74830000Y-109070000D02*
X75860000Y-108040000D01*
X75860000Y-108040000D02*
X85110000Y-108040000D01*
X85110000Y-108040000D02*
X85770000Y-108700000D01*
X85770000Y-108700000D02*
X85770000Y-110650000D01*
X77370000Y-109360000D02*
X80560000Y-109360000D01*
X80560000Y-109360000D02*
X82100000Y-110900000D01*
X101100000Y-107900000D02*
X99750000Y-107900000D01*
X84500000Y-115260000D02*
X84500000Y-117150000D01*
X85160000Y-114600000D02*
X84500000Y-115260000D01*
X89080000Y-114600000D02*
X85160000Y-114600000D01*
X90600000Y-113080000D02*
X89080000Y-114600000D01*
X90600000Y-110490000D02*
X90600000Y-113080000D01*
X91900000Y-109190000D02*
X90600000Y-110490000D01*
X98460000Y-109190000D02*
X91900000Y-109190000D01*
X99750000Y-107900000D02*
X98460000Y-109190000D01*
X105100000Y-107900000D02*
X105100000Y-110900000D01*
X105100000Y-110900000D02*
X106100000Y-110900000D01*
X104890000Y-112990000D02*
X104890000Y-111110000D01*
X104890000Y-111110000D02*
X105100000Y-110900000D01*
D27*
G36*
X103036500Y-119836500D02*
X100100000Y-119836500D01*
X100075295Y-119841503D01*
X100054483Y-119855723D01*
X100040843Y-119876920D01*
X100036500Y-119900000D01*
X100036500Y-132836500D01*
X92163500Y-132836500D01*
X92163500Y-109963500D01*
X103036500Y-109963500D01*
X103036500Y-119836500D01*
X103036500Y-119836500D01*
G37*
X103036500Y-119836500D02*
X100100000Y-119836500D01*
X100075295Y-119841503D01*
X100054483Y-119855723D01*
X100040843Y-119876920D01*
X100036500Y-119900000D01*
X100036500Y-132836500D01*
X92163500Y-132836500D01*
X92163500Y-109963500D01*
X103036500Y-109963500D01*
X103036500Y-119836500D01*
G36*
X90036500Y-132836500D02*
X72163500Y-132836500D01*
X72163500Y-120963500D01*
X90036500Y-120963500D01*
X90036500Y-132836500D01*
X90036500Y-132836500D01*
G37*
X90036500Y-132836500D02*
X72163500Y-132836500D01*
X72163500Y-120963500D01*
X90036500Y-120963500D01*
X90036500Y-132836500D01*
G36*
X110286500Y-132836500D02*
X101913500Y-132836500D01*
X101913500Y-120463500D01*
X103600000Y-120463500D01*
X103624705Y-120458497D01*
X103645517Y-120444277D01*
X103659157Y-120423080D01*
X103663500Y-120400000D01*
X103663500Y-113963500D01*
X107600000Y-113963500D01*
X107624705Y-113958497D01*
X107645517Y-113944277D01*
X107659157Y-113923080D01*
X107663500Y-113900000D01*
X107663500Y-109713500D01*
X110286500Y-109713500D01*
X110286500Y-132836500D01*
X110286500Y-132836500D01*
G37*
X110286500Y-132836500D02*
X101913500Y-132836500D01*
X101913500Y-120463500D01*
X103600000Y-120463500D01*
X103624705Y-120458497D01*
X103645517Y-120444277D01*
X103659157Y-120423080D01*
X103663500Y-120400000D01*
X103663500Y-113963500D01*
X107600000Y-113963500D01*
X107624705Y-113958497D01*
X107645517Y-113944277D01*
X107659157Y-113923080D01*
X107663500Y-113900000D01*
X107663500Y-109713500D01*
X110286500Y-109713500D01*
X110286500Y-132836500D01*
M02*
