G04 #@! TF.FileFunction,Legend,Bot*
%FSLAX46Y46*%
G04 Gerber Fmt 4.6, Leading zero omitted, Abs format (unit mm)*
G04 Created by KiCad (PCBNEW 4.0.6) date 04/21/17 03:50:56*
%MOMM*%
%LPD*%
G01*
G04 APERTURE LIST*
%ADD10C,0.100000*%
%ADD11C,0.200000*%
%ADD12C,0.150000*%
%ADD13C,0.010000*%
%ADD14C,0.381000*%
G04 APERTURE END LIST*
D10*
X88404762Y-102452381D02*
X88071429Y-103452381D01*
X87738095Y-102452381D01*
X87023809Y-103404762D02*
X87119047Y-103452381D01*
X87309524Y-103452381D01*
X87404762Y-103404762D01*
X87452381Y-103309524D01*
X87452381Y-102928571D01*
X87404762Y-102833333D01*
X87309524Y-102785714D01*
X87119047Y-102785714D01*
X87023809Y-102833333D01*
X86976190Y-102928571D01*
X86976190Y-103023810D01*
X87452381Y-103119048D01*
X86547619Y-103452381D02*
X86547619Y-102785714D01*
X86547619Y-102976190D02*
X86500000Y-102880952D01*
X86452381Y-102833333D01*
X86357143Y-102785714D01*
X86261904Y-102785714D01*
X84642856Y-103452381D02*
X85214285Y-103452381D01*
X84928571Y-103452381D02*
X84928571Y-102452381D01*
X85023809Y-102595238D01*
X85119047Y-102690476D01*
X85214285Y-102738095D01*
X84214285Y-103357143D02*
X84166666Y-103404762D01*
X84214285Y-103452381D01*
X84261904Y-103404762D01*
X84214285Y-103357143D01*
X84214285Y-103452381D01*
X83690476Y-103452381D02*
X83500000Y-103452381D01*
X83404761Y-103404762D01*
X83357142Y-103357143D01*
X83261904Y-103214286D01*
X83214285Y-103023810D01*
X83214285Y-102642857D01*
X83261904Y-102547619D01*
X83309523Y-102500000D01*
X83404761Y-102452381D01*
X83595238Y-102452381D01*
X83690476Y-102500000D01*
X83738095Y-102547619D01*
X83785714Y-102642857D01*
X83785714Y-102880952D01*
X83738095Y-102976190D01*
X83690476Y-103023810D01*
X83595238Y-103071429D01*
X83404761Y-103071429D01*
X83309523Y-103023810D01*
X83261904Y-102976190D01*
X83214285Y-102880952D01*
X97279762Y-101452381D02*
X97755953Y-101452381D01*
X97630953Y-100452381D01*
X96946429Y-101452381D02*
X96863095Y-100785714D01*
X96821429Y-100452381D02*
X96875000Y-100500000D01*
X96833333Y-100547619D01*
X96779762Y-100500000D01*
X96821429Y-100452381D01*
X96833333Y-100547619D01*
X96529762Y-100785714D02*
X96148810Y-100785714D01*
X96345239Y-100452381D02*
X96452381Y-101309524D01*
X96416667Y-101404762D01*
X96327382Y-101452381D01*
X96232144Y-101452381D01*
X95958333Y-100785714D02*
X95577381Y-100785714D01*
X95773810Y-100452381D02*
X95880952Y-101309524D01*
X95845238Y-101404762D01*
X95755953Y-101452381D01*
X95660715Y-101452381D01*
X95184524Y-101452381D02*
X95273809Y-101404762D01*
X95309523Y-101309524D01*
X95202381Y-100452381D01*
X94416665Y-101404762D02*
X94517856Y-101452381D01*
X94708333Y-101452381D01*
X94797618Y-101404762D01*
X94833332Y-101309524D01*
X94785713Y-100928571D01*
X94726190Y-100833333D01*
X94624999Y-100785714D01*
X94434522Y-100785714D01*
X94345237Y-100833333D01*
X94309522Y-100928571D01*
X94321427Y-101023810D01*
X94809523Y-101119048D01*
X93184523Y-101452381D02*
X93059523Y-100452381D01*
X92821428Y-100452381D01*
X92684522Y-100500000D01*
X92601189Y-100595238D01*
X92565474Y-100690476D01*
X92541665Y-100880952D01*
X92559522Y-101023810D01*
X92630951Y-101214286D01*
X92690474Y-101309524D01*
X92797617Y-101404762D01*
X92946428Y-101452381D01*
X93184523Y-101452381D01*
X92184523Y-101452381D02*
X92101189Y-100785714D01*
X92124999Y-100976190D02*
X92065475Y-100880952D01*
X92011904Y-100833333D01*
X91910713Y-100785714D01*
X91815474Y-100785714D01*
X91565475Y-101452381D02*
X91482141Y-100785714D01*
X91440475Y-100452381D02*
X91494046Y-100500000D01*
X91452379Y-100547619D01*
X91398808Y-100500000D01*
X91440475Y-100452381D01*
X91452379Y-100547619D01*
X91101189Y-100785714D02*
X90946428Y-101452381D01*
X90624998Y-100785714D01*
X89940474Y-101404762D02*
X90041665Y-101452381D01*
X90232142Y-101452381D01*
X90321427Y-101404762D01*
X90357141Y-101309524D01*
X90309522Y-100928571D01*
X90249999Y-100833333D01*
X90148808Y-100785714D01*
X89958331Y-100785714D01*
X89869046Y-100833333D01*
X89833331Y-100928571D01*
X89845236Y-101023810D01*
X90333332Y-101119048D01*
X89470237Y-101452381D02*
X89386903Y-100785714D01*
X89410713Y-100976190D02*
X89351189Y-100880952D01*
X89297618Y-100833333D01*
X89196427Y-100785714D01*
X89101188Y-100785714D01*
D11*
X98072916Y-98791667D02*
X97854166Y-97041667D01*
X97437500Y-97041667D01*
X97197917Y-97125000D01*
X97052083Y-97291667D01*
X96989584Y-97458333D01*
X96947916Y-97791667D01*
X96979166Y-98041667D01*
X97104167Y-98375000D01*
X97208333Y-98541667D01*
X97395834Y-98708333D01*
X97656250Y-98791667D01*
X98072916Y-98791667D01*
X96322916Y-98791667D02*
X96177083Y-97625000D01*
X96104166Y-97041667D02*
X96197917Y-97125000D01*
X96125000Y-97208333D01*
X96031250Y-97125000D01*
X96104166Y-97041667D01*
X96125000Y-97208333D01*
X94593750Y-97625000D02*
X94770833Y-99041667D01*
X94875001Y-99208333D01*
X94968750Y-99291667D01*
X95145834Y-99375000D01*
X95395834Y-99375000D01*
X95552083Y-99291667D01*
X94729167Y-98708333D02*
X94906250Y-98791667D01*
X95239583Y-98791667D01*
X95395834Y-98708333D01*
X95468750Y-98625000D01*
X95531251Y-98458333D01*
X95468751Y-97958333D01*
X95364583Y-97791667D01*
X95270834Y-97708333D01*
X95093750Y-97625000D01*
X94760417Y-97625000D01*
X94604167Y-97708333D01*
X93906250Y-98791667D02*
X93760417Y-97625000D01*
X93687500Y-97041667D02*
X93781251Y-97125000D01*
X93708334Y-97208333D01*
X93614584Y-97125000D01*
X93687500Y-97041667D01*
X93708334Y-97208333D01*
X93177084Y-97625000D02*
X92510418Y-97625000D01*
X92854167Y-97041667D02*
X93041667Y-98541667D01*
X92979168Y-98708333D01*
X92822917Y-98791667D01*
X92656251Y-98791667D01*
X91322917Y-98791667D02*
X91208334Y-97875000D01*
X91270835Y-97708333D01*
X91427084Y-97625000D01*
X91760418Y-97625000D01*
X91937501Y-97708333D01*
X91312501Y-98708333D02*
X91489584Y-98791667D01*
X91906251Y-98791667D01*
X92062501Y-98708333D01*
X92125001Y-98541667D01*
X92104168Y-98375000D01*
X92000001Y-98208333D01*
X91822918Y-98125000D01*
X91406251Y-98125000D01*
X91229167Y-98041667D01*
X90239584Y-98791667D02*
X90395835Y-98708333D01*
X90458334Y-98541667D01*
X90270834Y-97041667D01*
X88312502Y-98708333D02*
X88072918Y-98791667D01*
X87656251Y-98791667D01*
X87479168Y-98708333D01*
X87385418Y-98625000D01*
X87281252Y-98458333D01*
X87260418Y-98291667D01*
X87322918Y-98125000D01*
X87395834Y-98041667D01*
X87552085Y-97958333D01*
X87875001Y-97875000D01*
X88031251Y-97791667D01*
X88104168Y-97708333D01*
X88166668Y-97541667D01*
X88145835Y-97375000D01*
X88041668Y-97208333D01*
X87947918Y-97125000D01*
X87770834Y-97041667D01*
X87354168Y-97041667D01*
X87114585Y-97125000D01*
X85677084Y-97625000D02*
X85895834Y-99375000D01*
X85812501Y-98708333D02*
X85989584Y-98791667D01*
X86322917Y-98791667D01*
X86479168Y-98708333D01*
X86552084Y-98625000D01*
X86614585Y-98458333D01*
X86552085Y-97958333D01*
X86447917Y-97791667D01*
X86354168Y-97708333D01*
X86177084Y-97625000D01*
X85843751Y-97625000D01*
X85687501Y-97708333D01*
X84989584Y-98791667D02*
X84843751Y-97625000D01*
X84885418Y-97958333D02*
X84781251Y-97791667D01*
X84687502Y-97708333D01*
X84510418Y-97625000D01*
X84343751Y-97625000D01*
X84010418Y-97625000D02*
X83343752Y-97625000D01*
X83687501Y-97041667D02*
X83875001Y-98541667D01*
X83812502Y-98708333D01*
X83656251Y-98791667D01*
X83489585Y-98791667D01*
D12*
X67000000Y-89000000D02*
X67000000Y-139000000D01*
X117000000Y-89000000D02*
X67000000Y-89000000D01*
X117000000Y-139000000D02*
X117000000Y-89000000D01*
X67000000Y-139000000D02*
X117000000Y-139000000D01*
D13*
G36*
X104734108Y-92868270D02*
X104318289Y-92906540D01*
X103922299Y-92955770D01*
X103641246Y-93006918D01*
X103421656Y-93079539D01*
X103210055Y-93193188D01*
X102952967Y-93367419D01*
X102842509Y-93446214D01*
X102487936Y-93693396D01*
X102112037Y-93944817D01*
X101787453Y-94152053D01*
X101743243Y-94179019D01*
X101297158Y-94528177D01*
X100895202Y-94989795D01*
X100581405Y-95506999D01*
X100440867Y-95861354D01*
X100345918Y-96298805D01*
X100284303Y-96836308D01*
X100259177Y-97407295D01*
X100273697Y-97945195D01*
X100323105Y-98345149D01*
X100426259Y-98717945D01*
X100584149Y-99126918D01*
X100717453Y-99398956D01*
X100866137Y-99675380D01*
X100936254Y-99845784D01*
X100937351Y-99948745D01*
X100878978Y-100022844D01*
X100873101Y-100027789D01*
X100655109Y-100307469D01*
X100524499Y-100686784D01*
X100497139Y-100972296D01*
X100547781Y-101499778D01*
X100704176Y-101898093D01*
X100975345Y-102176431D01*
X101370309Y-102343977D01*
X101898087Y-102409919D01*
X101908959Y-102410234D01*
X102252041Y-102432842D01*
X102518751Y-102494444D01*
X102790188Y-102619455D01*
X102990232Y-102735766D01*
X103953089Y-103245548D01*
X105063163Y-103700923D01*
X106305432Y-104095971D01*
X106731888Y-104209561D01*
X107050916Y-104286968D01*
X107270366Y-104322607D01*
X107453958Y-104319511D01*
X107665413Y-104280714D01*
X107760842Y-104258540D01*
X107979381Y-104166992D01*
X108250030Y-104000264D01*
X108438907Y-103856065D01*
X108689083Y-103663287D01*
X108921621Y-103514185D01*
X109048732Y-103454869D01*
X109326441Y-103329991D01*
X109669532Y-103120504D01*
X110026608Y-102863950D01*
X110346275Y-102597875D01*
X110577135Y-102359822D01*
X110612631Y-102312457D01*
X110765724Y-102044499D01*
X110840857Y-101762543D01*
X110846968Y-101678625D01*
X110585788Y-101678625D01*
X110444370Y-102111324D01*
X110405470Y-102178464D01*
X110233780Y-102375688D01*
X109958076Y-102609974D01*
X109627641Y-102846452D01*
X109291758Y-103050255D01*
X108999710Y-103186515D01*
X108963333Y-103198783D01*
X108782694Y-103291254D01*
X108543419Y-103458151D01*
X108378838Y-103592992D01*
X108125105Y-103801231D01*
X107893961Y-103943564D01*
X107654825Y-104021840D01*
X107377119Y-104037908D01*
X107030262Y-103993618D01*
X106583674Y-103890817D01*
X106021388Y-103735548D01*
X105493236Y-103569202D01*
X104950312Y-103371830D01*
X104416328Y-103154868D01*
X103914996Y-102929753D01*
X103470028Y-102707924D01*
X103105136Y-102500817D01*
X102844033Y-102319870D01*
X102710430Y-102176520D01*
X102698000Y-102132540D01*
X102627825Y-102076473D01*
X102465167Y-102100094D01*
X102107622Y-102148601D01*
X101720262Y-102126585D01*
X101353975Y-102044805D01*
X101059649Y-101914018D01*
X100902372Y-101769749D01*
X100858355Y-101637154D01*
X100811188Y-101399705D01*
X100786664Y-101230272D01*
X100782748Y-100762509D01*
X100901117Y-100408073D01*
X101140730Y-100169813D01*
X101181721Y-100147007D01*
X101467751Y-100042112D01*
X101744640Y-100051181D01*
X102073568Y-100177387D01*
X102108706Y-100195054D01*
X102307784Y-100279627D01*
X102427932Y-100297892D01*
X102444000Y-100279721D01*
X102526542Y-100242629D01*
X102766137Y-100215287D01*
X103150734Y-100198572D01*
X103629333Y-100193334D01*
X104814667Y-100193334D01*
X104814667Y-100804266D01*
X105682500Y-100748381D01*
X106183777Y-100714500D01*
X106540547Y-100682634D01*
X106777356Y-100645068D01*
X106918750Y-100594087D01*
X106989274Y-100521978D01*
X107013476Y-100421026D01*
X107016000Y-100329288D01*
X107041746Y-100134508D01*
X107149172Y-100005599D01*
X107323959Y-99908508D01*
X107661079Y-99807466D01*
X107874292Y-99814887D01*
X108052348Y-99886647D01*
X108113353Y-100033341D01*
X108116667Y-100115394D01*
X108131935Y-100277488D01*
X108210941Y-100346308D01*
X108403483Y-100360229D01*
X108434167Y-100360053D01*
X108780132Y-100344027D01*
X109153504Y-100305826D01*
X109512286Y-100252402D01*
X109814478Y-100190708D01*
X110018081Y-100127696D01*
X110078678Y-100087816D01*
X110133951Y-100039697D01*
X110147370Y-100122020D01*
X110185444Y-100270166D01*
X110282510Y-100507320D01*
X110380906Y-100710004D01*
X110564588Y-101208792D01*
X110585788Y-101678625D01*
X110846968Y-101678625D01*
X110861726Y-101475983D01*
X110887711Y-101148186D01*
X110958731Y-100918408D01*
X111093874Y-100719715D01*
X111266455Y-100447195D01*
X111368213Y-100150268D01*
X111382062Y-99949975D01*
X111076020Y-99949975D01*
X111067710Y-100161488D01*
X111000865Y-100395685D01*
X110893717Y-100593822D01*
X110764500Y-100697153D01*
X110733998Y-100701334D01*
X110724069Y-100643199D01*
X110802574Y-100498999D01*
X110834579Y-100453838D01*
X110971068Y-100171954D01*
X110971661Y-100151569D01*
X110708865Y-100151569D01*
X110652702Y-100297818D01*
X110562942Y-100362667D01*
X110500875Y-100291894D01*
X110487333Y-100198330D01*
X110525693Y-100039563D01*
X110610810Y-99967580D01*
X110693425Y-100014979D01*
X110708865Y-100151569D01*
X110971661Y-100151569D01*
X110976344Y-99990733D01*
X110969197Y-99848137D01*
X111007564Y-99819892D01*
X111076020Y-99949975D01*
X111382062Y-99949975D01*
X111386683Y-99883146D01*
X111328823Y-99727667D01*
X110826000Y-99727667D01*
X110783667Y-99770000D01*
X110741333Y-99727667D01*
X110783667Y-99685334D01*
X110826000Y-99727667D01*
X111328823Y-99727667D01*
X111324614Y-99716357D01*
X111189865Y-99612804D01*
X110640809Y-99612804D01*
X110623773Y-99660208D01*
X110534651Y-99730360D01*
X110386252Y-99833938D01*
X110327939Y-99830674D01*
X110318000Y-99727667D01*
X110390091Y-99625475D01*
X110508500Y-99603360D01*
X110640809Y-99612804D01*
X111189865Y-99612804D01*
X111153958Y-99585210D01*
X110896064Y-99457492D01*
X110630100Y-99367978D01*
X110482925Y-99346667D01*
X110404013Y-99334674D01*
X110382012Y-99274902D01*
X110419990Y-99131658D01*
X110521016Y-98869251D01*
X110524785Y-98859834D01*
X110724340Y-98190419D01*
X110763885Y-97695667D01*
X110499910Y-97695667D01*
X110476382Y-97952634D01*
X110422210Y-98249554D01*
X110347045Y-98557174D01*
X110260536Y-98846245D01*
X110172334Y-99087515D01*
X110092089Y-99251733D01*
X110029451Y-99309647D01*
X109994071Y-99232007D01*
X109993805Y-99229733D01*
X109965944Y-98985800D01*
X109233621Y-99045220D01*
X108758698Y-99086691D01*
X108427471Y-99125825D01*
X108214573Y-99169855D01*
X108094636Y-99226013D01*
X108042294Y-99301533D01*
X108032000Y-99387843D01*
X108000070Y-99526032D01*
X107872641Y-99545879D01*
X107834675Y-99539464D01*
X107629701Y-99547213D01*
X107372396Y-99614117D01*
X107316335Y-99635872D01*
X107085679Y-99730315D01*
X106972162Y-99751307D01*
X106934479Y-99685140D01*
X106931326Y-99518106D01*
X106931333Y-99508099D01*
X106931333Y-99246197D01*
X106105833Y-99301363D01*
X105613452Y-99336151D01*
X105265236Y-99368986D01*
X105036286Y-99407403D01*
X104901700Y-99458935D01*
X104836578Y-99531120D01*
X104816019Y-99631490D01*
X104814667Y-99692061D01*
X104814667Y-99939334D01*
X102518291Y-99939334D01*
X102571736Y-99579500D01*
X102577351Y-99240053D01*
X102516650Y-98754171D01*
X102435002Y-98330667D01*
X102324413Y-97764005D01*
X102269473Y-97317492D01*
X102274384Y-96949950D01*
X102343351Y-96620197D01*
X102480579Y-96287054D01*
X102680535Y-95925663D01*
X102935525Y-95536423D01*
X103174628Y-95244581D01*
X103354167Y-95091799D01*
X103560466Y-94955395D01*
X103610045Y-94881088D01*
X103500786Y-94861897D01*
X103290667Y-94882462D01*
X103079416Y-94905793D01*
X102961133Y-94909145D01*
X102952000Y-94905125D01*
X103026219Y-94814129D01*
X103222063Y-94692150D01*
X103499314Y-94558007D01*
X103817755Y-94430522D01*
X104137167Y-94328515D01*
X104238578Y-94303042D01*
X104890155Y-94153202D01*
X105753800Y-94485101D01*
X106159773Y-94647747D01*
X106441813Y-94781356D01*
X106637332Y-94908301D01*
X106783739Y-95050953D01*
X106857607Y-95145202D01*
X107008055Y-95333904D01*
X107097097Y-95392914D01*
X107149599Y-95338250D01*
X107151151Y-95334290D01*
X107177696Y-95143756D01*
X107164341Y-94984921D01*
X107166538Y-94817728D01*
X107247779Y-94774667D01*
X107489585Y-94834478D01*
X107805667Y-94999276D01*
X108158225Y-95247111D01*
X108373998Y-95428740D01*
X108597141Y-95626488D01*
X108722764Y-95720854D01*
X108778878Y-95722103D01*
X108793497Y-95640499D01*
X108794000Y-95582642D01*
X108730065Y-95265979D01*
X108532843Y-94903155D01*
X108194214Y-94479828D01*
X108128776Y-94408123D01*
X107927649Y-94188578D01*
X107835554Y-94076174D01*
X107845676Y-94054550D01*
X107951198Y-94107345D01*
X108019693Y-94146266D01*
X108252945Y-94307621D01*
X108441964Y-94483482D01*
X108455211Y-94499500D01*
X108589932Y-94637894D01*
X108685112Y-94690000D01*
X108824365Y-94752888D01*
X109036889Y-94922739D01*
X109293978Y-95171332D01*
X109566926Y-95470448D01*
X109827026Y-95791866D01*
X109883647Y-95868225D01*
X110200246Y-96358128D01*
X110395117Y-96810011D01*
X110487220Y-97280092D01*
X110499910Y-97695667D01*
X110763885Y-97695667D01*
X110777998Y-97519102D01*
X110688446Y-96802759D01*
X110660670Y-96679667D01*
X110499315Y-96002334D01*
X110745047Y-96298667D01*
X110893294Y-96489739D01*
X110982060Y-96627831D01*
X110993056Y-96658500D01*
X111061616Y-96719210D01*
X111089179Y-96722000D01*
X111142866Y-96657275D01*
X111126565Y-96498328D01*
X111054227Y-96298004D01*
X110939803Y-96109146D01*
X110921539Y-96087000D01*
X110737202Y-95862766D01*
X110654900Y-95739785D01*
X110677352Y-95726379D01*
X110807278Y-95830865D01*
X110850853Y-95870776D01*
X111048601Y-96028597D01*
X111151153Y-96054775D01*
X111155359Y-95959797D01*
X111058066Y-95754151D01*
X110941314Y-95569648D01*
X110586959Y-95076564D01*
X110260298Y-94700054D01*
X109918662Y-94402674D01*
X109519381Y-94146976D01*
X109049321Y-93909274D01*
X108634774Y-93724155D01*
X108217471Y-93552461D01*
X107854320Y-93416897D01*
X107659321Y-93354685D01*
X107157001Y-93215027D01*
X107425167Y-93105604D01*
X107604719Y-93025579D01*
X107691790Y-92973492D01*
X107693333Y-92970060D01*
X107615246Y-92957991D01*
X107407292Y-92948631D01*
X107108935Y-92943508D01*
X106994833Y-92943005D01*
X106570610Y-92933394D01*
X106122836Y-92909054D01*
X105746640Y-92875195D01*
X105738345Y-92874195D01*
X105285929Y-92849761D01*
X104734108Y-92868270D01*
X104734108Y-92868270D01*
G37*
X104734108Y-92868270D02*
X104318289Y-92906540D01*
X103922299Y-92955770D01*
X103641246Y-93006918D01*
X103421656Y-93079539D01*
X103210055Y-93193188D01*
X102952967Y-93367419D01*
X102842509Y-93446214D01*
X102487936Y-93693396D01*
X102112037Y-93944817D01*
X101787453Y-94152053D01*
X101743243Y-94179019D01*
X101297158Y-94528177D01*
X100895202Y-94989795D01*
X100581405Y-95506999D01*
X100440867Y-95861354D01*
X100345918Y-96298805D01*
X100284303Y-96836308D01*
X100259177Y-97407295D01*
X100273697Y-97945195D01*
X100323105Y-98345149D01*
X100426259Y-98717945D01*
X100584149Y-99126918D01*
X100717453Y-99398956D01*
X100866137Y-99675380D01*
X100936254Y-99845784D01*
X100937351Y-99948745D01*
X100878978Y-100022844D01*
X100873101Y-100027789D01*
X100655109Y-100307469D01*
X100524499Y-100686784D01*
X100497139Y-100972296D01*
X100547781Y-101499778D01*
X100704176Y-101898093D01*
X100975345Y-102176431D01*
X101370309Y-102343977D01*
X101898087Y-102409919D01*
X101908959Y-102410234D01*
X102252041Y-102432842D01*
X102518751Y-102494444D01*
X102790188Y-102619455D01*
X102990232Y-102735766D01*
X103953089Y-103245548D01*
X105063163Y-103700923D01*
X106305432Y-104095971D01*
X106731888Y-104209561D01*
X107050916Y-104286968D01*
X107270366Y-104322607D01*
X107453958Y-104319511D01*
X107665413Y-104280714D01*
X107760842Y-104258540D01*
X107979381Y-104166992D01*
X108250030Y-104000264D01*
X108438907Y-103856065D01*
X108689083Y-103663287D01*
X108921621Y-103514185D01*
X109048732Y-103454869D01*
X109326441Y-103329991D01*
X109669532Y-103120504D01*
X110026608Y-102863950D01*
X110346275Y-102597875D01*
X110577135Y-102359822D01*
X110612631Y-102312457D01*
X110765724Y-102044499D01*
X110840857Y-101762543D01*
X110846968Y-101678625D01*
X110585788Y-101678625D01*
X110444370Y-102111324D01*
X110405470Y-102178464D01*
X110233780Y-102375688D01*
X109958076Y-102609974D01*
X109627641Y-102846452D01*
X109291758Y-103050255D01*
X108999710Y-103186515D01*
X108963333Y-103198783D01*
X108782694Y-103291254D01*
X108543419Y-103458151D01*
X108378838Y-103592992D01*
X108125105Y-103801231D01*
X107893961Y-103943564D01*
X107654825Y-104021840D01*
X107377119Y-104037908D01*
X107030262Y-103993618D01*
X106583674Y-103890817D01*
X106021388Y-103735548D01*
X105493236Y-103569202D01*
X104950312Y-103371830D01*
X104416328Y-103154868D01*
X103914996Y-102929753D01*
X103470028Y-102707924D01*
X103105136Y-102500817D01*
X102844033Y-102319870D01*
X102710430Y-102176520D01*
X102698000Y-102132540D01*
X102627825Y-102076473D01*
X102465167Y-102100094D01*
X102107622Y-102148601D01*
X101720262Y-102126585D01*
X101353975Y-102044805D01*
X101059649Y-101914018D01*
X100902372Y-101769749D01*
X100858355Y-101637154D01*
X100811188Y-101399705D01*
X100786664Y-101230272D01*
X100782748Y-100762509D01*
X100901117Y-100408073D01*
X101140730Y-100169813D01*
X101181721Y-100147007D01*
X101467751Y-100042112D01*
X101744640Y-100051181D01*
X102073568Y-100177387D01*
X102108706Y-100195054D01*
X102307784Y-100279627D01*
X102427932Y-100297892D01*
X102444000Y-100279721D01*
X102526542Y-100242629D01*
X102766137Y-100215287D01*
X103150734Y-100198572D01*
X103629333Y-100193334D01*
X104814667Y-100193334D01*
X104814667Y-100804266D01*
X105682500Y-100748381D01*
X106183777Y-100714500D01*
X106540547Y-100682634D01*
X106777356Y-100645068D01*
X106918750Y-100594087D01*
X106989274Y-100521978D01*
X107013476Y-100421026D01*
X107016000Y-100329288D01*
X107041746Y-100134508D01*
X107149172Y-100005599D01*
X107323959Y-99908508D01*
X107661079Y-99807466D01*
X107874292Y-99814887D01*
X108052348Y-99886647D01*
X108113353Y-100033341D01*
X108116667Y-100115394D01*
X108131935Y-100277488D01*
X108210941Y-100346308D01*
X108403483Y-100360229D01*
X108434167Y-100360053D01*
X108780132Y-100344027D01*
X109153504Y-100305826D01*
X109512286Y-100252402D01*
X109814478Y-100190708D01*
X110018081Y-100127696D01*
X110078678Y-100087816D01*
X110133951Y-100039697D01*
X110147370Y-100122020D01*
X110185444Y-100270166D01*
X110282510Y-100507320D01*
X110380906Y-100710004D01*
X110564588Y-101208792D01*
X110585788Y-101678625D01*
X110846968Y-101678625D01*
X110861726Y-101475983D01*
X110887711Y-101148186D01*
X110958731Y-100918408D01*
X111093874Y-100719715D01*
X111266455Y-100447195D01*
X111368213Y-100150268D01*
X111382062Y-99949975D01*
X111076020Y-99949975D01*
X111067710Y-100161488D01*
X111000865Y-100395685D01*
X110893717Y-100593822D01*
X110764500Y-100697153D01*
X110733998Y-100701334D01*
X110724069Y-100643199D01*
X110802574Y-100498999D01*
X110834579Y-100453838D01*
X110971068Y-100171954D01*
X110971661Y-100151569D01*
X110708865Y-100151569D01*
X110652702Y-100297818D01*
X110562942Y-100362667D01*
X110500875Y-100291894D01*
X110487333Y-100198330D01*
X110525693Y-100039563D01*
X110610810Y-99967580D01*
X110693425Y-100014979D01*
X110708865Y-100151569D01*
X110971661Y-100151569D01*
X110976344Y-99990733D01*
X110969197Y-99848137D01*
X111007564Y-99819892D01*
X111076020Y-99949975D01*
X111382062Y-99949975D01*
X111386683Y-99883146D01*
X111328823Y-99727667D01*
X110826000Y-99727667D01*
X110783667Y-99770000D01*
X110741333Y-99727667D01*
X110783667Y-99685334D01*
X110826000Y-99727667D01*
X111328823Y-99727667D01*
X111324614Y-99716357D01*
X111189865Y-99612804D01*
X110640809Y-99612804D01*
X110623773Y-99660208D01*
X110534651Y-99730360D01*
X110386252Y-99833938D01*
X110327939Y-99830674D01*
X110318000Y-99727667D01*
X110390091Y-99625475D01*
X110508500Y-99603360D01*
X110640809Y-99612804D01*
X111189865Y-99612804D01*
X111153958Y-99585210D01*
X110896064Y-99457492D01*
X110630100Y-99367978D01*
X110482925Y-99346667D01*
X110404013Y-99334674D01*
X110382012Y-99274902D01*
X110419990Y-99131658D01*
X110521016Y-98869251D01*
X110524785Y-98859834D01*
X110724340Y-98190419D01*
X110763885Y-97695667D01*
X110499910Y-97695667D01*
X110476382Y-97952634D01*
X110422210Y-98249554D01*
X110347045Y-98557174D01*
X110260536Y-98846245D01*
X110172334Y-99087515D01*
X110092089Y-99251733D01*
X110029451Y-99309647D01*
X109994071Y-99232007D01*
X109993805Y-99229733D01*
X109965944Y-98985800D01*
X109233621Y-99045220D01*
X108758698Y-99086691D01*
X108427471Y-99125825D01*
X108214573Y-99169855D01*
X108094636Y-99226013D01*
X108042294Y-99301533D01*
X108032000Y-99387843D01*
X108000070Y-99526032D01*
X107872641Y-99545879D01*
X107834675Y-99539464D01*
X107629701Y-99547213D01*
X107372396Y-99614117D01*
X107316335Y-99635872D01*
X107085679Y-99730315D01*
X106972162Y-99751307D01*
X106934479Y-99685140D01*
X106931326Y-99518106D01*
X106931333Y-99508099D01*
X106931333Y-99246197D01*
X106105833Y-99301363D01*
X105613452Y-99336151D01*
X105265236Y-99368986D01*
X105036286Y-99407403D01*
X104901700Y-99458935D01*
X104836578Y-99531120D01*
X104816019Y-99631490D01*
X104814667Y-99692061D01*
X104814667Y-99939334D01*
X102518291Y-99939334D01*
X102571736Y-99579500D01*
X102577351Y-99240053D01*
X102516650Y-98754171D01*
X102435002Y-98330667D01*
X102324413Y-97764005D01*
X102269473Y-97317492D01*
X102274384Y-96949950D01*
X102343351Y-96620197D01*
X102480579Y-96287054D01*
X102680535Y-95925663D01*
X102935525Y-95536423D01*
X103174628Y-95244581D01*
X103354167Y-95091799D01*
X103560466Y-94955395D01*
X103610045Y-94881088D01*
X103500786Y-94861897D01*
X103290667Y-94882462D01*
X103079416Y-94905793D01*
X102961133Y-94909145D01*
X102952000Y-94905125D01*
X103026219Y-94814129D01*
X103222063Y-94692150D01*
X103499314Y-94558007D01*
X103817755Y-94430522D01*
X104137167Y-94328515D01*
X104238578Y-94303042D01*
X104890155Y-94153202D01*
X105753800Y-94485101D01*
X106159773Y-94647747D01*
X106441813Y-94781356D01*
X106637332Y-94908301D01*
X106783739Y-95050953D01*
X106857607Y-95145202D01*
X107008055Y-95333904D01*
X107097097Y-95392914D01*
X107149599Y-95338250D01*
X107151151Y-95334290D01*
X107177696Y-95143756D01*
X107164341Y-94984921D01*
X107166538Y-94817728D01*
X107247779Y-94774667D01*
X107489585Y-94834478D01*
X107805667Y-94999276D01*
X108158225Y-95247111D01*
X108373998Y-95428740D01*
X108597141Y-95626488D01*
X108722764Y-95720854D01*
X108778878Y-95722103D01*
X108793497Y-95640499D01*
X108794000Y-95582642D01*
X108730065Y-95265979D01*
X108532843Y-94903155D01*
X108194214Y-94479828D01*
X108128776Y-94408123D01*
X107927649Y-94188578D01*
X107835554Y-94076174D01*
X107845676Y-94054550D01*
X107951198Y-94107345D01*
X108019693Y-94146266D01*
X108252945Y-94307621D01*
X108441964Y-94483482D01*
X108455211Y-94499500D01*
X108589932Y-94637894D01*
X108685112Y-94690000D01*
X108824365Y-94752888D01*
X109036889Y-94922739D01*
X109293978Y-95171332D01*
X109566926Y-95470448D01*
X109827026Y-95791866D01*
X109883647Y-95868225D01*
X110200246Y-96358128D01*
X110395117Y-96810011D01*
X110487220Y-97280092D01*
X110499910Y-97695667D01*
X110763885Y-97695667D01*
X110777998Y-97519102D01*
X110688446Y-96802759D01*
X110660670Y-96679667D01*
X110499315Y-96002334D01*
X110745047Y-96298667D01*
X110893294Y-96489739D01*
X110982060Y-96627831D01*
X110993056Y-96658500D01*
X111061616Y-96719210D01*
X111089179Y-96722000D01*
X111142866Y-96657275D01*
X111126565Y-96498328D01*
X111054227Y-96298004D01*
X110939803Y-96109146D01*
X110921539Y-96087000D01*
X110737202Y-95862766D01*
X110654900Y-95739785D01*
X110677352Y-95726379D01*
X110807278Y-95830865D01*
X110850853Y-95870776D01*
X111048601Y-96028597D01*
X111151153Y-96054775D01*
X111155359Y-95959797D01*
X111058066Y-95754151D01*
X110941314Y-95569648D01*
X110586959Y-95076564D01*
X110260298Y-94700054D01*
X109918662Y-94402674D01*
X109519381Y-94146976D01*
X109049321Y-93909274D01*
X108634774Y-93724155D01*
X108217471Y-93552461D01*
X107854320Y-93416897D01*
X107659321Y-93354685D01*
X107157001Y-93215027D01*
X107425167Y-93105604D01*
X107604719Y-93025579D01*
X107691790Y-92973492D01*
X107693333Y-92970060D01*
X107615246Y-92957991D01*
X107407292Y-92948631D01*
X107108935Y-92943508D01*
X106994833Y-92943005D01*
X106570610Y-92933394D01*
X106122836Y-92909054D01*
X105746640Y-92875195D01*
X105738345Y-92874195D01*
X105285929Y-92849761D01*
X104734108Y-92868270D01*
G36*
X107263377Y-102112360D02*
X106893281Y-102285963D01*
X106656167Y-102460332D01*
X106538571Y-102594780D01*
X106538599Y-102706522D01*
X106670162Y-102809979D01*
X106947170Y-102919573D01*
X107164167Y-102986984D01*
X107483064Y-103081933D01*
X107742685Y-103160765D01*
X107897125Y-103209501D01*
X107913873Y-103215326D01*
X107994919Y-103163566D01*
X108105689Y-102996275D01*
X107947333Y-102996275D01*
X107933759Y-103065608D01*
X107871779Y-103089180D01*
X107729504Y-103063647D01*
X107475046Y-102985668D01*
X107304482Y-102928892D01*
X106988133Y-102818009D01*
X106809305Y-102739000D01*
X106743192Y-102675538D01*
X106764985Y-102611296D01*
X106786434Y-102587947D01*
X107008273Y-102473118D01*
X107295444Y-102459255D01*
X107580546Y-102542178D01*
X107733578Y-102646705D01*
X107879926Y-102824769D01*
X107946896Y-102986326D01*
X107947333Y-102996275D01*
X108105689Y-102996275D01*
X108107357Y-102993756D01*
X108196345Y-102810831D01*
X108385277Y-102371647D01*
X108207744Y-102194114D01*
X107961330Y-102059449D01*
X107632967Y-102034527D01*
X107263377Y-102112360D01*
X107263377Y-102112360D01*
G37*
X107263377Y-102112360D02*
X106893281Y-102285963D01*
X106656167Y-102460332D01*
X106538571Y-102594780D01*
X106538599Y-102706522D01*
X106670162Y-102809979D01*
X106947170Y-102919573D01*
X107164167Y-102986984D01*
X107483064Y-103081933D01*
X107742685Y-103160765D01*
X107897125Y-103209501D01*
X107913873Y-103215326D01*
X107994919Y-103163566D01*
X108105689Y-102996275D01*
X107947333Y-102996275D01*
X107933759Y-103065608D01*
X107871779Y-103089180D01*
X107729504Y-103063647D01*
X107475046Y-102985668D01*
X107304482Y-102928892D01*
X106988133Y-102818009D01*
X106809305Y-102739000D01*
X106743192Y-102675538D01*
X106764985Y-102611296D01*
X106786434Y-102587947D01*
X107008273Y-102473118D01*
X107295444Y-102459255D01*
X107580546Y-102542178D01*
X107733578Y-102646705D01*
X107879926Y-102824769D01*
X107946896Y-102986326D01*
X107947333Y-102996275D01*
X108105689Y-102996275D01*
X108107357Y-102993756D01*
X108196345Y-102810831D01*
X108385277Y-102371647D01*
X108207744Y-102194114D01*
X107961330Y-102059449D01*
X107632967Y-102034527D01*
X107263377Y-102112360D01*
G36*
X101819728Y-100313507D02*
X101511609Y-100442327D01*
X101328082Y-100661998D01*
X101276415Y-100941268D01*
X101363878Y-101248886D01*
X101543831Y-101499638D01*
X101752437Y-101703970D01*
X101895612Y-101787847D01*
X102011014Y-101765154D01*
X102088400Y-101700400D01*
X102163667Y-101546795D01*
X102195951Y-101340567D01*
X102221491Y-101095535D01*
X102266161Y-100918196D01*
X102274799Y-100706922D01*
X102265741Y-100680109D01*
X102057762Y-100680109D01*
X102013606Y-100903469D01*
X101991275Y-100961510D01*
X101922827Y-101180519D01*
X101907822Y-101341806D01*
X101911740Y-101357558D01*
X101912413Y-101439512D01*
X101839196Y-101422638D01*
X101731871Y-101333617D01*
X101630218Y-101199130D01*
X101606184Y-101152614D01*
X101545041Y-100885280D01*
X101620504Y-100684356D01*
X101789177Y-100586248D01*
X101983654Y-100575672D01*
X102057762Y-100680109D01*
X102265741Y-100680109D01*
X102207438Y-100507534D01*
X102098550Y-100339170D01*
X101962918Y-100294083D01*
X101819728Y-100313507D01*
X101819728Y-100313507D01*
G37*
X101819728Y-100313507D02*
X101511609Y-100442327D01*
X101328082Y-100661998D01*
X101276415Y-100941268D01*
X101363878Y-101248886D01*
X101543831Y-101499638D01*
X101752437Y-101703970D01*
X101895612Y-101787847D01*
X102011014Y-101765154D01*
X102088400Y-101700400D01*
X102163667Y-101546795D01*
X102195951Y-101340567D01*
X102221491Y-101095535D01*
X102266161Y-100918196D01*
X102274799Y-100706922D01*
X102265741Y-100680109D01*
X102057762Y-100680109D01*
X102013606Y-100903469D01*
X101991275Y-100961510D01*
X101922827Y-101180519D01*
X101907822Y-101341806D01*
X101911740Y-101357558D01*
X101912413Y-101439512D01*
X101839196Y-101422638D01*
X101731871Y-101333617D01*
X101630218Y-101199130D01*
X101606184Y-101152614D01*
X101545041Y-100885280D01*
X101620504Y-100684356D01*
X101789177Y-100586248D01*
X101983654Y-100575672D01*
X102057762Y-100680109D01*
X102265741Y-100680109D01*
X102207438Y-100507534D01*
X102098550Y-100339170D01*
X101962918Y-100294083D01*
X101819728Y-100313507D01*
G36*
X107155990Y-101207578D02*
X107146449Y-101215818D01*
X107123095Y-101323374D01*
X107222682Y-101426700D01*
X107407701Y-101534759D01*
X107522433Y-101518102D01*
X107562753Y-101469127D01*
X107547352Y-101364982D01*
X107431558Y-101260593D01*
X107279671Y-101195083D01*
X107155990Y-101207578D01*
X107155990Y-101207578D01*
G37*
X107155990Y-101207578D02*
X107146449Y-101215818D01*
X107123095Y-101323374D01*
X107222682Y-101426700D01*
X107407701Y-101534759D01*
X107522433Y-101518102D01*
X107562753Y-101469127D01*
X107547352Y-101364982D01*
X107431558Y-101260593D01*
X107279671Y-101195083D01*
X107155990Y-101207578D01*
G36*
X108091842Y-101011122D02*
X107975105Y-101119366D01*
X107911093Y-101264985D01*
X107917656Y-101338784D01*
X108004739Y-101453663D01*
X108130647Y-101410482D01*
X108184400Y-101361734D01*
X108278052Y-101193572D01*
X108250652Y-101040921D01*
X108208159Y-101001885D01*
X108091842Y-101011122D01*
X108091842Y-101011122D01*
G37*
X108091842Y-101011122D02*
X107975105Y-101119366D01*
X107911093Y-101264985D01*
X107917656Y-101338784D01*
X108004739Y-101453663D01*
X108130647Y-101410482D01*
X108184400Y-101361734D01*
X108278052Y-101193572D01*
X108250652Y-101040921D01*
X108208159Y-101001885D01*
X108091842Y-101011122D01*
G36*
X107421764Y-100750767D02*
X107113920Y-100864379D01*
X106953241Y-100979608D01*
X106822767Y-101137873D01*
X106780695Y-101248859D01*
X106787657Y-101263212D01*
X106841721Y-101257226D01*
X106846667Y-101222200D01*
X106923784Y-101071861D01*
X107125867Y-100944467D01*
X107409015Y-100850404D01*
X107729329Y-100800060D01*
X108042906Y-100803819D01*
X108305847Y-100872070D01*
X108312733Y-100875338D01*
X108439741Y-100933785D01*
X108427774Y-100909023D01*
X108328333Y-100826338D01*
X108090429Y-100724896D01*
X107767753Y-100701989D01*
X107421764Y-100750767D01*
X107421764Y-100750767D01*
G37*
X107421764Y-100750767D02*
X107113920Y-100864379D01*
X106953241Y-100979608D01*
X106822767Y-101137873D01*
X106780695Y-101248859D01*
X106787657Y-101263212D01*
X106841721Y-101257226D01*
X106846667Y-101222200D01*
X106923784Y-101071861D01*
X107125867Y-100944467D01*
X107409015Y-100850404D01*
X107729329Y-100800060D01*
X108042906Y-100803819D01*
X108305847Y-100872070D01*
X108312733Y-100875338D01*
X108439741Y-100933785D01*
X108427774Y-100909023D01*
X108328333Y-100826338D01*
X108090429Y-100724896D01*
X107767753Y-100701989D01*
X107421764Y-100750767D01*
G36*
X105396432Y-97538371D02*
X105122917Y-97682654D01*
X105080073Y-97706282D01*
X104774660Y-97874808D01*
X104590456Y-97981347D01*
X104502014Y-98048567D01*
X104483888Y-98099132D01*
X104510632Y-98155710D01*
X104533011Y-98193574D01*
X104591304Y-98249478D01*
X104694771Y-98243601D01*
X104876732Y-98166513D01*
X105154605Y-98017642D01*
X105422412Y-97868067D01*
X105624832Y-97753981D01*
X105723389Y-97697088D01*
X105726826Y-97694836D01*
X105720956Y-97613719D01*
X105695900Y-97536623D01*
X105650555Y-97474273D01*
X105561522Y-97471884D01*
X105396432Y-97538371D01*
X105396432Y-97538371D01*
G37*
X105396432Y-97538371D02*
X105122917Y-97682654D01*
X105080073Y-97706282D01*
X104774660Y-97874808D01*
X104590456Y-97981347D01*
X104502014Y-98048567D01*
X104483888Y-98099132D01*
X104510632Y-98155710D01*
X104533011Y-98193574D01*
X104591304Y-98249478D01*
X104694771Y-98243601D01*
X104876732Y-98166513D01*
X105154605Y-98017642D01*
X105422412Y-97868067D01*
X105624832Y-97753981D01*
X105723389Y-97697088D01*
X105726826Y-97694836D01*
X105720956Y-97613719D01*
X105695900Y-97536623D01*
X105650555Y-97474273D01*
X105561522Y-97471884D01*
X105396432Y-97538371D01*
G36*
X108939348Y-97451797D02*
X108851176Y-97518184D01*
X108861737Y-97603556D01*
X108991213Y-97663208D01*
X109200562Y-97702519D01*
X109494332Y-97772076D01*
X109753627Y-97876572D01*
X109819557Y-97916213D01*
X109986748Y-98008317D01*
X110091539Y-98020374D01*
X110094724Y-98017721D01*
X110143776Y-97910146D01*
X110062834Y-97786139D01*
X109915833Y-97670479D01*
X109681487Y-97549087D01*
X109406957Y-97467360D01*
X109142743Y-97432521D01*
X108939348Y-97451797D01*
X108939348Y-97451797D01*
G37*
X108939348Y-97451797D02*
X108851176Y-97518184D01*
X108861737Y-97603556D01*
X108991213Y-97663208D01*
X109200562Y-97702519D01*
X109494332Y-97772076D01*
X109753627Y-97876572D01*
X109819557Y-97916213D01*
X109986748Y-98008317D01*
X110091539Y-98020374D01*
X110094724Y-98017721D01*
X110143776Y-97910146D01*
X110062834Y-97786139D01*
X109915833Y-97670479D01*
X109681487Y-97549087D01*
X109406957Y-97467360D01*
X109142743Y-97432521D01*
X108939348Y-97451797D01*
D14*
X82249800Y-109599900D02*
X82348860Y-109500840D01*
X82348860Y-109500840D02*
X82549520Y-109399240D01*
X82549520Y-109399240D02*
X82849240Y-109399240D01*
X82849240Y-109399240D02*
X83148960Y-109500840D01*
X83148960Y-109500840D02*
X83349620Y-109899620D01*
X83349620Y-109899620D02*
X83451220Y-110400000D01*
X83451220Y-110400000D02*
X83451220Y-110798780D01*
X83451220Y-110798780D02*
X83250560Y-111200100D01*
X83250560Y-111200100D02*
X82849240Y-111400760D01*
X82849240Y-111400760D02*
X82651120Y-111400760D01*
X82651120Y-111400760D02*
X82348860Y-111400760D01*
X82348860Y-111400760D02*
X82249800Y-111200100D01*
X84248780Y-109599900D02*
X84350380Y-109500840D01*
X84350380Y-109500840D02*
X84650100Y-109399240D01*
X84650100Y-109399240D02*
X85048880Y-109500840D01*
X85048880Y-109500840D02*
X85351140Y-109698960D01*
X85351140Y-109698960D02*
X85450200Y-110100280D01*
X85450200Y-110100280D02*
X85450200Y-110499060D01*
X85450200Y-110499060D02*
X85351140Y-110999440D01*
X85351140Y-110999440D02*
X85150480Y-111299160D01*
X85150480Y-111299160D02*
X84850760Y-111400760D01*
X84850760Y-111400760D02*
X84449440Y-111400760D01*
X84449440Y-111400760D02*
X84248780Y-111200100D01*
X83850000Y-107900640D02*
X83949060Y-107900640D01*
X83949060Y-107900640D02*
X84551040Y-107999700D01*
X84551040Y-107999700D02*
X85048880Y-108200360D01*
X85048880Y-108200360D02*
X85549260Y-108599140D01*
X85549260Y-108599140D02*
X86049640Y-109201120D01*
X86049640Y-109201120D02*
X86250300Y-109599900D01*
X86250300Y-109599900D02*
X86349360Y-110100280D01*
X86349360Y-110100280D02*
X86349360Y-110699720D01*
X86349360Y-110699720D02*
X86151240Y-111499820D01*
X86151240Y-111499820D02*
X85549260Y-112200860D01*
X85549260Y-112200860D02*
X85048880Y-112599640D01*
X85048880Y-112599640D02*
X84350380Y-112899360D01*
X84350380Y-112899360D02*
X83550280Y-112899360D01*
X83550280Y-112899360D02*
X82950840Y-112701240D01*
X82950840Y-112701240D02*
X82348860Y-112398980D01*
X82348860Y-112398980D02*
X81851020Y-111901140D01*
X81851020Y-111901140D02*
X81449700Y-111200100D01*
X81449700Y-111200100D02*
X81350640Y-110600660D01*
X81350640Y-110600660D02*
X81350640Y-110001220D01*
X81350640Y-110001220D02*
X81548760Y-109399240D01*
X81548760Y-109399240D02*
X81851020Y-108898860D01*
X81851020Y-108898860D02*
X82348860Y-108401020D01*
X82348860Y-108401020D02*
X82849240Y-108098760D01*
X82849240Y-108098760D02*
X83250560Y-107999700D01*
X83250560Y-107999700D02*
X83850000Y-107900640D01*
X72000000Y-108600080D02*
X72000000Y-108998860D01*
X72701040Y-109798960D02*
X71400560Y-109798960D01*
X71499620Y-110101220D02*
X72701040Y-110101220D01*
X72800100Y-110400940D02*
X71499620Y-110400940D01*
X72000000Y-110799720D02*
X72000000Y-112100200D01*
X71900940Y-112300860D02*
X71700280Y-112300860D01*
X71700280Y-112300860D02*
X71700280Y-110700660D01*
X72299720Y-110799720D02*
X72299720Y-112300860D01*
X72299720Y-112300860D02*
X71799340Y-112300860D01*
X72800100Y-109499240D02*
X71298960Y-109499240D01*
X71298960Y-109499240D02*
X71298960Y-110700660D01*
X71298960Y-110700660D02*
X72800100Y-110700660D01*
X72800100Y-110700660D02*
X72800100Y-109499240D01*
X72315666Y-108800740D02*
G75*
G03X72315666Y-108800740I-315666J0D01*
G01*
X72000000Y-108000640D02*
X72099060Y-108000640D01*
X72099060Y-108000640D02*
X72701040Y-108099700D01*
X72701040Y-108099700D02*
X73198880Y-108300360D01*
X73198880Y-108300360D02*
X73699260Y-108699140D01*
X73699260Y-108699140D02*
X74199640Y-109301120D01*
X74199640Y-109301120D02*
X74400300Y-109699900D01*
X74400300Y-109699900D02*
X74499360Y-110200280D01*
X74499360Y-110200280D02*
X74499360Y-110799720D01*
X74499360Y-110799720D02*
X74301240Y-111599820D01*
X74301240Y-111599820D02*
X73699260Y-112300860D01*
X73699260Y-112300860D02*
X73198880Y-112699640D01*
X73198880Y-112699640D02*
X72500380Y-112999360D01*
X72500380Y-112999360D02*
X71700280Y-112999360D01*
X71700280Y-112999360D02*
X71100840Y-112801240D01*
X71100840Y-112801240D02*
X70498860Y-112498980D01*
X70498860Y-112498980D02*
X70001020Y-112001140D01*
X70001020Y-112001140D02*
X69599700Y-111300100D01*
X69599700Y-111300100D02*
X69500640Y-110700660D01*
X69500640Y-110700660D02*
X69500640Y-110101220D01*
X69500640Y-110101220D02*
X69698760Y-109499240D01*
X69698760Y-109499240D02*
X70001020Y-108998860D01*
X70001020Y-108998860D02*
X70498860Y-108501020D01*
X70498860Y-108501020D02*
X70999240Y-108198760D01*
X70999240Y-108198760D02*
X71400560Y-108099700D01*
X71400560Y-108099700D02*
X72000000Y-108000640D01*
X79099820Y-111698880D02*
X78599440Y-112001140D01*
X78599440Y-112001140D02*
X78099060Y-112100200D01*
X78099060Y-112100200D02*
X77601220Y-112001140D01*
X77601220Y-112001140D02*
X77100840Y-111800480D01*
X77100840Y-111800480D02*
X76699520Y-111399160D01*
X76699520Y-111399160D02*
X76399800Y-110898780D01*
X76399800Y-110898780D02*
X76399800Y-110500000D01*
X76399800Y-110500000D02*
X76498860Y-109999620D01*
X76498860Y-109999620D02*
X76801120Y-109499240D01*
X76801120Y-109499240D02*
X77100840Y-109199520D01*
X77100840Y-109199520D02*
X77700280Y-108899800D01*
X77700280Y-108899800D02*
X78099060Y-108899800D01*
X78099060Y-108899800D02*
X78500380Y-108998860D01*
X78500380Y-108998860D02*
X79000760Y-109199520D01*
X78000000Y-108000640D02*
X78099060Y-108000640D01*
X78099060Y-108000640D02*
X78701040Y-108099700D01*
X78701040Y-108099700D02*
X79198880Y-108300360D01*
X79198880Y-108300360D02*
X79699260Y-108699140D01*
X79699260Y-108699140D02*
X80199640Y-109301120D01*
X80199640Y-109301120D02*
X80400300Y-109699900D01*
X80400300Y-109699900D02*
X80499360Y-110200280D01*
X80499360Y-110200280D02*
X80499360Y-110799720D01*
X80499360Y-110799720D02*
X80301240Y-111599820D01*
X80301240Y-111599820D02*
X79699260Y-112300860D01*
X79699260Y-112300860D02*
X79198880Y-112699640D01*
X79198880Y-112699640D02*
X78500380Y-112999360D01*
X78500380Y-112999360D02*
X77700280Y-112999360D01*
X77700280Y-112999360D02*
X77100840Y-112801240D01*
X77100840Y-112801240D02*
X76498860Y-112498980D01*
X76498860Y-112498980D02*
X76001020Y-112001140D01*
X76001020Y-112001140D02*
X75599700Y-111300100D01*
X75599700Y-111300100D02*
X75500640Y-110700660D01*
X75500640Y-110700660D02*
X75500640Y-110101220D01*
X75500640Y-110101220D02*
X75698760Y-109499240D01*
X75698760Y-109499240D02*
X76001020Y-108998860D01*
X76001020Y-108998860D02*
X76498860Y-108501020D01*
X76498860Y-108501020D02*
X76999240Y-108198760D01*
X76999240Y-108198760D02*
X77400560Y-108099700D01*
X77400560Y-108099700D02*
X78000000Y-108000640D01*
D13*
G36*
X90444186Y-107468931D02*
X90360365Y-107913555D01*
X90051080Y-108041053D01*
X89741794Y-108168551D01*
X89370754Y-107916246D01*
X89266843Y-107845996D01*
X89172913Y-107783272D01*
X89093348Y-107730938D01*
X89032530Y-107691857D01*
X88994843Y-107668893D01*
X88984579Y-107663942D01*
X88966090Y-107676676D01*
X88926580Y-107711882D01*
X88870478Y-107765062D01*
X88802213Y-107831718D01*
X88726214Y-107907354D01*
X88646908Y-107987472D01*
X88568725Y-108067574D01*
X88496093Y-108143164D01*
X88433441Y-108209745D01*
X88385197Y-108262818D01*
X88355790Y-108297887D01*
X88348759Y-108309623D01*
X88358877Y-108331260D01*
X88387241Y-108378662D01*
X88430871Y-108447193D01*
X88486782Y-108532215D01*
X88551994Y-108629093D01*
X88589781Y-108684350D01*
X88658657Y-108785248D01*
X88719860Y-108876299D01*
X88770422Y-108952970D01*
X88807372Y-109010728D01*
X88827742Y-109045043D01*
X88830803Y-109052254D01*
X88823864Y-109072748D01*
X88804949Y-109120513D01*
X88776913Y-109188832D01*
X88742609Y-109270989D01*
X88704891Y-109360270D01*
X88666613Y-109449958D01*
X88630630Y-109533338D01*
X88599794Y-109603694D01*
X88576961Y-109654310D01*
X88564983Y-109678471D01*
X88564276Y-109679422D01*
X88545469Y-109684036D01*
X88495382Y-109694328D01*
X88419207Y-109709287D01*
X88322135Y-109727901D01*
X88209357Y-109749159D01*
X88143558Y-109761418D01*
X88023050Y-109784362D01*
X87914203Y-109806195D01*
X87822524Y-109825722D01*
X87753519Y-109841748D01*
X87712696Y-109853079D01*
X87704489Y-109856674D01*
X87696452Y-109881006D01*
X87689967Y-109935959D01*
X87685030Y-110015108D01*
X87681636Y-110112026D01*
X87679782Y-110220287D01*
X87679462Y-110333465D01*
X87680673Y-110445135D01*
X87683410Y-110548868D01*
X87687669Y-110638241D01*
X87693445Y-110706826D01*
X87700733Y-110748197D01*
X87705105Y-110756810D01*
X87731236Y-110767133D01*
X87786607Y-110781892D01*
X87863893Y-110799352D01*
X87955770Y-110817780D01*
X87987842Y-110823741D01*
X88142476Y-110852066D01*
X88264625Y-110874876D01*
X88358327Y-110893080D01*
X88427616Y-110907583D01*
X88476529Y-110919292D01*
X88509103Y-110929115D01*
X88529372Y-110937956D01*
X88541374Y-110946724D01*
X88543053Y-110948457D01*
X88559816Y-110976371D01*
X88585386Y-111030695D01*
X88617212Y-111104777D01*
X88652740Y-111191965D01*
X88689417Y-111285608D01*
X88724689Y-111379052D01*
X88756004Y-111465647D01*
X88780807Y-111538740D01*
X88796546Y-111591678D01*
X88800668Y-111617811D01*
X88800324Y-111618726D01*
X88786359Y-111640086D01*
X88754678Y-111687084D01*
X88708609Y-111754827D01*
X88651482Y-111838423D01*
X88586627Y-111932982D01*
X88568157Y-111959854D01*
X88502301Y-112057275D01*
X88444350Y-112146163D01*
X88397462Y-112221412D01*
X88364793Y-112277920D01*
X88349500Y-112310581D01*
X88348759Y-112314593D01*
X88361608Y-112335684D01*
X88397112Y-112377464D01*
X88450707Y-112435445D01*
X88517829Y-112505135D01*
X88593913Y-112582045D01*
X88674396Y-112661683D01*
X88754713Y-112739561D01*
X88830301Y-112811186D01*
X88896595Y-112872070D01*
X88949031Y-112917721D01*
X88983045Y-112943650D01*
X88992455Y-112947883D01*
X89014357Y-112937912D01*
X89059200Y-112911020D01*
X89119679Y-112871736D01*
X89166211Y-112840117D01*
X89250525Y-112782098D01*
X89350374Y-112713784D01*
X89450527Y-112645579D01*
X89504373Y-112609075D01*
X89686629Y-112485800D01*
X89839619Y-112568520D01*
X89909318Y-112604759D01*
X89968586Y-112632926D01*
X90008689Y-112648991D01*
X90018897Y-112651226D01*
X90031171Y-112634722D01*
X90055387Y-112588082D01*
X90089737Y-112515609D01*
X90132412Y-112421606D01*
X90181606Y-112310374D01*
X90235510Y-112186215D01*
X90292316Y-112053432D01*
X90350218Y-111916327D01*
X90407407Y-111779202D01*
X90462076Y-111646358D01*
X90512416Y-111522098D01*
X90556620Y-111410725D01*
X90592881Y-111316539D01*
X90619391Y-111243844D01*
X90634342Y-111196941D01*
X90636746Y-111180833D01*
X90617689Y-111160286D01*
X90575964Y-111126933D01*
X90520294Y-111087702D01*
X90515622Y-111084599D01*
X90371736Y-110969423D01*
X90255717Y-110835053D01*
X90168570Y-110685784D01*
X90111301Y-110525913D01*
X90084914Y-110359737D01*
X90090415Y-110191552D01*
X90128810Y-110025655D01*
X90201105Y-109866342D01*
X90222374Y-109831487D01*
X90333004Y-109690737D01*
X90463698Y-109577714D01*
X90609936Y-109493003D01*
X90767192Y-109437194D01*
X90930943Y-109410874D01*
X91096667Y-109414630D01*
X91259838Y-109449050D01*
X91415935Y-109514723D01*
X91560433Y-109612235D01*
X91605131Y-109651813D01*
X91718888Y-109775703D01*
X91801782Y-109906124D01*
X91858644Y-110052315D01*
X91890313Y-110197088D01*
X91898131Y-110359860D01*
X91872062Y-110523440D01*
X91814755Y-110682298D01*
X91728856Y-110830906D01*
X91617014Y-110963735D01*
X91481877Y-111075256D01*
X91464117Y-111087011D01*
X91407850Y-111125508D01*
X91365077Y-111158863D01*
X91344628Y-111180160D01*
X91344331Y-111180833D01*
X91348721Y-111203871D01*
X91366124Y-111256157D01*
X91394732Y-111333390D01*
X91432735Y-111431268D01*
X91478326Y-111545491D01*
X91529697Y-111671758D01*
X91585038Y-111805767D01*
X91642542Y-111943218D01*
X91700399Y-112079808D01*
X91756802Y-112211237D01*
X91809942Y-112333205D01*
X91858010Y-112441409D01*
X91899199Y-112531549D01*
X91931699Y-112599323D01*
X91953703Y-112640430D01*
X91962564Y-112651226D01*
X91989640Y-112642819D01*
X92040303Y-112620272D01*
X92105817Y-112587613D01*
X92141841Y-112568520D01*
X92294832Y-112485800D01*
X92477088Y-112609075D01*
X92570125Y-112672228D01*
X92671985Y-112741727D01*
X92767438Y-112807165D01*
X92815250Y-112840117D01*
X92882495Y-112885273D01*
X92939436Y-112921057D01*
X92978646Y-112942938D01*
X92991381Y-112947563D01*
X93009917Y-112935085D01*
X93050941Y-112900252D01*
X93110475Y-112846678D01*
X93184542Y-112777983D01*
X93269165Y-112697781D01*
X93322685Y-112646286D01*
X93416319Y-112554286D01*
X93497241Y-112471999D01*
X93562177Y-112402945D01*
X93607858Y-112350644D01*
X93631011Y-112318616D01*
X93633232Y-112312116D01*
X93622924Y-112287394D01*
X93594439Y-112237405D01*
X93550937Y-112167212D01*
X93495577Y-112081875D01*
X93431520Y-111986456D01*
X93413303Y-111959854D01*
X93346927Y-111863167D01*
X93287378Y-111776117D01*
X93237984Y-111703595D01*
X93202075Y-111650493D01*
X93182981Y-111621703D01*
X93181136Y-111618726D01*
X93183895Y-111595782D01*
X93198538Y-111545336D01*
X93222513Y-111474041D01*
X93253266Y-111388547D01*
X93288244Y-111295507D01*
X93324893Y-111201574D01*
X93360661Y-111113399D01*
X93392994Y-111037634D01*
X93419338Y-110980931D01*
X93437142Y-110949943D01*
X93438407Y-110948457D01*
X93449294Y-110939601D01*
X93467682Y-110930843D01*
X93497606Y-110921277D01*
X93543103Y-110909996D01*
X93608209Y-110896093D01*
X93696961Y-110878663D01*
X93813393Y-110856798D01*
X93961542Y-110829591D01*
X93993618Y-110823741D01*
X94088686Y-110805374D01*
X94171565Y-110787405D01*
X94234930Y-110771569D01*
X94271458Y-110759600D01*
X94276356Y-110756810D01*
X94284427Y-110732072D01*
X94290987Y-110676790D01*
X94296033Y-110597389D01*
X94299559Y-110500296D01*
X94301561Y-110391938D01*
X94302036Y-110278740D01*
X94300977Y-110167128D01*
X94298382Y-110063529D01*
X94294246Y-109974368D01*
X94288563Y-109906072D01*
X94281331Y-109865066D01*
X94276971Y-109856674D01*
X94252698Y-109848208D01*
X94197426Y-109834435D01*
X94116662Y-109816550D01*
X94015912Y-109795748D01*
X93900683Y-109773223D01*
X93837902Y-109761418D01*
X93718787Y-109739151D01*
X93612565Y-109718979D01*
X93524427Y-109701915D01*
X93459566Y-109688969D01*
X93423174Y-109681155D01*
X93417184Y-109679422D01*
X93407061Y-109659890D01*
X93385662Y-109612843D01*
X93355839Y-109545003D01*
X93320445Y-109463091D01*
X93282332Y-109373828D01*
X93244353Y-109283935D01*
X93209360Y-109200135D01*
X93180206Y-109129147D01*
X93159743Y-109077694D01*
X93150823Y-109052497D01*
X93150657Y-109051396D01*
X93160769Y-109031519D01*
X93189117Y-108985777D01*
X93232723Y-108918717D01*
X93288606Y-108834884D01*
X93353787Y-108738826D01*
X93391679Y-108683650D01*
X93460725Y-108582481D01*
X93522050Y-108490630D01*
X93572663Y-108412744D01*
X93609571Y-108353469D01*
X93629782Y-108317451D01*
X93632701Y-108309377D01*
X93620153Y-108290584D01*
X93585463Y-108250457D01*
X93533063Y-108193493D01*
X93467384Y-108124185D01*
X93392856Y-108047031D01*
X93313913Y-107966525D01*
X93234983Y-107887163D01*
X93160500Y-107813440D01*
X93094894Y-107749852D01*
X93042596Y-107700894D01*
X93008039Y-107671061D01*
X92996478Y-107663942D01*
X92977654Y-107673953D01*
X92932631Y-107702078D01*
X92865787Y-107745454D01*
X92781499Y-107801218D01*
X92684144Y-107866506D01*
X92610707Y-107916246D01*
X92239667Y-108168551D01*
X91621095Y-107913555D01*
X91537275Y-107468931D01*
X91453454Y-107024307D01*
X90528006Y-107024307D01*
X90444186Y-107468931D01*
X90444186Y-107468931D01*
G37*
X90444186Y-107468931D02*
X90360365Y-107913555D01*
X90051080Y-108041053D01*
X89741794Y-108168551D01*
X89370754Y-107916246D01*
X89266843Y-107845996D01*
X89172913Y-107783272D01*
X89093348Y-107730938D01*
X89032530Y-107691857D01*
X88994843Y-107668893D01*
X88984579Y-107663942D01*
X88966090Y-107676676D01*
X88926580Y-107711882D01*
X88870478Y-107765062D01*
X88802213Y-107831718D01*
X88726214Y-107907354D01*
X88646908Y-107987472D01*
X88568725Y-108067574D01*
X88496093Y-108143164D01*
X88433441Y-108209745D01*
X88385197Y-108262818D01*
X88355790Y-108297887D01*
X88348759Y-108309623D01*
X88358877Y-108331260D01*
X88387241Y-108378662D01*
X88430871Y-108447193D01*
X88486782Y-108532215D01*
X88551994Y-108629093D01*
X88589781Y-108684350D01*
X88658657Y-108785248D01*
X88719860Y-108876299D01*
X88770422Y-108952970D01*
X88807372Y-109010728D01*
X88827742Y-109045043D01*
X88830803Y-109052254D01*
X88823864Y-109072748D01*
X88804949Y-109120513D01*
X88776913Y-109188832D01*
X88742609Y-109270989D01*
X88704891Y-109360270D01*
X88666613Y-109449958D01*
X88630630Y-109533338D01*
X88599794Y-109603694D01*
X88576961Y-109654310D01*
X88564983Y-109678471D01*
X88564276Y-109679422D01*
X88545469Y-109684036D01*
X88495382Y-109694328D01*
X88419207Y-109709287D01*
X88322135Y-109727901D01*
X88209357Y-109749159D01*
X88143558Y-109761418D01*
X88023050Y-109784362D01*
X87914203Y-109806195D01*
X87822524Y-109825722D01*
X87753519Y-109841748D01*
X87712696Y-109853079D01*
X87704489Y-109856674D01*
X87696452Y-109881006D01*
X87689967Y-109935959D01*
X87685030Y-110015108D01*
X87681636Y-110112026D01*
X87679782Y-110220287D01*
X87679462Y-110333465D01*
X87680673Y-110445135D01*
X87683410Y-110548868D01*
X87687669Y-110638241D01*
X87693445Y-110706826D01*
X87700733Y-110748197D01*
X87705105Y-110756810D01*
X87731236Y-110767133D01*
X87786607Y-110781892D01*
X87863893Y-110799352D01*
X87955770Y-110817780D01*
X87987842Y-110823741D01*
X88142476Y-110852066D01*
X88264625Y-110874876D01*
X88358327Y-110893080D01*
X88427616Y-110907583D01*
X88476529Y-110919292D01*
X88509103Y-110929115D01*
X88529372Y-110937956D01*
X88541374Y-110946724D01*
X88543053Y-110948457D01*
X88559816Y-110976371D01*
X88585386Y-111030695D01*
X88617212Y-111104777D01*
X88652740Y-111191965D01*
X88689417Y-111285608D01*
X88724689Y-111379052D01*
X88756004Y-111465647D01*
X88780807Y-111538740D01*
X88796546Y-111591678D01*
X88800668Y-111617811D01*
X88800324Y-111618726D01*
X88786359Y-111640086D01*
X88754678Y-111687084D01*
X88708609Y-111754827D01*
X88651482Y-111838423D01*
X88586627Y-111932982D01*
X88568157Y-111959854D01*
X88502301Y-112057275D01*
X88444350Y-112146163D01*
X88397462Y-112221412D01*
X88364793Y-112277920D01*
X88349500Y-112310581D01*
X88348759Y-112314593D01*
X88361608Y-112335684D01*
X88397112Y-112377464D01*
X88450707Y-112435445D01*
X88517829Y-112505135D01*
X88593913Y-112582045D01*
X88674396Y-112661683D01*
X88754713Y-112739561D01*
X88830301Y-112811186D01*
X88896595Y-112872070D01*
X88949031Y-112917721D01*
X88983045Y-112943650D01*
X88992455Y-112947883D01*
X89014357Y-112937912D01*
X89059200Y-112911020D01*
X89119679Y-112871736D01*
X89166211Y-112840117D01*
X89250525Y-112782098D01*
X89350374Y-112713784D01*
X89450527Y-112645579D01*
X89504373Y-112609075D01*
X89686629Y-112485800D01*
X89839619Y-112568520D01*
X89909318Y-112604759D01*
X89968586Y-112632926D01*
X90008689Y-112648991D01*
X90018897Y-112651226D01*
X90031171Y-112634722D01*
X90055387Y-112588082D01*
X90089737Y-112515609D01*
X90132412Y-112421606D01*
X90181606Y-112310374D01*
X90235510Y-112186215D01*
X90292316Y-112053432D01*
X90350218Y-111916327D01*
X90407407Y-111779202D01*
X90462076Y-111646358D01*
X90512416Y-111522098D01*
X90556620Y-111410725D01*
X90592881Y-111316539D01*
X90619391Y-111243844D01*
X90634342Y-111196941D01*
X90636746Y-111180833D01*
X90617689Y-111160286D01*
X90575964Y-111126933D01*
X90520294Y-111087702D01*
X90515622Y-111084599D01*
X90371736Y-110969423D01*
X90255717Y-110835053D01*
X90168570Y-110685784D01*
X90111301Y-110525913D01*
X90084914Y-110359737D01*
X90090415Y-110191552D01*
X90128810Y-110025655D01*
X90201105Y-109866342D01*
X90222374Y-109831487D01*
X90333004Y-109690737D01*
X90463698Y-109577714D01*
X90609936Y-109493003D01*
X90767192Y-109437194D01*
X90930943Y-109410874D01*
X91096667Y-109414630D01*
X91259838Y-109449050D01*
X91415935Y-109514723D01*
X91560433Y-109612235D01*
X91605131Y-109651813D01*
X91718888Y-109775703D01*
X91801782Y-109906124D01*
X91858644Y-110052315D01*
X91890313Y-110197088D01*
X91898131Y-110359860D01*
X91872062Y-110523440D01*
X91814755Y-110682298D01*
X91728856Y-110830906D01*
X91617014Y-110963735D01*
X91481877Y-111075256D01*
X91464117Y-111087011D01*
X91407850Y-111125508D01*
X91365077Y-111158863D01*
X91344628Y-111180160D01*
X91344331Y-111180833D01*
X91348721Y-111203871D01*
X91366124Y-111256157D01*
X91394732Y-111333390D01*
X91432735Y-111431268D01*
X91478326Y-111545491D01*
X91529697Y-111671758D01*
X91585038Y-111805767D01*
X91642542Y-111943218D01*
X91700399Y-112079808D01*
X91756802Y-112211237D01*
X91809942Y-112333205D01*
X91858010Y-112441409D01*
X91899199Y-112531549D01*
X91931699Y-112599323D01*
X91953703Y-112640430D01*
X91962564Y-112651226D01*
X91989640Y-112642819D01*
X92040303Y-112620272D01*
X92105817Y-112587613D01*
X92141841Y-112568520D01*
X92294832Y-112485800D01*
X92477088Y-112609075D01*
X92570125Y-112672228D01*
X92671985Y-112741727D01*
X92767438Y-112807165D01*
X92815250Y-112840117D01*
X92882495Y-112885273D01*
X92939436Y-112921057D01*
X92978646Y-112942938D01*
X92991381Y-112947563D01*
X93009917Y-112935085D01*
X93050941Y-112900252D01*
X93110475Y-112846678D01*
X93184542Y-112777983D01*
X93269165Y-112697781D01*
X93322685Y-112646286D01*
X93416319Y-112554286D01*
X93497241Y-112471999D01*
X93562177Y-112402945D01*
X93607858Y-112350644D01*
X93631011Y-112318616D01*
X93633232Y-112312116D01*
X93622924Y-112287394D01*
X93594439Y-112237405D01*
X93550937Y-112167212D01*
X93495577Y-112081875D01*
X93431520Y-111986456D01*
X93413303Y-111959854D01*
X93346927Y-111863167D01*
X93287378Y-111776117D01*
X93237984Y-111703595D01*
X93202075Y-111650493D01*
X93182981Y-111621703D01*
X93181136Y-111618726D01*
X93183895Y-111595782D01*
X93198538Y-111545336D01*
X93222513Y-111474041D01*
X93253266Y-111388547D01*
X93288244Y-111295507D01*
X93324893Y-111201574D01*
X93360661Y-111113399D01*
X93392994Y-111037634D01*
X93419338Y-110980931D01*
X93437142Y-110949943D01*
X93438407Y-110948457D01*
X93449294Y-110939601D01*
X93467682Y-110930843D01*
X93497606Y-110921277D01*
X93543103Y-110909996D01*
X93608209Y-110896093D01*
X93696961Y-110878663D01*
X93813393Y-110856798D01*
X93961542Y-110829591D01*
X93993618Y-110823741D01*
X94088686Y-110805374D01*
X94171565Y-110787405D01*
X94234930Y-110771569D01*
X94271458Y-110759600D01*
X94276356Y-110756810D01*
X94284427Y-110732072D01*
X94290987Y-110676790D01*
X94296033Y-110597389D01*
X94299559Y-110500296D01*
X94301561Y-110391938D01*
X94302036Y-110278740D01*
X94300977Y-110167128D01*
X94298382Y-110063529D01*
X94294246Y-109974368D01*
X94288563Y-109906072D01*
X94281331Y-109865066D01*
X94276971Y-109856674D01*
X94252698Y-109848208D01*
X94197426Y-109834435D01*
X94116662Y-109816550D01*
X94015912Y-109795748D01*
X93900683Y-109773223D01*
X93837902Y-109761418D01*
X93718787Y-109739151D01*
X93612565Y-109718979D01*
X93524427Y-109701915D01*
X93459566Y-109688969D01*
X93423174Y-109681155D01*
X93417184Y-109679422D01*
X93407061Y-109659890D01*
X93385662Y-109612843D01*
X93355839Y-109545003D01*
X93320445Y-109463091D01*
X93282332Y-109373828D01*
X93244353Y-109283935D01*
X93209360Y-109200135D01*
X93180206Y-109129147D01*
X93159743Y-109077694D01*
X93150823Y-109052497D01*
X93150657Y-109051396D01*
X93160769Y-109031519D01*
X93189117Y-108985777D01*
X93232723Y-108918717D01*
X93288606Y-108834884D01*
X93353787Y-108738826D01*
X93391679Y-108683650D01*
X93460725Y-108582481D01*
X93522050Y-108490630D01*
X93572663Y-108412744D01*
X93609571Y-108353469D01*
X93629782Y-108317451D01*
X93632701Y-108309377D01*
X93620153Y-108290584D01*
X93585463Y-108250457D01*
X93533063Y-108193493D01*
X93467384Y-108124185D01*
X93392856Y-108047031D01*
X93313913Y-107966525D01*
X93234983Y-107887163D01*
X93160500Y-107813440D01*
X93094894Y-107749852D01*
X93042596Y-107700894D01*
X93008039Y-107671061D01*
X92996478Y-107663942D01*
X92977654Y-107673953D01*
X92932631Y-107702078D01*
X92865787Y-107745454D01*
X92781499Y-107801218D01*
X92684144Y-107866506D01*
X92610707Y-107916246D01*
X92239667Y-108168551D01*
X91621095Y-107913555D01*
X91537275Y-107468931D01*
X91453454Y-107024307D01*
X90528006Y-107024307D01*
X90444186Y-107468931D01*
D12*
M02*
