G04 #@! TF.FileFunction,Legend,Top*
%FSLAX46Y46*%
G04 Gerber Fmt 4.6, Leading zero omitted, Abs format (unit mm)*
G04 Created by KiCad (PCBNEW 4.0.5) date 02/12/17 04:08:26*
%MOMM*%
%LPD*%
G01*
G04 APERTURE LIST*
%ADD10C,0.100000*%
%ADD11C,0.150000*%
%ADD12C,0.300000*%
%ADD13C,0.400000*%
%ADD14C,0.250000*%
%ADD15C,0.010000*%
%ADD16C,0.120000*%
G04 APERTURE END LIST*
D10*
D11*
X79999600Y-155999600D02*
X79999600Y-187999600D01*
X187999600Y-187999600D01*
X187999600Y-155999600D01*
X79999600Y-155999600D01*
D10*
D11*
X10000000Y-10000000D02*
X10000000Y-189999600D01*
X189999600Y-189999600D01*
X189999600Y-10000000D01*
X10000000Y-10000000D01*
D10*
D11*
X12000000Y-12000000D02*
X12000000Y-187999600D01*
X187999600Y-187999600D01*
X187999600Y-12000000D01*
X12000000Y-12000000D01*
D10*
D11*
X60000000Y-12000000D02*
X60000000Y-10000000D01*
D10*
D11*
X110000000Y-12000000D02*
X110000000Y-10000000D01*
D10*
D11*
X160000000Y-12000000D02*
X160000000Y-10000000D01*
D10*
D11*
X35990476Y-11588095D02*
X35247619Y-11588095D01*
X35619048Y-11588095D02*
X35619048Y-10288095D01*
X35495238Y-10473810D01*
X35371429Y-10597619D01*
X35247619Y-10659524D01*
D10*
D11*
X85247619Y-10411905D02*
X85309524Y-10350000D01*
X85433333Y-10288095D01*
X85742857Y-10288095D01*
X85866667Y-10350000D01*
X85928571Y-10411905D01*
X85990476Y-10535714D01*
X85990476Y-10659524D01*
X85928571Y-10845238D01*
X85185714Y-11588095D01*
X85990476Y-11588095D01*
D10*
D11*
X135185714Y-10288095D02*
X135990476Y-10288095D01*
X135557143Y-10783333D01*
X135742857Y-10783333D01*
X135866667Y-10845238D01*
X135928571Y-10907143D01*
X135990476Y-11030952D01*
X135990476Y-11340476D01*
X135928571Y-11464286D01*
X135866667Y-11526190D01*
X135742857Y-11588095D01*
X135371429Y-11588095D01*
X135247619Y-11526190D01*
X135185714Y-11464286D01*
D10*
D11*
X185866667Y-10721429D02*
X185866667Y-11588095D01*
X185557143Y-10226190D02*
X185247619Y-11154762D01*
X186052381Y-11154762D01*
D10*
D11*
X60000000Y-187999600D02*
X60000000Y-189999600D01*
D10*
D11*
X110000000Y-187999600D02*
X110000000Y-189999600D01*
D10*
D11*
X160000000Y-187999600D02*
X160000000Y-189999600D01*
D10*
D11*
X35990476Y-189587695D02*
X35247619Y-189587695D01*
X35619048Y-189587695D02*
X35619048Y-188287695D01*
X35495238Y-188473410D01*
X35371429Y-188597219D01*
X35247619Y-188659124D01*
D10*
D11*
X85247619Y-188411505D02*
X85309524Y-188349600D01*
X85433333Y-188287695D01*
X85742857Y-188287695D01*
X85866667Y-188349600D01*
X85928571Y-188411505D01*
X85990476Y-188535314D01*
X85990476Y-188659124D01*
X85928571Y-188844838D01*
X85185714Y-189587695D01*
X85990476Y-189587695D01*
D10*
D11*
X135185714Y-188287695D02*
X135990476Y-188287695D01*
X135557143Y-188782933D01*
X135742857Y-188782933D01*
X135866667Y-188844838D01*
X135928571Y-188906743D01*
X135990476Y-189030552D01*
X135990476Y-189340076D01*
X135928571Y-189463886D01*
X135866667Y-189525790D01*
X135742857Y-189587695D01*
X135371429Y-189587695D01*
X135247619Y-189525790D01*
X135185714Y-189463886D01*
D10*
D11*
X185866667Y-188721029D02*
X185866667Y-189587695D01*
X185557143Y-188225790D02*
X185247619Y-189154362D01*
X186052381Y-189154362D01*
D10*
D11*
X10000000Y-60000000D02*
X12000000Y-60000000D01*
D10*
D11*
X10000000Y-110000000D02*
X12000000Y-110000000D01*
D10*
D11*
X10000000Y-160000000D02*
X12000000Y-160000000D01*
D10*
D11*
X10690476Y-35216667D02*
X11309524Y-35216667D01*
X10566667Y-35588095D02*
X11000000Y-34288095D01*
X11433333Y-35588095D01*
D10*
D11*
X11092857Y-84907143D02*
X11278571Y-84969048D01*
X11340476Y-85030952D01*
X11402381Y-85154762D01*
X11402381Y-85340476D01*
X11340476Y-85464286D01*
X11278571Y-85526190D01*
X11154762Y-85588095D01*
X10659524Y-85588095D01*
X10659524Y-84288095D01*
X11092857Y-84288095D01*
X11216667Y-84350000D01*
X11278571Y-84411905D01*
X11340476Y-84535714D01*
X11340476Y-84659524D01*
X11278571Y-84783333D01*
X11216667Y-84845238D01*
X11092857Y-84907143D01*
X10659524Y-84907143D01*
D10*
D11*
X11402381Y-135464286D02*
X11340476Y-135526190D01*
X11154762Y-135588095D01*
X11030952Y-135588095D01*
X10845238Y-135526190D01*
X10721429Y-135402381D01*
X10659524Y-135278571D01*
X10597619Y-135030952D01*
X10597619Y-134845238D01*
X10659524Y-134597619D01*
X10721429Y-134473810D01*
X10845238Y-134350000D01*
X11030952Y-134288095D01*
X11154762Y-134288095D01*
X11340476Y-134350000D01*
X11402381Y-134411905D01*
D10*
D11*
X10659524Y-185588095D02*
X10659524Y-184288095D01*
X10969048Y-184288095D01*
X11154762Y-184350000D01*
X11278571Y-184473810D01*
X11340476Y-184597619D01*
X11402381Y-184845238D01*
X11402381Y-185030952D01*
X11340476Y-185278571D01*
X11278571Y-185402381D01*
X11154762Y-185526190D01*
X10969048Y-185588095D01*
X10659524Y-185588095D01*
D10*
D11*
X189999600Y-60000000D02*
X187999600Y-60000000D01*
D10*
D11*
X189999600Y-110000000D02*
X187999600Y-110000000D01*
D10*
D11*
X189999600Y-160000000D02*
X187999600Y-160000000D01*
D10*
D11*
X188690076Y-35216667D02*
X189309124Y-35216667D01*
X188566267Y-35588095D02*
X188999600Y-34288095D01*
X189432933Y-35588095D01*
D10*
D11*
X189092457Y-84907143D02*
X189278171Y-84969048D01*
X189340076Y-85030952D01*
X189401981Y-85154762D01*
X189401981Y-85340476D01*
X189340076Y-85464286D01*
X189278171Y-85526190D01*
X189154362Y-85588095D01*
X188659124Y-85588095D01*
X188659124Y-84288095D01*
X189092457Y-84288095D01*
X189216267Y-84350000D01*
X189278171Y-84411905D01*
X189340076Y-84535714D01*
X189340076Y-84659524D01*
X189278171Y-84783333D01*
X189216267Y-84845238D01*
X189092457Y-84907143D01*
X188659124Y-84907143D01*
D10*
D11*
X189401981Y-135464286D02*
X189340076Y-135526190D01*
X189154362Y-135588095D01*
X189030552Y-135588095D01*
X188844838Y-135526190D01*
X188721029Y-135402381D01*
X188659124Y-135278571D01*
X188597219Y-135030952D01*
X188597219Y-134845238D01*
X188659124Y-134597619D01*
X188721029Y-134473810D01*
X188844838Y-134350000D01*
X189030552Y-134288095D01*
X189154362Y-134288095D01*
X189340076Y-134350000D01*
X189401981Y-134411905D01*
D10*
D11*
X188659124Y-185588095D02*
X188659124Y-184288095D01*
X188968648Y-184288095D01*
X189154362Y-184350000D01*
X189278171Y-184473810D01*
X189340076Y-184597619D01*
X189401981Y-184845238D01*
X189401981Y-185030952D01*
X189340076Y-185278571D01*
X189278171Y-185402381D01*
X189154362Y-185526190D01*
X188968648Y-185588095D01*
X188659124Y-185588095D01*
D10*
D11*
X103356743Y-183778171D02*
X103356743Y-182278171D01*
X103713886Y-182278171D01*
X103928171Y-182349600D01*
X104071029Y-182492457D01*
X104142457Y-182635314D01*
X104213886Y-182921029D01*
X104213886Y-183135314D01*
X104142457Y-183421029D01*
X104071029Y-183563886D01*
X103928171Y-183706743D01*
X103713886Y-183778171D01*
X103356743Y-183778171D01*
X105499600Y-183778171D02*
X105499600Y-182992457D01*
X105428171Y-182849600D01*
X105285314Y-182778171D01*
X104999600Y-182778171D01*
X104856743Y-182849600D01*
X105499600Y-183706743D02*
X105356743Y-183778171D01*
X104999600Y-183778171D01*
X104856743Y-183706743D01*
X104785314Y-183563886D01*
X104785314Y-183421029D01*
X104856743Y-183278171D01*
X104999600Y-183206743D01*
X105356743Y-183206743D01*
X105499600Y-183135314D01*
X105999600Y-182778171D02*
X106571029Y-182778171D01*
X106213886Y-182278171D02*
X106213886Y-183563886D01*
X106285314Y-183706743D01*
X106428172Y-183778171D01*
X106571029Y-183778171D01*
X107642457Y-183706743D02*
X107499600Y-183778171D01*
X107213886Y-183778171D01*
X107071029Y-183706743D01*
X106999600Y-183563886D01*
X106999600Y-182992457D01*
X107071029Y-182849600D01*
X107213886Y-182778171D01*
X107499600Y-182778171D01*
X107642457Y-182849600D01*
X107713886Y-182992457D01*
X107713886Y-183135314D01*
X106999600Y-183278171D01*
X108356743Y-183635314D02*
X108428171Y-183706743D01*
X108356743Y-183778171D01*
X108285314Y-183706743D01*
X108356743Y-183635314D01*
X108356743Y-183778171D01*
X108356743Y-182849600D02*
X108428171Y-182921029D01*
X108356743Y-182992457D01*
X108285314Y-182921029D01*
X108356743Y-182849600D01*
X108356743Y-182992457D01*
D10*
D11*
X79999600Y-184499600D02*
X187999600Y-184499600D01*
D10*
D11*
X81356743Y-186578171D02*
X81356743Y-185078171D01*
X82213886Y-186578171D02*
X81571029Y-185721029D01*
X82213886Y-185078171D02*
X81356743Y-185935314D01*
X82856743Y-186578171D02*
X82856743Y-185578171D01*
X82856743Y-185078171D02*
X82785314Y-185149600D01*
X82856743Y-185221029D01*
X82928171Y-185149600D01*
X82856743Y-185078171D01*
X82856743Y-185221029D01*
X84428172Y-186435314D02*
X84356743Y-186506743D01*
X84142457Y-186578171D01*
X83999600Y-186578171D01*
X83785315Y-186506743D01*
X83642457Y-186363886D01*
X83571029Y-186221029D01*
X83499600Y-185935314D01*
X83499600Y-185721029D01*
X83571029Y-185435314D01*
X83642457Y-185292457D01*
X83785315Y-185149600D01*
X83999600Y-185078171D01*
X84142457Y-185078171D01*
X84356743Y-185149600D01*
X84428172Y-185221029D01*
X85713886Y-186578171D02*
X85713886Y-185792457D01*
X85642457Y-185649600D01*
X85499600Y-185578171D01*
X85213886Y-185578171D01*
X85071029Y-185649600D01*
X85713886Y-186506743D02*
X85571029Y-186578171D01*
X85213886Y-186578171D01*
X85071029Y-186506743D01*
X84999600Y-186363886D01*
X84999600Y-186221029D01*
X85071029Y-186078171D01*
X85213886Y-186006743D01*
X85571029Y-186006743D01*
X85713886Y-185935314D01*
X87071029Y-186578171D02*
X87071029Y-185078171D01*
X87071029Y-186506743D02*
X86928172Y-186578171D01*
X86642458Y-186578171D01*
X86499600Y-186506743D01*
X86428172Y-186435314D01*
X86356743Y-186292457D01*
X86356743Y-185863886D01*
X86428172Y-185721029D01*
X86499600Y-185649600D01*
X86642458Y-185578171D01*
X86928172Y-185578171D01*
X87071029Y-185649600D01*
X88928172Y-185792457D02*
X89428172Y-185792457D01*
X89642458Y-186578171D02*
X88928172Y-186578171D01*
X88928172Y-185078171D01*
X89642458Y-185078171D01*
X90285315Y-186435314D02*
X90356743Y-186506743D01*
X90285315Y-186578171D01*
X90213886Y-186506743D01*
X90285315Y-186435314D01*
X90285315Y-186578171D01*
X90999601Y-186578171D02*
X90999601Y-185078171D01*
X91356744Y-185078171D01*
X91571029Y-185149600D01*
X91713887Y-185292457D01*
X91785315Y-185435314D01*
X91856744Y-185721029D01*
X91856744Y-185935314D01*
X91785315Y-186221029D01*
X91713887Y-186363886D01*
X91571029Y-186506743D01*
X91356744Y-186578171D01*
X90999601Y-186578171D01*
X92499601Y-186435314D02*
X92571029Y-186506743D01*
X92499601Y-186578171D01*
X92428172Y-186506743D01*
X92499601Y-186435314D01*
X92499601Y-186578171D01*
X93142458Y-186149600D02*
X93856744Y-186149600D01*
X92999601Y-186578171D02*
X93499601Y-185078171D01*
X93999601Y-186578171D01*
X94499601Y-186435314D02*
X94571029Y-186506743D01*
X94499601Y-186578171D01*
X94428172Y-186506743D01*
X94499601Y-186435314D01*
X94499601Y-186578171D01*
X97499601Y-186578171D02*
X97499601Y-185078171D01*
X97642458Y-186006743D02*
X98071029Y-186578171D01*
X98071029Y-185578171D02*
X97499601Y-186149600D01*
X98713887Y-186578171D02*
X98713887Y-185578171D01*
X98713887Y-185078171D02*
X98642458Y-185149600D01*
X98713887Y-185221029D01*
X98785315Y-185149600D01*
X98713887Y-185078171D01*
X98713887Y-185221029D01*
X100071030Y-186506743D02*
X99928173Y-186578171D01*
X99642459Y-186578171D01*
X99499601Y-186506743D01*
X99428173Y-186435314D01*
X99356744Y-186292457D01*
X99356744Y-185863886D01*
X99428173Y-185721029D01*
X99499601Y-185649600D01*
X99642459Y-185578171D01*
X99928173Y-185578171D01*
X100071030Y-185649600D01*
X101356744Y-186578171D02*
X101356744Y-185792457D01*
X101285315Y-185649600D01*
X101142458Y-185578171D01*
X100856744Y-185578171D01*
X100713887Y-185649600D01*
X101356744Y-186506743D02*
X101213887Y-186578171D01*
X100856744Y-186578171D01*
X100713887Y-186506743D01*
X100642458Y-186363886D01*
X100642458Y-186221029D01*
X100713887Y-186078171D01*
X100856744Y-186006743D01*
X101213887Y-186006743D01*
X101356744Y-185935314D01*
X102713887Y-186578171D02*
X102713887Y-185078171D01*
X102713887Y-186506743D02*
X102571030Y-186578171D01*
X102285316Y-186578171D01*
X102142458Y-186506743D01*
X102071030Y-186435314D01*
X101999601Y-186292457D01*
X101999601Y-185863886D01*
X102071030Y-185721029D01*
X102142458Y-185649600D01*
X102285316Y-185578171D01*
X102571030Y-185578171D01*
X102713887Y-185649600D01*
X105213887Y-185578171D02*
X105213887Y-186578171D01*
X104856744Y-185006743D02*
X104499601Y-186078171D01*
X105428173Y-186078171D01*
X105999601Y-186435314D02*
X106071029Y-186506743D01*
X105999601Y-186578171D01*
X105928172Y-186506743D01*
X105999601Y-186435314D01*
X105999601Y-186578171D01*
X106999601Y-185078171D02*
X107142458Y-185078171D01*
X107285315Y-185149600D01*
X107356744Y-185221029D01*
X107428173Y-185363886D01*
X107499601Y-185649600D01*
X107499601Y-186006743D01*
X107428173Y-186292457D01*
X107356744Y-186435314D01*
X107285315Y-186506743D01*
X107142458Y-186578171D01*
X106999601Y-186578171D01*
X106856744Y-186506743D01*
X106785315Y-186435314D01*
X106713887Y-186292457D01*
X106642458Y-186006743D01*
X106642458Y-185649600D01*
X106713887Y-185363886D01*
X106785315Y-185221029D01*
X106856744Y-185149600D01*
X106999601Y-185078171D01*
X108142458Y-186435314D02*
X108213886Y-186506743D01*
X108142458Y-186578171D01*
X108071029Y-186506743D01*
X108142458Y-186435314D01*
X108142458Y-186578171D01*
X109571030Y-185078171D02*
X108856744Y-185078171D01*
X108785315Y-185792457D01*
X108856744Y-185721029D01*
X108999601Y-185649600D01*
X109356744Y-185649600D01*
X109499601Y-185721029D01*
X109571030Y-185792457D01*
X109642458Y-185935314D01*
X109642458Y-186292457D01*
X109571030Y-186435314D01*
X109499601Y-186506743D01*
X109356744Y-186578171D01*
X108999601Y-186578171D01*
X108856744Y-186506743D01*
X108785315Y-186435314D01*
D10*
D11*
X79999600Y-181499600D02*
X187999600Y-181499600D01*
D10*
D12*
X167213886Y-183778171D02*
X166713886Y-183063886D01*
X166356743Y-183778171D02*
X166356743Y-182278171D01*
X166928171Y-182278171D01*
X167071029Y-182349600D01*
X167142457Y-182421029D01*
X167213886Y-182563886D01*
X167213886Y-182778171D01*
X167142457Y-182921029D01*
X167071029Y-182992457D01*
X166928171Y-183063886D01*
X166356743Y-183063886D01*
X168428171Y-183706743D02*
X168285314Y-183778171D01*
X167999600Y-183778171D01*
X167856743Y-183706743D01*
X167785314Y-183563886D01*
X167785314Y-182992457D01*
X167856743Y-182849600D01*
X167999600Y-182778171D01*
X168285314Y-182778171D01*
X168428171Y-182849600D01*
X168499600Y-182992457D01*
X168499600Y-183135314D01*
X167785314Y-183278171D01*
X168999600Y-182778171D02*
X169356743Y-183778171D01*
X169713885Y-182778171D01*
X170285314Y-183635314D02*
X170356742Y-183706743D01*
X170285314Y-183778171D01*
X170213885Y-183706743D01*
X170285314Y-183635314D01*
X170285314Y-183778171D01*
X170285314Y-182849600D02*
X170356742Y-182921029D01*
X170285314Y-182992457D01*
X170213885Y-182921029D01*
X170285314Y-182849600D01*
X170285314Y-182992457D01*
D10*
D11*
X81285314Y-183706743D02*
X81499600Y-183778171D01*
X81856743Y-183778171D01*
X81999600Y-183706743D01*
X82071029Y-183635314D01*
X82142457Y-183492457D01*
X82142457Y-183349600D01*
X82071029Y-183206743D01*
X81999600Y-183135314D01*
X81856743Y-183063886D01*
X81571029Y-182992457D01*
X81428171Y-182921029D01*
X81356743Y-182849600D01*
X81285314Y-182706743D01*
X81285314Y-182563886D01*
X81356743Y-182421029D01*
X81428171Y-182349600D01*
X81571029Y-182278171D01*
X81928171Y-182278171D01*
X82142457Y-182349600D01*
X82785314Y-183778171D02*
X82785314Y-182778171D01*
X82785314Y-182278171D02*
X82713885Y-182349600D01*
X82785314Y-182421029D01*
X82856742Y-182349600D01*
X82785314Y-182278171D01*
X82785314Y-182421029D01*
X83356743Y-182778171D02*
X84142457Y-182778171D01*
X83356743Y-183778171D01*
X84142457Y-183778171D01*
X85285314Y-183706743D02*
X85142457Y-183778171D01*
X84856743Y-183778171D01*
X84713886Y-183706743D01*
X84642457Y-183563886D01*
X84642457Y-182992457D01*
X84713886Y-182849600D01*
X84856743Y-182778171D01*
X85142457Y-182778171D01*
X85285314Y-182849600D01*
X85356743Y-182992457D01*
X85356743Y-183135314D01*
X84642457Y-183278171D01*
X85999600Y-183635314D02*
X86071028Y-183706743D01*
X85999600Y-183778171D01*
X85928171Y-183706743D01*
X85999600Y-183635314D01*
X85999600Y-183778171D01*
X85999600Y-182849600D02*
X86071028Y-182921029D01*
X85999600Y-182992457D01*
X85928171Y-182921029D01*
X85999600Y-182849600D01*
X85999600Y-182992457D01*
X87856743Y-182278171D02*
X87856743Y-183492457D01*
X87928171Y-183635314D01*
X87999600Y-183706743D01*
X88142457Y-183778171D01*
X88428171Y-183778171D01*
X88571029Y-183706743D01*
X88642457Y-183635314D01*
X88713886Y-183492457D01*
X88713886Y-182278171D01*
X89356743Y-183706743D02*
X89499600Y-183778171D01*
X89785315Y-183778171D01*
X89928172Y-183706743D01*
X89999600Y-183563886D01*
X89999600Y-183492457D01*
X89928172Y-183349600D01*
X89785315Y-183278171D01*
X89571029Y-183278171D01*
X89428172Y-183206743D01*
X89356743Y-183063886D01*
X89356743Y-182992457D01*
X89428172Y-182849600D01*
X89571029Y-182778171D01*
X89785315Y-182778171D01*
X89928172Y-182849600D01*
X91213886Y-183706743D02*
X91071029Y-183778171D01*
X90785315Y-183778171D01*
X90642458Y-183706743D01*
X90571029Y-183563886D01*
X90571029Y-182992457D01*
X90642458Y-182849600D01*
X90785315Y-182778171D01*
X91071029Y-182778171D01*
X91213886Y-182849600D01*
X91285315Y-182992457D01*
X91285315Y-183135314D01*
X90571029Y-183278171D01*
X91928172Y-183778171D02*
X91928172Y-182778171D01*
X91928172Y-183063886D02*
X91999600Y-182921029D01*
X92071029Y-182849600D01*
X92213886Y-182778171D01*
X92356743Y-182778171D01*
D10*
D11*
X166356743Y-186578171D02*
X166356743Y-185078171D01*
X167713886Y-186578171D02*
X167713886Y-185078171D01*
X167713886Y-186506743D02*
X167571029Y-186578171D01*
X167285315Y-186578171D01*
X167142457Y-186506743D01*
X167071029Y-186435314D01*
X166999600Y-186292457D01*
X166999600Y-185863886D01*
X167071029Y-185721029D01*
X167142457Y-185649600D01*
X167285315Y-185578171D01*
X167571029Y-185578171D01*
X167713886Y-185649600D01*
X168428172Y-186435314D02*
X168499600Y-186506743D01*
X168428172Y-186578171D01*
X168356743Y-186506743D01*
X168428172Y-186435314D01*
X168428172Y-186578171D01*
X168428172Y-185649600D02*
X168499600Y-185721029D01*
X168428172Y-185792457D01*
X168356743Y-185721029D01*
X168428172Y-185649600D01*
X168428172Y-185792457D01*
X171071029Y-186578171D02*
X170213886Y-186578171D01*
X170642458Y-186578171D02*
X170642458Y-185078171D01*
X170499601Y-185292457D01*
X170356743Y-185435314D01*
X170213886Y-185506743D01*
X172785314Y-185006743D02*
X171499600Y-186935314D01*
X174071029Y-186578171D02*
X173213886Y-186578171D01*
X173642458Y-186578171D02*
X173642458Y-185078171D01*
X173499601Y-185292457D01*
X173356743Y-185435314D01*
X173213886Y-185506743D01*
D10*
D11*
X79999600Y-177499600D02*
X187999600Y-177499600D01*
D10*
D13*
X81451981Y-178204362D02*
X82594838Y-178204362D01*
X81773410Y-180204362D02*
X82023410Y-178204362D01*
X83011505Y-180204362D02*
X83178171Y-178871029D01*
X83261505Y-178204362D02*
X83154362Y-178299600D01*
X83237695Y-178394838D01*
X83344839Y-178299600D01*
X83261505Y-178204362D01*
X83237695Y-178394838D01*
X83844838Y-178871029D02*
X84606743Y-178871029D01*
X84213886Y-178204362D02*
X83999600Y-179918648D01*
X84071030Y-180109124D01*
X84249601Y-180204362D01*
X84440077Y-180204362D01*
X85392458Y-180204362D02*
X85213887Y-180109124D01*
X85142457Y-179918648D01*
X85356743Y-178204362D01*
X86928172Y-180109124D02*
X86725791Y-180204362D01*
X86344839Y-180204362D01*
X86166267Y-180109124D01*
X86094838Y-179918648D01*
X86190076Y-179156743D01*
X86309124Y-178966267D01*
X86511505Y-178871029D01*
X86892457Y-178871029D01*
X87071029Y-178966267D01*
X87142457Y-179156743D01*
X87118648Y-179347219D01*
X86142457Y-179537695D01*
X87892457Y-180013886D02*
X87975792Y-180109124D01*
X87868648Y-180204362D01*
X87785315Y-180109124D01*
X87892457Y-180013886D01*
X87868648Y-180204362D01*
X88023410Y-178966267D02*
X88106744Y-179061505D01*
X87999600Y-179156743D01*
X87916267Y-179061505D01*
X88023410Y-178966267D01*
X87999600Y-179156743D01*
D10*
D11*
X81856743Y-175592457D02*
X81356743Y-175592457D01*
X81356743Y-176378171D02*
X81356743Y-174878171D01*
X82071029Y-174878171D01*
X82642457Y-176378171D02*
X82642457Y-175378171D01*
X82642457Y-174878171D02*
X82571028Y-174949600D01*
X82642457Y-175021029D01*
X82713885Y-174949600D01*
X82642457Y-174878171D01*
X82642457Y-175021029D01*
X83571029Y-176378171D02*
X83428171Y-176306743D01*
X83356743Y-176163886D01*
X83356743Y-174878171D01*
X84713885Y-176306743D02*
X84571028Y-176378171D01*
X84285314Y-176378171D01*
X84142457Y-176306743D01*
X84071028Y-176163886D01*
X84071028Y-175592457D01*
X84142457Y-175449600D01*
X84285314Y-175378171D01*
X84571028Y-175378171D01*
X84713885Y-175449600D01*
X84785314Y-175592457D01*
X84785314Y-175735314D01*
X84071028Y-175878171D01*
X85428171Y-176235314D02*
X85499599Y-176306743D01*
X85428171Y-176378171D01*
X85356742Y-176306743D01*
X85428171Y-176235314D01*
X85428171Y-176378171D01*
X85428171Y-175449600D02*
X85499599Y-175521029D01*
X85428171Y-175592457D01*
X85356742Y-175521029D01*
X85428171Y-175449600D01*
X85428171Y-175592457D01*
X87285314Y-176378171D02*
X87285314Y-174878171D01*
X87285314Y-175592457D02*
X88142457Y-175592457D01*
X88142457Y-176378171D02*
X88142457Y-174878171D01*
X88856743Y-176378171D02*
X88856743Y-175378171D01*
X88856743Y-174878171D02*
X88785314Y-174949600D01*
X88856743Y-175021029D01*
X88928171Y-174949600D01*
X88856743Y-174878171D01*
X88856743Y-175021029D01*
X90213886Y-175378171D02*
X90213886Y-176592457D01*
X90142457Y-176735314D01*
X90071029Y-176806743D01*
X89928172Y-176878171D01*
X89713886Y-176878171D01*
X89571029Y-176806743D01*
X90213886Y-176306743D02*
X90071029Y-176378171D01*
X89785315Y-176378171D01*
X89642457Y-176306743D01*
X89571029Y-176235314D01*
X89499600Y-176092457D01*
X89499600Y-175663886D01*
X89571029Y-175521029D01*
X89642457Y-175449600D01*
X89785315Y-175378171D01*
X90071029Y-175378171D01*
X90213886Y-175449600D01*
X90928172Y-176378171D02*
X90928172Y-174878171D01*
X91571029Y-176378171D02*
X91571029Y-175592457D01*
X91499600Y-175449600D01*
X91356743Y-175378171D01*
X91142458Y-175378171D01*
X90999600Y-175449600D01*
X90928172Y-175521029D01*
X93428172Y-176378171D02*
X93428172Y-174878171D01*
X93999600Y-174878171D01*
X94142458Y-174949600D01*
X94213886Y-175021029D01*
X94285315Y-175163886D01*
X94285315Y-175378171D01*
X94213886Y-175521029D01*
X94142458Y-175592457D01*
X93999600Y-175663886D01*
X93428172Y-175663886D01*
X95142458Y-176378171D02*
X94999600Y-176306743D01*
X94928172Y-176235314D01*
X94856743Y-176092457D01*
X94856743Y-175663886D01*
X94928172Y-175521029D01*
X94999600Y-175449600D01*
X95142458Y-175378171D01*
X95356743Y-175378171D01*
X95499600Y-175449600D01*
X95571029Y-175521029D01*
X95642458Y-175663886D01*
X95642458Y-176092457D01*
X95571029Y-176235314D01*
X95499600Y-176306743D01*
X95356743Y-176378171D01*
X95142458Y-176378171D01*
X96142458Y-175378171D02*
X96428172Y-176378171D01*
X96713886Y-175663886D01*
X96999601Y-176378171D01*
X97285315Y-175378171D01*
X98428172Y-176306743D02*
X98285315Y-176378171D01*
X97999601Y-176378171D01*
X97856744Y-176306743D01*
X97785315Y-176163886D01*
X97785315Y-175592457D01*
X97856744Y-175449600D01*
X97999601Y-175378171D01*
X98285315Y-175378171D01*
X98428172Y-175449600D01*
X98499601Y-175592457D01*
X98499601Y-175735314D01*
X97785315Y-175878171D01*
X99142458Y-176378171D02*
X99142458Y-175378171D01*
X99142458Y-175663886D02*
X99213886Y-175521029D01*
X99285315Y-175449600D01*
X99428172Y-175378171D01*
X99571029Y-175378171D01*
X101142457Y-176306743D02*
X101356743Y-176378171D01*
X101713886Y-176378171D01*
X101856743Y-176306743D01*
X101928172Y-176235314D01*
X101999600Y-176092457D01*
X101999600Y-175949600D01*
X101928172Y-175806743D01*
X101856743Y-175735314D01*
X101713886Y-175663886D01*
X101428172Y-175592457D01*
X101285314Y-175521029D01*
X101213886Y-175449600D01*
X101142457Y-175306743D01*
X101142457Y-175163886D01*
X101213886Y-175021029D01*
X101285314Y-174949600D01*
X101428172Y-174878171D01*
X101785314Y-174878171D01*
X101999600Y-174949600D01*
X102499600Y-174878171D02*
X102856743Y-176378171D01*
X103142457Y-175306743D01*
X103428171Y-176378171D01*
X103785314Y-174878171D01*
X104356743Y-176235314D02*
X104428171Y-176306743D01*
X104356743Y-176378171D01*
X104285314Y-176306743D01*
X104356743Y-176235314D01*
X104356743Y-176378171D01*
X105071029Y-176378171D02*
X105071029Y-174878171D01*
X105213886Y-175806743D02*
X105642457Y-176378171D01*
X105642457Y-175378171D02*
X105071029Y-175949600D01*
X106285315Y-176378171D02*
X106285315Y-175378171D01*
X106285315Y-174878171D02*
X106213886Y-174949600D01*
X106285315Y-175021029D01*
X106356743Y-174949600D01*
X106285315Y-174878171D01*
X106285315Y-175021029D01*
X107642458Y-176306743D02*
X107499601Y-176378171D01*
X107213887Y-176378171D01*
X107071029Y-176306743D01*
X106999601Y-176235314D01*
X106928172Y-176092457D01*
X106928172Y-175663886D01*
X106999601Y-175521029D01*
X107071029Y-175449600D01*
X107213887Y-175378171D01*
X107499601Y-175378171D01*
X107642458Y-175449600D01*
X108928172Y-176378171D02*
X108928172Y-175592457D01*
X108856743Y-175449600D01*
X108713886Y-175378171D01*
X108428172Y-175378171D01*
X108285315Y-175449600D01*
X108928172Y-176306743D02*
X108785315Y-176378171D01*
X108428172Y-176378171D01*
X108285315Y-176306743D01*
X108213886Y-176163886D01*
X108213886Y-176021029D01*
X108285315Y-175878171D01*
X108428172Y-175806743D01*
X108785315Y-175806743D01*
X108928172Y-175735314D01*
X110285315Y-176378171D02*
X110285315Y-174878171D01*
X110285315Y-176306743D02*
X110142458Y-176378171D01*
X109856744Y-176378171D01*
X109713886Y-176306743D01*
X109642458Y-176235314D01*
X109571029Y-176092457D01*
X109571029Y-175663886D01*
X109642458Y-175521029D01*
X109713886Y-175449600D01*
X109856744Y-175378171D01*
X110142458Y-175378171D01*
X110285315Y-175449600D01*
X110642458Y-176521029D02*
X111785315Y-176521029D01*
X112142458Y-175378171D02*
X112142458Y-176878171D01*
X112142458Y-175449600D02*
X112285315Y-175378171D01*
X112571029Y-175378171D01*
X112713886Y-175449600D01*
X112785315Y-175521029D01*
X112856744Y-175663886D01*
X112856744Y-176092457D01*
X112785315Y-176235314D01*
X112713886Y-176306743D01*
X112571029Y-176378171D01*
X112285315Y-176378171D01*
X112142458Y-176306743D01*
X114142458Y-176306743D02*
X113999601Y-176378171D01*
X113713887Y-176378171D01*
X113571029Y-176306743D01*
X113499601Y-176235314D01*
X113428172Y-176092457D01*
X113428172Y-175663886D01*
X113499601Y-175521029D01*
X113571029Y-175449600D01*
X113713887Y-175378171D01*
X113999601Y-175378171D01*
X114142458Y-175449600D01*
X114785315Y-176378171D02*
X114785315Y-174878171D01*
X114785315Y-175449600D02*
X114928172Y-175378171D01*
X115213886Y-175378171D01*
X115356743Y-175449600D01*
X115428172Y-175521029D01*
X115499601Y-175663886D01*
X115499601Y-176092457D01*
X115428172Y-176235314D01*
X115356743Y-176306743D01*
X115213886Y-176378171D01*
X114928172Y-176378171D01*
X114785315Y-176306743D01*
D10*
D11*
X79999600Y-171499600D02*
X187999600Y-171499600D01*
D10*
D11*
X81285314Y-173606743D02*
X81499600Y-173678171D01*
X81856743Y-173678171D01*
X81999600Y-173606743D01*
X82071029Y-173535314D01*
X82142457Y-173392457D01*
X82142457Y-173249600D01*
X82071029Y-173106743D01*
X81999600Y-173035314D01*
X81856743Y-172963886D01*
X81571029Y-172892457D01*
X81428171Y-172821029D01*
X81356743Y-172749600D01*
X81285314Y-172606743D01*
X81285314Y-172463886D01*
X81356743Y-172321029D01*
X81428171Y-172249600D01*
X81571029Y-172178171D01*
X81928171Y-172178171D01*
X82142457Y-172249600D01*
X82785314Y-173678171D02*
X82785314Y-172178171D01*
X83428171Y-173678171D02*
X83428171Y-172892457D01*
X83356742Y-172749600D01*
X83213885Y-172678171D01*
X82999600Y-172678171D01*
X82856742Y-172749600D01*
X82785314Y-172821029D01*
X84713885Y-173606743D02*
X84571028Y-173678171D01*
X84285314Y-173678171D01*
X84142457Y-173606743D01*
X84071028Y-173463886D01*
X84071028Y-172892457D01*
X84142457Y-172749600D01*
X84285314Y-172678171D01*
X84571028Y-172678171D01*
X84713885Y-172749600D01*
X84785314Y-172892457D01*
X84785314Y-173035314D01*
X84071028Y-173178171D01*
X85999599Y-173606743D02*
X85856742Y-173678171D01*
X85571028Y-173678171D01*
X85428171Y-173606743D01*
X85356742Y-173463886D01*
X85356742Y-172892457D01*
X85428171Y-172749600D01*
X85571028Y-172678171D01*
X85856742Y-172678171D01*
X85999599Y-172749600D01*
X86071028Y-172892457D01*
X86071028Y-173035314D01*
X85356742Y-173178171D01*
X86499599Y-172678171D02*
X87071028Y-172678171D01*
X86713885Y-172178171D02*
X86713885Y-173463886D01*
X86785313Y-173606743D01*
X86928171Y-173678171D01*
X87071028Y-173678171D01*
X87571028Y-173535314D02*
X87642456Y-173606743D01*
X87571028Y-173678171D01*
X87499599Y-173606743D01*
X87571028Y-173535314D01*
X87571028Y-173678171D01*
X87571028Y-172749600D02*
X87642456Y-172821029D01*
X87571028Y-172892457D01*
X87499599Y-172821029D01*
X87571028Y-172749600D01*
X87571028Y-172892457D01*
D10*
D11*
X99999600Y-181499600D02*
X99999600Y-184499600D01*
D10*
D11*
X163999600Y-181499600D02*
X163999600Y-187999600D01*
X115100000Y-98900000D02*
X115100000Y-134900000D01*
X67100000Y-98900000D02*
X115100000Y-98900000D01*
X67100000Y-134900000D02*
X67100000Y-98900000D01*
X68766666Y-134900000D02*
G75*
G03X68766666Y-134900000I-1666666J0D01*
G01*
X64600000Y-134900000D02*
X69600000Y-134900000D01*
X67100000Y-132400000D02*
X67100000Y-137400000D01*
X109006667Y-106892381D02*
X109006667Y-107606667D01*
X108959047Y-107749524D01*
X108863809Y-107844762D01*
X108720952Y-107892381D01*
X108625714Y-107892381D01*
X109482857Y-107892381D02*
X109482857Y-106892381D01*
X109863810Y-106892381D01*
X109959048Y-106940000D01*
X110006667Y-106987619D01*
X110054286Y-107082857D01*
X110054286Y-107225714D01*
X110006667Y-107320952D01*
X109959048Y-107368571D01*
X109863810Y-107416190D01*
X109482857Y-107416190D01*
X111006667Y-107892381D02*
X110435238Y-107892381D01*
X110720952Y-107892381D02*
X110720952Y-106892381D01*
X110625714Y-107035238D01*
X110530476Y-107130476D01*
X110435238Y-107178095D01*
X109030477Y-104508571D02*
X108697143Y-104508571D01*
X108697143Y-105032381D02*
X108697143Y-104032381D01*
X109173334Y-104032381D01*
X109506667Y-104746667D02*
X109982858Y-104746667D01*
X109411429Y-105032381D02*
X109744762Y-104032381D01*
X110078096Y-105032381D01*
X110411429Y-105032381D02*
X110411429Y-104032381D01*
X110982858Y-105032381D01*
X110982858Y-104032381D01*
X115100000Y-134900000D02*
X67100000Y-134900000D01*
X68766666Y-134900000D02*
G75*
G03X68766666Y-134900000I-1666666J0D01*
G01*
X64600000Y-134900000D02*
X69600000Y-134900000D01*
X67100000Y-132400000D02*
X67100000Y-137400000D01*
D12*
X105768572Y-100117143D02*
X106911429Y-100117143D01*
X101538572Y-100047143D02*
X102681429Y-100047143D01*
X102110000Y-100618571D02*
X102110000Y-99475714D01*
D11*
X92459822Y-116607143D02*
X92665180Y-116678571D01*
X93022323Y-116678571D01*
X93174108Y-116607143D01*
X93254466Y-116535714D01*
X93343751Y-116392857D01*
X93361608Y-116250000D01*
X93308037Y-116107143D01*
X93245537Y-116035714D01*
X93111608Y-115964286D01*
X92834823Y-115892857D01*
X92700893Y-115821429D01*
X92638394Y-115750000D01*
X92584822Y-115607143D01*
X92602679Y-115464286D01*
X92691965Y-115321429D01*
X92772322Y-115250000D01*
X92924109Y-115178571D01*
X93281251Y-115178571D01*
X93486608Y-115250000D01*
X93950894Y-116678571D02*
X94075894Y-115678571D01*
X94058036Y-115821429D02*
X94138393Y-115750000D01*
X94290180Y-115678571D01*
X94504465Y-115678571D01*
X94638393Y-115750000D01*
X94691965Y-115892857D01*
X94593751Y-116678571D01*
X94691965Y-115892857D02*
X94781251Y-115750000D01*
X94933037Y-115678571D01*
X95147322Y-115678571D01*
X95281251Y-115750000D01*
X95334822Y-115892857D01*
X95236608Y-116678571D01*
X96593751Y-116678571D02*
X96691965Y-115892857D01*
X96638393Y-115750000D01*
X96504465Y-115678571D01*
X96218751Y-115678571D01*
X96066965Y-115750000D01*
X96602679Y-116607143D02*
X96450894Y-116678571D01*
X96093751Y-116678571D01*
X95959822Y-116607143D01*
X95906250Y-116464286D01*
X95924107Y-116321429D01*
X96013394Y-116178571D01*
X96165179Y-116107143D01*
X96522322Y-116107143D01*
X96674108Y-116035714D01*
X97522323Y-116678571D02*
X97388393Y-116607143D01*
X97334822Y-116464286D01*
X97495537Y-115178571D01*
X98308037Y-116678571D02*
X98174107Y-116607143D01*
X98120536Y-116464286D01*
X98281251Y-115178571D01*
X100022322Y-116678571D02*
X100209822Y-115178571D01*
X100566965Y-115178571D01*
X100772321Y-115250000D01*
X100897322Y-115392857D01*
X100950893Y-115535714D01*
X100986607Y-115821429D01*
X100959822Y-116035714D01*
X100852678Y-116321429D01*
X100763393Y-116464286D01*
X100602678Y-116607143D01*
X100379465Y-116678571D01*
X100022322Y-116678571D01*
X101522322Y-116678571D02*
X101647322Y-115678571D01*
X101611607Y-115964286D02*
X101700892Y-115821429D01*
X101781250Y-115750000D01*
X101933036Y-115678571D01*
X102075893Y-115678571D01*
X102450893Y-116678571D02*
X102575893Y-115678571D01*
X102638393Y-115178571D02*
X102558035Y-115250000D01*
X102620535Y-115321429D01*
X102700892Y-115250000D01*
X102638393Y-115178571D01*
X102620535Y-115321429D01*
X103147322Y-115678571D02*
X103379465Y-116678571D01*
X103861607Y-115678571D01*
X104888392Y-116607143D02*
X104736607Y-116678571D01*
X104450893Y-116678571D01*
X104316964Y-116607143D01*
X104263392Y-116464286D01*
X104334821Y-115892857D01*
X104424107Y-115750000D01*
X104575893Y-115678571D01*
X104861607Y-115678571D01*
X104995535Y-115750000D01*
X105049107Y-115892857D01*
X105031250Y-116035714D01*
X104299107Y-116178571D01*
X105593750Y-116678571D02*
X105718750Y-115678571D01*
X105683035Y-115964286D02*
X105772320Y-115821429D01*
X105852678Y-115750000D01*
X106004464Y-115678571D01*
X106147321Y-115678571D01*
D14*
X92696428Y-114154762D02*
X92946428Y-112154762D01*
X93422619Y-112154762D01*
X93696428Y-112250000D01*
X93863095Y-112440476D01*
X93934524Y-112630952D01*
X93982143Y-113011905D01*
X93946429Y-113297619D01*
X93803572Y-113678571D01*
X93684523Y-113869048D01*
X93470238Y-114059524D01*
X93172619Y-114154762D01*
X92696428Y-114154762D01*
X94696428Y-114154762D02*
X94863094Y-112821429D01*
X94946428Y-112154762D02*
X94839285Y-112250000D01*
X94922618Y-112345238D01*
X95029762Y-112250000D01*
X94946428Y-112154762D01*
X94922618Y-112345238D01*
X96672618Y-112821429D02*
X96470237Y-114440476D01*
X96351190Y-114630952D01*
X96244047Y-114726190D01*
X96041666Y-114821429D01*
X95755952Y-114821429D01*
X95577380Y-114726190D01*
X96517857Y-114059524D02*
X96315476Y-114154762D01*
X95934524Y-114154762D01*
X95755953Y-114059524D01*
X95672618Y-113964286D01*
X95601190Y-113773810D01*
X95672618Y-113202381D01*
X95791666Y-113011905D01*
X95898810Y-112916667D01*
X96101190Y-112821429D01*
X96482142Y-112821429D01*
X96660714Y-112916667D01*
X97458333Y-114154762D02*
X97624999Y-112821429D01*
X97708333Y-112154762D02*
X97601190Y-112250000D01*
X97684523Y-112345238D01*
X97791667Y-112250000D01*
X97708333Y-112154762D01*
X97684523Y-112345238D01*
X98291666Y-112821429D02*
X99053571Y-112821429D01*
X98660714Y-112154762D02*
X98446428Y-113869048D01*
X98517858Y-114059524D01*
X98696429Y-114154762D01*
X98886905Y-114154762D01*
X100410714Y-114154762D02*
X100541666Y-113107143D01*
X100470238Y-112916667D01*
X100291666Y-112821429D01*
X99910714Y-112821429D01*
X99708333Y-112916667D01*
X100422619Y-114059524D02*
X100220238Y-114154762D01*
X99744048Y-114154762D01*
X99565476Y-114059524D01*
X99494047Y-113869048D01*
X99517857Y-113678571D01*
X99636904Y-113488095D01*
X99839286Y-113392857D01*
X100315476Y-113392857D01*
X100517857Y-113297619D01*
X101648810Y-114154762D02*
X101470239Y-114059524D01*
X101398809Y-113869048D01*
X101613095Y-112154762D01*
X103851191Y-114059524D02*
X104125001Y-114154762D01*
X104601191Y-114154762D01*
X104803572Y-114059524D01*
X104910714Y-113964286D01*
X105029763Y-113773810D01*
X105053572Y-113583333D01*
X104982143Y-113392857D01*
X104898810Y-113297619D01*
X104720238Y-113202381D01*
X104351191Y-113107143D01*
X104172620Y-113011905D01*
X104089286Y-112916667D01*
X104017857Y-112726190D01*
X104041667Y-112535714D01*
X104160714Y-112345238D01*
X104267858Y-112250000D01*
X104470239Y-112154762D01*
X104946429Y-112154762D01*
X105220239Y-112250000D01*
X106863095Y-112821429D02*
X106613095Y-114821429D01*
X106708334Y-114059524D02*
X106505953Y-114154762D01*
X106125001Y-114154762D01*
X105946430Y-114059524D01*
X105863095Y-113964286D01*
X105791667Y-113773810D01*
X105863095Y-113202381D01*
X105982143Y-113011905D01*
X106089287Y-112916667D01*
X106291667Y-112821429D01*
X106672619Y-112821429D01*
X106851191Y-112916667D01*
X107648810Y-114154762D02*
X107815476Y-112821429D01*
X107767857Y-113202381D02*
X107886906Y-113011905D01*
X107994049Y-112916667D01*
X108196429Y-112821429D01*
X108386905Y-112821429D01*
X108767857Y-112821429D02*
X109529762Y-112821429D01*
X109136905Y-112154762D02*
X108922619Y-113869048D01*
X108994049Y-114059524D01*
X109172620Y-114154762D01*
X109363096Y-114154762D01*
D11*
X108345238Y-115702381D02*
X108678571Y-116702381D01*
X109011905Y-115702381D01*
X109726191Y-116654762D02*
X109630953Y-116702381D01*
X109440476Y-116702381D01*
X109345238Y-116654762D01*
X109297619Y-116559524D01*
X109297619Y-116178571D01*
X109345238Y-116083333D01*
X109440476Y-116035714D01*
X109630953Y-116035714D01*
X109726191Y-116083333D01*
X109773810Y-116178571D01*
X109773810Y-116273810D01*
X109297619Y-116369048D01*
X110202381Y-116702381D02*
X110202381Y-116035714D01*
X110202381Y-116226190D02*
X110250000Y-116130952D01*
X110297619Y-116083333D01*
X110392857Y-116035714D01*
X110488096Y-116035714D01*
X112107144Y-116702381D02*
X111535715Y-116702381D01*
X111821429Y-116702381D02*
X111821429Y-115702381D01*
X111726191Y-115845238D01*
X111630953Y-115940476D01*
X111535715Y-115988095D01*
X112535715Y-116607143D02*
X112583334Y-116654762D01*
X112535715Y-116702381D01*
X112488096Y-116654762D01*
X112535715Y-116607143D01*
X112535715Y-116702381D01*
X113488096Y-115702381D02*
X113011905Y-115702381D01*
X112964286Y-116178571D01*
X113011905Y-116130952D01*
X113107143Y-116083333D01*
X113345239Y-116083333D01*
X113440477Y-116130952D01*
X113488096Y-116178571D01*
X113535715Y-116273810D01*
X113535715Y-116511905D01*
X113488096Y-116607143D01*
X113440477Y-116654762D01*
X113345239Y-116702381D01*
X113107143Y-116702381D01*
X113011905Y-116654762D01*
X112964286Y-116607143D01*
D15*
G36*
X87065892Y-106868270D02*
X87481711Y-106906540D01*
X87877701Y-106955770D01*
X88158754Y-107006918D01*
X88378344Y-107079539D01*
X88589945Y-107193188D01*
X88847033Y-107367419D01*
X88957491Y-107446214D01*
X89312064Y-107693396D01*
X89687963Y-107944817D01*
X90012547Y-108152053D01*
X90056757Y-108179019D01*
X90502842Y-108528177D01*
X90904798Y-108989795D01*
X91218595Y-109506999D01*
X91359133Y-109861354D01*
X91454082Y-110298805D01*
X91515697Y-110836308D01*
X91540823Y-111407295D01*
X91526303Y-111945195D01*
X91476895Y-112345149D01*
X91373741Y-112717945D01*
X91215851Y-113126918D01*
X91082547Y-113398956D01*
X90933863Y-113675380D01*
X90863746Y-113845784D01*
X90862649Y-113948745D01*
X90921022Y-114022844D01*
X90926899Y-114027789D01*
X91144891Y-114307469D01*
X91275501Y-114686784D01*
X91302861Y-114972296D01*
X91252219Y-115499778D01*
X91095824Y-115898093D01*
X90824655Y-116176431D01*
X90429691Y-116343977D01*
X89901913Y-116409919D01*
X89891041Y-116410234D01*
X89547959Y-116432842D01*
X89281249Y-116494444D01*
X89009812Y-116619455D01*
X88809768Y-116735766D01*
X87846911Y-117245548D01*
X86736837Y-117700923D01*
X85494568Y-118095971D01*
X85068112Y-118209561D01*
X84749084Y-118286968D01*
X84529634Y-118322607D01*
X84346042Y-118319511D01*
X84134587Y-118280714D01*
X84039158Y-118258540D01*
X83820619Y-118166992D01*
X83549970Y-118000264D01*
X83361093Y-117856065D01*
X83110917Y-117663287D01*
X82878379Y-117514185D01*
X82751268Y-117454869D01*
X82473559Y-117329991D01*
X82130468Y-117120504D01*
X81773392Y-116863950D01*
X81453725Y-116597875D01*
X81222865Y-116359822D01*
X81187369Y-116312457D01*
X81034276Y-116044499D01*
X80959143Y-115762543D01*
X80953032Y-115678625D01*
X81214212Y-115678625D01*
X81355630Y-116111324D01*
X81394530Y-116178464D01*
X81566220Y-116375688D01*
X81841924Y-116609974D01*
X82172359Y-116846452D01*
X82508242Y-117050255D01*
X82800290Y-117186515D01*
X82836667Y-117198783D01*
X83017306Y-117291254D01*
X83256581Y-117458151D01*
X83421162Y-117592992D01*
X83674895Y-117801231D01*
X83906039Y-117943564D01*
X84145175Y-118021840D01*
X84422881Y-118037908D01*
X84769738Y-117993618D01*
X85216326Y-117890817D01*
X85778612Y-117735548D01*
X86306764Y-117569202D01*
X86849688Y-117371830D01*
X87383672Y-117154868D01*
X87885004Y-116929753D01*
X88329972Y-116707924D01*
X88694864Y-116500817D01*
X88955967Y-116319870D01*
X89089570Y-116176520D01*
X89102000Y-116132540D01*
X89172175Y-116076473D01*
X89334833Y-116100094D01*
X89692378Y-116148601D01*
X90079738Y-116126585D01*
X90446025Y-116044805D01*
X90740351Y-115914018D01*
X90897628Y-115769749D01*
X90941645Y-115637154D01*
X90988812Y-115399705D01*
X91013336Y-115230272D01*
X91017252Y-114762509D01*
X90898883Y-114408073D01*
X90659270Y-114169813D01*
X90618279Y-114147007D01*
X90332249Y-114042112D01*
X90055360Y-114051181D01*
X89726432Y-114177387D01*
X89691294Y-114195054D01*
X89492216Y-114279627D01*
X89372068Y-114297892D01*
X89356000Y-114279721D01*
X89273458Y-114242629D01*
X89033863Y-114215287D01*
X88649266Y-114198572D01*
X88170667Y-114193334D01*
X86985333Y-114193334D01*
X86985333Y-114804266D01*
X86117500Y-114748381D01*
X85616223Y-114714500D01*
X85259453Y-114682634D01*
X85022644Y-114645068D01*
X84881250Y-114594087D01*
X84810726Y-114521978D01*
X84786524Y-114421026D01*
X84784000Y-114329288D01*
X84758254Y-114134508D01*
X84650828Y-114005599D01*
X84476041Y-113908508D01*
X84138921Y-113807466D01*
X83925708Y-113814887D01*
X83747652Y-113886647D01*
X83686647Y-114033341D01*
X83683333Y-114115394D01*
X83668065Y-114277488D01*
X83589059Y-114346308D01*
X83396517Y-114360229D01*
X83365833Y-114360053D01*
X83019868Y-114344027D01*
X82646496Y-114305826D01*
X82287714Y-114252402D01*
X81985522Y-114190708D01*
X81781919Y-114127696D01*
X81721322Y-114087816D01*
X81666049Y-114039697D01*
X81652630Y-114122020D01*
X81614556Y-114270166D01*
X81517490Y-114507320D01*
X81419094Y-114710004D01*
X81235412Y-115208792D01*
X81214212Y-115678625D01*
X80953032Y-115678625D01*
X80938274Y-115475983D01*
X80912289Y-115148186D01*
X80841269Y-114918408D01*
X80706126Y-114719715D01*
X80533545Y-114447195D01*
X80431787Y-114150268D01*
X80417938Y-113949975D01*
X80723980Y-113949975D01*
X80732290Y-114161488D01*
X80799135Y-114395685D01*
X80906283Y-114593822D01*
X81035500Y-114697153D01*
X81066002Y-114701334D01*
X81075931Y-114643199D01*
X80997426Y-114498999D01*
X80965421Y-114453838D01*
X80828932Y-114171954D01*
X80828339Y-114151569D01*
X81091135Y-114151569D01*
X81147298Y-114297818D01*
X81237058Y-114362667D01*
X81299125Y-114291894D01*
X81312667Y-114198330D01*
X81274307Y-114039563D01*
X81189190Y-113967580D01*
X81106575Y-114014979D01*
X81091135Y-114151569D01*
X80828339Y-114151569D01*
X80823656Y-113990733D01*
X80830803Y-113848137D01*
X80792436Y-113819892D01*
X80723980Y-113949975D01*
X80417938Y-113949975D01*
X80413317Y-113883146D01*
X80471177Y-113727667D01*
X80974000Y-113727667D01*
X81016333Y-113770000D01*
X81058667Y-113727667D01*
X81016333Y-113685334D01*
X80974000Y-113727667D01*
X80471177Y-113727667D01*
X80475386Y-113716357D01*
X80610135Y-113612804D01*
X81159191Y-113612804D01*
X81176227Y-113660208D01*
X81265349Y-113730360D01*
X81413748Y-113833938D01*
X81472061Y-113830674D01*
X81482000Y-113727667D01*
X81409909Y-113625475D01*
X81291500Y-113603360D01*
X81159191Y-113612804D01*
X80610135Y-113612804D01*
X80646042Y-113585210D01*
X80903936Y-113457492D01*
X81169900Y-113367978D01*
X81317075Y-113346667D01*
X81395987Y-113334674D01*
X81417988Y-113274902D01*
X81380010Y-113131658D01*
X81278984Y-112869251D01*
X81275215Y-112859834D01*
X81075660Y-112190419D01*
X81036115Y-111695667D01*
X81300090Y-111695667D01*
X81323618Y-111952634D01*
X81377790Y-112249554D01*
X81452955Y-112557174D01*
X81539464Y-112846245D01*
X81627666Y-113087515D01*
X81707911Y-113251733D01*
X81770549Y-113309647D01*
X81805929Y-113232007D01*
X81806195Y-113229733D01*
X81834056Y-112985800D01*
X82566379Y-113045220D01*
X83041302Y-113086691D01*
X83372529Y-113125825D01*
X83585427Y-113169855D01*
X83705364Y-113226013D01*
X83757706Y-113301533D01*
X83768000Y-113387843D01*
X83799930Y-113526032D01*
X83927359Y-113545879D01*
X83965325Y-113539464D01*
X84170299Y-113547213D01*
X84427604Y-113614117D01*
X84483665Y-113635872D01*
X84714321Y-113730315D01*
X84827838Y-113751307D01*
X84865521Y-113685140D01*
X84868674Y-113518106D01*
X84868667Y-113508099D01*
X84868667Y-113246197D01*
X85694167Y-113301363D01*
X86186548Y-113336151D01*
X86534764Y-113368986D01*
X86763714Y-113407403D01*
X86898300Y-113458935D01*
X86963422Y-113531120D01*
X86983981Y-113631490D01*
X86985333Y-113692061D01*
X86985333Y-113939334D01*
X89281709Y-113939334D01*
X89228264Y-113579500D01*
X89222649Y-113240053D01*
X89283350Y-112754171D01*
X89364998Y-112330667D01*
X89475587Y-111764005D01*
X89530527Y-111317492D01*
X89525616Y-110949950D01*
X89456649Y-110620197D01*
X89319421Y-110287054D01*
X89119465Y-109925663D01*
X88864475Y-109536423D01*
X88625372Y-109244581D01*
X88445833Y-109091799D01*
X88239534Y-108955395D01*
X88189955Y-108881088D01*
X88299214Y-108861897D01*
X88509333Y-108882462D01*
X88720584Y-108905793D01*
X88838867Y-108909145D01*
X88848000Y-108905125D01*
X88773781Y-108814129D01*
X88577937Y-108692150D01*
X88300686Y-108558007D01*
X87982245Y-108430522D01*
X87662833Y-108328515D01*
X87561422Y-108303042D01*
X86909845Y-108153202D01*
X86046200Y-108485101D01*
X85640227Y-108647747D01*
X85358187Y-108781356D01*
X85162668Y-108908301D01*
X85016261Y-109050953D01*
X84942393Y-109145202D01*
X84791945Y-109333904D01*
X84702903Y-109392914D01*
X84650401Y-109338250D01*
X84648849Y-109334290D01*
X84622304Y-109143756D01*
X84635659Y-108984921D01*
X84633462Y-108817728D01*
X84552221Y-108774667D01*
X84310415Y-108834478D01*
X83994333Y-108999276D01*
X83641775Y-109247111D01*
X83426002Y-109428740D01*
X83202859Y-109626488D01*
X83077236Y-109720854D01*
X83021122Y-109722103D01*
X83006503Y-109640499D01*
X83006000Y-109582642D01*
X83069935Y-109265979D01*
X83267157Y-108903155D01*
X83605786Y-108479828D01*
X83671224Y-108408123D01*
X83872351Y-108188578D01*
X83964446Y-108076174D01*
X83954324Y-108054550D01*
X83848802Y-108107345D01*
X83780307Y-108146266D01*
X83547055Y-108307621D01*
X83358036Y-108483482D01*
X83344789Y-108499500D01*
X83210068Y-108637894D01*
X83114888Y-108690000D01*
X82975635Y-108752888D01*
X82763111Y-108922739D01*
X82506022Y-109171332D01*
X82233074Y-109470448D01*
X81972974Y-109791866D01*
X81916353Y-109868225D01*
X81599754Y-110358128D01*
X81404883Y-110810011D01*
X81312780Y-111280092D01*
X81300090Y-111695667D01*
X81036115Y-111695667D01*
X81022002Y-111519102D01*
X81111554Y-110802759D01*
X81139330Y-110679667D01*
X81300685Y-110002334D01*
X81054953Y-110298667D01*
X80906706Y-110489739D01*
X80817940Y-110627831D01*
X80806944Y-110658500D01*
X80738384Y-110719210D01*
X80710821Y-110722000D01*
X80657134Y-110657275D01*
X80673435Y-110498328D01*
X80745773Y-110298004D01*
X80860197Y-110109146D01*
X80878461Y-110087000D01*
X81062798Y-109862766D01*
X81145100Y-109739785D01*
X81122648Y-109726379D01*
X80992722Y-109830865D01*
X80949147Y-109870776D01*
X80751399Y-110028597D01*
X80648847Y-110054775D01*
X80644641Y-109959797D01*
X80741934Y-109754151D01*
X80858686Y-109569648D01*
X81213041Y-109076564D01*
X81539702Y-108700054D01*
X81881338Y-108402674D01*
X82280619Y-108146976D01*
X82750679Y-107909274D01*
X83165226Y-107724155D01*
X83582529Y-107552461D01*
X83945680Y-107416897D01*
X84140679Y-107354685D01*
X84642999Y-107215027D01*
X84374833Y-107105604D01*
X84195281Y-107025579D01*
X84108210Y-106973492D01*
X84106667Y-106970060D01*
X84184754Y-106957991D01*
X84392708Y-106948631D01*
X84691065Y-106943508D01*
X84805167Y-106943005D01*
X85229390Y-106933394D01*
X85677164Y-106909054D01*
X86053360Y-106875195D01*
X86061655Y-106874195D01*
X86514071Y-106849761D01*
X87065892Y-106868270D01*
X87065892Y-106868270D01*
G37*
X87065892Y-106868270D02*
X87481711Y-106906540D01*
X87877701Y-106955770D01*
X88158754Y-107006918D01*
X88378344Y-107079539D01*
X88589945Y-107193188D01*
X88847033Y-107367419D01*
X88957491Y-107446214D01*
X89312064Y-107693396D01*
X89687963Y-107944817D01*
X90012547Y-108152053D01*
X90056757Y-108179019D01*
X90502842Y-108528177D01*
X90904798Y-108989795D01*
X91218595Y-109506999D01*
X91359133Y-109861354D01*
X91454082Y-110298805D01*
X91515697Y-110836308D01*
X91540823Y-111407295D01*
X91526303Y-111945195D01*
X91476895Y-112345149D01*
X91373741Y-112717945D01*
X91215851Y-113126918D01*
X91082547Y-113398956D01*
X90933863Y-113675380D01*
X90863746Y-113845784D01*
X90862649Y-113948745D01*
X90921022Y-114022844D01*
X90926899Y-114027789D01*
X91144891Y-114307469D01*
X91275501Y-114686784D01*
X91302861Y-114972296D01*
X91252219Y-115499778D01*
X91095824Y-115898093D01*
X90824655Y-116176431D01*
X90429691Y-116343977D01*
X89901913Y-116409919D01*
X89891041Y-116410234D01*
X89547959Y-116432842D01*
X89281249Y-116494444D01*
X89009812Y-116619455D01*
X88809768Y-116735766D01*
X87846911Y-117245548D01*
X86736837Y-117700923D01*
X85494568Y-118095971D01*
X85068112Y-118209561D01*
X84749084Y-118286968D01*
X84529634Y-118322607D01*
X84346042Y-118319511D01*
X84134587Y-118280714D01*
X84039158Y-118258540D01*
X83820619Y-118166992D01*
X83549970Y-118000264D01*
X83361093Y-117856065D01*
X83110917Y-117663287D01*
X82878379Y-117514185D01*
X82751268Y-117454869D01*
X82473559Y-117329991D01*
X82130468Y-117120504D01*
X81773392Y-116863950D01*
X81453725Y-116597875D01*
X81222865Y-116359822D01*
X81187369Y-116312457D01*
X81034276Y-116044499D01*
X80959143Y-115762543D01*
X80953032Y-115678625D01*
X81214212Y-115678625D01*
X81355630Y-116111324D01*
X81394530Y-116178464D01*
X81566220Y-116375688D01*
X81841924Y-116609974D01*
X82172359Y-116846452D01*
X82508242Y-117050255D01*
X82800290Y-117186515D01*
X82836667Y-117198783D01*
X83017306Y-117291254D01*
X83256581Y-117458151D01*
X83421162Y-117592992D01*
X83674895Y-117801231D01*
X83906039Y-117943564D01*
X84145175Y-118021840D01*
X84422881Y-118037908D01*
X84769738Y-117993618D01*
X85216326Y-117890817D01*
X85778612Y-117735548D01*
X86306764Y-117569202D01*
X86849688Y-117371830D01*
X87383672Y-117154868D01*
X87885004Y-116929753D01*
X88329972Y-116707924D01*
X88694864Y-116500817D01*
X88955967Y-116319870D01*
X89089570Y-116176520D01*
X89102000Y-116132540D01*
X89172175Y-116076473D01*
X89334833Y-116100094D01*
X89692378Y-116148601D01*
X90079738Y-116126585D01*
X90446025Y-116044805D01*
X90740351Y-115914018D01*
X90897628Y-115769749D01*
X90941645Y-115637154D01*
X90988812Y-115399705D01*
X91013336Y-115230272D01*
X91017252Y-114762509D01*
X90898883Y-114408073D01*
X90659270Y-114169813D01*
X90618279Y-114147007D01*
X90332249Y-114042112D01*
X90055360Y-114051181D01*
X89726432Y-114177387D01*
X89691294Y-114195054D01*
X89492216Y-114279627D01*
X89372068Y-114297892D01*
X89356000Y-114279721D01*
X89273458Y-114242629D01*
X89033863Y-114215287D01*
X88649266Y-114198572D01*
X88170667Y-114193334D01*
X86985333Y-114193334D01*
X86985333Y-114804266D01*
X86117500Y-114748381D01*
X85616223Y-114714500D01*
X85259453Y-114682634D01*
X85022644Y-114645068D01*
X84881250Y-114594087D01*
X84810726Y-114521978D01*
X84786524Y-114421026D01*
X84784000Y-114329288D01*
X84758254Y-114134508D01*
X84650828Y-114005599D01*
X84476041Y-113908508D01*
X84138921Y-113807466D01*
X83925708Y-113814887D01*
X83747652Y-113886647D01*
X83686647Y-114033341D01*
X83683333Y-114115394D01*
X83668065Y-114277488D01*
X83589059Y-114346308D01*
X83396517Y-114360229D01*
X83365833Y-114360053D01*
X83019868Y-114344027D01*
X82646496Y-114305826D01*
X82287714Y-114252402D01*
X81985522Y-114190708D01*
X81781919Y-114127696D01*
X81721322Y-114087816D01*
X81666049Y-114039697D01*
X81652630Y-114122020D01*
X81614556Y-114270166D01*
X81517490Y-114507320D01*
X81419094Y-114710004D01*
X81235412Y-115208792D01*
X81214212Y-115678625D01*
X80953032Y-115678625D01*
X80938274Y-115475983D01*
X80912289Y-115148186D01*
X80841269Y-114918408D01*
X80706126Y-114719715D01*
X80533545Y-114447195D01*
X80431787Y-114150268D01*
X80417938Y-113949975D01*
X80723980Y-113949975D01*
X80732290Y-114161488D01*
X80799135Y-114395685D01*
X80906283Y-114593822D01*
X81035500Y-114697153D01*
X81066002Y-114701334D01*
X81075931Y-114643199D01*
X80997426Y-114498999D01*
X80965421Y-114453838D01*
X80828932Y-114171954D01*
X80828339Y-114151569D01*
X81091135Y-114151569D01*
X81147298Y-114297818D01*
X81237058Y-114362667D01*
X81299125Y-114291894D01*
X81312667Y-114198330D01*
X81274307Y-114039563D01*
X81189190Y-113967580D01*
X81106575Y-114014979D01*
X81091135Y-114151569D01*
X80828339Y-114151569D01*
X80823656Y-113990733D01*
X80830803Y-113848137D01*
X80792436Y-113819892D01*
X80723980Y-113949975D01*
X80417938Y-113949975D01*
X80413317Y-113883146D01*
X80471177Y-113727667D01*
X80974000Y-113727667D01*
X81016333Y-113770000D01*
X81058667Y-113727667D01*
X81016333Y-113685334D01*
X80974000Y-113727667D01*
X80471177Y-113727667D01*
X80475386Y-113716357D01*
X80610135Y-113612804D01*
X81159191Y-113612804D01*
X81176227Y-113660208D01*
X81265349Y-113730360D01*
X81413748Y-113833938D01*
X81472061Y-113830674D01*
X81482000Y-113727667D01*
X81409909Y-113625475D01*
X81291500Y-113603360D01*
X81159191Y-113612804D01*
X80610135Y-113612804D01*
X80646042Y-113585210D01*
X80903936Y-113457492D01*
X81169900Y-113367978D01*
X81317075Y-113346667D01*
X81395987Y-113334674D01*
X81417988Y-113274902D01*
X81380010Y-113131658D01*
X81278984Y-112869251D01*
X81275215Y-112859834D01*
X81075660Y-112190419D01*
X81036115Y-111695667D01*
X81300090Y-111695667D01*
X81323618Y-111952634D01*
X81377790Y-112249554D01*
X81452955Y-112557174D01*
X81539464Y-112846245D01*
X81627666Y-113087515D01*
X81707911Y-113251733D01*
X81770549Y-113309647D01*
X81805929Y-113232007D01*
X81806195Y-113229733D01*
X81834056Y-112985800D01*
X82566379Y-113045220D01*
X83041302Y-113086691D01*
X83372529Y-113125825D01*
X83585427Y-113169855D01*
X83705364Y-113226013D01*
X83757706Y-113301533D01*
X83768000Y-113387843D01*
X83799930Y-113526032D01*
X83927359Y-113545879D01*
X83965325Y-113539464D01*
X84170299Y-113547213D01*
X84427604Y-113614117D01*
X84483665Y-113635872D01*
X84714321Y-113730315D01*
X84827838Y-113751307D01*
X84865521Y-113685140D01*
X84868674Y-113518106D01*
X84868667Y-113508099D01*
X84868667Y-113246197D01*
X85694167Y-113301363D01*
X86186548Y-113336151D01*
X86534764Y-113368986D01*
X86763714Y-113407403D01*
X86898300Y-113458935D01*
X86963422Y-113531120D01*
X86983981Y-113631490D01*
X86985333Y-113692061D01*
X86985333Y-113939334D01*
X89281709Y-113939334D01*
X89228264Y-113579500D01*
X89222649Y-113240053D01*
X89283350Y-112754171D01*
X89364998Y-112330667D01*
X89475587Y-111764005D01*
X89530527Y-111317492D01*
X89525616Y-110949950D01*
X89456649Y-110620197D01*
X89319421Y-110287054D01*
X89119465Y-109925663D01*
X88864475Y-109536423D01*
X88625372Y-109244581D01*
X88445833Y-109091799D01*
X88239534Y-108955395D01*
X88189955Y-108881088D01*
X88299214Y-108861897D01*
X88509333Y-108882462D01*
X88720584Y-108905793D01*
X88838867Y-108909145D01*
X88848000Y-108905125D01*
X88773781Y-108814129D01*
X88577937Y-108692150D01*
X88300686Y-108558007D01*
X87982245Y-108430522D01*
X87662833Y-108328515D01*
X87561422Y-108303042D01*
X86909845Y-108153202D01*
X86046200Y-108485101D01*
X85640227Y-108647747D01*
X85358187Y-108781356D01*
X85162668Y-108908301D01*
X85016261Y-109050953D01*
X84942393Y-109145202D01*
X84791945Y-109333904D01*
X84702903Y-109392914D01*
X84650401Y-109338250D01*
X84648849Y-109334290D01*
X84622304Y-109143756D01*
X84635659Y-108984921D01*
X84633462Y-108817728D01*
X84552221Y-108774667D01*
X84310415Y-108834478D01*
X83994333Y-108999276D01*
X83641775Y-109247111D01*
X83426002Y-109428740D01*
X83202859Y-109626488D01*
X83077236Y-109720854D01*
X83021122Y-109722103D01*
X83006503Y-109640499D01*
X83006000Y-109582642D01*
X83069935Y-109265979D01*
X83267157Y-108903155D01*
X83605786Y-108479828D01*
X83671224Y-108408123D01*
X83872351Y-108188578D01*
X83964446Y-108076174D01*
X83954324Y-108054550D01*
X83848802Y-108107345D01*
X83780307Y-108146266D01*
X83547055Y-108307621D01*
X83358036Y-108483482D01*
X83344789Y-108499500D01*
X83210068Y-108637894D01*
X83114888Y-108690000D01*
X82975635Y-108752888D01*
X82763111Y-108922739D01*
X82506022Y-109171332D01*
X82233074Y-109470448D01*
X81972974Y-109791866D01*
X81916353Y-109868225D01*
X81599754Y-110358128D01*
X81404883Y-110810011D01*
X81312780Y-111280092D01*
X81300090Y-111695667D01*
X81036115Y-111695667D01*
X81022002Y-111519102D01*
X81111554Y-110802759D01*
X81139330Y-110679667D01*
X81300685Y-110002334D01*
X81054953Y-110298667D01*
X80906706Y-110489739D01*
X80817940Y-110627831D01*
X80806944Y-110658500D01*
X80738384Y-110719210D01*
X80710821Y-110722000D01*
X80657134Y-110657275D01*
X80673435Y-110498328D01*
X80745773Y-110298004D01*
X80860197Y-110109146D01*
X80878461Y-110087000D01*
X81062798Y-109862766D01*
X81145100Y-109739785D01*
X81122648Y-109726379D01*
X80992722Y-109830865D01*
X80949147Y-109870776D01*
X80751399Y-110028597D01*
X80648847Y-110054775D01*
X80644641Y-109959797D01*
X80741934Y-109754151D01*
X80858686Y-109569648D01*
X81213041Y-109076564D01*
X81539702Y-108700054D01*
X81881338Y-108402674D01*
X82280619Y-108146976D01*
X82750679Y-107909274D01*
X83165226Y-107724155D01*
X83582529Y-107552461D01*
X83945680Y-107416897D01*
X84140679Y-107354685D01*
X84642999Y-107215027D01*
X84374833Y-107105604D01*
X84195281Y-107025579D01*
X84108210Y-106973492D01*
X84106667Y-106970060D01*
X84184754Y-106957991D01*
X84392708Y-106948631D01*
X84691065Y-106943508D01*
X84805167Y-106943005D01*
X85229390Y-106933394D01*
X85677164Y-106909054D01*
X86053360Y-106875195D01*
X86061655Y-106874195D01*
X86514071Y-106849761D01*
X87065892Y-106868270D01*
G36*
X84536623Y-116112360D02*
X84906719Y-116285963D01*
X85143833Y-116460332D01*
X85261429Y-116594780D01*
X85261401Y-116706522D01*
X85129838Y-116809979D01*
X84852830Y-116919573D01*
X84635833Y-116986984D01*
X84316936Y-117081933D01*
X84057315Y-117160765D01*
X83902875Y-117209501D01*
X83886127Y-117215326D01*
X83805081Y-117163566D01*
X83694311Y-116996275D01*
X83852667Y-116996275D01*
X83866241Y-117065608D01*
X83928221Y-117089180D01*
X84070496Y-117063647D01*
X84324954Y-116985668D01*
X84495518Y-116928892D01*
X84811867Y-116818009D01*
X84990695Y-116739000D01*
X85056808Y-116675538D01*
X85035015Y-116611296D01*
X85013566Y-116587947D01*
X84791727Y-116473118D01*
X84504556Y-116459255D01*
X84219454Y-116542178D01*
X84066422Y-116646705D01*
X83920074Y-116824769D01*
X83853104Y-116986326D01*
X83852667Y-116996275D01*
X83694311Y-116996275D01*
X83692643Y-116993756D01*
X83603655Y-116810831D01*
X83414723Y-116371647D01*
X83592256Y-116194114D01*
X83838670Y-116059449D01*
X84167033Y-116034527D01*
X84536623Y-116112360D01*
X84536623Y-116112360D01*
G37*
X84536623Y-116112360D02*
X84906719Y-116285963D01*
X85143833Y-116460332D01*
X85261429Y-116594780D01*
X85261401Y-116706522D01*
X85129838Y-116809979D01*
X84852830Y-116919573D01*
X84635833Y-116986984D01*
X84316936Y-117081933D01*
X84057315Y-117160765D01*
X83902875Y-117209501D01*
X83886127Y-117215326D01*
X83805081Y-117163566D01*
X83694311Y-116996275D01*
X83852667Y-116996275D01*
X83866241Y-117065608D01*
X83928221Y-117089180D01*
X84070496Y-117063647D01*
X84324954Y-116985668D01*
X84495518Y-116928892D01*
X84811867Y-116818009D01*
X84990695Y-116739000D01*
X85056808Y-116675538D01*
X85035015Y-116611296D01*
X85013566Y-116587947D01*
X84791727Y-116473118D01*
X84504556Y-116459255D01*
X84219454Y-116542178D01*
X84066422Y-116646705D01*
X83920074Y-116824769D01*
X83853104Y-116986326D01*
X83852667Y-116996275D01*
X83694311Y-116996275D01*
X83692643Y-116993756D01*
X83603655Y-116810831D01*
X83414723Y-116371647D01*
X83592256Y-116194114D01*
X83838670Y-116059449D01*
X84167033Y-116034527D01*
X84536623Y-116112360D01*
G36*
X89980272Y-114313507D02*
X90288391Y-114442327D01*
X90471918Y-114661998D01*
X90523585Y-114941268D01*
X90436122Y-115248886D01*
X90256169Y-115499638D01*
X90047563Y-115703970D01*
X89904388Y-115787847D01*
X89788986Y-115765154D01*
X89711600Y-115700400D01*
X89636333Y-115546795D01*
X89604049Y-115340567D01*
X89578509Y-115095535D01*
X89533839Y-114918196D01*
X89525201Y-114706922D01*
X89534259Y-114680109D01*
X89742238Y-114680109D01*
X89786394Y-114903469D01*
X89808725Y-114961510D01*
X89877173Y-115180519D01*
X89892178Y-115341806D01*
X89888260Y-115357558D01*
X89887587Y-115439512D01*
X89960804Y-115422638D01*
X90068129Y-115333617D01*
X90169782Y-115199130D01*
X90193816Y-115152614D01*
X90254959Y-114885280D01*
X90179496Y-114684356D01*
X90010823Y-114586248D01*
X89816346Y-114575672D01*
X89742238Y-114680109D01*
X89534259Y-114680109D01*
X89592562Y-114507534D01*
X89701450Y-114339170D01*
X89837082Y-114294083D01*
X89980272Y-114313507D01*
X89980272Y-114313507D01*
G37*
X89980272Y-114313507D02*
X90288391Y-114442327D01*
X90471918Y-114661998D01*
X90523585Y-114941268D01*
X90436122Y-115248886D01*
X90256169Y-115499638D01*
X90047563Y-115703970D01*
X89904388Y-115787847D01*
X89788986Y-115765154D01*
X89711600Y-115700400D01*
X89636333Y-115546795D01*
X89604049Y-115340567D01*
X89578509Y-115095535D01*
X89533839Y-114918196D01*
X89525201Y-114706922D01*
X89534259Y-114680109D01*
X89742238Y-114680109D01*
X89786394Y-114903469D01*
X89808725Y-114961510D01*
X89877173Y-115180519D01*
X89892178Y-115341806D01*
X89888260Y-115357558D01*
X89887587Y-115439512D01*
X89960804Y-115422638D01*
X90068129Y-115333617D01*
X90169782Y-115199130D01*
X90193816Y-115152614D01*
X90254959Y-114885280D01*
X90179496Y-114684356D01*
X90010823Y-114586248D01*
X89816346Y-114575672D01*
X89742238Y-114680109D01*
X89534259Y-114680109D01*
X89592562Y-114507534D01*
X89701450Y-114339170D01*
X89837082Y-114294083D01*
X89980272Y-114313507D01*
G36*
X84644010Y-115207578D02*
X84653551Y-115215818D01*
X84676905Y-115323374D01*
X84577318Y-115426700D01*
X84392299Y-115534759D01*
X84277567Y-115518102D01*
X84237247Y-115469127D01*
X84252648Y-115364982D01*
X84368442Y-115260593D01*
X84520329Y-115195083D01*
X84644010Y-115207578D01*
X84644010Y-115207578D01*
G37*
X84644010Y-115207578D02*
X84653551Y-115215818D01*
X84676905Y-115323374D01*
X84577318Y-115426700D01*
X84392299Y-115534759D01*
X84277567Y-115518102D01*
X84237247Y-115469127D01*
X84252648Y-115364982D01*
X84368442Y-115260593D01*
X84520329Y-115195083D01*
X84644010Y-115207578D01*
G36*
X83708158Y-115011122D02*
X83824895Y-115119366D01*
X83888907Y-115264985D01*
X83882344Y-115338784D01*
X83795261Y-115453663D01*
X83669353Y-115410482D01*
X83615600Y-115361734D01*
X83521948Y-115193572D01*
X83549348Y-115040921D01*
X83591841Y-115001885D01*
X83708158Y-115011122D01*
X83708158Y-115011122D01*
G37*
X83708158Y-115011122D02*
X83824895Y-115119366D01*
X83888907Y-115264985D01*
X83882344Y-115338784D01*
X83795261Y-115453663D01*
X83669353Y-115410482D01*
X83615600Y-115361734D01*
X83521948Y-115193572D01*
X83549348Y-115040921D01*
X83591841Y-115001885D01*
X83708158Y-115011122D01*
G36*
X84378236Y-114750767D02*
X84686080Y-114864379D01*
X84846759Y-114979608D01*
X84977233Y-115137873D01*
X85019305Y-115248859D01*
X85012343Y-115263212D01*
X84958279Y-115257226D01*
X84953333Y-115222200D01*
X84876216Y-115071861D01*
X84674133Y-114944467D01*
X84390985Y-114850404D01*
X84070671Y-114800060D01*
X83757094Y-114803819D01*
X83494153Y-114872070D01*
X83487267Y-114875338D01*
X83360259Y-114933785D01*
X83372226Y-114909023D01*
X83471667Y-114826338D01*
X83709571Y-114724896D01*
X84032247Y-114701989D01*
X84378236Y-114750767D01*
X84378236Y-114750767D01*
G37*
X84378236Y-114750767D02*
X84686080Y-114864379D01*
X84846759Y-114979608D01*
X84977233Y-115137873D01*
X85019305Y-115248859D01*
X85012343Y-115263212D01*
X84958279Y-115257226D01*
X84953333Y-115222200D01*
X84876216Y-115071861D01*
X84674133Y-114944467D01*
X84390985Y-114850404D01*
X84070671Y-114800060D01*
X83757094Y-114803819D01*
X83494153Y-114872070D01*
X83487267Y-114875338D01*
X83360259Y-114933785D01*
X83372226Y-114909023D01*
X83471667Y-114826338D01*
X83709571Y-114724896D01*
X84032247Y-114701989D01*
X84378236Y-114750767D01*
G36*
X86403568Y-111538371D02*
X86677083Y-111682654D01*
X86719927Y-111706282D01*
X87025340Y-111874808D01*
X87209544Y-111981347D01*
X87297986Y-112048567D01*
X87316112Y-112099132D01*
X87289368Y-112155710D01*
X87266989Y-112193574D01*
X87208696Y-112249478D01*
X87105229Y-112243601D01*
X86923268Y-112166513D01*
X86645395Y-112017642D01*
X86377588Y-111868067D01*
X86175168Y-111753981D01*
X86076611Y-111697088D01*
X86073174Y-111694836D01*
X86079044Y-111613719D01*
X86104100Y-111536623D01*
X86149445Y-111474273D01*
X86238478Y-111471884D01*
X86403568Y-111538371D01*
X86403568Y-111538371D01*
G37*
X86403568Y-111538371D02*
X86677083Y-111682654D01*
X86719927Y-111706282D01*
X87025340Y-111874808D01*
X87209544Y-111981347D01*
X87297986Y-112048567D01*
X87316112Y-112099132D01*
X87289368Y-112155710D01*
X87266989Y-112193574D01*
X87208696Y-112249478D01*
X87105229Y-112243601D01*
X86923268Y-112166513D01*
X86645395Y-112017642D01*
X86377588Y-111868067D01*
X86175168Y-111753981D01*
X86076611Y-111697088D01*
X86073174Y-111694836D01*
X86079044Y-111613719D01*
X86104100Y-111536623D01*
X86149445Y-111474273D01*
X86238478Y-111471884D01*
X86403568Y-111538371D01*
G36*
X82860652Y-111451797D02*
X82948824Y-111518184D01*
X82938263Y-111603556D01*
X82808787Y-111663208D01*
X82599438Y-111702519D01*
X82305668Y-111772076D01*
X82046373Y-111876572D01*
X81980443Y-111916213D01*
X81813252Y-112008317D01*
X81708461Y-112020374D01*
X81705276Y-112017721D01*
X81656224Y-111910146D01*
X81737166Y-111786139D01*
X81884167Y-111670479D01*
X82118513Y-111549087D01*
X82393043Y-111467360D01*
X82657257Y-111432521D01*
X82860652Y-111451797D01*
X82860652Y-111451797D01*
G37*
X82860652Y-111451797D02*
X82948824Y-111518184D01*
X82938263Y-111603556D01*
X82808787Y-111663208D01*
X82599438Y-111702519D01*
X82305668Y-111772076D01*
X82046373Y-111876572D01*
X81980443Y-111916213D01*
X81813252Y-112008317D01*
X81708461Y-112020374D01*
X81705276Y-112017721D01*
X81656224Y-111910146D01*
X81737166Y-111786139D01*
X81884167Y-111670479D01*
X82118513Y-111549087D01*
X82393043Y-111467360D01*
X82657257Y-111432521D01*
X82860652Y-111451797D01*
D11*
X75750000Y-107675000D02*
X77750000Y-107675000D01*
X77750000Y-109825000D02*
X75750000Y-109825000D01*
X77750000Y-104825000D02*
X75750000Y-104825000D01*
X75750000Y-102675000D02*
X77750000Y-102675000D01*
X75750000Y-105175000D02*
X77750000Y-105175000D01*
X77750000Y-107325000D02*
X75750000Y-107325000D01*
X96515000Y-104990000D02*
X96515000Y-106990000D01*
X94365000Y-106990000D02*
X94365000Y-104990000D01*
X91200000Y-102800000D02*
X91200000Y-105200000D01*
X91200000Y-105200000D02*
X86800000Y-105200000D01*
X86800000Y-105200000D02*
X86800000Y-102800000D01*
X86800000Y-102800000D02*
X91200000Y-102800000D01*
D12*
X90900000Y-104650000D02*
G75*
G03X90900000Y-104650000I-250000J0D01*
G01*
D11*
X100520000Y-101020000D02*
X100520000Y-108640000D01*
X100520000Y-108640000D02*
X108140000Y-108640000D01*
X108140000Y-108640000D02*
X108140000Y-101020000D01*
X108140000Y-101020000D02*
X100520000Y-101020000D01*
X96925000Y-107000000D02*
X96925000Y-105000000D01*
X99075000Y-105000000D02*
X99075000Y-107000000D01*
X69520000Y-107790000D02*
X71520000Y-107790000D01*
X69066000Y-106290000D02*
X69066000Y-108290000D01*
X71974000Y-106290000D02*
X71974000Y-108390000D01*
D16*
X71400000Y-118310000D02*
X71400000Y-117160000D01*
X76600000Y-118310000D02*
X76600000Y-117110000D01*
X76400000Y-118300000D02*
X76600000Y-118300000D01*
X71400000Y-118300000D02*
X71600000Y-118300000D01*
D11*
X71571429Y-133452381D02*
X71571429Y-132452381D01*
X71952382Y-132452381D01*
X72047620Y-132500000D01*
X72095239Y-132547619D01*
X72142858Y-132642857D01*
X72142858Y-132785714D01*
X72095239Y-132880952D01*
X72047620Y-132928571D01*
X71952382Y-132976190D01*
X71571429Y-132976190D01*
X72761905Y-132452381D02*
X72952382Y-132452381D01*
X73047620Y-132500000D01*
X73142858Y-132595238D01*
X73190477Y-132785714D01*
X73190477Y-133119048D01*
X73142858Y-133309524D01*
X73047620Y-133404762D01*
X72952382Y-133452381D01*
X72761905Y-133452381D01*
X72666667Y-133404762D01*
X72571429Y-133309524D01*
X72523810Y-133119048D01*
X72523810Y-132785714D01*
X72571429Y-132595238D01*
X72666667Y-132500000D01*
X72761905Y-132452381D01*
X73523810Y-132452381D02*
X73761905Y-133452381D01*
X73952382Y-132738095D01*
X74142858Y-133452381D01*
X74380953Y-132452381D01*
X74761905Y-132928571D02*
X75095239Y-132928571D01*
X75238096Y-133452381D02*
X74761905Y-133452381D01*
X74761905Y-132452381D01*
X75238096Y-132452381D01*
X76238096Y-133452381D02*
X75904762Y-132976190D01*
X75666667Y-133452381D02*
X75666667Y-132452381D01*
X76047620Y-132452381D01*
X76142858Y-132500000D01*
X76190477Y-132547619D01*
X76238096Y-132642857D01*
X76238096Y-132785714D01*
X76190477Y-132880952D01*
X76142858Y-132928571D01*
X76047620Y-132976190D01*
X75666667Y-132976190D01*
X76666667Y-133071429D02*
X77428572Y-133071429D01*
X77202381Y-108866666D02*
X76726190Y-109200000D01*
X77202381Y-109438095D02*
X76202381Y-109438095D01*
X76202381Y-109057142D01*
X76250000Y-108961904D01*
X76297619Y-108914285D01*
X76392857Y-108866666D01*
X76535714Y-108866666D01*
X76630952Y-108914285D01*
X76678571Y-108961904D01*
X76726190Y-109057142D01*
X76726190Y-109438095D01*
X76202381Y-107961904D02*
X76202381Y-108438095D01*
X76678571Y-108485714D01*
X76630952Y-108438095D01*
X76583333Y-108342857D01*
X76583333Y-108104761D01*
X76630952Y-108009523D01*
X76678571Y-107961904D01*
X76773810Y-107914285D01*
X77011905Y-107914285D01*
X77107143Y-107961904D01*
X77154762Y-108009523D01*
X77202381Y-108104761D01*
X77202381Y-108342857D01*
X77154762Y-108438095D01*
X77107143Y-108485714D01*
X77202381Y-103916666D02*
X76726190Y-104250000D01*
X77202381Y-104488095D02*
X76202381Y-104488095D01*
X76202381Y-104107142D01*
X76250000Y-104011904D01*
X76297619Y-103964285D01*
X76392857Y-103916666D01*
X76535714Y-103916666D01*
X76630952Y-103964285D01*
X76678571Y-104011904D01*
X76726190Y-104107142D01*
X76726190Y-104488095D01*
X77202381Y-102964285D02*
X77202381Y-103535714D01*
X77202381Y-103250000D02*
X76202381Y-103250000D01*
X76345238Y-103345238D01*
X76440476Y-103440476D01*
X76488095Y-103535714D01*
X77202381Y-106416666D02*
X76726190Y-106750000D01*
X77202381Y-106988095D02*
X76202381Y-106988095D01*
X76202381Y-106607142D01*
X76250000Y-106511904D01*
X76297619Y-106464285D01*
X76392857Y-106416666D01*
X76535714Y-106416666D01*
X76630952Y-106464285D01*
X76678571Y-106511904D01*
X76726190Y-106607142D01*
X76726190Y-106988095D01*
X76297619Y-106035714D02*
X76250000Y-105988095D01*
X76202381Y-105892857D01*
X76202381Y-105654761D01*
X76250000Y-105559523D01*
X76297619Y-105511904D01*
X76392857Y-105464285D01*
X76488095Y-105464285D01*
X76630952Y-105511904D01*
X77202381Y-106083333D01*
X77202381Y-105464285D01*
X95273334Y-106442381D02*
X94940000Y-105966190D01*
X94701905Y-106442381D02*
X94701905Y-105442381D01*
X95082858Y-105442381D01*
X95178096Y-105490000D01*
X95225715Y-105537619D01*
X95273334Y-105632857D01*
X95273334Y-105775714D01*
X95225715Y-105870952D01*
X95178096Y-105918571D01*
X95082858Y-105966190D01*
X94701905Y-105966190D01*
X96130477Y-105775714D02*
X96130477Y-106442381D01*
X95892381Y-105394762D02*
X95654286Y-106109048D01*
X96273334Y-106109048D01*
X88238095Y-103452381D02*
X88238095Y-104261905D01*
X88285714Y-104357143D01*
X88333333Y-104404762D01*
X88428571Y-104452381D01*
X88619048Y-104452381D01*
X88714286Y-104404762D01*
X88761905Y-104357143D01*
X88809524Y-104261905D01*
X88809524Y-103452381D01*
X89809524Y-104452381D02*
X89238095Y-104452381D01*
X89523809Y-104452381D02*
X89523809Y-103452381D01*
X89428571Y-103595238D01*
X89333333Y-103690476D01*
X89238095Y-103738095D01*
X97989524Y-101667143D02*
X97941905Y-101714762D01*
X97799048Y-101762381D01*
X97703810Y-101762381D01*
X97560952Y-101714762D01*
X97465714Y-101619524D01*
X97418095Y-101524286D01*
X97370476Y-101333810D01*
X97370476Y-101190952D01*
X97418095Y-101000476D01*
X97465714Y-100905238D01*
X97560952Y-100810000D01*
X97703810Y-100762381D01*
X97799048Y-100762381D01*
X97941905Y-100810000D01*
X97989524Y-100857619D01*
X98418095Y-101762381D02*
X98418095Y-100762381D01*
X98989524Y-101762381D01*
X98989524Y-100762381D01*
X99989524Y-101762381D02*
X99418095Y-101762381D01*
X99703809Y-101762381D02*
X99703809Y-100762381D01*
X99608571Y-100905238D01*
X99513333Y-101000476D01*
X99418095Y-101048095D01*
X97833334Y-106452381D02*
X97500000Y-105976190D01*
X97261905Y-106452381D02*
X97261905Y-105452381D01*
X97642858Y-105452381D01*
X97738096Y-105500000D01*
X97785715Y-105547619D01*
X97833334Y-105642857D01*
X97833334Y-105785714D01*
X97785715Y-105880952D01*
X97738096Y-105928571D01*
X97642858Y-105976190D01*
X97261905Y-105976190D01*
X98166667Y-105452381D02*
X98785715Y-105452381D01*
X98452381Y-105833333D01*
X98595239Y-105833333D01*
X98690477Y-105880952D01*
X98738096Y-105928571D01*
X98785715Y-106023810D01*
X98785715Y-106261905D01*
X98738096Y-106357143D01*
X98690477Y-106404762D01*
X98595239Y-106452381D01*
X98309524Y-106452381D01*
X98214286Y-106404762D01*
X98166667Y-106357143D01*
X70172381Y-112228095D02*
X69172381Y-112228095D01*
X69172381Y-111990000D01*
X69220000Y-111847142D01*
X69315238Y-111751904D01*
X69410476Y-111704285D01*
X69600952Y-111656666D01*
X69743810Y-111656666D01*
X69934286Y-111704285D01*
X70029524Y-111751904D01*
X70124762Y-111847142D01*
X70172381Y-111990000D01*
X70172381Y-112228095D01*
X69172381Y-111323333D02*
X69172381Y-110704285D01*
X69553333Y-111037619D01*
X69553333Y-110894761D01*
X69600952Y-110799523D01*
X69648571Y-110751904D01*
X69743810Y-110704285D01*
X69981905Y-110704285D01*
X70077143Y-110751904D01*
X70124762Y-110799523D01*
X70172381Y-110894761D01*
X70172381Y-111180476D01*
X70124762Y-111275714D01*
X70077143Y-111323333D01*
X94500001Y-132928571D02*
X94642858Y-132976190D01*
X94690477Y-133023810D01*
X94738096Y-133119048D01*
X94738096Y-133261905D01*
X94690477Y-133357143D01*
X94642858Y-133404762D01*
X94547620Y-133452381D01*
X94166667Y-133452381D01*
X94166667Y-132452381D01*
X94500001Y-132452381D01*
X94595239Y-132500000D01*
X94642858Y-132547619D01*
X94690477Y-132642857D01*
X94690477Y-132738095D01*
X94642858Y-132833333D01*
X94595239Y-132880952D01*
X94500001Y-132928571D01*
X94166667Y-132928571D01*
X95166667Y-132928571D02*
X95500001Y-132928571D01*
X95642858Y-133452381D02*
X95166667Y-133452381D01*
X95166667Y-132452381D01*
X95642858Y-132452381D01*
X96071429Y-133452381D02*
X96071429Y-132452381D01*
X96309524Y-132452381D01*
X96452382Y-132500000D01*
X96547620Y-132595238D01*
X96595239Y-132690476D01*
X96642858Y-132880952D01*
X96642858Y-133023810D01*
X96595239Y-133214286D01*
X96547620Y-133309524D01*
X96452382Y-133404762D01*
X96309524Y-133452381D01*
X96071429Y-133452381D01*
X97071429Y-133071429D02*
X97833334Y-133071429D01*
X97452382Y-133452381D02*
X97452382Y-132690476D01*
X106000001Y-132928571D02*
X106142858Y-132976190D01*
X106190477Y-133023810D01*
X106238096Y-133119048D01*
X106238096Y-133261905D01*
X106190477Y-133357143D01*
X106142858Y-133404762D01*
X106047620Y-133452381D01*
X105666667Y-133452381D01*
X105666667Y-132452381D01*
X106000001Y-132452381D01*
X106095239Y-132500000D01*
X106142858Y-132547619D01*
X106190477Y-132642857D01*
X106190477Y-132738095D01*
X106142858Y-132833333D01*
X106095239Y-132880952D01*
X106000001Y-132928571D01*
X105666667Y-132928571D01*
X106666667Y-132928571D02*
X107000001Y-132928571D01*
X107142858Y-133452381D02*
X106666667Y-133452381D01*
X106666667Y-132452381D01*
X107142858Y-132452381D01*
X107571429Y-133452381D02*
X107571429Y-132452381D01*
X107809524Y-132452381D01*
X107952382Y-132500000D01*
X108047620Y-132595238D01*
X108095239Y-132690476D01*
X108142858Y-132880952D01*
X108142858Y-133023810D01*
X108095239Y-133214286D01*
X108047620Y-133309524D01*
X107952382Y-133404762D01*
X107809524Y-133452381D01*
X107571429Y-133452381D01*
X108571429Y-133071429D02*
X109333334Y-133071429D01*
X83071429Y-133452381D02*
X83071429Y-132452381D01*
X83452382Y-132452381D01*
X83547620Y-132500000D01*
X83595239Y-132547619D01*
X83642858Y-132642857D01*
X83642858Y-132785714D01*
X83595239Y-132880952D01*
X83547620Y-132928571D01*
X83452382Y-132976190D01*
X83071429Y-132976190D01*
X84261905Y-132452381D02*
X84452382Y-132452381D01*
X84547620Y-132500000D01*
X84642858Y-132595238D01*
X84690477Y-132785714D01*
X84690477Y-133119048D01*
X84642858Y-133309524D01*
X84547620Y-133404762D01*
X84452382Y-133452381D01*
X84261905Y-133452381D01*
X84166667Y-133404762D01*
X84071429Y-133309524D01*
X84023810Y-133119048D01*
X84023810Y-132785714D01*
X84071429Y-132595238D01*
X84166667Y-132500000D01*
X84261905Y-132452381D01*
X85023810Y-132452381D02*
X85261905Y-133452381D01*
X85452382Y-132738095D01*
X85642858Y-133452381D01*
X85880953Y-132452381D01*
X86261905Y-132928571D02*
X86595239Y-132928571D01*
X86738096Y-133452381D02*
X86261905Y-133452381D01*
X86261905Y-132452381D01*
X86738096Y-132452381D01*
X87738096Y-133452381D02*
X87404762Y-132976190D01*
X87166667Y-133452381D02*
X87166667Y-132452381D01*
X87547620Y-132452381D01*
X87642858Y-132500000D01*
X87690477Y-132547619D01*
X87738096Y-132642857D01*
X87738096Y-132785714D01*
X87690477Y-132880952D01*
X87642858Y-132928571D01*
X87547620Y-132976190D01*
X87166667Y-132976190D01*
X88166667Y-133071429D02*
X88928572Y-133071429D01*
X88547620Y-133452381D02*
X88547620Y-132690476D01*
X70104762Y-119147619D02*
X70009524Y-119100000D01*
X69914286Y-119004762D01*
X69771429Y-118861905D01*
X69676190Y-118814286D01*
X69580952Y-118814286D01*
X69628571Y-119052381D02*
X69533333Y-119004762D01*
X69438095Y-118909524D01*
X69390476Y-118719048D01*
X69390476Y-118385714D01*
X69438095Y-118195238D01*
X69533333Y-118100000D01*
X69628571Y-118052381D01*
X69819048Y-118052381D01*
X69914286Y-118100000D01*
X70009524Y-118195238D01*
X70057143Y-118385714D01*
X70057143Y-118719048D01*
X70009524Y-118909524D01*
X69914286Y-119004762D01*
X69819048Y-119052381D01*
X69628571Y-119052381D01*
X71009524Y-119052381D02*
X70438095Y-119052381D01*
X70723809Y-119052381D02*
X70723809Y-118052381D01*
X70628571Y-118195238D01*
X70533333Y-118290476D01*
X70438095Y-118338095D01*
M02*
