G04 #@! TF.FileFunction,Soldermask,Top*
%FSLAX46Y46*%
G04 Gerber Fmt 4.6, Leading zero omitted, Abs format (unit mm)*
G04 Created by KiCad (PCBNEW 4.0.6) date 04/21/17 03:50:56*
%MOMM*%
%LPD*%
G01*
G04 APERTURE LIST*
%ADD10C,0.100000*%
%ADD11C,0.150000*%
%ADD12C,2.540000*%
%ADD13C,3.600000*%
%ADD14R,2.400000X2.100000*%
%ADD15R,2.940000X1.670000*%
%ADD16R,2.100000X2.400000*%
%ADD17R,2.400000X3.100000*%
%ADD18R,6.900000X9.400000*%
%ADD19R,1.900000X1.900000*%
%ADD20R,1.290000X0.840000*%
%ADD21R,1.690000X4.840000*%
%ADD22R,3.440000X4.340000*%
%ADD23R,5.400000X5.400000*%
%ADD24R,5.400000X4.400000*%
%ADD25R,1.900000X1.400000*%
%ADD26R,2.800000X2.000000*%
G04 APERTURE END LIST*
D10*
D11*
X67000000Y-89000000D02*
X67000000Y-139000000D01*
X117000000Y-89000000D02*
X67000000Y-89000000D01*
X117000000Y-139000000D02*
X117000000Y-89000000D01*
X67000000Y-139000000D02*
X117000000Y-139000000D01*
D12*
X109750000Y-136000000D03*
D13*
X70000000Y-136000000D03*
X114000000Y-136000000D03*
X114000000Y-92000000D03*
X70000000Y-92000000D03*
D14*
X79100000Y-115900000D03*
X83100000Y-115900000D03*
X85750000Y-107000000D03*
X89750000Y-107000000D03*
X104350000Y-107900000D03*
X108350000Y-107900000D03*
X76100000Y-115900000D03*
X72100000Y-115900000D03*
D12*
X74250000Y-91500000D03*
D15*
X73730000Y-111540000D03*
X78270000Y-111540000D03*
X78270000Y-109000000D03*
X73730000Y-109000000D03*
X73730000Y-106460000D03*
X78270000Y-106460000D03*
D16*
X82000000Y-106750000D03*
X82000000Y-110750000D03*
D17*
X92700000Y-114900000D03*
X89600000Y-114900000D03*
D18*
X99310000Y-111900000D03*
D19*
X97560000Y-115400000D03*
X97560000Y-108400000D03*
X99560000Y-108400000D03*
X101560000Y-108400000D03*
X99560000Y-115400000D03*
X96810000Y-110150000D03*
X96810000Y-113650000D03*
X101560000Y-115400000D03*
D20*
X104390000Y-112540000D03*
X104390000Y-113810000D03*
X104390000Y-111260000D03*
D21*
X98910000Y-111900000D03*
D22*
X101110000Y-111900000D03*
D20*
X104390000Y-109990000D03*
D18*
X99310000Y-111900000D03*
D19*
X96810000Y-111900000D03*
D23*
X72680000Y-127900000D03*
X77690000Y-127900000D03*
D24*
X72680000Y-123900000D03*
X77690000Y-123900000D03*
D23*
X72680000Y-119900000D03*
X77690000Y-119900000D03*
X95180000Y-127900000D03*
X100190000Y-127900000D03*
D24*
X95180000Y-123900000D03*
X100190000Y-123900000D03*
D23*
X95180000Y-119900000D03*
X100190000Y-119900000D03*
X83930000Y-127900000D03*
X88940000Y-127900000D03*
D24*
X83930000Y-123900000D03*
X88940000Y-123900000D03*
D23*
X83930000Y-119900000D03*
X88940000Y-119900000D03*
X106430000Y-127900000D03*
X111440000Y-127900000D03*
D24*
X106430000Y-123900000D03*
X111440000Y-123900000D03*
D23*
X106430000Y-119900000D03*
X111440000Y-119900000D03*
D25*
X72250000Y-98080000D03*
X72250000Y-99350000D03*
X78750000Y-99350000D03*
X78750000Y-98080000D03*
D26*
X78040000Y-101290000D03*
X72960000Y-101290000D03*
X72960000Y-96210000D03*
X78040000Y-96210000D03*
M02*
