G04 #@! TF.FileFunction,Legend,Bot*
%FSLAX46Y46*%
G04 Gerber Fmt 4.6, Leading zero omitted, Abs format (unit mm)*
G04 Created by KiCad (PCBNEW 4.0.5) date 02/10/17 23:38:48*
%MOMM*%
%LPD*%
G01*
G04 APERTURE LIST*
%ADD10C,0.100000*%
%ADD11C,0.150000*%
%ADD12C,0.300000*%
%ADD13C,0.400000*%
%ADD14C,0.002540*%
%ADD15C,0.010000*%
G04 APERTURE END LIST*
D10*
D11*
X79999600Y-155999600D02*
X79999600Y-187999600D01*
X187999600Y-187999600D01*
X187999600Y-155999600D01*
X79999600Y-155999600D01*
D10*
D11*
X10000000Y-10000000D02*
X10000000Y-189999600D01*
X189999600Y-189999600D01*
X189999600Y-10000000D01*
X10000000Y-10000000D01*
D10*
D11*
X12000000Y-12000000D02*
X12000000Y-187999600D01*
X187999600Y-187999600D01*
X187999600Y-12000000D01*
X12000000Y-12000000D01*
D10*
D11*
X60000000Y-12000000D02*
X60000000Y-10000000D01*
D10*
D11*
X110000000Y-12000000D02*
X110000000Y-10000000D01*
D10*
D11*
X160000000Y-12000000D02*
X160000000Y-10000000D01*
D10*
D11*
X35990476Y-11588095D02*
X35247619Y-11588095D01*
X35619048Y-11588095D02*
X35619048Y-10288095D01*
X35495238Y-10473810D01*
X35371429Y-10597619D01*
X35247619Y-10659524D01*
D10*
D11*
X85247619Y-10411905D02*
X85309524Y-10350000D01*
X85433333Y-10288095D01*
X85742857Y-10288095D01*
X85866667Y-10350000D01*
X85928571Y-10411905D01*
X85990476Y-10535714D01*
X85990476Y-10659524D01*
X85928571Y-10845238D01*
X85185714Y-11588095D01*
X85990476Y-11588095D01*
D10*
D11*
X135185714Y-10288095D02*
X135990476Y-10288095D01*
X135557143Y-10783333D01*
X135742857Y-10783333D01*
X135866667Y-10845238D01*
X135928571Y-10907143D01*
X135990476Y-11030952D01*
X135990476Y-11340476D01*
X135928571Y-11464286D01*
X135866667Y-11526190D01*
X135742857Y-11588095D01*
X135371429Y-11588095D01*
X135247619Y-11526190D01*
X135185714Y-11464286D01*
D10*
D11*
X185866667Y-10721429D02*
X185866667Y-11588095D01*
X185557143Y-10226190D02*
X185247619Y-11154762D01*
X186052381Y-11154762D01*
D10*
D11*
X60000000Y-187999600D02*
X60000000Y-189999600D01*
D10*
D11*
X110000000Y-187999600D02*
X110000000Y-189999600D01*
D10*
D11*
X160000000Y-187999600D02*
X160000000Y-189999600D01*
D10*
D11*
X35990476Y-189587695D02*
X35247619Y-189587695D01*
X35619048Y-189587695D02*
X35619048Y-188287695D01*
X35495238Y-188473410D01*
X35371429Y-188597219D01*
X35247619Y-188659124D01*
D10*
D11*
X85247619Y-188411505D02*
X85309524Y-188349600D01*
X85433333Y-188287695D01*
X85742857Y-188287695D01*
X85866667Y-188349600D01*
X85928571Y-188411505D01*
X85990476Y-188535314D01*
X85990476Y-188659124D01*
X85928571Y-188844838D01*
X85185714Y-189587695D01*
X85990476Y-189587695D01*
D10*
D11*
X135185714Y-188287695D02*
X135990476Y-188287695D01*
X135557143Y-188782933D01*
X135742857Y-188782933D01*
X135866667Y-188844838D01*
X135928571Y-188906743D01*
X135990476Y-189030552D01*
X135990476Y-189340076D01*
X135928571Y-189463886D01*
X135866667Y-189525790D01*
X135742857Y-189587695D01*
X135371429Y-189587695D01*
X135247619Y-189525790D01*
X135185714Y-189463886D01*
D10*
D11*
X185866667Y-188721029D02*
X185866667Y-189587695D01*
X185557143Y-188225790D02*
X185247619Y-189154362D01*
X186052381Y-189154362D01*
D10*
D11*
X10000000Y-60000000D02*
X12000000Y-60000000D01*
D10*
D11*
X10000000Y-110000000D02*
X12000000Y-110000000D01*
D10*
D11*
X10000000Y-160000000D02*
X12000000Y-160000000D01*
D10*
D11*
X10690476Y-35216667D02*
X11309524Y-35216667D01*
X10566667Y-35588095D02*
X11000000Y-34288095D01*
X11433333Y-35588095D01*
D10*
D11*
X11092857Y-84907143D02*
X11278571Y-84969048D01*
X11340476Y-85030952D01*
X11402381Y-85154762D01*
X11402381Y-85340476D01*
X11340476Y-85464286D01*
X11278571Y-85526190D01*
X11154762Y-85588095D01*
X10659524Y-85588095D01*
X10659524Y-84288095D01*
X11092857Y-84288095D01*
X11216667Y-84350000D01*
X11278571Y-84411905D01*
X11340476Y-84535714D01*
X11340476Y-84659524D01*
X11278571Y-84783333D01*
X11216667Y-84845238D01*
X11092857Y-84907143D01*
X10659524Y-84907143D01*
D10*
D11*
X11402381Y-135464286D02*
X11340476Y-135526190D01*
X11154762Y-135588095D01*
X11030952Y-135588095D01*
X10845238Y-135526190D01*
X10721429Y-135402381D01*
X10659524Y-135278571D01*
X10597619Y-135030952D01*
X10597619Y-134845238D01*
X10659524Y-134597619D01*
X10721429Y-134473810D01*
X10845238Y-134350000D01*
X11030952Y-134288095D01*
X11154762Y-134288095D01*
X11340476Y-134350000D01*
X11402381Y-134411905D01*
D10*
D11*
X10659524Y-185588095D02*
X10659524Y-184288095D01*
X10969048Y-184288095D01*
X11154762Y-184350000D01*
X11278571Y-184473810D01*
X11340476Y-184597619D01*
X11402381Y-184845238D01*
X11402381Y-185030952D01*
X11340476Y-185278571D01*
X11278571Y-185402381D01*
X11154762Y-185526190D01*
X10969048Y-185588095D01*
X10659524Y-185588095D01*
D10*
D11*
X189999600Y-60000000D02*
X187999600Y-60000000D01*
D10*
D11*
X189999600Y-110000000D02*
X187999600Y-110000000D01*
D10*
D11*
X189999600Y-160000000D02*
X187999600Y-160000000D01*
D10*
D11*
X188690076Y-35216667D02*
X189309124Y-35216667D01*
X188566267Y-35588095D02*
X188999600Y-34288095D01*
X189432933Y-35588095D01*
D10*
D11*
X189092457Y-84907143D02*
X189278171Y-84969048D01*
X189340076Y-85030952D01*
X189401981Y-85154762D01*
X189401981Y-85340476D01*
X189340076Y-85464286D01*
X189278171Y-85526190D01*
X189154362Y-85588095D01*
X188659124Y-85588095D01*
X188659124Y-84288095D01*
X189092457Y-84288095D01*
X189216267Y-84350000D01*
X189278171Y-84411905D01*
X189340076Y-84535714D01*
X189340076Y-84659524D01*
X189278171Y-84783333D01*
X189216267Y-84845238D01*
X189092457Y-84907143D01*
X188659124Y-84907143D01*
D10*
D11*
X189401981Y-135464286D02*
X189340076Y-135526190D01*
X189154362Y-135588095D01*
X189030552Y-135588095D01*
X188844838Y-135526190D01*
X188721029Y-135402381D01*
X188659124Y-135278571D01*
X188597219Y-135030952D01*
X188597219Y-134845238D01*
X188659124Y-134597619D01*
X188721029Y-134473810D01*
X188844838Y-134350000D01*
X189030552Y-134288095D01*
X189154362Y-134288095D01*
X189340076Y-134350000D01*
X189401981Y-134411905D01*
D10*
D11*
X188659124Y-185588095D02*
X188659124Y-184288095D01*
X188968648Y-184288095D01*
X189154362Y-184350000D01*
X189278171Y-184473810D01*
X189340076Y-184597619D01*
X189401981Y-184845238D01*
X189401981Y-185030952D01*
X189340076Y-185278571D01*
X189278171Y-185402381D01*
X189154362Y-185526190D01*
X188968648Y-185588095D01*
X188659124Y-185588095D01*
D10*
D11*
X103356743Y-183778171D02*
X103356743Y-182278171D01*
X103713886Y-182278171D01*
X103928171Y-182349600D01*
X104071029Y-182492457D01*
X104142457Y-182635314D01*
X104213886Y-182921029D01*
X104213886Y-183135314D01*
X104142457Y-183421029D01*
X104071029Y-183563886D01*
X103928171Y-183706743D01*
X103713886Y-183778171D01*
X103356743Y-183778171D01*
X105499600Y-183778171D02*
X105499600Y-182992457D01*
X105428171Y-182849600D01*
X105285314Y-182778171D01*
X104999600Y-182778171D01*
X104856743Y-182849600D01*
X105499600Y-183706743D02*
X105356743Y-183778171D01*
X104999600Y-183778171D01*
X104856743Y-183706743D01*
X104785314Y-183563886D01*
X104785314Y-183421029D01*
X104856743Y-183278171D01*
X104999600Y-183206743D01*
X105356743Y-183206743D01*
X105499600Y-183135314D01*
X105999600Y-182778171D02*
X106571029Y-182778171D01*
X106213886Y-182278171D02*
X106213886Y-183563886D01*
X106285314Y-183706743D01*
X106428172Y-183778171D01*
X106571029Y-183778171D01*
X107642457Y-183706743D02*
X107499600Y-183778171D01*
X107213886Y-183778171D01*
X107071029Y-183706743D01*
X106999600Y-183563886D01*
X106999600Y-182992457D01*
X107071029Y-182849600D01*
X107213886Y-182778171D01*
X107499600Y-182778171D01*
X107642457Y-182849600D01*
X107713886Y-182992457D01*
X107713886Y-183135314D01*
X106999600Y-183278171D01*
X108356743Y-183635314D02*
X108428171Y-183706743D01*
X108356743Y-183778171D01*
X108285314Y-183706743D01*
X108356743Y-183635314D01*
X108356743Y-183778171D01*
X108356743Y-182849600D02*
X108428171Y-182921029D01*
X108356743Y-182992457D01*
X108285314Y-182921029D01*
X108356743Y-182849600D01*
X108356743Y-182992457D01*
D10*
D11*
X79999600Y-184499600D02*
X187999600Y-184499600D01*
D10*
D11*
X81356743Y-186578171D02*
X81356743Y-185078171D01*
X82213886Y-186578171D02*
X81571029Y-185721029D01*
X82213886Y-185078171D02*
X81356743Y-185935314D01*
X82856743Y-186578171D02*
X82856743Y-185578171D01*
X82856743Y-185078171D02*
X82785314Y-185149600D01*
X82856743Y-185221029D01*
X82928171Y-185149600D01*
X82856743Y-185078171D01*
X82856743Y-185221029D01*
X84428172Y-186435314D02*
X84356743Y-186506743D01*
X84142457Y-186578171D01*
X83999600Y-186578171D01*
X83785315Y-186506743D01*
X83642457Y-186363886D01*
X83571029Y-186221029D01*
X83499600Y-185935314D01*
X83499600Y-185721029D01*
X83571029Y-185435314D01*
X83642457Y-185292457D01*
X83785315Y-185149600D01*
X83999600Y-185078171D01*
X84142457Y-185078171D01*
X84356743Y-185149600D01*
X84428172Y-185221029D01*
X85713886Y-186578171D02*
X85713886Y-185792457D01*
X85642457Y-185649600D01*
X85499600Y-185578171D01*
X85213886Y-185578171D01*
X85071029Y-185649600D01*
X85713886Y-186506743D02*
X85571029Y-186578171D01*
X85213886Y-186578171D01*
X85071029Y-186506743D01*
X84999600Y-186363886D01*
X84999600Y-186221029D01*
X85071029Y-186078171D01*
X85213886Y-186006743D01*
X85571029Y-186006743D01*
X85713886Y-185935314D01*
X87071029Y-186578171D02*
X87071029Y-185078171D01*
X87071029Y-186506743D02*
X86928172Y-186578171D01*
X86642458Y-186578171D01*
X86499600Y-186506743D01*
X86428172Y-186435314D01*
X86356743Y-186292457D01*
X86356743Y-185863886D01*
X86428172Y-185721029D01*
X86499600Y-185649600D01*
X86642458Y-185578171D01*
X86928172Y-185578171D01*
X87071029Y-185649600D01*
X88928172Y-185792457D02*
X89428172Y-185792457D01*
X89642458Y-186578171D02*
X88928172Y-186578171D01*
X88928172Y-185078171D01*
X89642458Y-185078171D01*
X90285315Y-186435314D02*
X90356743Y-186506743D01*
X90285315Y-186578171D01*
X90213886Y-186506743D01*
X90285315Y-186435314D01*
X90285315Y-186578171D01*
X90999601Y-186578171D02*
X90999601Y-185078171D01*
X91356744Y-185078171D01*
X91571029Y-185149600D01*
X91713887Y-185292457D01*
X91785315Y-185435314D01*
X91856744Y-185721029D01*
X91856744Y-185935314D01*
X91785315Y-186221029D01*
X91713887Y-186363886D01*
X91571029Y-186506743D01*
X91356744Y-186578171D01*
X90999601Y-186578171D01*
X92499601Y-186435314D02*
X92571029Y-186506743D01*
X92499601Y-186578171D01*
X92428172Y-186506743D01*
X92499601Y-186435314D01*
X92499601Y-186578171D01*
X93142458Y-186149600D02*
X93856744Y-186149600D01*
X92999601Y-186578171D02*
X93499601Y-185078171D01*
X93999601Y-186578171D01*
X94499601Y-186435314D02*
X94571029Y-186506743D01*
X94499601Y-186578171D01*
X94428172Y-186506743D01*
X94499601Y-186435314D01*
X94499601Y-186578171D01*
X97499601Y-186578171D02*
X97499601Y-185078171D01*
X97642458Y-186006743D02*
X98071029Y-186578171D01*
X98071029Y-185578171D02*
X97499601Y-186149600D01*
X98713887Y-186578171D02*
X98713887Y-185578171D01*
X98713887Y-185078171D02*
X98642458Y-185149600D01*
X98713887Y-185221029D01*
X98785315Y-185149600D01*
X98713887Y-185078171D01*
X98713887Y-185221029D01*
X100071030Y-186506743D02*
X99928173Y-186578171D01*
X99642459Y-186578171D01*
X99499601Y-186506743D01*
X99428173Y-186435314D01*
X99356744Y-186292457D01*
X99356744Y-185863886D01*
X99428173Y-185721029D01*
X99499601Y-185649600D01*
X99642459Y-185578171D01*
X99928173Y-185578171D01*
X100071030Y-185649600D01*
X101356744Y-186578171D02*
X101356744Y-185792457D01*
X101285315Y-185649600D01*
X101142458Y-185578171D01*
X100856744Y-185578171D01*
X100713887Y-185649600D01*
X101356744Y-186506743D02*
X101213887Y-186578171D01*
X100856744Y-186578171D01*
X100713887Y-186506743D01*
X100642458Y-186363886D01*
X100642458Y-186221029D01*
X100713887Y-186078171D01*
X100856744Y-186006743D01*
X101213887Y-186006743D01*
X101356744Y-185935314D01*
X102713887Y-186578171D02*
X102713887Y-185078171D01*
X102713887Y-186506743D02*
X102571030Y-186578171D01*
X102285316Y-186578171D01*
X102142458Y-186506743D01*
X102071030Y-186435314D01*
X101999601Y-186292457D01*
X101999601Y-185863886D01*
X102071030Y-185721029D01*
X102142458Y-185649600D01*
X102285316Y-185578171D01*
X102571030Y-185578171D01*
X102713887Y-185649600D01*
X105213887Y-185578171D02*
X105213887Y-186578171D01*
X104856744Y-185006743D02*
X104499601Y-186078171D01*
X105428173Y-186078171D01*
X105999601Y-186435314D02*
X106071029Y-186506743D01*
X105999601Y-186578171D01*
X105928172Y-186506743D01*
X105999601Y-186435314D01*
X105999601Y-186578171D01*
X106999601Y-185078171D02*
X107142458Y-185078171D01*
X107285315Y-185149600D01*
X107356744Y-185221029D01*
X107428173Y-185363886D01*
X107499601Y-185649600D01*
X107499601Y-186006743D01*
X107428173Y-186292457D01*
X107356744Y-186435314D01*
X107285315Y-186506743D01*
X107142458Y-186578171D01*
X106999601Y-186578171D01*
X106856744Y-186506743D01*
X106785315Y-186435314D01*
X106713887Y-186292457D01*
X106642458Y-186006743D01*
X106642458Y-185649600D01*
X106713887Y-185363886D01*
X106785315Y-185221029D01*
X106856744Y-185149600D01*
X106999601Y-185078171D01*
X108142458Y-186435314D02*
X108213886Y-186506743D01*
X108142458Y-186578171D01*
X108071029Y-186506743D01*
X108142458Y-186435314D01*
X108142458Y-186578171D01*
X109571030Y-185078171D02*
X108856744Y-185078171D01*
X108785315Y-185792457D01*
X108856744Y-185721029D01*
X108999601Y-185649600D01*
X109356744Y-185649600D01*
X109499601Y-185721029D01*
X109571030Y-185792457D01*
X109642458Y-185935314D01*
X109642458Y-186292457D01*
X109571030Y-186435314D01*
X109499601Y-186506743D01*
X109356744Y-186578171D01*
X108999601Y-186578171D01*
X108856744Y-186506743D01*
X108785315Y-186435314D01*
D10*
D11*
X79999600Y-181499600D02*
X187999600Y-181499600D01*
D10*
D12*
X167213886Y-183778171D02*
X166713886Y-183063886D01*
X166356743Y-183778171D02*
X166356743Y-182278171D01*
X166928171Y-182278171D01*
X167071029Y-182349600D01*
X167142457Y-182421029D01*
X167213886Y-182563886D01*
X167213886Y-182778171D01*
X167142457Y-182921029D01*
X167071029Y-182992457D01*
X166928171Y-183063886D01*
X166356743Y-183063886D01*
X168428171Y-183706743D02*
X168285314Y-183778171D01*
X167999600Y-183778171D01*
X167856743Y-183706743D01*
X167785314Y-183563886D01*
X167785314Y-182992457D01*
X167856743Y-182849600D01*
X167999600Y-182778171D01*
X168285314Y-182778171D01*
X168428171Y-182849600D01*
X168499600Y-182992457D01*
X168499600Y-183135314D01*
X167785314Y-183278171D01*
X168999600Y-182778171D02*
X169356743Y-183778171D01*
X169713885Y-182778171D01*
X170285314Y-183635314D02*
X170356742Y-183706743D01*
X170285314Y-183778171D01*
X170213885Y-183706743D01*
X170285314Y-183635314D01*
X170285314Y-183778171D01*
X170285314Y-182849600D02*
X170356742Y-182921029D01*
X170285314Y-182992457D01*
X170213885Y-182921029D01*
X170285314Y-182849600D01*
X170285314Y-182992457D01*
D10*
D11*
X81285314Y-183706743D02*
X81499600Y-183778171D01*
X81856743Y-183778171D01*
X81999600Y-183706743D01*
X82071029Y-183635314D01*
X82142457Y-183492457D01*
X82142457Y-183349600D01*
X82071029Y-183206743D01*
X81999600Y-183135314D01*
X81856743Y-183063886D01*
X81571029Y-182992457D01*
X81428171Y-182921029D01*
X81356743Y-182849600D01*
X81285314Y-182706743D01*
X81285314Y-182563886D01*
X81356743Y-182421029D01*
X81428171Y-182349600D01*
X81571029Y-182278171D01*
X81928171Y-182278171D01*
X82142457Y-182349600D01*
X82785314Y-183778171D02*
X82785314Y-182778171D01*
X82785314Y-182278171D02*
X82713885Y-182349600D01*
X82785314Y-182421029D01*
X82856742Y-182349600D01*
X82785314Y-182278171D01*
X82785314Y-182421029D01*
X83356743Y-182778171D02*
X84142457Y-182778171D01*
X83356743Y-183778171D01*
X84142457Y-183778171D01*
X85285314Y-183706743D02*
X85142457Y-183778171D01*
X84856743Y-183778171D01*
X84713886Y-183706743D01*
X84642457Y-183563886D01*
X84642457Y-182992457D01*
X84713886Y-182849600D01*
X84856743Y-182778171D01*
X85142457Y-182778171D01*
X85285314Y-182849600D01*
X85356743Y-182992457D01*
X85356743Y-183135314D01*
X84642457Y-183278171D01*
X85999600Y-183635314D02*
X86071028Y-183706743D01*
X85999600Y-183778171D01*
X85928171Y-183706743D01*
X85999600Y-183635314D01*
X85999600Y-183778171D01*
X85999600Y-182849600D02*
X86071028Y-182921029D01*
X85999600Y-182992457D01*
X85928171Y-182921029D01*
X85999600Y-182849600D01*
X85999600Y-182992457D01*
X87856743Y-182278171D02*
X87856743Y-183492457D01*
X87928171Y-183635314D01*
X87999600Y-183706743D01*
X88142457Y-183778171D01*
X88428171Y-183778171D01*
X88571029Y-183706743D01*
X88642457Y-183635314D01*
X88713886Y-183492457D01*
X88713886Y-182278171D01*
X89356743Y-183706743D02*
X89499600Y-183778171D01*
X89785315Y-183778171D01*
X89928172Y-183706743D01*
X89999600Y-183563886D01*
X89999600Y-183492457D01*
X89928172Y-183349600D01*
X89785315Y-183278171D01*
X89571029Y-183278171D01*
X89428172Y-183206743D01*
X89356743Y-183063886D01*
X89356743Y-182992457D01*
X89428172Y-182849600D01*
X89571029Y-182778171D01*
X89785315Y-182778171D01*
X89928172Y-182849600D01*
X91213886Y-183706743D02*
X91071029Y-183778171D01*
X90785315Y-183778171D01*
X90642458Y-183706743D01*
X90571029Y-183563886D01*
X90571029Y-182992457D01*
X90642458Y-182849600D01*
X90785315Y-182778171D01*
X91071029Y-182778171D01*
X91213886Y-182849600D01*
X91285315Y-182992457D01*
X91285315Y-183135314D01*
X90571029Y-183278171D01*
X91928172Y-183778171D02*
X91928172Y-182778171D01*
X91928172Y-183063886D02*
X91999600Y-182921029D01*
X92071029Y-182849600D01*
X92213886Y-182778171D01*
X92356743Y-182778171D01*
D10*
D11*
X166356743Y-186578171D02*
X166356743Y-185078171D01*
X167713886Y-186578171D02*
X167713886Y-185078171D01*
X167713886Y-186506743D02*
X167571029Y-186578171D01*
X167285315Y-186578171D01*
X167142457Y-186506743D01*
X167071029Y-186435314D01*
X166999600Y-186292457D01*
X166999600Y-185863886D01*
X167071029Y-185721029D01*
X167142457Y-185649600D01*
X167285315Y-185578171D01*
X167571029Y-185578171D01*
X167713886Y-185649600D01*
X168428172Y-186435314D02*
X168499600Y-186506743D01*
X168428172Y-186578171D01*
X168356743Y-186506743D01*
X168428172Y-186435314D01*
X168428172Y-186578171D01*
X168428172Y-185649600D02*
X168499600Y-185721029D01*
X168428172Y-185792457D01*
X168356743Y-185721029D01*
X168428172Y-185649600D01*
X168428172Y-185792457D01*
X171071029Y-186578171D02*
X170213886Y-186578171D01*
X170642458Y-186578171D02*
X170642458Y-185078171D01*
X170499601Y-185292457D01*
X170356743Y-185435314D01*
X170213886Y-185506743D01*
X172785314Y-185006743D02*
X171499600Y-186935314D01*
X174071029Y-186578171D02*
X173213886Y-186578171D01*
X173642458Y-186578171D02*
X173642458Y-185078171D01*
X173499601Y-185292457D01*
X173356743Y-185435314D01*
X173213886Y-185506743D01*
D10*
D11*
X79999600Y-177499600D02*
X187999600Y-177499600D01*
D10*
D13*
X81451981Y-178204362D02*
X82594838Y-178204362D01*
X81773410Y-180204362D02*
X82023410Y-178204362D01*
X83011505Y-180204362D02*
X83178171Y-178871029D01*
X83261505Y-178204362D02*
X83154362Y-178299600D01*
X83237695Y-178394838D01*
X83344839Y-178299600D01*
X83261505Y-178204362D01*
X83237695Y-178394838D01*
X83844838Y-178871029D02*
X84606743Y-178871029D01*
X84213886Y-178204362D02*
X83999600Y-179918648D01*
X84071030Y-180109124D01*
X84249601Y-180204362D01*
X84440077Y-180204362D01*
X85392458Y-180204362D02*
X85213887Y-180109124D01*
X85142457Y-179918648D01*
X85356743Y-178204362D01*
X86928172Y-180109124D02*
X86725791Y-180204362D01*
X86344839Y-180204362D01*
X86166267Y-180109124D01*
X86094838Y-179918648D01*
X86190076Y-179156743D01*
X86309124Y-178966267D01*
X86511505Y-178871029D01*
X86892457Y-178871029D01*
X87071029Y-178966267D01*
X87142457Y-179156743D01*
X87118648Y-179347219D01*
X86142457Y-179537695D01*
X87892457Y-180013886D02*
X87975792Y-180109124D01*
X87868648Y-180204362D01*
X87785315Y-180109124D01*
X87892457Y-180013886D01*
X87868648Y-180204362D01*
X88023410Y-178966267D02*
X88106744Y-179061505D01*
X87999600Y-179156743D01*
X87916267Y-179061505D01*
X88023410Y-178966267D01*
X87999600Y-179156743D01*
D10*
D11*
X81856743Y-175592457D02*
X81356743Y-175592457D01*
X81356743Y-176378171D02*
X81356743Y-174878171D01*
X82071029Y-174878171D01*
X82642457Y-176378171D02*
X82642457Y-175378171D01*
X82642457Y-174878171D02*
X82571028Y-174949600D01*
X82642457Y-175021029D01*
X82713885Y-174949600D01*
X82642457Y-174878171D01*
X82642457Y-175021029D01*
X83571029Y-176378171D02*
X83428171Y-176306743D01*
X83356743Y-176163886D01*
X83356743Y-174878171D01*
X84713885Y-176306743D02*
X84571028Y-176378171D01*
X84285314Y-176378171D01*
X84142457Y-176306743D01*
X84071028Y-176163886D01*
X84071028Y-175592457D01*
X84142457Y-175449600D01*
X84285314Y-175378171D01*
X84571028Y-175378171D01*
X84713885Y-175449600D01*
X84785314Y-175592457D01*
X84785314Y-175735314D01*
X84071028Y-175878171D01*
X85428171Y-176235314D02*
X85499599Y-176306743D01*
X85428171Y-176378171D01*
X85356742Y-176306743D01*
X85428171Y-176235314D01*
X85428171Y-176378171D01*
X85428171Y-175449600D02*
X85499599Y-175521029D01*
X85428171Y-175592457D01*
X85356742Y-175521029D01*
X85428171Y-175449600D01*
X85428171Y-175592457D01*
X87285314Y-176378171D02*
X87285314Y-174878171D01*
X87285314Y-175592457D02*
X88142457Y-175592457D01*
X88142457Y-176378171D02*
X88142457Y-174878171D01*
X88856743Y-176378171D02*
X88856743Y-175378171D01*
X88856743Y-174878171D02*
X88785314Y-174949600D01*
X88856743Y-175021029D01*
X88928171Y-174949600D01*
X88856743Y-174878171D01*
X88856743Y-175021029D01*
X90213886Y-175378171D02*
X90213886Y-176592457D01*
X90142457Y-176735314D01*
X90071029Y-176806743D01*
X89928172Y-176878171D01*
X89713886Y-176878171D01*
X89571029Y-176806743D01*
X90213886Y-176306743D02*
X90071029Y-176378171D01*
X89785315Y-176378171D01*
X89642457Y-176306743D01*
X89571029Y-176235314D01*
X89499600Y-176092457D01*
X89499600Y-175663886D01*
X89571029Y-175521029D01*
X89642457Y-175449600D01*
X89785315Y-175378171D01*
X90071029Y-175378171D01*
X90213886Y-175449600D01*
X90928172Y-176378171D02*
X90928172Y-174878171D01*
X91571029Y-176378171D02*
X91571029Y-175592457D01*
X91499600Y-175449600D01*
X91356743Y-175378171D01*
X91142458Y-175378171D01*
X90999600Y-175449600D01*
X90928172Y-175521029D01*
X93428172Y-176378171D02*
X93428172Y-174878171D01*
X93999600Y-174878171D01*
X94142458Y-174949600D01*
X94213886Y-175021029D01*
X94285315Y-175163886D01*
X94285315Y-175378171D01*
X94213886Y-175521029D01*
X94142458Y-175592457D01*
X93999600Y-175663886D01*
X93428172Y-175663886D01*
X95142458Y-176378171D02*
X94999600Y-176306743D01*
X94928172Y-176235314D01*
X94856743Y-176092457D01*
X94856743Y-175663886D01*
X94928172Y-175521029D01*
X94999600Y-175449600D01*
X95142458Y-175378171D01*
X95356743Y-175378171D01*
X95499600Y-175449600D01*
X95571029Y-175521029D01*
X95642458Y-175663886D01*
X95642458Y-176092457D01*
X95571029Y-176235314D01*
X95499600Y-176306743D01*
X95356743Y-176378171D01*
X95142458Y-176378171D01*
X96142458Y-175378171D02*
X96428172Y-176378171D01*
X96713886Y-175663886D01*
X96999601Y-176378171D01*
X97285315Y-175378171D01*
X98428172Y-176306743D02*
X98285315Y-176378171D01*
X97999601Y-176378171D01*
X97856744Y-176306743D01*
X97785315Y-176163886D01*
X97785315Y-175592457D01*
X97856744Y-175449600D01*
X97999601Y-175378171D01*
X98285315Y-175378171D01*
X98428172Y-175449600D01*
X98499601Y-175592457D01*
X98499601Y-175735314D01*
X97785315Y-175878171D01*
X99142458Y-176378171D02*
X99142458Y-175378171D01*
X99142458Y-175663886D02*
X99213886Y-175521029D01*
X99285315Y-175449600D01*
X99428172Y-175378171D01*
X99571029Y-175378171D01*
X101142457Y-176306743D02*
X101356743Y-176378171D01*
X101713886Y-176378171D01*
X101856743Y-176306743D01*
X101928172Y-176235314D01*
X101999600Y-176092457D01*
X101999600Y-175949600D01*
X101928172Y-175806743D01*
X101856743Y-175735314D01*
X101713886Y-175663886D01*
X101428172Y-175592457D01*
X101285314Y-175521029D01*
X101213886Y-175449600D01*
X101142457Y-175306743D01*
X101142457Y-175163886D01*
X101213886Y-175021029D01*
X101285314Y-174949600D01*
X101428172Y-174878171D01*
X101785314Y-174878171D01*
X101999600Y-174949600D01*
X102499600Y-174878171D02*
X102856743Y-176378171D01*
X103142457Y-175306743D01*
X103428171Y-176378171D01*
X103785314Y-174878171D01*
X104356743Y-176235314D02*
X104428171Y-176306743D01*
X104356743Y-176378171D01*
X104285314Y-176306743D01*
X104356743Y-176235314D01*
X104356743Y-176378171D01*
X105071029Y-176378171D02*
X105071029Y-174878171D01*
X105213886Y-175806743D02*
X105642457Y-176378171D01*
X105642457Y-175378171D02*
X105071029Y-175949600D01*
X106285315Y-176378171D02*
X106285315Y-175378171D01*
X106285315Y-174878171D02*
X106213886Y-174949600D01*
X106285315Y-175021029D01*
X106356743Y-174949600D01*
X106285315Y-174878171D01*
X106285315Y-175021029D01*
X107642458Y-176306743D02*
X107499601Y-176378171D01*
X107213887Y-176378171D01*
X107071029Y-176306743D01*
X106999601Y-176235314D01*
X106928172Y-176092457D01*
X106928172Y-175663886D01*
X106999601Y-175521029D01*
X107071029Y-175449600D01*
X107213887Y-175378171D01*
X107499601Y-175378171D01*
X107642458Y-175449600D01*
X108928172Y-176378171D02*
X108928172Y-175592457D01*
X108856743Y-175449600D01*
X108713886Y-175378171D01*
X108428172Y-175378171D01*
X108285315Y-175449600D01*
X108928172Y-176306743D02*
X108785315Y-176378171D01*
X108428172Y-176378171D01*
X108285315Y-176306743D01*
X108213886Y-176163886D01*
X108213886Y-176021029D01*
X108285315Y-175878171D01*
X108428172Y-175806743D01*
X108785315Y-175806743D01*
X108928172Y-175735314D01*
X110285315Y-176378171D02*
X110285315Y-174878171D01*
X110285315Y-176306743D02*
X110142458Y-176378171D01*
X109856744Y-176378171D01*
X109713886Y-176306743D01*
X109642458Y-176235314D01*
X109571029Y-176092457D01*
X109571029Y-175663886D01*
X109642458Y-175521029D01*
X109713886Y-175449600D01*
X109856744Y-175378171D01*
X110142458Y-175378171D01*
X110285315Y-175449600D01*
X110642458Y-176521029D02*
X111785315Y-176521029D01*
X112142458Y-175378171D02*
X112142458Y-176878171D01*
X112142458Y-175449600D02*
X112285315Y-175378171D01*
X112571029Y-175378171D01*
X112713886Y-175449600D01*
X112785315Y-175521029D01*
X112856744Y-175663886D01*
X112856744Y-176092457D01*
X112785315Y-176235314D01*
X112713886Y-176306743D01*
X112571029Y-176378171D01*
X112285315Y-176378171D01*
X112142458Y-176306743D01*
X114142458Y-176306743D02*
X113999601Y-176378171D01*
X113713887Y-176378171D01*
X113571029Y-176306743D01*
X113499601Y-176235314D01*
X113428172Y-176092457D01*
X113428172Y-175663886D01*
X113499601Y-175521029D01*
X113571029Y-175449600D01*
X113713887Y-175378171D01*
X113999601Y-175378171D01*
X114142458Y-175449600D01*
X114785315Y-176378171D02*
X114785315Y-174878171D01*
X114785315Y-175449600D02*
X114928172Y-175378171D01*
X115213886Y-175378171D01*
X115356743Y-175449600D01*
X115428172Y-175521029D01*
X115499601Y-175663886D01*
X115499601Y-176092457D01*
X115428172Y-176235314D01*
X115356743Y-176306743D01*
X115213886Y-176378171D01*
X114928172Y-176378171D01*
X114785315Y-176306743D01*
D10*
D11*
X79999600Y-171499600D02*
X187999600Y-171499600D01*
D10*
D11*
X81285314Y-173606743D02*
X81499600Y-173678171D01*
X81856743Y-173678171D01*
X81999600Y-173606743D01*
X82071029Y-173535314D01*
X82142457Y-173392457D01*
X82142457Y-173249600D01*
X82071029Y-173106743D01*
X81999600Y-173035314D01*
X81856743Y-172963886D01*
X81571029Y-172892457D01*
X81428171Y-172821029D01*
X81356743Y-172749600D01*
X81285314Y-172606743D01*
X81285314Y-172463886D01*
X81356743Y-172321029D01*
X81428171Y-172249600D01*
X81571029Y-172178171D01*
X81928171Y-172178171D01*
X82142457Y-172249600D01*
X82785314Y-173678171D02*
X82785314Y-172178171D01*
X83428171Y-173678171D02*
X83428171Y-172892457D01*
X83356742Y-172749600D01*
X83213885Y-172678171D01*
X82999600Y-172678171D01*
X82856742Y-172749600D01*
X82785314Y-172821029D01*
X84713885Y-173606743D02*
X84571028Y-173678171D01*
X84285314Y-173678171D01*
X84142457Y-173606743D01*
X84071028Y-173463886D01*
X84071028Y-172892457D01*
X84142457Y-172749600D01*
X84285314Y-172678171D01*
X84571028Y-172678171D01*
X84713885Y-172749600D01*
X84785314Y-172892457D01*
X84785314Y-173035314D01*
X84071028Y-173178171D01*
X85999599Y-173606743D02*
X85856742Y-173678171D01*
X85571028Y-173678171D01*
X85428171Y-173606743D01*
X85356742Y-173463886D01*
X85356742Y-172892457D01*
X85428171Y-172749600D01*
X85571028Y-172678171D01*
X85856742Y-172678171D01*
X85999599Y-172749600D01*
X86071028Y-172892457D01*
X86071028Y-173035314D01*
X85356742Y-173178171D01*
X86499599Y-172678171D02*
X87071028Y-172678171D01*
X86713885Y-172178171D02*
X86713885Y-173463886D01*
X86785313Y-173606743D01*
X86928171Y-173678171D01*
X87071028Y-173678171D01*
X87571028Y-173535314D02*
X87642456Y-173606743D01*
X87571028Y-173678171D01*
X87499599Y-173606743D01*
X87571028Y-173535314D01*
X87571028Y-173678171D01*
X87571028Y-172749600D02*
X87642456Y-172821029D01*
X87571028Y-172892457D01*
X87499599Y-172821029D01*
X87571028Y-172749600D01*
X87571028Y-172892457D01*
D10*
D11*
X99999600Y-181499600D02*
X99999600Y-184499600D01*
D10*
D11*
X163999600Y-181499600D02*
X163999600Y-187999600D01*
X115100000Y-134900000D02*
X67100000Y-134900000D01*
X115100000Y-133900000D02*
X115100000Y-134900000D01*
X115100000Y-99900000D02*
X115100000Y-133900000D01*
X67100000Y-99900000D02*
X115100000Y-99900000D01*
X67100000Y-134900000D02*
X67100000Y-99900000D01*
X68766666Y-134900000D02*
G75*
G03X68766666Y-134900000I-1666666J0D01*
G01*
X64600000Y-134900000D02*
X69600000Y-134900000D01*
X67100000Y-132400000D02*
X67100000Y-137400000D01*
X68766666Y-134900000D02*
G75*
G03X68766666Y-134900000I-1666666J0D01*
G01*
X64600000Y-134900000D02*
X69600000Y-134900000D01*
X67100000Y-132400000D02*
X67100000Y-137400000D01*
D14*
G36*
X108595677Y-109388190D02*
X108595677Y-109599857D01*
X108595677Y-113978711D01*
X108595677Y-114190378D01*
X108384010Y-114190378D01*
X98395990Y-114190378D01*
X98184323Y-114190378D01*
X98184323Y-113978711D01*
X98184323Y-109388190D01*
X98598569Y-109388190D01*
X98607656Y-113767045D01*
X108172344Y-113767045D01*
X108172344Y-109811524D01*
X100034201Y-109811524D01*
X100034201Y-109388190D01*
X108384010Y-109388190D01*
X108595677Y-109388190D01*
X108595677Y-109388190D01*
G37*
X108595677Y-109388190D02*
X108595677Y-109599857D01*
X108595677Y-113978711D01*
X108595677Y-114190378D01*
X108384010Y-114190378D01*
X98395990Y-114190378D01*
X98184323Y-114190378D01*
X98184323Y-113978711D01*
X98184323Y-109388190D01*
X98598569Y-109388190D01*
X98607656Y-113767045D01*
X108172344Y-113767045D01*
X108172344Y-109811524D01*
X100034201Y-109811524D01*
X100034201Y-109388190D01*
X108384010Y-109388190D01*
X108595677Y-109388190D01*
G36*
X106152961Y-111840994D02*
X105804042Y-111840994D01*
X105807247Y-111997108D01*
X105816859Y-112142991D01*
X105832879Y-112278642D01*
X105855307Y-112404060D01*
X105884142Y-112519247D01*
X105919385Y-112624202D01*
X105961036Y-112718925D01*
X106009094Y-112803416D01*
X106082866Y-112900430D01*
X106168580Y-112979805D01*
X106266237Y-113041541D01*
X106375837Y-113085638D01*
X106497380Y-113112096D01*
X106630865Y-113120916D01*
X106764351Y-113112142D01*
X106885895Y-113085822D01*
X106995494Y-113041954D01*
X107093151Y-112980539D01*
X107178865Y-112901578D01*
X107252636Y-112805069D01*
X107300307Y-112720914D01*
X107341623Y-112626372D01*
X107376582Y-112521444D01*
X107405185Y-112406128D01*
X107427431Y-112280425D01*
X107443322Y-112144335D01*
X107452856Y-111997858D01*
X107456034Y-111840994D01*
X107452856Y-111684492D01*
X107443322Y-111538274D01*
X107427431Y-111402340D01*
X107405185Y-111276689D01*
X107376582Y-111161321D01*
X107341623Y-111056237D01*
X107300307Y-110961436D01*
X107252636Y-110876918D01*
X107178406Y-110779905D01*
X107092416Y-110700531D01*
X106994668Y-110638795D01*
X106885159Y-110594698D01*
X106763892Y-110568239D01*
X106630865Y-110559418D01*
X106497380Y-110568239D01*
X106375837Y-110594698D01*
X106266237Y-110638795D01*
X106168580Y-110700531D01*
X106082866Y-110779905D01*
X106009094Y-110876918D01*
X105961036Y-110961436D01*
X105919385Y-111056237D01*
X105884142Y-111161321D01*
X105855307Y-111276689D01*
X105832879Y-111402340D01*
X105816859Y-111538274D01*
X105807247Y-111684492D01*
X105804042Y-111840994D01*
X106152961Y-111840994D01*
X106156085Y-111668280D01*
X106165456Y-111512838D01*
X106181074Y-111374667D01*
X106202939Y-111253767D01*
X106231051Y-111150138D01*
X106265409Y-111063780D01*
X106329799Y-110961772D01*
X106412171Y-110888909D01*
X106512527Y-110845190D01*
X106630865Y-110830616D01*
X106748585Y-110845190D01*
X106848734Y-110888909D01*
X106931312Y-110961772D01*
X106996321Y-111063780D01*
X107030175Y-111150138D01*
X107057874Y-111253767D01*
X107079417Y-111374667D01*
X107094805Y-111512838D01*
X107104038Y-111668280D01*
X107107115Y-111840994D01*
X107104038Y-112013203D01*
X107094805Y-112168232D01*
X107079417Y-112306082D01*
X107057874Y-112426752D01*
X107030175Y-112530243D01*
X106996321Y-112616554D01*
X106931312Y-112718563D01*
X106848734Y-112791427D01*
X106748585Y-112835145D01*
X106630865Y-112849718D01*
X106512527Y-112835249D01*
X106412171Y-112791840D01*
X106329799Y-112719493D01*
X106265409Y-112618208D01*
X106231051Y-112531851D01*
X106202939Y-112428222D01*
X106181074Y-112307322D01*
X106165456Y-112169151D01*
X106156085Y-112013708D01*
X106152961Y-111840994D01*
X106152961Y-111840994D01*
G37*
X106152961Y-111840994D02*
X105804042Y-111840994D01*
X105807247Y-111997108D01*
X105816859Y-112142991D01*
X105832879Y-112278642D01*
X105855307Y-112404060D01*
X105884142Y-112519247D01*
X105919385Y-112624202D01*
X105961036Y-112718925D01*
X106009094Y-112803416D01*
X106082866Y-112900430D01*
X106168580Y-112979805D01*
X106266237Y-113041541D01*
X106375837Y-113085638D01*
X106497380Y-113112096D01*
X106630865Y-113120916D01*
X106764351Y-113112142D01*
X106885895Y-113085822D01*
X106995494Y-113041954D01*
X107093151Y-112980539D01*
X107178865Y-112901578D01*
X107252636Y-112805069D01*
X107300307Y-112720914D01*
X107341623Y-112626372D01*
X107376582Y-112521444D01*
X107405185Y-112406128D01*
X107427431Y-112280425D01*
X107443322Y-112144335D01*
X107452856Y-111997858D01*
X107456034Y-111840994D01*
X107452856Y-111684492D01*
X107443322Y-111538274D01*
X107427431Y-111402340D01*
X107405185Y-111276689D01*
X107376582Y-111161321D01*
X107341623Y-111056237D01*
X107300307Y-110961436D01*
X107252636Y-110876918D01*
X107178406Y-110779905D01*
X107092416Y-110700531D01*
X106994668Y-110638795D01*
X106885159Y-110594698D01*
X106763892Y-110568239D01*
X106630865Y-110559418D01*
X106497380Y-110568239D01*
X106375837Y-110594698D01*
X106266237Y-110638795D01*
X106168580Y-110700531D01*
X106082866Y-110779905D01*
X106009094Y-110876918D01*
X105961036Y-110961436D01*
X105919385Y-111056237D01*
X105884142Y-111161321D01*
X105855307Y-111276689D01*
X105832879Y-111402340D01*
X105816859Y-111538274D01*
X105807247Y-111684492D01*
X105804042Y-111840994D01*
X106152961Y-111840994D01*
X106156085Y-111668280D01*
X106165456Y-111512838D01*
X106181074Y-111374667D01*
X106202939Y-111253767D01*
X106231051Y-111150138D01*
X106265409Y-111063780D01*
X106329799Y-110961772D01*
X106412171Y-110888909D01*
X106512527Y-110845190D01*
X106630865Y-110830616D01*
X106748585Y-110845190D01*
X106848734Y-110888909D01*
X106931312Y-110961772D01*
X106996321Y-111063780D01*
X107030175Y-111150138D01*
X107057874Y-111253767D01*
X107079417Y-111374667D01*
X107094805Y-111512838D01*
X107104038Y-111668280D01*
X107107115Y-111840994D01*
X107104038Y-112013203D01*
X107094805Y-112168232D01*
X107079417Y-112306082D01*
X107057874Y-112426752D01*
X107030175Y-112530243D01*
X106996321Y-112616554D01*
X106931312Y-112718563D01*
X106848734Y-112791427D01*
X106748585Y-112835145D01*
X106630865Y-112849718D01*
X106512527Y-112835249D01*
X106412171Y-112791840D01*
X106329799Y-112719493D01*
X106265409Y-112618208D01*
X106231051Y-112531851D01*
X106202939Y-112428222D01*
X106181074Y-112307322D01*
X106165456Y-112169151D01*
X106156085Y-112013708D01*
X106152961Y-111840994D01*
G36*
X103938730Y-110688402D02*
X103938730Y-111027400D01*
X104040338Y-110967687D01*
X104142313Y-110918628D01*
X104244654Y-110880225D01*
X104346446Y-110852666D01*
X104448972Y-110836130D01*
X104552232Y-110830616D01*
X104698856Y-110842928D01*
X104823431Y-110879860D01*
X104925956Y-110941410D01*
X105002208Y-111022808D01*
X105047959Y-111121475D01*
X105063209Y-111237413D01*
X105040885Y-111381695D01*
X104973912Y-111487114D01*
X104896007Y-111541318D01*
X104783559Y-111589273D01*
X104636568Y-111630981D01*
X104461282Y-111670668D01*
X104329917Y-111706784D01*
X104213633Y-111750309D01*
X104112430Y-111801241D01*
X104026307Y-111859581D01*
X103955266Y-111925329D01*
X103885814Y-112020001D01*
X103836205Y-112130382D01*
X103806439Y-112256473D01*
X103796516Y-112398272D01*
X103805248Y-112532482D01*
X103831442Y-112653331D01*
X103875098Y-112760818D01*
X103936217Y-112854943D01*
X104014797Y-112935708D01*
X104110048Y-113002383D01*
X104221173Y-113054241D01*
X104348173Y-113091283D01*
X104491048Y-113113508D01*
X104649797Y-113120916D01*
X104765737Y-113116690D01*
X104882043Y-113104012D01*
X104998717Y-113082881D01*
X105115758Y-113054402D01*
X105233167Y-113017471D01*
X105350943Y-112972087D01*
X105350943Y-112616554D01*
X105226552Y-112689866D01*
X105106939Y-112748846D01*
X104992102Y-112793494D01*
X104878368Y-112824730D01*
X104764267Y-112843471D01*
X104649797Y-112849718D01*
X104530322Y-112842690D01*
X104424902Y-112821606D01*
X104333538Y-112786466D01*
X104256230Y-112737270D01*
X104178142Y-112651281D01*
X104131288Y-112545447D01*
X104115670Y-112419770D01*
X104126511Y-112306036D01*
X104159033Y-112211778D01*
X104213234Y-112136996D01*
X104293162Y-112076914D01*
X104405059Y-112026754D01*
X104548925Y-111986514D01*
X104727519Y-111945173D01*
X104857562Y-111910910D01*
X104972523Y-111870297D01*
X105072403Y-111823334D01*
X105157202Y-111770020D01*
X105226920Y-111710356D01*
X105294926Y-111625091D01*
X105343502Y-111526389D01*
X105372647Y-111414251D01*
X105382363Y-111288676D01*
X105373499Y-111161677D01*
X105346909Y-111045261D01*
X105302591Y-110939428D01*
X105240546Y-110844177D01*
X105160774Y-110759510D01*
X105065656Y-110687478D01*
X104958897Y-110631453D01*
X104840496Y-110591435D01*
X104710453Y-110567423D01*
X104568769Y-110559418D01*
X104472307Y-110563095D01*
X104372537Y-110574119D01*
X104269459Y-110592491D01*
X104162892Y-110617114D01*
X104052649Y-110649084D01*
X103938730Y-110688402D01*
X103938730Y-110688402D01*
G37*
X103938730Y-110688402D02*
X103938730Y-111027400D01*
X104040338Y-110967687D01*
X104142313Y-110918628D01*
X104244654Y-110880225D01*
X104346446Y-110852666D01*
X104448972Y-110836130D01*
X104552232Y-110830616D01*
X104698856Y-110842928D01*
X104823431Y-110879860D01*
X104925956Y-110941410D01*
X105002208Y-111022808D01*
X105047959Y-111121475D01*
X105063209Y-111237413D01*
X105040885Y-111381695D01*
X104973912Y-111487114D01*
X104896007Y-111541318D01*
X104783559Y-111589273D01*
X104636568Y-111630981D01*
X104461282Y-111670668D01*
X104329917Y-111706784D01*
X104213633Y-111750309D01*
X104112430Y-111801241D01*
X104026307Y-111859581D01*
X103955266Y-111925329D01*
X103885814Y-112020001D01*
X103836205Y-112130382D01*
X103806439Y-112256473D01*
X103796516Y-112398272D01*
X103805248Y-112532482D01*
X103831442Y-112653331D01*
X103875098Y-112760818D01*
X103936217Y-112854943D01*
X104014797Y-112935708D01*
X104110048Y-113002383D01*
X104221173Y-113054241D01*
X104348173Y-113091283D01*
X104491048Y-113113508D01*
X104649797Y-113120916D01*
X104765737Y-113116690D01*
X104882043Y-113104012D01*
X104998717Y-113082881D01*
X105115758Y-113054402D01*
X105233167Y-113017471D01*
X105350943Y-112972087D01*
X105350943Y-112616554D01*
X105226552Y-112689866D01*
X105106939Y-112748846D01*
X104992102Y-112793494D01*
X104878368Y-112824730D01*
X104764267Y-112843471D01*
X104649797Y-112849718D01*
X104530322Y-112842690D01*
X104424902Y-112821606D01*
X104333538Y-112786466D01*
X104256230Y-112737270D01*
X104178142Y-112651281D01*
X104131288Y-112545447D01*
X104115670Y-112419770D01*
X104126511Y-112306036D01*
X104159033Y-112211778D01*
X104213234Y-112136996D01*
X104293162Y-112076914D01*
X104405059Y-112026754D01*
X104548925Y-111986514D01*
X104727519Y-111945173D01*
X104857562Y-111910910D01*
X104972523Y-111870297D01*
X105072403Y-111823334D01*
X105157202Y-111770020D01*
X105226920Y-111710356D01*
X105294926Y-111625091D01*
X105343502Y-111526389D01*
X105372647Y-111414251D01*
X105382363Y-111288676D01*
X105373499Y-111161677D01*
X105346909Y-111045261D01*
X105302591Y-110939428D01*
X105240546Y-110844177D01*
X105160774Y-110759510D01*
X105065656Y-110687478D01*
X104958897Y-110631453D01*
X104840496Y-110591435D01*
X104710453Y-110567423D01*
X104568769Y-110559418D01*
X104472307Y-110563095D01*
X104372537Y-110574119D01*
X104269459Y-110592491D01*
X104162892Y-110617114D01*
X104052649Y-110649084D01*
X103938730Y-110688402D01*
G36*
X103348378Y-110604067D02*
X103012688Y-110604067D01*
X103012688Y-111616098D01*
X102098222Y-111616098D01*
X102098222Y-110604067D01*
X101762532Y-110604067D01*
X101762532Y-113072960D01*
X102098222Y-113072960D01*
X102098222Y-111897218D01*
X103012688Y-111897218D01*
X103012688Y-113072960D01*
X103348378Y-113072960D01*
X103348378Y-110604067D01*
X103348378Y-110604067D01*
G37*
X103348378Y-110604067D02*
X103012688Y-110604067D01*
X103012688Y-111616098D01*
X102098222Y-111616098D01*
X102098222Y-110604067D01*
X101762532Y-110604067D01*
X101762532Y-113072960D01*
X102098222Y-113072960D01*
X102098222Y-111897218D01*
X103012688Y-111897218D01*
X103012688Y-113072960D01*
X103348378Y-113072960D01*
X103348378Y-110604067D01*
G36*
X101537636Y-110604067D02*
X101211867Y-110604067D01*
X100975396Y-112608285D01*
X100694277Y-111282062D01*
X100345357Y-111282062D01*
X100060930Y-112611593D01*
X99260014Y-108769622D01*
X98934246Y-108769622D01*
X99867454Y-113072960D01*
X100183300Y-113072960D01*
X100518990Y-111606176D01*
X100853027Y-113072960D01*
X101168873Y-113072960D01*
X101537636Y-110604067D01*
X101537636Y-110604067D01*
G37*
X101537636Y-110604067D02*
X101211867Y-110604067D01*
X100975396Y-112608285D01*
X100694277Y-111282062D01*
X100345357Y-111282062D01*
X100060930Y-112611593D01*
X99260014Y-108769622D01*
X98934246Y-108769622D01*
X99867454Y-113072960D01*
X100183300Y-113072960D01*
X100518990Y-111606176D01*
X100853027Y-113072960D01*
X101168873Y-113072960D01*
X101537636Y-110604067D01*
D15*
G36*
X93458100Y-116501903D02*
X93346550Y-116557522D01*
X93248092Y-116659931D01*
X93220977Y-116697864D01*
X93191438Y-116747500D01*
X93172272Y-116801412D01*
X93161307Y-116873364D01*
X93156371Y-116977122D01*
X93155287Y-117114101D01*
X93160182Y-117301815D01*
X93177196Y-117442758D01*
X93209823Y-117547908D01*
X93261558Y-117628243D01*
X93335896Y-117694741D01*
X93341358Y-117698678D01*
X93414620Y-117738953D01*
X93502840Y-117758880D01*
X93615038Y-117763793D01*
X93797433Y-117763793D01*
X93797509Y-117940857D01*
X93799207Y-118039470D01*
X93809550Y-118097314D01*
X93836578Y-118132006D01*
X93888332Y-118161164D01*
X93900761Y-118167121D01*
X93958923Y-118195039D01*
X94003956Y-118212672D01*
X94037441Y-118214194D01*
X94060962Y-118193781D01*
X94076100Y-118145607D01*
X94084437Y-118063846D01*
X94087556Y-117942672D01*
X94087040Y-117776260D01*
X94084471Y-117558785D01*
X94083668Y-117493736D01*
X94080778Y-117269502D01*
X94078188Y-117122821D01*
X93797586Y-117122821D01*
X93796009Y-117247326D01*
X93789000Y-117328787D01*
X93773142Y-117382515D01*
X93745019Y-117423823D01*
X93725925Y-117443971D01*
X93647865Y-117502921D01*
X93578753Y-117507720D01*
X93507440Y-117459038D01*
X93505632Y-117457241D01*
X93476617Y-117419618D01*
X93458967Y-117368484D01*
X93450064Y-117289738D01*
X93447291Y-117169276D01*
X93447241Y-117142588D01*
X93453942Y-116976583D01*
X93475752Y-116861505D01*
X93515235Y-116791254D01*
X93574956Y-116759729D01*
X93609472Y-116756552D01*
X93691389Y-116771460D01*
X93747579Y-116820548D01*
X93781402Y-116910362D01*
X93796220Y-117047445D01*
X93797586Y-117122821D01*
X94078188Y-117122821D01*
X94077713Y-117095952D01*
X94073753Y-116965382D01*
X94068174Y-116870087D01*
X94060254Y-116802364D01*
X94049269Y-116754507D01*
X94034499Y-116718813D01*
X94015218Y-116687578D01*
X94006951Y-116675824D01*
X93897288Y-116564797D01*
X93758635Y-116501847D01*
X93598246Y-116484297D01*
X93458100Y-116501903D01*
X93458100Y-116501903D01*
G37*
X93458100Y-116501903D02*
X93346550Y-116557522D01*
X93248092Y-116659931D01*
X93220977Y-116697864D01*
X93191438Y-116747500D01*
X93172272Y-116801412D01*
X93161307Y-116873364D01*
X93156371Y-116977122D01*
X93155287Y-117114101D01*
X93160182Y-117301815D01*
X93177196Y-117442758D01*
X93209823Y-117547908D01*
X93261558Y-117628243D01*
X93335896Y-117694741D01*
X93341358Y-117698678D01*
X93414620Y-117738953D01*
X93502840Y-117758880D01*
X93615038Y-117763793D01*
X93797433Y-117763793D01*
X93797509Y-117940857D01*
X93799207Y-118039470D01*
X93809550Y-118097314D01*
X93836578Y-118132006D01*
X93888332Y-118161164D01*
X93900761Y-118167121D01*
X93958923Y-118195039D01*
X94003956Y-118212672D01*
X94037441Y-118214194D01*
X94060962Y-118193781D01*
X94076100Y-118145607D01*
X94084437Y-118063846D01*
X94087556Y-117942672D01*
X94087040Y-117776260D01*
X94084471Y-117558785D01*
X94083668Y-117493736D01*
X94080778Y-117269502D01*
X94078188Y-117122821D01*
X93797586Y-117122821D01*
X93796009Y-117247326D01*
X93789000Y-117328787D01*
X93773142Y-117382515D01*
X93745019Y-117423823D01*
X93725925Y-117443971D01*
X93647865Y-117502921D01*
X93578753Y-117507720D01*
X93507440Y-117459038D01*
X93505632Y-117457241D01*
X93476617Y-117419618D01*
X93458967Y-117368484D01*
X93450064Y-117289738D01*
X93447291Y-117169276D01*
X93447241Y-117142588D01*
X93453942Y-116976583D01*
X93475752Y-116861505D01*
X93515235Y-116791254D01*
X93574956Y-116759729D01*
X93609472Y-116756552D01*
X93691389Y-116771460D01*
X93747579Y-116820548D01*
X93781402Y-116910362D01*
X93796220Y-117047445D01*
X93797586Y-117122821D01*
X94078188Y-117122821D01*
X94077713Y-117095952D01*
X94073753Y-116965382D01*
X94068174Y-116870087D01*
X94060254Y-116802364D01*
X94049269Y-116754507D01*
X94034499Y-116718813D01*
X94015218Y-116687578D01*
X94006951Y-116675824D01*
X93897288Y-116564797D01*
X93758635Y-116501847D01*
X93598246Y-116484297D01*
X93458100Y-116501903D01*
G36*
X91212571Y-116517719D02*
X91118877Y-116571914D01*
X91053736Y-116625707D01*
X91006093Y-116682066D01*
X90973272Y-116750987D01*
X90952594Y-116842468D01*
X90941380Y-116966506D01*
X90936951Y-117133098D01*
X90936437Y-117252851D01*
X90936437Y-117693659D01*
X91060517Y-117749283D01*
X91184598Y-117804907D01*
X91199195Y-117322095D01*
X91205227Y-117141779D01*
X91211555Y-117010901D01*
X91219394Y-116920511D01*
X91229963Y-116861664D01*
X91244477Y-116825413D01*
X91264152Y-116802810D01*
X91270465Y-116797917D01*
X91366112Y-116759706D01*
X91462793Y-116774827D01*
X91520345Y-116814943D01*
X91543755Y-116843370D01*
X91559961Y-116880672D01*
X91570259Y-116937223D01*
X91575951Y-117023394D01*
X91578336Y-117149558D01*
X91578736Y-117281042D01*
X91578814Y-117445999D01*
X91581639Y-117562761D01*
X91591093Y-117641510D01*
X91611060Y-117692431D01*
X91645424Y-117725706D01*
X91698068Y-117751520D01*
X91768383Y-117778344D01*
X91845180Y-117807542D01*
X91836038Y-117289346D01*
X91832357Y-117102539D01*
X91828050Y-116964490D01*
X91821877Y-116865568D01*
X91812598Y-116796145D01*
X91798973Y-116746590D01*
X91779761Y-116707273D01*
X91756598Y-116672584D01*
X91644848Y-116561770D01*
X91508487Y-116497689D01*
X91360175Y-116482339D01*
X91212571Y-116517719D01*
X91212571Y-116517719D01*
G37*
X91212571Y-116517719D02*
X91118877Y-116571914D01*
X91053736Y-116625707D01*
X91006093Y-116682066D01*
X90973272Y-116750987D01*
X90952594Y-116842468D01*
X90941380Y-116966506D01*
X90936951Y-117133098D01*
X90936437Y-117252851D01*
X90936437Y-117693659D01*
X91060517Y-117749283D01*
X91184598Y-117804907D01*
X91199195Y-117322095D01*
X91205227Y-117141779D01*
X91211555Y-117010901D01*
X91219394Y-116920511D01*
X91229963Y-116861664D01*
X91244477Y-116825413D01*
X91264152Y-116802810D01*
X91270465Y-116797917D01*
X91366112Y-116759706D01*
X91462793Y-116774827D01*
X91520345Y-116814943D01*
X91543755Y-116843370D01*
X91559961Y-116880672D01*
X91570259Y-116937223D01*
X91575951Y-117023394D01*
X91578336Y-117149558D01*
X91578736Y-117281042D01*
X91578814Y-117445999D01*
X91581639Y-117562761D01*
X91591093Y-117641510D01*
X91611060Y-117692431D01*
X91645424Y-117725706D01*
X91698068Y-117751520D01*
X91768383Y-117778344D01*
X91845180Y-117807542D01*
X91836038Y-117289346D01*
X91832357Y-117102539D01*
X91828050Y-116964490D01*
X91821877Y-116865568D01*
X91812598Y-116796145D01*
X91798973Y-116746590D01*
X91779761Y-116707273D01*
X91756598Y-116672584D01*
X91644848Y-116561770D01*
X91508487Y-116497689D01*
X91360175Y-116482339D01*
X91212571Y-116517719D01*
G36*
X94581779Y-116506015D02*
X94444939Y-116577968D01*
X94343949Y-116693766D01*
X94308075Y-116768213D01*
X94280161Y-116879992D01*
X94265871Y-117021227D01*
X94264516Y-117175371D01*
X94275405Y-117325879D01*
X94297847Y-117456205D01*
X94331150Y-117549803D01*
X94341385Y-117565922D01*
X94462618Y-117686249D01*
X94606613Y-117758317D01*
X94762861Y-117779408D01*
X94920852Y-117746802D01*
X94964820Y-117727253D01*
X95050444Y-117667012D01*
X95125592Y-117587135D01*
X95132694Y-117577004D01*
X95161561Y-117528181D01*
X95180643Y-117475990D01*
X95191916Y-117407285D01*
X95197355Y-117308918D01*
X95198938Y-117167744D01*
X95198965Y-117136092D01*
X95198893Y-117126019D01*
X94907011Y-117126019D01*
X94905313Y-117259256D01*
X94898628Y-117347674D01*
X94884575Y-117404785D01*
X94860771Y-117444102D01*
X94848621Y-117457241D01*
X94778764Y-117507172D01*
X94710941Y-117504895D01*
X94642365Y-117461584D01*
X94601465Y-117415346D01*
X94577242Y-117347857D01*
X94563639Y-117241433D01*
X94562706Y-117229020D01*
X94560384Y-117036147D01*
X94584650Y-116892900D01*
X94635176Y-116800160D01*
X94711632Y-116758807D01*
X94738924Y-116756552D01*
X94810589Y-116767893D01*
X94859610Y-116807184D01*
X94889582Y-116882326D01*
X94904101Y-117001222D01*
X94907011Y-117126019D01*
X95198893Y-117126019D01*
X95197878Y-116985659D01*
X95193312Y-116880549D01*
X95183312Y-116807714D01*
X95165921Y-116754108D01*
X95139184Y-116706681D01*
X95133276Y-116697864D01*
X95033968Y-116579007D01*
X94925758Y-116510008D01*
X94794019Y-116482619D01*
X94749283Y-116481281D01*
X94581779Y-116506015D01*
X94581779Y-116506015D01*
G37*
X94581779Y-116506015D02*
X94444939Y-116577968D01*
X94343949Y-116693766D01*
X94308075Y-116768213D01*
X94280161Y-116879992D01*
X94265871Y-117021227D01*
X94264516Y-117175371D01*
X94275405Y-117325879D01*
X94297847Y-117456205D01*
X94331150Y-117549803D01*
X94341385Y-117565922D01*
X94462618Y-117686249D01*
X94606613Y-117758317D01*
X94762861Y-117779408D01*
X94920852Y-117746802D01*
X94964820Y-117727253D01*
X95050444Y-117667012D01*
X95125592Y-117587135D01*
X95132694Y-117577004D01*
X95161561Y-117528181D01*
X95180643Y-117475990D01*
X95191916Y-117407285D01*
X95197355Y-117308918D01*
X95198938Y-117167744D01*
X95198965Y-117136092D01*
X95198893Y-117126019D01*
X94907011Y-117126019D01*
X94905313Y-117259256D01*
X94898628Y-117347674D01*
X94884575Y-117404785D01*
X94860771Y-117444102D01*
X94848621Y-117457241D01*
X94778764Y-117507172D01*
X94710941Y-117504895D01*
X94642365Y-117461584D01*
X94601465Y-117415346D01*
X94577242Y-117347857D01*
X94563639Y-117241433D01*
X94562706Y-117229020D01*
X94560384Y-117036147D01*
X94584650Y-116892900D01*
X94635176Y-116800160D01*
X94711632Y-116758807D01*
X94738924Y-116756552D01*
X94810589Y-116767893D01*
X94859610Y-116807184D01*
X94889582Y-116882326D01*
X94904101Y-117001222D01*
X94907011Y-117126019D01*
X95198893Y-117126019D01*
X95197878Y-116985659D01*
X95193312Y-116880549D01*
X95183312Y-116807714D01*
X95165921Y-116754108D01*
X95139184Y-116706681D01*
X95133276Y-116697864D01*
X95033968Y-116579007D01*
X94925758Y-116510008D01*
X94794019Y-116482619D01*
X94749283Y-116481281D01*
X94581779Y-116506015D01*
G36*
X92314448Y-116524676D02*
X92199342Y-116602111D01*
X92110389Y-116713949D01*
X92057251Y-116856265D01*
X92046503Y-116961015D01*
X92047724Y-117004726D01*
X92057944Y-117038194D01*
X92086039Y-117068179D01*
X92140884Y-117101440D01*
X92231355Y-117144738D01*
X92366328Y-117204833D01*
X92367011Y-117205134D01*
X92491249Y-117262037D01*
X92593127Y-117312565D01*
X92662233Y-117351280D01*
X92688154Y-117372740D01*
X92688161Y-117372913D01*
X92665315Y-117419644D01*
X92611891Y-117471154D01*
X92550558Y-117508261D01*
X92519485Y-117515632D01*
X92434711Y-117490138D01*
X92361707Y-117426291D01*
X92326087Y-117356094D01*
X92291820Y-117304343D01*
X92224697Y-117245409D01*
X92145792Y-117194496D01*
X92076179Y-117166809D01*
X92061623Y-117165287D01*
X92045237Y-117190321D01*
X92044250Y-117254311D01*
X92056292Y-117340593D01*
X92078993Y-117432501D01*
X92109986Y-117513369D01*
X92111552Y-117516509D01*
X92204819Y-117646734D01*
X92325696Y-117735311D01*
X92462973Y-117778786D01*
X92605440Y-117773706D01*
X92741888Y-117716616D01*
X92747955Y-117712602D01*
X92855290Y-117615326D01*
X92925868Y-117488409D01*
X92964926Y-117321526D01*
X92970168Y-117274639D01*
X92979452Y-117053329D01*
X92968322Y-116950124D01*
X92688161Y-116950124D01*
X92684521Y-117014503D01*
X92664611Y-117033291D01*
X92614974Y-117019235D01*
X92536733Y-116986009D01*
X92449274Y-116944359D01*
X92447101Y-116943256D01*
X92372970Y-116904265D01*
X92343219Y-116878244D01*
X92350555Y-116850965D01*
X92381447Y-116815121D01*
X92460040Y-116763251D01*
X92544677Y-116759439D01*
X92620597Y-116797189D01*
X92673035Y-116870001D01*
X92688161Y-116950124D01*
X92968322Y-116950124D01*
X92960356Y-116876261D01*
X92911366Y-116735829D01*
X92843164Y-116637447D01*
X92720065Y-116538030D01*
X92584472Y-116488711D01*
X92446045Y-116485568D01*
X92314448Y-116524676D01*
X92314448Y-116524676D01*
G37*
X92314448Y-116524676D02*
X92199342Y-116602111D01*
X92110389Y-116713949D01*
X92057251Y-116856265D01*
X92046503Y-116961015D01*
X92047724Y-117004726D01*
X92057944Y-117038194D01*
X92086039Y-117068179D01*
X92140884Y-117101440D01*
X92231355Y-117144738D01*
X92366328Y-117204833D01*
X92367011Y-117205134D01*
X92491249Y-117262037D01*
X92593127Y-117312565D01*
X92662233Y-117351280D01*
X92688154Y-117372740D01*
X92688161Y-117372913D01*
X92665315Y-117419644D01*
X92611891Y-117471154D01*
X92550558Y-117508261D01*
X92519485Y-117515632D01*
X92434711Y-117490138D01*
X92361707Y-117426291D01*
X92326087Y-117356094D01*
X92291820Y-117304343D01*
X92224697Y-117245409D01*
X92145792Y-117194496D01*
X92076179Y-117166809D01*
X92061623Y-117165287D01*
X92045237Y-117190321D01*
X92044250Y-117254311D01*
X92056292Y-117340593D01*
X92078993Y-117432501D01*
X92109986Y-117513369D01*
X92111552Y-117516509D01*
X92204819Y-117646734D01*
X92325696Y-117735311D01*
X92462973Y-117778786D01*
X92605440Y-117773706D01*
X92741888Y-117716616D01*
X92747955Y-117712602D01*
X92855290Y-117615326D01*
X92925868Y-117488409D01*
X92964926Y-117321526D01*
X92970168Y-117274639D01*
X92979452Y-117053329D01*
X92968322Y-116950124D01*
X92688161Y-116950124D01*
X92684521Y-117014503D01*
X92664611Y-117033291D01*
X92614974Y-117019235D01*
X92536733Y-116986009D01*
X92449274Y-116944359D01*
X92447101Y-116943256D01*
X92372970Y-116904265D01*
X92343219Y-116878244D01*
X92350555Y-116850965D01*
X92381447Y-116815121D01*
X92460040Y-116763251D01*
X92544677Y-116759439D01*
X92620597Y-116797189D01*
X92673035Y-116870001D01*
X92688161Y-116950124D01*
X92968322Y-116950124D01*
X92960356Y-116876261D01*
X92911366Y-116735829D01*
X92843164Y-116637447D01*
X92720065Y-116538030D01*
X92584472Y-116488711D01*
X92446045Y-116485568D01*
X92314448Y-116524676D01*
G36*
X89885402Y-116363857D02*
X89876846Y-116483188D01*
X89867019Y-116553506D01*
X89853401Y-116584179D01*
X89833473Y-116584571D01*
X89827011Y-116580910D01*
X89741060Y-116554398D01*
X89629255Y-116555946D01*
X89515586Y-116583199D01*
X89444490Y-116618455D01*
X89371595Y-116674778D01*
X89318307Y-116738519D01*
X89281725Y-116819510D01*
X89258950Y-116927586D01*
X89247081Y-117072580D01*
X89243218Y-117264326D01*
X89243149Y-117301109D01*
X89243103Y-117714288D01*
X89335046Y-117746339D01*
X89400348Y-117768144D01*
X89436176Y-117778297D01*
X89437230Y-117778391D01*
X89440758Y-117750860D01*
X89443761Y-117674923D01*
X89446010Y-117560565D01*
X89447276Y-117417769D01*
X89447471Y-117330951D01*
X89447877Y-117159773D01*
X89449968Y-117037088D01*
X89455053Y-116953000D01*
X89464440Y-116897614D01*
X89479439Y-116861032D01*
X89501358Y-116833359D01*
X89515043Y-116820032D01*
X89609051Y-116766328D01*
X89711636Y-116762307D01*
X89804710Y-116807725D01*
X89821922Y-116824123D01*
X89847168Y-116854957D01*
X89864680Y-116891531D01*
X89875858Y-116944415D01*
X89882104Y-117024177D01*
X89884818Y-117141385D01*
X89885402Y-117302991D01*
X89885402Y-117714288D01*
X89977345Y-117746339D01*
X90042647Y-117768144D01*
X90078475Y-117778297D01*
X90079529Y-117778391D01*
X90082225Y-117750448D01*
X90084655Y-117671630D01*
X90086722Y-117549453D01*
X90088329Y-117391432D01*
X90089377Y-117205083D01*
X90089769Y-116997920D01*
X90089770Y-116988706D01*
X90089770Y-116199020D01*
X89994885Y-116158997D01*
X89900000Y-116118973D01*
X89885402Y-116363857D01*
X89885402Y-116363857D01*
G37*
X89885402Y-116363857D02*
X89876846Y-116483188D01*
X89867019Y-116553506D01*
X89853401Y-116584179D01*
X89833473Y-116584571D01*
X89827011Y-116580910D01*
X89741060Y-116554398D01*
X89629255Y-116555946D01*
X89515586Y-116583199D01*
X89444490Y-116618455D01*
X89371595Y-116674778D01*
X89318307Y-116738519D01*
X89281725Y-116819510D01*
X89258950Y-116927586D01*
X89247081Y-117072580D01*
X89243218Y-117264326D01*
X89243149Y-117301109D01*
X89243103Y-117714288D01*
X89335046Y-117746339D01*
X89400348Y-117768144D01*
X89436176Y-117778297D01*
X89437230Y-117778391D01*
X89440758Y-117750860D01*
X89443761Y-117674923D01*
X89446010Y-117560565D01*
X89447276Y-117417769D01*
X89447471Y-117330951D01*
X89447877Y-117159773D01*
X89449968Y-117037088D01*
X89455053Y-116953000D01*
X89464440Y-116897614D01*
X89479439Y-116861032D01*
X89501358Y-116833359D01*
X89515043Y-116820032D01*
X89609051Y-116766328D01*
X89711636Y-116762307D01*
X89804710Y-116807725D01*
X89821922Y-116824123D01*
X89847168Y-116854957D01*
X89864680Y-116891531D01*
X89875858Y-116944415D01*
X89882104Y-117024177D01*
X89884818Y-117141385D01*
X89885402Y-117302991D01*
X89885402Y-117714288D01*
X89977345Y-117746339D01*
X90042647Y-117768144D01*
X90078475Y-117778297D01*
X90079529Y-117778391D01*
X90082225Y-117750448D01*
X90084655Y-117671630D01*
X90086722Y-117549453D01*
X90088329Y-117391432D01*
X90089377Y-117205083D01*
X90089769Y-116997920D01*
X90089770Y-116988706D01*
X90089770Y-116199020D01*
X89994885Y-116158997D01*
X89900000Y-116118973D01*
X89885402Y-116363857D01*
G36*
X88550056Y-116564360D02*
X88435657Y-116606842D01*
X88434348Y-116607658D01*
X88363597Y-116659730D01*
X88311364Y-116720584D01*
X88274629Y-116799887D01*
X88250366Y-116907309D01*
X88235555Y-117052517D01*
X88227171Y-117245179D01*
X88226436Y-117272628D01*
X88215880Y-117686521D01*
X88304709Y-117732456D01*
X88368982Y-117763498D01*
X88407790Y-117778206D01*
X88409585Y-117778391D01*
X88416300Y-117751250D01*
X88421635Y-117678041D01*
X88424917Y-117571081D01*
X88425632Y-117484469D01*
X88425649Y-117344162D01*
X88432063Y-117256051D01*
X88454420Y-117214025D01*
X88502268Y-117211975D01*
X88585151Y-117243790D01*
X88710287Y-117302272D01*
X88802303Y-117350845D01*
X88849629Y-117392986D01*
X88863542Y-117438916D01*
X88863563Y-117441189D01*
X88840605Y-117520311D01*
X88772630Y-117563055D01*
X88668602Y-117569246D01*
X88593670Y-117568172D01*
X88554161Y-117589753D01*
X88529522Y-117641591D01*
X88515341Y-117707632D01*
X88535777Y-117745104D01*
X88543472Y-117750467D01*
X88615917Y-117772006D01*
X88717367Y-117775055D01*
X88821843Y-117760778D01*
X88895875Y-117734688D01*
X88998228Y-117647785D01*
X89056409Y-117526816D01*
X89067931Y-117432308D01*
X89059138Y-117347062D01*
X89027320Y-117277476D01*
X88964316Y-117215672D01*
X88861969Y-117153772D01*
X88712118Y-117083897D01*
X88702988Y-117079948D01*
X88568003Y-117017588D01*
X88484706Y-116966446D01*
X88449003Y-116920488D01*
X88456797Y-116873683D01*
X88503993Y-116819998D01*
X88518106Y-116807644D01*
X88612641Y-116759741D01*
X88710594Y-116761758D01*
X88795903Y-116808724D01*
X88852504Y-116895669D01*
X88857763Y-116912734D01*
X88908977Y-116995504D01*
X88973963Y-117035372D01*
X89067931Y-117074882D01*
X89067931Y-116972658D01*
X89039347Y-116824072D01*
X88954505Y-116687784D01*
X88910355Y-116642191D01*
X88809995Y-116583674D01*
X88682365Y-116557184D01*
X88550056Y-116564360D01*
X88550056Y-116564360D01*
G37*
X88550056Y-116564360D02*
X88435657Y-116606842D01*
X88434348Y-116607658D01*
X88363597Y-116659730D01*
X88311364Y-116720584D01*
X88274629Y-116799887D01*
X88250366Y-116907309D01*
X88235555Y-117052517D01*
X88227171Y-117245179D01*
X88226436Y-117272628D01*
X88215880Y-117686521D01*
X88304709Y-117732456D01*
X88368982Y-117763498D01*
X88407790Y-117778206D01*
X88409585Y-117778391D01*
X88416300Y-117751250D01*
X88421635Y-117678041D01*
X88424917Y-117571081D01*
X88425632Y-117484469D01*
X88425649Y-117344162D01*
X88432063Y-117256051D01*
X88454420Y-117214025D01*
X88502268Y-117211975D01*
X88585151Y-117243790D01*
X88710287Y-117302272D01*
X88802303Y-117350845D01*
X88849629Y-117392986D01*
X88863542Y-117438916D01*
X88863563Y-117441189D01*
X88840605Y-117520311D01*
X88772630Y-117563055D01*
X88668602Y-117569246D01*
X88593670Y-117568172D01*
X88554161Y-117589753D01*
X88529522Y-117641591D01*
X88515341Y-117707632D01*
X88535777Y-117745104D01*
X88543472Y-117750467D01*
X88615917Y-117772006D01*
X88717367Y-117775055D01*
X88821843Y-117760778D01*
X88895875Y-117734688D01*
X88998228Y-117647785D01*
X89056409Y-117526816D01*
X89067931Y-117432308D01*
X89059138Y-117347062D01*
X89027320Y-117277476D01*
X88964316Y-117215672D01*
X88861969Y-117153772D01*
X88712118Y-117083897D01*
X88702988Y-117079948D01*
X88568003Y-117017588D01*
X88484706Y-116966446D01*
X88449003Y-116920488D01*
X88456797Y-116873683D01*
X88503993Y-116819998D01*
X88518106Y-116807644D01*
X88612641Y-116759741D01*
X88710594Y-116761758D01*
X88795903Y-116808724D01*
X88852504Y-116895669D01*
X88857763Y-116912734D01*
X88908977Y-116995504D01*
X88973963Y-117035372D01*
X89067931Y-117074882D01*
X89067931Y-116972658D01*
X89039347Y-116824072D01*
X88954505Y-116687784D01*
X88910355Y-116642191D01*
X88809995Y-116583674D01*
X88682365Y-116557184D01*
X88550056Y-116564360D01*
G36*
X87564057Y-116561920D02*
X87431435Y-116610859D01*
X87323990Y-116697419D01*
X87281968Y-116758352D01*
X87236157Y-116870161D01*
X87237109Y-116951006D01*
X87285192Y-117005378D01*
X87302983Y-117014624D01*
X87379796Y-117043450D01*
X87419024Y-117036065D01*
X87432311Y-116987658D01*
X87432988Y-116960920D01*
X87457314Y-116862548D01*
X87520719Y-116793734D01*
X87608846Y-116760498D01*
X87707337Y-116768861D01*
X87787398Y-116812296D01*
X87814439Y-116837072D01*
X87833606Y-116867129D01*
X87846554Y-116912565D01*
X87854936Y-116983476D01*
X87860407Y-117089960D01*
X87864622Y-117242112D01*
X87865713Y-117290287D01*
X87869693Y-117455095D01*
X87874219Y-117571088D01*
X87881005Y-117647833D01*
X87891769Y-117694893D01*
X87908227Y-117721835D01*
X87932094Y-117738223D01*
X87947374Y-117745463D01*
X88012267Y-117770220D01*
X88050466Y-117778391D01*
X88063088Y-117751103D01*
X88070792Y-117668603D01*
X88073620Y-117529941D01*
X88071614Y-117334162D01*
X88070989Y-117303965D01*
X88066579Y-117125349D01*
X88061365Y-116994923D01*
X88053945Y-116902492D01*
X88042918Y-116837858D01*
X88026883Y-116790825D01*
X88004439Y-116751196D01*
X87992698Y-116734215D01*
X87925381Y-116659080D01*
X87850090Y-116600638D01*
X87840872Y-116595536D01*
X87705867Y-116555260D01*
X87564057Y-116561920D01*
X87564057Y-116561920D01*
G37*
X87564057Y-116561920D02*
X87431435Y-116610859D01*
X87323990Y-116697419D01*
X87281968Y-116758352D01*
X87236157Y-116870161D01*
X87237109Y-116951006D01*
X87285192Y-117005378D01*
X87302983Y-117014624D01*
X87379796Y-117043450D01*
X87419024Y-117036065D01*
X87432311Y-116987658D01*
X87432988Y-116960920D01*
X87457314Y-116862548D01*
X87520719Y-116793734D01*
X87608846Y-116760498D01*
X87707337Y-116768861D01*
X87787398Y-116812296D01*
X87814439Y-116837072D01*
X87833606Y-116867129D01*
X87846554Y-116912565D01*
X87854936Y-116983476D01*
X87860407Y-117089960D01*
X87864622Y-117242112D01*
X87865713Y-117290287D01*
X87869693Y-117455095D01*
X87874219Y-117571088D01*
X87881005Y-117647833D01*
X87891769Y-117694893D01*
X87908227Y-117721835D01*
X87932094Y-117738223D01*
X87947374Y-117745463D01*
X88012267Y-117770220D01*
X88050466Y-117778391D01*
X88063088Y-117751103D01*
X88070792Y-117668603D01*
X88073620Y-117529941D01*
X88071614Y-117334162D01*
X88070989Y-117303965D01*
X88066579Y-117125349D01*
X88061365Y-116994923D01*
X88053945Y-116902492D01*
X88042918Y-116837858D01*
X88026883Y-116790825D01*
X88004439Y-116751196D01*
X87992698Y-116734215D01*
X87925381Y-116659080D01*
X87850090Y-116600638D01*
X87840872Y-116595536D01*
X87705867Y-116555260D01*
X87564057Y-116561920D01*
G36*
X86236086Y-116794455D02*
X86236457Y-117012661D01*
X86237892Y-117180519D01*
X86240998Y-117306070D01*
X86246378Y-117397355D01*
X86254638Y-117462415D01*
X86266384Y-117509291D01*
X86282219Y-117546024D01*
X86294210Y-117566991D01*
X86393510Y-117680694D01*
X86519412Y-117751965D01*
X86658709Y-117777538D01*
X86798195Y-117754150D01*
X86881257Y-117712119D01*
X86968455Y-117639411D01*
X87027883Y-117550612D01*
X87063739Y-117434320D01*
X87080219Y-117279135D01*
X87082553Y-117165287D01*
X87082239Y-117157106D01*
X86878276Y-117157106D01*
X86877030Y-117287657D01*
X86871322Y-117374080D01*
X86858196Y-117430618D01*
X86834694Y-117471514D01*
X86806614Y-117502362D01*
X86712312Y-117561905D01*
X86611060Y-117566992D01*
X86515364Y-117517279D01*
X86507916Y-117510543D01*
X86476126Y-117475502D01*
X86456192Y-117433811D01*
X86445400Y-117371762D01*
X86441035Y-117275644D01*
X86440345Y-117169379D01*
X86441841Y-117035880D01*
X86448036Y-116946822D01*
X86461486Y-116888293D01*
X86484749Y-116846382D01*
X86503825Y-116824123D01*
X86592437Y-116767985D01*
X86694492Y-116761235D01*
X86791905Y-116804114D01*
X86810704Y-116820032D01*
X86842707Y-116855382D01*
X86862682Y-116897502D01*
X86873407Y-116960251D01*
X86877661Y-117057487D01*
X86878276Y-117157106D01*
X87082239Y-117157106D01*
X87075496Y-116981947D01*
X87051528Y-116844195D01*
X87006452Y-116740632D01*
X86936072Y-116659856D01*
X86881257Y-116618455D01*
X86781624Y-116573728D01*
X86666145Y-116552967D01*
X86558801Y-116558525D01*
X86498736Y-116580943D01*
X86475165Y-116587323D01*
X86459523Y-116563535D01*
X86448605Y-116499788D01*
X86440345Y-116402687D01*
X86431301Y-116294541D01*
X86418739Y-116229475D01*
X86395881Y-116192268D01*
X86355949Y-116167699D01*
X86330862Y-116156819D01*
X86235977Y-116117072D01*
X86236086Y-116794455D01*
X86236086Y-116794455D01*
G37*
X86236086Y-116794455D02*
X86236457Y-117012661D01*
X86237892Y-117180519D01*
X86240998Y-117306070D01*
X86246378Y-117397355D01*
X86254638Y-117462415D01*
X86266384Y-117509291D01*
X86282219Y-117546024D01*
X86294210Y-117566991D01*
X86393510Y-117680694D01*
X86519412Y-117751965D01*
X86658709Y-117777538D01*
X86798195Y-117754150D01*
X86881257Y-117712119D01*
X86968455Y-117639411D01*
X87027883Y-117550612D01*
X87063739Y-117434320D01*
X87080219Y-117279135D01*
X87082553Y-117165287D01*
X87082239Y-117157106D01*
X86878276Y-117157106D01*
X86877030Y-117287657D01*
X86871322Y-117374080D01*
X86858196Y-117430618D01*
X86834694Y-117471514D01*
X86806614Y-117502362D01*
X86712312Y-117561905D01*
X86611060Y-117566992D01*
X86515364Y-117517279D01*
X86507916Y-117510543D01*
X86476126Y-117475502D01*
X86456192Y-117433811D01*
X86445400Y-117371762D01*
X86441035Y-117275644D01*
X86440345Y-117169379D01*
X86441841Y-117035880D01*
X86448036Y-116946822D01*
X86461486Y-116888293D01*
X86484749Y-116846382D01*
X86503825Y-116824123D01*
X86592437Y-116767985D01*
X86694492Y-116761235D01*
X86791905Y-116804114D01*
X86810704Y-116820032D01*
X86842707Y-116855382D01*
X86862682Y-116897502D01*
X86873407Y-116960251D01*
X86877661Y-117057487D01*
X86878276Y-117157106D01*
X87082239Y-117157106D01*
X87075496Y-116981947D01*
X87051528Y-116844195D01*
X87006452Y-116740632D01*
X86936072Y-116659856D01*
X86881257Y-116618455D01*
X86781624Y-116573728D01*
X86666145Y-116552967D01*
X86558801Y-116558525D01*
X86498736Y-116580943D01*
X86475165Y-116587323D01*
X86459523Y-116563535D01*
X86448605Y-116499788D01*
X86440345Y-116402687D01*
X86431301Y-116294541D01*
X86418739Y-116229475D01*
X86395881Y-116192268D01*
X86355949Y-116167699D01*
X86330862Y-116156819D01*
X86235977Y-116117072D01*
X86236086Y-116794455D01*
G36*
X85049876Y-116579840D02*
X85045421Y-116656653D01*
X85041929Y-116773391D01*
X85039685Y-116920821D01*
X85038965Y-117075455D01*
X85038965Y-117598727D01*
X85131355Y-117691117D01*
X85195022Y-117748047D01*
X85250911Y-117771107D01*
X85327298Y-117769647D01*
X85357620Y-117765934D01*
X85452390Y-117755126D01*
X85530778Y-117748933D01*
X85549885Y-117748361D01*
X85614301Y-117752102D01*
X85706429Y-117761494D01*
X85742150Y-117765934D01*
X85829886Y-117772801D01*
X85888847Y-117757885D01*
X85947310Y-117711835D01*
X85968415Y-117691117D01*
X86060805Y-117598727D01*
X86060805Y-116619947D01*
X85986442Y-116586066D01*
X85922410Y-116560970D01*
X85884948Y-116552184D01*
X85875343Y-116579950D01*
X85866365Y-116657530D01*
X85858614Y-116776348D01*
X85852686Y-116927828D01*
X85849827Y-117055805D01*
X85841839Y-117559425D01*
X85772152Y-117569278D01*
X85708771Y-117562389D01*
X85677714Y-117540083D01*
X85669033Y-117498379D01*
X85661622Y-117409544D01*
X85656069Y-117284834D01*
X85652964Y-117135507D01*
X85652516Y-117058661D01*
X85652069Y-116616287D01*
X85560126Y-116584235D01*
X85495051Y-116562443D01*
X85459653Y-116552281D01*
X85458632Y-116552184D01*
X85455080Y-116579809D01*
X85451177Y-116656411D01*
X85447249Y-116772579D01*
X85443624Y-116918904D01*
X85441092Y-117055805D01*
X85433103Y-117559425D01*
X85257931Y-117559425D01*
X85249893Y-117099965D01*
X85241854Y-116640505D01*
X85156457Y-116596344D01*
X85093407Y-116566019D01*
X85056090Y-116552258D01*
X85055013Y-116552184D01*
X85049876Y-116579840D01*
X85049876Y-116579840D01*
G37*
X85049876Y-116579840D02*
X85045421Y-116656653D01*
X85041929Y-116773391D01*
X85039685Y-116920821D01*
X85038965Y-117075455D01*
X85038965Y-117598727D01*
X85131355Y-117691117D01*
X85195022Y-117748047D01*
X85250911Y-117771107D01*
X85327298Y-117769647D01*
X85357620Y-117765934D01*
X85452390Y-117755126D01*
X85530778Y-117748933D01*
X85549885Y-117748361D01*
X85614301Y-117752102D01*
X85706429Y-117761494D01*
X85742150Y-117765934D01*
X85829886Y-117772801D01*
X85888847Y-117757885D01*
X85947310Y-117711835D01*
X85968415Y-117691117D01*
X86060805Y-117598727D01*
X86060805Y-116619947D01*
X85986442Y-116586066D01*
X85922410Y-116560970D01*
X85884948Y-116552184D01*
X85875343Y-116579950D01*
X85866365Y-116657530D01*
X85858614Y-116776348D01*
X85852686Y-116927828D01*
X85849827Y-117055805D01*
X85841839Y-117559425D01*
X85772152Y-117569278D01*
X85708771Y-117562389D01*
X85677714Y-117540083D01*
X85669033Y-117498379D01*
X85661622Y-117409544D01*
X85656069Y-117284834D01*
X85652964Y-117135507D01*
X85652516Y-117058661D01*
X85652069Y-116616287D01*
X85560126Y-116584235D01*
X85495051Y-116562443D01*
X85459653Y-116552281D01*
X85458632Y-116552184D01*
X85455080Y-116579809D01*
X85451177Y-116656411D01*
X85447249Y-116772579D01*
X85443624Y-116918904D01*
X85441092Y-117055805D01*
X85433103Y-117559425D01*
X85257931Y-117559425D01*
X85249893Y-117099965D01*
X85241854Y-116640505D01*
X85156457Y-116596344D01*
X85093407Y-116566019D01*
X85056090Y-116552258D01*
X85055013Y-116552184D01*
X85049876Y-116579840D01*
G36*
X84315594Y-116575156D02*
X84231531Y-116613393D01*
X84165550Y-116659726D01*
X84117206Y-116711532D01*
X84083828Y-116778363D01*
X84062747Y-116869769D01*
X84051293Y-116995301D01*
X84046797Y-117164508D01*
X84046322Y-117275933D01*
X84046322Y-117710627D01*
X84120684Y-117744509D01*
X84179254Y-117769272D01*
X84208270Y-117778391D01*
X84213821Y-117751257D01*
X84218225Y-117678094D01*
X84220922Y-117571263D01*
X84221494Y-117486437D01*
X84223954Y-117363887D01*
X84230588Y-117266668D01*
X84240274Y-117207134D01*
X84247968Y-117194483D01*
X84299689Y-117207402D01*
X84380883Y-117240539D01*
X84474898Y-117285461D01*
X84565083Y-117333735D01*
X84634785Y-117376928D01*
X84667352Y-117406608D01*
X84667481Y-117406929D01*
X84664680Y-117461857D01*
X84639561Y-117514292D01*
X84595459Y-117556881D01*
X84531091Y-117571126D01*
X84476079Y-117569466D01*
X84398165Y-117568245D01*
X84357268Y-117586498D01*
X84332705Y-117634726D01*
X84329608Y-117643820D01*
X84318960Y-117712598D01*
X84347435Y-117754360D01*
X84421656Y-117774263D01*
X84501832Y-117777944D01*
X84646110Y-117750658D01*
X84720797Y-117711690D01*
X84813037Y-117620148D01*
X84861957Y-117507782D01*
X84866346Y-117389051D01*
X84824999Y-117278411D01*
X84762803Y-117209080D01*
X84700706Y-117170265D01*
X84603105Y-117121125D01*
X84489368Y-117071292D01*
X84470410Y-117063677D01*
X84345479Y-117008545D01*
X84273461Y-116959954D01*
X84250300Y-116911647D01*
X84271936Y-116857370D01*
X84309080Y-116814943D01*
X84396873Y-116762702D01*
X84493470Y-116758784D01*
X84582056Y-116799041D01*
X84645814Y-116879326D01*
X84654183Y-116900040D01*
X84702904Y-116976225D01*
X84774035Y-117032785D01*
X84863793Y-117079201D01*
X84863793Y-116947584D01*
X84858510Y-116867168D01*
X84835858Y-116803786D01*
X84785633Y-116736163D01*
X84737418Y-116684076D01*
X84662446Y-116610322D01*
X84604194Y-116570702D01*
X84541628Y-116554810D01*
X84470807Y-116552184D01*
X84315594Y-116575156D01*
X84315594Y-116575156D01*
G37*
X84315594Y-116575156D02*
X84231531Y-116613393D01*
X84165550Y-116659726D01*
X84117206Y-116711532D01*
X84083828Y-116778363D01*
X84062747Y-116869769D01*
X84051293Y-116995301D01*
X84046797Y-117164508D01*
X84046322Y-117275933D01*
X84046322Y-117710627D01*
X84120684Y-117744509D01*
X84179254Y-117769272D01*
X84208270Y-117778391D01*
X84213821Y-117751257D01*
X84218225Y-117678094D01*
X84220922Y-117571263D01*
X84221494Y-117486437D01*
X84223954Y-117363887D01*
X84230588Y-117266668D01*
X84240274Y-117207134D01*
X84247968Y-117194483D01*
X84299689Y-117207402D01*
X84380883Y-117240539D01*
X84474898Y-117285461D01*
X84565083Y-117333735D01*
X84634785Y-117376928D01*
X84667352Y-117406608D01*
X84667481Y-117406929D01*
X84664680Y-117461857D01*
X84639561Y-117514292D01*
X84595459Y-117556881D01*
X84531091Y-117571126D01*
X84476079Y-117569466D01*
X84398165Y-117568245D01*
X84357268Y-117586498D01*
X84332705Y-117634726D01*
X84329608Y-117643820D01*
X84318960Y-117712598D01*
X84347435Y-117754360D01*
X84421656Y-117774263D01*
X84501832Y-117777944D01*
X84646110Y-117750658D01*
X84720797Y-117711690D01*
X84813037Y-117620148D01*
X84861957Y-117507782D01*
X84866346Y-117389051D01*
X84824999Y-117278411D01*
X84762803Y-117209080D01*
X84700706Y-117170265D01*
X84603105Y-117121125D01*
X84489368Y-117071292D01*
X84470410Y-117063677D01*
X84345479Y-117008545D01*
X84273461Y-116959954D01*
X84250300Y-116911647D01*
X84271936Y-116857370D01*
X84309080Y-116814943D01*
X84396873Y-116762702D01*
X84493470Y-116758784D01*
X84582056Y-116799041D01*
X84645814Y-116879326D01*
X84654183Y-116900040D01*
X84702904Y-116976225D01*
X84774035Y-117032785D01*
X84863793Y-117079201D01*
X84863793Y-116947584D01*
X84858510Y-116867168D01*
X84835858Y-116803786D01*
X84785633Y-116736163D01*
X84737418Y-116684076D01*
X84662446Y-116610322D01*
X84604194Y-116570702D01*
X84541628Y-116554810D01*
X84470807Y-116552184D01*
X84315594Y-116575156D01*
G36*
X83294310Y-116580018D02*
X83259415Y-116595269D01*
X83176123Y-116661235D01*
X83104897Y-116756618D01*
X83060847Y-116858406D01*
X83053678Y-116908587D01*
X83077715Y-116978647D01*
X83130439Y-117015717D01*
X83186969Y-117038164D01*
X83212854Y-117042300D01*
X83225458Y-117012283D01*
X83250346Y-116946961D01*
X83261265Y-116917445D01*
X83322492Y-116815348D01*
X83411139Y-116764423D01*
X83524807Y-116765989D01*
X83533226Y-116767994D01*
X83593912Y-116796767D01*
X83638526Y-116852859D01*
X83668998Y-116943163D01*
X83687256Y-117074571D01*
X83695229Y-117253974D01*
X83695977Y-117349433D01*
X83696348Y-117499913D01*
X83698777Y-117602495D01*
X83705240Y-117667672D01*
X83717712Y-117705938D01*
X83738167Y-117727785D01*
X83768581Y-117743707D01*
X83770339Y-117744509D01*
X83828909Y-117769272D01*
X83857925Y-117778391D01*
X83862384Y-117750822D01*
X83866201Y-117674620D01*
X83869101Y-117559541D01*
X83870809Y-117415341D01*
X83871149Y-117309814D01*
X83869412Y-117105613D01*
X83862618Y-116950697D01*
X83848393Y-116836024D01*
X83824362Y-116752551D01*
X83788152Y-116691236D01*
X83737388Y-116643034D01*
X83687261Y-116609393D01*
X83566725Y-116564619D01*
X83426443Y-116554521D01*
X83294310Y-116580018D01*
X83294310Y-116580018D01*
G37*
X83294310Y-116580018D02*
X83259415Y-116595269D01*
X83176123Y-116661235D01*
X83104897Y-116756618D01*
X83060847Y-116858406D01*
X83053678Y-116908587D01*
X83077715Y-116978647D01*
X83130439Y-117015717D01*
X83186969Y-117038164D01*
X83212854Y-117042300D01*
X83225458Y-117012283D01*
X83250346Y-116946961D01*
X83261265Y-116917445D01*
X83322492Y-116815348D01*
X83411139Y-116764423D01*
X83524807Y-116765989D01*
X83533226Y-116767994D01*
X83593912Y-116796767D01*
X83638526Y-116852859D01*
X83668998Y-116943163D01*
X83687256Y-117074571D01*
X83695229Y-117253974D01*
X83695977Y-117349433D01*
X83696348Y-117499913D01*
X83698777Y-117602495D01*
X83705240Y-117667672D01*
X83717712Y-117705938D01*
X83738167Y-117727785D01*
X83768581Y-117743707D01*
X83770339Y-117744509D01*
X83828909Y-117769272D01*
X83857925Y-117778391D01*
X83862384Y-117750822D01*
X83866201Y-117674620D01*
X83869101Y-117559541D01*
X83870809Y-117415341D01*
X83871149Y-117309814D01*
X83869412Y-117105613D01*
X83862618Y-116950697D01*
X83848393Y-116836024D01*
X83824362Y-116752551D01*
X83788152Y-116691236D01*
X83737388Y-116643034D01*
X83687261Y-116609393D01*
X83566725Y-116564619D01*
X83426443Y-116554521D01*
X83294310Y-116580018D01*
G36*
X82286561Y-116596540D02*
X82171050Y-116672034D01*
X82115336Y-116739617D01*
X82071196Y-116862255D01*
X82067691Y-116959298D01*
X82075632Y-117089056D01*
X82374885Y-117220039D01*
X82520389Y-117286958D01*
X82615463Y-117340790D01*
X82664899Y-117387416D01*
X82673489Y-117432720D01*
X82646028Y-117482582D01*
X82615747Y-117515632D01*
X82527637Y-117568633D01*
X82431804Y-117572347D01*
X82343788Y-117531041D01*
X82279131Y-117448983D01*
X82267567Y-117420008D01*
X82212175Y-117329509D01*
X82148447Y-117290940D01*
X82061034Y-117257946D01*
X82061034Y-117383034D01*
X82068762Y-117468156D01*
X82099034Y-117539938D01*
X82162482Y-117622356D01*
X82171912Y-117633066D01*
X82242487Y-117706391D01*
X82303153Y-117745742D01*
X82379050Y-117763845D01*
X82441970Y-117769774D01*
X82554513Y-117771251D01*
X82634630Y-117752535D01*
X82684610Y-117724747D01*
X82763162Y-117663641D01*
X82817537Y-117597554D01*
X82851948Y-117514441D01*
X82870612Y-117402254D01*
X82877744Y-117248946D01*
X82878313Y-117171136D01*
X82876378Y-117077853D01*
X82700101Y-117077853D01*
X82698056Y-117127896D01*
X82692961Y-117136092D01*
X82659334Y-117124958D01*
X82586970Y-117095493D01*
X82490253Y-117053601D01*
X82470027Y-117044597D01*
X82347797Y-116982442D01*
X82280453Y-116927815D01*
X82265652Y-116876649D01*
X82301053Y-116824876D01*
X82330289Y-116802000D01*
X82435784Y-116756250D01*
X82534524Y-116763808D01*
X82617188Y-116819651D01*
X82674452Y-116918753D01*
X82692812Y-116997414D01*
X82700101Y-117077853D01*
X82876378Y-117077853D01*
X82874541Y-116989351D01*
X82860641Y-116854853D01*
X82833106Y-116756916D01*
X82788428Y-116684811D01*
X82723099Y-116627813D01*
X82694617Y-116609393D01*
X82565237Y-116561422D01*
X82423588Y-116558403D01*
X82286561Y-116596540D01*
X82286561Y-116596540D01*
G37*
X82286561Y-116596540D02*
X82171050Y-116672034D01*
X82115336Y-116739617D01*
X82071196Y-116862255D01*
X82067691Y-116959298D01*
X82075632Y-117089056D01*
X82374885Y-117220039D01*
X82520389Y-117286958D01*
X82615463Y-117340790D01*
X82664899Y-117387416D01*
X82673489Y-117432720D01*
X82646028Y-117482582D01*
X82615747Y-117515632D01*
X82527637Y-117568633D01*
X82431804Y-117572347D01*
X82343788Y-117531041D01*
X82279131Y-117448983D01*
X82267567Y-117420008D01*
X82212175Y-117329509D01*
X82148447Y-117290940D01*
X82061034Y-117257946D01*
X82061034Y-117383034D01*
X82068762Y-117468156D01*
X82099034Y-117539938D01*
X82162482Y-117622356D01*
X82171912Y-117633066D01*
X82242487Y-117706391D01*
X82303153Y-117745742D01*
X82379050Y-117763845D01*
X82441970Y-117769774D01*
X82554513Y-117771251D01*
X82634630Y-117752535D01*
X82684610Y-117724747D01*
X82763162Y-117663641D01*
X82817537Y-117597554D01*
X82851948Y-117514441D01*
X82870612Y-117402254D01*
X82877744Y-117248946D01*
X82878313Y-117171136D01*
X82876378Y-117077853D01*
X82700101Y-117077853D01*
X82698056Y-117127896D01*
X82692961Y-117136092D01*
X82659334Y-117124958D01*
X82586970Y-117095493D01*
X82490253Y-117053601D01*
X82470027Y-117044597D01*
X82347797Y-116982442D01*
X82280453Y-116927815D01*
X82265652Y-116876649D01*
X82301053Y-116824876D01*
X82330289Y-116802000D01*
X82435784Y-116756250D01*
X82534524Y-116763808D01*
X82617188Y-116819651D01*
X82674452Y-116918753D01*
X82692812Y-116997414D01*
X82700101Y-117077853D01*
X82876378Y-117077853D01*
X82874541Y-116989351D01*
X82860641Y-116854853D01*
X82833106Y-116756916D01*
X82788428Y-116684811D01*
X82723099Y-116627813D01*
X82694617Y-116609393D01*
X82565237Y-116561422D01*
X82423588Y-116558403D01*
X82286561Y-116596540D01*
G36*
X88420986Y-107092998D02*
X88262994Y-107093863D01*
X88148653Y-107096205D01*
X88070593Y-107100762D01*
X88021446Y-107108270D01*
X87993841Y-107119466D01*
X87980408Y-107135088D01*
X87973779Y-107155873D01*
X87973135Y-107158563D01*
X87963065Y-107207113D01*
X87944425Y-107302905D01*
X87919155Y-107435743D01*
X87889193Y-107595431D01*
X87856478Y-107771774D01*
X87855336Y-107777967D01*
X87822567Y-107950782D01*
X87791907Y-108103469D01*
X87765336Y-108226871D01*
X87744833Y-108311831D01*
X87732374Y-108349190D01*
X87731780Y-108349852D01*
X87695081Y-108368095D01*
X87619414Y-108398497D01*
X87521122Y-108434493D01*
X87520575Y-108434685D01*
X87396767Y-108481222D01*
X87250804Y-108540504D01*
X87113219Y-108600109D01*
X87106707Y-108603056D01*
X86882610Y-108704765D01*
X86386381Y-108365897D01*
X86234154Y-108262592D01*
X86096259Y-108170237D01*
X85980685Y-108094084D01*
X85895421Y-108039385D01*
X85848456Y-108011393D01*
X85843996Y-108009317D01*
X85809866Y-108018560D01*
X85746119Y-108063156D01*
X85650269Y-108145209D01*
X85519831Y-108266821D01*
X85386672Y-108396205D01*
X85258306Y-108523702D01*
X85143419Y-108640046D01*
X85048927Y-108738052D01*
X84981747Y-108810536D01*
X84948794Y-108850313D01*
X84947568Y-108852361D01*
X84943926Y-108879656D01*
X84957650Y-108924234D01*
X84992131Y-108992112D01*
X85050761Y-109089311D01*
X85136930Y-109221851D01*
X85251800Y-109392476D01*
X85353746Y-109542655D01*
X85444877Y-109677350D01*
X85519927Y-109788740D01*
X85573631Y-109869005D01*
X85600720Y-109910325D01*
X85602426Y-109913130D01*
X85599118Y-109952721D01*
X85574047Y-110029669D01*
X85532202Y-110129432D01*
X85517288Y-110161291D01*
X85452214Y-110303226D01*
X85382788Y-110464273D01*
X85326391Y-110603621D01*
X85285753Y-110707044D01*
X85253474Y-110785642D01*
X85234822Y-110826720D01*
X85232503Y-110829885D01*
X85198197Y-110835128D01*
X85117331Y-110849494D01*
X85000657Y-110870937D01*
X84858925Y-110897413D01*
X84702890Y-110926877D01*
X84543302Y-110957283D01*
X84390915Y-110986588D01*
X84256479Y-111012745D01*
X84150748Y-111033710D01*
X84084474Y-111047439D01*
X84068218Y-111051320D01*
X84051427Y-111060900D01*
X84038751Y-111082536D01*
X84029622Y-111123531D01*
X84023469Y-111191189D01*
X84019720Y-111292812D01*
X84017808Y-111435703D01*
X84017160Y-111627165D01*
X84017126Y-111705645D01*
X84017126Y-112343906D01*
X84170402Y-112374160D01*
X84255678Y-112390564D01*
X84382930Y-112414509D01*
X84536685Y-112443107D01*
X84701466Y-112473467D01*
X84747011Y-112481806D01*
X84899068Y-112511370D01*
X85031532Y-112540442D01*
X85133286Y-112566329D01*
X85193212Y-112586337D01*
X85203195Y-112592301D01*
X85227707Y-112634534D01*
X85262852Y-112716370D01*
X85301827Y-112821683D01*
X85309558Y-112844368D01*
X85360640Y-112985018D01*
X85424046Y-113143714D01*
X85486096Y-113286225D01*
X85486402Y-113286886D01*
X85589733Y-113510440D01*
X84910039Y-114510232D01*
X85346379Y-114947300D01*
X85478351Y-115077381D01*
X85598721Y-115192048D01*
X85700727Y-115285181D01*
X85777609Y-115350658D01*
X85822607Y-115382357D01*
X85829062Y-115384368D01*
X85866960Y-115368529D01*
X85944292Y-115324496D01*
X86052611Y-115257490D01*
X86183468Y-115172734D01*
X86324948Y-115077816D01*
X86468539Y-114980998D01*
X86596565Y-114896751D01*
X86700895Y-114830258D01*
X86773400Y-114786702D01*
X86805842Y-114771264D01*
X86845424Y-114784328D01*
X86920481Y-114818750D01*
X87015532Y-114867380D01*
X87025608Y-114872785D01*
X87153609Y-114936980D01*
X87241382Y-114968463D01*
X87295972Y-114968798D01*
X87324425Y-114939548D01*
X87324590Y-114939138D01*
X87338812Y-114904498D01*
X87372731Y-114822269D01*
X87423716Y-114698814D01*
X87489138Y-114540498D01*
X87566366Y-114353686D01*
X87652771Y-114144742D01*
X87736449Y-113942446D01*
X87828412Y-113719200D01*
X87912850Y-113512392D01*
X87987231Y-113328362D01*
X88049026Y-113173451D01*
X88095703Y-113053996D01*
X88124732Y-112976339D01*
X88133678Y-112947356D01*
X88111244Y-112914110D01*
X88052561Y-112861123D01*
X87974311Y-112802704D01*
X87751466Y-112617952D01*
X87577282Y-112406182D01*
X87453846Y-112171856D01*
X87383246Y-111919434D01*
X87367569Y-111653377D01*
X87378964Y-111530575D01*
X87441050Y-111275793D01*
X87547977Y-111050801D01*
X87693111Y-110857817D01*
X87869822Y-110699061D01*
X88071478Y-110576750D01*
X88291446Y-110493105D01*
X88523094Y-110450344D01*
X88759791Y-110450687D01*
X88994905Y-110496352D01*
X89221804Y-110589559D01*
X89433856Y-110732527D01*
X89522364Y-110813383D01*
X89692111Y-111021007D01*
X89810301Y-111247895D01*
X89877722Y-111487433D01*
X89895160Y-111733007D01*
X89863402Y-111978003D01*
X89783235Y-112215808D01*
X89655445Y-112439807D01*
X89480820Y-112643387D01*
X89285688Y-112802704D01*
X89204409Y-112863602D01*
X89146991Y-112916015D01*
X89126322Y-112947406D01*
X89137144Y-112981639D01*
X89167923Y-113063419D01*
X89216126Y-113186407D01*
X89279222Y-113344263D01*
X89354678Y-113530649D01*
X89439962Y-113739226D01*
X89523781Y-113942496D01*
X89616255Y-114165933D01*
X89701911Y-114372984D01*
X89778118Y-114557286D01*
X89842247Y-114712475D01*
X89891668Y-114832188D01*
X89923752Y-114910061D01*
X89935641Y-114939138D01*
X89963726Y-114968677D01*
X90018051Y-114968591D01*
X90105605Y-114937326D01*
X90233381Y-114873329D01*
X90234392Y-114872785D01*
X90330598Y-114823121D01*
X90408369Y-114786945D01*
X90452223Y-114771408D01*
X90454158Y-114771264D01*
X90487171Y-114787024D01*
X90560054Y-114830850D01*
X90664678Y-114897557D01*
X90792910Y-114981964D01*
X90935052Y-115077816D01*
X91079767Y-115174867D01*
X91210196Y-115259270D01*
X91317890Y-115325801D01*
X91394402Y-115369238D01*
X91430938Y-115384368D01*
X91464582Y-115364482D01*
X91532224Y-115308903D01*
X91627107Y-115223754D01*
X91742470Y-115115153D01*
X91871555Y-114989221D01*
X91913771Y-114947149D01*
X92350261Y-114509931D01*
X92018023Y-114022340D01*
X91917054Y-113872605D01*
X91828438Y-113738220D01*
X91757146Y-113626969D01*
X91708150Y-113546639D01*
X91686422Y-113505014D01*
X91685785Y-113502053D01*
X91697240Y-113462818D01*
X91728051Y-113383895D01*
X91772884Y-113278509D01*
X91804353Y-113207954D01*
X91863192Y-113072876D01*
X91918604Y-112936409D01*
X91961564Y-112821103D01*
X91973234Y-112785977D01*
X92006389Y-112692174D01*
X92038799Y-112619694D01*
X92056601Y-112592301D01*
X92095886Y-112575536D01*
X92181626Y-112551770D01*
X92302697Y-112523697D01*
X92447973Y-112494009D01*
X92512988Y-112481806D01*
X92678087Y-112451468D01*
X92836448Y-112422093D01*
X92972596Y-112396569D01*
X93071057Y-112377785D01*
X93089598Y-112374160D01*
X93242873Y-112343906D01*
X93242873Y-111705645D01*
X93242529Y-111495770D01*
X93241116Y-111336980D01*
X93238064Y-111221973D01*
X93232803Y-111143446D01*
X93224763Y-111094096D01*
X93213373Y-111066619D01*
X93198063Y-111053713D01*
X93191782Y-111051320D01*
X93153896Y-111042833D01*
X93070195Y-111025900D01*
X92951433Y-111002566D01*
X92808361Y-110974875D01*
X92651732Y-110944873D01*
X92492297Y-110914604D01*
X92340809Y-110886115D01*
X92208019Y-110861449D01*
X92104681Y-110842651D01*
X92041545Y-110831767D01*
X92027497Y-110829885D01*
X92014770Y-110804704D01*
X91986600Y-110737622D01*
X91948252Y-110641333D01*
X91933609Y-110603621D01*
X91874548Y-110457921D01*
X91805000Y-110296951D01*
X91742712Y-110161291D01*
X91696879Y-110057561D01*
X91666387Y-109972326D01*
X91656208Y-109920126D01*
X91657831Y-109913130D01*
X91679343Y-109880102D01*
X91728465Y-109806643D01*
X91799923Y-109700577D01*
X91888445Y-109569726D01*
X91988759Y-109421912D01*
X92008594Y-109392734D01*
X92124988Y-109219863D01*
X92210548Y-109088226D01*
X92268684Y-108991761D01*
X92302808Y-108924408D01*
X92316331Y-108880106D01*
X92312664Y-108852794D01*
X92312570Y-108852620D01*
X92283707Y-108816746D01*
X92219867Y-108747391D01*
X92127969Y-108651745D01*
X92014933Y-108536999D01*
X91887679Y-108410341D01*
X91873328Y-108396205D01*
X91712957Y-108240903D01*
X91589195Y-108126870D01*
X91499555Y-108052002D01*
X91441552Y-108014196D01*
X91416004Y-108009317D01*
X91378718Y-108030603D01*
X91301343Y-108079773D01*
X91191867Y-108151575D01*
X91058280Y-108240755D01*
X90908570Y-108342063D01*
X90873618Y-108365897D01*
X90377390Y-108704765D01*
X90153293Y-108603056D01*
X90017011Y-108543783D01*
X89870724Y-108484170D01*
X89744965Y-108436640D01*
X89739425Y-108434685D01*
X89641057Y-108398677D01*
X89565229Y-108368229D01*
X89528282Y-108349905D01*
X89528220Y-108349852D01*
X89516496Y-108316729D01*
X89496568Y-108235267D01*
X89470413Y-108114625D01*
X89440010Y-107963959D01*
X89407337Y-107792428D01*
X89404664Y-107777967D01*
X89371890Y-107601235D01*
X89341802Y-107440810D01*
X89316339Y-107306888D01*
X89297441Y-107209663D01*
X89287047Y-107159332D01*
X89286865Y-107158563D01*
X89280539Y-107137153D01*
X89268239Y-107120988D01*
X89242594Y-107109331D01*
X89196235Y-107101445D01*
X89121792Y-107096593D01*
X89011895Y-107094039D01*
X88859175Y-107093045D01*
X88656262Y-107092874D01*
X88630000Y-107092874D01*
X88420986Y-107092998D01*
X88420986Y-107092998D01*
G37*
X88420986Y-107092998D02*
X88262994Y-107093863D01*
X88148653Y-107096205D01*
X88070593Y-107100762D01*
X88021446Y-107108270D01*
X87993841Y-107119466D01*
X87980408Y-107135088D01*
X87973779Y-107155873D01*
X87973135Y-107158563D01*
X87963065Y-107207113D01*
X87944425Y-107302905D01*
X87919155Y-107435743D01*
X87889193Y-107595431D01*
X87856478Y-107771774D01*
X87855336Y-107777967D01*
X87822567Y-107950782D01*
X87791907Y-108103469D01*
X87765336Y-108226871D01*
X87744833Y-108311831D01*
X87732374Y-108349190D01*
X87731780Y-108349852D01*
X87695081Y-108368095D01*
X87619414Y-108398497D01*
X87521122Y-108434493D01*
X87520575Y-108434685D01*
X87396767Y-108481222D01*
X87250804Y-108540504D01*
X87113219Y-108600109D01*
X87106707Y-108603056D01*
X86882610Y-108704765D01*
X86386381Y-108365897D01*
X86234154Y-108262592D01*
X86096259Y-108170237D01*
X85980685Y-108094084D01*
X85895421Y-108039385D01*
X85848456Y-108011393D01*
X85843996Y-108009317D01*
X85809866Y-108018560D01*
X85746119Y-108063156D01*
X85650269Y-108145209D01*
X85519831Y-108266821D01*
X85386672Y-108396205D01*
X85258306Y-108523702D01*
X85143419Y-108640046D01*
X85048927Y-108738052D01*
X84981747Y-108810536D01*
X84948794Y-108850313D01*
X84947568Y-108852361D01*
X84943926Y-108879656D01*
X84957650Y-108924234D01*
X84992131Y-108992112D01*
X85050761Y-109089311D01*
X85136930Y-109221851D01*
X85251800Y-109392476D01*
X85353746Y-109542655D01*
X85444877Y-109677350D01*
X85519927Y-109788740D01*
X85573631Y-109869005D01*
X85600720Y-109910325D01*
X85602426Y-109913130D01*
X85599118Y-109952721D01*
X85574047Y-110029669D01*
X85532202Y-110129432D01*
X85517288Y-110161291D01*
X85452214Y-110303226D01*
X85382788Y-110464273D01*
X85326391Y-110603621D01*
X85285753Y-110707044D01*
X85253474Y-110785642D01*
X85234822Y-110826720D01*
X85232503Y-110829885D01*
X85198197Y-110835128D01*
X85117331Y-110849494D01*
X85000657Y-110870937D01*
X84858925Y-110897413D01*
X84702890Y-110926877D01*
X84543302Y-110957283D01*
X84390915Y-110986588D01*
X84256479Y-111012745D01*
X84150748Y-111033710D01*
X84084474Y-111047439D01*
X84068218Y-111051320D01*
X84051427Y-111060900D01*
X84038751Y-111082536D01*
X84029622Y-111123531D01*
X84023469Y-111191189D01*
X84019720Y-111292812D01*
X84017808Y-111435703D01*
X84017160Y-111627165D01*
X84017126Y-111705645D01*
X84017126Y-112343906D01*
X84170402Y-112374160D01*
X84255678Y-112390564D01*
X84382930Y-112414509D01*
X84536685Y-112443107D01*
X84701466Y-112473467D01*
X84747011Y-112481806D01*
X84899068Y-112511370D01*
X85031532Y-112540442D01*
X85133286Y-112566329D01*
X85193212Y-112586337D01*
X85203195Y-112592301D01*
X85227707Y-112634534D01*
X85262852Y-112716370D01*
X85301827Y-112821683D01*
X85309558Y-112844368D01*
X85360640Y-112985018D01*
X85424046Y-113143714D01*
X85486096Y-113286225D01*
X85486402Y-113286886D01*
X85589733Y-113510440D01*
X84910039Y-114510232D01*
X85346379Y-114947300D01*
X85478351Y-115077381D01*
X85598721Y-115192048D01*
X85700727Y-115285181D01*
X85777609Y-115350658D01*
X85822607Y-115382357D01*
X85829062Y-115384368D01*
X85866960Y-115368529D01*
X85944292Y-115324496D01*
X86052611Y-115257490D01*
X86183468Y-115172734D01*
X86324948Y-115077816D01*
X86468539Y-114980998D01*
X86596565Y-114896751D01*
X86700895Y-114830258D01*
X86773400Y-114786702D01*
X86805842Y-114771264D01*
X86845424Y-114784328D01*
X86920481Y-114818750D01*
X87015532Y-114867380D01*
X87025608Y-114872785D01*
X87153609Y-114936980D01*
X87241382Y-114968463D01*
X87295972Y-114968798D01*
X87324425Y-114939548D01*
X87324590Y-114939138D01*
X87338812Y-114904498D01*
X87372731Y-114822269D01*
X87423716Y-114698814D01*
X87489138Y-114540498D01*
X87566366Y-114353686D01*
X87652771Y-114144742D01*
X87736449Y-113942446D01*
X87828412Y-113719200D01*
X87912850Y-113512392D01*
X87987231Y-113328362D01*
X88049026Y-113173451D01*
X88095703Y-113053996D01*
X88124732Y-112976339D01*
X88133678Y-112947356D01*
X88111244Y-112914110D01*
X88052561Y-112861123D01*
X87974311Y-112802704D01*
X87751466Y-112617952D01*
X87577282Y-112406182D01*
X87453846Y-112171856D01*
X87383246Y-111919434D01*
X87367569Y-111653377D01*
X87378964Y-111530575D01*
X87441050Y-111275793D01*
X87547977Y-111050801D01*
X87693111Y-110857817D01*
X87869822Y-110699061D01*
X88071478Y-110576750D01*
X88291446Y-110493105D01*
X88523094Y-110450344D01*
X88759791Y-110450687D01*
X88994905Y-110496352D01*
X89221804Y-110589559D01*
X89433856Y-110732527D01*
X89522364Y-110813383D01*
X89692111Y-111021007D01*
X89810301Y-111247895D01*
X89877722Y-111487433D01*
X89895160Y-111733007D01*
X89863402Y-111978003D01*
X89783235Y-112215808D01*
X89655445Y-112439807D01*
X89480820Y-112643387D01*
X89285688Y-112802704D01*
X89204409Y-112863602D01*
X89146991Y-112916015D01*
X89126322Y-112947406D01*
X89137144Y-112981639D01*
X89167923Y-113063419D01*
X89216126Y-113186407D01*
X89279222Y-113344263D01*
X89354678Y-113530649D01*
X89439962Y-113739226D01*
X89523781Y-113942496D01*
X89616255Y-114165933D01*
X89701911Y-114372984D01*
X89778118Y-114557286D01*
X89842247Y-114712475D01*
X89891668Y-114832188D01*
X89923752Y-114910061D01*
X89935641Y-114939138D01*
X89963726Y-114968677D01*
X90018051Y-114968591D01*
X90105605Y-114937326D01*
X90233381Y-114873329D01*
X90234392Y-114872785D01*
X90330598Y-114823121D01*
X90408369Y-114786945D01*
X90452223Y-114771408D01*
X90454158Y-114771264D01*
X90487171Y-114787024D01*
X90560054Y-114830850D01*
X90664678Y-114897557D01*
X90792910Y-114981964D01*
X90935052Y-115077816D01*
X91079767Y-115174867D01*
X91210196Y-115259270D01*
X91317890Y-115325801D01*
X91394402Y-115369238D01*
X91430938Y-115384368D01*
X91464582Y-115364482D01*
X91532224Y-115308903D01*
X91627107Y-115223754D01*
X91742470Y-115115153D01*
X91871555Y-114989221D01*
X91913771Y-114947149D01*
X92350261Y-114509931D01*
X92018023Y-114022340D01*
X91917054Y-113872605D01*
X91828438Y-113738220D01*
X91757146Y-113626969D01*
X91708150Y-113546639D01*
X91686422Y-113505014D01*
X91685785Y-113502053D01*
X91697240Y-113462818D01*
X91728051Y-113383895D01*
X91772884Y-113278509D01*
X91804353Y-113207954D01*
X91863192Y-113072876D01*
X91918604Y-112936409D01*
X91961564Y-112821103D01*
X91973234Y-112785977D01*
X92006389Y-112692174D01*
X92038799Y-112619694D01*
X92056601Y-112592301D01*
X92095886Y-112575536D01*
X92181626Y-112551770D01*
X92302697Y-112523697D01*
X92447973Y-112494009D01*
X92512988Y-112481806D01*
X92678087Y-112451468D01*
X92836448Y-112422093D01*
X92972596Y-112396569D01*
X93071057Y-112377785D01*
X93089598Y-112374160D01*
X93242873Y-112343906D01*
X93242873Y-111705645D01*
X93242529Y-111495770D01*
X93241116Y-111336980D01*
X93238064Y-111221973D01*
X93232803Y-111143446D01*
X93224763Y-111094096D01*
X93213373Y-111066619D01*
X93198063Y-111053713D01*
X93191782Y-111051320D01*
X93153896Y-111042833D01*
X93070195Y-111025900D01*
X92951433Y-111002566D01*
X92808361Y-110974875D01*
X92651732Y-110944873D01*
X92492297Y-110914604D01*
X92340809Y-110886115D01*
X92208019Y-110861449D01*
X92104681Y-110842651D01*
X92041545Y-110831767D01*
X92027497Y-110829885D01*
X92014770Y-110804704D01*
X91986600Y-110737622D01*
X91948252Y-110641333D01*
X91933609Y-110603621D01*
X91874548Y-110457921D01*
X91805000Y-110296951D01*
X91742712Y-110161291D01*
X91696879Y-110057561D01*
X91666387Y-109972326D01*
X91656208Y-109920126D01*
X91657831Y-109913130D01*
X91679343Y-109880102D01*
X91728465Y-109806643D01*
X91799923Y-109700577D01*
X91888445Y-109569726D01*
X91988759Y-109421912D01*
X92008594Y-109392734D01*
X92124988Y-109219863D01*
X92210548Y-109088226D01*
X92268684Y-108991761D01*
X92302808Y-108924408D01*
X92316331Y-108880106D01*
X92312664Y-108852794D01*
X92312570Y-108852620D01*
X92283707Y-108816746D01*
X92219867Y-108747391D01*
X92127969Y-108651745D01*
X92014933Y-108536999D01*
X91887679Y-108410341D01*
X91873328Y-108396205D01*
X91712957Y-108240903D01*
X91589195Y-108126870D01*
X91499555Y-108052002D01*
X91441552Y-108014196D01*
X91416004Y-108009317D01*
X91378718Y-108030603D01*
X91301343Y-108079773D01*
X91191867Y-108151575D01*
X91058280Y-108240755D01*
X90908570Y-108342063D01*
X90873618Y-108365897D01*
X90377390Y-108704765D01*
X90153293Y-108603056D01*
X90017011Y-108543783D01*
X89870724Y-108484170D01*
X89744965Y-108436640D01*
X89739425Y-108434685D01*
X89641057Y-108398677D01*
X89565229Y-108368229D01*
X89528282Y-108349905D01*
X89528220Y-108349852D01*
X89516496Y-108316729D01*
X89496568Y-108235267D01*
X89470413Y-108114625D01*
X89440010Y-107963959D01*
X89407337Y-107792428D01*
X89404664Y-107777967D01*
X89371890Y-107601235D01*
X89341802Y-107440810D01*
X89316339Y-107306888D01*
X89297441Y-107209663D01*
X89287047Y-107159332D01*
X89286865Y-107158563D01*
X89280539Y-107137153D01*
X89268239Y-107120988D01*
X89242594Y-107109331D01*
X89196235Y-107101445D01*
X89121792Y-107096593D01*
X89011895Y-107094039D01*
X88859175Y-107093045D01*
X88656262Y-107092874D01*
X88630000Y-107092874D01*
X88420986Y-107092998D01*
M02*
