M48
;DRILL file {KiCad 4.0.5} date 02/12/17 04:07:50
;FORMAT={-:-/ absolute / metric / decimal}
FMAT,2
METRIC,TZ
T1C0.400
T2C1.000
T3C1.500
%
G90
G05
M71
T1
X72.09Y-118.79
X73.36Y-118.79
X74.64Y-118.79
X78.75Y-108.75
X85.75Y-104.67
X93.1Y-110.9
X93.1Y-117.9
X102.15Y-104.81
X103.1Y-118.9
X111.1Y-111.9
X111.1Y-113.9
X111.1Y-116.9
X111.1Y-118.9
T2
X70.5Y-111.96
X70.5Y-113.96
X70.5Y-115.96
X72.25Y-111.21
X74.Y-111.21
X75.75Y-111.21
X77.5Y-111.96
X77.5Y-113.96
X77.5Y-115.96
T3
X74.Y-123.46
X74.Y-128.54
X86.Y-123.46
X86.Y-128.54
X96.Y-123.46
X96.Y-128.54
X107.5Y-123.46
X107.5Y-128.54
T0
M30
