%FSLAX45Y45*%
G04 Gerber Fmt 4.5, Leading zero omitted, Abs format (unit mm)*
G04 Created by KiCad (PCBNEW 4.0.4-stable) date 12/03/16 18:33:24*
%MOMM*%
%LPD*%
G01*
G04 APERTURE LIST*
%ADD10C,0.127000*%
%ADD11C,0.150000*%
%ADD12C,0.200000*%
%ADD13C,0.300000*%
G04 APERTURE END LIST*
D10*
D11*
X22650000Y-12450000D02*
X17850000Y-12450000D01*
X22650000Y-7650000D02*
X22650000Y-12450000D01*
X22450000Y-7650000D02*
X22650000Y-7650000D01*
X17850000Y-7650000D02*
X22450000Y-7650000D01*
X17850000Y-12450000D02*
X17850000Y-7650000D01*
D12*
X18905000Y-9390000D02*
X18945000Y-9430000D01*
X18945000Y-9390000D02*
X18905000Y-9430000D01*
X19210000Y-7830000D02*
X19250000Y-7870000D01*
X19250000Y-7830000D02*
X19210000Y-7870000D01*
X19230000Y-8430000D02*
X19270000Y-8470000D01*
X19270000Y-8430000D02*
X19230000Y-8470000D01*
X19290000Y-9690000D02*
X19330000Y-9730000D01*
X19330000Y-9690000D02*
X19290000Y-9730000D01*
X19430000Y-9684000D02*
X19470000Y-9724000D01*
X19470000Y-9684000D02*
X19430000Y-9724000D01*
X19430000Y-10480000D02*
X19470000Y-10520000D01*
X19470000Y-10480000D02*
X19430000Y-10520000D01*
X19550000Y-9690000D02*
X19590000Y-9730000D01*
X19590000Y-9690000D02*
X19550000Y-9730000D01*
X19975000Y-8250000D02*
G75*
G03X19975000Y-8250000I-25000J0D01*
G01*
X19975000Y-8350000D02*
G75*
G03X19975000Y-8350000I-25000J0D01*
G01*
X19975000Y-8450000D02*
G75*
G03X19975000Y-8450000I-25000J0D01*
G01*
X19975000Y-8550000D02*
G75*
G03X19975000Y-8550000I-25000J0D01*
G01*
X19975000Y-8650000D02*
G75*
G03X19975000Y-8650000I-25000J0D01*
G01*
X19975000Y-8750000D02*
G75*
G03X19975000Y-8750000I-25000J0D01*
G01*
X19975000Y-8850000D02*
G75*
G03X19975000Y-8850000I-25000J0D01*
G01*
X19975000Y-8950000D02*
G75*
G03X19975000Y-8950000I-25000J0D01*
G01*
X19975000Y-9050000D02*
G75*
G03X19975000Y-9050000I-25000J0D01*
G01*
X19975000Y-9150000D02*
G75*
G03X19975000Y-9150000I-25000J0D01*
G01*
X19975000Y-9250000D02*
G75*
G03X19975000Y-9250000I-25000J0D01*
G01*
X19975000Y-9350000D02*
G75*
G03X19975000Y-9350000I-25000J0D01*
G01*
X19975000Y-9450000D02*
G75*
G03X19975000Y-9450000I-25000J0D01*
G01*
X19975000Y-9550000D02*
G75*
G03X19975000Y-9550000I-25000J0D01*
G01*
X19975000Y-9650000D02*
G75*
G03X19975000Y-9650000I-25000J0D01*
G01*
X19975000Y-9750000D02*
G75*
G03X19975000Y-9750000I-25000J0D01*
G01*
X19975000Y-9850000D02*
G75*
G03X19975000Y-9850000I-25000J0D01*
G01*
X19975000Y-9950000D02*
G75*
G03X19975000Y-9950000I-25000J0D01*
G01*
X19975000Y-10050000D02*
G75*
G03X19975000Y-10050000I-25000J0D01*
G01*
X19975000Y-10150000D02*
G75*
G03X19975000Y-10150000I-25000J0D01*
G01*
X19975000Y-10250000D02*
G75*
G03X19975000Y-10250000I-25000J0D01*
G01*
X19975000Y-10350000D02*
G75*
G03X19975000Y-10350000I-25000J0D01*
G01*
X19975000Y-10450000D02*
G75*
G03X19975000Y-10450000I-25000J0D01*
G01*
X19975000Y-10550000D02*
G75*
G03X19975000Y-10550000I-25000J0D01*
G01*
X19975000Y-10650000D02*
G75*
G03X19975000Y-10650000I-25000J0D01*
G01*
X20075000Y-8250000D02*
G75*
G03X20075000Y-8250000I-25000J0D01*
G01*
X20075000Y-8350000D02*
G75*
G03X20075000Y-8350000I-25000J0D01*
G01*
X20075000Y-8450000D02*
G75*
G03X20075000Y-8450000I-25000J0D01*
G01*
X20075000Y-8550000D02*
G75*
G03X20075000Y-8550000I-25000J0D01*
G01*
X20075000Y-8650000D02*
G75*
G03X20075000Y-8650000I-25000J0D01*
G01*
X20075000Y-8750000D02*
G75*
G03X20075000Y-8750000I-25000J0D01*
G01*
X20075000Y-8850000D02*
G75*
G03X20075000Y-8850000I-25000J0D01*
G01*
X20075000Y-8950000D02*
G75*
G03X20075000Y-8950000I-25000J0D01*
G01*
X20075000Y-9050000D02*
G75*
G03X20075000Y-9050000I-25000J0D01*
G01*
X20075000Y-9150000D02*
G75*
G03X20075000Y-9150000I-25000J0D01*
G01*
X20075000Y-9250000D02*
G75*
G03X20075000Y-9250000I-25000J0D01*
G01*
X20075000Y-9350000D02*
G75*
G03X20075000Y-9350000I-25000J0D01*
G01*
X20075000Y-9450000D02*
G75*
G03X20075000Y-9450000I-25000J0D01*
G01*
X20075000Y-9550000D02*
G75*
G03X20075000Y-9550000I-25000J0D01*
G01*
X20075000Y-9650000D02*
G75*
G03X20075000Y-9650000I-25000J0D01*
G01*
X20075000Y-9750000D02*
G75*
G03X20075000Y-9750000I-25000J0D01*
G01*
X20075000Y-9850000D02*
G75*
G03X20075000Y-9850000I-25000J0D01*
G01*
X20075000Y-9950000D02*
G75*
G03X20075000Y-9950000I-25000J0D01*
G01*
X20075000Y-10050000D02*
G75*
G03X20075000Y-10050000I-25000J0D01*
G01*
X20075000Y-10150000D02*
G75*
G03X20075000Y-10150000I-25000J0D01*
G01*
X20075000Y-10250000D02*
G75*
G03X20075000Y-10250000I-25000J0D01*
G01*
X20075000Y-10350000D02*
G75*
G03X20075000Y-10350000I-25000J0D01*
G01*
X20075000Y-10450000D02*
G75*
G03X20075000Y-10450000I-25000J0D01*
G01*
X20075000Y-10550000D02*
G75*
G03X20075000Y-10550000I-25000J0D01*
G01*
X20075000Y-10650000D02*
G75*
G03X20075000Y-10650000I-25000J0D01*
G01*
X20175000Y-8250000D02*
G75*
G03X20175000Y-8250000I-25000J0D01*
G01*
X20175000Y-8350000D02*
G75*
G03X20175000Y-8350000I-25000J0D01*
G01*
X20175000Y-8450000D02*
G75*
G03X20175000Y-8450000I-25000J0D01*
G01*
X20175000Y-8550000D02*
G75*
G03X20175000Y-8550000I-25000J0D01*
G01*
X20175000Y-8650000D02*
G75*
G03X20175000Y-8650000I-25000J0D01*
G01*
X20175000Y-8750000D02*
G75*
G03X20175000Y-8750000I-25000J0D01*
G01*
X20175000Y-8850000D02*
G75*
G03X20175000Y-8850000I-25000J0D01*
G01*
X20175000Y-8950000D02*
G75*
G03X20175000Y-8950000I-25000J0D01*
G01*
X20175000Y-9050000D02*
G75*
G03X20175000Y-9050000I-25000J0D01*
G01*
X20175000Y-9150000D02*
G75*
G03X20175000Y-9150000I-25000J0D01*
G01*
X20175000Y-9250000D02*
G75*
G03X20175000Y-9250000I-25000J0D01*
G01*
X20175000Y-9350000D02*
G75*
G03X20175000Y-9350000I-25000J0D01*
G01*
X20175000Y-9450000D02*
G75*
G03X20175000Y-9450000I-25000J0D01*
G01*
X20175000Y-9550000D02*
G75*
G03X20175000Y-9550000I-25000J0D01*
G01*
X20175000Y-9650000D02*
G75*
G03X20175000Y-9650000I-25000J0D01*
G01*
X20175000Y-9750000D02*
G75*
G03X20175000Y-9750000I-25000J0D01*
G01*
X20175000Y-9850000D02*
G75*
G03X20175000Y-9850000I-25000J0D01*
G01*
X20175000Y-9950000D02*
G75*
G03X20175000Y-9950000I-25000J0D01*
G01*
X20175000Y-10050000D02*
G75*
G03X20175000Y-10050000I-25000J0D01*
G01*
X20175000Y-10150000D02*
G75*
G03X20175000Y-10150000I-25000J0D01*
G01*
X20175000Y-10250000D02*
G75*
G03X20175000Y-10250000I-25000J0D01*
G01*
X20175000Y-10350000D02*
G75*
G03X20175000Y-10350000I-25000J0D01*
G01*
X20175000Y-10450000D02*
G75*
G03X20175000Y-10450000I-25000J0D01*
G01*
X20175000Y-10550000D02*
G75*
G03X20175000Y-10550000I-25000J0D01*
G01*
X20175000Y-10650000D02*
G75*
G03X20175000Y-10650000I-25000J0D01*
G01*
X20275000Y-8250000D02*
G75*
G03X20275000Y-8250000I-25000J0D01*
G01*
X20275000Y-8350000D02*
G75*
G03X20275000Y-8350000I-25000J0D01*
G01*
X20275000Y-8450000D02*
G75*
G03X20275000Y-8450000I-25000J0D01*
G01*
X20275000Y-8550000D02*
G75*
G03X20275000Y-8550000I-25000J0D01*
G01*
X20275000Y-8650000D02*
G75*
G03X20275000Y-8650000I-25000J0D01*
G01*
X20275000Y-8750000D02*
G75*
G03X20275000Y-8750000I-25000J0D01*
G01*
X20275000Y-8850000D02*
G75*
G03X20275000Y-8850000I-25000J0D01*
G01*
X20275000Y-8950000D02*
G75*
G03X20275000Y-8950000I-25000J0D01*
G01*
X20275000Y-9050000D02*
G75*
G03X20275000Y-9050000I-25000J0D01*
G01*
X20275000Y-9150000D02*
G75*
G03X20275000Y-9150000I-25000J0D01*
G01*
X20275000Y-9250000D02*
G75*
G03X20275000Y-9250000I-25000J0D01*
G01*
X20275000Y-9350000D02*
G75*
G03X20275000Y-9350000I-25000J0D01*
G01*
X20275000Y-9450000D02*
G75*
G03X20275000Y-9450000I-25000J0D01*
G01*
X20275000Y-9550000D02*
G75*
G03X20275000Y-9550000I-25000J0D01*
G01*
X20275000Y-9650000D02*
G75*
G03X20275000Y-9650000I-25000J0D01*
G01*
X20275000Y-9750000D02*
G75*
G03X20275000Y-9750000I-25000J0D01*
G01*
X20275000Y-9850000D02*
G75*
G03X20275000Y-9850000I-25000J0D01*
G01*
X20275000Y-9950000D02*
G75*
G03X20275000Y-9950000I-25000J0D01*
G01*
X20275000Y-10050000D02*
G75*
G03X20275000Y-10050000I-25000J0D01*
G01*
X20275000Y-10150000D02*
G75*
G03X20275000Y-10150000I-25000J0D01*
G01*
X20275000Y-10250000D02*
G75*
G03X20275000Y-10250000I-25000J0D01*
G01*
X20275000Y-10350000D02*
G75*
G03X20275000Y-10350000I-25000J0D01*
G01*
X20275000Y-10450000D02*
G75*
G03X20275000Y-10450000I-25000J0D01*
G01*
X20275000Y-10550000D02*
G75*
G03X20275000Y-10550000I-25000J0D01*
G01*
X20275000Y-10650000D02*
G75*
G03X20275000Y-10650000I-25000J0D01*
G01*
X20375000Y-8250000D02*
G75*
G03X20375000Y-8250000I-25000J0D01*
G01*
X20375000Y-8350000D02*
G75*
G03X20375000Y-8350000I-25000J0D01*
G01*
X20375000Y-8450000D02*
G75*
G03X20375000Y-8450000I-25000J0D01*
G01*
X20375000Y-8550000D02*
G75*
G03X20375000Y-8550000I-25000J0D01*
G01*
X20375000Y-8650000D02*
G75*
G03X20375000Y-8650000I-25000J0D01*
G01*
X20375000Y-8750000D02*
G75*
G03X20375000Y-8750000I-25000J0D01*
G01*
X20375000Y-8850000D02*
G75*
G03X20375000Y-8850000I-25000J0D01*
G01*
X20375000Y-8950000D02*
G75*
G03X20375000Y-8950000I-25000J0D01*
G01*
X20375000Y-9050000D02*
G75*
G03X20375000Y-9050000I-25000J0D01*
G01*
X20375000Y-9150000D02*
G75*
G03X20375000Y-9150000I-25000J0D01*
G01*
X20375000Y-9250000D02*
G75*
G03X20375000Y-9250000I-25000J0D01*
G01*
X20375000Y-9350000D02*
G75*
G03X20375000Y-9350000I-25000J0D01*
G01*
X20375000Y-9450000D02*
G75*
G03X20375000Y-9450000I-25000J0D01*
G01*
X20375000Y-9550000D02*
G75*
G03X20375000Y-9550000I-25000J0D01*
G01*
X20375000Y-9650000D02*
G75*
G03X20375000Y-9650000I-25000J0D01*
G01*
X20375000Y-9750000D02*
G75*
G03X20375000Y-9750000I-25000J0D01*
G01*
X20375000Y-9850000D02*
G75*
G03X20375000Y-9850000I-25000J0D01*
G01*
X20375000Y-9950000D02*
G75*
G03X20375000Y-9950000I-25000J0D01*
G01*
X20375000Y-10050000D02*
G75*
G03X20375000Y-10050000I-25000J0D01*
G01*
X20375000Y-10150000D02*
G75*
G03X20375000Y-10150000I-25000J0D01*
G01*
X20375000Y-10250000D02*
G75*
G03X20375000Y-10250000I-25000J0D01*
G01*
X20375000Y-10350000D02*
G75*
G03X20375000Y-10350000I-25000J0D01*
G01*
X20375000Y-10450000D02*
G75*
G03X20375000Y-10450000I-25000J0D01*
G01*
X20375000Y-10550000D02*
G75*
G03X20375000Y-10550000I-25000J0D01*
G01*
X20375000Y-10650000D02*
G75*
G03X20375000Y-10650000I-25000J0D01*
G01*
X20475000Y-8250000D02*
G75*
G03X20475000Y-8250000I-25000J0D01*
G01*
X20475000Y-8350000D02*
G75*
G03X20475000Y-8350000I-25000J0D01*
G01*
X20475000Y-8450000D02*
G75*
G03X20475000Y-8450000I-25000J0D01*
G01*
X20475000Y-8550000D02*
G75*
G03X20475000Y-8550000I-25000J0D01*
G01*
X20475000Y-8650000D02*
G75*
G03X20475000Y-8650000I-25000J0D01*
G01*
X20475000Y-8750000D02*
G75*
G03X20475000Y-8750000I-25000J0D01*
G01*
X20475000Y-8850000D02*
G75*
G03X20475000Y-8850000I-25000J0D01*
G01*
X20475000Y-8950000D02*
G75*
G03X20475000Y-8950000I-25000J0D01*
G01*
X20475000Y-9050000D02*
G75*
G03X20475000Y-9050000I-25000J0D01*
G01*
X20475000Y-9150000D02*
G75*
G03X20475000Y-9150000I-25000J0D01*
G01*
X20475000Y-9250000D02*
G75*
G03X20475000Y-9250000I-25000J0D01*
G01*
X20475000Y-9350000D02*
G75*
G03X20475000Y-9350000I-25000J0D01*
G01*
X20475000Y-9450000D02*
G75*
G03X20475000Y-9450000I-25000J0D01*
G01*
X20475000Y-9550000D02*
G75*
G03X20475000Y-9550000I-25000J0D01*
G01*
X20475000Y-9650000D02*
G75*
G03X20475000Y-9650000I-25000J0D01*
G01*
X20475000Y-9750000D02*
G75*
G03X20475000Y-9750000I-25000J0D01*
G01*
X20475000Y-9850000D02*
G75*
G03X20475000Y-9850000I-25000J0D01*
G01*
X20475000Y-9950000D02*
G75*
G03X20475000Y-9950000I-25000J0D01*
G01*
X20475000Y-10050000D02*
G75*
G03X20475000Y-10050000I-25000J0D01*
G01*
X20475000Y-10150000D02*
G75*
G03X20475000Y-10150000I-25000J0D01*
G01*
X20475000Y-10250000D02*
G75*
G03X20475000Y-10250000I-25000J0D01*
G01*
X20475000Y-10350000D02*
G75*
G03X20475000Y-10350000I-25000J0D01*
G01*
X20475000Y-10450000D02*
G75*
G03X20475000Y-10450000I-25000J0D01*
G01*
X20475000Y-10550000D02*
G75*
G03X20475000Y-10550000I-25000J0D01*
G01*
X20475000Y-10650000D02*
G75*
G03X20475000Y-10650000I-25000J0D01*
G01*
X20575000Y-8250000D02*
G75*
G03X20575000Y-8250000I-25000J0D01*
G01*
X20575000Y-8350000D02*
G75*
G03X20575000Y-8350000I-25000J0D01*
G01*
X20575000Y-8450000D02*
G75*
G03X20575000Y-8450000I-25000J0D01*
G01*
X20575000Y-8550000D02*
G75*
G03X20575000Y-8550000I-25000J0D01*
G01*
X20575000Y-8650000D02*
G75*
G03X20575000Y-8650000I-25000J0D01*
G01*
X20575000Y-8750000D02*
G75*
G03X20575000Y-8750000I-25000J0D01*
G01*
X20575000Y-8850000D02*
G75*
G03X20575000Y-8850000I-25000J0D01*
G01*
X20575000Y-8950000D02*
G75*
G03X20575000Y-8950000I-25000J0D01*
G01*
X20575000Y-9050000D02*
G75*
G03X20575000Y-9050000I-25000J0D01*
G01*
X20575000Y-9150000D02*
G75*
G03X20575000Y-9150000I-25000J0D01*
G01*
X20575000Y-9250000D02*
G75*
G03X20575000Y-9250000I-25000J0D01*
G01*
X20575000Y-9350000D02*
G75*
G03X20575000Y-9350000I-25000J0D01*
G01*
X20575000Y-9450000D02*
G75*
G03X20575000Y-9450000I-25000J0D01*
G01*
X20575000Y-9550000D02*
G75*
G03X20575000Y-9550000I-25000J0D01*
G01*
X20575000Y-9650000D02*
G75*
G03X20575000Y-9650000I-25000J0D01*
G01*
X20575000Y-9750000D02*
G75*
G03X20575000Y-9750000I-25000J0D01*
G01*
X20575000Y-9850000D02*
G75*
G03X20575000Y-9850000I-25000J0D01*
G01*
X20575000Y-9950000D02*
G75*
G03X20575000Y-9950000I-25000J0D01*
G01*
X20575000Y-10050000D02*
G75*
G03X20575000Y-10050000I-25000J0D01*
G01*
X20575000Y-10150000D02*
G75*
G03X20575000Y-10150000I-25000J0D01*
G01*
X20575000Y-10250000D02*
G75*
G03X20575000Y-10250000I-25000J0D01*
G01*
X20575000Y-10350000D02*
G75*
G03X20575000Y-10350000I-25000J0D01*
G01*
X20575000Y-10450000D02*
G75*
G03X20575000Y-10450000I-25000J0D01*
G01*
X20575000Y-10550000D02*
G75*
G03X20575000Y-10550000I-25000J0D01*
G01*
X20575000Y-10650000D02*
G75*
G03X20575000Y-10650000I-25000J0D01*
G01*
X20675000Y-8250000D02*
G75*
G03X20675000Y-8250000I-25000J0D01*
G01*
X20675000Y-8350000D02*
G75*
G03X20675000Y-8350000I-25000J0D01*
G01*
X20675000Y-8450000D02*
G75*
G03X20675000Y-8450000I-25000J0D01*
G01*
X20675000Y-8550000D02*
G75*
G03X20675000Y-8550000I-25000J0D01*
G01*
X20675000Y-8650000D02*
G75*
G03X20675000Y-8650000I-25000J0D01*
G01*
X20675000Y-8750000D02*
G75*
G03X20675000Y-8750000I-25000J0D01*
G01*
X20675000Y-8850000D02*
G75*
G03X20675000Y-8850000I-25000J0D01*
G01*
X20675000Y-8950000D02*
G75*
G03X20675000Y-8950000I-25000J0D01*
G01*
X20675000Y-9050000D02*
G75*
G03X20675000Y-9050000I-25000J0D01*
G01*
X20675000Y-9150000D02*
G75*
G03X20675000Y-9150000I-25000J0D01*
G01*
X20675000Y-9250000D02*
G75*
G03X20675000Y-9250000I-25000J0D01*
G01*
X20675000Y-9350000D02*
G75*
G03X20675000Y-9350000I-25000J0D01*
G01*
X20675000Y-9450000D02*
G75*
G03X20675000Y-9450000I-25000J0D01*
G01*
X20675000Y-9550000D02*
G75*
G03X20675000Y-9550000I-25000J0D01*
G01*
X20675000Y-9650000D02*
G75*
G03X20675000Y-9650000I-25000J0D01*
G01*
X20675000Y-9750000D02*
G75*
G03X20675000Y-9750000I-25000J0D01*
G01*
X20675000Y-9850000D02*
G75*
G03X20675000Y-9850000I-25000J0D01*
G01*
X20675000Y-9950000D02*
G75*
G03X20675000Y-9950000I-25000J0D01*
G01*
X20675000Y-10050000D02*
G75*
G03X20675000Y-10050000I-25000J0D01*
G01*
X20675000Y-10150000D02*
G75*
G03X20675000Y-10150000I-25000J0D01*
G01*
X20675000Y-10250000D02*
G75*
G03X20675000Y-10250000I-25000J0D01*
G01*
X20675000Y-10350000D02*
G75*
G03X20675000Y-10350000I-25000J0D01*
G01*
X20675000Y-10450000D02*
G75*
G03X20675000Y-10450000I-25000J0D01*
G01*
X20675000Y-10550000D02*
G75*
G03X20675000Y-10550000I-25000J0D01*
G01*
X20675000Y-10650000D02*
G75*
G03X20675000Y-10650000I-25000J0D01*
G01*
X20775000Y-8250000D02*
G75*
G03X20775000Y-8250000I-25000J0D01*
G01*
X20775000Y-8350000D02*
G75*
G03X20775000Y-8350000I-25000J0D01*
G01*
X20775000Y-8450000D02*
G75*
G03X20775000Y-8450000I-25000J0D01*
G01*
X20775000Y-8550000D02*
G75*
G03X20775000Y-8550000I-25000J0D01*
G01*
X20775000Y-8650000D02*
G75*
G03X20775000Y-8650000I-25000J0D01*
G01*
X20775000Y-8750000D02*
G75*
G03X20775000Y-8750000I-25000J0D01*
G01*
X20775000Y-8850000D02*
G75*
G03X20775000Y-8850000I-25000J0D01*
G01*
X20775000Y-8950000D02*
G75*
G03X20775000Y-8950000I-25000J0D01*
G01*
X20775000Y-9050000D02*
G75*
G03X20775000Y-9050000I-25000J0D01*
G01*
X20775000Y-9150000D02*
G75*
G03X20775000Y-9150000I-25000J0D01*
G01*
X20775000Y-9250000D02*
G75*
G03X20775000Y-9250000I-25000J0D01*
G01*
X20775000Y-9350000D02*
G75*
G03X20775000Y-9350000I-25000J0D01*
G01*
X20775000Y-9450000D02*
G75*
G03X20775000Y-9450000I-25000J0D01*
G01*
X20775000Y-9550000D02*
G75*
G03X20775000Y-9550000I-25000J0D01*
G01*
X20775000Y-9650000D02*
G75*
G03X20775000Y-9650000I-25000J0D01*
G01*
X20775000Y-9750000D02*
G75*
G03X20775000Y-9750000I-25000J0D01*
G01*
X20775000Y-9850000D02*
G75*
G03X20775000Y-9850000I-25000J0D01*
G01*
X20775000Y-9950000D02*
G75*
G03X20775000Y-9950000I-25000J0D01*
G01*
X20775000Y-10050000D02*
G75*
G03X20775000Y-10050000I-25000J0D01*
G01*
X20775000Y-10150000D02*
G75*
G03X20775000Y-10150000I-25000J0D01*
G01*
X20775000Y-10250000D02*
G75*
G03X20775000Y-10250000I-25000J0D01*
G01*
X20775000Y-10350000D02*
G75*
G03X20775000Y-10350000I-25000J0D01*
G01*
X20775000Y-10450000D02*
G75*
G03X20775000Y-10450000I-25000J0D01*
G01*
X20775000Y-10550000D02*
G75*
G03X20775000Y-10550000I-25000J0D01*
G01*
X20775000Y-10650000D02*
G75*
G03X20775000Y-10650000I-25000J0D01*
G01*
X20875000Y-8250000D02*
G75*
G03X20875000Y-8250000I-25000J0D01*
G01*
X20875000Y-8350000D02*
G75*
G03X20875000Y-8350000I-25000J0D01*
G01*
X20875000Y-8450000D02*
G75*
G03X20875000Y-8450000I-25000J0D01*
G01*
X20875000Y-8550000D02*
G75*
G03X20875000Y-8550000I-25000J0D01*
G01*
X20875000Y-8650000D02*
G75*
G03X20875000Y-8650000I-25000J0D01*
G01*
X20875000Y-8750000D02*
G75*
G03X20875000Y-8750000I-25000J0D01*
G01*
X20875000Y-8850000D02*
G75*
G03X20875000Y-8850000I-25000J0D01*
G01*
X20875000Y-8950000D02*
G75*
G03X20875000Y-8950000I-25000J0D01*
G01*
X20875000Y-9050000D02*
G75*
G03X20875000Y-9050000I-25000J0D01*
G01*
X20875000Y-9150000D02*
G75*
G03X20875000Y-9150000I-25000J0D01*
G01*
X20875000Y-9250000D02*
G75*
G03X20875000Y-9250000I-25000J0D01*
G01*
X20875000Y-9350000D02*
G75*
G03X20875000Y-9350000I-25000J0D01*
G01*
X20875000Y-9450000D02*
G75*
G03X20875000Y-9450000I-25000J0D01*
G01*
X20875000Y-9550000D02*
G75*
G03X20875000Y-9550000I-25000J0D01*
G01*
X20875000Y-9650000D02*
G75*
G03X20875000Y-9650000I-25000J0D01*
G01*
X20875000Y-9750000D02*
G75*
G03X20875000Y-9750000I-25000J0D01*
G01*
X20875000Y-9850000D02*
G75*
G03X20875000Y-9850000I-25000J0D01*
G01*
X20875000Y-9950000D02*
G75*
G03X20875000Y-9950000I-25000J0D01*
G01*
X20875000Y-10050000D02*
G75*
G03X20875000Y-10050000I-25000J0D01*
G01*
X20875000Y-10150000D02*
G75*
G03X20875000Y-10150000I-25000J0D01*
G01*
X20875000Y-10250000D02*
G75*
G03X20875000Y-10250000I-25000J0D01*
G01*
X20875000Y-10350000D02*
G75*
G03X20875000Y-10350000I-25000J0D01*
G01*
X20875000Y-10450000D02*
G75*
G03X20875000Y-10450000I-25000J0D01*
G01*
X20875000Y-10550000D02*
G75*
G03X20875000Y-10550000I-25000J0D01*
G01*
X20875000Y-10650000D02*
G75*
G03X20875000Y-10650000I-25000J0D01*
G01*
X20975000Y-8250000D02*
G75*
G03X20975000Y-8250000I-25000J0D01*
G01*
X20975000Y-8350000D02*
G75*
G03X20975000Y-8350000I-25000J0D01*
G01*
X20975000Y-8450000D02*
G75*
G03X20975000Y-8450000I-25000J0D01*
G01*
X20975000Y-8550000D02*
G75*
G03X20975000Y-8550000I-25000J0D01*
G01*
X20975000Y-8650000D02*
G75*
G03X20975000Y-8650000I-25000J0D01*
G01*
X20975000Y-8750000D02*
G75*
G03X20975000Y-8750000I-25000J0D01*
G01*
X20975000Y-8850000D02*
G75*
G03X20975000Y-8850000I-25000J0D01*
G01*
X20975000Y-8950000D02*
G75*
G03X20975000Y-8950000I-25000J0D01*
G01*
X20975000Y-9050000D02*
G75*
G03X20975000Y-9050000I-25000J0D01*
G01*
X20975000Y-9150000D02*
G75*
G03X20975000Y-9150000I-25000J0D01*
G01*
X20975000Y-9250000D02*
G75*
G03X20975000Y-9250000I-25000J0D01*
G01*
X20975000Y-9350000D02*
G75*
G03X20975000Y-9350000I-25000J0D01*
G01*
X20975000Y-9450000D02*
G75*
G03X20975000Y-9450000I-25000J0D01*
G01*
X20975000Y-9550000D02*
G75*
G03X20975000Y-9550000I-25000J0D01*
G01*
X20975000Y-9650000D02*
G75*
G03X20975000Y-9650000I-25000J0D01*
G01*
X20975000Y-9750000D02*
G75*
G03X20975000Y-9750000I-25000J0D01*
G01*
X20975000Y-9850000D02*
G75*
G03X20975000Y-9850000I-25000J0D01*
G01*
X20975000Y-9950000D02*
G75*
G03X20975000Y-9950000I-25000J0D01*
G01*
X20975000Y-10050000D02*
G75*
G03X20975000Y-10050000I-25000J0D01*
G01*
X20975000Y-10150000D02*
G75*
G03X20975000Y-10150000I-25000J0D01*
G01*
X20975000Y-10250000D02*
G75*
G03X20975000Y-10250000I-25000J0D01*
G01*
X20975000Y-10350000D02*
G75*
G03X20975000Y-10350000I-25000J0D01*
G01*
X20975000Y-10450000D02*
G75*
G03X20975000Y-10450000I-25000J0D01*
G01*
X20975000Y-10550000D02*
G75*
G03X20975000Y-10550000I-25000J0D01*
G01*
X20975000Y-10650000D02*
G75*
G03X20975000Y-10650000I-25000J0D01*
G01*
X21075000Y-8250000D02*
G75*
G03X21075000Y-8250000I-25000J0D01*
G01*
X21075000Y-8350000D02*
G75*
G03X21075000Y-8350000I-25000J0D01*
G01*
X21075000Y-8450000D02*
G75*
G03X21075000Y-8450000I-25000J0D01*
G01*
X21075000Y-8550000D02*
G75*
G03X21075000Y-8550000I-25000J0D01*
G01*
X21075000Y-8650000D02*
G75*
G03X21075000Y-8650000I-25000J0D01*
G01*
X21075000Y-8750000D02*
G75*
G03X21075000Y-8750000I-25000J0D01*
G01*
X21075000Y-8850000D02*
G75*
G03X21075000Y-8850000I-25000J0D01*
G01*
X21075000Y-8950000D02*
G75*
G03X21075000Y-8950000I-25000J0D01*
G01*
X21075000Y-9050000D02*
G75*
G03X21075000Y-9050000I-25000J0D01*
G01*
X21075000Y-9150000D02*
G75*
G03X21075000Y-9150000I-25000J0D01*
G01*
X21075000Y-9250000D02*
G75*
G03X21075000Y-9250000I-25000J0D01*
G01*
X21075000Y-9350000D02*
G75*
G03X21075000Y-9350000I-25000J0D01*
G01*
X21075000Y-9450000D02*
G75*
G03X21075000Y-9450000I-25000J0D01*
G01*
X21075000Y-9550000D02*
G75*
G03X21075000Y-9550000I-25000J0D01*
G01*
X21075000Y-9650000D02*
G75*
G03X21075000Y-9650000I-25000J0D01*
G01*
X21075000Y-9750000D02*
G75*
G03X21075000Y-9750000I-25000J0D01*
G01*
X21075000Y-9850000D02*
G75*
G03X21075000Y-9850000I-25000J0D01*
G01*
X21075000Y-9950000D02*
G75*
G03X21075000Y-9950000I-25000J0D01*
G01*
X21075000Y-10050000D02*
G75*
G03X21075000Y-10050000I-25000J0D01*
G01*
X21075000Y-10150000D02*
G75*
G03X21075000Y-10150000I-25000J0D01*
G01*
X21075000Y-10250000D02*
G75*
G03X21075000Y-10250000I-25000J0D01*
G01*
X21075000Y-10350000D02*
G75*
G03X21075000Y-10350000I-25000J0D01*
G01*
X21075000Y-10450000D02*
G75*
G03X21075000Y-10450000I-25000J0D01*
G01*
X21075000Y-10550000D02*
G75*
G03X21075000Y-10550000I-25000J0D01*
G01*
X21075000Y-10650000D02*
G75*
G03X21075000Y-10650000I-25000J0D01*
G01*
X21175000Y-8250000D02*
G75*
G03X21175000Y-8250000I-25000J0D01*
G01*
X21175000Y-8350000D02*
G75*
G03X21175000Y-8350000I-25000J0D01*
G01*
X21175000Y-8450000D02*
G75*
G03X21175000Y-8450000I-25000J0D01*
G01*
X21175000Y-8550000D02*
G75*
G03X21175000Y-8550000I-25000J0D01*
G01*
X21175000Y-8650000D02*
G75*
G03X21175000Y-8650000I-25000J0D01*
G01*
X21175000Y-8750000D02*
G75*
G03X21175000Y-8750000I-25000J0D01*
G01*
X21175000Y-8850000D02*
G75*
G03X21175000Y-8850000I-25000J0D01*
G01*
X21175000Y-8950000D02*
G75*
G03X21175000Y-8950000I-25000J0D01*
G01*
X21175000Y-9050000D02*
G75*
G03X21175000Y-9050000I-25000J0D01*
G01*
X21175000Y-9150000D02*
G75*
G03X21175000Y-9150000I-25000J0D01*
G01*
X21175000Y-9250000D02*
G75*
G03X21175000Y-9250000I-25000J0D01*
G01*
X21175000Y-9350000D02*
G75*
G03X21175000Y-9350000I-25000J0D01*
G01*
X21175000Y-9450000D02*
G75*
G03X21175000Y-9450000I-25000J0D01*
G01*
X21175000Y-9550000D02*
G75*
G03X21175000Y-9550000I-25000J0D01*
G01*
X21175000Y-9650000D02*
G75*
G03X21175000Y-9650000I-25000J0D01*
G01*
X21175000Y-9750000D02*
G75*
G03X21175000Y-9750000I-25000J0D01*
G01*
X21175000Y-9850000D02*
G75*
G03X21175000Y-9850000I-25000J0D01*
G01*
X21175000Y-9950000D02*
G75*
G03X21175000Y-9950000I-25000J0D01*
G01*
X21175000Y-10050000D02*
G75*
G03X21175000Y-10050000I-25000J0D01*
G01*
X21175000Y-10150000D02*
G75*
G03X21175000Y-10150000I-25000J0D01*
G01*
X21175000Y-10250000D02*
G75*
G03X21175000Y-10250000I-25000J0D01*
G01*
X21175000Y-10350000D02*
G75*
G03X21175000Y-10350000I-25000J0D01*
G01*
X21175000Y-10450000D02*
G75*
G03X21175000Y-10450000I-25000J0D01*
G01*
X21175000Y-10550000D02*
G75*
G03X21175000Y-10550000I-25000J0D01*
G01*
X21175000Y-10650000D02*
G75*
G03X21175000Y-10650000I-25000J0D01*
G01*
X21275000Y-8250000D02*
G75*
G03X21275000Y-8250000I-25000J0D01*
G01*
X21275000Y-8350000D02*
G75*
G03X21275000Y-8350000I-25000J0D01*
G01*
X21275000Y-8450000D02*
G75*
G03X21275000Y-8450000I-25000J0D01*
G01*
X21275000Y-8550000D02*
G75*
G03X21275000Y-8550000I-25000J0D01*
G01*
X21275000Y-8650000D02*
G75*
G03X21275000Y-8650000I-25000J0D01*
G01*
X21275000Y-8750000D02*
G75*
G03X21275000Y-8750000I-25000J0D01*
G01*
X21275000Y-8850000D02*
G75*
G03X21275000Y-8850000I-25000J0D01*
G01*
X21275000Y-8950000D02*
G75*
G03X21275000Y-8950000I-25000J0D01*
G01*
X21275000Y-9050000D02*
G75*
G03X21275000Y-9050000I-25000J0D01*
G01*
X21275000Y-9150000D02*
G75*
G03X21275000Y-9150000I-25000J0D01*
G01*
X21275000Y-9250000D02*
G75*
G03X21275000Y-9250000I-25000J0D01*
G01*
X21275000Y-9350000D02*
G75*
G03X21275000Y-9350000I-25000J0D01*
G01*
X21275000Y-9450000D02*
G75*
G03X21275000Y-9450000I-25000J0D01*
G01*
X21275000Y-9550000D02*
G75*
G03X21275000Y-9550000I-25000J0D01*
G01*
X21275000Y-9650000D02*
G75*
G03X21275000Y-9650000I-25000J0D01*
G01*
X21275000Y-9750000D02*
G75*
G03X21275000Y-9750000I-25000J0D01*
G01*
X21275000Y-9850000D02*
G75*
G03X21275000Y-9850000I-25000J0D01*
G01*
X21275000Y-9950000D02*
G75*
G03X21275000Y-9950000I-25000J0D01*
G01*
X21275000Y-10050000D02*
G75*
G03X21275000Y-10050000I-25000J0D01*
G01*
X21275000Y-10150000D02*
G75*
G03X21275000Y-10150000I-25000J0D01*
G01*
X21275000Y-10250000D02*
G75*
G03X21275000Y-10250000I-25000J0D01*
G01*
X21275000Y-10350000D02*
G75*
G03X21275000Y-10350000I-25000J0D01*
G01*
X21275000Y-10450000D02*
G75*
G03X21275000Y-10450000I-25000J0D01*
G01*
X21275000Y-10550000D02*
G75*
G03X21275000Y-10550000I-25000J0D01*
G01*
X21275000Y-10650000D02*
G75*
G03X21275000Y-10650000I-25000J0D01*
G01*
X21375000Y-8250000D02*
G75*
G03X21375000Y-8250000I-25000J0D01*
G01*
X21375000Y-8350000D02*
G75*
G03X21375000Y-8350000I-25000J0D01*
G01*
X21375000Y-8450000D02*
G75*
G03X21375000Y-8450000I-25000J0D01*
G01*
X21375000Y-8550000D02*
G75*
G03X21375000Y-8550000I-25000J0D01*
G01*
X21375000Y-8650000D02*
G75*
G03X21375000Y-8650000I-25000J0D01*
G01*
X21375000Y-8750000D02*
G75*
G03X21375000Y-8750000I-25000J0D01*
G01*
X21375000Y-8850000D02*
G75*
G03X21375000Y-8850000I-25000J0D01*
G01*
X21375000Y-8950000D02*
G75*
G03X21375000Y-8950000I-25000J0D01*
G01*
X21375000Y-9050000D02*
G75*
G03X21375000Y-9050000I-25000J0D01*
G01*
X21375000Y-9150000D02*
G75*
G03X21375000Y-9150000I-25000J0D01*
G01*
X21375000Y-9250000D02*
G75*
G03X21375000Y-9250000I-25000J0D01*
G01*
X21375000Y-9350000D02*
G75*
G03X21375000Y-9350000I-25000J0D01*
G01*
X21375000Y-9450000D02*
G75*
G03X21375000Y-9450000I-25000J0D01*
G01*
X21375000Y-9550000D02*
G75*
G03X21375000Y-9550000I-25000J0D01*
G01*
X21375000Y-9650000D02*
G75*
G03X21375000Y-9650000I-25000J0D01*
G01*
X21375000Y-9750000D02*
G75*
G03X21375000Y-9750000I-25000J0D01*
G01*
X21375000Y-9850000D02*
G75*
G03X21375000Y-9850000I-25000J0D01*
G01*
X21375000Y-9950000D02*
G75*
G03X21375000Y-9950000I-25000J0D01*
G01*
X21375000Y-10050000D02*
G75*
G03X21375000Y-10050000I-25000J0D01*
G01*
X21375000Y-10150000D02*
G75*
G03X21375000Y-10150000I-25000J0D01*
G01*
X21375000Y-10250000D02*
G75*
G03X21375000Y-10250000I-25000J0D01*
G01*
X21375000Y-10350000D02*
G75*
G03X21375000Y-10350000I-25000J0D01*
G01*
X21375000Y-10450000D02*
G75*
G03X21375000Y-10450000I-25000J0D01*
G01*
X21375000Y-10550000D02*
G75*
G03X21375000Y-10550000I-25000J0D01*
G01*
X21375000Y-10650000D02*
G75*
G03X21375000Y-10650000I-25000J0D01*
G01*
X21475000Y-8250000D02*
G75*
G03X21475000Y-8250000I-25000J0D01*
G01*
X21475000Y-8350000D02*
G75*
G03X21475000Y-8350000I-25000J0D01*
G01*
X21475000Y-8450000D02*
G75*
G03X21475000Y-8450000I-25000J0D01*
G01*
X21475000Y-8550000D02*
G75*
G03X21475000Y-8550000I-25000J0D01*
G01*
X21475000Y-8650000D02*
G75*
G03X21475000Y-8650000I-25000J0D01*
G01*
X21475000Y-8750000D02*
G75*
G03X21475000Y-8750000I-25000J0D01*
G01*
X21475000Y-8850000D02*
G75*
G03X21475000Y-8850000I-25000J0D01*
G01*
X21475000Y-8950000D02*
G75*
G03X21475000Y-8950000I-25000J0D01*
G01*
X21475000Y-9050000D02*
G75*
G03X21475000Y-9050000I-25000J0D01*
G01*
X21475000Y-9150000D02*
G75*
G03X21475000Y-9150000I-25000J0D01*
G01*
X21475000Y-9250000D02*
G75*
G03X21475000Y-9250000I-25000J0D01*
G01*
X21475000Y-9350000D02*
G75*
G03X21475000Y-9350000I-25000J0D01*
G01*
X21475000Y-9450000D02*
G75*
G03X21475000Y-9450000I-25000J0D01*
G01*
X21475000Y-9550000D02*
G75*
G03X21475000Y-9550000I-25000J0D01*
G01*
X21475000Y-9650000D02*
G75*
G03X21475000Y-9650000I-25000J0D01*
G01*
X21475000Y-9750000D02*
G75*
G03X21475000Y-9750000I-25000J0D01*
G01*
X21475000Y-9850000D02*
G75*
G03X21475000Y-9850000I-25000J0D01*
G01*
X21475000Y-9950000D02*
G75*
G03X21475000Y-9950000I-25000J0D01*
G01*
X21475000Y-10050000D02*
G75*
G03X21475000Y-10050000I-25000J0D01*
G01*
X21475000Y-10150000D02*
G75*
G03X21475000Y-10150000I-25000J0D01*
G01*
X21475000Y-10250000D02*
G75*
G03X21475000Y-10250000I-25000J0D01*
G01*
X21475000Y-10350000D02*
G75*
G03X21475000Y-10350000I-25000J0D01*
G01*
X21475000Y-10450000D02*
G75*
G03X21475000Y-10450000I-25000J0D01*
G01*
X21475000Y-10550000D02*
G75*
G03X21475000Y-10550000I-25000J0D01*
G01*
X21475000Y-10650000D02*
G75*
G03X21475000Y-10650000I-25000J0D01*
G01*
X21575000Y-8250000D02*
G75*
G03X21575000Y-8250000I-25000J0D01*
G01*
X21575000Y-8350000D02*
G75*
G03X21575000Y-8350000I-25000J0D01*
G01*
X21575000Y-8450000D02*
G75*
G03X21575000Y-8450000I-25000J0D01*
G01*
X21575000Y-8550000D02*
G75*
G03X21575000Y-8550000I-25000J0D01*
G01*
X21575000Y-8650000D02*
G75*
G03X21575000Y-8650000I-25000J0D01*
G01*
X21575000Y-8750000D02*
G75*
G03X21575000Y-8750000I-25000J0D01*
G01*
X21575000Y-8850000D02*
G75*
G03X21575000Y-8850000I-25000J0D01*
G01*
X21575000Y-8950000D02*
G75*
G03X21575000Y-8950000I-25000J0D01*
G01*
X21575000Y-9050000D02*
G75*
G03X21575000Y-9050000I-25000J0D01*
G01*
X21575000Y-9150000D02*
G75*
G03X21575000Y-9150000I-25000J0D01*
G01*
X21575000Y-9250000D02*
G75*
G03X21575000Y-9250000I-25000J0D01*
G01*
X21575000Y-9350000D02*
G75*
G03X21575000Y-9350000I-25000J0D01*
G01*
X21575000Y-9450000D02*
G75*
G03X21575000Y-9450000I-25000J0D01*
G01*
X21575000Y-9550000D02*
G75*
G03X21575000Y-9550000I-25000J0D01*
G01*
X21575000Y-9650000D02*
G75*
G03X21575000Y-9650000I-25000J0D01*
G01*
X21575000Y-9750000D02*
G75*
G03X21575000Y-9750000I-25000J0D01*
G01*
X21575000Y-9850000D02*
G75*
G03X21575000Y-9850000I-25000J0D01*
G01*
X21575000Y-9950000D02*
G75*
G03X21575000Y-9950000I-25000J0D01*
G01*
X21575000Y-10050000D02*
G75*
G03X21575000Y-10050000I-25000J0D01*
G01*
X21575000Y-10150000D02*
G75*
G03X21575000Y-10150000I-25000J0D01*
G01*
X21575000Y-10250000D02*
G75*
G03X21575000Y-10250000I-25000J0D01*
G01*
X21575000Y-10350000D02*
G75*
G03X21575000Y-10350000I-25000J0D01*
G01*
X21575000Y-10450000D02*
G75*
G03X21575000Y-10450000I-25000J0D01*
G01*
X21575000Y-10550000D02*
G75*
G03X21575000Y-10550000I-25000J0D01*
G01*
X21575000Y-10650000D02*
G75*
G03X21575000Y-10650000I-25000J0D01*
G01*
X21675000Y-8250000D02*
G75*
G03X21675000Y-8250000I-25000J0D01*
G01*
X21675000Y-8350000D02*
G75*
G03X21675000Y-8350000I-25000J0D01*
G01*
X21675000Y-8450000D02*
G75*
G03X21675000Y-8450000I-25000J0D01*
G01*
X21675000Y-8550000D02*
G75*
G03X21675000Y-8550000I-25000J0D01*
G01*
X21675000Y-8650000D02*
G75*
G03X21675000Y-8650000I-25000J0D01*
G01*
X21675000Y-8750000D02*
G75*
G03X21675000Y-8750000I-25000J0D01*
G01*
X21675000Y-8850000D02*
G75*
G03X21675000Y-8850000I-25000J0D01*
G01*
X21675000Y-8950000D02*
G75*
G03X21675000Y-8950000I-25000J0D01*
G01*
X21675000Y-9050000D02*
G75*
G03X21675000Y-9050000I-25000J0D01*
G01*
X21675000Y-9150000D02*
G75*
G03X21675000Y-9150000I-25000J0D01*
G01*
X21675000Y-9250000D02*
G75*
G03X21675000Y-9250000I-25000J0D01*
G01*
X21675000Y-9350000D02*
G75*
G03X21675000Y-9350000I-25000J0D01*
G01*
X21675000Y-9450000D02*
G75*
G03X21675000Y-9450000I-25000J0D01*
G01*
X21675000Y-9550000D02*
G75*
G03X21675000Y-9550000I-25000J0D01*
G01*
X21675000Y-9650000D02*
G75*
G03X21675000Y-9650000I-25000J0D01*
G01*
X21675000Y-9750000D02*
G75*
G03X21675000Y-9750000I-25000J0D01*
G01*
X21675000Y-9850000D02*
G75*
G03X21675000Y-9850000I-25000J0D01*
G01*
X21675000Y-9950000D02*
G75*
G03X21675000Y-9950000I-25000J0D01*
G01*
X21675000Y-10050000D02*
G75*
G03X21675000Y-10050000I-25000J0D01*
G01*
X21675000Y-10150000D02*
G75*
G03X21675000Y-10150000I-25000J0D01*
G01*
X21675000Y-10250000D02*
G75*
G03X21675000Y-10250000I-25000J0D01*
G01*
X21675000Y-10350000D02*
G75*
G03X21675000Y-10350000I-25000J0D01*
G01*
X21675000Y-10450000D02*
G75*
G03X21675000Y-10450000I-25000J0D01*
G01*
X21675000Y-10550000D02*
G75*
G03X21675000Y-10550000I-25000J0D01*
G01*
X21675000Y-10650000D02*
G75*
G03X21675000Y-10650000I-25000J0D01*
G01*
X21775000Y-8250000D02*
G75*
G03X21775000Y-8250000I-25000J0D01*
G01*
X21775000Y-8350000D02*
G75*
G03X21775000Y-8350000I-25000J0D01*
G01*
X21775000Y-8450000D02*
G75*
G03X21775000Y-8450000I-25000J0D01*
G01*
X21775000Y-8550000D02*
G75*
G03X21775000Y-8550000I-25000J0D01*
G01*
X21775000Y-8650000D02*
G75*
G03X21775000Y-8650000I-25000J0D01*
G01*
X21775000Y-8750000D02*
G75*
G03X21775000Y-8750000I-25000J0D01*
G01*
X21775000Y-8850000D02*
G75*
G03X21775000Y-8850000I-25000J0D01*
G01*
X21775000Y-8950000D02*
G75*
G03X21775000Y-8950000I-25000J0D01*
G01*
X21775000Y-9050000D02*
G75*
G03X21775000Y-9050000I-25000J0D01*
G01*
X21775000Y-9150000D02*
G75*
G03X21775000Y-9150000I-25000J0D01*
G01*
X21775000Y-9250000D02*
G75*
G03X21775000Y-9250000I-25000J0D01*
G01*
X21775000Y-9350000D02*
G75*
G03X21775000Y-9350000I-25000J0D01*
G01*
X21775000Y-9450000D02*
G75*
G03X21775000Y-9450000I-25000J0D01*
G01*
X21775000Y-9550000D02*
G75*
G03X21775000Y-9550000I-25000J0D01*
G01*
X21775000Y-9650000D02*
G75*
G03X21775000Y-9650000I-25000J0D01*
G01*
X21775000Y-9750000D02*
G75*
G03X21775000Y-9750000I-25000J0D01*
G01*
X21775000Y-9850000D02*
G75*
G03X21775000Y-9850000I-25000J0D01*
G01*
X21775000Y-9950000D02*
G75*
G03X21775000Y-9950000I-25000J0D01*
G01*
X21775000Y-10050000D02*
G75*
G03X21775000Y-10050000I-25000J0D01*
G01*
X21775000Y-10150000D02*
G75*
G03X21775000Y-10150000I-25000J0D01*
G01*
X21775000Y-10250000D02*
G75*
G03X21775000Y-10250000I-25000J0D01*
G01*
X21775000Y-10350000D02*
G75*
G03X21775000Y-10350000I-25000J0D01*
G01*
X21775000Y-10450000D02*
G75*
G03X21775000Y-10450000I-25000J0D01*
G01*
X21775000Y-10550000D02*
G75*
G03X21775000Y-10550000I-25000J0D01*
G01*
X21775000Y-10650000D02*
G75*
G03X21775000Y-10650000I-25000J0D01*
G01*
X21875000Y-8250000D02*
G75*
G03X21875000Y-8250000I-25000J0D01*
G01*
X21875000Y-8350000D02*
G75*
G03X21875000Y-8350000I-25000J0D01*
G01*
X21875000Y-8450000D02*
G75*
G03X21875000Y-8450000I-25000J0D01*
G01*
X21875000Y-8550000D02*
G75*
G03X21875000Y-8550000I-25000J0D01*
G01*
X21875000Y-8650000D02*
G75*
G03X21875000Y-8650000I-25000J0D01*
G01*
X21875000Y-8750000D02*
G75*
G03X21875000Y-8750000I-25000J0D01*
G01*
X21875000Y-8850000D02*
G75*
G03X21875000Y-8850000I-25000J0D01*
G01*
X21875000Y-8950000D02*
G75*
G03X21875000Y-8950000I-25000J0D01*
G01*
X21875000Y-9050000D02*
G75*
G03X21875000Y-9050000I-25000J0D01*
G01*
X21875000Y-9150000D02*
G75*
G03X21875000Y-9150000I-25000J0D01*
G01*
X21875000Y-9250000D02*
G75*
G03X21875000Y-9250000I-25000J0D01*
G01*
X21875000Y-9350000D02*
G75*
G03X21875000Y-9350000I-25000J0D01*
G01*
X21875000Y-9450000D02*
G75*
G03X21875000Y-9450000I-25000J0D01*
G01*
X21875000Y-9550000D02*
G75*
G03X21875000Y-9550000I-25000J0D01*
G01*
X21875000Y-9650000D02*
G75*
G03X21875000Y-9650000I-25000J0D01*
G01*
X21875000Y-9750000D02*
G75*
G03X21875000Y-9750000I-25000J0D01*
G01*
X21875000Y-9850000D02*
G75*
G03X21875000Y-9850000I-25000J0D01*
G01*
X21875000Y-9950000D02*
G75*
G03X21875000Y-9950000I-25000J0D01*
G01*
X21875000Y-10050000D02*
G75*
G03X21875000Y-10050000I-25000J0D01*
G01*
X21875000Y-10150000D02*
G75*
G03X21875000Y-10150000I-25000J0D01*
G01*
X21875000Y-10250000D02*
G75*
G03X21875000Y-10250000I-25000J0D01*
G01*
X21875000Y-10350000D02*
G75*
G03X21875000Y-10350000I-25000J0D01*
G01*
X21875000Y-10450000D02*
G75*
G03X21875000Y-10450000I-25000J0D01*
G01*
X21875000Y-10550000D02*
G75*
G03X21875000Y-10550000I-25000J0D01*
G01*
X21875000Y-10650000D02*
G75*
G03X21875000Y-10650000I-25000J0D01*
G01*
X21975000Y-8250000D02*
G75*
G03X21975000Y-8250000I-25000J0D01*
G01*
X21975000Y-8350000D02*
G75*
G03X21975000Y-8350000I-25000J0D01*
G01*
X21975000Y-8450000D02*
G75*
G03X21975000Y-8450000I-25000J0D01*
G01*
X21975000Y-8550000D02*
G75*
G03X21975000Y-8550000I-25000J0D01*
G01*
X21975000Y-8650000D02*
G75*
G03X21975000Y-8650000I-25000J0D01*
G01*
X21975000Y-8750000D02*
G75*
G03X21975000Y-8750000I-25000J0D01*
G01*
X21975000Y-8850000D02*
G75*
G03X21975000Y-8850000I-25000J0D01*
G01*
X21975000Y-8950000D02*
G75*
G03X21975000Y-8950000I-25000J0D01*
G01*
X21975000Y-9050000D02*
G75*
G03X21975000Y-9050000I-25000J0D01*
G01*
X21975000Y-9150000D02*
G75*
G03X21975000Y-9150000I-25000J0D01*
G01*
X21975000Y-9250000D02*
G75*
G03X21975000Y-9250000I-25000J0D01*
G01*
X21975000Y-9350000D02*
G75*
G03X21975000Y-9350000I-25000J0D01*
G01*
X21975000Y-9450000D02*
G75*
G03X21975000Y-9450000I-25000J0D01*
G01*
X21975000Y-9550000D02*
G75*
G03X21975000Y-9550000I-25000J0D01*
G01*
X21975000Y-9650000D02*
G75*
G03X21975000Y-9650000I-25000J0D01*
G01*
X21975000Y-9750000D02*
G75*
G03X21975000Y-9750000I-25000J0D01*
G01*
X21975000Y-9850000D02*
G75*
G03X21975000Y-9850000I-25000J0D01*
G01*
X21975000Y-9950000D02*
G75*
G03X21975000Y-9950000I-25000J0D01*
G01*
X21975000Y-10050000D02*
G75*
G03X21975000Y-10050000I-25000J0D01*
G01*
X21975000Y-10150000D02*
G75*
G03X21975000Y-10150000I-25000J0D01*
G01*
X21975000Y-10250000D02*
G75*
G03X21975000Y-10250000I-25000J0D01*
G01*
X21975000Y-10350000D02*
G75*
G03X21975000Y-10350000I-25000J0D01*
G01*
X21975000Y-10450000D02*
G75*
G03X21975000Y-10450000I-25000J0D01*
G01*
X21975000Y-10550000D02*
G75*
G03X21975000Y-10550000I-25000J0D01*
G01*
X21975000Y-10650000D02*
G75*
G03X21975000Y-10650000I-25000J0D01*
G01*
X22075000Y-8250000D02*
G75*
G03X22075000Y-8250000I-25000J0D01*
G01*
X22075000Y-8350000D02*
G75*
G03X22075000Y-8350000I-25000J0D01*
G01*
X22075000Y-8450000D02*
G75*
G03X22075000Y-8450000I-25000J0D01*
G01*
X22075000Y-8550000D02*
G75*
G03X22075000Y-8550000I-25000J0D01*
G01*
X22075000Y-8650000D02*
G75*
G03X22075000Y-8650000I-25000J0D01*
G01*
X22075000Y-8750000D02*
G75*
G03X22075000Y-8750000I-25000J0D01*
G01*
X22075000Y-8850000D02*
G75*
G03X22075000Y-8850000I-25000J0D01*
G01*
X22075000Y-8950000D02*
G75*
G03X22075000Y-8950000I-25000J0D01*
G01*
X22075000Y-9050000D02*
G75*
G03X22075000Y-9050000I-25000J0D01*
G01*
X22075000Y-9150000D02*
G75*
G03X22075000Y-9150000I-25000J0D01*
G01*
X22075000Y-9250000D02*
G75*
G03X22075000Y-9250000I-25000J0D01*
G01*
X22075000Y-9350000D02*
G75*
G03X22075000Y-9350000I-25000J0D01*
G01*
X22075000Y-9450000D02*
G75*
G03X22075000Y-9450000I-25000J0D01*
G01*
X22075000Y-9550000D02*
G75*
G03X22075000Y-9550000I-25000J0D01*
G01*
X22075000Y-9650000D02*
G75*
G03X22075000Y-9650000I-25000J0D01*
G01*
X22075000Y-9750000D02*
G75*
G03X22075000Y-9750000I-25000J0D01*
G01*
X22075000Y-9850000D02*
G75*
G03X22075000Y-9850000I-25000J0D01*
G01*
X22075000Y-9950000D02*
G75*
G03X22075000Y-9950000I-25000J0D01*
G01*
X22075000Y-10050000D02*
G75*
G03X22075000Y-10050000I-25000J0D01*
G01*
X22075000Y-10150000D02*
G75*
G03X22075000Y-10150000I-25000J0D01*
G01*
X22075000Y-10250000D02*
G75*
G03X22075000Y-10250000I-25000J0D01*
G01*
X22075000Y-10350000D02*
G75*
G03X22075000Y-10350000I-25000J0D01*
G01*
X22075000Y-10450000D02*
G75*
G03X22075000Y-10450000I-25000J0D01*
G01*
X22075000Y-10550000D02*
G75*
G03X22075000Y-10550000I-25000J0D01*
G01*
X22075000Y-10650000D02*
G75*
G03X22075000Y-10650000I-25000J0D01*
G01*
X22175000Y-8250000D02*
G75*
G03X22175000Y-8250000I-25000J0D01*
G01*
X22175000Y-8350000D02*
G75*
G03X22175000Y-8350000I-25000J0D01*
G01*
X22175000Y-8450000D02*
G75*
G03X22175000Y-8450000I-25000J0D01*
G01*
X22175000Y-8550000D02*
G75*
G03X22175000Y-8550000I-25000J0D01*
G01*
X22175000Y-8650000D02*
G75*
G03X22175000Y-8650000I-25000J0D01*
G01*
X22175000Y-8750000D02*
G75*
G03X22175000Y-8750000I-25000J0D01*
G01*
X22175000Y-8850000D02*
G75*
G03X22175000Y-8850000I-25000J0D01*
G01*
X22175000Y-8950000D02*
G75*
G03X22175000Y-8950000I-25000J0D01*
G01*
X22175000Y-9050000D02*
G75*
G03X22175000Y-9050000I-25000J0D01*
G01*
X22175000Y-9150000D02*
G75*
G03X22175000Y-9150000I-25000J0D01*
G01*
X22175000Y-9250000D02*
G75*
G03X22175000Y-9250000I-25000J0D01*
G01*
X22175000Y-9350000D02*
G75*
G03X22175000Y-9350000I-25000J0D01*
G01*
X22175000Y-9450000D02*
G75*
G03X22175000Y-9450000I-25000J0D01*
G01*
X22175000Y-9550000D02*
G75*
G03X22175000Y-9550000I-25000J0D01*
G01*
X22175000Y-9650000D02*
G75*
G03X22175000Y-9650000I-25000J0D01*
G01*
X22175000Y-9750000D02*
G75*
G03X22175000Y-9750000I-25000J0D01*
G01*
X22175000Y-9850000D02*
G75*
G03X22175000Y-9850000I-25000J0D01*
G01*
X22175000Y-9950000D02*
G75*
G03X22175000Y-9950000I-25000J0D01*
G01*
X22175000Y-10050000D02*
G75*
G03X22175000Y-10050000I-25000J0D01*
G01*
X22175000Y-10150000D02*
G75*
G03X22175000Y-10150000I-25000J0D01*
G01*
X22175000Y-10250000D02*
G75*
G03X22175000Y-10250000I-25000J0D01*
G01*
X22175000Y-10350000D02*
G75*
G03X22175000Y-10350000I-25000J0D01*
G01*
X22175000Y-10450000D02*
G75*
G03X22175000Y-10450000I-25000J0D01*
G01*
X22175000Y-10550000D02*
G75*
G03X22175000Y-10550000I-25000J0D01*
G01*
X22175000Y-10650000D02*
G75*
G03X22175000Y-10650000I-25000J0D01*
G01*
X22275000Y-8250000D02*
G75*
G03X22275000Y-8250000I-25000J0D01*
G01*
X22275000Y-8350000D02*
G75*
G03X22275000Y-8350000I-25000J0D01*
G01*
X22275000Y-8450000D02*
G75*
G03X22275000Y-8450000I-25000J0D01*
G01*
X22275000Y-8550000D02*
G75*
G03X22275000Y-8550000I-25000J0D01*
G01*
X22275000Y-8650000D02*
G75*
G03X22275000Y-8650000I-25000J0D01*
G01*
X22275000Y-8750000D02*
G75*
G03X22275000Y-8750000I-25000J0D01*
G01*
X22275000Y-8850000D02*
G75*
G03X22275000Y-8850000I-25000J0D01*
G01*
X22275000Y-8950000D02*
G75*
G03X22275000Y-8950000I-25000J0D01*
G01*
X22275000Y-9050000D02*
G75*
G03X22275000Y-9050000I-25000J0D01*
G01*
X22275000Y-9150000D02*
G75*
G03X22275000Y-9150000I-25000J0D01*
G01*
X22275000Y-9250000D02*
G75*
G03X22275000Y-9250000I-25000J0D01*
G01*
X22275000Y-9350000D02*
G75*
G03X22275000Y-9350000I-25000J0D01*
G01*
X22275000Y-9450000D02*
G75*
G03X22275000Y-9450000I-25000J0D01*
G01*
X22275000Y-9550000D02*
G75*
G03X22275000Y-9550000I-25000J0D01*
G01*
X22275000Y-9650000D02*
G75*
G03X22275000Y-9650000I-25000J0D01*
G01*
X22275000Y-9750000D02*
G75*
G03X22275000Y-9750000I-25000J0D01*
G01*
X22275000Y-9850000D02*
G75*
G03X22275000Y-9850000I-25000J0D01*
G01*
X22275000Y-9950000D02*
G75*
G03X22275000Y-9950000I-25000J0D01*
G01*
X22275000Y-10050000D02*
G75*
G03X22275000Y-10050000I-25000J0D01*
G01*
X22275000Y-10150000D02*
G75*
G03X22275000Y-10150000I-25000J0D01*
G01*
X22275000Y-10250000D02*
G75*
G03X22275000Y-10250000I-25000J0D01*
G01*
X22275000Y-10350000D02*
G75*
G03X22275000Y-10350000I-25000J0D01*
G01*
X22275000Y-10450000D02*
G75*
G03X22275000Y-10450000I-25000J0D01*
G01*
X22275000Y-10550000D02*
G75*
G03X22275000Y-10550000I-25000J0D01*
G01*
X22275000Y-10650000D02*
G75*
G03X22275000Y-10650000I-25000J0D01*
G01*
X22375000Y-8250000D02*
G75*
G03X22375000Y-8250000I-25000J0D01*
G01*
X22375000Y-8350000D02*
G75*
G03X22375000Y-8350000I-25000J0D01*
G01*
X22375000Y-8450000D02*
G75*
G03X22375000Y-8450000I-25000J0D01*
G01*
X22375000Y-8550000D02*
G75*
G03X22375000Y-8550000I-25000J0D01*
G01*
X22375000Y-8650000D02*
G75*
G03X22375000Y-8650000I-25000J0D01*
G01*
X22375000Y-8750000D02*
G75*
G03X22375000Y-8750000I-25000J0D01*
G01*
X22375000Y-8850000D02*
G75*
G03X22375000Y-8850000I-25000J0D01*
G01*
X22375000Y-8950000D02*
G75*
G03X22375000Y-8950000I-25000J0D01*
G01*
X22375000Y-9050000D02*
G75*
G03X22375000Y-9050000I-25000J0D01*
G01*
X22375000Y-9150000D02*
G75*
G03X22375000Y-9150000I-25000J0D01*
G01*
X22375000Y-9250000D02*
G75*
G03X22375000Y-9250000I-25000J0D01*
G01*
X22375000Y-9350000D02*
G75*
G03X22375000Y-9350000I-25000J0D01*
G01*
X22375000Y-9450000D02*
G75*
G03X22375000Y-9450000I-25000J0D01*
G01*
X22375000Y-9550000D02*
G75*
G03X22375000Y-9550000I-25000J0D01*
G01*
X22375000Y-9650000D02*
G75*
G03X22375000Y-9650000I-25000J0D01*
G01*
X22375000Y-9750000D02*
G75*
G03X22375000Y-9750000I-25000J0D01*
G01*
X22375000Y-9850000D02*
G75*
G03X22375000Y-9850000I-25000J0D01*
G01*
X22375000Y-9950000D02*
G75*
G03X22375000Y-9950000I-25000J0D01*
G01*
X22375000Y-10050000D02*
G75*
G03X22375000Y-10050000I-25000J0D01*
G01*
X22375000Y-10150000D02*
G75*
G03X22375000Y-10150000I-25000J0D01*
G01*
X22375000Y-10250000D02*
G75*
G03X22375000Y-10250000I-25000J0D01*
G01*
X22375000Y-10350000D02*
G75*
G03X22375000Y-10350000I-25000J0D01*
G01*
X22375000Y-10450000D02*
G75*
G03X22375000Y-10450000I-25000J0D01*
G01*
X22375000Y-10550000D02*
G75*
G03X22375000Y-10550000I-25000J0D01*
G01*
X22375000Y-10650000D02*
G75*
G03X22375000Y-10650000I-25000J0D01*
G01*
X18258000Y-10900000D02*
X18258000Y-11100000D01*
X18158000Y-11000000D02*
X18358000Y-11000000D01*
X18258000Y-11400000D02*
X18258000Y-11600000D01*
X18158000Y-11500000D02*
X18358000Y-11500000D01*
X18258000Y-11900000D02*
X18258000Y-12100000D01*
X18158000Y-12000000D02*
X18358000Y-12000000D01*
X18959000Y-10900000D02*
X18959000Y-11100000D01*
X18859000Y-11000000D02*
X19059000Y-11000000D01*
X18959000Y-11400000D02*
X18959000Y-11600000D01*
X18859000Y-11500000D02*
X19059000Y-11500000D01*
X18959000Y-11900000D02*
X18959000Y-12100000D01*
X18859000Y-12000000D02*
X19059000Y-12000000D01*
X19358000Y-10900000D02*
X19358000Y-11100000D01*
X19258000Y-11000000D02*
X19458000Y-11000000D01*
X19358000Y-11400000D02*
X19358000Y-11600000D01*
X19258000Y-11500000D02*
X19458000Y-11500000D01*
X19358000Y-11900000D02*
X19358000Y-12100000D01*
X19258000Y-12000000D02*
X19458000Y-12000000D01*
X20059000Y-10900000D02*
X20059000Y-11100000D01*
X19959000Y-11000000D02*
X20159000Y-11000000D01*
X20059000Y-11400000D02*
X20059000Y-11600000D01*
X19959000Y-11500000D02*
X20159000Y-11500000D01*
X20059000Y-11900000D02*
X20059000Y-12100000D01*
X19959000Y-12000000D02*
X20159000Y-12000000D01*
X20458000Y-10900000D02*
X20458000Y-11100000D01*
X20358000Y-11000000D02*
X20558000Y-11000000D01*
X20458000Y-11400000D02*
X20458000Y-11600000D01*
X20358000Y-11500000D02*
X20558000Y-11500000D01*
X20458000Y-11900000D02*
X20458000Y-12100000D01*
X20358000Y-12000000D02*
X20558000Y-12000000D01*
X21159000Y-10900000D02*
X21159000Y-11100000D01*
X21059000Y-11000000D02*
X21259000Y-11000000D01*
X21159000Y-11400000D02*
X21159000Y-11600000D01*
X21059000Y-11500000D02*
X21259000Y-11500000D01*
X21159000Y-11900000D02*
X21159000Y-12100000D01*
X21059000Y-12000000D02*
X21259000Y-12000000D01*
X21558000Y-10900000D02*
X21558000Y-11100000D01*
X21458000Y-11000000D02*
X21658000Y-11000000D01*
X21558000Y-11400000D02*
X21558000Y-11600000D01*
X21458000Y-11500000D02*
X21658000Y-11500000D01*
X21558000Y-11900000D02*
X21558000Y-12100000D01*
X21458000Y-12000000D02*
X21658000Y-12000000D01*
X22259000Y-10900000D02*
X22259000Y-11100000D01*
X22159000Y-11000000D02*
X22359000Y-11000000D01*
X22259000Y-11400000D02*
X22259000Y-11600000D01*
X22159000Y-11500000D02*
X22359000Y-11500000D01*
X22259000Y-11900000D02*
X22259000Y-12100000D01*
X22159000Y-12000000D02*
X22359000Y-12000000D01*
D13*
X18113929Y-12923214D02*
X18113929Y-12623214D01*
X18185357Y-12623214D01*
X18228214Y-12637500D01*
X18256786Y-12666071D01*
X18271071Y-12694643D01*
X18285357Y-12751786D01*
X18285357Y-12794643D01*
X18271071Y-12851786D01*
X18256786Y-12880357D01*
X18228214Y-12908929D01*
X18185357Y-12923214D01*
X18113929Y-12923214D01*
X18413929Y-12923214D02*
X18413929Y-12723214D01*
X18413929Y-12780357D02*
X18428214Y-12751786D01*
X18442500Y-12737500D01*
X18471071Y-12723214D01*
X18499643Y-12723214D01*
X18599643Y-12923214D02*
X18599643Y-12723214D01*
X18599643Y-12623214D02*
X18585357Y-12637500D01*
X18599643Y-12651786D01*
X18613929Y-12637500D01*
X18599643Y-12623214D01*
X18599643Y-12651786D01*
X18785357Y-12923214D02*
X18756786Y-12908929D01*
X18742500Y-12880357D01*
X18742500Y-12623214D01*
X18942500Y-12923214D02*
X18913929Y-12908929D01*
X18899643Y-12880357D01*
X18899643Y-12623214D01*
X19285357Y-12923214D02*
X19285357Y-12623214D01*
X19385357Y-12837500D01*
X19485357Y-12623214D01*
X19485357Y-12923214D01*
X19756786Y-12923214D02*
X19756786Y-12766071D01*
X19742500Y-12737500D01*
X19713929Y-12723214D01*
X19656786Y-12723214D01*
X19628214Y-12737500D01*
X19756786Y-12908929D02*
X19728214Y-12923214D01*
X19656786Y-12923214D01*
X19628214Y-12908929D01*
X19613929Y-12880357D01*
X19613929Y-12851786D01*
X19628214Y-12823214D01*
X19656786Y-12808929D01*
X19728214Y-12808929D01*
X19756786Y-12794643D01*
X19899643Y-12723214D02*
X19899643Y-13023214D01*
X19899643Y-12737500D02*
X19928214Y-12723214D01*
X19985357Y-12723214D01*
X20013929Y-12737500D01*
X20028214Y-12751786D01*
X20042500Y-12780357D01*
X20042500Y-12866071D01*
X20028214Y-12894643D01*
X20013929Y-12908929D01*
X19985357Y-12923214D01*
X19928214Y-12923214D01*
X19899643Y-12908929D01*
X20171071Y-12894643D02*
X20185357Y-12908929D01*
X20171071Y-12923214D01*
X20156786Y-12908929D01*
X20171071Y-12894643D01*
X20171071Y-12923214D01*
X20171071Y-12737500D02*
X20185357Y-12751786D01*
X20171071Y-12766071D01*
X20156786Y-12751786D01*
X20171071Y-12737500D01*
X20171071Y-12766071D01*
X17802500Y-13397500D02*
X17842500Y-13437500D01*
X17842500Y-13397500D02*
X17802500Y-13437500D01*
X18171071Y-13253214D02*
X18199643Y-13253214D01*
X18228214Y-13267500D01*
X18242500Y-13281786D01*
X18256786Y-13310357D01*
X18271071Y-13367500D01*
X18271071Y-13438929D01*
X18256786Y-13496071D01*
X18242500Y-13524643D01*
X18228214Y-13538929D01*
X18199643Y-13553214D01*
X18171071Y-13553214D01*
X18142500Y-13538929D01*
X18128214Y-13524643D01*
X18113929Y-13496071D01*
X18099643Y-13438929D01*
X18099643Y-13367500D01*
X18113929Y-13310357D01*
X18128214Y-13281786D01*
X18142500Y-13267500D01*
X18171071Y-13253214D01*
X18399643Y-13524643D02*
X18413929Y-13538929D01*
X18399643Y-13553214D01*
X18385357Y-13538929D01*
X18399643Y-13524643D01*
X18399643Y-13553214D01*
X18671071Y-13353214D02*
X18671071Y-13553214D01*
X18599643Y-13238929D02*
X18528214Y-13453214D01*
X18713928Y-13453214D01*
X18885357Y-13253214D02*
X18913929Y-13253214D01*
X18942500Y-13267500D01*
X18956786Y-13281786D01*
X18971071Y-13310357D01*
X18985357Y-13367500D01*
X18985357Y-13438929D01*
X18971071Y-13496071D01*
X18956786Y-13524643D01*
X18942500Y-13538929D01*
X18913929Y-13553214D01*
X18885357Y-13553214D01*
X18856786Y-13538929D01*
X18842500Y-13524643D01*
X18828214Y-13496071D01*
X18813929Y-13438929D01*
X18813929Y-13367500D01*
X18828214Y-13310357D01*
X18842500Y-13281786D01*
X18856786Y-13267500D01*
X18885357Y-13253214D01*
X19113929Y-13553214D02*
X19113929Y-13353214D01*
X19113929Y-13381786D02*
X19128214Y-13367500D01*
X19156786Y-13353214D01*
X19199643Y-13353214D01*
X19228214Y-13367500D01*
X19242500Y-13396071D01*
X19242500Y-13553214D01*
X19242500Y-13396071D02*
X19256786Y-13367500D01*
X19285357Y-13353214D01*
X19328214Y-13353214D01*
X19356786Y-13367500D01*
X19371071Y-13396071D01*
X19371071Y-13553214D01*
X19513929Y-13553214D02*
X19513929Y-13353214D01*
X19513929Y-13381786D02*
X19528214Y-13367500D01*
X19556786Y-13353214D01*
X19599643Y-13353214D01*
X19628214Y-13367500D01*
X19642500Y-13396071D01*
X19642500Y-13553214D01*
X19642500Y-13396071D02*
X19656786Y-13367500D01*
X19685357Y-13353214D01*
X19728214Y-13353214D01*
X19756786Y-13367500D01*
X19771071Y-13396071D01*
X19771071Y-13553214D01*
X20356786Y-13238929D02*
X20099643Y-13624643D01*
X20742500Y-13253214D02*
X20771071Y-13253214D01*
X20799643Y-13267500D01*
X20813928Y-13281786D01*
X20828214Y-13310357D01*
X20842500Y-13367500D01*
X20842500Y-13438929D01*
X20828214Y-13496071D01*
X20813928Y-13524643D01*
X20799643Y-13538929D01*
X20771071Y-13553214D01*
X20742500Y-13553214D01*
X20713928Y-13538929D01*
X20699643Y-13524643D01*
X20685357Y-13496071D01*
X20671071Y-13438929D01*
X20671071Y-13367500D01*
X20685357Y-13310357D01*
X20699643Y-13281786D01*
X20713928Y-13267500D01*
X20742500Y-13253214D01*
X20971071Y-13524643D02*
X20985357Y-13538929D01*
X20971071Y-13553214D01*
X20956786Y-13538929D01*
X20971071Y-13524643D01*
X20971071Y-13553214D01*
X21171071Y-13253214D02*
X21199643Y-13253214D01*
X21228214Y-13267500D01*
X21242500Y-13281786D01*
X21256786Y-13310357D01*
X21271071Y-13367500D01*
X21271071Y-13438929D01*
X21256786Y-13496071D01*
X21242500Y-13524643D01*
X21228214Y-13538929D01*
X21199643Y-13553214D01*
X21171071Y-13553214D01*
X21142500Y-13538929D01*
X21128214Y-13524643D01*
X21113928Y-13496071D01*
X21099643Y-13438929D01*
X21099643Y-13367500D01*
X21113928Y-13310357D01*
X21128214Y-13281786D01*
X21142500Y-13267500D01*
X21171071Y-13253214D01*
X21556786Y-13553214D02*
X21385357Y-13553214D01*
X21471071Y-13553214D02*
X21471071Y-13253214D01*
X21442500Y-13296071D01*
X21413928Y-13324643D01*
X21385357Y-13338929D01*
X21813928Y-13253214D02*
X21756786Y-13253214D01*
X21728214Y-13267500D01*
X21713928Y-13281786D01*
X21685357Y-13324643D01*
X21671071Y-13381786D01*
X21671071Y-13496071D01*
X21685357Y-13524643D01*
X21699643Y-13538929D01*
X21728214Y-13553214D01*
X21785357Y-13553214D01*
X21813928Y-13538929D01*
X21828214Y-13524643D01*
X21842500Y-13496071D01*
X21842500Y-13424643D01*
X21828214Y-13396071D01*
X21813928Y-13381786D01*
X21785357Y-13367500D01*
X21728214Y-13367500D01*
X21699643Y-13381786D01*
X21685357Y-13396071D01*
X21671071Y-13424643D01*
X21956786Y-13253214D02*
X21956786Y-13310357D01*
X22071071Y-13253214D02*
X22071071Y-13310357D01*
X22513928Y-13667500D02*
X22499643Y-13653214D01*
X22471071Y-13610357D01*
X22456785Y-13581786D01*
X22442500Y-13538929D01*
X22428214Y-13467500D01*
X22428214Y-13410357D01*
X22442500Y-13338929D01*
X22456785Y-13296071D01*
X22471071Y-13267500D01*
X22499643Y-13224643D01*
X22513928Y-13210357D01*
X22599643Y-13253214D02*
X22799643Y-13253214D01*
X22671071Y-13553214D01*
X23142500Y-13553214D02*
X23142500Y-13253214D01*
X23271071Y-13553214D02*
X23271071Y-13396071D01*
X23256785Y-13367500D01*
X23228214Y-13353214D01*
X23185357Y-13353214D01*
X23156785Y-13367500D01*
X23142500Y-13381786D01*
X23456785Y-13553214D02*
X23428214Y-13538929D01*
X23413928Y-13524643D01*
X23399643Y-13496071D01*
X23399643Y-13410357D01*
X23413928Y-13381786D01*
X23428214Y-13367500D01*
X23456785Y-13353214D01*
X23499643Y-13353214D01*
X23528214Y-13367500D01*
X23542500Y-13381786D01*
X23556785Y-13410357D01*
X23556785Y-13496071D01*
X23542500Y-13524643D01*
X23528214Y-13538929D01*
X23499643Y-13553214D01*
X23456785Y-13553214D01*
X23728214Y-13553214D02*
X23699643Y-13538929D01*
X23685357Y-13510357D01*
X23685357Y-13253214D01*
X23956786Y-13538929D02*
X23928214Y-13553214D01*
X23871071Y-13553214D01*
X23842500Y-13538929D01*
X23828214Y-13510357D01*
X23828214Y-13396071D01*
X23842500Y-13367500D01*
X23871071Y-13353214D01*
X23928214Y-13353214D01*
X23956786Y-13367500D01*
X23971071Y-13396071D01*
X23971071Y-13424643D01*
X23828214Y-13453214D01*
X24085357Y-13538929D02*
X24113928Y-13553214D01*
X24171071Y-13553214D01*
X24199643Y-13538929D01*
X24213928Y-13510357D01*
X24213928Y-13496071D01*
X24199643Y-13467500D01*
X24171071Y-13453214D01*
X24128214Y-13453214D01*
X24099643Y-13438929D01*
X24085357Y-13410357D01*
X24085357Y-13396071D01*
X24099643Y-13367500D01*
X24128214Y-13353214D01*
X24171071Y-13353214D01*
X24199643Y-13367500D01*
X24313928Y-13667500D02*
X24328214Y-13653214D01*
X24356786Y-13610357D01*
X24371071Y-13581786D01*
X24385357Y-13538929D01*
X24399643Y-13467500D01*
X24399643Y-13410357D01*
X24385357Y-13338929D01*
X24371071Y-13296071D01*
X24356786Y-13267500D01*
X24328214Y-13224643D01*
X24313928Y-13210357D01*
X17842500Y-13813500D02*
G75*
G03X17842500Y-13813500I-25000J0D01*
G01*
X18171071Y-13649214D02*
X18199643Y-13649214D01*
X18228214Y-13663500D01*
X18242500Y-13677786D01*
X18256786Y-13706357D01*
X18271071Y-13763500D01*
X18271071Y-13834929D01*
X18256786Y-13892071D01*
X18242500Y-13920643D01*
X18228214Y-13934929D01*
X18199643Y-13949214D01*
X18171071Y-13949214D01*
X18142500Y-13934929D01*
X18128214Y-13920643D01*
X18113929Y-13892071D01*
X18099643Y-13834929D01*
X18099643Y-13763500D01*
X18113929Y-13706357D01*
X18128214Y-13677786D01*
X18142500Y-13663500D01*
X18171071Y-13649214D01*
X18399643Y-13920643D02*
X18413929Y-13934929D01*
X18399643Y-13949214D01*
X18385357Y-13934929D01*
X18399643Y-13920643D01*
X18399643Y-13949214D01*
X18685357Y-13649214D02*
X18542500Y-13649214D01*
X18528214Y-13792071D01*
X18542500Y-13777786D01*
X18571071Y-13763500D01*
X18642500Y-13763500D01*
X18671071Y-13777786D01*
X18685357Y-13792071D01*
X18699643Y-13820643D01*
X18699643Y-13892071D01*
X18685357Y-13920643D01*
X18671071Y-13934929D01*
X18642500Y-13949214D01*
X18571071Y-13949214D01*
X18542500Y-13934929D01*
X18528214Y-13920643D01*
X18885357Y-13649214D02*
X18913929Y-13649214D01*
X18942500Y-13663500D01*
X18956786Y-13677786D01*
X18971071Y-13706357D01*
X18985357Y-13763500D01*
X18985357Y-13834929D01*
X18971071Y-13892071D01*
X18956786Y-13920643D01*
X18942500Y-13934929D01*
X18913929Y-13949214D01*
X18885357Y-13949214D01*
X18856786Y-13934929D01*
X18842500Y-13920643D01*
X18828214Y-13892071D01*
X18813929Y-13834929D01*
X18813929Y-13763500D01*
X18828214Y-13706357D01*
X18842500Y-13677786D01*
X18856786Y-13663500D01*
X18885357Y-13649214D01*
X19113929Y-13949214D02*
X19113929Y-13749214D01*
X19113929Y-13777786D02*
X19128214Y-13763500D01*
X19156786Y-13749214D01*
X19199643Y-13749214D01*
X19228214Y-13763500D01*
X19242500Y-13792071D01*
X19242500Y-13949214D01*
X19242500Y-13792071D02*
X19256786Y-13763500D01*
X19285357Y-13749214D01*
X19328214Y-13749214D01*
X19356786Y-13763500D01*
X19371071Y-13792071D01*
X19371071Y-13949214D01*
X19513929Y-13949214D02*
X19513929Y-13749214D01*
X19513929Y-13777786D02*
X19528214Y-13763500D01*
X19556786Y-13749214D01*
X19599643Y-13749214D01*
X19628214Y-13763500D01*
X19642500Y-13792071D01*
X19642500Y-13949214D01*
X19642500Y-13792071D02*
X19656786Y-13763500D01*
X19685357Y-13749214D01*
X19728214Y-13749214D01*
X19756786Y-13763500D01*
X19771071Y-13792071D01*
X19771071Y-13949214D01*
X20356786Y-13634929D02*
X20099643Y-14020643D01*
X20742500Y-13649214D02*
X20771071Y-13649214D01*
X20799643Y-13663500D01*
X20813928Y-13677786D01*
X20828214Y-13706357D01*
X20842500Y-13763500D01*
X20842500Y-13834929D01*
X20828214Y-13892071D01*
X20813928Y-13920643D01*
X20799643Y-13934929D01*
X20771071Y-13949214D01*
X20742500Y-13949214D01*
X20713928Y-13934929D01*
X20699643Y-13920643D01*
X20685357Y-13892071D01*
X20671071Y-13834929D01*
X20671071Y-13763500D01*
X20685357Y-13706357D01*
X20699643Y-13677786D01*
X20713928Y-13663500D01*
X20742500Y-13649214D01*
X20971071Y-13920643D02*
X20985357Y-13934929D01*
X20971071Y-13949214D01*
X20956786Y-13934929D01*
X20971071Y-13920643D01*
X20971071Y-13949214D01*
X21171071Y-13649214D02*
X21199643Y-13649214D01*
X21228214Y-13663500D01*
X21242500Y-13677786D01*
X21256786Y-13706357D01*
X21271071Y-13763500D01*
X21271071Y-13834929D01*
X21256786Y-13892071D01*
X21242500Y-13920643D01*
X21228214Y-13934929D01*
X21199643Y-13949214D01*
X21171071Y-13949214D01*
X21142500Y-13934929D01*
X21128214Y-13920643D01*
X21113928Y-13892071D01*
X21099643Y-13834929D01*
X21099643Y-13763500D01*
X21113928Y-13706357D01*
X21128214Y-13677786D01*
X21142500Y-13663500D01*
X21171071Y-13649214D01*
X21385357Y-13677786D02*
X21399643Y-13663500D01*
X21428214Y-13649214D01*
X21499643Y-13649214D01*
X21528214Y-13663500D01*
X21542500Y-13677786D01*
X21556786Y-13706357D01*
X21556786Y-13734929D01*
X21542500Y-13777786D01*
X21371071Y-13949214D01*
X21556786Y-13949214D01*
X21742500Y-13649214D02*
X21771071Y-13649214D01*
X21799643Y-13663500D01*
X21813928Y-13677786D01*
X21828214Y-13706357D01*
X21842500Y-13763500D01*
X21842500Y-13834929D01*
X21828214Y-13892071D01*
X21813928Y-13920643D01*
X21799643Y-13934929D01*
X21771071Y-13949214D01*
X21742500Y-13949214D01*
X21713928Y-13934929D01*
X21699643Y-13920643D01*
X21685357Y-13892071D01*
X21671071Y-13834929D01*
X21671071Y-13763500D01*
X21685357Y-13706357D01*
X21699643Y-13677786D01*
X21713928Y-13663500D01*
X21742500Y-13649214D01*
X21956786Y-13649214D02*
X21956786Y-13706357D01*
X22071071Y-13649214D02*
X22071071Y-13706357D01*
X22513928Y-14063500D02*
X22499643Y-14049214D01*
X22471071Y-14006357D01*
X22456785Y-13977786D01*
X22442500Y-13934929D01*
X22428214Y-13863500D01*
X22428214Y-13806357D01*
X22442500Y-13734929D01*
X22456785Y-13692071D01*
X22471071Y-13663500D01*
X22499643Y-13620643D01*
X22513928Y-13606357D01*
X22756785Y-13649214D02*
X22699643Y-13649214D01*
X22671071Y-13663500D01*
X22656785Y-13677786D01*
X22628214Y-13720643D01*
X22613928Y-13777786D01*
X22613928Y-13892071D01*
X22628214Y-13920643D01*
X22642500Y-13934929D01*
X22671071Y-13949214D01*
X22728214Y-13949214D01*
X22756785Y-13934929D01*
X22771071Y-13920643D01*
X22785357Y-13892071D01*
X22785357Y-13820643D01*
X22771071Y-13792071D01*
X22756785Y-13777786D01*
X22728214Y-13763500D01*
X22671071Y-13763500D01*
X22642500Y-13777786D01*
X22628214Y-13792071D01*
X22613928Y-13820643D01*
X22899643Y-13677786D02*
X22913928Y-13663500D01*
X22942500Y-13649214D01*
X23013928Y-13649214D01*
X23042500Y-13663500D01*
X23056785Y-13677786D01*
X23071071Y-13706357D01*
X23071071Y-13734929D01*
X23056785Y-13777786D01*
X22885357Y-13949214D01*
X23071071Y-13949214D01*
X23342500Y-13649214D02*
X23199643Y-13649214D01*
X23185357Y-13792071D01*
X23199643Y-13777786D01*
X23228214Y-13763500D01*
X23299643Y-13763500D01*
X23328214Y-13777786D01*
X23342500Y-13792071D01*
X23356785Y-13820643D01*
X23356785Y-13892071D01*
X23342500Y-13920643D01*
X23328214Y-13934929D01*
X23299643Y-13949214D01*
X23228214Y-13949214D01*
X23199643Y-13934929D01*
X23185357Y-13920643D01*
X23713928Y-13949214D02*
X23713928Y-13649214D01*
X23842500Y-13949214D02*
X23842500Y-13792071D01*
X23828214Y-13763500D01*
X23799643Y-13749214D01*
X23756785Y-13749214D01*
X23728214Y-13763500D01*
X23713928Y-13777786D01*
X24028214Y-13949214D02*
X23999643Y-13934929D01*
X23985357Y-13920643D01*
X23971071Y-13892071D01*
X23971071Y-13806357D01*
X23985357Y-13777786D01*
X23999643Y-13763500D01*
X24028214Y-13749214D01*
X24071071Y-13749214D01*
X24099643Y-13763500D01*
X24113928Y-13777786D01*
X24128214Y-13806357D01*
X24128214Y-13892071D01*
X24113928Y-13920643D01*
X24099643Y-13934929D01*
X24071071Y-13949214D01*
X24028214Y-13949214D01*
X24299643Y-13949214D02*
X24271071Y-13934929D01*
X24256786Y-13906357D01*
X24256786Y-13649214D01*
X24528214Y-13934929D02*
X24499643Y-13949214D01*
X24442500Y-13949214D01*
X24413928Y-13934929D01*
X24399643Y-13906357D01*
X24399643Y-13792071D01*
X24413928Y-13763500D01*
X24442500Y-13749214D01*
X24499643Y-13749214D01*
X24528214Y-13763500D01*
X24542500Y-13792071D01*
X24542500Y-13820643D01*
X24399643Y-13849214D01*
X24656786Y-13934929D02*
X24685357Y-13949214D01*
X24742500Y-13949214D01*
X24771071Y-13934929D01*
X24785357Y-13906357D01*
X24785357Y-13892071D01*
X24771071Y-13863500D01*
X24742500Y-13849214D01*
X24699643Y-13849214D01*
X24671071Y-13834929D01*
X24656786Y-13806357D01*
X24656786Y-13792071D01*
X24671071Y-13763500D01*
X24699643Y-13749214D01*
X24742500Y-13749214D01*
X24771071Y-13763500D01*
X24885357Y-14063500D02*
X24899643Y-14049214D01*
X24928214Y-14006357D01*
X24942500Y-13977786D01*
X24956786Y-13934929D01*
X24971071Y-13863500D01*
X24971071Y-13806357D01*
X24956786Y-13734929D01*
X24942500Y-13692071D01*
X24928214Y-13663500D01*
X24899643Y-13620643D01*
X24885357Y-13606357D01*
X17742500Y-14109500D02*
X17742500Y-14309500D01*
X17642500Y-14209500D02*
X17842500Y-14209500D01*
X18099643Y-14073786D02*
X18113929Y-14059500D01*
X18142500Y-14045214D01*
X18213929Y-14045214D01*
X18242500Y-14059500D01*
X18256786Y-14073786D01*
X18271071Y-14102357D01*
X18271071Y-14130929D01*
X18256786Y-14173786D01*
X18085357Y-14345214D01*
X18271071Y-14345214D01*
X18399643Y-14316643D02*
X18413929Y-14330929D01*
X18399643Y-14345214D01*
X18385357Y-14330929D01*
X18399643Y-14316643D01*
X18399643Y-14345214D01*
X18599643Y-14045214D02*
X18628214Y-14045214D01*
X18656786Y-14059500D01*
X18671071Y-14073786D01*
X18685357Y-14102357D01*
X18699643Y-14159500D01*
X18699643Y-14230929D01*
X18685357Y-14288071D01*
X18671071Y-14316643D01*
X18656786Y-14330929D01*
X18628214Y-14345214D01*
X18599643Y-14345214D01*
X18571071Y-14330929D01*
X18556786Y-14316643D01*
X18542500Y-14288071D01*
X18528214Y-14230929D01*
X18528214Y-14159500D01*
X18542500Y-14102357D01*
X18556786Y-14073786D01*
X18571071Y-14059500D01*
X18599643Y-14045214D01*
X18885357Y-14045214D02*
X18913929Y-14045214D01*
X18942500Y-14059500D01*
X18956786Y-14073786D01*
X18971071Y-14102357D01*
X18985357Y-14159500D01*
X18985357Y-14230929D01*
X18971071Y-14288071D01*
X18956786Y-14316643D01*
X18942500Y-14330929D01*
X18913929Y-14345214D01*
X18885357Y-14345214D01*
X18856786Y-14330929D01*
X18842500Y-14316643D01*
X18828214Y-14288071D01*
X18813929Y-14230929D01*
X18813929Y-14159500D01*
X18828214Y-14102357D01*
X18842500Y-14073786D01*
X18856786Y-14059500D01*
X18885357Y-14045214D01*
X19113929Y-14345214D02*
X19113929Y-14145214D01*
X19113929Y-14173786D02*
X19128214Y-14159500D01*
X19156786Y-14145214D01*
X19199643Y-14145214D01*
X19228214Y-14159500D01*
X19242500Y-14188071D01*
X19242500Y-14345214D01*
X19242500Y-14188071D02*
X19256786Y-14159500D01*
X19285357Y-14145214D01*
X19328214Y-14145214D01*
X19356786Y-14159500D01*
X19371071Y-14188071D01*
X19371071Y-14345214D01*
X19513929Y-14345214D02*
X19513929Y-14145214D01*
X19513929Y-14173786D02*
X19528214Y-14159500D01*
X19556786Y-14145214D01*
X19599643Y-14145214D01*
X19628214Y-14159500D01*
X19642500Y-14188071D01*
X19642500Y-14345214D01*
X19642500Y-14188071D02*
X19656786Y-14159500D01*
X19685357Y-14145214D01*
X19728214Y-14145214D01*
X19756786Y-14159500D01*
X19771071Y-14188071D01*
X19771071Y-14345214D01*
X20356786Y-14030929D02*
X20099643Y-14416643D01*
X20742500Y-14045214D02*
X20771071Y-14045214D01*
X20799643Y-14059500D01*
X20813928Y-14073786D01*
X20828214Y-14102357D01*
X20842500Y-14159500D01*
X20842500Y-14230929D01*
X20828214Y-14288071D01*
X20813928Y-14316643D01*
X20799643Y-14330929D01*
X20771071Y-14345214D01*
X20742500Y-14345214D01*
X20713928Y-14330929D01*
X20699643Y-14316643D01*
X20685357Y-14288071D01*
X20671071Y-14230929D01*
X20671071Y-14159500D01*
X20685357Y-14102357D01*
X20699643Y-14073786D01*
X20713928Y-14059500D01*
X20742500Y-14045214D01*
X20971071Y-14316643D02*
X20985357Y-14330929D01*
X20971071Y-14345214D01*
X20956786Y-14330929D01*
X20971071Y-14316643D01*
X20971071Y-14345214D01*
X21171071Y-14045214D02*
X21199643Y-14045214D01*
X21228214Y-14059500D01*
X21242500Y-14073786D01*
X21256786Y-14102357D01*
X21271071Y-14159500D01*
X21271071Y-14230929D01*
X21256786Y-14288071D01*
X21242500Y-14316643D01*
X21228214Y-14330929D01*
X21199643Y-14345214D01*
X21171071Y-14345214D01*
X21142500Y-14330929D01*
X21128214Y-14316643D01*
X21113928Y-14288071D01*
X21099643Y-14230929D01*
X21099643Y-14159500D01*
X21113928Y-14102357D01*
X21128214Y-14073786D01*
X21142500Y-14059500D01*
X21171071Y-14045214D01*
X21371071Y-14045214D02*
X21571071Y-14045214D01*
X21442500Y-14345214D01*
X21699643Y-14345214D02*
X21756786Y-14345214D01*
X21785357Y-14330929D01*
X21799643Y-14316643D01*
X21828214Y-14273786D01*
X21842500Y-14216643D01*
X21842500Y-14102357D01*
X21828214Y-14073786D01*
X21813928Y-14059500D01*
X21785357Y-14045214D01*
X21728214Y-14045214D01*
X21699643Y-14059500D01*
X21685357Y-14073786D01*
X21671071Y-14102357D01*
X21671071Y-14173786D01*
X21685357Y-14202357D01*
X21699643Y-14216643D01*
X21728214Y-14230929D01*
X21785357Y-14230929D01*
X21813928Y-14216643D01*
X21828214Y-14202357D01*
X21842500Y-14173786D01*
X21956786Y-14045214D02*
X21956786Y-14102357D01*
X22071071Y-14045214D02*
X22071071Y-14102357D01*
X22513928Y-14459500D02*
X22499643Y-14445214D01*
X22471071Y-14402357D01*
X22456785Y-14373786D01*
X22442500Y-14330929D01*
X22428214Y-14259500D01*
X22428214Y-14202357D01*
X22442500Y-14130929D01*
X22456785Y-14088071D01*
X22471071Y-14059500D01*
X22499643Y-14016643D01*
X22513928Y-14002357D01*
X22613928Y-14073786D02*
X22628214Y-14059500D01*
X22656785Y-14045214D01*
X22728214Y-14045214D01*
X22756785Y-14059500D01*
X22771071Y-14073786D01*
X22785357Y-14102357D01*
X22785357Y-14130929D01*
X22771071Y-14173786D01*
X22599643Y-14345214D01*
X22785357Y-14345214D01*
X23042500Y-14145214D02*
X23042500Y-14345214D01*
X22971071Y-14030929D02*
X22899643Y-14245214D01*
X23085357Y-14245214D01*
X23428214Y-14345214D02*
X23428214Y-14045214D01*
X23556785Y-14345214D02*
X23556785Y-14188071D01*
X23542500Y-14159500D01*
X23513928Y-14145214D01*
X23471071Y-14145214D01*
X23442500Y-14159500D01*
X23428214Y-14173786D01*
X23742500Y-14345214D02*
X23713928Y-14330929D01*
X23699643Y-14316643D01*
X23685357Y-14288071D01*
X23685357Y-14202357D01*
X23699643Y-14173786D01*
X23713928Y-14159500D01*
X23742500Y-14145214D01*
X23785357Y-14145214D01*
X23813928Y-14159500D01*
X23828214Y-14173786D01*
X23842500Y-14202357D01*
X23842500Y-14288071D01*
X23828214Y-14316643D01*
X23813928Y-14330929D01*
X23785357Y-14345214D01*
X23742500Y-14345214D01*
X24013928Y-14345214D02*
X23985357Y-14330929D01*
X23971071Y-14302357D01*
X23971071Y-14045214D01*
X24242500Y-14330929D02*
X24213928Y-14345214D01*
X24156786Y-14345214D01*
X24128214Y-14330929D01*
X24113928Y-14302357D01*
X24113928Y-14188071D01*
X24128214Y-14159500D01*
X24156786Y-14145214D01*
X24213928Y-14145214D01*
X24242500Y-14159500D01*
X24256786Y-14188071D01*
X24256786Y-14216643D01*
X24113928Y-14245214D01*
X24371071Y-14330929D02*
X24399643Y-14345214D01*
X24456786Y-14345214D01*
X24485357Y-14330929D01*
X24499643Y-14302357D01*
X24499643Y-14288071D01*
X24485357Y-14259500D01*
X24456786Y-14245214D01*
X24413928Y-14245214D01*
X24385357Y-14230929D01*
X24371071Y-14202357D01*
X24371071Y-14188071D01*
X24385357Y-14159500D01*
X24413928Y-14145214D01*
X24456786Y-14145214D01*
X24485357Y-14159500D01*
X24599643Y-14459500D02*
X24613928Y-14445214D01*
X24642500Y-14402357D01*
X24656786Y-14373786D01*
X24671071Y-14330929D01*
X24685357Y-14259500D01*
X24685357Y-14202357D01*
X24671071Y-14130929D01*
X24656786Y-14088071D01*
X24642500Y-14059500D01*
X24613928Y-14016643D01*
X24599643Y-14002357D01*
M02*
