G04 #@! TF.FileFunction,Legend,Bot*
%FSLAX46Y46*%
G04 Gerber Fmt 4.6, Leading zero omitted, Abs format (unit mm)*
G04 Created by KiCad (PCBNEW 4.0.6) date 04/09/17 06:36:11*
%MOMM*%
%LPD*%
G01*
G04 APERTURE LIST*
%ADD10C,0.100000*%
%ADD11C,0.150000*%
%ADD12C,0.300000*%
%ADD13C,0.400000*%
%ADD14C,0.200000*%
%ADD15C,0.010000*%
G04 APERTURE END LIST*
D10*
D11*
X79999600Y-155999600D02*
X79999600Y-187999600D01*
X187999600Y-187999600D01*
X187999600Y-155999600D01*
X79999600Y-155999600D01*
D10*
D11*
X10000000Y-10000000D02*
X10000000Y-189999600D01*
X189999600Y-189999600D01*
X189999600Y-10000000D01*
X10000000Y-10000000D01*
D10*
D11*
X12000000Y-12000000D02*
X12000000Y-187999600D01*
X187999600Y-187999600D01*
X187999600Y-12000000D01*
X12000000Y-12000000D01*
D10*
D11*
X60000000Y-12000000D02*
X60000000Y-10000000D01*
D10*
D11*
X110000000Y-12000000D02*
X110000000Y-10000000D01*
D10*
D11*
X160000000Y-12000000D02*
X160000000Y-10000000D01*
D10*
D11*
X35990476Y-11588095D02*
X35247619Y-11588095D01*
X35619048Y-11588095D02*
X35619048Y-10288095D01*
X35495238Y-10473810D01*
X35371429Y-10597619D01*
X35247619Y-10659524D01*
D10*
D11*
X85247619Y-10411905D02*
X85309524Y-10350000D01*
X85433333Y-10288095D01*
X85742857Y-10288095D01*
X85866667Y-10350000D01*
X85928571Y-10411905D01*
X85990476Y-10535714D01*
X85990476Y-10659524D01*
X85928571Y-10845238D01*
X85185714Y-11588095D01*
X85990476Y-11588095D01*
D10*
D11*
X135185714Y-10288095D02*
X135990476Y-10288095D01*
X135557143Y-10783333D01*
X135742857Y-10783333D01*
X135866667Y-10845238D01*
X135928571Y-10907143D01*
X135990476Y-11030952D01*
X135990476Y-11340476D01*
X135928571Y-11464286D01*
X135866667Y-11526190D01*
X135742857Y-11588095D01*
X135371429Y-11588095D01*
X135247619Y-11526190D01*
X135185714Y-11464286D01*
D10*
D11*
X185866667Y-10721429D02*
X185866667Y-11588095D01*
X185557143Y-10226190D02*
X185247619Y-11154762D01*
X186052381Y-11154762D01*
D10*
D11*
X60000000Y-187999600D02*
X60000000Y-189999600D01*
D10*
D11*
X110000000Y-187999600D02*
X110000000Y-189999600D01*
D10*
D11*
X160000000Y-187999600D02*
X160000000Y-189999600D01*
D10*
D11*
X35990476Y-189587695D02*
X35247619Y-189587695D01*
X35619048Y-189587695D02*
X35619048Y-188287695D01*
X35495238Y-188473410D01*
X35371429Y-188597219D01*
X35247619Y-188659124D01*
D10*
D11*
X85247619Y-188411505D02*
X85309524Y-188349600D01*
X85433333Y-188287695D01*
X85742857Y-188287695D01*
X85866667Y-188349600D01*
X85928571Y-188411505D01*
X85990476Y-188535314D01*
X85990476Y-188659124D01*
X85928571Y-188844838D01*
X85185714Y-189587695D01*
X85990476Y-189587695D01*
D10*
D11*
X135185714Y-188287695D02*
X135990476Y-188287695D01*
X135557143Y-188782933D01*
X135742857Y-188782933D01*
X135866667Y-188844838D01*
X135928571Y-188906743D01*
X135990476Y-189030552D01*
X135990476Y-189340076D01*
X135928571Y-189463886D01*
X135866667Y-189525790D01*
X135742857Y-189587695D01*
X135371429Y-189587695D01*
X135247619Y-189525790D01*
X135185714Y-189463886D01*
D10*
D11*
X185866667Y-188721029D02*
X185866667Y-189587695D01*
X185557143Y-188225790D02*
X185247619Y-189154362D01*
X186052381Y-189154362D01*
D10*
D11*
X10000000Y-60000000D02*
X12000000Y-60000000D01*
D10*
D11*
X10000000Y-110000000D02*
X12000000Y-110000000D01*
D10*
D11*
X10000000Y-160000000D02*
X12000000Y-160000000D01*
D10*
D11*
X10690476Y-35216667D02*
X11309524Y-35216667D01*
X10566667Y-35588095D02*
X11000000Y-34288095D01*
X11433333Y-35588095D01*
D10*
D11*
X11092857Y-84907143D02*
X11278571Y-84969048D01*
X11340476Y-85030952D01*
X11402381Y-85154762D01*
X11402381Y-85340476D01*
X11340476Y-85464286D01*
X11278571Y-85526190D01*
X11154762Y-85588095D01*
X10659524Y-85588095D01*
X10659524Y-84288095D01*
X11092857Y-84288095D01*
X11216667Y-84350000D01*
X11278571Y-84411905D01*
X11340476Y-84535714D01*
X11340476Y-84659524D01*
X11278571Y-84783333D01*
X11216667Y-84845238D01*
X11092857Y-84907143D01*
X10659524Y-84907143D01*
D10*
D11*
X11402381Y-135464286D02*
X11340476Y-135526190D01*
X11154762Y-135588095D01*
X11030952Y-135588095D01*
X10845238Y-135526190D01*
X10721429Y-135402381D01*
X10659524Y-135278571D01*
X10597619Y-135030952D01*
X10597619Y-134845238D01*
X10659524Y-134597619D01*
X10721429Y-134473810D01*
X10845238Y-134350000D01*
X11030952Y-134288095D01*
X11154762Y-134288095D01*
X11340476Y-134350000D01*
X11402381Y-134411905D01*
D10*
D11*
X10659524Y-185588095D02*
X10659524Y-184288095D01*
X10969048Y-184288095D01*
X11154762Y-184350000D01*
X11278571Y-184473810D01*
X11340476Y-184597619D01*
X11402381Y-184845238D01*
X11402381Y-185030952D01*
X11340476Y-185278571D01*
X11278571Y-185402381D01*
X11154762Y-185526190D01*
X10969048Y-185588095D01*
X10659524Y-185588095D01*
D10*
D11*
X189999600Y-60000000D02*
X187999600Y-60000000D01*
D10*
D11*
X189999600Y-110000000D02*
X187999600Y-110000000D01*
D10*
D11*
X189999600Y-160000000D02*
X187999600Y-160000000D01*
D10*
D11*
X188690076Y-35216667D02*
X189309124Y-35216667D01*
X188566267Y-35588095D02*
X188999600Y-34288095D01*
X189432933Y-35588095D01*
D10*
D11*
X189092457Y-84907143D02*
X189278171Y-84969048D01*
X189340076Y-85030952D01*
X189401981Y-85154762D01*
X189401981Y-85340476D01*
X189340076Y-85464286D01*
X189278171Y-85526190D01*
X189154362Y-85588095D01*
X188659124Y-85588095D01*
X188659124Y-84288095D01*
X189092457Y-84288095D01*
X189216267Y-84350000D01*
X189278171Y-84411905D01*
X189340076Y-84535714D01*
X189340076Y-84659524D01*
X189278171Y-84783333D01*
X189216267Y-84845238D01*
X189092457Y-84907143D01*
X188659124Y-84907143D01*
D10*
D11*
X189401981Y-135464286D02*
X189340076Y-135526190D01*
X189154362Y-135588095D01*
X189030552Y-135588095D01*
X188844838Y-135526190D01*
X188721029Y-135402381D01*
X188659124Y-135278571D01*
X188597219Y-135030952D01*
X188597219Y-134845238D01*
X188659124Y-134597619D01*
X188721029Y-134473810D01*
X188844838Y-134350000D01*
X189030552Y-134288095D01*
X189154362Y-134288095D01*
X189340076Y-134350000D01*
X189401981Y-134411905D01*
D10*
D11*
X188659124Y-185588095D02*
X188659124Y-184288095D01*
X188968648Y-184288095D01*
X189154362Y-184350000D01*
X189278171Y-184473810D01*
X189340076Y-184597619D01*
X189401981Y-184845238D01*
X189401981Y-185030952D01*
X189340076Y-185278571D01*
X189278171Y-185402381D01*
X189154362Y-185526190D01*
X188968648Y-185588095D01*
X188659124Y-185588095D01*
D10*
D11*
X103356743Y-183778171D02*
X103356743Y-182278171D01*
X103713886Y-182278171D01*
X103928171Y-182349600D01*
X104071029Y-182492457D01*
X104142457Y-182635314D01*
X104213886Y-182921029D01*
X104213886Y-183135314D01*
X104142457Y-183421029D01*
X104071029Y-183563886D01*
X103928171Y-183706743D01*
X103713886Y-183778171D01*
X103356743Y-183778171D01*
X105499600Y-183778171D02*
X105499600Y-182992457D01*
X105428171Y-182849600D01*
X105285314Y-182778171D01*
X104999600Y-182778171D01*
X104856743Y-182849600D01*
X105499600Y-183706743D02*
X105356743Y-183778171D01*
X104999600Y-183778171D01*
X104856743Y-183706743D01*
X104785314Y-183563886D01*
X104785314Y-183421029D01*
X104856743Y-183278171D01*
X104999600Y-183206743D01*
X105356743Y-183206743D01*
X105499600Y-183135314D01*
X105999600Y-182778171D02*
X106571029Y-182778171D01*
X106213886Y-182278171D02*
X106213886Y-183563886D01*
X106285314Y-183706743D01*
X106428172Y-183778171D01*
X106571029Y-183778171D01*
X107642457Y-183706743D02*
X107499600Y-183778171D01*
X107213886Y-183778171D01*
X107071029Y-183706743D01*
X106999600Y-183563886D01*
X106999600Y-182992457D01*
X107071029Y-182849600D01*
X107213886Y-182778171D01*
X107499600Y-182778171D01*
X107642457Y-182849600D01*
X107713886Y-182992457D01*
X107713886Y-183135314D01*
X106999600Y-183278171D01*
X108356743Y-183635314D02*
X108428171Y-183706743D01*
X108356743Y-183778171D01*
X108285314Y-183706743D01*
X108356743Y-183635314D01*
X108356743Y-183778171D01*
X108356743Y-182849600D02*
X108428171Y-182921029D01*
X108356743Y-182992457D01*
X108285314Y-182921029D01*
X108356743Y-182849600D01*
X108356743Y-182992457D01*
X110142457Y-182421029D02*
X110213886Y-182349600D01*
X110356743Y-182278171D01*
X110713886Y-182278171D01*
X110856743Y-182349600D01*
X110928172Y-182421029D01*
X110999600Y-182563886D01*
X110999600Y-182706743D01*
X110928172Y-182921029D01*
X110071029Y-183778171D01*
X110999600Y-183778171D01*
X111928171Y-182278171D02*
X112071028Y-182278171D01*
X112213885Y-182349600D01*
X112285314Y-182421029D01*
X112356743Y-182563886D01*
X112428171Y-182849600D01*
X112428171Y-183206743D01*
X112356743Y-183492457D01*
X112285314Y-183635314D01*
X112213885Y-183706743D01*
X112071028Y-183778171D01*
X111928171Y-183778171D01*
X111785314Y-183706743D01*
X111713885Y-183635314D01*
X111642457Y-183492457D01*
X111571028Y-183206743D01*
X111571028Y-182849600D01*
X111642457Y-182563886D01*
X111713885Y-182421029D01*
X111785314Y-182349600D01*
X111928171Y-182278171D01*
X113856742Y-183778171D02*
X112999599Y-183778171D01*
X113428171Y-183778171D02*
X113428171Y-182278171D01*
X113285314Y-182492457D01*
X113142456Y-182635314D01*
X112999599Y-182706743D01*
X114356742Y-182278171D02*
X115356742Y-182278171D01*
X114713885Y-183778171D01*
X115928170Y-183206743D02*
X117071027Y-183206743D01*
X118071027Y-182278171D02*
X118213884Y-182278171D01*
X118356741Y-182349600D01*
X118428170Y-182421029D01*
X118499599Y-182563886D01*
X118571027Y-182849600D01*
X118571027Y-183206743D01*
X118499599Y-183492457D01*
X118428170Y-183635314D01*
X118356741Y-183706743D01*
X118213884Y-183778171D01*
X118071027Y-183778171D01*
X117928170Y-183706743D01*
X117856741Y-183635314D01*
X117785313Y-183492457D01*
X117713884Y-183206743D01*
X117713884Y-182849600D01*
X117785313Y-182563886D01*
X117856741Y-182421029D01*
X117928170Y-182349600D01*
X118071027Y-182278171D01*
X119071027Y-182278171D02*
X119999598Y-182278171D01*
X119499598Y-182849600D01*
X119713884Y-182849600D01*
X119856741Y-182921029D01*
X119928170Y-182992457D01*
X119999598Y-183135314D01*
X119999598Y-183492457D01*
X119928170Y-183635314D01*
X119856741Y-183706743D01*
X119713884Y-183778171D01*
X119285312Y-183778171D01*
X119142455Y-183706743D01*
X119071027Y-183635314D01*
X120642455Y-183206743D02*
X121785312Y-183206743D01*
X122356741Y-182278171D02*
X123285312Y-182278171D01*
X122785312Y-182849600D01*
X122999598Y-182849600D01*
X123142455Y-182921029D01*
X123213884Y-182992457D01*
X123285312Y-183135314D01*
X123285312Y-183492457D01*
X123213884Y-183635314D01*
X123142455Y-183706743D01*
X122999598Y-183778171D01*
X122571026Y-183778171D01*
X122428169Y-183706743D01*
X122356741Y-183635314D01*
X124713883Y-183778171D02*
X123856740Y-183778171D01*
X124285312Y-183778171D02*
X124285312Y-182278171D01*
X124142455Y-182492457D01*
X123999597Y-182635314D01*
X123856740Y-182706743D01*
D10*
D11*
X79999600Y-184499600D02*
X187999600Y-184499600D01*
D10*
D11*
X81356743Y-186578171D02*
X81356743Y-185078171D01*
X82213886Y-186578171D02*
X81571029Y-185721029D01*
X82213886Y-185078171D02*
X81356743Y-185935314D01*
X82856743Y-186578171D02*
X82856743Y-185578171D01*
X82856743Y-185078171D02*
X82785314Y-185149600D01*
X82856743Y-185221029D01*
X82928171Y-185149600D01*
X82856743Y-185078171D01*
X82856743Y-185221029D01*
X84428172Y-186435314D02*
X84356743Y-186506743D01*
X84142457Y-186578171D01*
X83999600Y-186578171D01*
X83785315Y-186506743D01*
X83642457Y-186363886D01*
X83571029Y-186221029D01*
X83499600Y-185935314D01*
X83499600Y-185721029D01*
X83571029Y-185435314D01*
X83642457Y-185292457D01*
X83785315Y-185149600D01*
X83999600Y-185078171D01*
X84142457Y-185078171D01*
X84356743Y-185149600D01*
X84428172Y-185221029D01*
X85713886Y-186578171D02*
X85713886Y-185792457D01*
X85642457Y-185649600D01*
X85499600Y-185578171D01*
X85213886Y-185578171D01*
X85071029Y-185649600D01*
X85713886Y-186506743D02*
X85571029Y-186578171D01*
X85213886Y-186578171D01*
X85071029Y-186506743D01*
X84999600Y-186363886D01*
X84999600Y-186221029D01*
X85071029Y-186078171D01*
X85213886Y-186006743D01*
X85571029Y-186006743D01*
X85713886Y-185935314D01*
X87071029Y-186578171D02*
X87071029Y-185078171D01*
X87071029Y-186506743D02*
X86928172Y-186578171D01*
X86642458Y-186578171D01*
X86499600Y-186506743D01*
X86428172Y-186435314D01*
X86356743Y-186292457D01*
X86356743Y-185863886D01*
X86428172Y-185721029D01*
X86499600Y-185649600D01*
X86642458Y-185578171D01*
X86928172Y-185578171D01*
X87071029Y-185649600D01*
X88928172Y-185792457D02*
X89428172Y-185792457D01*
X89642458Y-186578171D02*
X88928172Y-186578171D01*
X88928172Y-185078171D01*
X89642458Y-185078171D01*
X90285315Y-186435314D02*
X90356743Y-186506743D01*
X90285315Y-186578171D01*
X90213886Y-186506743D01*
X90285315Y-186435314D01*
X90285315Y-186578171D01*
X90999601Y-186578171D02*
X90999601Y-185078171D01*
X91356744Y-185078171D01*
X91571029Y-185149600D01*
X91713887Y-185292457D01*
X91785315Y-185435314D01*
X91856744Y-185721029D01*
X91856744Y-185935314D01*
X91785315Y-186221029D01*
X91713887Y-186363886D01*
X91571029Y-186506743D01*
X91356744Y-186578171D01*
X90999601Y-186578171D01*
X92499601Y-186435314D02*
X92571029Y-186506743D01*
X92499601Y-186578171D01*
X92428172Y-186506743D01*
X92499601Y-186435314D01*
X92499601Y-186578171D01*
X93142458Y-186149600D02*
X93856744Y-186149600D01*
X92999601Y-186578171D02*
X93499601Y-185078171D01*
X93999601Y-186578171D01*
X94499601Y-186435314D02*
X94571029Y-186506743D01*
X94499601Y-186578171D01*
X94428172Y-186506743D01*
X94499601Y-186435314D01*
X94499601Y-186578171D01*
X97499601Y-186578171D02*
X97499601Y-185078171D01*
X97642458Y-186006743D02*
X98071029Y-186578171D01*
X98071029Y-185578171D02*
X97499601Y-186149600D01*
X98713887Y-186578171D02*
X98713887Y-185578171D01*
X98713887Y-185078171D02*
X98642458Y-185149600D01*
X98713887Y-185221029D01*
X98785315Y-185149600D01*
X98713887Y-185078171D01*
X98713887Y-185221029D01*
X100071030Y-186506743D02*
X99928173Y-186578171D01*
X99642459Y-186578171D01*
X99499601Y-186506743D01*
X99428173Y-186435314D01*
X99356744Y-186292457D01*
X99356744Y-185863886D01*
X99428173Y-185721029D01*
X99499601Y-185649600D01*
X99642459Y-185578171D01*
X99928173Y-185578171D01*
X100071030Y-185649600D01*
X101356744Y-186578171D02*
X101356744Y-185792457D01*
X101285315Y-185649600D01*
X101142458Y-185578171D01*
X100856744Y-185578171D01*
X100713887Y-185649600D01*
X101356744Y-186506743D02*
X101213887Y-186578171D01*
X100856744Y-186578171D01*
X100713887Y-186506743D01*
X100642458Y-186363886D01*
X100642458Y-186221029D01*
X100713887Y-186078171D01*
X100856744Y-186006743D01*
X101213887Y-186006743D01*
X101356744Y-185935314D01*
X102713887Y-186578171D02*
X102713887Y-185078171D01*
X102713887Y-186506743D02*
X102571030Y-186578171D01*
X102285316Y-186578171D01*
X102142458Y-186506743D01*
X102071030Y-186435314D01*
X101999601Y-186292457D01*
X101999601Y-185863886D01*
X102071030Y-185721029D01*
X102142458Y-185649600D01*
X102285316Y-185578171D01*
X102571030Y-185578171D01*
X102713887Y-185649600D01*
X105213887Y-185578171D02*
X105213887Y-186578171D01*
X104856744Y-185006743D02*
X104499601Y-186078171D01*
X105428173Y-186078171D01*
X105999601Y-186435314D02*
X106071029Y-186506743D01*
X105999601Y-186578171D01*
X105928172Y-186506743D01*
X105999601Y-186435314D01*
X105999601Y-186578171D01*
X106999601Y-185078171D02*
X107142458Y-185078171D01*
X107285315Y-185149600D01*
X107356744Y-185221029D01*
X107428173Y-185363886D01*
X107499601Y-185649600D01*
X107499601Y-186006743D01*
X107428173Y-186292457D01*
X107356744Y-186435314D01*
X107285315Y-186506743D01*
X107142458Y-186578171D01*
X106999601Y-186578171D01*
X106856744Y-186506743D01*
X106785315Y-186435314D01*
X106713887Y-186292457D01*
X106642458Y-186006743D01*
X106642458Y-185649600D01*
X106713887Y-185363886D01*
X106785315Y-185221029D01*
X106856744Y-185149600D01*
X106999601Y-185078171D01*
X108142458Y-186435314D02*
X108213886Y-186506743D01*
X108142458Y-186578171D01*
X108071029Y-186506743D01*
X108142458Y-186435314D01*
X108142458Y-186578171D01*
X109499601Y-185078171D02*
X109213887Y-185078171D01*
X109071030Y-185149600D01*
X108999601Y-185221029D01*
X108856744Y-185435314D01*
X108785315Y-185721029D01*
X108785315Y-186292457D01*
X108856744Y-186435314D01*
X108928172Y-186506743D01*
X109071030Y-186578171D01*
X109356744Y-186578171D01*
X109499601Y-186506743D01*
X109571030Y-186435314D01*
X109642458Y-186292457D01*
X109642458Y-185935314D01*
X109571030Y-185792457D01*
X109499601Y-185721029D01*
X109356744Y-185649600D01*
X109071030Y-185649600D01*
X108928172Y-185721029D01*
X108856744Y-185792457D01*
X108785315Y-185935314D01*
D10*
D11*
X79999600Y-181499600D02*
X187999600Y-181499600D01*
D10*
D12*
X167213886Y-183778171D02*
X166713886Y-183063886D01*
X166356743Y-183778171D02*
X166356743Y-182278171D01*
X166928171Y-182278171D01*
X167071029Y-182349600D01*
X167142457Y-182421029D01*
X167213886Y-182563886D01*
X167213886Y-182778171D01*
X167142457Y-182921029D01*
X167071029Y-182992457D01*
X166928171Y-183063886D01*
X166356743Y-183063886D01*
X168428171Y-183706743D02*
X168285314Y-183778171D01*
X167999600Y-183778171D01*
X167856743Y-183706743D01*
X167785314Y-183563886D01*
X167785314Y-182992457D01*
X167856743Y-182849600D01*
X167999600Y-182778171D01*
X168285314Y-182778171D01*
X168428171Y-182849600D01*
X168499600Y-182992457D01*
X168499600Y-183135314D01*
X167785314Y-183278171D01*
X168999600Y-182778171D02*
X169356743Y-183778171D01*
X169713885Y-182778171D01*
X170285314Y-183635314D02*
X170356742Y-183706743D01*
X170285314Y-183778171D01*
X170213885Y-183706743D01*
X170285314Y-183635314D01*
X170285314Y-183778171D01*
X170285314Y-182849600D02*
X170356742Y-182921029D01*
X170285314Y-182992457D01*
X170213885Y-182921029D01*
X170285314Y-182849600D01*
X170285314Y-182992457D01*
X172928171Y-183778171D02*
X172071028Y-183778171D01*
X172499600Y-183778171D02*
X172499600Y-182278171D01*
X172356743Y-182492457D01*
X172213885Y-182635314D01*
X172071028Y-182706743D01*
X173571028Y-183635314D02*
X173642456Y-183706743D01*
X173571028Y-183778171D01*
X173499599Y-183706743D01*
X173571028Y-183635314D01*
X173571028Y-183778171D01*
X174499600Y-182921029D02*
X174356742Y-182849600D01*
X174285314Y-182778171D01*
X174213885Y-182635314D01*
X174213885Y-182563886D01*
X174285314Y-182421029D01*
X174356742Y-182349600D01*
X174499600Y-182278171D01*
X174785314Y-182278171D01*
X174928171Y-182349600D01*
X174999600Y-182421029D01*
X175071028Y-182563886D01*
X175071028Y-182635314D01*
X174999600Y-182778171D01*
X174928171Y-182849600D01*
X174785314Y-182921029D01*
X174499600Y-182921029D01*
X174356742Y-182992457D01*
X174285314Y-183063886D01*
X174213885Y-183206743D01*
X174213885Y-183492457D01*
X174285314Y-183635314D01*
X174356742Y-183706743D01*
X174499600Y-183778171D01*
X174785314Y-183778171D01*
X174928171Y-183706743D01*
X174999600Y-183635314D01*
X175071028Y-183492457D01*
X175071028Y-183206743D01*
X174999600Y-183063886D01*
X174928171Y-182992457D01*
X174785314Y-182921029D01*
D10*
D11*
X81285314Y-183706743D02*
X81499600Y-183778171D01*
X81856743Y-183778171D01*
X81999600Y-183706743D01*
X82071029Y-183635314D01*
X82142457Y-183492457D01*
X82142457Y-183349600D01*
X82071029Y-183206743D01*
X81999600Y-183135314D01*
X81856743Y-183063886D01*
X81571029Y-182992457D01*
X81428171Y-182921029D01*
X81356743Y-182849600D01*
X81285314Y-182706743D01*
X81285314Y-182563886D01*
X81356743Y-182421029D01*
X81428171Y-182349600D01*
X81571029Y-182278171D01*
X81928171Y-182278171D01*
X82142457Y-182349600D01*
X82785314Y-183778171D02*
X82785314Y-182778171D01*
X82785314Y-182278171D02*
X82713885Y-182349600D01*
X82785314Y-182421029D01*
X82856742Y-182349600D01*
X82785314Y-182278171D01*
X82785314Y-182421029D01*
X83356743Y-182778171D02*
X84142457Y-182778171D01*
X83356743Y-183778171D01*
X84142457Y-183778171D01*
X85285314Y-183706743D02*
X85142457Y-183778171D01*
X84856743Y-183778171D01*
X84713886Y-183706743D01*
X84642457Y-183563886D01*
X84642457Y-182992457D01*
X84713886Y-182849600D01*
X84856743Y-182778171D01*
X85142457Y-182778171D01*
X85285314Y-182849600D01*
X85356743Y-182992457D01*
X85356743Y-183135314D01*
X84642457Y-183278171D01*
X85999600Y-183635314D02*
X86071028Y-183706743D01*
X85999600Y-183778171D01*
X85928171Y-183706743D01*
X85999600Y-183635314D01*
X85999600Y-183778171D01*
X85999600Y-182849600D02*
X86071028Y-182921029D01*
X85999600Y-182992457D01*
X85928171Y-182921029D01*
X85999600Y-182849600D01*
X85999600Y-182992457D01*
X87856743Y-182278171D02*
X87856743Y-183492457D01*
X87928171Y-183635314D01*
X87999600Y-183706743D01*
X88142457Y-183778171D01*
X88428171Y-183778171D01*
X88571029Y-183706743D01*
X88642457Y-183635314D01*
X88713886Y-183492457D01*
X88713886Y-182278171D01*
X89356743Y-183706743D02*
X89499600Y-183778171D01*
X89785315Y-183778171D01*
X89928172Y-183706743D01*
X89999600Y-183563886D01*
X89999600Y-183492457D01*
X89928172Y-183349600D01*
X89785315Y-183278171D01*
X89571029Y-183278171D01*
X89428172Y-183206743D01*
X89356743Y-183063886D01*
X89356743Y-182992457D01*
X89428172Y-182849600D01*
X89571029Y-182778171D01*
X89785315Y-182778171D01*
X89928172Y-182849600D01*
X91213886Y-183706743D02*
X91071029Y-183778171D01*
X90785315Y-183778171D01*
X90642458Y-183706743D01*
X90571029Y-183563886D01*
X90571029Y-182992457D01*
X90642458Y-182849600D01*
X90785315Y-182778171D01*
X91071029Y-182778171D01*
X91213886Y-182849600D01*
X91285315Y-182992457D01*
X91285315Y-183135314D01*
X90571029Y-183278171D01*
X91928172Y-183778171D02*
X91928172Y-182778171D01*
X91928172Y-183063886D02*
X91999600Y-182921029D01*
X92071029Y-182849600D01*
X92213886Y-182778171D01*
X92356743Y-182778171D01*
D10*
D11*
X166356743Y-186578171D02*
X166356743Y-185078171D01*
X167713886Y-186578171D02*
X167713886Y-185078171D01*
X167713886Y-186506743D02*
X167571029Y-186578171D01*
X167285315Y-186578171D01*
X167142457Y-186506743D01*
X167071029Y-186435314D01*
X166999600Y-186292457D01*
X166999600Y-185863886D01*
X167071029Y-185721029D01*
X167142457Y-185649600D01*
X167285315Y-185578171D01*
X167571029Y-185578171D01*
X167713886Y-185649600D01*
X168428172Y-186435314D02*
X168499600Y-186506743D01*
X168428172Y-186578171D01*
X168356743Y-186506743D01*
X168428172Y-186435314D01*
X168428172Y-186578171D01*
X168428172Y-185649600D02*
X168499600Y-185721029D01*
X168428172Y-185792457D01*
X168356743Y-185721029D01*
X168428172Y-185649600D01*
X168428172Y-185792457D01*
X171071029Y-186578171D02*
X170213886Y-186578171D01*
X170642458Y-186578171D02*
X170642458Y-185078171D01*
X170499601Y-185292457D01*
X170356743Y-185435314D01*
X170213886Y-185506743D01*
X172785314Y-185006743D02*
X171499600Y-186935314D01*
X174071029Y-186578171D02*
X173213886Y-186578171D01*
X173642458Y-186578171D02*
X173642458Y-185078171D01*
X173499601Y-185292457D01*
X173356743Y-185435314D01*
X173213886Y-185506743D01*
D10*
D11*
X79999600Y-177499600D02*
X187999600Y-177499600D01*
D10*
D13*
X81451981Y-178204362D02*
X82594838Y-178204362D01*
X81773410Y-180204362D02*
X82023410Y-178204362D01*
X83011505Y-180204362D02*
X83178171Y-178871029D01*
X83261505Y-178204362D02*
X83154362Y-178299600D01*
X83237695Y-178394838D01*
X83344839Y-178299600D01*
X83261505Y-178204362D01*
X83237695Y-178394838D01*
X83844838Y-178871029D02*
X84606743Y-178871029D01*
X84213886Y-178204362D02*
X83999600Y-179918648D01*
X84071030Y-180109124D01*
X84249601Y-180204362D01*
X84440077Y-180204362D01*
X85392458Y-180204362D02*
X85213887Y-180109124D01*
X85142457Y-179918648D01*
X85356743Y-178204362D01*
X86928172Y-180109124D02*
X86725791Y-180204362D01*
X86344839Y-180204362D01*
X86166267Y-180109124D01*
X86094838Y-179918648D01*
X86190076Y-179156743D01*
X86309124Y-178966267D01*
X86511505Y-178871029D01*
X86892457Y-178871029D01*
X87071029Y-178966267D01*
X87142457Y-179156743D01*
X87118648Y-179347219D01*
X86142457Y-179537695D01*
X87892457Y-180013886D02*
X87975792Y-180109124D01*
X87868648Y-180204362D01*
X87785315Y-180109124D01*
X87892457Y-180013886D01*
X87868648Y-180204362D01*
X88023410Y-178966267D02*
X88106744Y-179061505D01*
X87999600Y-179156743D01*
X87916267Y-179061505D01*
X88023410Y-178966267D01*
X87999600Y-179156743D01*
X91297220Y-180204362D02*
X90344839Y-180204362D01*
X90594839Y-178204362D01*
X91963887Y-180204362D02*
X92130553Y-178871029D01*
X92213887Y-178204362D02*
X92106744Y-178299600D01*
X92190077Y-178394838D01*
X92297221Y-178299600D01*
X92213887Y-178204362D01*
X92190077Y-178394838D01*
X92797220Y-178871029D02*
X93559125Y-178871029D01*
X93166268Y-178204362D02*
X92951982Y-179918648D01*
X93023412Y-180109124D01*
X93201983Y-180204362D01*
X93392459Y-180204362D01*
X93940077Y-178871029D02*
X94701982Y-178871029D01*
X94309125Y-178204362D02*
X94094839Y-179918648D01*
X94166269Y-180109124D01*
X94344840Y-180204362D01*
X94535316Y-180204362D01*
X95487697Y-180204362D02*
X95309126Y-180109124D01*
X95237696Y-179918648D01*
X95451982Y-178204362D01*
X97023411Y-180109124D02*
X96821030Y-180204362D01*
X96440078Y-180204362D01*
X96261506Y-180109124D01*
X96190077Y-179918648D01*
X96285315Y-179156743D01*
X96404363Y-178966267D01*
X96606744Y-178871029D01*
X96987696Y-178871029D01*
X97166268Y-178966267D01*
X97237696Y-179156743D01*
X97213887Y-179347219D01*
X96237696Y-179537695D01*
X99487697Y-180204362D02*
X99737697Y-178204362D01*
X100213888Y-178204362D01*
X100487697Y-178299600D01*
X100654364Y-178490076D01*
X100725793Y-178680552D01*
X100773412Y-179061505D01*
X100737698Y-179347219D01*
X100594841Y-179728171D01*
X100475792Y-179918648D01*
X100261507Y-180109124D01*
X99963888Y-180204362D01*
X99487697Y-180204362D01*
X101487697Y-180204362D02*
X101654363Y-178871029D01*
X101606744Y-179251981D02*
X101725793Y-179061505D01*
X101832936Y-178966267D01*
X102035316Y-178871029D01*
X102225792Y-178871029D01*
X102725792Y-180204362D02*
X102892458Y-178871029D01*
X102975792Y-178204362D02*
X102868649Y-178299600D01*
X102951982Y-178394838D01*
X103059126Y-178299600D01*
X102975792Y-178204362D01*
X102951982Y-178394838D01*
X103654363Y-178871029D02*
X103963888Y-180204362D01*
X104606744Y-178871029D01*
X105975793Y-180109124D02*
X105773412Y-180204362D01*
X105392460Y-180204362D01*
X105213888Y-180109124D01*
X105142459Y-179918648D01*
X105237697Y-179156743D01*
X105356745Y-178966267D01*
X105559126Y-178871029D01*
X105940078Y-178871029D01*
X106118650Y-178966267D01*
X106190078Y-179156743D01*
X106166269Y-179347219D01*
X105190078Y-179537695D01*
X106916269Y-180204362D02*
X107082935Y-178871029D01*
X107035316Y-179251981D02*
X107154365Y-179061505D01*
X107261508Y-178966267D01*
X107463888Y-178871029D01*
X107654364Y-178871029D01*
D10*
D11*
X81856743Y-175592457D02*
X81356743Y-175592457D01*
X81356743Y-176378171D02*
X81356743Y-174878171D01*
X82071029Y-174878171D01*
X82642457Y-176378171D02*
X82642457Y-175378171D01*
X82642457Y-174878171D02*
X82571028Y-174949600D01*
X82642457Y-175021029D01*
X82713885Y-174949600D01*
X82642457Y-174878171D01*
X82642457Y-175021029D01*
X83571029Y-176378171D02*
X83428171Y-176306743D01*
X83356743Y-176163886D01*
X83356743Y-174878171D01*
X84713885Y-176306743D02*
X84571028Y-176378171D01*
X84285314Y-176378171D01*
X84142457Y-176306743D01*
X84071028Y-176163886D01*
X84071028Y-175592457D01*
X84142457Y-175449600D01*
X84285314Y-175378171D01*
X84571028Y-175378171D01*
X84713885Y-175449600D01*
X84785314Y-175592457D01*
X84785314Y-175735314D01*
X84071028Y-175878171D01*
X85428171Y-176235314D02*
X85499599Y-176306743D01*
X85428171Y-176378171D01*
X85356742Y-176306743D01*
X85428171Y-176235314D01*
X85428171Y-176378171D01*
X85428171Y-175449600D02*
X85499599Y-175521029D01*
X85428171Y-175592457D01*
X85356742Y-175521029D01*
X85428171Y-175449600D01*
X85428171Y-175592457D01*
X87285314Y-176378171D02*
X87285314Y-174878171D01*
X87285314Y-175592457D02*
X88142457Y-175592457D01*
X88142457Y-176378171D02*
X88142457Y-174878171D01*
X88856743Y-176378171D02*
X88856743Y-175378171D01*
X88856743Y-174878171D02*
X88785314Y-174949600D01*
X88856743Y-175021029D01*
X88928171Y-174949600D01*
X88856743Y-174878171D01*
X88856743Y-175021029D01*
X90213886Y-175378171D02*
X90213886Y-176592457D01*
X90142457Y-176735314D01*
X90071029Y-176806743D01*
X89928172Y-176878171D01*
X89713886Y-176878171D01*
X89571029Y-176806743D01*
X90213886Y-176306743D02*
X90071029Y-176378171D01*
X89785315Y-176378171D01*
X89642457Y-176306743D01*
X89571029Y-176235314D01*
X89499600Y-176092457D01*
X89499600Y-175663886D01*
X89571029Y-175521029D01*
X89642457Y-175449600D01*
X89785315Y-175378171D01*
X90071029Y-175378171D01*
X90213886Y-175449600D01*
X90928172Y-176378171D02*
X90928172Y-174878171D01*
X91571029Y-176378171D02*
X91571029Y-175592457D01*
X91499600Y-175449600D01*
X91356743Y-175378171D01*
X91142458Y-175378171D01*
X90999600Y-175449600D01*
X90928172Y-175521029D01*
X93428172Y-176378171D02*
X93428172Y-174878171D01*
X93999600Y-174878171D01*
X94142458Y-174949600D01*
X94213886Y-175021029D01*
X94285315Y-175163886D01*
X94285315Y-175378171D01*
X94213886Y-175521029D01*
X94142458Y-175592457D01*
X93999600Y-175663886D01*
X93428172Y-175663886D01*
X95142458Y-176378171D02*
X94999600Y-176306743D01*
X94928172Y-176235314D01*
X94856743Y-176092457D01*
X94856743Y-175663886D01*
X94928172Y-175521029D01*
X94999600Y-175449600D01*
X95142458Y-175378171D01*
X95356743Y-175378171D01*
X95499600Y-175449600D01*
X95571029Y-175521029D01*
X95642458Y-175663886D01*
X95642458Y-176092457D01*
X95571029Y-176235314D01*
X95499600Y-176306743D01*
X95356743Y-176378171D01*
X95142458Y-176378171D01*
X96142458Y-175378171D02*
X96428172Y-176378171D01*
X96713886Y-175663886D01*
X96999601Y-176378171D01*
X97285315Y-175378171D01*
X98428172Y-176306743D02*
X98285315Y-176378171D01*
X97999601Y-176378171D01*
X97856744Y-176306743D01*
X97785315Y-176163886D01*
X97785315Y-175592457D01*
X97856744Y-175449600D01*
X97999601Y-175378171D01*
X98285315Y-175378171D01*
X98428172Y-175449600D01*
X98499601Y-175592457D01*
X98499601Y-175735314D01*
X97785315Y-175878171D01*
X99142458Y-176378171D02*
X99142458Y-175378171D01*
X99142458Y-175663886D02*
X99213886Y-175521029D01*
X99285315Y-175449600D01*
X99428172Y-175378171D01*
X99571029Y-175378171D01*
X101142457Y-176306743D02*
X101356743Y-176378171D01*
X101713886Y-176378171D01*
X101856743Y-176306743D01*
X101928172Y-176235314D01*
X101999600Y-176092457D01*
X101999600Y-175949600D01*
X101928172Y-175806743D01*
X101856743Y-175735314D01*
X101713886Y-175663886D01*
X101428172Y-175592457D01*
X101285314Y-175521029D01*
X101213886Y-175449600D01*
X101142457Y-175306743D01*
X101142457Y-175163886D01*
X101213886Y-175021029D01*
X101285314Y-174949600D01*
X101428172Y-174878171D01*
X101785314Y-174878171D01*
X101999600Y-174949600D01*
X102499600Y-174878171D02*
X102856743Y-176378171D01*
X103142457Y-175306743D01*
X103428171Y-176378171D01*
X103785314Y-174878171D01*
X104356743Y-176235314D02*
X104428171Y-176306743D01*
X104356743Y-176378171D01*
X104285314Y-176306743D01*
X104356743Y-176235314D01*
X104356743Y-176378171D01*
X105071029Y-176378171D02*
X105071029Y-174878171D01*
X105213886Y-175806743D02*
X105642457Y-176378171D01*
X105642457Y-175378171D02*
X105071029Y-175949600D01*
X106285315Y-176378171D02*
X106285315Y-175378171D01*
X106285315Y-174878171D02*
X106213886Y-174949600D01*
X106285315Y-175021029D01*
X106356743Y-174949600D01*
X106285315Y-174878171D01*
X106285315Y-175021029D01*
X107642458Y-176306743D02*
X107499601Y-176378171D01*
X107213887Y-176378171D01*
X107071029Y-176306743D01*
X106999601Y-176235314D01*
X106928172Y-176092457D01*
X106928172Y-175663886D01*
X106999601Y-175521029D01*
X107071029Y-175449600D01*
X107213887Y-175378171D01*
X107499601Y-175378171D01*
X107642458Y-175449600D01*
X108928172Y-176378171D02*
X108928172Y-175592457D01*
X108856743Y-175449600D01*
X108713886Y-175378171D01*
X108428172Y-175378171D01*
X108285315Y-175449600D01*
X108928172Y-176306743D02*
X108785315Y-176378171D01*
X108428172Y-176378171D01*
X108285315Y-176306743D01*
X108213886Y-176163886D01*
X108213886Y-176021029D01*
X108285315Y-175878171D01*
X108428172Y-175806743D01*
X108785315Y-175806743D01*
X108928172Y-175735314D01*
X110285315Y-176378171D02*
X110285315Y-174878171D01*
X110285315Y-176306743D02*
X110142458Y-176378171D01*
X109856744Y-176378171D01*
X109713886Y-176306743D01*
X109642458Y-176235314D01*
X109571029Y-176092457D01*
X109571029Y-175663886D01*
X109642458Y-175521029D01*
X109713886Y-175449600D01*
X109856744Y-175378171D01*
X110142458Y-175378171D01*
X110285315Y-175449600D01*
X110642458Y-176521029D02*
X111785315Y-176521029D01*
X112142458Y-175378171D02*
X112142458Y-176878171D01*
X112142458Y-175449600D02*
X112285315Y-175378171D01*
X112571029Y-175378171D01*
X112713886Y-175449600D01*
X112785315Y-175521029D01*
X112856744Y-175663886D01*
X112856744Y-176092457D01*
X112785315Y-176235314D01*
X112713886Y-176306743D01*
X112571029Y-176378171D01*
X112285315Y-176378171D01*
X112142458Y-176306743D01*
X114142458Y-176306743D02*
X113999601Y-176378171D01*
X113713887Y-176378171D01*
X113571029Y-176306743D01*
X113499601Y-176235314D01*
X113428172Y-176092457D01*
X113428172Y-175663886D01*
X113499601Y-175521029D01*
X113571029Y-175449600D01*
X113713887Y-175378171D01*
X113999601Y-175378171D01*
X114142458Y-175449600D01*
X114785315Y-176378171D02*
X114785315Y-174878171D01*
X114785315Y-175449600D02*
X114928172Y-175378171D01*
X115213886Y-175378171D01*
X115356743Y-175449600D01*
X115428172Y-175521029D01*
X115499601Y-175663886D01*
X115499601Y-176092457D01*
X115428172Y-176235314D01*
X115356743Y-176306743D01*
X115213886Y-176378171D01*
X114928172Y-176378171D01*
X114785315Y-176306743D01*
D10*
D11*
X79999600Y-171499600D02*
X187999600Y-171499600D01*
D10*
D11*
X81285314Y-173606743D02*
X81499600Y-173678171D01*
X81856743Y-173678171D01*
X81999600Y-173606743D01*
X82071029Y-173535314D01*
X82142457Y-173392457D01*
X82142457Y-173249600D01*
X82071029Y-173106743D01*
X81999600Y-173035314D01*
X81856743Y-172963886D01*
X81571029Y-172892457D01*
X81428171Y-172821029D01*
X81356743Y-172749600D01*
X81285314Y-172606743D01*
X81285314Y-172463886D01*
X81356743Y-172321029D01*
X81428171Y-172249600D01*
X81571029Y-172178171D01*
X81928171Y-172178171D01*
X82142457Y-172249600D01*
X82785314Y-173678171D02*
X82785314Y-172178171D01*
X83428171Y-173678171D02*
X83428171Y-172892457D01*
X83356742Y-172749600D01*
X83213885Y-172678171D01*
X82999600Y-172678171D01*
X82856742Y-172749600D01*
X82785314Y-172821029D01*
X84713885Y-173606743D02*
X84571028Y-173678171D01*
X84285314Y-173678171D01*
X84142457Y-173606743D01*
X84071028Y-173463886D01*
X84071028Y-172892457D01*
X84142457Y-172749600D01*
X84285314Y-172678171D01*
X84571028Y-172678171D01*
X84713885Y-172749600D01*
X84785314Y-172892457D01*
X84785314Y-173035314D01*
X84071028Y-173178171D01*
X85999599Y-173606743D02*
X85856742Y-173678171D01*
X85571028Y-173678171D01*
X85428171Y-173606743D01*
X85356742Y-173463886D01*
X85356742Y-172892457D01*
X85428171Y-172749600D01*
X85571028Y-172678171D01*
X85856742Y-172678171D01*
X85999599Y-172749600D01*
X86071028Y-172892457D01*
X86071028Y-173035314D01*
X85356742Y-173178171D01*
X86499599Y-172678171D02*
X87071028Y-172678171D01*
X86713885Y-172178171D02*
X86713885Y-173463886D01*
X86785313Y-173606743D01*
X86928171Y-173678171D01*
X87071028Y-173678171D01*
X87571028Y-173535314D02*
X87642456Y-173606743D01*
X87571028Y-173678171D01*
X87499599Y-173606743D01*
X87571028Y-173535314D01*
X87571028Y-173678171D01*
X87571028Y-172749600D02*
X87642456Y-172821029D01*
X87571028Y-172892457D01*
X87499599Y-172821029D01*
X87571028Y-172749600D01*
X87571028Y-172892457D01*
D10*
D11*
X99999600Y-181499600D02*
X99999600Y-184499600D01*
D10*
D11*
X163999600Y-181499600D02*
X163999600Y-187999600D01*
X68666666Y-139000000D02*
G75*
G03X68666666Y-139000000I-1666666J0D01*
G01*
X64500000Y-139000000D02*
X69500000Y-139000000D01*
X67000000Y-136500000D02*
X67000000Y-141500000D01*
X115000000Y-139000000D02*
X115000000Y-103000000D01*
X67000000Y-139000000D02*
X115000000Y-139000000D01*
X67000000Y-103000000D02*
X67000000Y-139000000D01*
X115000000Y-103000000D02*
X67000000Y-103000000D01*
D12*
X104321429Y-104178571D02*
X103964286Y-105678571D01*
X103678572Y-104607143D01*
X103392858Y-105678571D01*
X103035715Y-104178571D01*
X102607143Y-104178571D02*
X102250000Y-105678571D01*
X101964286Y-104607143D01*
X101678572Y-105678571D01*
X101321429Y-104178571D01*
X100892857Y-104178571D02*
X100535714Y-105678571D01*
X100250000Y-104607143D01*
X99964286Y-105678571D01*
X99607143Y-104178571D01*
X99035714Y-105535714D02*
X98964286Y-105607143D01*
X99035714Y-105678571D01*
X99107143Y-105607143D01*
X99035714Y-105535714D01*
X99035714Y-105678571D01*
X98321428Y-105678571D02*
X98321428Y-104178571D01*
X97964285Y-104178571D01*
X97750000Y-104250000D01*
X97607142Y-104392857D01*
X97535714Y-104535714D01*
X97464285Y-104821429D01*
X97464285Y-105035714D01*
X97535714Y-105321429D01*
X97607142Y-105464286D01*
X97750000Y-105607143D01*
X97964285Y-105678571D01*
X98321428Y-105678571D01*
X96821428Y-105678571D02*
X96821428Y-104678571D01*
X96821428Y-104178571D02*
X96892857Y-104250000D01*
X96821428Y-104321429D01*
X96750000Y-104250000D01*
X96821428Y-104178571D01*
X96821428Y-104321429D01*
X95464285Y-104678571D02*
X95464285Y-105892857D01*
X95535714Y-106035714D01*
X95607142Y-106107143D01*
X95749999Y-106178571D01*
X95964285Y-106178571D01*
X96107142Y-106107143D01*
X95464285Y-105607143D02*
X95607142Y-105678571D01*
X95892856Y-105678571D01*
X96035714Y-105607143D01*
X96107142Y-105535714D01*
X96178571Y-105392857D01*
X96178571Y-104964286D01*
X96107142Y-104821429D01*
X96035714Y-104750000D01*
X95892856Y-104678571D01*
X95607142Y-104678571D01*
X95464285Y-104750000D01*
X94749999Y-105678571D02*
X94749999Y-104678571D01*
X94749999Y-104178571D02*
X94821428Y-104250000D01*
X94749999Y-104321429D01*
X94678571Y-104250000D01*
X94749999Y-104178571D01*
X94749999Y-104321429D01*
X94249999Y-104678571D02*
X93678570Y-104678571D01*
X94035713Y-104178571D02*
X94035713Y-105464286D01*
X93964285Y-105607143D01*
X93821427Y-105678571D01*
X93678570Y-105678571D01*
X92535713Y-105678571D02*
X92535713Y-104892857D01*
X92607142Y-104750000D01*
X92749999Y-104678571D01*
X93035713Y-104678571D01*
X93178570Y-104750000D01*
X92535713Y-105607143D02*
X92678570Y-105678571D01*
X93035713Y-105678571D01*
X93178570Y-105607143D01*
X93249999Y-105464286D01*
X93249999Y-105321429D01*
X93178570Y-105178571D01*
X93035713Y-105107143D01*
X92678570Y-105107143D01*
X92535713Y-105035714D01*
X91607141Y-105678571D02*
X91749999Y-105607143D01*
X91821427Y-105464286D01*
X91821427Y-104178571D01*
X91035713Y-105107143D02*
X89892856Y-105107143D01*
X89249999Y-105607143D02*
X89035713Y-105678571D01*
X88678570Y-105678571D01*
X88535713Y-105607143D01*
X88464284Y-105535714D01*
X88392856Y-105392857D01*
X88392856Y-105250000D01*
X88464284Y-105107143D01*
X88535713Y-105035714D01*
X88678570Y-104964286D01*
X88964284Y-104892857D01*
X89107142Y-104821429D01*
X89178570Y-104750000D01*
X89249999Y-104607143D01*
X89249999Y-104464286D01*
X89178570Y-104321429D01*
X89107142Y-104250000D01*
X88964284Y-104178571D01*
X88607142Y-104178571D01*
X88392856Y-104250000D01*
X87107142Y-104678571D02*
X87107142Y-106178571D01*
X87107142Y-105607143D02*
X87249999Y-105678571D01*
X87535713Y-105678571D01*
X87678571Y-105607143D01*
X87749999Y-105535714D01*
X87821428Y-105392857D01*
X87821428Y-104964286D01*
X87749999Y-104821429D01*
X87678571Y-104750000D01*
X87535713Y-104678571D01*
X87249999Y-104678571D01*
X87107142Y-104750000D01*
X86392856Y-105678571D02*
X86392856Y-104678571D01*
X86392856Y-104964286D02*
X86321428Y-104821429D01*
X86249999Y-104750000D01*
X86107142Y-104678571D01*
X85964285Y-104678571D01*
X85678571Y-104678571D02*
X85107142Y-104678571D01*
X85464285Y-104178571D02*
X85464285Y-105464286D01*
X85392857Y-105607143D01*
X85249999Y-105678571D01*
X85107142Y-105678571D01*
X84607142Y-105535714D02*
X84535714Y-105607143D01*
X84607142Y-105678571D01*
X84678571Y-105607143D01*
X84607142Y-105535714D01*
X84607142Y-105678571D01*
X83035713Y-105535714D02*
X83107142Y-105607143D01*
X83321428Y-105678571D01*
X83464285Y-105678571D01*
X83678570Y-105607143D01*
X83821428Y-105464286D01*
X83892856Y-105321429D01*
X83964285Y-105035714D01*
X83964285Y-104821429D01*
X83892856Y-104535714D01*
X83821428Y-104392857D01*
X83678570Y-104250000D01*
X83464285Y-104178571D01*
X83321428Y-104178571D01*
X83107142Y-104250000D01*
X83035713Y-104321429D01*
X82107142Y-104178571D02*
X81821428Y-104178571D01*
X81678570Y-104250000D01*
X81535713Y-104392857D01*
X81464285Y-104678571D01*
X81464285Y-105178571D01*
X81535713Y-105464286D01*
X81678570Y-105607143D01*
X81821428Y-105678571D01*
X82107142Y-105678571D01*
X82249999Y-105607143D01*
X82392856Y-105464286D01*
X82464285Y-105178571D01*
X82464285Y-104678571D01*
X82392856Y-104392857D01*
X82249999Y-104250000D01*
X82107142Y-104178571D01*
X80821427Y-105678571D02*
X80821427Y-104178571D01*
X80321427Y-105250000D01*
X79821427Y-104178571D01*
X79821427Y-105678571D01*
D10*
X82079762Y-113652381D02*
X82555953Y-113652381D01*
X82430953Y-112652381D01*
X81746429Y-113652381D02*
X81663095Y-112985714D01*
X81621429Y-112652381D02*
X81675000Y-112700000D01*
X81633333Y-112747619D01*
X81579762Y-112700000D01*
X81621429Y-112652381D01*
X81633333Y-112747619D01*
X81329762Y-112985714D02*
X80948810Y-112985714D01*
X81145239Y-112652381D02*
X81252381Y-113509524D01*
X81216667Y-113604762D01*
X81127382Y-113652381D01*
X81032144Y-113652381D01*
X80758333Y-112985714D02*
X80377381Y-112985714D01*
X80573810Y-112652381D02*
X80680952Y-113509524D01*
X80645238Y-113604762D01*
X80555953Y-113652381D01*
X80460715Y-113652381D01*
X79984524Y-113652381D02*
X80073809Y-113604762D01*
X80109523Y-113509524D01*
X80002381Y-112652381D01*
X79216665Y-113604762D02*
X79317856Y-113652381D01*
X79508333Y-113652381D01*
X79597618Y-113604762D01*
X79633332Y-113509524D01*
X79585713Y-113128571D01*
X79526190Y-113033333D01*
X79424999Y-112985714D01*
X79234522Y-112985714D01*
X79145237Y-113033333D01*
X79109522Y-113128571D01*
X79121427Y-113223810D01*
X79609523Y-113319048D01*
X77984523Y-113652381D02*
X77859523Y-112652381D01*
X77621428Y-112652381D01*
X77484522Y-112700000D01*
X77401189Y-112795238D01*
X77365474Y-112890476D01*
X77341665Y-113080952D01*
X77359522Y-113223810D01*
X77430951Y-113414286D01*
X77490474Y-113509524D01*
X77597617Y-113604762D01*
X77746428Y-113652381D01*
X77984523Y-113652381D01*
X76984523Y-113652381D02*
X76901189Y-112985714D01*
X76924999Y-113176190D02*
X76865475Y-113080952D01*
X76811904Y-113033333D01*
X76710713Y-112985714D01*
X76615474Y-112985714D01*
X76365475Y-113652381D02*
X76282141Y-112985714D01*
X76240475Y-112652381D02*
X76294046Y-112700000D01*
X76252379Y-112747619D01*
X76198808Y-112700000D01*
X76240475Y-112652381D01*
X76252379Y-112747619D01*
X75901189Y-112985714D02*
X75746428Y-113652381D01*
X75424998Y-112985714D01*
X74740474Y-113604762D02*
X74841665Y-113652381D01*
X75032142Y-113652381D01*
X75121427Y-113604762D01*
X75157141Y-113509524D01*
X75109522Y-113128571D01*
X75049999Y-113033333D01*
X74948808Y-112985714D01*
X74758331Y-112985714D01*
X74669046Y-113033333D01*
X74633331Y-113128571D01*
X74645236Y-113223810D01*
X75133332Y-113319048D01*
X74270237Y-113652381D02*
X74186903Y-112985714D01*
X74210713Y-113176190D02*
X74151189Y-113080952D01*
X74097618Y-113033333D01*
X73996427Y-112985714D01*
X73901188Y-112985714D01*
D14*
X82572916Y-111591667D02*
X82354166Y-109841667D01*
X81937500Y-109841667D01*
X81697917Y-109925000D01*
X81552083Y-110091667D01*
X81489584Y-110258333D01*
X81447916Y-110591667D01*
X81479166Y-110841667D01*
X81604167Y-111175000D01*
X81708333Y-111341667D01*
X81895834Y-111508333D01*
X82156250Y-111591667D01*
X82572916Y-111591667D01*
X80822916Y-111591667D02*
X80677083Y-110425000D01*
X80604166Y-109841667D02*
X80697917Y-109925000D01*
X80625000Y-110008333D01*
X80531250Y-109925000D01*
X80604166Y-109841667D01*
X80625000Y-110008333D01*
X79093750Y-110425000D02*
X79270833Y-111841667D01*
X79375001Y-112008333D01*
X79468750Y-112091667D01*
X79645834Y-112175000D01*
X79895834Y-112175000D01*
X80052083Y-112091667D01*
X79229167Y-111508333D02*
X79406250Y-111591667D01*
X79739583Y-111591667D01*
X79895834Y-111508333D01*
X79968750Y-111425000D01*
X80031251Y-111258333D01*
X79968751Y-110758333D01*
X79864583Y-110591667D01*
X79770834Y-110508333D01*
X79593750Y-110425000D01*
X79260417Y-110425000D01*
X79104167Y-110508333D01*
X78406250Y-111591667D02*
X78260417Y-110425000D01*
X78187500Y-109841667D02*
X78281251Y-109925000D01*
X78208334Y-110008333D01*
X78114584Y-109925000D01*
X78187500Y-109841667D01*
X78208334Y-110008333D01*
X77677084Y-110425000D02*
X77010418Y-110425000D01*
X77354167Y-109841667D02*
X77541667Y-111341667D01*
X77479168Y-111508333D01*
X77322917Y-111591667D01*
X77156251Y-111591667D01*
X75822917Y-111591667D02*
X75708334Y-110675000D01*
X75770835Y-110508333D01*
X75927084Y-110425000D01*
X76260418Y-110425000D01*
X76437501Y-110508333D01*
X75812501Y-111508333D02*
X75989584Y-111591667D01*
X76406251Y-111591667D01*
X76562501Y-111508333D01*
X76625001Y-111341667D01*
X76604168Y-111175000D01*
X76500001Y-111008333D01*
X76322918Y-110925000D01*
X75906251Y-110925000D01*
X75729167Y-110841667D01*
X74739584Y-111591667D02*
X74895835Y-111508333D01*
X74958334Y-111341667D01*
X74770834Y-109841667D01*
X72812502Y-111508333D02*
X72572918Y-111591667D01*
X72156251Y-111591667D01*
X71979168Y-111508333D01*
X71885418Y-111425000D01*
X71781252Y-111258333D01*
X71760418Y-111091667D01*
X71822918Y-110925000D01*
X71895834Y-110841667D01*
X72052085Y-110758333D01*
X72375001Y-110675000D01*
X72531251Y-110591667D01*
X72604168Y-110508333D01*
X72666668Y-110341667D01*
X72645835Y-110175000D01*
X72541668Y-110008333D01*
X72447918Y-109925000D01*
X72270834Y-109841667D01*
X71854168Y-109841667D01*
X71614585Y-109925000D01*
X70177084Y-110425000D02*
X70395834Y-112175000D01*
X70312501Y-111508333D02*
X70489584Y-111591667D01*
X70822917Y-111591667D01*
X70979168Y-111508333D01*
X71052084Y-111425000D01*
X71114585Y-111258333D01*
X71052085Y-110758333D01*
X70947917Y-110591667D01*
X70854168Y-110508333D01*
X70677084Y-110425000D01*
X70343751Y-110425000D01*
X70187501Y-110508333D01*
X69489584Y-111591667D02*
X69343751Y-110425000D01*
X69385418Y-110758333D02*
X69281251Y-110591667D01*
X69187502Y-110508333D01*
X69010418Y-110425000D01*
X68843751Y-110425000D01*
X68510418Y-110425000D02*
X67843752Y-110425000D01*
X68187501Y-109841667D02*
X68375001Y-111341667D01*
X68312502Y-111508333D01*
X68156251Y-111591667D01*
X67989585Y-111591667D01*
D10*
X82504762Y-114252381D02*
X82171429Y-115252381D01*
X81838095Y-114252381D01*
X81123809Y-115204762D02*
X81219047Y-115252381D01*
X81409524Y-115252381D01*
X81504762Y-115204762D01*
X81552381Y-115109524D01*
X81552381Y-114728571D01*
X81504762Y-114633333D01*
X81409524Y-114585714D01*
X81219047Y-114585714D01*
X81123809Y-114633333D01*
X81076190Y-114728571D01*
X81076190Y-114823810D01*
X81552381Y-114919048D01*
X80647619Y-115252381D02*
X80647619Y-114585714D01*
X80647619Y-114776190D02*
X80600000Y-114680952D01*
X80552381Y-114633333D01*
X80457143Y-114585714D01*
X80361904Y-114585714D01*
X78742856Y-115252381D02*
X79314285Y-115252381D01*
X79028571Y-115252381D02*
X79028571Y-114252381D01*
X79123809Y-114395238D01*
X79219047Y-114490476D01*
X79314285Y-114538095D01*
X78314285Y-115157143D02*
X78266666Y-115204762D01*
X78314285Y-115252381D01*
X78361904Y-115204762D01*
X78314285Y-115157143D01*
X78314285Y-115252381D01*
X77695238Y-114680952D02*
X77790476Y-114633333D01*
X77838095Y-114585714D01*
X77885714Y-114490476D01*
X77885714Y-114442857D01*
X77838095Y-114347619D01*
X77790476Y-114300000D01*
X77695238Y-114252381D01*
X77504761Y-114252381D01*
X77409523Y-114300000D01*
X77361904Y-114347619D01*
X77314285Y-114442857D01*
X77314285Y-114490476D01*
X77361904Y-114585714D01*
X77409523Y-114633333D01*
X77504761Y-114680952D01*
X77695238Y-114680952D01*
X77790476Y-114728571D01*
X77838095Y-114776190D01*
X77885714Y-114871429D01*
X77885714Y-115061905D01*
X77838095Y-115157143D01*
X77790476Y-115204762D01*
X77695238Y-115252381D01*
X77504761Y-115252381D01*
X77409523Y-115204762D01*
X77361904Y-115157143D01*
X77314285Y-115061905D01*
X77314285Y-114871429D01*
X77361904Y-114776190D01*
X77409523Y-114728571D01*
X77504761Y-114680952D01*
D15*
G36*
X88004108Y-106988270D02*
X87588289Y-107026540D01*
X87192299Y-107075770D01*
X86911246Y-107126918D01*
X86691656Y-107199539D01*
X86480055Y-107313188D01*
X86222967Y-107487419D01*
X86112509Y-107566214D01*
X85757936Y-107813396D01*
X85382037Y-108064817D01*
X85057453Y-108272053D01*
X85013243Y-108299019D01*
X84567158Y-108648177D01*
X84165202Y-109109795D01*
X83851405Y-109626999D01*
X83710867Y-109981354D01*
X83615918Y-110418805D01*
X83554303Y-110956308D01*
X83529177Y-111527295D01*
X83543697Y-112065195D01*
X83593105Y-112465149D01*
X83696259Y-112837945D01*
X83854149Y-113246918D01*
X83987453Y-113518956D01*
X84136137Y-113795380D01*
X84206254Y-113965784D01*
X84207351Y-114068745D01*
X84148978Y-114142844D01*
X84143101Y-114147789D01*
X83925109Y-114427469D01*
X83794499Y-114806784D01*
X83767139Y-115092296D01*
X83817781Y-115619778D01*
X83974176Y-116018093D01*
X84245345Y-116296431D01*
X84640309Y-116463977D01*
X85168087Y-116529919D01*
X85178959Y-116530234D01*
X85522041Y-116552842D01*
X85788751Y-116614444D01*
X86060188Y-116739455D01*
X86260232Y-116855766D01*
X87223089Y-117365548D01*
X88333163Y-117820923D01*
X89575432Y-118215971D01*
X90001888Y-118329561D01*
X90320916Y-118406968D01*
X90540366Y-118442607D01*
X90723958Y-118439511D01*
X90935413Y-118400714D01*
X91030842Y-118378540D01*
X91249381Y-118286992D01*
X91520030Y-118120264D01*
X91708907Y-117976065D01*
X91959083Y-117783287D01*
X92191621Y-117634185D01*
X92318732Y-117574869D01*
X92596441Y-117449991D01*
X92939532Y-117240504D01*
X93296608Y-116983950D01*
X93616275Y-116717875D01*
X93847135Y-116479822D01*
X93882631Y-116432457D01*
X94035724Y-116164499D01*
X94110857Y-115882543D01*
X94116968Y-115798625D01*
X93855788Y-115798625D01*
X93714370Y-116231324D01*
X93675470Y-116298464D01*
X93503780Y-116495688D01*
X93228076Y-116729974D01*
X92897641Y-116966452D01*
X92561758Y-117170255D01*
X92269710Y-117306515D01*
X92233333Y-117318783D01*
X92052694Y-117411254D01*
X91813419Y-117578151D01*
X91648838Y-117712992D01*
X91395105Y-117921231D01*
X91163961Y-118063564D01*
X90924825Y-118141840D01*
X90647119Y-118157908D01*
X90300262Y-118113618D01*
X89853674Y-118010817D01*
X89291388Y-117855548D01*
X88763236Y-117689202D01*
X88220312Y-117491830D01*
X87686328Y-117274868D01*
X87184996Y-117049753D01*
X86740028Y-116827924D01*
X86375136Y-116620817D01*
X86114033Y-116439870D01*
X85980430Y-116296520D01*
X85968000Y-116252540D01*
X85897825Y-116196473D01*
X85735167Y-116220094D01*
X85377622Y-116268601D01*
X84990262Y-116246585D01*
X84623975Y-116164805D01*
X84329649Y-116034018D01*
X84172372Y-115889749D01*
X84128355Y-115757154D01*
X84081188Y-115519705D01*
X84056664Y-115350272D01*
X84052748Y-114882509D01*
X84171117Y-114528073D01*
X84410730Y-114289813D01*
X84451721Y-114267007D01*
X84737751Y-114162112D01*
X85014640Y-114171181D01*
X85343568Y-114297387D01*
X85378706Y-114315054D01*
X85577784Y-114399627D01*
X85697932Y-114417892D01*
X85714000Y-114399721D01*
X85796542Y-114362629D01*
X86036137Y-114335287D01*
X86420734Y-114318572D01*
X86899333Y-114313334D01*
X88084667Y-114313334D01*
X88084667Y-114924266D01*
X88952500Y-114868381D01*
X89453777Y-114834500D01*
X89810547Y-114802634D01*
X90047356Y-114765068D01*
X90188750Y-114714087D01*
X90259274Y-114641978D01*
X90283476Y-114541026D01*
X90286000Y-114449288D01*
X90311746Y-114254508D01*
X90419172Y-114125599D01*
X90593959Y-114028508D01*
X90931079Y-113927466D01*
X91144292Y-113934887D01*
X91322348Y-114006647D01*
X91383353Y-114153341D01*
X91386667Y-114235394D01*
X91401935Y-114397488D01*
X91480941Y-114466308D01*
X91673483Y-114480229D01*
X91704167Y-114480053D01*
X92050132Y-114464027D01*
X92423504Y-114425826D01*
X92782286Y-114372402D01*
X93084478Y-114310708D01*
X93288081Y-114247696D01*
X93348678Y-114207816D01*
X93403951Y-114159697D01*
X93417370Y-114242020D01*
X93455444Y-114390166D01*
X93552510Y-114627320D01*
X93650906Y-114830004D01*
X93834588Y-115328792D01*
X93855788Y-115798625D01*
X94116968Y-115798625D01*
X94131726Y-115595983D01*
X94157711Y-115268186D01*
X94228731Y-115038408D01*
X94363874Y-114839715D01*
X94536455Y-114567195D01*
X94638213Y-114270268D01*
X94652062Y-114069975D01*
X94346020Y-114069975D01*
X94337710Y-114281488D01*
X94270865Y-114515685D01*
X94163717Y-114713822D01*
X94034500Y-114817153D01*
X94003998Y-114821334D01*
X93994069Y-114763199D01*
X94072574Y-114618999D01*
X94104579Y-114573838D01*
X94241068Y-114291954D01*
X94241661Y-114271569D01*
X93978865Y-114271569D01*
X93922702Y-114417818D01*
X93832942Y-114482667D01*
X93770875Y-114411894D01*
X93757333Y-114318330D01*
X93795693Y-114159563D01*
X93880810Y-114087580D01*
X93963425Y-114134979D01*
X93978865Y-114271569D01*
X94241661Y-114271569D01*
X94246344Y-114110733D01*
X94239197Y-113968137D01*
X94277564Y-113939892D01*
X94346020Y-114069975D01*
X94652062Y-114069975D01*
X94656683Y-114003146D01*
X94598823Y-113847667D01*
X94096000Y-113847667D01*
X94053667Y-113890000D01*
X94011333Y-113847667D01*
X94053667Y-113805334D01*
X94096000Y-113847667D01*
X94598823Y-113847667D01*
X94594614Y-113836357D01*
X94459865Y-113732804D01*
X93910809Y-113732804D01*
X93893773Y-113780208D01*
X93804651Y-113850360D01*
X93656252Y-113953938D01*
X93597939Y-113950674D01*
X93588000Y-113847667D01*
X93660091Y-113745475D01*
X93778500Y-113723360D01*
X93910809Y-113732804D01*
X94459865Y-113732804D01*
X94423958Y-113705210D01*
X94166064Y-113577492D01*
X93900100Y-113487978D01*
X93752925Y-113466667D01*
X93674013Y-113454674D01*
X93652012Y-113394902D01*
X93689990Y-113251658D01*
X93791016Y-112989251D01*
X93794785Y-112979834D01*
X93994340Y-112310419D01*
X94033885Y-111815667D01*
X93769910Y-111815667D01*
X93746382Y-112072634D01*
X93692210Y-112369554D01*
X93617045Y-112677174D01*
X93530536Y-112966245D01*
X93442334Y-113207515D01*
X93362089Y-113371733D01*
X93299451Y-113429647D01*
X93264071Y-113352007D01*
X93263805Y-113349733D01*
X93235944Y-113105800D01*
X92503621Y-113165220D01*
X92028698Y-113206691D01*
X91697471Y-113245825D01*
X91484573Y-113289855D01*
X91364636Y-113346013D01*
X91312294Y-113421533D01*
X91302000Y-113507843D01*
X91270070Y-113646032D01*
X91142641Y-113665879D01*
X91104675Y-113659464D01*
X90899701Y-113667213D01*
X90642396Y-113734117D01*
X90586335Y-113755872D01*
X90355679Y-113850315D01*
X90242162Y-113871307D01*
X90204479Y-113805140D01*
X90201326Y-113638106D01*
X90201333Y-113628099D01*
X90201333Y-113366197D01*
X89375833Y-113421363D01*
X88883452Y-113456151D01*
X88535236Y-113488986D01*
X88306286Y-113527403D01*
X88171700Y-113578935D01*
X88106578Y-113651120D01*
X88086019Y-113751490D01*
X88084667Y-113812061D01*
X88084667Y-114059334D01*
X85788291Y-114059334D01*
X85841736Y-113699500D01*
X85847351Y-113360053D01*
X85786650Y-112874171D01*
X85705002Y-112450667D01*
X85594413Y-111884005D01*
X85539473Y-111437492D01*
X85544384Y-111069950D01*
X85613351Y-110740197D01*
X85750579Y-110407054D01*
X85950535Y-110045663D01*
X86205525Y-109656423D01*
X86444628Y-109364581D01*
X86624167Y-109211799D01*
X86830466Y-109075395D01*
X86880045Y-109001088D01*
X86770786Y-108981897D01*
X86560667Y-109002462D01*
X86349416Y-109025793D01*
X86231133Y-109029145D01*
X86222000Y-109025125D01*
X86296219Y-108934129D01*
X86492063Y-108812150D01*
X86769314Y-108678007D01*
X87087755Y-108550522D01*
X87407167Y-108448515D01*
X87508578Y-108423042D01*
X88160155Y-108273202D01*
X89023800Y-108605101D01*
X89429773Y-108767747D01*
X89711813Y-108901356D01*
X89907332Y-109028301D01*
X90053739Y-109170953D01*
X90127607Y-109265202D01*
X90278055Y-109453904D01*
X90367097Y-109512914D01*
X90419599Y-109458250D01*
X90421151Y-109454290D01*
X90447696Y-109263756D01*
X90434341Y-109104921D01*
X90436538Y-108937728D01*
X90517779Y-108894667D01*
X90759585Y-108954478D01*
X91075667Y-109119276D01*
X91428225Y-109367111D01*
X91643998Y-109548740D01*
X91867141Y-109746488D01*
X91992764Y-109840854D01*
X92048878Y-109842103D01*
X92063497Y-109760499D01*
X92064000Y-109702642D01*
X92000065Y-109385979D01*
X91802843Y-109023155D01*
X91464214Y-108599828D01*
X91398776Y-108528123D01*
X91197649Y-108308578D01*
X91105554Y-108196174D01*
X91115676Y-108174550D01*
X91221198Y-108227345D01*
X91289693Y-108266266D01*
X91522945Y-108427621D01*
X91711964Y-108603482D01*
X91725211Y-108619500D01*
X91859932Y-108757894D01*
X91955112Y-108810000D01*
X92094365Y-108872888D01*
X92306889Y-109042739D01*
X92563978Y-109291332D01*
X92836926Y-109590448D01*
X93097026Y-109911866D01*
X93153647Y-109988225D01*
X93470246Y-110478128D01*
X93665117Y-110930011D01*
X93757220Y-111400092D01*
X93769910Y-111815667D01*
X94033885Y-111815667D01*
X94047998Y-111639102D01*
X93958446Y-110922759D01*
X93930670Y-110799667D01*
X93769315Y-110122334D01*
X94015047Y-110418667D01*
X94163294Y-110609739D01*
X94252060Y-110747831D01*
X94263056Y-110778500D01*
X94331616Y-110839210D01*
X94359179Y-110842000D01*
X94412866Y-110777275D01*
X94396565Y-110618328D01*
X94324227Y-110418004D01*
X94209803Y-110229146D01*
X94191539Y-110207000D01*
X94007202Y-109982766D01*
X93924900Y-109859785D01*
X93947352Y-109846379D01*
X94077278Y-109950865D01*
X94120853Y-109990776D01*
X94318601Y-110148597D01*
X94421153Y-110174775D01*
X94425359Y-110079797D01*
X94328066Y-109874151D01*
X94211314Y-109689648D01*
X93856959Y-109196564D01*
X93530298Y-108820054D01*
X93188662Y-108522674D01*
X92789381Y-108266976D01*
X92319321Y-108029274D01*
X91904774Y-107844155D01*
X91487471Y-107672461D01*
X91124320Y-107536897D01*
X90929321Y-107474685D01*
X90427001Y-107335027D01*
X90695167Y-107225604D01*
X90874719Y-107145579D01*
X90961790Y-107093492D01*
X90963333Y-107090060D01*
X90885246Y-107077991D01*
X90677292Y-107068631D01*
X90378935Y-107063508D01*
X90264833Y-107063005D01*
X89840610Y-107053394D01*
X89392836Y-107029054D01*
X89016640Y-106995195D01*
X89008345Y-106994195D01*
X88555929Y-106969761D01*
X88004108Y-106988270D01*
X88004108Y-106988270D01*
G37*
X88004108Y-106988270D02*
X87588289Y-107026540D01*
X87192299Y-107075770D01*
X86911246Y-107126918D01*
X86691656Y-107199539D01*
X86480055Y-107313188D01*
X86222967Y-107487419D01*
X86112509Y-107566214D01*
X85757936Y-107813396D01*
X85382037Y-108064817D01*
X85057453Y-108272053D01*
X85013243Y-108299019D01*
X84567158Y-108648177D01*
X84165202Y-109109795D01*
X83851405Y-109626999D01*
X83710867Y-109981354D01*
X83615918Y-110418805D01*
X83554303Y-110956308D01*
X83529177Y-111527295D01*
X83543697Y-112065195D01*
X83593105Y-112465149D01*
X83696259Y-112837945D01*
X83854149Y-113246918D01*
X83987453Y-113518956D01*
X84136137Y-113795380D01*
X84206254Y-113965784D01*
X84207351Y-114068745D01*
X84148978Y-114142844D01*
X84143101Y-114147789D01*
X83925109Y-114427469D01*
X83794499Y-114806784D01*
X83767139Y-115092296D01*
X83817781Y-115619778D01*
X83974176Y-116018093D01*
X84245345Y-116296431D01*
X84640309Y-116463977D01*
X85168087Y-116529919D01*
X85178959Y-116530234D01*
X85522041Y-116552842D01*
X85788751Y-116614444D01*
X86060188Y-116739455D01*
X86260232Y-116855766D01*
X87223089Y-117365548D01*
X88333163Y-117820923D01*
X89575432Y-118215971D01*
X90001888Y-118329561D01*
X90320916Y-118406968D01*
X90540366Y-118442607D01*
X90723958Y-118439511D01*
X90935413Y-118400714D01*
X91030842Y-118378540D01*
X91249381Y-118286992D01*
X91520030Y-118120264D01*
X91708907Y-117976065D01*
X91959083Y-117783287D01*
X92191621Y-117634185D01*
X92318732Y-117574869D01*
X92596441Y-117449991D01*
X92939532Y-117240504D01*
X93296608Y-116983950D01*
X93616275Y-116717875D01*
X93847135Y-116479822D01*
X93882631Y-116432457D01*
X94035724Y-116164499D01*
X94110857Y-115882543D01*
X94116968Y-115798625D01*
X93855788Y-115798625D01*
X93714370Y-116231324D01*
X93675470Y-116298464D01*
X93503780Y-116495688D01*
X93228076Y-116729974D01*
X92897641Y-116966452D01*
X92561758Y-117170255D01*
X92269710Y-117306515D01*
X92233333Y-117318783D01*
X92052694Y-117411254D01*
X91813419Y-117578151D01*
X91648838Y-117712992D01*
X91395105Y-117921231D01*
X91163961Y-118063564D01*
X90924825Y-118141840D01*
X90647119Y-118157908D01*
X90300262Y-118113618D01*
X89853674Y-118010817D01*
X89291388Y-117855548D01*
X88763236Y-117689202D01*
X88220312Y-117491830D01*
X87686328Y-117274868D01*
X87184996Y-117049753D01*
X86740028Y-116827924D01*
X86375136Y-116620817D01*
X86114033Y-116439870D01*
X85980430Y-116296520D01*
X85968000Y-116252540D01*
X85897825Y-116196473D01*
X85735167Y-116220094D01*
X85377622Y-116268601D01*
X84990262Y-116246585D01*
X84623975Y-116164805D01*
X84329649Y-116034018D01*
X84172372Y-115889749D01*
X84128355Y-115757154D01*
X84081188Y-115519705D01*
X84056664Y-115350272D01*
X84052748Y-114882509D01*
X84171117Y-114528073D01*
X84410730Y-114289813D01*
X84451721Y-114267007D01*
X84737751Y-114162112D01*
X85014640Y-114171181D01*
X85343568Y-114297387D01*
X85378706Y-114315054D01*
X85577784Y-114399627D01*
X85697932Y-114417892D01*
X85714000Y-114399721D01*
X85796542Y-114362629D01*
X86036137Y-114335287D01*
X86420734Y-114318572D01*
X86899333Y-114313334D01*
X88084667Y-114313334D01*
X88084667Y-114924266D01*
X88952500Y-114868381D01*
X89453777Y-114834500D01*
X89810547Y-114802634D01*
X90047356Y-114765068D01*
X90188750Y-114714087D01*
X90259274Y-114641978D01*
X90283476Y-114541026D01*
X90286000Y-114449288D01*
X90311746Y-114254508D01*
X90419172Y-114125599D01*
X90593959Y-114028508D01*
X90931079Y-113927466D01*
X91144292Y-113934887D01*
X91322348Y-114006647D01*
X91383353Y-114153341D01*
X91386667Y-114235394D01*
X91401935Y-114397488D01*
X91480941Y-114466308D01*
X91673483Y-114480229D01*
X91704167Y-114480053D01*
X92050132Y-114464027D01*
X92423504Y-114425826D01*
X92782286Y-114372402D01*
X93084478Y-114310708D01*
X93288081Y-114247696D01*
X93348678Y-114207816D01*
X93403951Y-114159697D01*
X93417370Y-114242020D01*
X93455444Y-114390166D01*
X93552510Y-114627320D01*
X93650906Y-114830004D01*
X93834588Y-115328792D01*
X93855788Y-115798625D01*
X94116968Y-115798625D01*
X94131726Y-115595983D01*
X94157711Y-115268186D01*
X94228731Y-115038408D01*
X94363874Y-114839715D01*
X94536455Y-114567195D01*
X94638213Y-114270268D01*
X94652062Y-114069975D01*
X94346020Y-114069975D01*
X94337710Y-114281488D01*
X94270865Y-114515685D01*
X94163717Y-114713822D01*
X94034500Y-114817153D01*
X94003998Y-114821334D01*
X93994069Y-114763199D01*
X94072574Y-114618999D01*
X94104579Y-114573838D01*
X94241068Y-114291954D01*
X94241661Y-114271569D01*
X93978865Y-114271569D01*
X93922702Y-114417818D01*
X93832942Y-114482667D01*
X93770875Y-114411894D01*
X93757333Y-114318330D01*
X93795693Y-114159563D01*
X93880810Y-114087580D01*
X93963425Y-114134979D01*
X93978865Y-114271569D01*
X94241661Y-114271569D01*
X94246344Y-114110733D01*
X94239197Y-113968137D01*
X94277564Y-113939892D01*
X94346020Y-114069975D01*
X94652062Y-114069975D01*
X94656683Y-114003146D01*
X94598823Y-113847667D01*
X94096000Y-113847667D01*
X94053667Y-113890000D01*
X94011333Y-113847667D01*
X94053667Y-113805334D01*
X94096000Y-113847667D01*
X94598823Y-113847667D01*
X94594614Y-113836357D01*
X94459865Y-113732804D01*
X93910809Y-113732804D01*
X93893773Y-113780208D01*
X93804651Y-113850360D01*
X93656252Y-113953938D01*
X93597939Y-113950674D01*
X93588000Y-113847667D01*
X93660091Y-113745475D01*
X93778500Y-113723360D01*
X93910809Y-113732804D01*
X94459865Y-113732804D01*
X94423958Y-113705210D01*
X94166064Y-113577492D01*
X93900100Y-113487978D01*
X93752925Y-113466667D01*
X93674013Y-113454674D01*
X93652012Y-113394902D01*
X93689990Y-113251658D01*
X93791016Y-112989251D01*
X93794785Y-112979834D01*
X93994340Y-112310419D01*
X94033885Y-111815667D01*
X93769910Y-111815667D01*
X93746382Y-112072634D01*
X93692210Y-112369554D01*
X93617045Y-112677174D01*
X93530536Y-112966245D01*
X93442334Y-113207515D01*
X93362089Y-113371733D01*
X93299451Y-113429647D01*
X93264071Y-113352007D01*
X93263805Y-113349733D01*
X93235944Y-113105800D01*
X92503621Y-113165220D01*
X92028698Y-113206691D01*
X91697471Y-113245825D01*
X91484573Y-113289855D01*
X91364636Y-113346013D01*
X91312294Y-113421533D01*
X91302000Y-113507843D01*
X91270070Y-113646032D01*
X91142641Y-113665879D01*
X91104675Y-113659464D01*
X90899701Y-113667213D01*
X90642396Y-113734117D01*
X90586335Y-113755872D01*
X90355679Y-113850315D01*
X90242162Y-113871307D01*
X90204479Y-113805140D01*
X90201326Y-113638106D01*
X90201333Y-113628099D01*
X90201333Y-113366197D01*
X89375833Y-113421363D01*
X88883452Y-113456151D01*
X88535236Y-113488986D01*
X88306286Y-113527403D01*
X88171700Y-113578935D01*
X88106578Y-113651120D01*
X88086019Y-113751490D01*
X88084667Y-113812061D01*
X88084667Y-114059334D01*
X85788291Y-114059334D01*
X85841736Y-113699500D01*
X85847351Y-113360053D01*
X85786650Y-112874171D01*
X85705002Y-112450667D01*
X85594413Y-111884005D01*
X85539473Y-111437492D01*
X85544384Y-111069950D01*
X85613351Y-110740197D01*
X85750579Y-110407054D01*
X85950535Y-110045663D01*
X86205525Y-109656423D01*
X86444628Y-109364581D01*
X86624167Y-109211799D01*
X86830466Y-109075395D01*
X86880045Y-109001088D01*
X86770786Y-108981897D01*
X86560667Y-109002462D01*
X86349416Y-109025793D01*
X86231133Y-109029145D01*
X86222000Y-109025125D01*
X86296219Y-108934129D01*
X86492063Y-108812150D01*
X86769314Y-108678007D01*
X87087755Y-108550522D01*
X87407167Y-108448515D01*
X87508578Y-108423042D01*
X88160155Y-108273202D01*
X89023800Y-108605101D01*
X89429773Y-108767747D01*
X89711813Y-108901356D01*
X89907332Y-109028301D01*
X90053739Y-109170953D01*
X90127607Y-109265202D01*
X90278055Y-109453904D01*
X90367097Y-109512914D01*
X90419599Y-109458250D01*
X90421151Y-109454290D01*
X90447696Y-109263756D01*
X90434341Y-109104921D01*
X90436538Y-108937728D01*
X90517779Y-108894667D01*
X90759585Y-108954478D01*
X91075667Y-109119276D01*
X91428225Y-109367111D01*
X91643998Y-109548740D01*
X91867141Y-109746488D01*
X91992764Y-109840854D01*
X92048878Y-109842103D01*
X92063497Y-109760499D01*
X92064000Y-109702642D01*
X92000065Y-109385979D01*
X91802843Y-109023155D01*
X91464214Y-108599828D01*
X91398776Y-108528123D01*
X91197649Y-108308578D01*
X91105554Y-108196174D01*
X91115676Y-108174550D01*
X91221198Y-108227345D01*
X91289693Y-108266266D01*
X91522945Y-108427621D01*
X91711964Y-108603482D01*
X91725211Y-108619500D01*
X91859932Y-108757894D01*
X91955112Y-108810000D01*
X92094365Y-108872888D01*
X92306889Y-109042739D01*
X92563978Y-109291332D01*
X92836926Y-109590448D01*
X93097026Y-109911866D01*
X93153647Y-109988225D01*
X93470246Y-110478128D01*
X93665117Y-110930011D01*
X93757220Y-111400092D01*
X93769910Y-111815667D01*
X94033885Y-111815667D01*
X94047998Y-111639102D01*
X93958446Y-110922759D01*
X93930670Y-110799667D01*
X93769315Y-110122334D01*
X94015047Y-110418667D01*
X94163294Y-110609739D01*
X94252060Y-110747831D01*
X94263056Y-110778500D01*
X94331616Y-110839210D01*
X94359179Y-110842000D01*
X94412866Y-110777275D01*
X94396565Y-110618328D01*
X94324227Y-110418004D01*
X94209803Y-110229146D01*
X94191539Y-110207000D01*
X94007202Y-109982766D01*
X93924900Y-109859785D01*
X93947352Y-109846379D01*
X94077278Y-109950865D01*
X94120853Y-109990776D01*
X94318601Y-110148597D01*
X94421153Y-110174775D01*
X94425359Y-110079797D01*
X94328066Y-109874151D01*
X94211314Y-109689648D01*
X93856959Y-109196564D01*
X93530298Y-108820054D01*
X93188662Y-108522674D01*
X92789381Y-108266976D01*
X92319321Y-108029274D01*
X91904774Y-107844155D01*
X91487471Y-107672461D01*
X91124320Y-107536897D01*
X90929321Y-107474685D01*
X90427001Y-107335027D01*
X90695167Y-107225604D01*
X90874719Y-107145579D01*
X90961790Y-107093492D01*
X90963333Y-107090060D01*
X90885246Y-107077991D01*
X90677292Y-107068631D01*
X90378935Y-107063508D01*
X90264833Y-107063005D01*
X89840610Y-107053394D01*
X89392836Y-107029054D01*
X89016640Y-106995195D01*
X89008345Y-106994195D01*
X88555929Y-106969761D01*
X88004108Y-106988270D01*
G36*
X90533377Y-116232360D02*
X90163281Y-116405963D01*
X89926167Y-116580332D01*
X89808571Y-116714780D01*
X89808599Y-116826522D01*
X89940162Y-116929979D01*
X90217170Y-117039573D01*
X90434167Y-117106984D01*
X90753064Y-117201933D01*
X91012685Y-117280765D01*
X91167125Y-117329501D01*
X91183873Y-117335326D01*
X91264919Y-117283566D01*
X91375689Y-117116275D01*
X91217333Y-117116275D01*
X91203759Y-117185608D01*
X91141779Y-117209180D01*
X90999504Y-117183647D01*
X90745046Y-117105668D01*
X90574482Y-117048892D01*
X90258133Y-116938009D01*
X90079305Y-116859000D01*
X90013192Y-116795538D01*
X90034985Y-116731296D01*
X90056434Y-116707947D01*
X90278273Y-116593118D01*
X90565444Y-116579255D01*
X90850546Y-116662178D01*
X91003578Y-116766705D01*
X91149926Y-116944769D01*
X91216896Y-117106326D01*
X91217333Y-117116275D01*
X91375689Y-117116275D01*
X91377357Y-117113756D01*
X91466345Y-116930831D01*
X91655277Y-116491647D01*
X91477744Y-116314114D01*
X91231330Y-116179449D01*
X90902967Y-116154527D01*
X90533377Y-116232360D01*
X90533377Y-116232360D01*
G37*
X90533377Y-116232360D02*
X90163281Y-116405963D01*
X89926167Y-116580332D01*
X89808571Y-116714780D01*
X89808599Y-116826522D01*
X89940162Y-116929979D01*
X90217170Y-117039573D01*
X90434167Y-117106984D01*
X90753064Y-117201933D01*
X91012685Y-117280765D01*
X91167125Y-117329501D01*
X91183873Y-117335326D01*
X91264919Y-117283566D01*
X91375689Y-117116275D01*
X91217333Y-117116275D01*
X91203759Y-117185608D01*
X91141779Y-117209180D01*
X90999504Y-117183647D01*
X90745046Y-117105668D01*
X90574482Y-117048892D01*
X90258133Y-116938009D01*
X90079305Y-116859000D01*
X90013192Y-116795538D01*
X90034985Y-116731296D01*
X90056434Y-116707947D01*
X90278273Y-116593118D01*
X90565444Y-116579255D01*
X90850546Y-116662178D01*
X91003578Y-116766705D01*
X91149926Y-116944769D01*
X91216896Y-117106326D01*
X91217333Y-117116275D01*
X91375689Y-117116275D01*
X91377357Y-117113756D01*
X91466345Y-116930831D01*
X91655277Y-116491647D01*
X91477744Y-116314114D01*
X91231330Y-116179449D01*
X90902967Y-116154527D01*
X90533377Y-116232360D01*
G36*
X85089728Y-114433507D02*
X84781609Y-114562327D01*
X84598082Y-114781998D01*
X84546415Y-115061268D01*
X84633878Y-115368886D01*
X84813831Y-115619638D01*
X85022437Y-115823970D01*
X85165612Y-115907847D01*
X85281014Y-115885154D01*
X85358400Y-115820400D01*
X85433667Y-115666795D01*
X85465951Y-115460567D01*
X85491491Y-115215535D01*
X85536161Y-115038196D01*
X85544799Y-114826922D01*
X85535741Y-114800109D01*
X85327762Y-114800109D01*
X85283606Y-115023469D01*
X85261275Y-115081510D01*
X85192827Y-115300519D01*
X85177822Y-115461806D01*
X85181740Y-115477558D01*
X85182413Y-115559512D01*
X85109196Y-115542638D01*
X85001871Y-115453617D01*
X84900218Y-115319130D01*
X84876184Y-115272614D01*
X84815041Y-115005280D01*
X84890504Y-114804356D01*
X85059177Y-114706248D01*
X85253654Y-114695672D01*
X85327762Y-114800109D01*
X85535741Y-114800109D01*
X85477438Y-114627534D01*
X85368550Y-114459170D01*
X85232918Y-114414083D01*
X85089728Y-114433507D01*
X85089728Y-114433507D01*
G37*
X85089728Y-114433507D02*
X84781609Y-114562327D01*
X84598082Y-114781998D01*
X84546415Y-115061268D01*
X84633878Y-115368886D01*
X84813831Y-115619638D01*
X85022437Y-115823970D01*
X85165612Y-115907847D01*
X85281014Y-115885154D01*
X85358400Y-115820400D01*
X85433667Y-115666795D01*
X85465951Y-115460567D01*
X85491491Y-115215535D01*
X85536161Y-115038196D01*
X85544799Y-114826922D01*
X85535741Y-114800109D01*
X85327762Y-114800109D01*
X85283606Y-115023469D01*
X85261275Y-115081510D01*
X85192827Y-115300519D01*
X85177822Y-115461806D01*
X85181740Y-115477558D01*
X85182413Y-115559512D01*
X85109196Y-115542638D01*
X85001871Y-115453617D01*
X84900218Y-115319130D01*
X84876184Y-115272614D01*
X84815041Y-115005280D01*
X84890504Y-114804356D01*
X85059177Y-114706248D01*
X85253654Y-114695672D01*
X85327762Y-114800109D01*
X85535741Y-114800109D01*
X85477438Y-114627534D01*
X85368550Y-114459170D01*
X85232918Y-114414083D01*
X85089728Y-114433507D01*
G36*
X90425990Y-115327578D02*
X90416449Y-115335818D01*
X90393095Y-115443374D01*
X90492682Y-115546700D01*
X90677701Y-115654759D01*
X90792433Y-115638102D01*
X90832753Y-115589127D01*
X90817352Y-115484982D01*
X90701558Y-115380593D01*
X90549671Y-115315083D01*
X90425990Y-115327578D01*
X90425990Y-115327578D01*
G37*
X90425990Y-115327578D02*
X90416449Y-115335818D01*
X90393095Y-115443374D01*
X90492682Y-115546700D01*
X90677701Y-115654759D01*
X90792433Y-115638102D01*
X90832753Y-115589127D01*
X90817352Y-115484982D01*
X90701558Y-115380593D01*
X90549671Y-115315083D01*
X90425990Y-115327578D01*
G36*
X91361842Y-115131122D02*
X91245105Y-115239366D01*
X91181093Y-115384985D01*
X91187656Y-115458784D01*
X91274739Y-115573663D01*
X91400647Y-115530482D01*
X91454400Y-115481734D01*
X91548052Y-115313572D01*
X91520652Y-115160921D01*
X91478159Y-115121885D01*
X91361842Y-115131122D01*
X91361842Y-115131122D01*
G37*
X91361842Y-115131122D02*
X91245105Y-115239366D01*
X91181093Y-115384985D01*
X91187656Y-115458784D01*
X91274739Y-115573663D01*
X91400647Y-115530482D01*
X91454400Y-115481734D01*
X91548052Y-115313572D01*
X91520652Y-115160921D01*
X91478159Y-115121885D01*
X91361842Y-115131122D01*
G36*
X90691764Y-114870767D02*
X90383920Y-114984379D01*
X90223241Y-115099608D01*
X90092767Y-115257873D01*
X90050695Y-115368859D01*
X90057657Y-115383212D01*
X90111721Y-115377226D01*
X90116667Y-115342200D01*
X90193784Y-115191861D01*
X90395867Y-115064467D01*
X90679015Y-114970404D01*
X90999329Y-114920060D01*
X91312906Y-114923819D01*
X91575847Y-114992070D01*
X91582733Y-114995338D01*
X91709741Y-115053785D01*
X91697774Y-115029023D01*
X91598333Y-114946338D01*
X91360429Y-114844896D01*
X91037753Y-114821989D01*
X90691764Y-114870767D01*
X90691764Y-114870767D01*
G37*
X90691764Y-114870767D02*
X90383920Y-114984379D01*
X90223241Y-115099608D01*
X90092767Y-115257873D01*
X90050695Y-115368859D01*
X90057657Y-115383212D01*
X90111721Y-115377226D01*
X90116667Y-115342200D01*
X90193784Y-115191861D01*
X90395867Y-115064467D01*
X90679015Y-114970404D01*
X90999329Y-114920060D01*
X91312906Y-114923819D01*
X91575847Y-114992070D01*
X91582733Y-114995338D01*
X91709741Y-115053785D01*
X91697774Y-115029023D01*
X91598333Y-114946338D01*
X91360429Y-114844896D01*
X91037753Y-114821989D01*
X90691764Y-114870767D01*
G36*
X88666432Y-111658371D02*
X88392917Y-111802654D01*
X88350073Y-111826282D01*
X88044660Y-111994808D01*
X87860456Y-112101347D01*
X87772014Y-112168567D01*
X87753888Y-112219132D01*
X87780632Y-112275710D01*
X87803011Y-112313574D01*
X87861304Y-112369478D01*
X87964771Y-112363601D01*
X88146732Y-112286513D01*
X88424605Y-112137642D01*
X88692412Y-111988067D01*
X88894832Y-111873981D01*
X88993389Y-111817088D01*
X88996826Y-111814836D01*
X88990956Y-111733719D01*
X88965900Y-111656623D01*
X88920555Y-111594273D01*
X88831522Y-111591884D01*
X88666432Y-111658371D01*
X88666432Y-111658371D01*
G37*
X88666432Y-111658371D02*
X88392917Y-111802654D01*
X88350073Y-111826282D01*
X88044660Y-111994808D01*
X87860456Y-112101347D01*
X87772014Y-112168567D01*
X87753888Y-112219132D01*
X87780632Y-112275710D01*
X87803011Y-112313574D01*
X87861304Y-112369478D01*
X87964771Y-112363601D01*
X88146732Y-112286513D01*
X88424605Y-112137642D01*
X88692412Y-111988067D01*
X88894832Y-111873981D01*
X88993389Y-111817088D01*
X88996826Y-111814836D01*
X88990956Y-111733719D01*
X88965900Y-111656623D01*
X88920555Y-111594273D01*
X88831522Y-111591884D01*
X88666432Y-111658371D01*
G36*
X92209348Y-111571797D02*
X92121176Y-111638184D01*
X92131737Y-111723556D01*
X92261213Y-111783208D01*
X92470562Y-111822519D01*
X92764332Y-111892076D01*
X93023627Y-111996572D01*
X93089557Y-112036213D01*
X93256748Y-112128317D01*
X93361539Y-112140374D01*
X93364724Y-112137721D01*
X93413776Y-112030146D01*
X93332834Y-111906139D01*
X93185833Y-111790479D01*
X92951487Y-111669087D01*
X92676957Y-111587360D01*
X92412743Y-111552521D01*
X92209348Y-111571797D01*
X92209348Y-111571797D01*
G37*
X92209348Y-111571797D02*
X92121176Y-111638184D01*
X92131737Y-111723556D01*
X92261213Y-111783208D01*
X92470562Y-111822519D01*
X92764332Y-111892076D01*
X93023627Y-111996572D01*
X93089557Y-112036213D01*
X93256748Y-112128317D01*
X93361539Y-112140374D01*
X93364724Y-112137721D01*
X93413776Y-112030146D01*
X93332834Y-111906139D01*
X93185833Y-111790479D01*
X92951487Y-111669087D01*
X92676957Y-111587360D01*
X92412743Y-111552521D01*
X92209348Y-111571797D01*
D11*
X210714285Y-189928571D02*
X211047619Y-189928571D01*
X211047619Y-190452381D02*
X211047619Y-189452381D01*
X210571428Y-189452381D01*
X209666666Y-190452381D02*
X210238095Y-190452381D01*
X209952381Y-190452381D02*
X209952381Y-189452381D01*
X210047619Y-189595238D01*
X210142857Y-189690476D01*
X210238095Y-189738095D01*
D12*
M02*
