G04 #@! TF.FileFunction,Copper,L2,Bot,Signal*
%FSLAX46Y46*%
G04 Gerber Fmt 4.6, Leading zero omitted, Abs format (unit mm)*
G04 Created by KiCad (PCBNEW 4.0.6) date 04/27/17 23:51:26*
%MOMM*%
%LPD*%
G01*
G04 APERTURE LIST*
%ADD10C,0.100000*%
%ADD11C,0.150000*%
%ADD12C,1.000000*%
%ADD13R,1.700000X2.000000*%
%ADD14R,2.000000X1.700000*%
%ADD15R,6.500000X9.000000*%
%ADD16R,1.500000X1.500000*%
%ADD17R,5.000000X5.000000*%
%ADD18R,5.000000X4.000000*%
%ADD19R,1.000000X1.500000*%
%ADD20R,1.600000X2.400000*%
%ADD21C,0.600000*%
%ADD22C,0.400000*%
%ADD23C,0.127000*%
G04 APERTURE END LIST*
D10*
D11*
X115000000Y-139000000D02*
X115000000Y-107500000D01*
X67250000Y-139000000D02*
X115000000Y-139000000D01*
X67000000Y-139000000D02*
X67250000Y-139000000D01*
X67000000Y-107500000D02*
X67000000Y-139000000D01*
X115000000Y-107500000D02*
X67000000Y-107500000D01*
D12*
X74000000Y-109500000D03*
D13*
X89270000Y-113330000D03*
X89270000Y-117330000D03*
D14*
X92500000Y-112000000D03*
X96500000Y-112000000D03*
X104000000Y-114500000D03*
X108000000Y-114500000D03*
X81510000Y-113070000D03*
X85510000Y-113070000D03*
X81510000Y-110500000D03*
X85510000Y-110500000D03*
D15*
X98310000Y-118400000D03*
D16*
X96560000Y-121900000D03*
X96560000Y-114900000D03*
X98560000Y-114900000D03*
X100560000Y-114900000D03*
X98560000Y-121900000D03*
X95810000Y-116650000D03*
X95810000Y-120150000D03*
X100560000Y-121900000D03*
X95810000Y-118400000D03*
D17*
X71680000Y-134400000D03*
X76690000Y-134400000D03*
D18*
X71680000Y-130400000D03*
X76690000Y-130400000D03*
D17*
X71680000Y-126400000D03*
X76690000Y-126400000D03*
X94180000Y-134400000D03*
X99190000Y-134400000D03*
D18*
X94180000Y-130400000D03*
X99190000Y-130400000D03*
D17*
X94180000Y-126400000D03*
X99190000Y-126400000D03*
X82930000Y-134400000D03*
X87940000Y-134400000D03*
D18*
X82930000Y-130400000D03*
X87940000Y-130400000D03*
D17*
X82930000Y-126400000D03*
X87940000Y-126400000D03*
X105430000Y-134400000D03*
X110440000Y-134400000D03*
D18*
X105430000Y-130400000D03*
X110440000Y-130400000D03*
D17*
X105430000Y-126400000D03*
X110440000Y-126400000D03*
D19*
X82830000Y-115750000D03*
X84100000Y-115750000D03*
X84100000Y-122250000D03*
X82830000Y-122250000D03*
D20*
X86040000Y-121540000D03*
X86040000Y-116460000D03*
X80960000Y-116460000D03*
X80960000Y-121540000D03*
D21*
X74000000Y-109500000D03*
X103390000Y-120310000D03*
X103390000Y-119040000D03*
X71920000Y-121790000D03*
X89000000Y-121480000D03*
X76670000Y-121820000D03*
X72010000Y-116840000D03*
X76500000Y-116750000D03*
X103390000Y-116490000D03*
D22*
X103430000Y-120340000D02*
X103420000Y-120340000D01*
X103420000Y-120340000D02*
X103390000Y-120310000D01*
X103390000Y-119040000D02*
X103370000Y-119020000D01*
X89270000Y-113330000D02*
X89270000Y-110710000D01*
X89270000Y-110710000D02*
X87210000Y-108650000D01*
X87210000Y-108650000D02*
X77740000Y-108650000D01*
X77740000Y-108650000D02*
X69630000Y-116760000D01*
X69630000Y-124350000D02*
X70680000Y-125400000D01*
X69630000Y-116760000D02*
X69630000Y-124350000D01*
X80960000Y-121540000D02*
X80960000Y-124430000D01*
X80960000Y-124430000D02*
X81930000Y-125400000D01*
X82830000Y-122250000D02*
X81670000Y-122250000D01*
X81670000Y-122250000D02*
X80960000Y-121540000D01*
X85510000Y-113070000D02*
X85510000Y-115930000D01*
X85510000Y-115930000D02*
X86040000Y-116460000D01*
X85330000Y-115750000D02*
X86040000Y-116460000D01*
X84100000Y-115750000D02*
X84100000Y-118080000D01*
X84100000Y-115750000D02*
X85330000Y-115750000D01*
X84100000Y-118080000D02*
X82870000Y-119310000D01*
X82870000Y-119310000D02*
X74400000Y-119310000D01*
X74400000Y-119310000D02*
X71920000Y-121790000D01*
X89270000Y-117330000D02*
X89270000Y-121210000D01*
X89270000Y-121210000D02*
X89000000Y-121480000D01*
X81510000Y-113070000D02*
X81360000Y-113070000D01*
X81360000Y-113070000D02*
X78570000Y-115860000D01*
X73670000Y-117210000D02*
X73670000Y-116320000D01*
X78570000Y-115860000D02*
X78570000Y-116690000D01*
X78570000Y-116690000D02*
X77464810Y-117795190D01*
X70520000Y-116866750D02*
X70520000Y-122270000D01*
X77464810Y-117795190D02*
X74255190Y-117795190D01*
X73670000Y-116320000D02*
X73090000Y-115740000D01*
X74255190Y-117795190D02*
X73670000Y-117210000D01*
X73090000Y-115740000D02*
X71646750Y-115740000D01*
X71250000Y-123000000D02*
X75500000Y-123000000D01*
X71646750Y-115740000D02*
X70520000Y-116866750D01*
X70520000Y-122270000D02*
X71250000Y-123000000D01*
X75500000Y-123000000D02*
X76495000Y-122005000D01*
X76495000Y-122005000D02*
X76495000Y-121995000D01*
X76495000Y-121995000D02*
X76670000Y-121820000D01*
X76495000Y-122005000D02*
X76500000Y-122000000D01*
X85510000Y-110500000D02*
X85360000Y-110500000D01*
X85360000Y-110500000D02*
X84780000Y-111080000D01*
X84780000Y-111080000D02*
X83670000Y-111080000D01*
X83670000Y-111080000D02*
X83350000Y-111400000D01*
X83350000Y-111400000D02*
X83350000Y-112650000D01*
X83350000Y-112650000D02*
X82930000Y-113070000D01*
X82930000Y-113070000D02*
X81510000Y-113070000D01*
X81550000Y-113070000D02*
X81510000Y-113070000D01*
X81510000Y-113070000D02*
X80900000Y-113070000D01*
X82830000Y-115750000D02*
X82830000Y-117920000D01*
X82250000Y-118500000D02*
X73245736Y-118500000D01*
X82830000Y-117920000D02*
X82250000Y-118500000D01*
X73245736Y-118500000D02*
X72010000Y-117264264D01*
X72010000Y-117264264D02*
X72010000Y-116840000D01*
X82830000Y-115750000D02*
X81670000Y-115750000D01*
X81670000Y-115750000D02*
X80960000Y-116460000D01*
X81510000Y-110500000D02*
X78250000Y-110500000D01*
X76500000Y-112250000D02*
X76500000Y-116750000D01*
X78250000Y-110500000D02*
X76500000Y-112250000D01*
X81510000Y-110600000D02*
X81510000Y-110500000D01*
X90970000Y-113000000D02*
X90970000Y-114950000D01*
X90970000Y-112130000D02*
X90970000Y-113000000D01*
X90970000Y-113000000D02*
X90970000Y-112660000D01*
X87740000Y-118690000D02*
X87740000Y-115780000D01*
X90750000Y-115170000D02*
X88350000Y-115170000D01*
X88350000Y-115170000D02*
X87740000Y-115780000D01*
X90970000Y-114950000D02*
X90750000Y-115170000D01*
X92500000Y-112000000D02*
X91100000Y-112000000D01*
X91100000Y-112000000D02*
X90970000Y-112130000D01*
X86040000Y-121540000D02*
X86040000Y-120390000D01*
X86040000Y-120390000D02*
X87740000Y-118690000D01*
X84100000Y-122250000D02*
X85330000Y-122250000D01*
X85330000Y-122250000D02*
X86040000Y-121540000D01*
X104000000Y-114500000D02*
X103120000Y-115380000D01*
X103120000Y-116220000D02*
X103120000Y-115380000D01*
X103120000Y-116220000D02*
X103390000Y-116490000D01*
X104000000Y-114500000D02*
X104000000Y-112990000D01*
X103010000Y-112000000D02*
X96500000Y-112000000D01*
X104000000Y-112990000D02*
X103010000Y-112000000D01*
D23*
G36*
X112936500Y-136936500D02*
X102813500Y-136936500D01*
X102813500Y-116845326D01*
X102822943Y-116868180D01*
X103010831Y-117056397D01*
X103256444Y-117158384D01*
X103522390Y-117158616D01*
X103768180Y-117057057D01*
X103956397Y-116869169D01*
X104058384Y-116623556D01*
X104058616Y-116357610D01*
X103957057Y-116111820D01*
X103908821Y-116063500D01*
X106000000Y-116063500D01*
X106024705Y-116058497D01*
X106045517Y-116044277D01*
X106059157Y-116023080D01*
X106063500Y-116000000D01*
X106063500Y-113063500D01*
X112936500Y-113063500D01*
X112936500Y-136936500D01*
X112936500Y-136936500D01*
G37*
X112936500Y-136936500D02*
X102813500Y-136936500D01*
X102813500Y-116845326D01*
X102822943Y-116868180D01*
X103010831Y-117056397D01*
X103256444Y-117158384D01*
X103522390Y-117158616D01*
X103768180Y-117057057D01*
X103956397Y-116869169D01*
X104058384Y-116623556D01*
X104058616Y-116357610D01*
X103957057Y-116111820D01*
X103908821Y-116063500D01*
X106000000Y-116063500D01*
X106024705Y-116058497D01*
X106045517Y-116044277D01*
X106059157Y-116023080D01*
X106063500Y-116000000D01*
X106063500Y-113063500D01*
X112936500Y-113063500D01*
X112936500Y-136936500D01*
G36*
X101686500Y-136936500D02*
X91813500Y-136936500D01*
X91813500Y-113813500D01*
X101686500Y-113813500D01*
X101686500Y-136936500D01*
X101686500Y-136936500D01*
G37*
X101686500Y-136936500D02*
X91813500Y-136936500D01*
X91813500Y-113813500D01*
X101686500Y-113813500D01*
X101686500Y-136936500D01*
G36*
X82936500Y-123750000D02*
X82941503Y-123774705D01*
X82955723Y-123795517D01*
X82976920Y-123809157D01*
X83000000Y-123813500D01*
X90436500Y-123813500D01*
X90436500Y-136936500D01*
X69063500Y-136936500D01*
X69063500Y-123813500D01*
X79500000Y-123813500D01*
X79524705Y-123808497D01*
X79545517Y-123794277D01*
X79559157Y-123773080D01*
X79563500Y-123750000D01*
X79563500Y-120063500D01*
X82936500Y-120063500D01*
X82936500Y-123750000D01*
X82936500Y-123750000D01*
G37*
X82936500Y-123750000D02*
X82941503Y-123774705D01*
X82955723Y-123795517D01*
X82976920Y-123809157D01*
X83000000Y-123813500D01*
X90436500Y-123813500D01*
X90436500Y-136936500D01*
X69063500Y-136936500D01*
X69063500Y-123813500D01*
X79500000Y-123813500D01*
X79524705Y-123808497D01*
X79545517Y-123794277D01*
X79559157Y-123773080D01*
X79563500Y-123750000D01*
X79563500Y-120063500D01*
X82936500Y-120063500D01*
X82936500Y-123750000D01*
M02*
