G04 #@! TF.FileFunction,Legend,Bot*
%FSLAX46Y46*%
G04 Gerber Fmt 4.6, Leading zero omitted, Abs format (unit mm)*
G04 Created by KiCad (PCBNEW 4.0.5) date 02/12/17 12:32:31*
%MOMM*%
%LPD*%
G01*
G04 APERTURE LIST*
%ADD10C,0.100000*%
%ADD11C,0.150000*%
%ADD12C,0.300000*%
%ADD13C,0.400000*%
%ADD14C,0.250000*%
%ADD15C,0.010000*%
G04 APERTURE END LIST*
D10*
D11*
X79999600Y-155999600D02*
X79999600Y-187999600D01*
X187999600Y-187999600D01*
X187999600Y-155999600D01*
X79999600Y-155999600D01*
D10*
D11*
X10000000Y-10000000D02*
X10000000Y-189999600D01*
X189999600Y-189999600D01*
X189999600Y-10000000D01*
X10000000Y-10000000D01*
D10*
D11*
X12000000Y-12000000D02*
X12000000Y-187999600D01*
X187999600Y-187999600D01*
X187999600Y-12000000D01*
X12000000Y-12000000D01*
D10*
D11*
X60000000Y-12000000D02*
X60000000Y-10000000D01*
D10*
D11*
X110000000Y-12000000D02*
X110000000Y-10000000D01*
D10*
D11*
X160000000Y-12000000D02*
X160000000Y-10000000D01*
D10*
D11*
X35990476Y-11588095D02*
X35247619Y-11588095D01*
X35619048Y-11588095D02*
X35619048Y-10288095D01*
X35495238Y-10473810D01*
X35371429Y-10597619D01*
X35247619Y-10659524D01*
D10*
D11*
X85247619Y-10411905D02*
X85309524Y-10350000D01*
X85433333Y-10288095D01*
X85742857Y-10288095D01*
X85866667Y-10350000D01*
X85928571Y-10411905D01*
X85990476Y-10535714D01*
X85990476Y-10659524D01*
X85928571Y-10845238D01*
X85185714Y-11588095D01*
X85990476Y-11588095D01*
D10*
D11*
X135185714Y-10288095D02*
X135990476Y-10288095D01*
X135557143Y-10783333D01*
X135742857Y-10783333D01*
X135866667Y-10845238D01*
X135928571Y-10907143D01*
X135990476Y-11030952D01*
X135990476Y-11340476D01*
X135928571Y-11464286D01*
X135866667Y-11526190D01*
X135742857Y-11588095D01*
X135371429Y-11588095D01*
X135247619Y-11526190D01*
X135185714Y-11464286D01*
D10*
D11*
X185866667Y-10721429D02*
X185866667Y-11588095D01*
X185557143Y-10226190D02*
X185247619Y-11154762D01*
X186052381Y-11154762D01*
D10*
D11*
X60000000Y-187999600D02*
X60000000Y-189999600D01*
D10*
D11*
X110000000Y-187999600D02*
X110000000Y-189999600D01*
D10*
D11*
X160000000Y-187999600D02*
X160000000Y-189999600D01*
D10*
D11*
X35990476Y-189587695D02*
X35247619Y-189587695D01*
X35619048Y-189587695D02*
X35619048Y-188287695D01*
X35495238Y-188473410D01*
X35371429Y-188597219D01*
X35247619Y-188659124D01*
D10*
D11*
X85247619Y-188411505D02*
X85309524Y-188349600D01*
X85433333Y-188287695D01*
X85742857Y-188287695D01*
X85866667Y-188349600D01*
X85928571Y-188411505D01*
X85990476Y-188535314D01*
X85990476Y-188659124D01*
X85928571Y-188844838D01*
X85185714Y-189587695D01*
X85990476Y-189587695D01*
D10*
D11*
X135185714Y-188287695D02*
X135990476Y-188287695D01*
X135557143Y-188782933D01*
X135742857Y-188782933D01*
X135866667Y-188844838D01*
X135928571Y-188906743D01*
X135990476Y-189030552D01*
X135990476Y-189340076D01*
X135928571Y-189463886D01*
X135866667Y-189525790D01*
X135742857Y-189587695D01*
X135371429Y-189587695D01*
X135247619Y-189525790D01*
X135185714Y-189463886D01*
D10*
D11*
X185866667Y-188721029D02*
X185866667Y-189587695D01*
X185557143Y-188225790D02*
X185247619Y-189154362D01*
X186052381Y-189154362D01*
D10*
D11*
X10000000Y-60000000D02*
X12000000Y-60000000D01*
D10*
D11*
X10000000Y-110000000D02*
X12000000Y-110000000D01*
D10*
D11*
X10000000Y-160000000D02*
X12000000Y-160000000D01*
D10*
D11*
X10690476Y-35216667D02*
X11309524Y-35216667D01*
X10566667Y-35588095D02*
X11000000Y-34288095D01*
X11433333Y-35588095D01*
D10*
D11*
X11092857Y-84907143D02*
X11278571Y-84969048D01*
X11340476Y-85030952D01*
X11402381Y-85154762D01*
X11402381Y-85340476D01*
X11340476Y-85464286D01*
X11278571Y-85526190D01*
X11154762Y-85588095D01*
X10659524Y-85588095D01*
X10659524Y-84288095D01*
X11092857Y-84288095D01*
X11216667Y-84350000D01*
X11278571Y-84411905D01*
X11340476Y-84535714D01*
X11340476Y-84659524D01*
X11278571Y-84783333D01*
X11216667Y-84845238D01*
X11092857Y-84907143D01*
X10659524Y-84907143D01*
D10*
D11*
X11402381Y-135464286D02*
X11340476Y-135526190D01*
X11154762Y-135588095D01*
X11030952Y-135588095D01*
X10845238Y-135526190D01*
X10721429Y-135402381D01*
X10659524Y-135278571D01*
X10597619Y-135030952D01*
X10597619Y-134845238D01*
X10659524Y-134597619D01*
X10721429Y-134473810D01*
X10845238Y-134350000D01*
X11030952Y-134288095D01*
X11154762Y-134288095D01*
X11340476Y-134350000D01*
X11402381Y-134411905D01*
D10*
D11*
X10659524Y-185588095D02*
X10659524Y-184288095D01*
X10969048Y-184288095D01*
X11154762Y-184350000D01*
X11278571Y-184473810D01*
X11340476Y-184597619D01*
X11402381Y-184845238D01*
X11402381Y-185030952D01*
X11340476Y-185278571D01*
X11278571Y-185402381D01*
X11154762Y-185526190D01*
X10969048Y-185588095D01*
X10659524Y-185588095D01*
D10*
D11*
X189999600Y-60000000D02*
X187999600Y-60000000D01*
D10*
D11*
X189999600Y-110000000D02*
X187999600Y-110000000D01*
D10*
D11*
X189999600Y-160000000D02*
X187999600Y-160000000D01*
D10*
D11*
X188690076Y-35216667D02*
X189309124Y-35216667D01*
X188566267Y-35588095D02*
X188999600Y-34288095D01*
X189432933Y-35588095D01*
D10*
D11*
X189092457Y-84907143D02*
X189278171Y-84969048D01*
X189340076Y-85030952D01*
X189401981Y-85154762D01*
X189401981Y-85340476D01*
X189340076Y-85464286D01*
X189278171Y-85526190D01*
X189154362Y-85588095D01*
X188659124Y-85588095D01*
X188659124Y-84288095D01*
X189092457Y-84288095D01*
X189216267Y-84350000D01*
X189278171Y-84411905D01*
X189340076Y-84535714D01*
X189340076Y-84659524D01*
X189278171Y-84783333D01*
X189216267Y-84845238D01*
X189092457Y-84907143D01*
X188659124Y-84907143D01*
D10*
D11*
X189401981Y-135464286D02*
X189340076Y-135526190D01*
X189154362Y-135588095D01*
X189030552Y-135588095D01*
X188844838Y-135526190D01*
X188721029Y-135402381D01*
X188659124Y-135278571D01*
X188597219Y-135030952D01*
X188597219Y-134845238D01*
X188659124Y-134597619D01*
X188721029Y-134473810D01*
X188844838Y-134350000D01*
X189030552Y-134288095D01*
X189154362Y-134288095D01*
X189340076Y-134350000D01*
X189401981Y-134411905D01*
D10*
D11*
X188659124Y-185588095D02*
X188659124Y-184288095D01*
X188968648Y-184288095D01*
X189154362Y-184350000D01*
X189278171Y-184473810D01*
X189340076Y-184597619D01*
X189401981Y-184845238D01*
X189401981Y-185030952D01*
X189340076Y-185278571D01*
X189278171Y-185402381D01*
X189154362Y-185526190D01*
X188968648Y-185588095D01*
X188659124Y-185588095D01*
D10*
D11*
X103356743Y-183778171D02*
X103356743Y-182278171D01*
X103713886Y-182278171D01*
X103928171Y-182349600D01*
X104071029Y-182492457D01*
X104142457Y-182635314D01*
X104213886Y-182921029D01*
X104213886Y-183135314D01*
X104142457Y-183421029D01*
X104071029Y-183563886D01*
X103928171Y-183706743D01*
X103713886Y-183778171D01*
X103356743Y-183778171D01*
X105499600Y-183778171D02*
X105499600Y-182992457D01*
X105428171Y-182849600D01*
X105285314Y-182778171D01*
X104999600Y-182778171D01*
X104856743Y-182849600D01*
X105499600Y-183706743D02*
X105356743Y-183778171D01*
X104999600Y-183778171D01*
X104856743Y-183706743D01*
X104785314Y-183563886D01*
X104785314Y-183421029D01*
X104856743Y-183278171D01*
X104999600Y-183206743D01*
X105356743Y-183206743D01*
X105499600Y-183135314D01*
X105999600Y-182778171D02*
X106571029Y-182778171D01*
X106213886Y-182278171D02*
X106213886Y-183563886D01*
X106285314Y-183706743D01*
X106428172Y-183778171D01*
X106571029Y-183778171D01*
X107642457Y-183706743D02*
X107499600Y-183778171D01*
X107213886Y-183778171D01*
X107071029Y-183706743D01*
X106999600Y-183563886D01*
X106999600Y-182992457D01*
X107071029Y-182849600D01*
X107213886Y-182778171D01*
X107499600Y-182778171D01*
X107642457Y-182849600D01*
X107713886Y-182992457D01*
X107713886Y-183135314D01*
X106999600Y-183278171D01*
X108356743Y-183635314D02*
X108428171Y-183706743D01*
X108356743Y-183778171D01*
X108285314Y-183706743D01*
X108356743Y-183635314D01*
X108356743Y-183778171D01*
X108356743Y-182849600D02*
X108428171Y-182921029D01*
X108356743Y-182992457D01*
X108285314Y-182921029D01*
X108356743Y-182849600D01*
X108356743Y-182992457D01*
D10*
D11*
X79999600Y-184499600D02*
X187999600Y-184499600D01*
D10*
D11*
X81356743Y-186578171D02*
X81356743Y-185078171D01*
X82213886Y-186578171D02*
X81571029Y-185721029D01*
X82213886Y-185078171D02*
X81356743Y-185935314D01*
X82856743Y-186578171D02*
X82856743Y-185578171D01*
X82856743Y-185078171D02*
X82785314Y-185149600D01*
X82856743Y-185221029D01*
X82928171Y-185149600D01*
X82856743Y-185078171D01*
X82856743Y-185221029D01*
X84428172Y-186435314D02*
X84356743Y-186506743D01*
X84142457Y-186578171D01*
X83999600Y-186578171D01*
X83785315Y-186506743D01*
X83642457Y-186363886D01*
X83571029Y-186221029D01*
X83499600Y-185935314D01*
X83499600Y-185721029D01*
X83571029Y-185435314D01*
X83642457Y-185292457D01*
X83785315Y-185149600D01*
X83999600Y-185078171D01*
X84142457Y-185078171D01*
X84356743Y-185149600D01*
X84428172Y-185221029D01*
X85713886Y-186578171D02*
X85713886Y-185792457D01*
X85642457Y-185649600D01*
X85499600Y-185578171D01*
X85213886Y-185578171D01*
X85071029Y-185649600D01*
X85713886Y-186506743D02*
X85571029Y-186578171D01*
X85213886Y-186578171D01*
X85071029Y-186506743D01*
X84999600Y-186363886D01*
X84999600Y-186221029D01*
X85071029Y-186078171D01*
X85213886Y-186006743D01*
X85571029Y-186006743D01*
X85713886Y-185935314D01*
X87071029Y-186578171D02*
X87071029Y-185078171D01*
X87071029Y-186506743D02*
X86928172Y-186578171D01*
X86642458Y-186578171D01*
X86499600Y-186506743D01*
X86428172Y-186435314D01*
X86356743Y-186292457D01*
X86356743Y-185863886D01*
X86428172Y-185721029D01*
X86499600Y-185649600D01*
X86642458Y-185578171D01*
X86928172Y-185578171D01*
X87071029Y-185649600D01*
X88928172Y-185792457D02*
X89428172Y-185792457D01*
X89642458Y-186578171D02*
X88928172Y-186578171D01*
X88928172Y-185078171D01*
X89642458Y-185078171D01*
X90285315Y-186435314D02*
X90356743Y-186506743D01*
X90285315Y-186578171D01*
X90213886Y-186506743D01*
X90285315Y-186435314D01*
X90285315Y-186578171D01*
X90999601Y-186578171D02*
X90999601Y-185078171D01*
X91356744Y-185078171D01*
X91571029Y-185149600D01*
X91713887Y-185292457D01*
X91785315Y-185435314D01*
X91856744Y-185721029D01*
X91856744Y-185935314D01*
X91785315Y-186221029D01*
X91713887Y-186363886D01*
X91571029Y-186506743D01*
X91356744Y-186578171D01*
X90999601Y-186578171D01*
X92499601Y-186435314D02*
X92571029Y-186506743D01*
X92499601Y-186578171D01*
X92428172Y-186506743D01*
X92499601Y-186435314D01*
X92499601Y-186578171D01*
X93142458Y-186149600D02*
X93856744Y-186149600D01*
X92999601Y-186578171D02*
X93499601Y-185078171D01*
X93999601Y-186578171D01*
X94499601Y-186435314D02*
X94571029Y-186506743D01*
X94499601Y-186578171D01*
X94428172Y-186506743D01*
X94499601Y-186435314D01*
X94499601Y-186578171D01*
X97499601Y-186578171D02*
X97499601Y-185078171D01*
X97642458Y-186006743D02*
X98071029Y-186578171D01*
X98071029Y-185578171D02*
X97499601Y-186149600D01*
X98713887Y-186578171D02*
X98713887Y-185578171D01*
X98713887Y-185078171D02*
X98642458Y-185149600D01*
X98713887Y-185221029D01*
X98785315Y-185149600D01*
X98713887Y-185078171D01*
X98713887Y-185221029D01*
X100071030Y-186506743D02*
X99928173Y-186578171D01*
X99642459Y-186578171D01*
X99499601Y-186506743D01*
X99428173Y-186435314D01*
X99356744Y-186292457D01*
X99356744Y-185863886D01*
X99428173Y-185721029D01*
X99499601Y-185649600D01*
X99642459Y-185578171D01*
X99928173Y-185578171D01*
X100071030Y-185649600D01*
X101356744Y-186578171D02*
X101356744Y-185792457D01*
X101285315Y-185649600D01*
X101142458Y-185578171D01*
X100856744Y-185578171D01*
X100713887Y-185649600D01*
X101356744Y-186506743D02*
X101213887Y-186578171D01*
X100856744Y-186578171D01*
X100713887Y-186506743D01*
X100642458Y-186363886D01*
X100642458Y-186221029D01*
X100713887Y-186078171D01*
X100856744Y-186006743D01*
X101213887Y-186006743D01*
X101356744Y-185935314D01*
X102713887Y-186578171D02*
X102713887Y-185078171D01*
X102713887Y-186506743D02*
X102571030Y-186578171D01*
X102285316Y-186578171D01*
X102142458Y-186506743D01*
X102071030Y-186435314D01*
X101999601Y-186292457D01*
X101999601Y-185863886D01*
X102071030Y-185721029D01*
X102142458Y-185649600D01*
X102285316Y-185578171D01*
X102571030Y-185578171D01*
X102713887Y-185649600D01*
X105213887Y-185578171D02*
X105213887Y-186578171D01*
X104856744Y-185006743D02*
X104499601Y-186078171D01*
X105428173Y-186078171D01*
X105999601Y-186435314D02*
X106071029Y-186506743D01*
X105999601Y-186578171D01*
X105928172Y-186506743D01*
X105999601Y-186435314D01*
X105999601Y-186578171D01*
X106999601Y-185078171D02*
X107142458Y-185078171D01*
X107285315Y-185149600D01*
X107356744Y-185221029D01*
X107428173Y-185363886D01*
X107499601Y-185649600D01*
X107499601Y-186006743D01*
X107428173Y-186292457D01*
X107356744Y-186435314D01*
X107285315Y-186506743D01*
X107142458Y-186578171D01*
X106999601Y-186578171D01*
X106856744Y-186506743D01*
X106785315Y-186435314D01*
X106713887Y-186292457D01*
X106642458Y-186006743D01*
X106642458Y-185649600D01*
X106713887Y-185363886D01*
X106785315Y-185221029D01*
X106856744Y-185149600D01*
X106999601Y-185078171D01*
X108142458Y-186435314D02*
X108213886Y-186506743D01*
X108142458Y-186578171D01*
X108071029Y-186506743D01*
X108142458Y-186435314D01*
X108142458Y-186578171D01*
X109571030Y-185078171D02*
X108856744Y-185078171D01*
X108785315Y-185792457D01*
X108856744Y-185721029D01*
X108999601Y-185649600D01*
X109356744Y-185649600D01*
X109499601Y-185721029D01*
X109571030Y-185792457D01*
X109642458Y-185935314D01*
X109642458Y-186292457D01*
X109571030Y-186435314D01*
X109499601Y-186506743D01*
X109356744Y-186578171D01*
X108999601Y-186578171D01*
X108856744Y-186506743D01*
X108785315Y-186435314D01*
D10*
D11*
X79999600Y-181499600D02*
X187999600Y-181499600D01*
D10*
D12*
X167213886Y-183778171D02*
X166713886Y-183063886D01*
X166356743Y-183778171D02*
X166356743Y-182278171D01*
X166928171Y-182278171D01*
X167071029Y-182349600D01*
X167142457Y-182421029D01*
X167213886Y-182563886D01*
X167213886Y-182778171D01*
X167142457Y-182921029D01*
X167071029Y-182992457D01*
X166928171Y-183063886D01*
X166356743Y-183063886D01*
X168428171Y-183706743D02*
X168285314Y-183778171D01*
X167999600Y-183778171D01*
X167856743Y-183706743D01*
X167785314Y-183563886D01*
X167785314Y-182992457D01*
X167856743Y-182849600D01*
X167999600Y-182778171D01*
X168285314Y-182778171D01*
X168428171Y-182849600D01*
X168499600Y-182992457D01*
X168499600Y-183135314D01*
X167785314Y-183278171D01*
X168999600Y-182778171D02*
X169356743Y-183778171D01*
X169713885Y-182778171D01*
X170285314Y-183635314D02*
X170356742Y-183706743D01*
X170285314Y-183778171D01*
X170213885Y-183706743D01*
X170285314Y-183635314D01*
X170285314Y-183778171D01*
X170285314Y-182849600D02*
X170356742Y-182921029D01*
X170285314Y-182992457D01*
X170213885Y-182921029D01*
X170285314Y-182849600D01*
X170285314Y-182992457D01*
D10*
D11*
X81285314Y-183706743D02*
X81499600Y-183778171D01*
X81856743Y-183778171D01*
X81999600Y-183706743D01*
X82071029Y-183635314D01*
X82142457Y-183492457D01*
X82142457Y-183349600D01*
X82071029Y-183206743D01*
X81999600Y-183135314D01*
X81856743Y-183063886D01*
X81571029Y-182992457D01*
X81428171Y-182921029D01*
X81356743Y-182849600D01*
X81285314Y-182706743D01*
X81285314Y-182563886D01*
X81356743Y-182421029D01*
X81428171Y-182349600D01*
X81571029Y-182278171D01*
X81928171Y-182278171D01*
X82142457Y-182349600D01*
X82785314Y-183778171D02*
X82785314Y-182778171D01*
X82785314Y-182278171D02*
X82713885Y-182349600D01*
X82785314Y-182421029D01*
X82856742Y-182349600D01*
X82785314Y-182278171D01*
X82785314Y-182421029D01*
X83356743Y-182778171D02*
X84142457Y-182778171D01*
X83356743Y-183778171D01*
X84142457Y-183778171D01*
X85285314Y-183706743D02*
X85142457Y-183778171D01*
X84856743Y-183778171D01*
X84713886Y-183706743D01*
X84642457Y-183563886D01*
X84642457Y-182992457D01*
X84713886Y-182849600D01*
X84856743Y-182778171D01*
X85142457Y-182778171D01*
X85285314Y-182849600D01*
X85356743Y-182992457D01*
X85356743Y-183135314D01*
X84642457Y-183278171D01*
X85999600Y-183635314D02*
X86071028Y-183706743D01*
X85999600Y-183778171D01*
X85928171Y-183706743D01*
X85999600Y-183635314D01*
X85999600Y-183778171D01*
X85999600Y-182849600D02*
X86071028Y-182921029D01*
X85999600Y-182992457D01*
X85928171Y-182921029D01*
X85999600Y-182849600D01*
X85999600Y-182992457D01*
X87856743Y-182278171D02*
X87856743Y-183492457D01*
X87928171Y-183635314D01*
X87999600Y-183706743D01*
X88142457Y-183778171D01*
X88428171Y-183778171D01*
X88571029Y-183706743D01*
X88642457Y-183635314D01*
X88713886Y-183492457D01*
X88713886Y-182278171D01*
X89356743Y-183706743D02*
X89499600Y-183778171D01*
X89785315Y-183778171D01*
X89928172Y-183706743D01*
X89999600Y-183563886D01*
X89999600Y-183492457D01*
X89928172Y-183349600D01*
X89785315Y-183278171D01*
X89571029Y-183278171D01*
X89428172Y-183206743D01*
X89356743Y-183063886D01*
X89356743Y-182992457D01*
X89428172Y-182849600D01*
X89571029Y-182778171D01*
X89785315Y-182778171D01*
X89928172Y-182849600D01*
X91213886Y-183706743D02*
X91071029Y-183778171D01*
X90785315Y-183778171D01*
X90642458Y-183706743D01*
X90571029Y-183563886D01*
X90571029Y-182992457D01*
X90642458Y-182849600D01*
X90785315Y-182778171D01*
X91071029Y-182778171D01*
X91213886Y-182849600D01*
X91285315Y-182992457D01*
X91285315Y-183135314D01*
X90571029Y-183278171D01*
X91928172Y-183778171D02*
X91928172Y-182778171D01*
X91928172Y-183063886D02*
X91999600Y-182921029D01*
X92071029Y-182849600D01*
X92213886Y-182778171D01*
X92356743Y-182778171D01*
D10*
D11*
X166356743Y-186578171D02*
X166356743Y-185078171D01*
X167713886Y-186578171D02*
X167713886Y-185078171D01*
X167713886Y-186506743D02*
X167571029Y-186578171D01*
X167285315Y-186578171D01*
X167142457Y-186506743D01*
X167071029Y-186435314D01*
X166999600Y-186292457D01*
X166999600Y-185863886D01*
X167071029Y-185721029D01*
X167142457Y-185649600D01*
X167285315Y-185578171D01*
X167571029Y-185578171D01*
X167713886Y-185649600D01*
X168428172Y-186435314D02*
X168499600Y-186506743D01*
X168428172Y-186578171D01*
X168356743Y-186506743D01*
X168428172Y-186435314D01*
X168428172Y-186578171D01*
X168428172Y-185649600D02*
X168499600Y-185721029D01*
X168428172Y-185792457D01*
X168356743Y-185721029D01*
X168428172Y-185649600D01*
X168428172Y-185792457D01*
X171071029Y-186578171D02*
X170213886Y-186578171D01*
X170642458Y-186578171D02*
X170642458Y-185078171D01*
X170499601Y-185292457D01*
X170356743Y-185435314D01*
X170213886Y-185506743D01*
X172785314Y-185006743D02*
X171499600Y-186935314D01*
X174071029Y-186578171D02*
X173213886Y-186578171D01*
X173642458Y-186578171D02*
X173642458Y-185078171D01*
X173499601Y-185292457D01*
X173356743Y-185435314D01*
X173213886Y-185506743D01*
D10*
D11*
X79999600Y-177499600D02*
X187999600Y-177499600D01*
D10*
D13*
X81451981Y-178204362D02*
X82594838Y-178204362D01*
X81773410Y-180204362D02*
X82023410Y-178204362D01*
X83011505Y-180204362D02*
X83178171Y-178871029D01*
X83261505Y-178204362D02*
X83154362Y-178299600D01*
X83237695Y-178394838D01*
X83344839Y-178299600D01*
X83261505Y-178204362D01*
X83237695Y-178394838D01*
X83844838Y-178871029D02*
X84606743Y-178871029D01*
X84213886Y-178204362D02*
X83999600Y-179918648D01*
X84071030Y-180109124D01*
X84249601Y-180204362D01*
X84440077Y-180204362D01*
X85392458Y-180204362D02*
X85213887Y-180109124D01*
X85142457Y-179918648D01*
X85356743Y-178204362D01*
X86928172Y-180109124D02*
X86725791Y-180204362D01*
X86344839Y-180204362D01*
X86166267Y-180109124D01*
X86094838Y-179918648D01*
X86190076Y-179156743D01*
X86309124Y-178966267D01*
X86511505Y-178871029D01*
X86892457Y-178871029D01*
X87071029Y-178966267D01*
X87142457Y-179156743D01*
X87118648Y-179347219D01*
X86142457Y-179537695D01*
X87892457Y-180013886D02*
X87975792Y-180109124D01*
X87868648Y-180204362D01*
X87785315Y-180109124D01*
X87892457Y-180013886D01*
X87868648Y-180204362D01*
X88023410Y-178966267D02*
X88106744Y-179061505D01*
X87999600Y-179156743D01*
X87916267Y-179061505D01*
X88023410Y-178966267D01*
X87999600Y-179156743D01*
D10*
D11*
X81856743Y-175592457D02*
X81356743Y-175592457D01*
X81356743Y-176378171D02*
X81356743Y-174878171D01*
X82071029Y-174878171D01*
X82642457Y-176378171D02*
X82642457Y-175378171D01*
X82642457Y-174878171D02*
X82571028Y-174949600D01*
X82642457Y-175021029D01*
X82713885Y-174949600D01*
X82642457Y-174878171D01*
X82642457Y-175021029D01*
X83571029Y-176378171D02*
X83428171Y-176306743D01*
X83356743Y-176163886D01*
X83356743Y-174878171D01*
X84713885Y-176306743D02*
X84571028Y-176378171D01*
X84285314Y-176378171D01*
X84142457Y-176306743D01*
X84071028Y-176163886D01*
X84071028Y-175592457D01*
X84142457Y-175449600D01*
X84285314Y-175378171D01*
X84571028Y-175378171D01*
X84713885Y-175449600D01*
X84785314Y-175592457D01*
X84785314Y-175735314D01*
X84071028Y-175878171D01*
X85428171Y-176235314D02*
X85499599Y-176306743D01*
X85428171Y-176378171D01*
X85356742Y-176306743D01*
X85428171Y-176235314D01*
X85428171Y-176378171D01*
X85428171Y-175449600D02*
X85499599Y-175521029D01*
X85428171Y-175592457D01*
X85356742Y-175521029D01*
X85428171Y-175449600D01*
X85428171Y-175592457D01*
X87285314Y-176378171D02*
X87285314Y-174878171D01*
X87285314Y-175592457D02*
X88142457Y-175592457D01*
X88142457Y-176378171D02*
X88142457Y-174878171D01*
X88856743Y-176378171D02*
X88856743Y-175378171D01*
X88856743Y-174878171D02*
X88785314Y-174949600D01*
X88856743Y-175021029D01*
X88928171Y-174949600D01*
X88856743Y-174878171D01*
X88856743Y-175021029D01*
X90213886Y-175378171D02*
X90213886Y-176592457D01*
X90142457Y-176735314D01*
X90071029Y-176806743D01*
X89928172Y-176878171D01*
X89713886Y-176878171D01*
X89571029Y-176806743D01*
X90213886Y-176306743D02*
X90071029Y-176378171D01*
X89785315Y-176378171D01*
X89642457Y-176306743D01*
X89571029Y-176235314D01*
X89499600Y-176092457D01*
X89499600Y-175663886D01*
X89571029Y-175521029D01*
X89642457Y-175449600D01*
X89785315Y-175378171D01*
X90071029Y-175378171D01*
X90213886Y-175449600D01*
X90928172Y-176378171D02*
X90928172Y-174878171D01*
X91571029Y-176378171D02*
X91571029Y-175592457D01*
X91499600Y-175449600D01*
X91356743Y-175378171D01*
X91142458Y-175378171D01*
X90999600Y-175449600D01*
X90928172Y-175521029D01*
X93428172Y-176378171D02*
X93428172Y-174878171D01*
X93999600Y-174878171D01*
X94142458Y-174949600D01*
X94213886Y-175021029D01*
X94285315Y-175163886D01*
X94285315Y-175378171D01*
X94213886Y-175521029D01*
X94142458Y-175592457D01*
X93999600Y-175663886D01*
X93428172Y-175663886D01*
X95142458Y-176378171D02*
X94999600Y-176306743D01*
X94928172Y-176235314D01*
X94856743Y-176092457D01*
X94856743Y-175663886D01*
X94928172Y-175521029D01*
X94999600Y-175449600D01*
X95142458Y-175378171D01*
X95356743Y-175378171D01*
X95499600Y-175449600D01*
X95571029Y-175521029D01*
X95642458Y-175663886D01*
X95642458Y-176092457D01*
X95571029Y-176235314D01*
X95499600Y-176306743D01*
X95356743Y-176378171D01*
X95142458Y-176378171D01*
X96142458Y-175378171D02*
X96428172Y-176378171D01*
X96713886Y-175663886D01*
X96999601Y-176378171D01*
X97285315Y-175378171D01*
X98428172Y-176306743D02*
X98285315Y-176378171D01*
X97999601Y-176378171D01*
X97856744Y-176306743D01*
X97785315Y-176163886D01*
X97785315Y-175592457D01*
X97856744Y-175449600D01*
X97999601Y-175378171D01*
X98285315Y-175378171D01*
X98428172Y-175449600D01*
X98499601Y-175592457D01*
X98499601Y-175735314D01*
X97785315Y-175878171D01*
X99142458Y-176378171D02*
X99142458Y-175378171D01*
X99142458Y-175663886D02*
X99213886Y-175521029D01*
X99285315Y-175449600D01*
X99428172Y-175378171D01*
X99571029Y-175378171D01*
X101142457Y-176306743D02*
X101356743Y-176378171D01*
X101713886Y-176378171D01*
X101856743Y-176306743D01*
X101928172Y-176235314D01*
X101999600Y-176092457D01*
X101999600Y-175949600D01*
X101928172Y-175806743D01*
X101856743Y-175735314D01*
X101713886Y-175663886D01*
X101428172Y-175592457D01*
X101285314Y-175521029D01*
X101213886Y-175449600D01*
X101142457Y-175306743D01*
X101142457Y-175163886D01*
X101213886Y-175021029D01*
X101285314Y-174949600D01*
X101428172Y-174878171D01*
X101785314Y-174878171D01*
X101999600Y-174949600D01*
X102499600Y-174878171D02*
X102856743Y-176378171D01*
X103142457Y-175306743D01*
X103428171Y-176378171D01*
X103785314Y-174878171D01*
X104356743Y-176235314D02*
X104428171Y-176306743D01*
X104356743Y-176378171D01*
X104285314Y-176306743D01*
X104356743Y-176235314D01*
X104356743Y-176378171D01*
X105071029Y-176378171D02*
X105071029Y-174878171D01*
X105213886Y-175806743D02*
X105642457Y-176378171D01*
X105642457Y-175378171D02*
X105071029Y-175949600D01*
X106285315Y-176378171D02*
X106285315Y-175378171D01*
X106285315Y-174878171D02*
X106213886Y-174949600D01*
X106285315Y-175021029D01*
X106356743Y-174949600D01*
X106285315Y-174878171D01*
X106285315Y-175021029D01*
X107642458Y-176306743D02*
X107499601Y-176378171D01*
X107213887Y-176378171D01*
X107071029Y-176306743D01*
X106999601Y-176235314D01*
X106928172Y-176092457D01*
X106928172Y-175663886D01*
X106999601Y-175521029D01*
X107071029Y-175449600D01*
X107213887Y-175378171D01*
X107499601Y-175378171D01*
X107642458Y-175449600D01*
X108928172Y-176378171D02*
X108928172Y-175592457D01*
X108856743Y-175449600D01*
X108713886Y-175378171D01*
X108428172Y-175378171D01*
X108285315Y-175449600D01*
X108928172Y-176306743D02*
X108785315Y-176378171D01*
X108428172Y-176378171D01*
X108285315Y-176306743D01*
X108213886Y-176163886D01*
X108213886Y-176021029D01*
X108285315Y-175878171D01*
X108428172Y-175806743D01*
X108785315Y-175806743D01*
X108928172Y-175735314D01*
X110285315Y-176378171D02*
X110285315Y-174878171D01*
X110285315Y-176306743D02*
X110142458Y-176378171D01*
X109856744Y-176378171D01*
X109713886Y-176306743D01*
X109642458Y-176235314D01*
X109571029Y-176092457D01*
X109571029Y-175663886D01*
X109642458Y-175521029D01*
X109713886Y-175449600D01*
X109856744Y-175378171D01*
X110142458Y-175378171D01*
X110285315Y-175449600D01*
X110642458Y-176521029D02*
X111785315Y-176521029D01*
X112142458Y-175378171D02*
X112142458Y-176878171D01*
X112142458Y-175449600D02*
X112285315Y-175378171D01*
X112571029Y-175378171D01*
X112713886Y-175449600D01*
X112785315Y-175521029D01*
X112856744Y-175663886D01*
X112856744Y-176092457D01*
X112785315Y-176235314D01*
X112713886Y-176306743D01*
X112571029Y-176378171D01*
X112285315Y-176378171D01*
X112142458Y-176306743D01*
X114142458Y-176306743D02*
X113999601Y-176378171D01*
X113713887Y-176378171D01*
X113571029Y-176306743D01*
X113499601Y-176235314D01*
X113428172Y-176092457D01*
X113428172Y-175663886D01*
X113499601Y-175521029D01*
X113571029Y-175449600D01*
X113713887Y-175378171D01*
X113999601Y-175378171D01*
X114142458Y-175449600D01*
X114785315Y-176378171D02*
X114785315Y-174878171D01*
X114785315Y-175449600D02*
X114928172Y-175378171D01*
X115213886Y-175378171D01*
X115356743Y-175449600D01*
X115428172Y-175521029D01*
X115499601Y-175663886D01*
X115499601Y-176092457D01*
X115428172Y-176235314D01*
X115356743Y-176306743D01*
X115213886Y-176378171D01*
X114928172Y-176378171D01*
X114785315Y-176306743D01*
D10*
D11*
X79999600Y-171499600D02*
X187999600Y-171499600D01*
D10*
D11*
X81285314Y-173606743D02*
X81499600Y-173678171D01*
X81856743Y-173678171D01*
X81999600Y-173606743D01*
X82071029Y-173535314D01*
X82142457Y-173392457D01*
X82142457Y-173249600D01*
X82071029Y-173106743D01*
X81999600Y-173035314D01*
X81856743Y-172963886D01*
X81571029Y-172892457D01*
X81428171Y-172821029D01*
X81356743Y-172749600D01*
X81285314Y-172606743D01*
X81285314Y-172463886D01*
X81356743Y-172321029D01*
X81428171Y-172249600D01*
X81571029Y-172178171D01*
X81928171Y-172178171D01*
X82142457Y-172249600D01*
X82785314Y-173678171D02*
X82785314Y-172178171D01*
X83428171Y-173678171D02*
X83428171Y-172892457D01*
X83356742Y-172749600D01*
X83213885Y-172678171D01*
X82999600Y-172678171D01*
X82856742Y-172749600D01*
X82785314Y-172821029D01*
X84713885Y-173606743D02*
X84571028Y-173678171D01*
X84285314Y-173678171D01*
X84142457Y-173606743D01*
X84071028Y-173463886D01*
X84071028Y-172892457D01*
X84142457Y-172749600D01*
X84285314Y-172678171D01*
X84571028Y-172678171D01*
X84713885Y-172749600D01*
X84785314Y-172892457D01*
X84785314Y-173035314D01*
X84071028Y-173178171D01*
X85999599Y-173606743D02*
X85856742Y-173678171D01*
X85571028Y-173678171D01*
X85428171Y-173606743D01*
X85356742Y-173463886D01*
X85356742Y-172892457D01*
X85428171Y-172749600D01*
X85571028Y-172678171D01*
X85856742Y-172678171D01*
X85999599Y-172749600D01*
X86071028Y-172892457D01*
X86071028Y-173035314D01*
X85356742Y-173178171D01*
X86499599Y-172678171D02*
X87071028Y-172678171D01*
X86713885Y-172178171D02*
X86713885Y-173463886D01*
X86785313Y-173606743D01*
X86928171Y-173678171D01*
X87071028Y-173678171D01*
X87571028Y-173535314D02*
X87642456Y-173606743D01*
X87571028Y-173678171D01*
X87499599Y-173606743D01*
X87571028Y-173535314D01*
X87571028Y-173678171D01*
X87571028Y-172749600D02*
X87642456Y-172821029D01*
X87571028Y-172892457D01*
X87499599Y-172821029D01*
X87571028Y-172749600D01*
X87571028Y-172892457D01*
D10*
D11*
X99999600Y-181499600D02*
X99999600Y-184499600D01*
D10*
D11*
X163999600Y-181499600D02*
X163999600Y-187999600D01*
X67100000Y-102900000D02*
X67100000Y-134900000D01*
X115100000Y-102900000D02*
X67100000Y-102900000D01*
X115100000Y-134900000D02*
X115100000Y-102900000D01*
X68766666Y-134900000D02*
G75*
G03X68766666Y-134900000I-1666666J0D01*
G01*
X64600000Y-134900000D02*
X69600000Y-134900000D01*
X67100000Y-132400000D02*
X67100000Y-137400000D01*
X115100000Y-134900000D02*
X67100000Y-134900000D01*
X68766666Y-134900000D02*
G75*
G03X68766666Y-134900000I-1666666J0D01*
G01*
X64600000Y-134900000D02*
X69600000Y-134900000D01*
X67100000Y-132400000D02*
X67100000Y-137400000D01*
X84406429Y-118737143D02*
X84201071Y-118808571D01*
X83843928Y-118808571D01*
X83692143Y-118737143D01*
X83611785Y-118665714D01*
X83522500Y-118522857D01*
X83504643Y-118380000D01*
X83558214Y-118237143D01*
X83620714Y-118165714D01*
X83754643Y-118094286D01*
X84031428Y-118022857D01*
X84165358Y-117951429D01*
X84227857Y-117880000D01*
X84281429Y-117737143D01*
X84263572Y-117594286D01*
X84174286Y-117451429D01*
X84093929Y-117380000D01*
X83942142Y-117308571D01*
X83585000Y-117308571D01*
X83379643Y-117380000D01*
X82915357Y-118808571D02*
X82790357Y-117808571D01*
X82808215Y-117951429D02*
X82727858Y-117880000D01*
X82576071Y-117808571D01*
X82361786Y-117808571D01*
X82227858Y-117880000D01*
X82174286Y-118022857D01*
X82272500Y-118808571D01*
X82174286Y-118022857D02*
X82085000Y-117880000D01*
X81933214Y-117808571D01*
X81718929Y-117808571D01*
X81585000Y-117880000D01*
X81531429Y-118022857D01*
X81629643Y-118808571D01*
X80272500Y-118808571D02*
X80174286Y-118022857D01*
X80227858Y-117880000D01*
X80361786Y-117808571D01*
X80647500Y-117808571D01*
X80799286Y-117880000D01*
X80263572Y-118737143D02*
X80415357Y-118808571D01*
X80772500Y-118808571D01*
X80906429Y-118737143D01*
X80960001Y-118594286D01*
X80942144Y-118451429D01*
X80852857Y-118308571D01*
X80701072Y-118237143D01*
X80343929Y-118237143D01*
X80192143Y-118165714D01*
X79343928Y-118808571D02*
X79477858Y-118737143D01*
X79531429Y-118594286D01*
X79370714Y-117308571D01*
X78558214Y-118808571D02*
X78692144Y-118737143D01*
X78745715Y-118594286D01*
X78585000Y-117308571D01*
X76843929Y-118808571D02*
X76656429Y-117308571D01*
X76299286Y-117308571D01*
X76093930Y-117380000D01*
X75968929Y-117522857D01*
X75915358Y-117665714D01*
X75879644Y-117951429D01*
X75906429Y-118165714D01*
X76013573Y-118451429D01*
X76102858Y-118594286D01*
X76263573Y-118737143D01*
X76486786Y-118808571D01*
X76843929Y-118808571D01*
X75343929Y-118808571D02*
X75218929Y-117808571D01*
X75254644Y-118094286D02*
X75165359Y-117951429D01*
X75085001Y-117880000D01*
X74933215Y-117808571D01*
X74790358Y-117808571D01*
X74415358Y-118808571D02*
X74290358Y-117808571D01*
X74227858Y-117308571D02*
X74308216Y-117380000D01*
X74245716Y-117451429D01*
X74165359Y-117380000D01*
X74227858Y-117308571D01*
X74245716Y-117451429D01*
X73718929Y-117808571D02*
X73486786Y-118808571D01*
X73004644Y-117808571D01*
X71977859Y-118737143D02*
X72129644Y-118808571D01*
X72415358Y-118808571D01*
X72549287Y-118737143D01*
X72602859Y-118594286D01*
X72531430Y-118022857D01*
X72442144Y-117880000D01*
X72290358Y-117808571D01*
X72004644Y-117808571D01*
X71870716Y-117880000D01*
X71817144Y-118022857D01*
X71835001Y-118165714D01*
X72567144Y-118308571D01*
X71272501Y-118808571D02*
X71147501Y-117808571D01*
X71183216Y-118094286D02*
X71093931Y-117951429D01*
X71013573Y-117880000D01*
X70861787Y-117808571D01*
X70718930Y-117808571D01*
D14*
X84501905Y-116524762D02*
X84251905Y-114524762D01*
X83775714Y-114524762D01*
X83501905Y-114620000D01*
X83335238Y-114810476D01*
X83263809Y-115000952D01*
X83216190Y-115381905D01*
X83251904Y-115667619D01*
X83394761Y-116048571D01*
X83513810Y-116239048D01*
X83728095Y-116429524D01*
X84025714Y-116524762D01*
X84501905Y-116524762D01*
X82501905Y-116524762D02*
X82335239Y-115191429D01*
X82251905Y-114524762D02*
X82359048Y-114620000D01*
X82275715Y-114715238D01*
X82168571Y-114620000D01*
X82251905Y-114524762D01*
X82275715Y-114715238D01*
X80525715Y-115191429D02*
X80728096Y-116810476D01*
X80847143Y-117000952D01*
X80954286Y-117096190D01*
X81156667Y-117191429D01*
X81442381Y-117191429D01*
X81620953Y-117096190D01*
X80680476Y-116429524D02*
X80882857Y-116524762D01*
X81263809Y-116524762D01*
X81442380Y-116429524D01*
X81525715Y-116334286D01*
X81597143Y-116143810D01*
X81525715Y-115572381D01*
X81406667Y-115381905D01*
X81299523Y-115286667D01*
X81097143Y-115191429D01*
X80716191Y-115191429D01*
X80537619Y-115286667D01*
X79740000Y-116524762D02*
X79573334Y-115191429D01*
X79490000Y-114524762D02*
X79597143Y-114620000D01*
X79513810Y-114715238D01*
X79406666Y-114620000D01*
X79490000Y-114524762D01*
X79513810Y-114715238D01*
X78906667Y-115191429D02*
X78144762Y-115191429D01*
X78537619Y-114524762D02*
X78751905Y-116239048D01*
X78680475Y-116429524D01*
X78501904Y-116524762D01*
X78311428Y-116524762D01*
X76787619Y-116524762D02*
X76656667Y-115477143D01*
X76728095Y-115286667D01*
X76906667Y-115191429D01*
X77287619Y-115191429D01*
X77490000Y-115286667D01*
X76775714Y-116429524D02*
X76978095Y-116524762D01*
X77454285Y-116524762D01*
X77632857Y-116429524D01*
X77704286Y-116239048D01*
X77680476Y-116048571D01*
X77561429Y-115858095D01*
X77359047Y-115762857D01*
X76882857Y-115762857D01*
X76680476Y-115667619D01*
X75549523Y-116524762D02*
X75728094Y-116429524D01*
X75799524Y-116239048D01*
X75585238Y-114524762D01*
X73347142Y-116429524D02*
X73073332Y-116524762D01*
X72597142Y-116524762D01*
X72394761Y-116429524D01*
X72287619Y-116334286D01*
X72168570Y-116143810D01*
X72144761Y-115953333D01*
X72216190Y-115762857D01*
X72299523Y-115667619D01*
X72478095Y-115572381D01*
X72847142Y-115477143D01*
X73025713Y-115381905D01*
X73109047Y-115286667D01*
X73180476Y-115096190D01*
X73156666Y-114905714D01*
X73037619Y-114715238D01*
X72930475Y-114620000D01*
X72728094Y-114524762D01*
X72251904Y-114524762D01*
X71978094Y-114620000D01*
X70335238Y-115191429D02*
X70585238Y-117191429D01*
X70489999Y-116429524D02*
X70692380Y-116524762D01*
X71073332Y-116524762D01*
X71251903Y-116429524D01*
X71335238Y-116334286D01*
X71406666Y-116143810D01*
X71335238Y-115572381D01*
X71216190Y-115381905D01*
X71109046Y-115286667D01*
X70906666Y-115191429D01*
X70525714Y-115191429D01*
X70347142Y-115286667D01*
X69549523Y-116524762D02*
X69382857Y-115191429D01*
X69430476Y-115572381D02*
X69311427Y-115381905D01*
X69204284Y-115286667D01*
X69001904Y-115191429D01*
X68811428Y-115191429D01*
X68430476Y-115191429D02*
X67668571Y-115191429D01*
X68061428Y-114524762D02*
X68275714Y-116239048D01*
X68204284Y-116429524D01*
X68025713Y-116524762D01*
X67835237Y-116524762D01*
D11*
X73954762Y-119732381D02*
X73621429Y-120732381D01*
X73288095Y-119732381D01*
X72573809Y-120684762D02*
X72669047Y-120732381D01*
X72859524Y-120732381D01*
X72954762Y-120684762D01*
X73002381Y-120589524D01*
X73002381Y-120208571D01*
X72954762Y-120113333D01*
X72859524Y-120065714D01*
X72669047Y-120065714D01*
X72573809Y-120113333D01*
X72526190Y-120208571D01*
X72526190Y-120303810D01*
X73002381Y-120399048D01*
X72097619Y-120732381D02*
X72097619Y-120065714D01*
X72097619Y-120256190D02*
X72050000Y-120160952D01*
X72002381Y-120113333D01*
X71907143Y-120065714D01*
X71811904Y-120065714D01*
X70192856Y-120732381D02*
X70764285Y-120732381D01*
X70478571Y-120732381D02*
X70478571Y-119732381D01*
X70573809Y-119875238D01*
X70669047Y-119970476D01*
X70764285Y-120018095D01*
X69764285Y-120637143D02*
X69716666Y-120684762D01*
X69764285Y-120732381D01*
X69811904Y-120684762D01*
X69764285Y-120637143D01*
X69764285Y-120732381D01*
X69383333Y-119732381D02*
X68716666Y-119732381D01*
X69145238Y-120732381D01*
D15*
G36*
X89594108Y-109478270D02*
X89178289Y-109516540D01*
X88782299Y-109565770D01*
X88501246Y-109616918D01*
X88281656Y-109689539D01*
X88070055Y-109803188D01*
X87812967Y-109977419D01*
X87702509Y-110056214D01*
X87347936Y-110303396D01*
X86972037Y-110554817D01*
X86647453Y-110762053D01*
X86603243Y-110789019D01*
X86157158Y-111138177D01*
X85755202Y-111599795D01*
X85441405Y-112116999D01*
X85300867Y-112471354D01*
X85205918Y-112908805D01*
X85144303Y-113446308D01*
X85119177Y-114017295D01*
X85133697Y-114555195D01*
X85183105Y-114955149D01*
X85286259Y-115327945D01*
X85444149Y-115736918D01*
X85577453Y-116008956D01*
X85726137Y-116285380D01*
X85796254Y-116455784D01*
X85797351Y-116558745D01*
X85738978Y-116632844D01*
X85733101Y-116637789D01*
X85515109Y-116917469D01*
X85384499Y-117296784D01*
X85357139Y-117582296D01*
X85407781Y-118109778D01*
X85564176Y-118508093D01*
X85835345Y-118786431D01*
X86230309Y-118953977D01*
X86758087Y-119019919D01*
X86768959Y-119020234D01*
X87112041Y-119042842D01*
X87378751Y-119104444D01*
X87650188Y-119229455D01*
X87850232Y-119345766D01*
X88813089Y-119855548D01*
X89923163Y-120310923D01*
X91165432Y-120705971D01*
X91591888Y-120819561D01*
X91910916Y-120896968D01*
X92130366Y-120932607D01*
X92313958Y-120929511D01*
X92525413Y-120890714D01*
X92620842Y-120868540D01*
X92839381Y-120776992D01*
X93110030Y-120610264D01*
X93298907Y-120466065D01*
X93549083Y-120273287D01*
X93781621Y-120124185D01*
X93908732Y-120064869D01*
X94186441Y-119939991D01*
X94529532Y-119730504D01*
X94886608Y-119473950D01*
X95206275Y-119207875D01*
X95437135Y-118969822D01*
X95472631Y-118922457D01*
X95625724Y-118654499D01*
X95700857Y-118372543D01*
X95706968Y-118288625D01*
X95445788Y-118288625D01*
X95304370Y-118721324D01*
X95265470Y-118788464D01*
X95093780Y-118985688D01*
X94818076Y-119219974D01*
X94487641Y-119456452D01*
X94151758Y-119660255D01*
X93859710Y-119796515D01*
X93823333Y-119808783D01*
X93642694Y-119901254D01*
X93403419Y-120068151D01*
X93238838Y-120202992D01*
X92985105Y-120411231D01*
X92753961Y-120553564D01*
X92514825Y-120631840D01*
X92237119Y-120647908D01*
X91890262Y-120603618D01*
X91443674Y-120500817D01*
X90881388Y-120345548D01*
X90353236Y-120179202D01*
X89810312Y-119981830D01*
X89276328Y-119764868D01*
X88774996Y-119539753D01*
X88330028Y-119317924D01*
X87965136Y-119110817D01*
X87704033Y-118929870D01*
X87570430Y-118786520D01*
X87558000Y-118742540D01*
X87487825Y-118686473D01*
X87325167Y-118710094D01*
X86967622Y-118758601D01*
X86580262Y-118736585D01*
X86213975Y-118654805D01*
X85919649Y-118524018D01*
X85762372Y-118379749D01*
X85718355Y-118247154D01*
X85671188Y-118009705D01*
X85646664Y-117840272D01*
X85642748Y-117372509D01*
X85761117Y-117018073D01*
X86000730Y-116779813D01*
X86041721Y-116757007D01*
X86327751Y-116652112D01*
X86604640Y-116661181D01*
X86933568Y-116787387D01*
X86968706Y-116805054D01*
X87167784Y-116889627D01*
X87287932Y-116907892D01*
X87304000Y-116889721D01*
X87386542Y-116852629D01*
X87626137Y-116825287D01*
X88010734Y-116808572D01*
X88489333Y-116803334D01*
X89674667Y-116803334D01*
X89674667Y-117414266D01*
X90542500Y-117358381D01*
X91043777Y-117324500D01*
X91400547Y-117292634D01*
X91637356Y-117255068D01*
X91778750Y-117204087D01*
X91849274Y-117131978D01*
X91873476Y-117031026D01*
X91876000Y-116939288D01*
X91901746Y-116744508D01*
X92009172Y-116615599D01*
X92183959Y-116518508D01*
X92521079Y-116417466D01*
X92734292Y-116424887D01*
X92912348Y-116496647D01*
X92973353Y-116643341D01*
X92976667Y-116725394D01*
X92991935Y-116887488D01*
X93070941Y-116956308D01*
X93263483Y-116970229D01*
X93294167Y-116970053D01*
X93640132Y-116954027D01*
X94013504Y-116915826D01*
X94372286Y-116862402D01*
X94674478Y-116800708D01*
X94878081Y-116737696D01*
X94938678Y-116697816D01*
X94993951Y-116649697D01*
X95007370Y-116732020D01*
X95045444Y-116880166D01*
X95142510Y-117117320D01*
X95240906Y-117320004D01*
X95424588Y-117818792D01*
X95445788Y-118288625D01*
X95706968Y-118288625D01*
X95721726Y-118085983D01*
X95747711Y-117758186D01*
X95818731Y-117528408D01*
X95953874Y-117329715D01*
X96126455Y-117057195D01*
X96228213Y-116760268D01*
X96242062Y-116559975D01*
X95936020Y-116559975D01*
X95927710Y-116771488D01*
X95860865Y-117005685D01*
X95753717Y-117203822D01*
X95624500Y-117307153D01*
X95593998Y-117311334D01*
X95584069Y-117253199D01*
X95662574Y-117108999D01*
X95694579Y-117063838D01*
X95831068Y-116781954D01*
X95831661Y-116761569D01*
X95568865Y-116761569D01*
X95512702Y-116907818D01*
X95422942Y-116972667D01*
X95360875Y-116901894D01*
X95347333Y-116808330D01*
X95385693Y-116649563D01*
X95470810Y-116577580D01*
X95553425Y-116624979D01*
X95568865Y-116761569D01*
X95831661Y-116761569D01*
X95836344Y-116600733D01*
X95829197Y-116458137D01*
X95867564Y-116429892D01*
X95936020Y-116559975D01*
X96242062Y-116559975D01*
X96246683Y-116493146D01*
X96188823Y-116337667D01*
X95686000Y-116337667D01*
X95643667Y-116380000D01*
X95601333Y-116337667D01*
X95643667Y-116295334D01*
X95686000Y-116337667D01*
X96188823Y-116337667D01*
X96184614Y-116326357D01*
X96049865Y-116222804D01*
X95500809Y-116222804D01*
X95483773Y-116270208D01*
X95394651Y-116340360D01*
X95246252Y-116443938D01*
X95187939Y-116440674D01*
X95178000Y-116337667D01*
X95250091Y-116235475D01*
X95368500Y-116213360D01*
X95500809Y-116222804D01*
X96049865Y-116222804D01*
X96013958Y-116195210D01*
X95756064Y-116067492D01*
X95490100Y-115977978D01*
X95342925Y-115956667D01*
X95264013Y-115944674D01*
X95242012Y-115884902D01*
X95279990Y-115741658D01*
X95381016Y-115479251D01*
X95384785Y-115469834D01*
X95584340Y-114800419D01*
X95623885Y-114305667D01*
X95359910Y-114305667D01*
X95336382Y-114562634D01*
X95282210Y-114859554D01*
X95207045Y-115167174D01*
X95120536Y-115456245D01*
X95032334Y-115697515D01*
X94952089Y-115861733D01*
X94889451Y-115919647D01*
X94854071Y-115842007D01*
X94853805Y-115839733D01*
X94825944Y-115595800D01*
X94093621Y-115655220D01*
X93618698Y-115696691D01*
X93287471Y-115735825D01*
X93074573Y-115779855D01*
X92954636Y-115836013D01*
X92902294Y-115911533D01*
X92892000Y-115997843D01*
X92860070Y-116136032D01*
X92732641Y-116155879D01*
X92694675Y-116149464D01*
X92489701Y-116157213D01*
X92232396Y-116224117D01*
X92176335Y-116245872D01*
X91945679Y-116340315D01*
X91832162Y-116361307D01*
X91794479Y-116295140D01*
X91791326Y-116128106D01*
X91791333Y-116118099D01*
X91791333Y-115856197D01*
X90965833Y-115911363D01*
X90473452Y-115946151D01*
X90125236Y-115978986D01*
X89896286Y-116017403D01*
X89761700Y-116068935D01*
X89696578Y-116141120D01*
X89676019Y-116241490D01*
X89674667Y-116302061D01*
X89674667Y-116549334D01*
X87378291Y-116549334D01*
X87431736Y-116189500D01*
X87437351Y-115850053D01*
X87376650Y-115364171D01*
X87295002Y-114940667D01*
X87184413Y-114374005D01*
X87129473Y-113927492D01*
X87134384Y-113559950D01*
X87203351Y-113230197D01*
X87340579Y-112897054D01*
X87540535Y-112535663D01*
X87795525Y-112146423D01*
X88034628Y-111854581D01*
X88214167Y-111701799D01*
X88420466Y-111565395D01*
X88470045Y-111491088D01*
X88360786Y-111471897D01*
X88150667Y-111492462D01*
X87939416Y-111515793D01*
X87821133Y-111519145D01*
X87812000Y-111515125D01*
X87886219Y-111424129D01*
X88082063Y-111302150D01*
X88359314Y-111168007D01*
X88677755Y-111040522D01*
X88997167Y-110938515D01*
X89098578Y-110913042D01*
X89750155Y-110763202D01*
X90613800Y-111095101D01*
X91019773Y-111257747D01*
X91301813Y-111391356D01*
X91497332Y-111518301D01*
X91643739Y-111660953D01*
X91717607Y-111755202D01*
X91868055Y-111943904D01*
X91957097Y-112002914D01*
X92009599Y-111948250D01*
X92011151Y-111944290D01*
X92037696Y-111753756D01*
X92024341Y-111594921D01*
X92026538Y-111427728D01*
X92107779Y-111384667D01*
X92349585Y-111444478D01*
X92665667Y-111609276D01*
X93018225Y-111857111D01*
X93233998Y-112038740D01*
X93457141Y-112236488D01*
X93582764Y-112330854D01*
X93638878Y-112332103D01*
X93653497Y-112250499D01*
X93654000Y-112192642D01*
X93590065Y-111875979D01*
X93392843Y-111513155D01*
X93054214Y-111089828D01*
X92988776Y-111018123D01*
X92787649Y-110798578D01*
X92695554Y-110686174D01*
X92705676Y-110664550D01*
X92811198Y-110717345D01*
X92879693Y-110756266D01*
X93112945Y-110917621D01*
X93301964Y-111093482D01*
X93315211Y-111109500D01*
X93449932Y-111247894D01*
X93545112Y-111300000D01*
X93684365Y-111362888D01*
X93896889Y-111532739D01*
X94153978Y-111781332D01*
X94426926Y-112080448D01*
X94687026Y-112401866D01*
X94743647Y-112478225D01*
X95060246Y-112968128D01*
X95255117Y-113420011D01*
X95347220Y-113890092D01*
X95359910Y-114305667D01*
X95623885Y-114305667D01*
X95637998Y-114129102D01*
X95548446Y-113412759D01*
X95520670Y-113289667D01*
X95359315Y-112612334D01*
X95605047Y-112908667D01*
X95753294Y-113099739D01*
X95842060Y-113237831D01*
X95853056Y-113268500D01*
X95921616Y-113329210D01*
X95949179Y-113332000D01*
X96002866Y-113267275D01*
X95986565Y-113108328D01*
X95914227Y-112908004D01*
X95799803Y-112719146D01*
X95781539Y-112697000D01*
X95597202Y-112472766D01*
X95514900Y-112349785D01*
X95537352Y-112336379D01*
X95667278Y-112440865D01*
X95710853Y-112480776D01*
X95908601Y-112638597D01*
X96011153Y-112664775D01*
X96015359Y-112569797D01*
X95918066Y-112364151D01*
X95801314Y-112179648D01*
X95446959Y-111686564D01*
X95120298Y-111310054D01*
X94778662Y-111012674D01*
X94379381Y-110756976D01*
X93909321Y-110519274D01*
X93494774Y-110334155D01*
X93077471Y-110162461D01*
X92714320Y-110026897D01*
X92519321Y-109964685D01*
X92017001Y-109825027D01*
X92285167Y-109715604D01*
X92464719Y-109635579D01*
X92551790Y-109583492D01*
X92553333Y-109580060D01*
X92475246Y-109567991D01*
X92267292Y-109558631D01*
X91968935Y-109553508D01*
X91854833Y-109553005D01*
X91430610Y-109543394D01*
X90982836Y-109519054D01*
X90606640Y-109485195D01*
X90598345Y-109484195D01*
X90145929Y-109459761D01*
X89594108Y-109478270D01*
X89594108Y-109478270D01*
G37*
X89594108Y-109478270D02*
X89178289Y-109516540D01*
X88782299Y-109565770D01*
X88501246Y-109616918D01*
X88281656Y-109689539D01*
X88070055Y-109803188D01*
X87812967Y-109977419D01*
X87702509Y-110056214D01*
X87347936Y-110303396D01*
X86972037Y-110554817D01*
X86647453Y-110762053D01*
X86603243Y-110789019D01*
X86157158Y-111138177D01*
X85755202Y-111599795D01*
X85441405Y-112116999D01*
X85300867Y-112471354D01*
X85205918Y-112908805D01*
X85144303Y-113446308D01*
X85119177Y-114017295D01*
X85133697Y-114555195D01*
X85183105Y-114955149D01*
X85286259Y-115327945D01*
X85444149Y-115736918D01*
X85577453Y-116008956D01*
X85726137Y-116285380D01*
X85796254Y-116455784D01*
X85797351Y-116558745D01*
X85738978Y-116632844D01*
X85733101Y-116637789D01*
X85515109Y-116917469D01*
X85384499Y-117296784D01*
X85357139Y-117582296D01*
X85407781Y-118109778D01*
X85564176Y-118508093D01*
X85835345Y-118786431D01*
X86230309Y-118953977D01*
X86758087Y-119019919D01*
X86768959Y-119020234D01*
X87112041Y-119042842D01*
X87378751Y-119104444D01*
X87650188Y-119229455D01*
X87850232Y-119345766D01*
X88813089Y-119855548D01*
X89923163Y-120310923D01*
X91165432Y-120705971D01*
X91591888Y-120819561D01*
X91910916Y-120896968D01*
X92130366Y-120932607D01*
X92313958Y-120929511D01*
X92525413Y-120890714D01*
X92620842Y-120868540D01*
X92839381Y-120776992D01*
X93110030Y-120610264D01*
X93298907Y-120466065D01*
X93549083Y-120273287D01*
X93781621Y-120124185D01*
X93908732Y-120064869D01*
X94186441Y-119939991D01*
X94529532Y-119730504D01*
X94886608Y-119473950D01*
X95206275Y-119207875D01*
X95437135Y-118969822D01*
X95472631Y-118922457D01*
X95625724Y-118654499D01*
X95700857Y-118372543D01*
X95706968Y-118288625D01*
X95445788Y-118288625D01*
X95304370Y-118721324D01*
X95265470Y-118788464D01*
X95093780Y-118985688D01*
X94818076Y-119219974D01*
X94487641Y-119456452D01*
X94151758Y-119660255D01*
X93859710Y-119796515D01*
X93823333Y-119808783D01*
X93642694Y-119901254D01*
X93403419Y-120068151D01*
X93238838Y-120202992D01*
X92985105Y-120411231D01*
X92753961Y-120553564D01*
X92514825Y-120631840D01*
X92237119Y-120647908D01*
X91890262Y-120603618D01*
X91443674Y-120500817D01*
X90881388Y-120345548D01*
X90353236Y-120179202D01*
X89810312Y-119981830D01*
X89276328Y-119764868D01*
X88774996Y-119539753D01*
X88330028Y-119317924D01*
X87965136Y-119110817D01*
X87704033Y-118929870D01*
X87570430Y-118786520D01*
X87558000Y-118742540D01*
X87487825Y-118686473D01*
X87325167Y-118710094D01*
X86967622Y-118758601D01*
X86580262Y-118736585D01*
X86213975Y-118654805D01*
X85919649Y-118524018D01*
X85762372Y-118379749D01*
X85718355Y-118247154D01*
X85671188Y-118009705D01*
X85646664Y-117840272D01*
X85642748Y-117372509D01*
X85761117Y-117018073D01*
X86000730Y-116779813D01*
X86041721Y-116757007D01*
X86327751Y-116652112D01*
X86604640Y-116661181D01*
X86933568Y-116787387D01*
X86968706Y-116805054D01*
X87167784Y-116889627D01*
X87287932Y-116907892D01*
X87304000Y-116889721D01*
X87386542Y-116852629D01*
X87626137Y-116825287D01*
X88010734Y-116808572D01*
X88489333Y-116803334D01*
X89674667Y-116803334D01*
X89674667Y-117414266D01*
X90542500Y-117358381D01*
X91043777Y-117324500D01*
X91400547Y-117292634D01*
X91637356Y-117255068D01*
X91778750Y-117204087D01*
X91849274Y-117131978D01*
X91873476Y-117031026D01*
X91876000Y-116939288D01*
X91901746Y-116744508D01*
X92009172Y-116615599D01*
X92183959Y-116518508D01*
X92521079Y-116417466D01*
X92734292Y-116424887D01*
X92912348Y-116496647D01*
X92973353Y-116643341D01*
X92976667Y-116725394D01*
X92991935Y-116887488D01*
X93070941Y-116956308D01*
X93263483Y-116970229D01*
X93294167Y-116970053D01*
X93640132Y-116954027D01*
X94013504Y-116915826D01*
X94372286Y-116862402D01*
X94674478Y-116800708D01*
X94878081Y-116737696D01*
X94938678Y-116697816D01*
X94993951Y-116649697D01*
X95007370Y-116732020D01*
X95045444Y-116880166D01*
X95142510Y-117117320D01*
X95240906Y-117320004D01*
X95424588Y-117818792D01*
X95445788Y-118288625D01*
X95706968Y-118288625D01*
X95721726Y-118085983D01*
X95747711Y-117758186D01*
X95818731Y-117528408D01*
X95953874Y-117329715D01*
X96126455Y-117057195D01*
X96228213Y-116760268D01*
X96242062Y-116559975D01*
X95936020Y-116559975D01*
X95927710Y-116771488D01*
X95860865Y-117005685D01*
X95753717Y-117203822D01*
X95624500Y-117307153D01*
X95593998Y-117311334D01*
X95584069Y-117253199D01*
X95662574Y-117108999D01*
X95694579Y-117063838D01*
X95831068Y-116781954D01*
X95831661Y-116761569D01*
X95568865Y-116761569D01*
X95512702Y-116907818D01*
X95422942Y-116972667D01*
X95360875Y-116901894D01*
X95347333Y-116808330D01*
X95385693Y-116649563D01*
X95470810Y-116577580D01*
X95553425Y-116624979D01*
X95568865Y-116761569D01*
X95831661Y-116761569D01*
X95836344Y-116600733D01*
X95829197Y-116458137D01*
X95867564Y-116429892D01*
X95936020Y-116559975D01*
X96242062Y-116559975D01*
X96246683Y-116493146D01*
X96188823Y-116337667D01*
X95686000Y-116337667D01*
X95643667Y-116380000D01*
X95601333Y-116337667D01*
X95643667Y-116295334D01*
X95686000Y-116337667D01*
X96188823Y-116337667D01*
X96184614Y-116326357D01*
X96049865Y-116222804D01*
X95500809Y-116222804D01*
X95483773Y-116270208D01*
X95394651Y-116340360D01*
X95246252Y-116443938D01*
X95187939Y-116440674D01*
X95178000Y-116337667D01*
X95250091Y-116235475D01*
X95368500Y-116213360D01*
X95500809Y-116222804D01*
X96049865Y-116222804D01*
X96013958Y-116195210D01*
X95756064Y-116067492D01*
X95490100Y-115977978D01*
X95342925Y-115956667D01*
X95264013Y-115944674D01*
X95242012Y-115884902D01*
X95279990Y-115741658D01*
X95381016Y-115479251D01*
X95384785Y-115469834D01*
X95584340Y-114800419D01*
X95623885Y-114305667D01*
X95359910Y-114305667D01*
X95336382Y-114562634D01*
X95282210Y-114859554D01*
X95207045Y-115167174D01*
X95120536Y-115456245D01*
X95032334Y-115697515D01*
X94952089Y-115861733D01*
X94889451Y-115919647D01*
X94854071Y-115842007D01*
X94853805Y-115839733D01*
X94825944Y-115595800D01*
X94093621Y-115655220D01*
X93618698Y-115696691D01*
X93287471Y-115735825D01*
X93074573Y-115779855D01*
X92954636Y-115836013D01*
X92902294Y-115911533D01*
X92892000Y-115997843D01*
X92860070Y-116136032D01*
X92732641Y-116155879D01*
X92694675Y-116149464D01*
X92489701Y-116157213D01*
X92232396Y-116224117D01*
X92176335Y-116245872D01*
X91945679Y-116340315D01*
X91832162Y-116361307D01*
X91794479Y-116295140D01*
X91791326Y-116128106D01*
X91791333Y-116118099D01*
X91791333Y-115856197D01*
X90965833Y-115911363D01*
X90473452Y-115946151D01*
X90125236Y-115978986D01*
X89896286Y-116017403D01*
X89761700Y-116068935D01*
X89696578Y-116141120D01*
X89676019Y-116241490D01*
X89674667Y-116302061D01*
X89674667Y-116549334D01*
X87378291Y-116549334D01*
X87431736Y-116189500D01*
X87437351Y-115850053D01*
X87376650Y-115364171D01*
X87295002Y-114940667D01*
X87184413Y-114374005D01*
X87129473Y-113927492D01*
X87134384Y-113559950D01*
X87203351Y-113230197D01*
X87340579Y-112897054D01*
X87540535Y-112535663D01*
X87795525Y-112146423D01*
X88034628Y-111854581D01*
X88214167Y-111701799D01*
X88420466Y-111565395D01*
X88470045Y-111491088D01*
X88360786Y-111471897D01*
X88150667Y-111492462D01*
X87939416Y-111515793D01*
X87821133Y-111519145D01*
X87812000Y-111515125D01*
X87886219Y-111424129D01*
X88082063Y-111302150D01*
X88359314Y-111168007D01*
X88677755Y-111040522D01*
X88997167Y-110938515D01*
X89098578Y-110913042D01*
X89750155Y-110763202D01*
X90613800Y-111095101D01*
X91019773Y-111257747D01*
X91301813Y-111391356D01*
X91497332Y-111518301D01*
X91643739Y-111660953D01*
X91717607Y-111755202D01*
X91868055Y-111943904D01*
X91957097Y-112002914D01*
X92009599Y-111948250D01*
X92011151Y-111944290D01*
X92037696Y-111753756D01*
X92024341Y-111594921D01*
X92026538Y-111427728D01*
X92107779Y-111384667D01*
X92349585Y-111444478D01*
X92665667Y-111609276D01*
X93018225Y-111857111D01*
X93233998Y-112038740D01*
X93457141Y-112236488D01*
X93582764Y-112330854D01*
X93638878Y-112332103D01*
X93653497Y-112250499D01*
X93654000Y-112192642D01*
X93590065Y-111875979D01*
X93392843Y-111513155D01*
X93054214Y-111089828D01*
X92988776Y-111018123D01*
X92787649Y-110798578D01*
X92695554Y-110686174D01*
X92705676Y-110664550D01*
X92811198Y-110717345D01*
X92879693Y-110756266D01*
X93112945Y-110917621D01*
X93301964Y-111093482D01*
X93315211Y-111109500D01*
X93449932Y-111247894D01*
X93545112Y-111300000D01*
X93684365Y-111362888D01*
X93896889Y-111532739D01*
X94153978Y-111781332D01*
X94426926Y-112080448D01*
X94687026Y-112401866D01*
X94743647Y-112478225D01*
X95060246Y-112968128D01*
X95255117Y-113420011D01*
X95347220Y-113890092D01*
X95359910Y-114305667D01*
X95623885Y-114305667D01*
X95637998Y-114129102D01*
X95548446Y-113412759D01*
X95520670Y-113289667D01*
X95359315Y-112612334D01*
X95605047Y-112908667D01*
X95753294Y-113099739D01*
X95842060Y-113237831D01*
X95853056Y-113268500D01*
X95921616Y-113329210D01*
X95949179Y-113332000D01*
X96002866Y-113267275D01*
X95986565Y-113108328D01*
X95914227Y-112908004D01*
X95799803Y-112719146D01*
X95781539Y-112697000D01*
X95597202Y-112472766D01*
X95514900Y-112349785D01*
X95537352Y-112336379D01*
X95667278Y-112440865D01*
X95710853Y-112480776D01*
X95908601Y-112638597D01*
X96011153Y-112664775D01*
X96015359Y-112569797D01*
X95918066Y-112364151D01*
X95801314Y-112179648D01*
X95446959Y-111686564D01*
X95120298Y-111310054D01*
X94778662Y-111012674D01*
X94379381Y-110756976D01*
X93909321Y-110519274D01*
X93494774Y-110334155D01*
X93077471Y-110162461D01*
X92714320Y-110026897D01*
X92519321Y-109964685D01*
X92017001Y-109825027D01*
X92285167Y-109715604D01*
X92464719Y-109635579D01*
X92551790Y-109583492D01*
X92553333Y-109580060D01*
X92475246Y-109567991D01*
X92267292Y-109558631D01*
X91968935Y-109553508D01*
X91854833Y-109553005D01*
X91430610Y-109543394D01*
X90982836Y-109519054D01*
X90606640Y-109485195D01*
X90598345Y-109484195D01*
X90145929Y-109459761D01*
X89594108Y-109478270D01*
G36*
X92123377Y-118722360D02*
X91753281Y-118895963D01*
X91516167Y-119070332D01*
X91398571Y-119204780D01*
X91398599Y-119316522D01*
X91530162Y-119419979D01*
X91807170Y-119529573D01*
X92024167Y-119596984D01*
X92343064Y-119691933D01*
X92602685Y-119770765D01*
X92757125Y-119819501D01*
X92773873Y-119825326D01*
X92854919Y-119773566D01*
X92965689Y-119606275D01*
X92807333Y-119606275D01*
X92793759Y-119675608D01*
X92731779Y-119699180D01*
X92589504Y-119673647D01*
X92335046Y-119595668D01*
X92164482Y-119538892D01*
X91848133Y-119428009D01*
X91669305Y-119349000D01*
X91603192Y-119285538D01*
X91624985Y-119221296D01*
X91646434Y-119197947D01*
X91868273Y-119083118D01*
X92155444Y-119069255D01*
X92440546Y-119152178D01*
X92593578Y-119256705D01*
X92739926Y-119434769D01*
X92806896Y-119596326D01*
X92807333Y-119606275D01*
X92965689Y-119606275D01*
X92967357Y-119603756D01*
X93056345Y-119420831D01*
X93245277Y-118981647D01*
X93067744Y-118804114D01*
X92821330Y-118669449D01*
X92492967Y-118644527D01*
X92123377Y-118722360D01*
X92123377Y-118722360D01*
G37*
X92123377Y-118722360D02*
X91753281Y-118895963D01*
X91516167Y-119070332D01*
X91398571Y-119204780D01*
X91398599Y-119316522D01*
X91530162Y-119419979D01*
X91807170Y-119529573D01*
X92024167Y-119596984D01*
X92343064Y-119691933D01*
X92602685Y-119770765D01*
X92757125Y-119819501D01*
X92773873Y-119825326D01*
X92854919Y-119773566D01*
X92965689Y-119606275D01*
X92807333Y-119606275D01*
X92793759Y-119675608D01*
X92731779Y-119699180D01*
X92589504Y-119673647D01*
X92335046Y-119595668D01*
X92164482Y-119538892D01*
X91848133Y-119428009D01*
X91669305Y-119349000D01*
X91603192Y-119285538D01*
X91624985Y-119221296D01*
X91646434Y-119197947D01*
X91868273Y-119083118D01*
X92155444Y-119069255D01*
X92440546Y-119152178D01*
X92593578Y-119256705D01*
X92739926Y-119434769D01*
X92806896Y-119596326D01*
X92807333Y-119606275D01*
X92965689Y-119606275D01*
X92967357Y-119603756D01*
X93056345Y-119420831D01*
X93245277Y-118981647D01*
X93067744Y-118804114D01*
X92821330Y-118669449D01*
X92492967Y-118644527D01*
X92123377Y-118722360D01*
G36*
X86679728Y-116923507D02*
X86371609Y-117052327D01*
X86188082Y-117271998D01*
X86136415Y-117551268D01*
X86223878Y-117858886D01*
X86403831Y-118109638D01*
X86612437Y-118313970D01*
X86755612Y-118397847D01*
X86871014Y-118375154D01*
X86948400Y-118310400D01*
X87023667Y-118156795D01*
X87055951Y-117950567D01*
X87081491Y-117705535D01*
X87126161Y-117528196D01*
X87134799Y-117316922D01*
X87125741Y-117290109D01*
X86917762Y-117290109D01*
X86873606Y-117513469D01*
X86851275Y-117571510D01*
X86782827Y-117790519D01*
X86767822Y-117951806D01*
X86771740Y-117967558D01*
X86772413Y-118049512D01*
X86699196Y-118032638D01*
X86591871Y-117943617D01*
X86490218Y-117809130D01*
X86466184Y-117762614D01*
X86405041Y-117495280D01*
X86480504Y-117294356D01*
X86649177Y-117196248D01*
X86843654Y-117185672D01*
X86917762Y-117290109D01*
X87125741Y-117290109D01*
X87067438Y-117117534D01*
X86958550Y-116949170D01*
X86822918Y-116904083D01*
X86679728Y-116923507D01*
X86679728Y-116923507D01*
G37*
X86679728Y-116923507D02*
X86371609Y-117052327D01*
X86188082Y-117271998D01*
X86136415Y-117551268D01*
X86223878Y-117858886D01*
X86403831Y-118109638D01*
X86612437Y-118313970D01*
X86755612Y-118397847D01*
X86871014Y-118375154D01*
X86948400Y-118310400D01*
X87023667Y-118156795D01*
X87055951Y-117950567D01*
X87081491Y-117705535D01*
X87126161Y-117528196D01*
X87134799Y-117316922D01*
X87125741Y-117290109D01*
X86917762Y-117290109D01*
X86873606Y-117513469D01*
X86851275Y-117571510D01*
X86782827Y-117790519D01*
X86767822Y-117951806D01*
X86771740Y-117967558D01*
X86772413Y-118049512D01*
X86699196Y-118032638D01*
X86591871Y-117943617D01*
X86490218Y-117809130D01*
X86466184Y-117762614D01*
X86405041Y-117495280D01*
X86480504Y-117294356D01*
X86649177Y-117196248D01*
X86843654Y-117185672D01*
X86917762Y-117290109D01*
X87125741Y-117290109D01*
X87067438Y-117117534D01*
X86958550Y-116949170D01*
X86822918Y-116904083D01*
X86679728Y-116923507D01*
G36*
X92015990Y-117817578D02*
X92006449Y-117825818D01*
X91983095Y-117933374D01*
X92082682Y-118036700D01*
X92267701Y-118144759D01*
X92382433Y-118128102D01*
X92422753Y-118079127D01*
X92407352Y-117974982D01*
X92291558Y-117870593D01*
X92139671Y-117805083D01*
X92015990Y-117817578D01*
X92015990Y-117817578D01*
G37*
X92015990Y-117817578D02*
X92006449Y-117825818D01*
X91983095Y-117933374D01*
X92082682Y-118036700D01*
X92267701Y-118144759D01*
X92382433Y-118128102D01*
X92422753Y-118079127D01*
X92407352Y-117974982D01*
X92291558Y-117870593D01*
X92139671Y-117805083D01*
X92015990Y-117817578D01*
G36*
X92951842Y-117621122D02*
X92835105Y-117729366D01*
X92771093Y-117874985D01*
X92777656Y-117948784D01*
X92864739Y-118063663D01*
X92990647Y-118020482D01*
X93044400Y-117971734D01*
X93138052Y-117803572D01*
X93110652Y-117650921D01*
X93068159Y-117611885D01*
X92951842Y-117621122D01*
X92951842Y-117621122D01*
G37*
X92951842Y-117621122D02*
X92835105Y-117729366D01*
X92771093Y-117874985D01*
X92777656Y-117948784D01*
X92864739Y-118063663D01*
X92990647Y-118020482D01*
X93044400Y-117971734D01*
X93138052Y-117803572D01*
X93110652Y-117650921D01*
X93068159Y-117611885D01*
X92951842Y-117621122D01*
G36*
X92281764Y-117360767D02*
X91973920Y-117474379D01*
X91813241Y-117589608D01*
X91682767Y-117747873D01*
X91640695Y-117858859D01*
X91647657Y-117873212D01*
X91701721Y-117867226D01*
X91706667Y-117832200D01*
X91783784Y-117681861D01*
X91985867Y-117554467D01*
X92269015Y-117460404D01*
X92589329Y-117410060D01*
X92902906Y-117413819D01*
X93165847Y-117482070D01*
X93172733Y-117485338D01*
X93299741Y-117543785D01*
X93287774Y-117519023D01*
X93188333Y-117436338D01*
X92950429Y-117334896D01*
X92627753Y-117311989D01*
X92281764Y-117360767D01*
X92281764Y-117360767D01*
G37*
X92281764Y-117360767D02*
X91973920Y-117474379D01*
X91813241Y-117589608D01*
X91682767Y-117747873D01*
X91640695Y-117858859D01*
X91647657Y-117873212D01*
X91701721Y-117867226D01*
X91706667Y-117832200D01*
X91783784Y-117681861D01*
X91985867Y-117554467D01*
X92269015Y-117460404D01*
X92589329Y-117410060D01*
X92902906Y-117413819D01*
X93165847Y-117482070D01*
X93172733Y-117485338D01*
X93299741Y-117543785D01*
X93287774Y-117519023D01*
X93188333Y-117436338D01*
X92950429Y-117334896D01*
X92627753Y-117311989D01*
X92281764Y-117360767D01*
G36*
X90256432Y-114148371D02*
X89982917Y-114292654D01*
X89940073Y-114316282D01*
X89634660Y-114484808D01*
X89450456Y-114591347D01*
X89362014Y-114658567D01*
X89343888Y-114709132D01*
X89370632Y-114765710D01*
X89393011Y-114803574D01*
X89451304Y-114859478D01*
X89554771Y-114853601D01*
X89736732Y-114776513D01*
X90014605Y-114627642D01*
X90282412Y-114478067D01*
X90484832Y-114363981D01*
X90583389Y-114307088D01*
X90586826Y-114304836D01*
X90580956Y-114223719D01*
X90555900Y-114146623D01*
X90510555Y-114084273D01*
X90421522Y-114081884D01*
X90256432Y-114148371D01*
X90256432Y-114148371D01*
G37*
X90256432Y-114148371D02*
X89982917Y-114292654D01*
X89940073Y-114316282D01*
X89634660Y-114484808D01*
X89450456Y-114591347D01*
X89362014Y-114658567D01*
X89343888Y-114709132D01*
X89370632Y-114765710D01*
X89393011Y-114803574D01*
X89451304Y-114859478D01*
X89554771Y-114853601D01*
X89736732Y-114776513D01*
X90014605Y-114627642D01*
X90282412Y-114478067D01*
X90484832Y-114363981D01*
X90583389Y-114307088D01*
X90586826Y-114304836D01*
X90580956Y-114223719D01*
X90555900Y-114146623D01*
X90510555Y-114084273D01*
X90421522Y-114081884D01*
X90256432Y-114148371D01*
G36*
X93799348Y-114061797D02*
X93711176Y-114128184D01*
X93721737Y-114213556D01*
X93851213Y-114273208D01*
X94060562Y-114312519D01*
X94354332Y-114382076D01*
X94613627Y-114486572D01*
X94679557Y-114526213D01*
X94846748Y-114618317D01*
X94951539Y-114630374D01*
X94954724Y-114627721D01*
X95003776Y-114520146D01*
X94922834Y-114396139D01*
X94775833Y-114280479D01*
X94541487Y-114159087D01*
X94266957Y-114077360D01*
X94002743Y-114042521D01*
X93799348Y-114061797D01*
X93799348Y-114061797D01*
G37*
X93799348Y-114061797D02*
X93711176Y-114128184D01*
X93721737Y-114213556D01*
X93851213Y-114273208D01*
X94060562Y-114312519D01*
X94354332Y-114382076D01*
X94613627Y-114486572D01*
X94679557Y-114526213D01*
X94846748Y-114618317D01*
X94951539Y-114630374D01*
X94954724Y-114627721D01*
X95003776Y-114520146D01*
X94922834Y-114396139D01*
X94775833Y-114280479D01*
X94541487Y-114159087D01*
X94266957Y-114077360D01*
X94002743Y-114042521D01*
X93799348Y-114061797D01*
G36*
X80851114Y-110764505D02*
X80776461Y-110801727D01*
X80710569Y-110870261D01*
X80692423Y-110895648D01*
X80672655Y-110928866D01*
X80659828Y-110964945D01*
X80652490Y-111013098D01*
X80649187Y-111082536D01*
X80648462Y-111174206D01*
X80651737Y-111299830D01*
X80663123Y-111394154D01*
X80684959Y-111464523D01*
X80719581Y-111518286D01*
X80769330Y-111562788D01*
X80772986Y-111565423D01*
X80822015Y-111592377D01*
X80881055Y-111605712D01*
X80956141Y-111609000D01*
X81078205Y-111609000D01*
X81078256Y-111727497D01*
X81079392Y-111793492D01*
X81086314Y-111832202D01*
X81104402Y-111855419D01*
X81139038Y-111874933D01*
X81147355Y-111878920D01*
X81186280Y-111897603D01*
X81216417Y-111909403D01*
X81238826Y-111910422D01*
X81254567Y-111896761D01*
X81264698Y-111864522D01*
X81270277Y-111809804D01*
X81272365Y-111728711D01*
X81272019Y-111617344D01*
X81270300Y-111471802D01*
X81269763Y-111428269D01*
X81267828Y-111278205D01*
X81266096Y-111180042D01*
X81078308Y-111180042D01*
X81077252Y-111263364D01*
X81072562Y-111317880D01*
X81061949Y-111353837D01*
X81043128Y-111381482D01*
X81030350Y-111394965D01*
X80978110Y-111434417D01*
X80931858Y-111437628D01*
X80884133Y-111405049D01*
X80882923Y-111403846D01*
X80863506Y-111378668D01*
X80851693Y-111344447D01*
X80845735Y-111291748D01*
X80843880Y-111211131D01*
X80843846Y-111193271D01*
X80848330Y-111082175D01*
X80862926Y-111005161D01*
X80889350Y-110958147D01*
X80929317Y-110937050D01*
X80952416Y-110934923D01*
X81007238Y-110944900D01*
X81044842Y-110977752D01*
X81067477Y-111037857D01*
X81077394Y-111129598D01*
X81078308Y-111180042D01*
X81266096Y-111180042D01*
X81265778Y-111162060D01*
X81263127Y-111074679D01*
X81259394Y-111010905D01*
X81254093Y-110965582D01*
X81246742Y-110933555D01*
X81236857Y-110909668D01*
X81223954Y-110888764D01*
X81218421Y-110880898D01*
X81145031Y-110806595D01*
X81052240Y-110764467D01*
X80944904Y-110752722D01*
X80851114Y-110764505D01*
X80851114Y-110764505D01*
G37*
X80851114Y-110764505D02*
X80776461Y-110801727D01*
X80710569Y-110870261D01*
X80692423Y-110895648D01*
X80672655Y-110928866D01*
X80659828Y-110964945D01*
X80652490Y-111013098D01*
X80649187Y-111082536D01*
X80648462Y-111174206D01*
X80651737Y-111299830D01*
X80663123Y-111394154D01*
X80684959Y-111464523D01*
X80719581Y-111518286D01*
X80769330Y-111562788D01*
X80772986Y-111565423D01*
X80822015Y-111592377D01*
X80881055Y-111605712D01*
X80956141Y-111609000D01*
X81078205Y-111609000D01*
X81078256Y-111727497D01*
X81079392Y-111793492D01*
X81086314Y-111832202D01*
X81104402Y-111855419D01*
X81139038Y-111874933D01*
X81147355Y-111878920D01*
X81186280Y-111897603D01*
X81216417Y-111909403D01*
X81238826Y-111910422D01*
X81254567Y-111896761D01*
X81264698Y-111864522D01*
X81270277Y-111809804D01*
X81272365Y-111728711D01*
X81272019Y-111617344D01*
X81270300Y-111471802D01*
X81269763Y-111428269D01*
X81267828Y-111278205D01*
X81266096Y-111180042D01*
X81078308Y-111180042D01*
X81077252Y-111263364D01*
X81072562Y-111317880D01*
X81061949Y-111353837D01*
X81043128Y-111381482D01*
X81030350Y-111394965D01*
X80978110Y-111434417D01*
X80931858Y-111437628D01*
X80884133Y-111405049D01*
X80882923Y-111403846D01*
X80863506Y-111378668D01*
X80851693Y-111344447D01*
X80845735Y-111291748D01*
X80843880Y-111211131D01*
X80843846Y-111193271D01*
X80848330Y-111082175D01*
X80862926Y-111005161D01*
X80889350Y-110958147D01*
X80929317Y-110937050D01*
X80952416Y-110934923D01*
X81007238Y-110944900D01*
X81044842Y-110977752D01*
X81067477Y-111037857D01*
X81077394Y-111129598D01*
X81078308Y-111180042D01*
X81266096Y-111180042D01*
X81265778Y-111162060D01*
X81263127Y-111074679D01*
X81259394Y-111010905D01*
X81254093Y-110965582D01*
X81246742Y-110933555D01*
X81236857Y-110909668D01*
X81223954Y-110888764D01*
X81218421Y-110880898D01*
X81145031Y-110806595D01*
X81052240Y-110764467D01*
X80944904Y-110752722D01*
X80851114Y-110764505D01*
G36*
X79348336Y-110775089D02*
X79285633Y-110811358D01*
X79242039Y-110847358D01*
X79210155Y-110885075D01*
X79188190Y-110931199D01*
X79174351Y-110992421D01*
X79166847Y-111075431D01*
X79163883Y-111186919D01*
X79163539Y-111267062D01*
X79163539Y-111562065D01*
X79329615Y-111636515D01*
X79339385Y-111313402D01*
X79343421Y-111192729D01*
X79347656Y-111105141D01*
X79352903Y-111044650D01*
X79359975Y-111005268D01*
X79369689Y-110981007D01*
X79382856Y-110965880D01*
X79387081Y-110962606D01*
X79451091Y-110937034D01*
X79515792Y-110947153D01*
X79554308Y-110974000D01*
X79569975Y-110993024D01*
X79580820Y-111017988D01*
X79587712Y-111055834D01*
X79591521Y-111113502D01*
X79593117Y-111197935D01*
X79593385Y-111285928D01*
X79593437Y-111396323D01*
X79595328Y-111474463D01*
X79601655Y-111527165D01*
X79615017Y-111561242D01*
X79638015Y-111583511D01*
X79673246Y-111600787D01*
X79720303Y-111618738D01*
X79771697Y-111638278D01*
X79765579Y-111291485D01*
X79763116Y-111166468D01*
X79760233Y-111074082D01*
X79756102Y-111007881D01*
X79749893Y-110961420D01*
X79740774Y-110928256D01*
X79727917Y-110901944D01*
X79712416Y-110878729D01*
X79637629Y-110804569D01*
X79546372Y-110761684D01*
X79447117Y-110751412D01*
X79348336Y-110775089D01*
X79348336Y-110775089D01*
G37*
X79348336Y-110775089D02*
X79285633Y-110811358D01*
X79242039Y-110847358D01*
X79210155Y-110885075D01*
X79188190Y-110931199D01*
X79174351Y-110992421D01*
X79166847Y-111075431D01*
X79163883Y-111186919D01*
X79163539Y-111267062D01*
X79163539Y-111562065D01*
X79329615Y-111636515D01*
X79339385Y-111313402D01*
X79343421Y-111192729D01*
X79347656Y-111105141D01*
X79352903Y-111044650D01*
X79359975Y-111005268D01*
X79369689Y-110981007D01*
X79382856Y-110965880D01*
X79387081Y-110962606D01*
X79451091Y-110937034D01*
X79515792Y-110947153D01*
X79554308Y-110974000D01*
X79569975Y-110993024D01*
X79580820Y-111017988D01*
X79587712Y-111055834D01*
X79591521Y-111113502D01*
X79593117Y-111197935D01*
X79593385Y-111285928D01*
X79593437Y-111396323D01*
X79595328Y-111474463D01*
X79601655Y-111527165D01*
X79615017Y-111561242D01*
X79638015Y-111583511D01*
X79673246Y-111600787D01*
X79720303Y-111618738D01*
X79771697Y-111638278D01*
X79765579Y-111291485D01*
X79763116Y-111166468D01*
X79760233Y-111074082D01*
X79756102Y-111007881D01*
X79749893Y-110961420D01*
X79740774Y-110928256D01*
X79727917Y-110901944D01*
X79712416Y-110878729D01*
X79637629Y-110804569D01*
X79546372Y-110761684D01*
X79447117Y-110751412D01*
X79348336Y-110775089D01*
G36*
X81603114Y-110767256D02*
X81511536Y-110815409D01*
X81443951Y-110892905D01*
X81419943Y-110942727D01*
X81401262Y-111017533D01*
X81391699Y-111112052D01*
X81390792Y-111215210D01*
X81398079Y-111315935D01*
X81413097Y-111403153D01*
X81435385Y-111465791D01*
X81442235Y-111476579D01*
X81523368Y-111557105D01*
X81619734Y-111605336D01*
X81724299Y-111619450D01*
X81830032Y-111597629D01*
X81859457Y-111584547D01*
X81916759Y-111544231D01*
X81967050Y-111490775D01*
X81971803Y-111483995D01*
X81991122Y-111451321D01*
X82003892Y-111416394D01*
X82011436Y-111370414D01*
X82015076Y-111304584D01*
X82016135Y-111210105D01*
X82016154Y-111188923D01*
X82016106Y-111182182D01*
X81820769Y-111182182D01*
X81819632Y-111271349D01*
X81815159Y-111330520D01*
X81805754Y-111368741D01*
X81789824Y-111395053D01*
X81781692Y-111403846D01*
X81734942Y-111437261D01*
X81689553Y-111435737D01*
X81643660Y-111406752D01*
X81616288Y-111375809D01*
X81600077Y-111330643D01*
X81590974Y-111259420D01*
X81590349Y-111251114D01*
X81588796Y-111122037D01*
X81605035Y-111026172D01*
X81638848Y-110964107D01*
X81690016Y-110936432D01*
X81708280Y-110934923D01*
X81756240Y-110942513D01*
X81789047Y-110968808D01*
X81809105Y-111019095D01*
X81818822Y-111098664D01*
X81820769Y-111182182D01*
X82016106Y-111182182D01*
X82015426Y-111088249D01*
X82012371Y-111017906D01*
X82005678Y-110969163D01*
X81994040Y-110933288D01*
X81976147Y-110901548D01*
X81972192Y-110895648D01*
X81905733Y-110816104D01*
X81833315Y-110769929D01*
X81745151Y-110751599D01*
X81715213Y-110750703D01*
X81603114Y-110767256D01*
X81603114Y-110767256D01*
G37*
X81603114Y-110767256D02*
X81511536Y-110815409D01*
X81443951Y-110892905D01*
X81419943Y-110942727D01*
X81401262Y-111017533D01*
X81391699Y-111112052D01*
X81390792Y-111215210D01*
X81398079Y-111315935D01*
X81413097Y-111403153D01*
X81435385Y-111465791D01*
X81442235Y-111476579D01*
X81523368Y-111557105D01*
X81619734Y-111605336D01*
X81724299Y-111619450D01*
X81830032Y-111597629D01*
X81859457Y-111584547D01*
X81916759Y-111544231D01*
X81967050Y-111490775D01*
X81971803Y-111483995D01*
X81991122Y-111451321D01*
X82003892Y-111416394D01*
X82011436Y-111370414D01*
X82015076Y-111304584D01*
X82016135Y-111210105D01*
X82016154Y-111188923D01*
X82016106Y-111182182D01*
X81820769Y-111182182D01*
X81819632Y-111271349D01*
X81815159Y-111330520D01*
X81805754Y-111368741D01*
X81789824Y-111395053D01*
X81781692Y-111403846D01*
X81734942Y-111437261D01*
X81689553Y-111435737D01*
X81643660Y-111406752D01*
X81616288Y-111375809D01*
X81600077Y-111330643D01*
X81590974Y-111259420D01*
X81590349Y-111251114D01*
X81588796Y-111122037D01*
X81605035Y-111026172D01*
X81638848Y-110964107D01*
X81690016Y-110936432D01*
X81708280Y-110934923D01*
X81756240Y-110942513D01*
X81789047Y-110968808D01*
X81809105Y-111019095D01*
X81818822Y-111098664D01*
X81820769Y-111182182D01*
X82016106Y-111182182D01*
X82015426Y-111088249D01*
X82012371Y-111017906D01*
X82005678Y-110969163D01*
X81994040Y-110933288D01*
X81976147Y-110901548D01*
X81972192Y-110895648D01*
X81905733Y-110816104D01*
X81833315Y-110769929D01*
X81745151Y-110751599D01*
X81715213Y-110750703D01*
X81603114Y-110767256D01*
G36*
X80085746Y-110779745D02*
X80008714Y-110831567D01*
X79949184Y-110906412D01*
X79913622Y-111001654D01*
X79906429Y-111071756D01*
X79907246Y-111101009D01*
X79914086Y-111123407D01*
X79932888Y-111143474D01*
X79969592Y-111165733D01*
X80030138Y-111194709D01*
X80120466Y-111234927D01*
X80120923Y-111235129D01*
X80204067Y-111273210D01*
X80272247Y-111307025D01*
X80318495Y-111332933D01*
X80335842Y-111347295D01*
X80335846Y-111347411D01*
X80320557Y-111378685D01*
X80284804Y-111413157D01*
X80243758Y-111437990D01*
X80222963Y-111442923D01*
X80166230Y-111425862D01*
X80117373Y-111383133D01*
X80093535Y-111336155D01*
X80070603Y-111301522D01*
X80025682Y-111262081D01*
X79972877Y-111228009D01*
X79926290Y-111209480D01*
X79916548Y-111208462D01*
X79905582Y-111225215D01*
X79904921Y-111268039D01*
X79912980Y-111325781D01*
X79928173Y-111387289D01*
X79948914Y-111441409D01*
X79949962Y-111443510D01*
X80012379Y-111530660D01*
X80093274Y-111589939D01*
X80185144Y-111619034D01*
X80280487Y-111615634D01*
X80371802Y-111577428D01*
X80375862Y-111574741D01*
X80447694Y-111509642D01*
X80494927Y-111424705D01*
X80521066Y-111313021D01*
X80524574Y-111281643D01*
X80530787Y-111133536D01*
X80523339Y-111064468D01*
X80335846Y-111064468D01*
X80333410Y-111107552D01*
X80320086Y-111120126D01*
X80286868Y-111110719D01*
X80234506Y-111088483D01*
X80175976Y-111060610D01*
X80174521Y-111059872D01*
X80124911Y-111033777D01*
X80105000Y-111016363D01*
X80109910Y-110998107D01*
X80130584Y-110974120D01*
X80183181Y-110939406D01*
X80239823Y-110936856D01*
X80290631Y-110962119D01*
X80325724Y-111010847D01*
X80335846Y-111064468D01*
X80523339Y-111064468D01*
X80518008Y-111015036D01*
X80485222Y-110921055D01*
X80439579Y-110855215D01*
X80357198Y-110788681D01*
X80266454Y-110755676D01*
X80173815Y-110753573D01*
X80085746Y-110779745D01*
X80085746Y-110779745D01*
G37*
X80085746Y-110779745D02*
X80008714Y-110831567D01*
X79949184Y-110906412D01*
X79913622Y-111001654D01*
X79906429Y-111071756D01*
X79907246Y-111101009D01*
X79914086Y-111123407D01*
X79932888Y-111143474D01*
X79969592Y-111165733D01*
X80030138Y-111194709D01*
X80120466Y-111234927D01*
X80120923Y-111235129D01*
X80204067Y-111273210D01*
X80272247Y-111307025D01*
X80318495Y-111332933D01*
X80335842Y-111347295D01*
X80335846Y-111347411D01*
X80320557Y-111378685D01*
X80284804Y-111413157D01*
X80243758Y-111437990D01*
X80222963Y-111442923D01*
X80166230Y-111425862D01*
X80117373Y-111383133D01*
X80093535Y-111336155D01*
X80070603Y-111301522D01*
X80025682Y-111262081D01*
X79972877Y-111228009D01*
X79926290Y-111209480D01*
X79916548Y-111208462D01*
X79905582Y-111225215D01*
X79904921Y-111268039D01*
X79912980Y-111325781D01*
X79928173Y-111387289D01*
X79948914Y-111441409D01*
X79949962Y-111443510D01*
X80012379Y-111530660D01*
X80093274Y-111589939D01*
X80185144Y-111619034D01*
X80280487Y-111615634D01*
X80371802Y-111577428D01*
X80375862Y-111574741D01*
X80447694Y-111509642D01*
X80494927Y-111424705D01*
X80521066Y-111313021D01*
X80524574Y-111281643D01*
X80530787Y-111133536D01*
X80523339Y-111064468D01*
X80335846Y-111064468D01*
X80333410Y-111107552D01*
X80320086Y-111120126D01*
X80286868Y-111110719D01*
X80234506Y-111088483D01*
X80175976Y-111060610D01*
X80174521Y-111059872D01*
X80124911Y-111033777D01*
X80105000Y-111016363D01*
X80109910Y-110998107D01*
X80130584Y-110974120D01*
X80183181Y-110939406D01*
X80239823Y-110936856D01*
X80290631Y-110962119D01*
X80325724Y-111010847D01*
X80335846Y-111064468D01*
X80523339Y-111064468D01*
X80518008Y-111015036D01*
X80485222Y-110921055D01*
X80439579Y-110855215D01*
X80357198Y-110788681D01*
X80266454Y-110755676D01*
X80173815Y-110753573D01*
X80085746Y-110779745D01*
G36*
X78460154Y-110672120D02*
X78454428Y-110751980D01*
X78447851Y-110799039D01*
X78438738Y-110819566D01*
X78425402Y-110819829D01*
X78421077Y-110817378D01*
X78363556Y-110799636D01*
X78288732Y-110800672D01*
X78212661Y-110818910D01*
X78165082Y-110842505D01*
X78116298Y-110880198D01*
X78080636Y-110922855D01*
X78056155Y-110977057D01*
X78040913Y-111049384D01*
X78032970Y-111146419D01*
X78030384Y-111274742D01*
X78030338Y-111299358D01*
X78030308Y-111575870D01*
X78091839Y-111597320D01*
X78135541Y-111611912D01*
X78159518Y-111618706D01*
X78160223Y-111618769D01*
X78162585Y-111600345D01*
X78164594Y-111549526D01*
X78166099Y-111472993D01*
X78166947Y-111377430D01*
X78167077Y-111319329D01*
X78167349Y-111204771D01*
X78168748Y-111122667D01*
X78172151Y-111066393D01*
X78178433Y-111029326D01*
X78188471Y-111004844D01*
X78203139Y-110986325D01*
X78212298Y-110977406D01*
X78275211Y-110941466D01*
X78343864Y-110938775D01*
X78406152Y-110969170D01*
X78417671Y-110980144D01*
X78434567Y-111000779D01*
X78446286Y-111025256D01*
X78453767Y-111060647D01*
X78457946Y-111114026D01*
X78459763Y-111192466D01*
X78460154Y-111300617D01*
X78460154Y-111575870D01*
X78521685Y-111597320D01*
X78565387Y-111611912D01*
X78589364Y-111618706D01*
X78590070Y-111618769D01*
X78591874Y-111600069D01*
X78593500Y-111547322D01*
X78594883Y-111465557D01*
X78595958Y-111359805D01*
X78596660Y-111235094D01*
X78596923Y-111096455D01*
X78596923Y-110561806D01*
X78469923Y-110508236D01*
X78460154Y-110672120D01*
X78460154Y-110672120D01*
G37*
X78460154Y-110672120D02*
X78454428Y-110751980D01*
X78447851Y-110799039D01*
X78438738Y-110819566D01*
X78425402Y-110819829D01*
X78421077Y-110817378D01*
X78363556Y-110799636D01*
X78288732Y-110800672D01*
X78212661Y-110818910D01*
X78165082Y-110842505D01*
X78116298Y-110880198D01*
X78080636Y-110922855D01*
X78056155Y-110977057D01*
X78040913Y-111049384D01*
X78032970Y-111146419D01*
X78030384Y-111274742D01*
X78030338Y-111299358D01*
X78030308Y-111575870D01*
X78091839Y-111597320D01*
X78135541Y-111611912D01*
X78159518Y-111618706D01*
X78160223Y-111618769D01*
X78162585Y-111600345D01*
X78164594Y-111549526D01*
X78166099Y-111472993D01*
X78166947Y-111377430D01*
X78167077Y-111319329D01*
X78167349Y-111204771D01*
X78168748Y-111122667D01*
X78172151Y-111066393D01*
X78178433Y-111029326D01*
X78188471Y-111004844D01*
X78203139Y-110986325D01*
X78212298Y-110977406D01*
X78275211Y-110941466D01*
X78343864Y-110938775D01*
X78406152Y-110969170D01*
X78417671Y-110980144D01*
X78434567Y-111000779D01*
X78446286Y-111025256D01*
X78453767Y-111060647D01*
X78457946Y-111114026D01*
X78459763Y-111192466D01*
X78460154Y-111300617D01*
X78460154Y-111575870D01*
X78521685Y-111597320D01*
X78565387Y-111611912D01*
X78589364Y-111618706D01*
X78590070Y-111618769D01*
X78591874Y-111600069D01*
X78593500Y-111547322D01*
X78594883Y-111465557D01*
X78595958Y-111359805D01*
X78596660Y-111235094D01*
X78596923Y-111096455D01*
X78596923Y-110561806D01*
X78469923Y-110508236D01*
X78460154Y-110672120D01*
G36*
X77566499Y-110806303D02*
X77489940Y-110834733D01*
X77489064Y-110835279D01*
X77441715Y-110870127D01*
X77406759Y-110910852D01*
X77382175Y-110963925D01*
X77365938Y-111035814D01*
X77356025Y-111132992D01*
X77350414Y-111261928D01*
X77349923Y-111280298D01*
X77342859Y-111557287D01*
X77402305Y-111588028D01*
X77445319Y-111608802D01*
X77471290Y-111618646D01*
X77472491Y-111618769D01*
X77476986Y-111600606D01*
X77480556Y-111551612D01*
X77482752Y-111480031D01*
X77483231Y-111422068D01*
X77483242Y-111328170D01*
X77487534Y-111269203D01*
X77502497Y-111241079D01*
X77534518Y-111239706D01*
X77589986Y-111260998D01*
X77673731Y-111300136D01*
X77735311Y-111332643D01*
X77766983Y-111360845D01*
X77776294Y-111391582D01*
X77776308Y-111393104D01*
X77760943Y-111446054D01*
X77715453Y-111474660D01*
X77645834Y-111478803D01*
X77595687Y-111478084D01*
X77569246Y-111492527D01*
X77552757Y-111527218D01*
X77543267Y-111571416D01*
X77556943Y-111596493D01*
X77562093Y-111600082D01*
X77610575Y-111614496D01*
X77678469Y-111616537D01*
X77748388Y-111606983D01*
X77797932Y-111589522D01*
X77866430Y-111531364D01*
X77905366Y-111450408D01*
X77913077Y-111387160D01*
X77907193Y-111330111D01*
X77885899Y-111283542D01*
X77843735Y-111242181D01*
X77775241Y-111200755D01*
X77674956Y-111153993D01*
X77668846Y-111151350D01*
X77578510Y-111109617D01*
X77522765Y-111075391D01*
X77498871Y-111044635D01*
X77504087Y-111013311D01*
X77535672Y-110977383D01*
X77545117Y-110969116D01*
X77608383Y-110937058D01*
X77673936Y-110938407D01*
X77731028Y-110969838D01*
X77768907Y-111028024D01*
X77772426Y-111039446D01*
X77806700Y-111094837D01*
X77850191Y-111121518D01*
X77913077Y-111147960D01*
X77913077Y-111079548D01*
X77893948Y-110980110D01*
X77837169Y-110888902D01*
X77807622Y-110858389D01*
X77740458Y-110819228D01*
X77655044Y-110801500D01*
X77566499Y-110806303D01*
X77566499Y-110806303D01*
G37*
X77566499Y-110806303D02*
X77489940Y-110834733D01*
X77489064Y-110835279D01*
X77441715Y-110870127D01*
X77406759Y-110910852D01*
X77382175Y-110963925D01*
X77365938Y-111035814D01*
X77356025Y-111132992D01*
X77350414Y-111261928D01*
X77349923Y-111280298D01*
X77342859Y-111557287D01*
X77402305Y-111588028D01*
X77445319Y-111608802D01*
X77471290Y-111618646D01*
X77472491Y-111618769D01*
X77476986Y-111600606D01*
X77480556Y-111551612D01*
X77482752Y-111480031D01*
X77483231Y-111422068D01*
X77483242Y-111328170D01*
X77487534Y-111269203D01*
X77502497Y-111241079D01*
X77534518Y-111239706D01*
X77589986Y-111260998D01*
X77673731Y-111300136D01*
X77735311Y-111332643D01*
X77766983Y-111360845D01*
X77776294Y-111391582D01*
X77776308Y-111393104D01*
X77760943Y-111446054D01*
X77715453Y-111474660D01*
X77645834Y-111478803D01*
X77595687Y-111478084D01*
X77569246Y-111492527D01*
X77552757Y-111527218D01*
X77543267Y-111571416D01*
X77556943Y-111596493D01*
X77562093Y-111600082D01*
X77610575Y-111614496D01*
X77678469Y-111616537D01*
X77748388Y-111606983D01*
X77797932Y-111589522D01*
X77866430Y-111531364D01*
X77905366Y-111450408D01*
X77913077Y-111387160D01*
X77907193Y-111330111D01*
X77885899Y-111283542D01*
X77843735Y-111242181D01*
X77775241Y-111200755D01*
X77674956Y-111153993D01*
X77668846Y-111151350D01*
X77578510Y-111109617D01*
X77522765Y-111075391D01*
X77498871Y-111044635D01*
X77504087Y-111013311D01*
X77535672Y-110977383D01*
X77545117Y-110969116D01*
X77608383Y-110937058D01*
X77673936Y-110938407D01*
X77731028Y-110969838D01*
X77768907Y-111028024D01*
X77772426Y-111039446D01*
X77806700Y-111094837D01*
X77850191Y-111121518D01*
X77913077Y-111147960D01*
X77913077Y-111079548D01*
X77893948Y-110980110D01*
X77837169Y-110888902D01*
X77807622Y-110858389D01*
X77740458Y-110819228D01*
X77655044Y-110801500D01*
X77566499Y-110806303D01*
G36*
X76906638Y-110804670D02*
X76817883Y-110837421D01*
X76745978Y-110895350D01*
X76717856Y-110936128D01*
X76687198Y-111010954D01*
X76687835Y-111065058D01*
X76720013Y-111101446D01*
X76731919Y-111107633D01*
X76783325Y-111126925D01*
X76809578Y-111121982D01*
X76818470Y-111089587D01*
X76818923Y-111071692D01*
X76835203Y-111005859D01*
X76877635Y-110959807D01*
X76936612Y-110937564D01*
X77002525Y-110943161D01*
X77056105Y-110972229D01*
X77074202Y-110988810D01*
X77087029Y-111008925D01*
X77095694Y-111039332D01*
X77101304Y-111086788D01*
X77104965Y-111158050D01*
X77107785Y-111259875D01*
X77108516Y-111292115D01*
X77111180Y-111402410D01*
X77114208Y-111480036D01*
X77118750Y-111531396D01*
X77125954Y-111562890D01*
X77136967Y-111580920D01*
X77152940Y-111591888D01*
X77163166Y-111596733D01*
X77206594Y-111613301D01*
X77232158Y-111618769D01*
X77240605Y-111600507D01*
X77245761Y-111545296D01*
X77247654Y-111452499D01*
X77246311Y-111321478D01*
X77245893Y-111301269D01*
X77242942Y-111181733D01*
X77239452Y-111094449D01*
X77234486Y-111032591D01*
X77227107Y-110989336D01*
X77216376Y-110957860D01*
X77201355Y-110931339D01*
X77193498Y-110919975D01*
X77148447Y-110869692D01*
X77098060Y-110830581D01*
X77091892Y-110827167D01*
X77001542Y-110800212D01*
X76906638Y-110804670D01*
X76906638Y-110804670D01*
G37*
X76906638Y-110804670D02*
X76817883Y-110837421D01*
X76745978Y-110895350D01*
X76717856Y-110936128D01*
X76687198Y-111010954D01*
X76687835Y-111065058D01*
X76720013Y-111101446D01*
X76731919Y-111107633D01*
X76783325Y-111126925D01*
X76809578Y-111121982D01*
X76818470Y-111089587D01*
X76818923Y-111071692D01*
X76835203Y-111005859D01*
X76877635Y-110959807D01*
X76936612Y-110937564D01*
X77002525Y-110943161D01*
X77056105Y-110972229D01*
X77074202Y-110988810D01*
X77087029Y-111008925D01*
X77095694Y-111039332D01*
X77101304Y-111086788D01*
X77104965Y-111158050D01*
X77107785Y-111259875D01*
X77108516Y-111292115D01*
X77111180Y-111402410D01*
X77114208Y-111480036D01*
X77118750Y-111531396D01*
X77125954Y-111562890D01*
X77136967Y-111580920D01*
X77152940Y-111591888D01*
X77163166Y-111596733D01*
X77206594Y-111613301D01*
X77232158Y-111618769D01*
X77240605Y-111600507D01*
X77245761Y-111545296D01*
X77247654Y-111452499D01*
X77246311Y-111321478D01*
X77245893Y-111301269D01*
X77242942Y-111181733D01*
X77239452Y-111094449D01*
X77234486Y-111032591D01*
X77227107Y-110989336D01*
X77216376Y-110957860D01*
X77201355Y-110931339D01*
X77193498Y-110919975D01*
X77148447Y-110869692D01*
X77098060Y-110830581D01*
X77091892Y-110827167D01*
X77001542Y-110800212D01*
X76906638Y-110804670D01*
G36*
X76017919Y-110960289D02*
X76018167Y-111106320D01*
X76019128Y-111218655D01*
X76021206Y-111302678D01*
X76024807Y-111363769D01*
X76030335Y-111407309D01*
X76038196Y-111438679D01*
X76048793Y-111463262D01*
X76056818Y-111477294D01*
X76123272Y-111553388D01*
X76207530Y-111601084D01*
X76300751Y-111618199D01*
X76394100Y-111602546D01*
X76449688Y-111574418D01*
X76508043Y-111525760D01*
X76547814Y-111466333D01*
X76571810Y-111388507D01*
X76582839Y-111284652D01*
X76584401Y-111208462D01*
X76584191Y-111202986D01*
X76447692Y-111202986D01*
X76446859Y-111290355D01*
X76443039Y-111348192D01*
X76434254Y-111386029D01*
X76418526Y-111413398D01*
X76399734Y-111434042D01*
X76336625Y-111473890D01*
X76268863Y-111477295D01*
X76204821Y-111444025D01*
X76199836Y-111439517D01*
X76178561Y-111416067D01*
X76165221Y-111388166D01*
X76157999Y-111346641D01*
X76155077Y-111282316D01*
X76154615Y-111211200D01*
X76155617Y-111121858D01*
X76159762Y-111062258D01*
X76168764Y-111023089D01*
X76184333Y-110995040D01*
X76197098Y-110980144D01*
X76256400Y-110942575D01*
X76324699Y-110938057D01*
X76389890Y-110966753D01*
X76402472Y-110977406D01*
X76423889Y-111001063D01*
X76437256Y-111029251D01*
X76444434Y-111071245D01*
X76447281Y-111136319D01*
X76447692Y-111202986D01*
X76584191Y-111202986D01*
X76579678Y-111085765D01*
X76563638Y-110993577D01*
X76533472Y-110924269D01*
X76486371Y-110870211D01*
X76449688Y-110842505D01*
X76383010Y-110812572D01*
X76305728Y-110798678D01*
X76233890Y-110802397D01*
X76193692Y-110817400D01*
X76177918Y-110821670D01*
X76167450Y-110805750D01*
X76160144Y-110763089D01*
X76154615Y-110698106D01*
X76148563Y-110625732D01*
X76140156Y-110582187D01*
X76124859Y-110557287D01*
X76098136Y-110540845D01*
X76081346Y-110533564D01*
X76017846Y-110506963D01*
X76017919Y-110960289D01*
X76017919Y-110960289D01*
G37*
X76017919Y-110960289D02*
X76018167Y-111106320D01*
X76019128Y-111218655D01*
X76021206Y-111302678D01*
X76024807Y-111363769D01*
X76030335Y-111407309D01*
X76038196Y-111438679D01*
X76048793Y-111463262D01*
X76056818Y-111477294D01*
X76123272Y-111553388D01*
X76207530Y-111601084D01*
X76300751Y-111618199D01*
X76394100Y-111602546D01*
X76449688Y-111574418D01*
X76508043Y-111525760D01*
X76547814Y-111466333D01*
X76571810Y-111388507D01*
X76582839Y-111284652D01*
X76584401Y-111208462D01*
X76584191Y-111202986D01*
X76447692Y-111202986D01*
X76446859Y-111290355D01*
X76443039Y-111348192D01*
X76434254Y-111386029D01*
X76418526Y-111413398D01*
X76399734Y-111434042D01*
X76336625Y-111473890D01*
X76268863Y-111477295D01*
X76204821Y-111444025D01*
X76199836Y-111439517D01*
X76178561Y-111416067D01*
X76165221Y-111388166D01*
X76157999Y-111346641D01*
X76155077Y-111282316D01*
X76154615Y-111211200D01*
X76155617Y-111121858D01*
X76159762Y-111062258D01*
X76168764Y-111023089D01*
X76184333Y-110995040D01*
X76197098Y-110980144D01*
X76256400Y-110942575D01*
X76324699Y-110938057D01*
X76389890Y-110966753D01*
X76402472Y-110977406D01*
X76423889Y-111001063D01*
X76437256Y-111029251D01*
X76444434Y-111071245D01*
X76447281Y-111136319D01*
X76447692Y-111202986D01*
X76584191Y-111202986D01*
X76579678Y-111085765D01*
X76563638Y-110993577D01*
X76533472Y-110924269D01*
X76486371Y-110870211D01*
X76449688Y-110842505D01*
X76383010Y-110812572D01*
X76305728Y-110798678D01*
X76233890Y-110802397D01*
X76193692Y-110817400D01*
X76177918Y-110821670D01*
X76167450Y-110805750D01*
X76160144Y-110763089D01*
X76154615Y-110698106D01*
X76148563Y-110625732D01*
X76140156Y-110582187D01*
X76124859Y-110557287D01*
X76098136Y-110540845D01*
X76081346Y-110533564D01*
X76017846Y-110506963D01*
X76017919Y-110960289D01*
G36*
X75224071Y-110816662D02*
X75221089Y-110868068D01*
X75218753Y-110946192D01*
X75217251Y-111044857D01*
X75216769Y-111148343D01*
X75216769Y-111498533D01*
X75278599Y-111560363D01*
X75321207Y-111598462D01*
X75358610Y-111613895D01*
X75409730Y-111612918D01*
X75430022Y-111610433D01*
X75493446Y-111603200D01*
X75545905Y-111599055D01*
X75558692Y-111598672D01*
X75601801Y-111601176D01*
X75663456Y-111607462D01*
X75687362Y-111610433D01*
X75746078Y-111615028D01*
X75785536Y-111605046D01*
X75824662Y-111574228D01*
X75838785Y-111560363D01*
X75900615Y-111498533D01*
X75900615Y-110843503D01*
X75850850Y-110820829D01*
X75807998Y-110804034D01*
X75782927Y-110798154D01*
X75776499Y-110816736D01*
X75770491Y-110868655D01*
X75765303Y-110948172D01*
X75761336Y-111049546D01*
X75759423Y-111135192D01*
X75754077Y-111472231D01*
X75707440Y-111478825D01*
X75665024Y-111474214D01*
X75644240Y-111459287D01*
X75638430Y-111431377D01*
X75633470Y-111371925D01*
X75629754Y-111288466D01*
X75627676Y-111188532D01*
X75627376Y-111137104D01*
X75627077Y-110841054D01*
X75565546Y-110819604D01*
X75521996Y-110805020D01*
X75498306Y-110798219D01*
X75497623Y-110798154D01*
X75495246Y-110816642D01*
X75492634Y-110867906D01*
X75490005Y-110945649D01*
X75487579Y-111043574D01*
X75485885Y-111135192D01*
X75480539Y-111472231D01*
X75363308Y-111472231D01*
X75357928Y-111164746D01*
X75352549Y-110857261D01*
X75295399Y-110827707D01*
X75253203Y-110807413D01*
X75228230Y-110798204D01*
X75227509Y-110798154D01*
X75224071Y-110816662D01*
X75224071Y-110816662D01*
G37*
X75224071Y-110816662D02*
X75221089Y-110868068D01*
X75218753Y-110946192D01*
X75217251Y-111044857D01*
X75216769Y-111148343D01*
X75216769Y-111498533D01*
X75278599Y-111560363D01*
X75321207Y-111598462D01*
X75358610Y-111613895D01*
X75409730Y-111612918D01*
X75430022Y-111610433D01*
X75493446Y-111603200D01*
X75545905Y-111599055D01*
X75558692Y-111598672D01*
X75601801Y-111601176D01*
X75663456Y-111607462D01*
X75687362Y-111610433D01*
X75746078Y-111615028D01*
X75785536Y-111605046D01*
X75824662Y-111574228D01*
X75838785Y-111560363D01*
X75900615Y-111498533D01*
X75900615Y-110843503D01*
X75850850Y-110820829D01*
X75807998Y-110804034D01*
X75782927Y-110798154D01*
X75776499Y-110816736D01*
X75770491Y-110868655D01*
X75765303Y-110948172D01*
X75761336Y-111049546D01*
X75759423Y-111135192D01*
X75754077Y-111472231D01*
X75707440Y-111478825D01*
X75665024Y-111474214D01*
X75644240Y-111459287D01*
X75638430Y-111431377D01*
X75633470Y-111371925D01*
X75629754Y-111288466D01*
X75627676Y-111188532D01*
X75627376Y-111137104D01*
X75627077Y-110841054D01*
X75565546Y-110819604D01*
X75521996Y-110805020D01*
X75498306Y-110798219D01*
X75497623Y-110798154D01*
X75495246Y-110816642D01*
X75492634Y-110867906D01*
X75490005Y-110945649D01*
X75487579Y-111043574D01*
X75485885Y-111135192D01*
X75480539Y-111472231D01*
X75363308Y-111472231D01*
X75357928Y-111164746D01*
X75352549Y-110857261D01*
X75295399Y-110827707D01*
X75253203Y-110807413D01*
X75228230Y-110798204D01*
X75227509Y-110798154D01*
X75224071Y-110816662D01*
G36*
X74732667Y-110813528D02*
X74676410Y-110839117D01*
X74632253Y-110870124D01*
X74599899Y-110904795D01*
X74577562Y-110949520D01*
X74563454Y-111010692D01*
X74555789Y-111094701D01*
X74552780Y-111207940D01*
X74552462Y-111282509D01*
X74552462Y-111573420D01*
X74602227Y-111596095D01*
X74641424Y-111612667D01*
X74660843Y-111618769D01*
X74664558Y-111600610D01*
X74667505Y-111551648D01*
X74669309Y-111480153D01*
X74669692Y-111423385D01*
X74671339Y-111341371D01*
X74675778Y-111276309D01*
X74682260Y-111236467D01*
X74687410Y-111228000D01*
X74722023Y-111236646D01*
X74776360Y-111258823D01*
X74839278Y-111288886D01*
X74899632Y-111321192D01*
X74946279Y-111350098D01*
X74968074Y-111369961D01*
X74968161Y-111370175D01*
X74966286Y-111406935D01*
X74949475Y-111442026D01*
X74919961Y-111470528D01*
X74876884Y-111480061D01*
X74840068Y-111478950D01*
X74787926Y-111478133D01*
X74760556Y-111490349D01*
X74744118Y-111522624D01*
X74742045Y-111528710D01*
X74734919Y-111574739D01*
X74753976Y-111602687D01*
X74803647Y-111616007D01*
X74857303Y-111618470D01*
X74953858Y-111600210D01*
X75003841Y-111574131D01*
X75065571Y-111512868D01*
X75098310Y-111437670D01*
X75101247Y-111358211D01*
X75073576Y-111284167D01*
X75031953Y-111237769D01*
X74990396Y-111211793D01*
X74925078Y-111178907D01*
X74848962Y-111145557D01*
X74836274Y-111140461D01*
X74752667Y-111103565D01*
X74704470Y-111071046D01*
X74688970Y-111038718D01*
X74703450Y-111002394D01*
X74728308Y-110974000D01*
X74787061Y-110939039D01*
X74851707Y-110936417D01*
X74910992Y-110963358D01*
X74953661Y-111017088D01*
X74959261Y-111030950D01*
X74991867Y-111081936D01*
X75039470Y-111119787D01*
X75099539Y-111150850D01*
X75099539Y-111062768D01*
X75096003Y-111008951D01*
X75080844Y-110966534D01*
X75047232Y-110921279D01*
X75014965Y-110886420D01*
X74964791Y-110837062D01*
X74925807Y-110810547D01*
X74883936Y-110799911D01*
X74836540Y-110798154D01*
X74732667Y-110813528D01*
X74732667Y-110813528D01*
G37*
X74732667Y-110813528D02*
X74676410Y-110839117D01*
X74632253Y-110870124D01*
X74599899Y-110904795D01*
X74577562Y-110949520D01*
X74563454Y-111010692D01*
X74555789Y-111094701D01*
X74552780Y-111207940D01*
X74552462Y-111282509D01*
X74552462Y-111573420D01*
X74602227Y-111596095D01*
X74641424Y-111612667D01*
X74660843Y-111618769D01*
X74664558Y-111600610D01*
X74667505Y-111551648D01*
X74669309Y-111480153D01*
X74669692Y-111423385D01*
X74671339Y-111341371D01*
X74675778Y-111276309D01*
X74682260Y-111236467D01*
X74687410Y-111228000D01*
X74722023Y-111236646D01*
X74776360Y-111258823D01*
X74839278Y-111288886D01*
X74899632Y-111321192D01*
X74946279Y-111350098D01*
X74968074Y-111369961D01*
X74968161Y-111370175D01*
X74966286Y-111406935D01*
X74949475Y-111442026D01*
X74919961Y-111470528D01*
X74876884Y-111480061D01*
X74840068Y-111478950D01*
X74787926Y-111478133D01*
X74760556Y-111490349D01*
X74744118Y-111522624D01*
X74742045Y-111528710D01*
X74734919Y-111574739D01*
X74753976Y-111602687D01*
X74803647Y-111616007D01*
X74857303Y-111618470D01*
X74953858Y-111600210D01*
X75003841Y-111574131D01*
X75065571Y-111512868D01*
X75098310Y-111437670D01*
X75101247Y-111358211D01*
X75073576Y-111284167D01*
X75031953Y-111237769D01*
X74990396Y-111211793D01*
X74925078Y-111178907D01*
X74848962Y-111145557D01*
X74836274Y-111140461D01*
X74752667Y-111103565D01*
X74704470Y-111071046D01*
X74688970Y-111038718D01*
X74703450Y-111002394D01*
X74728308Y-110974000D01*
X74787061Y-110939039D01*
X74851707Y-110936417D01*
X74910992Y-110963358D01*
X74953661Y-111017088D01*
X74959261Y-111030950D01*
X74991867Y-111081936D01*
X75039470Y-111119787D01*
X75099539Y-111150850D01*
X75099539Y-111062768D01*
X75096003Y-111008951D01*
X75080844Y-110966534D01*
X75047232Y-110921279D01*
X75014965Y-110886420D01*
X74964791Y-110837062D01*
X74925807Y-110810547D01*
X74883936Y-110799911D01*
X74836540Y-110798154D01*
X74732667Y-110813528D01*
G36*
X74049193Y-110816782D02*
X74025839Y-110826988D01*
X73970098Y-110871134D01*
X73922431Y-110934967D01*
X73892952Y-111003087D01*
X73888154Y-111036670D01*
X73904240Y-111083556D01*
X73939525Y-111108365D01*
X73977356Y-111123387D01*
X73994679Y-111126155D01*
X74003114Y-111106066D01*
X74019770Y-111062351D01*
X74027077Y-111042598D01*
X74068052Y-110974271D01*
X74127378Y-110940191D01*
X74203448Y-110941239D01*
X74209082Y-110942581D01*
X74249695Y-110961836D01*
X74279552Y-110999375D01*
X74299945Y-111059809D01*
X74312164Y-111147751D01*
X74317500Y-111267813D01*
X74318000Y-111331698D01*
X74318248Y-111432403D01*
X74319874Y-111501054D01*
X74324199Y-111544673D01*
X74332546Y-111570282D01*
X74346235Y-111584903D01*
X74366589Y-111595558D01*
X74367766Y-111596095D01*
X74406962Y-111612667D01*
X74426381Y-111618769D01*
X74429365Y-111600319D01*
X74431919Y-111549323D01*
X74433860Y-111472308D01*
X74435003Y-111375805D01*
X74435231Y-111305184D01*
X74434068Y-111168525D01*
X74429521Y-111064851D01*
X74420001Y-110988108D01*
X74403919Y-110932246D01*
X74379687Y-110891212D01*
X74345714Y-110858954D01*
X74312167Y-110836440D01*
X74231501Y-110806476D01*
X74137619Y-110799718D01*
X74049193Y-110816782D01*
X74049193Y-110816782D01*
G37*
X74049193Y-110816782D02*
X74025839Y-110826988D01*
X73970098Y-110871134D01*
X73922431Y-110934967D01*
X73892952Y-111003087D01*
X73888154Y-111036670D01*
X73904240Y-111083556D01*
X73939525Y-111108365D01*
X73977356Y-111123387D01*
X73994679Y-111126155D01*
X74003114Y-111106066D01*
X74019770Y-111062351D01*
X74027077Y-111042598D01*
X74068052Y-110974271D01*
X74127378Y-110940191D01*
X74203448Y-110941239D01*
X74209082Y-110942581D01*
X74249695Y-110961836D01*
X74279552Y-110999375D01*
X74299945Y-111059809D01*
X74312164Y-111147751D01*
X74317500Y-111267813D01*
X74318000Y-111331698D01*
X74318248Y-111432403D01*
X74319874Y-111501054D01*
X74324199Y-111544673D01*
X74332546Y-111570282D01*
X74346235Y-111584903D01*
X74366589Y-111595558D01*
X74367766Y-111596095D01*
X74406962Y-111612667D01*
X74426381Y-111618769D01*
X74429365Y-111600319D01*
X74431919Y-111549323D01*
X74433860Y-111472308D01*
X74435003Y-111375805D01*
X74435231Y-111305184D01*
X74434068Y-111168525D01*
X74429521Y-111064851D01*
X74420001Y-110988108D01*
X74403919Y-110932246D01*
X74379687Y-110891212D01*
X74345714Y-110858954D01*
X74312167Y-110836440D01*
X74231501Y-110806476D01*
X74137619Y-110799718D01*
X74049193Y-110816782D01*
G36*
X73374776Y-110827838D02*
X73297472Y-110878361D01*
X73260186Y-110923590D01*
X73230647Y-111005663D01*
X73228301Y-111070607D01*
X73233615Y-111157445D01*
X73433885Y-111245103D01*
X73531261Y-111289887D01*
X73594887Y-111325913D01*
X73627971Y-111357117D01*
X73633720Y-111387436D01*
X73615342Y-111420805D01*
X73595077Y-111442923D01*
X73536111Y-111478393D01*
X73471976Y-111480879D01*
X73413074Y-111453235D01*
X73369803Y-111398320D01*
X73362064Y-111378928D01*
X73324994Y-111318364D01*
X73282346Y-111292552D01*
X73223846Y-111270471D01*
X73223846Y-111354184D01*
X73229018Y-111411150D01*
X73249277Y-111459189D01*
X73291738Y-111514346D01*
X73298049Y-111521514D01*
X73345280Y-111570585D01*
X73385879Y-111596920D01*
X73436672Y-111609035D01*
X73478780Y-111613003D01*
X73554098Y-111613991D01*
X73607714Y-111601466D01*
X73641162Y-111582869D01*
X73693732Y-111541975D01*
X73730121Y-111497748D01*
X73753150Y-111442126D01*
X73765641Y-111367047D01*
X73770413Y-111264449D01*
X73770794Y-111212376D01*
X73769499Y-111149948D01*
X73651529Y-111149948D01*
X73650161Y-111183438D01*
X73646751Y-111188923D01*
X73624247Y-111181472D01*
X73575818Y-111161753D01*
X73511092Y-111133718D01*
X73497557Y-111127692D01*
X73415756Y-111086096D01*
X73370688Y-111049538D01*
X73360783Y-111015296D01*
X73384474Y-110980648D01*
X73404040Y-110965339D01*
X73474640Y-110934721D01*
X73540720Y-110939780D01*
X73596041Y-110977151D01*
X73634364Y-111043473D01*
X73646651Y-111096116D01*
X73651529Y-111149948D01*
X73769499Y-111149948D01*
X73768270Y-111090720D01*
X73758968Y-111000710D01*
X73740540Y-110935167D01*
X73710640Y-110886912D01*
X73666920Y-110848767D01*
X73647859Y-110836440D01*
X73561274Y-110804336D01*
X73466478Y-110802316D01*
X73374776Y-110827838D01*
X73374776Y-110827838D01*
G37*
X73374776Y-110827838D02*
X73297472Y-110878361D01*
X73260186Y-110923590D01*
X73230647Y-111005663D01*
X73228301Y-111070607D01*
X73233615Y-111157445D01*
X73433885Y-111245103D01*
X73531261Y-111289887D01*
X73594887Y-111325913D01*
X73627971Y-111357117D01*
X73633720Y-111387436D01*
X73615342Y-111420805D01*
X73595077Y-111442923D01*
X73536111Y-111478393D01*
X73471976Y-111480879D01*
X73413074Y-111453235D01*
X73369803Y-111398320D01*
X73362064Y-111378928D01*
X73324994Y-111318364D01*
X73282346Y-111292552D01*
X73223846Y-111270471D01*
X73223846Y-111354184D01*
X73229018Y-111411150D01*
X73249277Y-111459189D01*
X73291738Y-111514346D01*
X73298049Y-111521514D01*
X73345280Y-111570585D01*
X73385879Y-111596920D01*
X73436672Y-111609035D01*
X73478780Y-111613003D01*
X73554098Y-111613991D01*
X73607714Y-111601466D01*
X73641162Y-111582869D01*
X73693732Y-111541975D01*
X73730121Y-111497748D01*
X73753150Y-111442126D01*
X73765641Y-111367047D01*
X73770413Y-111264449D01*
X73770794Y-111212376D01*
X73769499Y-111149948D01*
X73651529Y-111149948D01*
X73650161Y-111183438D01*
X73646751Y-111188923D01*
X73624247Y-111181472D01*
X73575818Y-111161753D01*
X73511092Y-111133718D01*
X73497557Y-111127692D01*
X73415756Y-111086096D01*
X73370688Y-111049538D01*
X73360783Y-111015296D01*
X73384474Y-110980648D01*
X73404040Y-110965339D01*
X73474640Y-110934721D01*
X73540720Y-110939780D01*
X73596041Y-110977151D01*
X73634364Y-111043473D01*
X73646651Y-111096116D01*
X73651529Y-111149948D01*
X73769499Y-111149948D01*
X73768270Y-111090720D01*
X73758968Y-111000710D01*
X73740540Y-110935167D01*
X73710640Y-110886912D01*
X73666920Y-110848767D01*
X73647859Y-110836440D01*
X73561274Y-110804336D01*
X73466478Y-110802316D01*
X73374776Y-110827838D01*
G36*
X77480122Y-104467776D02*
X77374388Y-104468355D01*
X77297868Y-104469922D01*
X77245628Y-104472972D01*
X77212737Y-104477996D01*
X77194263Y-104485489D01*
X77185273Y-104495944D01*
X77180837Y-104509853D01*
X77180406Y-104511654D01*
X77173667Y-104544145D01*
X77161192Y-104608252D01*
X77144281Y-104697151D01*
X77124229Y-104804019D01*
X77102336Y-104922033D01*
X77101571Y-104926178D01*
X77079641Y-105041831D01*
X77059123Y-105144014D01*
X77041341Y-105226598D01*
X77027619Y-105283456D01*
X77019282Y-105308458D01*
X77018884Y-105308901D01*
X76994323Y-105321110D01*
X76943685Y-105341456D01*
X76877905Y-105365545D01*
X76877539Y-105365674D01*
X76794683Y-105396818D01*
X76697000Y-105436491D01*
X76604923Y-105476381D01*
X76600566Y-105478353D01*
X76450593Y-105546420D01*
X76118502Y-105319639D01*
X76016626Y-105250504D01*
X75924343Y-105188697D01*
X75846997Y-105137733D01*
X75789936Y-105101127D01*
X75758505Y-105082394D01*
X75755521Y-105081004D01*
X75732679Y-105087190D01*
X75690018Y-105117035D01*
X75625872Y-105171947D01*
X75538579Y-105253334D01*
X75449465Y-105339922D01*
X75363559Y-105425247D01*
X75286673Y-105503108D01*
X75223436Y-105568697D01*
X75178477Y-105617205D01*
X75156424Y-105643825D01*
X75155604Y-105645195D01*
X75153166Y-105663463D01*
X75162350Y-105693295D01*
X75185426Y-105738721D01*
X75224663Y-105803770D01*
X75282330Y-105892470D01*
X75359205Y-106006657D01*
X75427430Y-106107162D01*
X75488418Y-106197303D01*
X75538644Y-106271849D01*
X75574584Y-106325565D01*
X75592713Y-106353218D01*
X75593854Y-106355095D01*
X75591641Y-106381590D01*
X75574862Y-106433086D01*
X75546858Y-106499851D01*
X75536878Y-106521172D01*
X75493328Y-106616159D01*
X75446866Y-106723937D01*
X75409123Y-106817192D01*
X75381927Y-106886406D01*
X75360325Y-106939006D01*
X75347842Y-106966497D01*
X75346291Y-106968616D01*
X75323332Y-106972124D01*
X75269214Y-106981738D01*
X75191132Y-106996089D01*
X75096281Y-107013807D01*
X74991857Y-107033525D01*
X74885056Y-107053874D01*
X74783074Y-107073486D01*
X74693106Y-107090991D01*
X74622347Y-107105022D01*
X74577994Y-107114209D01*
X74567115Y-107116807D01*
X74555878Y-107123218D01*
X74547395Y-107137697D01*
X74541286Y-107165133D01*
X74537168Y-107210411D01*
X74534659Y-107278420D01*
X74533379Y-107374047D01*
X74532946Y-107502180D01*
X74532923Y-107554701D01*
X74532923Y-107981845D01*
X74635500Y-108002091D01*
X74692569Y-108013070D01*
X74777731Y-108029095D01*
X74880628Y-108048233D01*
X74990904Y-108068551D01*
X75021385Y-108074132D01*
X75123145Y-108093917D01*
X75211795Y-108113373D01*
X75279892Y-108130697D01*
X75319996Y-108144088D01*
X75326677Y-108148079D01*
X75343081Y-108176342D01*
X75366601Y-108231109D01*
X75392684Y-108301588D01*
X75397858Y-108316769D01*
X75432044Y-108410896D01*
X75474477Y-108517101D01*
X75516003Y-108612473D01*
X75516208Y-108612916D01*
X75585360Y-108762525D01*
X75130488Y-109431617D01*
X75422500Y-109724116D01*
X75510820Y-109811170D01*
X75591375Y-109887909D01*
X75659640Y-109950237D01*
X75711092Y-109994056D01*
X75741206Y-110015270D01*
X75745526Y-110016616D01*
X75770889Y-110006016D01*
X75822642Y-109976547D01*
X75895132Y-109931705D01*
X75982706Y-109874984D01*
X76077388Y-109811462D01*
X76173484Y-109746668D01*
X76259163Y-109690287D01*
X76328984Y-109645788D01*
X76377506Y-109616639D01*
X76399218Y-109606308D01*
X76425707Y-109615050D01*
X76475938Y-109638087D01*
X76539549Y-109670631D01*
X76546292Y-109674249D01*
X76631954Y-109717210D01*
X76690694Y-109738279D01*
X76727228Y-109738503D01*
X76746269Y-109718928D01*
X76746380Y-109718654D01*
X76755898Y-109695472D01*
X76778597Y-109640441D01*
X76812718Y-109557822D01*
X76856500Y-109451872D01*
X76908184Y-109326852D01*
X76966008Y-109187020D01*
X77022009Y-109051637D01*
X77083553Y-108902234D01*
X77140061Y-108763832D01*
X77189839Y-108640673D01*
X77231194Y-108537002D01*
X77262432Y-108457059D01*
X77281859Y-108405088D01*
X77287846Y-108385692D01*
X77272832Y-108363443D01*
X77233561Y-108327982D01*
X77181193Y-108288887D01*
X77032059Y-108165245D01*
X76915489Y-108023522D01*
X76832882Y-107866704D01*
X76785634Y-107697775D01*
X76775143Y-107519722D01*
X76782769Y-107437539D01*
X76824318Y-107267031D01*
X76895877Y-107116459D01*
X76993005Y-106987309D01*
X77111266Y-106881064D01*
X77246220Y-106799210D01*
X77393429Y-106743232D01*
X77548456Y-106714615D01*
X77706861Y-106714844D01*
X77864206Y-106745405D01*
X78016054Y-106807782D01*
X78157965Y-106903460D01*
X78217197Y-106957572D01*
X78330797Y-107096520D01*
X78409894Y-107248361D01*
X78455014Y-107408667D01*
X78466684Y-107573012D01*
X78445431Y-107736971D01*
X78391780Y-107896118D01*
X78306260Y-108046025D01*
X78189395Y-108182267D01*
X78058807Y-108288887D01*
X78004412Y-108329642D01*
X77965986Y-108364718D01*
X77952154Y-108385726D01*
X77959397Y-108408635D01*
X77979995Y-108463365D01*
X78012254Y-108545672D01*
X78054479Y-108651315D01*
X78104977Y-108776050D01*
X78162052Y-108915636D01*
X78218146Y-109051670D01*
X78280033Y-109201201D01*
X78337356Y-109339767D01*
X78388356Y-109463107D01*
X78431273Y-109566964D01*
X78464347Y-109647080D01*
X78485819Y-109699195D01*
X78493775Y-109718654D01*
X78512571Y-109738423D01*
X78548926Y-109738365D01*
X78607521Y-109717441D01*
X78693032Y-109674613D01*
X78693708Y-109674249D01*
X78758093Y-109641012D01*
X78810139Y-109616802D01*
X78839488Y-109606404D01*
X78840783Y-109606308D01*
X78862876Y-109616855D01*
X78911652Y-109646184D01*
X78981669Y-109690827D01*
X79067486Y-109747314D01*
X79162612Y-109811462D01*
X79259460Y-109876411D01*
X79346747Y-109932896D01*
X79418819Y-109977421D01*
X79470023Y-110006490D01*
X79494474Y-110016616D01*
X79516990Y-110003307D01*
X79562258Y-109966112D01*
X79625756Y-109909128D01*
X79702961Y-109836449D01*
X79789349Y-109752171D01*
X79817601Y-109724016D01*
X80109713Y-109431416D01*
X79887369Y-109105104D01*
X79819798Y-109004897D01*
X79760493Y-108914963D01*
X79712783Y-108840510D01*
X79679993Y-108786751D01*
X79665452Y-108758894D01*
X79665026Y-108756912D01*
X79672692Y-108730655D01*
X79693311Y-108677837D01*
X79723315Y-108607310D01*
X79744375Y-108560093D01*
X79783752Y-108469694D01*
X79820835Y-108378366D01*
X79849585Y-108301200D01*
X79857395Y-108277692D01*
X79879583Y-108214916D01*
X79901273Y-108166411D01*
X79913187Y-108148079D01*
X79939477Y-108136859D01*
X79996858Y-108120954D01*
X80077882Y-108102167D01*
X80175105Y-108082299D01*
X80218615Y-108074132D01*
X80329104Y-108053829D01*
X80435084Y-108034170D01*
X80526199Y-108017088D01*
X80592092Y-108004518D01*
X80604500Y-108002091D01*
X80707077Y-107981845D01*
X80707077Y-107554701D01*
X80706847Y-107414246D01*
X80705901Y-107307979D01*
X80703859Y-107231013D01*
X80700338Y-107178460D01*
X80694957Y-107145433D01*
X80687334Y-107127045D01*
X80677088Y-107118408D01*
X80672885Y-107116807D01*
X80647530Y-107111127D01*
X80591516Y-107099795D01*
X80512036Y-107084179D01*
X80416288Y-107065647D01*
X80311467Y-107045569D01*
X80204768Y-107025312D01*
X80103387Y-107006246D01*
X80014521Y-106989739D01*
X79945363Y-106977159D01*
X79903111Y-106969875D01*
X79893710Y-106968616D01*
X79885193Y-106951763D01*
X79866340Y-106906870D01*
X79840676Y-106842430D01*
X79830877Y-106817192D01*
X79791352Y-106719686D01*
X79744808Y-106611959D01*
X79703123Y-106521172D01*
X79672450Y-106451753D01*
X79652044Y-106394710D01*
X79645232Y-106359777D01*
X79646318Y-106355095D01*
X79660715Y-106332991D01*
X79693588Y-106283831D01*
X79741410Y-106212848D01*
X79800652Y-106125278D01*
X79867785Y-106026357D01*
X79881059Y-106006830D01*
X79958954Y-105891140D01*
X80016213Y-105803044D01*
X80055119Y-105738486D01*
X80077956Y-105693411D01*
X80087006Y-105663763D01*
X80084552Y-105645485D01*
X80084489Y-105645369D01*
X80065173Y-105621361D01*
X80022449Y-105574947D01*
X79960949Y-105510937D01*
X79885302Y-105434145D01*
X79800139Y-105349382D01*
X79790535Y-105339922D01*
X79683210Y-105235989D01*
X79600385Y-105159675D01*
X79540395Y-105109571D01*
X79501577Y-105084270D01*
X79484480Y-105081004D01*
X79459527Y-105095250D01*
X79407745Y-105128156D01*
X79334480Y-105176208D01*
X79245080Y-105235890D01*
X79144889Y-105303688D01*
X79121499Y-105319639D01*
X78789407Y-105546420D01*
X78639435Y-105478353D01*
X78548230Y-105438685D01*
X78450331Y-105398791D01*
X78366169Y-105366983D01*
X78362462Y-105365674D01*
X78296631Y-105341576D01*
X78245884Y-105321200D01*
X78221158Y-105308936D01*
X78221116Y-105308901D01*
X78213271Y-105286734D01*
X78199934Y-105232217D01*
X78182430Y-105151480D01*
X78162083Y-105050650D01*
X78140218Y-104935856D01*
X78138429Y-104926178D01*
X78116496Y-104807904D01*
X78096360Y-104700542D01*
X78079320Y-104610917D01*
X78066672Y-104545851D01*
X78059716Y-104512168D01*
X78059594Y-104511654D01*
X78055361Y-104497325D01*
X78047129Y-104486507D01*
X78029967Y-104478706D01*
X77998942Y-104473429D01*
X77949122Y-104470182D01*
X77875576Y-104468472D01*
X77773371Y-104467807D01*
X77637575Y-104467693D01*
X77620000Y-104467692D01*
X77480122Y-104467776D01*
X77480122Y-104467776D01*
G37*
X77480122Y-104467776D02*
X77374388Y-104468355D01*
X77297868Y-104469922D01*
X77245628Y-104472972D01*
X77212737Y-104477996D01*
X77194263Y-104485489D01*
X77185273Y-104495944D01*
X77180837Y-104509853D01*
X77180406Y-104511654D01*
X77173667Y-104544145D01*
X77161192Y-104608252D01*
X77144281Y-104697151D01*
X77124229Y-104804019D01*
X77102336Y-104922033D01*
X77101571Y-104926178D01*
X77079641Y-105041831D01*
X77059123Y-105144014D01*
X77041341Y-105226598D01*
X77027619Y-105283456D01*
X77019282Y-105308458D01*
X77018884Y-105308901D01*
X76994323Y-105321110D01*
X76943685Y-105341456D01*
X76877905Y-105365545D01*
X76877539Y-105365674D01*
X76794683Y-105396818D01*
X76697000Y-105436491D01*
X76604923Y-105476381D01*
X76600566Y-105478353D01*
X76450593Y-105546420D01*
X76118502Y-105319639D01*
X76016626Y-105250504D01*
X75924343Y-105188697D01*
X75846997Y-105137733D01*
X75789936Y-105101127D01*
X75758505Y-105082394D01*
X75755521Y-105081004D01*
X75732679Y-105087190D01*
X75690018Y-105117035D01*
X75625872Y-105171947D01*
X75538579Y-105253334D01*
X75449465Y-105339922D01*
X75363559Y-105425247D01*
X75286673Y-105503108D01*
X75223436Y-105568697D01*
X75178477Y-105617205D01*
X75156424Y-105643825D01*
X75155604Y-105645195D01*
X75153166Y-105663463D01*
X75162350Y-105693295D01*
X75185426Y-105738721D01*
X75224663Y-105803770D01*
X75282330Y-105892470D01*
X75359205Y-106006657D01*
X75427430Y-106107162D01*
X75488418Y-106197303D01*
X75538644Y-106271849D01*
X75574584Y-106325565D01*
X75592713Y-106353218D01*
X75593854Y-106355095D01*
X75591641Y-106381590D01*
X75574862Y-106433086D01*
X75546858Y-106499851D01*
X75536878Y-106521172D01*
X75493328Y-106616159D01*
X75446866Y-106723937D01*
X75409123Y-106817192D01*
X75381927Y-106886406D01*
X75360325Y-106939006D01*
X75347842Y-106966497D01*
X75346291Y-106968616D01*
X75323332Y-106972124D01*
X75269214Y-106981738D01*
X75191132Y-106996089D01*
X75096281Y-107013807D01*
X74991857Y-107033525D01*
X74885056Y-107053874D01*
X74783074Y-107073486D01*
X74693106Y-107090991D01*
X74622347Y-107105022D01*
X74577994Y-107114209D01*
X74567115Y-107116807D01*
X74555878Y-107123218D01*
X74547395Y-107137697D01*
X74541286Y-107165133D01*
X74537168Y-107210411D01*
X74534659Y-107278420D01*
X74533379Y-107374047D01*
X74532946Y-107502180D01*
X74532923Y-107554701D01*
X74532923Y-107981845D01*
X74635500Y-108002091D01*
X74692569Y-108013070D01*
X74777731Y-108029095D01*
X74880628Y-108048233D01*
X74990904Y-108068551D01*
X75021385Y-108074132D01*
X75123145Y-108093917D01*
X75211795Y-108113373D01*
X75279892Y-108130697D01*
X75319996Y-108144088D01*
X75326677Y-108148079D01*
X75343081Y-108176342D01*
X75366601Y-108231109D01*
X75392684Y-108301588D01*
X75397858Y-108316769D01*
X75432044Y-108410896D01*
X75474477Y-108517101D01*
X75516003Y-108612473D01*
X75516208Y-108612916D01*
X75585360Y-108762525D01*
X75130488Y-109431617D01*
X75422500Y-109724116D01*
X75510820Y-109811170D01*
X75591375Y-109887909D01*
X75659640Y-109950237D01*
X75711092Y-109994056D01*
X75741206Y-110015270D01*
X75745526Y-110016616D01*
X75770889Y-110006016D01*
X75822642Y-109976547D01*
X75895132Y-109931705D01*
X75982706Y-109874984D01*
X76077388Y-109811462D01*
X76173484Y-109746668D01*
X76259163Y-109690287D01*
X76328984Y-109645788D01*
X76377506Y-109616639D01*
X76399218Y-109606308D01*
X76425707Y-109615050D01*
X76475938Y-109638087D01*
X76539549Y-109670631D01*
X76546292Y-109674249D01*
X76631954Y-109717210D01*
X76690694Y-109738279D01*
X76727228Y-109738503D01*
X76746269Y-109718928D01*
X76746380Y-109718654D01*
X76755898Y-109695472D01*
X76778597Y-109640441D01*
X76812718Y-109557822D01*
X76856500Y-109451872D01*
X76908184Y-109326852D01*
X76966008Y-109187020D01*
X77022009Y-109051637D01*
X77083553Y-108902234D01*
X77140061Y-108763832D01*
X77189839Y-108640673D01*
X77231194Y-108537002D01*
X77262432Y-108457059D01*
X77281859Y-108405088D01*
X77287846Y-108385692D01*
X77272832Y-108363443D01*
X77233561Y-108327982D01*
X77181193Y-108288887D01*
X77032059Y-108165245D01*
X76915489Y-108023522D01*
X76832882Y-107866704D01*
X76785634Y-107697775D01*
X76775143Y-107519722D01*
X76782769Y-107437539D01*
X76824318Y-107267031D01*
X76895877Y-107116459D01*
X76993005Y-106987309D01*
X77111266Y-106881064D01*
X77246220Y-106799210D01*
X77393429Y-106743232D01*
X77548456Y-106714615D01*
X77706861Y-106714844D01*
X77864206Y-106745405D01*
X78016054Y-106807782D01*
X78157965Y-106903460D01*
X78217197Y-106957572D01*
X78330797Y-107096520D01*
X78409894Y-107248361D01*
X78455014Y-107408667D01*
X78466684Y-107573012D01*
X78445431Y-107736971D01*
X78391780Y-107896118D01*
X78306260Y-108046025D01*
X78189395Y-108182267D01*
X78058807Y-108288887D01*
X78004412Y-108329642D01*
X77965986Y-108364718D01*
X77952154Y-108385726D01*
X77959397Y-108408635D01*
X77979995Y-108463365D01*
X78012254Y-108545672D01*
X78054479Y-108651315D01*
X78104977Y-108776050D01*
X78162052Y-108915636D01*
X78218146Y-109051670D01*
X78280033Y-109201201D01*
X78337356Y-109339767D01*
X78388356Y-109463107D01*
X78431273Y-109566964D01*
X78464347Y-109647080D01*
X78485819Y-109699195D01*
X78493775Y-109718654D01*
X78512571Y-109738423D01*
X78548926Y-109738365D01*
X78607521Y-109717441D01*
X78693032Y-109674613D01*
X78693708Y-109674249D01*
X78758093Y-109641012D01*
X78810139Y-109616802D01*
X78839488Y-109606404D01*
X78840783Y-109606308D01*
X78862876Y-109616855D01*
X78911652Y-109646184D01*
X78981669Y-109690827D01*
X79067486Y-109747314D01*
X79162612Y-109811462D01*
X79259460Y-109876411D01*
X79346747Y-109932896D01*
X79418819Y-109977421D01*
X79470023Y-110006490D01*
X79494474Y-110016616D01*
X79516990Y-110003307D01*
X79562258Y-109966112D01*
X79625756Y-109909128D01*
X79702961Y-109836449D01*
X79789349Y-109752171D01*
X79817601Y-109724016D01*
X80109713Y-109431416D01*
X79887369Y-109105104D01*
X79819798Y-109004897D01*
X79760493Y-108914963D01*
X79712783Y-108840510D01*
X79679993Y-108786751D01*
X79665452Y-108758894D01*
X79665026Y-108756912D01*
X79672692Y-108730655D01*
X79693311Y-108677837D01*
X79723315Y-108607310D01*
X79744375Y-108560093D01*
X79783752Y-108469694D01*
X79820835Y-108378366D01*
X79849585Y-108301200D01*
X79857395Y-108277692D01*
X79879583Y-108214916D01*
X79901273Y-108166411D01*
X79913187Y-108148079D01*
X79939477Y-108136859D01*
X79996858Y-108120954D01*
X80077882Y-108102167D01*
X80175105Y-108082299D01*
X80218615Y-108074132D01*
X80329104Y-108053829D01*
X80435084Y-108034170D01*
X80526199Y-108017088D01*
X80592092Y-108004518D01*
X80604500Y-108002091D01*
X80707077Y-107981845D01*
X80707077Y-107554701D01*
X80706847Y-107414246D01*
X80705901Y-107307979D01*
X80703859Y-107231013D01*
X80700338Y-107178460D01*
X80694957Y-107145433D01*
X80687334Y-107127045D01*
X80677088Y-107118408D01*
X80672885Y-107116807D01*
X80647530Y-107111127D01*
X80591516Y-107099795D01*
X80512036Y-107084179D01*
X80416288Y-107065647D01*
X80311467Y-107045569D01*
X80204768Y-107025312D01*
X80103387Y-107006246D01*
X80014521Y-106989739D01*
X79945363Y-106977159D01*
X79903111Y-106969875D01*
X79893710Y-106968616D01*
X79885193Y-106951763D01*
X79866340Y-106906870D01*
X79840676Y-106842430D01*
X79830877Y-106817192D01*
X79791352Y-106719686D01*
X79744808Y-106611959D01*
X79703123Y-106521172D01*
X79672450Y-106451753D01*
X79652044Y-106394710D01*
X79645232Y-106359777D01*
X79646318Y-106355095D01*
X79660715Y-106332991D01*
X79693588Y-106283831D01*
X79741410Y-106212848D01*
X79800652Y-106125278D01*
X79867785Y-106026357D01*
X79881059Y-106006830D01*
X79958954Y-105891140D01*
X80016213Y-105803044D01*
X80055119Y-105738486D01*
X80077956Y-105693411D01*
X80087006Y-105663763D01*
X80084552Y-105645485D01*
X80084489Y-105645369D01*
X80065173Y-105621361D01*
X80022449Y-105574947D01*
X79960949Y-105510937D01*
X79885302Y-105434145D01*
X79800139Y-105349382D01*
X79790535Y-105339922D01*
X79683210Y-105235989D01*
X79600385Y-105159675D01*
X79540395Y-105109571D01*
X79501577Y-105084270D01*
X79484480Y-105081004D01*
X79459527Y-105095250D01*
X79407745Y-105128156D01*
X79334480Y-105176208D01*
X79245080Y-105235890D01*
X79144889Y-105303688D01*
X79121499Y-105319639D01*
X78789407Y-105546420D01*
X78639435Y-105478353D01*
X78548230Y-105438685D01*
X78450331Y-105398791D01*
X78366169Y-105366983D01*
X78362462Y-105365674D01*
X78296631Y-105341576D01*
X78245884Y-105321200D01*
X78221158Y-105308936D01*
X78221116Y-105308901D01*
X78213271Y-105286734D01*
X78199934Y-105232217D01*
X78182430Y-105151480D01*
X78162083Y-105050650D01*
X78140218Y-104935856D01*
X78138429Y-104926178D01*
X78116496Y-104807904D01*
X78096360Y-104700542D01*
X78079320Y-104610917D01*
X78066672Y-104545851D01*
X78059716Y-104512168D01*
X78059594Y-104511654D01*
X78055361Y-104497325D01*
X78047129Y-104486507D01*
X78029967Y-104478706D01*
X77998942Y-104473429D01*
X77949122Y-104470182D01*
X77875576Y-104468472D01*
X77773371Y-104467807D01*
X77637575Y-104467693D01*
X77620000Y-104467692D01*
X77480122Y-104467776D01*
M02*
