G04 #@! TF.FileFunction,Legend,Bot*
%FSLAX46Y46*%
G04 Gerber Fmt 4.6, Leading zero omitted, Abs format (unit mm)*
G04 Created by KiCad (PCBNEW 4.0.6) date 05/13/17 18:14:43*
%MOMM*%
%LPD*%
G01*
G04 APERTURE LIST*
%ADD10C,0.100000*%
%ADD11C,0.150000*%
%ADD12C,0.300000*%
G04 APERTURE END LIST*
D10*
D11*
X115000000Y-104000000D02*
X115000000Y-139000000D01*
X67000000Y-104000000D02*
X115000000Y-104000000D01*
X67000000Y-139000000D02*
X67000000Y-104000000D01*
X67250000Y-139000000D02*
X115000000Y-139000000D01*
X67000000Y-139000000D02*
X67250000Y-139000000D01*
X98000000Y-107175000D02*
X96000000Y-107175000D01*
X96000000Y-109325000D02*
X98000000Y-109325000D01*
X85250000Y-109175000D02*
X83250000Y-109175000D01*
X83250000Y-111325000D02*
X85250000Y-111325000D01*
X111575000Y-117500000D02*
X111575000Y-115500000D01*
X109425000Y-115500000D02*
X109425000Y-117500000D01*
X85750000Y-120175000D02*
X83750000Y-120175000D01*
X83750000Y-122325000D02*
X85750000Y-122325000D01*
X73200000Y-113575000D02*
X75200000Y-113575000D01*
X75200000Y-111425000D02*
X73200000Y-111425000D01*
X103500000Y-122000000D02*
X103500000Y-120750000D01*
X103500000Y-122000000D02*
X102000000Y-122000000D01*
X103500000Y-112000000D02*
X102000000Y-112000000D01*
X103500000Y-112000000D02*
X103500000Y-113250000D01*
X87950000Y-117150000D02*
X87950000Y-112650000D01*
X79450000Y-117150000D02*
X79450000Y-112650000D01*
X79450000Y-112650000D02*
X87950000Y-112650000D01*
X79450000Y-117150000D02*
X87950000Y-117150000D01*
D12*
X79300000Y-117550000D02*
G75*
G03X79300000Y-117550000I-250000J0D01*
G01*
D11*
X92666666Y-108702381D02*
X93000000Y-108226190D01*
X93238095Y-108702381D02*
X93238095Y-107702381D01*
X92857142Y-107702381D01*
X92761904Y-107750000D01*
X92714285Y-107797619D01*
X92666666Y-107892857D01*
X92666666Y-108035714D01*
X92714285Y-108130952D01*
X92761904Y-108178571D01*
X92857142Y-108226190D01*
X93238095Y-108226190D01*
X91761904Y-107702381D02*
X92238095Y-107702381D01*
X92285714Y-108178571D01*
X92238095Y-108130952D01*
X92142857Y-108083333D01*
X91904761Y-108083333D01*
X91809523Y-108130952D01*
X91761904Y-108178571D01*
X91714285Y-108273810D01*
X91714285Y-108511905D01*
X91761904Y-108607143D01*
X91809523Y-108654762D01*
X91904761Y-108702381D01*
X92142857Y-108702381D01*
X92238095Y-108654762D01*
X92285714Y-108607143D01*
X79916666Y-110702381D02*
X80250000Y-110226190D01*
X80488095Y-110702381D02*
X80488095Y-109702381D01*
X80107142Y-109702381D01*
X80011904Y-109750000D01*
X79964285Y-109797619D01*
X79916666Y-109892857D01*
X79916666Y-110035714D01*
X79964285Y-110130952D01*
X80011904Y-110178571D01*
X80107142Y-110226190D01*
X80488095Y-110226190D01*
X78964285Y-110702381D02*
X79535714Y-110702381D01*
X79250000Y-110702381D02*
X79250000Y-109702381D01*
X79345238Y-109845238D01*
X79440476Y-109940476D01*
X79535714Y-109988095D01*
X110952381Y-111833334D02*
X110476190Y-111500000D01*
X110952381Y-111261905D02*
X109952381Y-111261905D01*
X109952381Y-111642858D01*
X110000000Y-111738096D01*
X110047619Y-111785715D01*
X110142857Y-111833334D01*
X110285714Y-111833334D01*
X110380952Y-111785715D01*
X110428571Y-111738096D01*
X110476190Y-111642858D01*
X110476190Y-111261905D01*
X110047619Y-112214286D02*
X110000000Y-112261905D01*
X109952381Y-112357143D01*
X109952381Y-112595239D01*
X110000000Y-112690477D01*
X110047619Y-112738096D01*
X110142857Y-112785715D01*
X110238095Y-112785715D01*
X110380952Y-112738096D01*
X110952381Y-112166667D01*
X110952381Y-112785715D01*
X80536666Y-121792381D02*
X80870000Y-121316190D01*
X81108095Y-121792381D02*
X81108095Y-120792381D01*
X80727142Y-120792381D01*
X80631904Y-120840000D01*
X80584285Y-120887619D01*
X80536666Y-120982857D01*
X80536666Y-121125714D01*
X80584285Y-121220952D01*
X80631904Y-121268571D01*
X80727142Y-121316190D01*
X81108095Y-121316190D01*
X79679523Y-121125714D02*
X79679523Y-121792381D01*
X79917619Y-120744762D02*
X80155714Y-121459048D01*
X79536666Y-121459048D01*
X69366666Y-113252381D02*
X69700000Y-112776190D01*
X69938095Y-113252381D02*
X69938095Y-112252381D01*
X69557142Y-112252381D01*
X69461904Y-112300000D01*
X69414285Y-112347619D01*
X69366666Y-112442857D01*
X69366666Y-112585714D01*
X69414285Y-112680952D01*
X69461904Y-112728571D01*
X69557142Y-112776190D01*
X69938095Y-112776190D01*
X69033333Y-112252381D02*
X68414285Y-112252381D01*
X68747619Y-112633333D01*
X68604761Y-112633333D01*
X68509523Y-112680952D01*
X68461904Y-112728571D01*
X68414285Y-112823810D01*
X68414285Y-113061905D01*
X68461904Y-113157143D01*
X68509523Y-113204762D01*
X68604761Y-113252381D01*
X68890476Y-113252381D01*
X68985714Y-113204762D01*
X69033333Y-113157143D01*
X106455238Y-112477619D02*
X106550476Y-112430000D01*
X106645714Y-112334762D01*
X106788571Y-112191905D01*
X106883810Y-112144286D01*
X106979048Y-112144286D01*
X106931429Y-112382381D02*
X107026667Y-112334762D01*
X107121905Y-112239524D01*
X107169524Y-112049048D01*
X107169524Y-111715714D01*
X107121905Y-111525238D01*
X107026667Y-111430000D01*
X106931429Y-111382381D01*
X106740952Y-111382381D01*
X106645714Y-111430000D01*
X106550476Y-111525238D01*
X106502857Y-111715714D01*
X106502857Y-112049048D01*
X106550476Y-112239524D01*
X106645714Y-112334762D01*
X106740952Y-112382381D01*
X106931429Y-112382381D01*
X105550476Y-112382381D02*
X106121905Y-112382381D01*
X105836191Y-112382381D02*
X105836191Y-111382381D01*
X105931429Y-111525238D01*
X106026667Y-111620476D01*
X106121905Y-111668095D01*
X85211905Y-117352381D02*
X85211905Y-118161905D01*
X85164286Y-118257143D01*
X85116667Y-118304762D01*
X85021429Y-118352381D01*
X84830952Y-118352381D01*
X84735714Y-118304762D01*
X84688095Y-118257143D01*
X84640476Y-118161905D01*
X84640476Y-117352381D01*
X83640476Y-118352381D02*
X84211905Y-118352381D01*
X83926191Y-118352381D02*
X83926191Y-117352381D01*
X84021429Y-117495238D01*
X84116667Y-117590476D01*
X84211905Y-117638095D01*
M02*
