G04 #@! TF.FileFunction,Legend,Top*
%FSLAX46Y46*%
G04 Gerber Fmt 4.6, Leading zero omitted, Abs format (unit mm)*
G04 Created by KiCad (PCBNEW 4.0.6) date 05/13/17 18:14:43*
%MOMM*%
%LPD*%
G01*
G04 APERTURE LIST*
%ADD10C,0.100000*%
%ADD11C,0.150000*%
%ADD12C,0.300000*%
%ADD13C,0.010000*%
G04 APERTURE END LIST*
D10*
D11*
X115000000Y-104000000D02*
X115000000Y-139000000D01*
X67000000Y-104000000D02*
X115000000Y-104000000D01*
X67000000Y-139000000D02*
X67000000Y-104000000D01*
X67250000Y-139000000D02*
X115000000Y-139000000D01*
X67000000Y-139000000D02*
X67250000Y-139000000D01*
X81285715Y-105702381D02*
X81523810Y-106702381D01*
X81714287Y-105988095D01*
X81904763Y-106702381D01*
X82142858Y-105702381D01*
X82428572Y-105702381D02*
X82666667Y-106702381D01*
X82857144Y-105988095D01*
X83047620Y-106702381D01*
X83285715Y-105702381D01*
X83571429Y-105702381D02*
X83809524Y-106702381D01*
X84000001Y-105988095D01*
X84190477Y-106702381D01*
X84428572Y-105702381D01*
X84809524Y-106607143D02*
X84857143Y-106654762D01*
X84809524Y-106702381D01*
X84761905Y-106654762D01*
X84809524Y-106607143D01*
X84809524Y-106702381D01*
X85285714Y-106702381D02*
X85285714Y-105702381D01*
X85523809Y-105702381D01*
X85666667Y-105750000D01*
X85761905Y-105845238D01*
X85809524Y-105940476D01*
X85857143Y-106130952D01*
X85857143Y-106273810D01*
X85809524Y-106464286D01*
X85761905Y-106559524D01*
X85666667Y-106654762D01*
X85523809Y-106702381D01*
X85285714Y-106702381D01*
X86285714Y-106702381D02*
X86285714Y-106035714D01*
X86285714Y-105702381D02*
X86238095Y-105750000D01*
X86285714Y-105797619D01*
X86333333Y-105750000D01*
X86285714Y-105702381D01*
X86285714Y-105797619D01*
X87190476Y-106035714D02*
X87190476Y-106845238D01*
X87142857Y-106940476D01*
X87095238Y-106988095D01*
X86999999Y-107035714D01*
X86857142Y-107035714D01*
X86761904Y-106988095D01*
X87190476Y-106654762D02*
X87095238Y-106702381D01*
X86904761Y-106702381D01*
X86809523Y-106654762D01*
X86761904Y-106607143D01*
X86714285Y-106511905D01*
X86714285Y-106226190D01*
X86761904Y-106130952D01*
X86809523Y-106083333D01*
X86904761Y-106035714D01*
X87095238Y-106035714D01*
X87190476Y-106083333D01*
X87666666Y-106702381D02*
X87666666Y-106035714D01*
X87666666Y-105702381D02*
X87619047Y-105750000D01*
X87666666Y-105797619D01*
X87714285Y-105750000D01*
X87666666Y-105702381D01*
X87666666Y-105797619D01*
X87999999Y-106035714D02*
X88380951Y-106035714D01*
X88142856Y-105702381D02*
X88142856Y-106559524D01*
X88190475Y-106654762D01*
X88285713Y-106702381D01*
X88380951Y-106702381D01*
X89142857Y-106702381D02*
X89142857Y-106178571D01*
X89095238Y-106083333D01*
X89000000Y-106035714D01*
X88809523Y-106035714D01*
X88714285Y-106083333D01*
X89142857Y-106654762D02*
X89047619Y-106702381D01*
X88809523Y-106702381D01*
X88714285Y-106654762D01*
X88666666Y-106559524D01*
X88666666Y-106464286D01*
X88714285Y-106369048D01*
X88809523Y-106321429D01*
X89047619Y-106321429D01*
X89142857Y-106273810D01*
X89761904Y-106702381D02*
X89666666Y-106654762D01*
X89619047Y-106559524D01*
X89619047Y-105702381D01*
X90142857Y-106321429D02*
X90904762Y-106321429D01*
X91333333Y-106654762D02*
X91476190Y-106702381D01*
X91714286Y-106702381D01*
X91809524Y-106654762D01*
X91857143Y-106607143D01*
X91904762Y-106511905D01*
X91904762Y-106416667D01*
X91857143Y-106321429D01*
X91809524Y-106273810D01*
X91714286Y-106226190D01*
X91523809Y-106178571D01*
X91428571Y-106130952D01*
X91380952Y-106083333D01*
X91333333Y-105988095D01*
X91333333Y-105892857D01*
X91380952Y-105797619D01*
X91428571Y-105750000D01*
X91523809Y-105702381D01*
X91761905Y-105702381D01*
X91904762Y-105750000D01*
X92761905Y-106035714D02*
X92761905Y-107035714D01*
X92761905Y-106654762D02*
X92666667Y-106702381D01*
X92476190Y-106702381D01*
X92380952Y-106654762D01*
X92333333Y-106607143D01*
X92285714Y-106511905D01*
X92285714Y-106226190D01*
X92333333Y-106130952D01*
X92380952Y-106083333D01*
X92476190Y-106035714D01*
X92666667Y-106035714D01*
X92761905Y-106083333D01*
X93238095Y-106702381D02*
X93238095Y-106035714D01*
X93238095Y-106226190D02*
X93285714Y-106130952D01*
X93333333Y-106083333D01*
X93428571Y-106035714D01*
X93523810Y-106035714D01*
X93714286Y-106035714D02*
X94095238Y-106035714D01*
X93857143Y-105702381D02*
X93857143Y-106559524D01*
X93904762Y-106654762D01*
X94000000Y-106702381D01*
X94095238Y-106702381D01*
X94428572Y-106607143D02*
X94476191Y-106654762D01*
X94428572Y-106702381D01*
X94380953Y-106654762D01*
X94428572Y-106607143D01*
X94428572Y-106702381D01*
X95476191Y-106607143D02*
X95428572Y-106654762D01*
X95285715Y-106702381D01*
X95190477Y-106702381D01*
X95047619Y-106654762D01*
X94952381Y-106559524D01*
X94904762Y-106464286D01*
X94857143Y-106273810D01*
X94857143Y-106130952D01*
X94904762Y-105940476D01*
X94952381Y-105845238D01*
X95047619Y-105750000D01*
X95190477Y-105702381D01*
X95285715Y-105702381D01*
X95428572Y-105750000D01*
X95476191Y-105797619D01*
X96095238Y-105702381D02*
X96285715Y-105702381D01*
X96380953Y-105750000D01*
X96476191Y-105845238D01*
X96523810Y-106035714D01*
X96523810Y-106369048D01*
X96476191Y-106559524D01*
X96380953Y-106654762D01*
X96285715Y-106702381D01*
X96095238Y-106702381D01*
X96000000Y-106654762D01*
X95904762Y-106559524D01*
X95857143Y-106369048D01*
X95857143Y-106035714D01*
X95904762Y-105845238D01*
X96000000Y-105750000D01*
X96095238Y-105702381D01*
X96952381Y-106702381D02*
X96952381Y-105702381D01*
X97285715Y-106416667D01*
X97619048Y-105702381D01*
X97619048Y-106702381D01*
X67986667Y-119552381D02*
X67986667Y-120266667D01*
X67939047Y-120409524D01*
X67843809Y-120504762D01*
X67700952Y-120552381D01*
X67605714Y-120552381D01*
X68462857Y-120552381D02*
X68462857Y-119552381D01*
X68843810Y-119552381D01*
X68939048Y-119600000D01*
X68986667Y-119647619D01*
X69034286Y-119742857D01*
X69034286Y-119885714D01*
X68986667Y-119980952D01*
X68939048Y-120028571D01*
X68843810Y-120076190D01*
X68462857Y-120076190D01*
X69986667Y-120552381D02*
X69415238Y-120552381D01*
X69700952Y-120552381D02*
X69700952Y-119552381D01*
X69605714Y-119695238D01*
X69510476Y-119790476D01*
X69415238Y-119838095D01*
X68010477Y-117548571D02*
X67677143Y-117548571D01*
X67677143Y-118072381D02*
X67677143Y-117072381D01*
X68153334Y-117072381D01*
X68486667Y-117786667D02*
X68962858Y-117786667D01*
X68391429Y-118072381D02*
X68724762Y-117072381D01*
X69058096Y-118072381D01*
X69391429Y-118072381D02*
X69391429Y-117072381D01*
X69962858Y-118072381D01*
X69962858Y-117072381D01*
D12*
X75828572Y-112707143D02*
X76971429Y-112707143D01*
X71428572Y-112607143D02*
X72571429Y-112607143D01*
X72000000Y-113178571D02*
X72000000Y-112035714D01*
D11*
X75510417Y-109041667D02*
X74677084Y-109041667D01*
X74895834Y-107291667D01*
X76093751Y-109041667D02*
X76239584Y-107875000D01*
X76312501Y-107291667D02*
X76218750Y-107375000D01*
X76291667Y-107458333D01*
X76385417Y-107375000D01*
X76312501Y-107291667D01*
X76291667Y-107458333D01*
X76822917Y-107875000D02*
X77489583Y-107875000D01*
X77145834Y-107291667D02*
X76958334Y-108791667D01*
X77020833Y-108958333D01*
X77177084Y-109041667D01*
X77343750Y-109041667D01*
X77822917Y-107875000D02*
X78489583Y-107875000D01*
X78145834Y-107291667D02*
X77958334Y-108791667D01*
X78020833Y-108958333D01*
X78177084Y-109041667D01*
X78343750Y-109041667D01*
X79177084Y-109041667D02*
X79020833Y-108958333D01*
X78958334Y-108791667D01*
X79145834Y-107291667D01*
X80520833Y-108958333D02*
X80343751Y-109041667D01*
X80010417Y-109041667D01*
X79854167Y-108958333D01*
X79791667Y-108791667D01*
X79875000Y-108125000D01*
X79979167Y-107958333D01*
X80156250Y-107875000D01*
X80489584Y-107875000D01*
X80645833Y-107958333D01*
X80708334Y-108125000D01*
X80687501Y-108291667D01*
X79833333Y-108458333D01*
X82677084Y-109041667D02*
X82895834Y-107291667D01*
X83312500Y-107291667D01*
X83552083Y-107375000D01*
X83697917Y-107541667D01*
X83760416Y-107708333D01*
X83802084Y-108041667D01*
X83770834Y-108291667D01*
X83645833Y-108625000D01*
X83541667Y-108791667D01*
X83354166Y-108958333D01*
X83093750Y-109041667D01*
X82677084Y-109041667D01*
X84427084Y-109041667D02*
X84572917Y-107875000D01*
X84531250Y-108208333D02*
X84635417Y-108041667D01*
X84729166Y-107958333D01*
X84906250Y-107875000D01*
X85072917Y-107875000D01*
X85510417Y-109041667D02*
X85656250Y-107875000D01*
X85729167Y-107291667D02*
X85635416Y-107375000D01*
X85708333Y-107458333D01*
X85802083Y-107375000D01*
X85729167Y-107291667D01*
X85708333Y-107458333D01*
X86322916Y-107875000D02*
X86593750Y-109041667D01*
X87156249Y-107875000D01*
X88354165Y-108958333D02*
X88177083Y-109041667D01*
X87843749Y-109041667D01*
X87687499Y-108958333D01*
X87624999Y-108791667D01*
X87708332Y-108125000D01*
X87812499Y-107958333D01*
X87989582Y-107875000D01*
X88322916Y-107875000D01*
X88479165Y-107958333D01*
X88541666Y-108125000D01*
X88520833Y-108291667D01*
X87666665Y-108458333D01*
X89177083Y-109041667D02*
X89322916Y-107875000D01*
X89281249Y-108208333D02*
X89385416Y-108041667D01*
X89479165Y-107958333D01*
X89656249Y-107875000D01*
X89822916Y-107875000D01*
X74494047Y-110452381D02*
X74619047Y-109452381D01*
X74571428Y-109833333D02*
X74672619Y-109785714D01*
X74863096Y-109785714D01*
X74952381Y-109833333D01*
X74994048Y-109880952D01*
X75029762Y-109976190D01*
X74994048Y-110261905D01*
X74934524Y-110357143D01*
X74880953Y-110404762D01*
X74779762Y-110452381D01*
X74589285Y-110452381D01*
X74500000Y-110404762D01*
X75386905Y-109785714D02*
X75541666Y-110452381D01*
X75863096Y-109785714D02*
X75541666Y-110452381D01*
X75416666Y-110690476D01*
X75363095Y-110738095D01*
X75261905Y-110785714D01*
X76922619Y-110452381D02*
X77047619Y-109452381D01*
X77285714Y-109452381D01*
X77422620Y-109500000D01*
X77505953Y-109595238D01*
X77541668Y-109690476D01*
X77565477Y-109880952D01*
X77547620Y-110023810D01*
X77476191Y-110214286D01*
X77416668Y-110309524D01*
X77309525Y-110404762D01*
X77160714Y-110452381D01*
X76922619Y-110452381D01*
X77922619Y-110452381D02*
X78005953Y-109785714D01*
X78047619Y-109452381D02*
X77994048Y-109500000D01*
X78035715Y-109547619D01*
X78089286Y-109500000D01*
X78047619Y-109452381D01*
X78035715Y-109547619D01*
X78910715Y-109785714D02*
X78809524Y-110595238D01*
X78750000Y-110690476D01*
X78696429Y-110738095D01*
X78595238Y-110785714D01*
X78452381Y-110785714D01*
X78363095Y-110738095D01*
X78833334Y-110404762D02*
X78732143Y-110452381D01*
X78541666Y-110452381D01*
X78452381Y-110404762D01*
X78410714Y-110357143D01*
X78375000Y-110261905D01*
X78410714Y-109976190D01*
X78470238Y-109880952D01*
X78523809Y-109833333D01*
X78625000Y-109785714D01*
X78815477Y-109785714D01*
X78904762Y-109833333D01*
X79303571Y-110452381D02*
X79386905Y-109785714D01*
X79428571Y-109452381D02*
X79375000Y-109500000D01*
X79416667Y-109547619D01*
X79470238Y-109500000D01*
X79428571Y-109452381D01*
X79416667Y-109547619D01*
X79720238Y-109785714D02*
X80101190Y-109785714D01*
X79904761Y-109452381D02*
X79797619Y-110309524D01*
X79833333Y-110404762D01*
X79922618Y-110452381D01*
X80017856Y-110452381D01*
X80779762Y-110452381D02*
X80845239Y-109928571D01*
X80809524Y-109833333D01*
X80720239Y-109785714D01*
X80529762Y-109785714D01*
X80428571Y-109833333D01*
X80785715Y-110404762D02*
X80684524Y-110452381D01*
X80446428Y-110452381D01*
X80357143Y-110404762D01*
X80321429Y-110309524D01*
X80333333Y-110214286D01*
X80392857Y-110119048D01*
X80494047Y-110071429D01*
X80732143Y-110071429D01*
X80833334Y-110023810D01*
X81398809Y-110452381D02*
X81309524Y-110404762D01*
X81273810Y-110309524D01*
X81380952Y-109452381D01*
X82500001Y-110404762D02*
X82636905Y-110452381D01*
X82875001Y-110452381D01*
X82976192Y-110404762D01*
X83029763Y-110357143D01*
X83089287Y-110261905D01*
X83101192Y-110166667D01*
X83065477Y-110071429D01*
X83023811Y-110023810D01*
X82934525Y-109976190D01*
X82750001Y-109928571D01*
X82660715Y-109880952D01*
X82619048Y-109833333D01*
X82583334Y-109738095D01*
X82595239Y-109642857D01*
X82654763Y-109547619D01*
X82708334Y-109500000D01*
X82809524Y-109452381D01*
X83047620Y-109452381D01*
X83184525Y-109500000D01*
X84005954Y-109785714D02*
X83880954Y-110785714D01*
X83928573Y-110404762D02*
X83827382Y-110452381D01*
X83636905Y-110452381D01*
X83547620Y-110404762D01*
X83505953Y-110357143D01*
X83470239Y-110261905D01*
X83505953Y-109976190D01*
X83565477Y-109880952D01*
X83619048Y-109833333D01*
X83720239Y-109785714D01*
X83910716Y-109785714D01*
X84000001Y-109833333D01*
X84398810Y-110452381D02*
X84482144Y-109785714D01*
X84458334Y-109976190D02*
X84517858Y-109880952D01*
X84571429Y-109833333D01*
X84672620Y-109785714D01*
X84767859Y-109785714D01*
X84958335Y-109785714D02*
X85339287Y-109785714D01*
X85142858Y-109452381D02*
X85035716Y-110309524D01*
X85071430Y-110404762D01*
X85160715Y-110452381D01*
X85255953Y-110452381D01*
D10*
X90695238Y-109052381D02*
X91028571Y-110052381D01*
X91361905Y-109052381D01*
X92076191Y-110004762D02*
X91980953Y-110052381D01*
X91790476Y-110052381D01*
X91695238Y-110004762D01*
X91647619Y-109909524D01*
X91647619Y-109528571D01*
X91695238Y-109433333D01*
X91790476Y-109385714D01*
X91980953Y-109385714D01*
X92076191Y-109433333D01*
X92123810Y-109528571D01*
X92123810Y-109623810D01*
X91647619Y-109719048D01*
X92552381Y-110052381D02*
X92552381Y-109385714D01*
X92552381Y-109576190D02*
X92600000Y-109480952D01*
X92647619Y-109433333D01*
X92742857Y-109385714D01*
X92838096Y-109385714D01*
X94457144Y-110052381D02*
X93885715Y-110052381D01*
X94171429Y-110052381D02*
X94171429Y-109052381D01*
X94076191Y-109195238D01*
X93980953Y-109290476D01*
X93885715Y-109338095D01*
X94885715Y-109957143D02*
X94933334Y-110004762D01*
X94885715Y-110052381D01*
X94838096Y-110004762D01*
X94885715Y-109957143D01*
X94885715Y-110052381D01*
X95409524Y-110052381D02*
X95600000Y-110052381D01*
X95695239Y-110004762D01*
X95742858Y-109957143D01*
X95838096Y-109814286D01*
X95885715Y-109623810D01*
X95885715Y-109242857D01*
X95838096Y-109147619D01*
X95790477Y-109100000D01*
X95695239Y-109052381D01*
X95504762Y-109052381D01*
X95409524Y-109100000D01*
X95361905Y-109147619D01*
X95314286Y-109242857D01*
X95314286Y-109480952D01*
X95361905Y-109576190D01*
X95409524Y-109623810D01*
X95504762Y-109671429D01*
X95695239Y-109671429D01*
X95790477Y-109623810D01*
X95838096Y-109576190D01*
X95885715Y-109480952D01*
X96314286Y-110052381D02*
X96314286Y-109052381D01*
X96314286Y-109433333D02*
X96409524Y-109385714D01*
X96600001Y-109385714D01*
X96695239Y-109433333D01*
X96742858Y-109480952D01*
X96790477Y-109576190D01*
X96790477Y-109861905D01*
X96742858Y-109957143D01*
X96695239Y-110004762D01*
X96600001Y-110052381D01*
X96409524Y-110052381D01*
X96314286Y-110004762D01*
D13*
G36*
X84965892Y-111768270D02*
X85381711Y-111806540D01*
X85777701Y-111855770D01*
X86058754Y-111906918D01*
X86278344Y-111979539D01*
X86489945Y-112093188D01*
X86747033Y-112267419D01*
X86857491Y-112346214D01*
X87212064Y-112593396D01*
X87587963Y-112844817D01*
X87912547Y-113052053D01*
X87956757Y-113079019D01*
X88402842Y-113428177D01*
X88804798Y-113889795D01*
X89118595Y-114406999D01*
X89259133Y-114761354D01*
X89354082Y-115198805D01*
X89415697Y-115736308D01*
X89440823Y-116307295D01*
X89426303Y-116845195D01*
X89376895Y-117245149D01*
X89273741Y-117617945D01*
X89115851Y-118026918D01*
X88982547Y-118298956D01*
X88833863Y-118575380D01*
X88763746Y-118745784D01*
X88762649Y-118848745D01*
X88821022Y-118922844D01*
X88826899Y-118927789D01*
X89044891Y-119207469D01*
X89175501Y-119586784D01*
X89202861Y-119872296D01*
X89152219Y-120399778D01*
X88995824Y-120798093D01*
X88724655Y-121076431D01*
X88329691Y-121243977D01*
X87801913Y-121309919D01*
X87791041Y-121310234D01*
X87447959Y-121332842D01*
X87181249Y-121394444D01*
X86909812Y-121519455D01*
X86709768Y-121635766D01*
X85746911Y-122145548D01*
X84636837Y-122600923D01*
X83394568Y-122995971D01*
X82968112Y-123109561D01*
X82649084Y-123186968D01*
X82429634Y-123222607D01*
X82246042Y-123219511D01*
X82034587Y-123180714D01*
X81939158Y-123158540D01*
X81720619Y-123066992D01*
X81449970Y-122900264D01*
X81261093Y-122756065D01*
X81010917Y-122563287D01*
X80778379Y-122414185D01*
X80651268Y-122354869D01*
X80373559Y-122229991D01*
X80030468Y-122020504D01*
X79673392Y-121763950D01*
X79353725Y-121497875D01*
X79122865Y-121259822D01*
X79087369Y-121212457D01*
X78934276Y-120944499D01*
X78859143Y-120662543D01*
X78853032Y-120578625D01*
X79114212Y-120578625D01*
X79255630Y-121011324D01*
X79294530Y-121078464D01*
X79466220Y-121275688D01*
X79741924Y-121509974D01*
X80072359Y-121746452D01*
X80408242Y-121950255D01*
X80700290Y-122086515D01*
X80736667Y-122098783D01*
X80917306Y-122191254D01*
X81156581Y-122358151D01*
X81321162Y-122492992D01*
X81574895Y-122701231D01*
X81806039Y-122843564D01*
X82045175Y-122921840D01*
X82322881Y-122937908D01*
X82669738Y-122893618D01*
X83116326Y-122790817D01*
X83678612Y-122635548D01*
X84206764Y-122469202D01*
X84749688Y-122271830D01*
X85283672Y-122054868D01*
X85785004Y-121829753D01*
X86229972Y-121607924D01*
X86594864Y-121400817D01*
X86855967Y-121219870D01*
X86989570Y-121076520D01*
X87002000Y-121032540D01*
X87072175Y-120976473D01*
X87234833Y-121000094D01*
X87592378Y-121048601D01*
X87979738Y-121026585D01*
X88346025Y-120944805D01*
X88640351Y-120814018D01*
X88797628Y-120669749D01*
X88841645Y-120537154D01*
X88888812Y-120299705D01*
X88913336Y-120130272D01*
X88917252Y-119662509D01*
X88798883Y-119308073D01*
X88559270Y-119069813D01*
X88518279Y-119047007D01*
X88232249Y-118942112D01*
X87955360Y-118951181D01*
X87626432Y-119077387D01*
X87591294Y-119095054D01*
X87392216Y-119179627D01*
X87272068Y-119197892D01*
X87256000Y-119179721D01*
X87173458Y-119142629D01*
X86933863Y-119115287D01*
X86549266Y-119098572D01*
X86070667Y-119093334D01*
X84885333Y-119093334D01*
X84885333Y-119704266D01*
X84017500Y-119648381D01*
X83516223Y-119614500D01*
X83159453Y-119582634D01*
X82922644Y-119545068D01*
X82781250Y-119494087D01*
X82710726Y-119421978D01*
X82686524Y-119321026D01*
X82684000Y-119229288D01*
X82658254Y-119034508D01*
X82550828Y-118905599D01*
X82376041Y-118808508D01*
X82038921Y-118707466D01*
X81825708Y-118714887D01*
X81647652Y-118786647D01*
X81586647Y-118933341D01*
X81583333Y-119015394D01*
X81568065Y-119177488D01*
X81489059Y-119246308D01*
X81296517Y-119260229D01*
X81265833Y-119260053D01*
X80919868Y-119244027D01*
X80546496Y-119205826D01*
X80187714Y-119152402D01*
X79885522Y-119090708D01*
X79681919Y-119027696D01*
X79621322Y-118987816D01*
X79566049Y-118939697D01*
X79552630Y-119022020D01*
X79514556Y-119170166D01*
X79417490Y-119407320D01*
X79319094Y-119610004D01*
X79135412Y-120108792D01*
X79114212Y-120578625D01*
X78853032Y-120578625D01*
X78838274Y-120375983D01*
X78812289Y-120048186D01*
X78741269Y-119818408D01*
X78606126Y-119619715D01*
X78433545Y-119347195D01*
X78331787Y-119050268D01*
X78317938Y-118849975D01*
X78623980Y-118849975D01*
X78632290Y-119061488D01*
X78699135Y-119295685D01*
X78806283Y-119493822D01*
X78935500Y-119597153D01*
X78966002Y-119601334D01*
X78975931Y-119543199D01*
X78897426Y-119398999D01*
X78865421Y-119353838D01*
X78728932Y-119071954D01*
X78728339Y-119051569D01*
X78991135Y-119051569D01*
X79047298Y-119197818D01*
X79137058Y-119262667D01*
X79199125Y-119191894D01*
X79212667Y-119098330D01*
X79174307Y-118939563D01*
X79089190Y-118867580D01*
X79006575Y-118914979D01*
X78991135Y-119051569D01*
X78728339Y-119051569D01*
X78723656Y-118890733D01*
X78730803Y-118748137D01*
X78692436Y-118719892D01*
X78623980Y-118849975D01*
X78317938Y-118849975D01*
X78313317Y-118783146D01*
X78371177Y-118627667D01*
X78874000Y-118627667D01*
X78916333Y-118670000D01*
X78958667Y-118627667D01*
X78916333Y-118585334D01*
X78874000Y-118627667D01*
X78371177Y-118627667D01*
X78375386Y-118616357D01*
X78510135Y-118512804D01*
X79059191Y-118512804D01*
X79076227Y-118560208D01*
X79165349Y-118630360D01*
X79313748Y-118733938D01*
X79372061Y-118730674D01*
X79382000Y-118627667D01*
X79309909Y-118525475D01*
X79191500Y-118503360D01*
X79059191Y-118512804D01*
X78510135Y-118512804D01*
X78546042Y-118485210D01*
X78803936Y-118357492D01*
X79069900Y-118267978D01*
X79217075Y-118246667D01*
X79295987Y-118234674D01*
X79317988Y-118174902D01*
X79280010Y-118031658D01*
X79178984Y-117769251D01*
X79175215Y-117759834D01*
X78975660Y-117090419D01*
X78936115Y-116595667D01*
X79200090Y-116595667D01*
X79223618Y-116852634D01*
X79277790Y-117149554D01*
X79352955Y-117457174D01*
X79439464Y-117746245D01*
X79527666Y-117987515D01*
X79607911Y-118151733D01*
X79670549Y-118209647D01*
X79705929Y-118132007D01*
X79706195Y-118129733D01*
X79734056Y-117885800D01*
X80466379Y-117945220D01*
X80941302Y-117986691D01*
X81272529Y-118025825D01*
X81485427Y-118069855D01*
X81605364Y-118126013D01*
X81657706Y-118201533D01*
X81668000Y-118287843D01*
X81699930Y-118426032D01*
X81827359Y-118445879D01*
X81865325Y-118439464D01*
X82070299Y-118447213D01*
X82327604Y-118514117D01*
X82383665Y-118535872D01*
X82614321Y-118630315D01*
X82727838Y-118651307D01*
X82765521Y-118585140D01*
X82768674Y-118418106D01*
X82768667Y-118408099D01*
X82768667Y-118146197D01*
X83594167Y-118201363D01*
X84086548Y-118236151D01*
X84434764Y-118268986D01*
X84663714Y-118307403D01*
X84798300Y-118358935D01*
X84863422Y-118431120D01*
X84883981Y-118531490D01*
X84885333Y-118592061D01*
X84885333Y-118839334D01*
X87181709Y-118839334D01*
X87128264Y-118479500D01*
X87122649Y-118140053D01*
X87183350Y-117654171D01*
X87264998Y-117230667D01*
X87375587Y-116664005D01*
X87430527Y-116217492D01*
X87425616Y-115849950D01*
X87356649Y-115520197D01*
X87219421Y-115187054D01*
X87019465Y-114825663D01*
X86764475Y-114436423D01*
X86525372Y-114144581D01*
X86345833Y-113991799D01*
X86139534Y-113855395D01*
X86089955Y-113781088D01*
X86199214Y-113761897D01*
X86409333Y-113782462D01*
X86620584Y-113805793D01*
X86738867Y-113809145D01*
X86748000Y-113805125D01*
X86673781Y-113714129D01*
X86477937Y-113592150D01*
X86200686Y-113458007D01*
X85882245Y-113330522D01*
X85562833Y-113228515D01*
X85461422Y-113203042D01*
X84809845Y-113053202D01*
X83946200Y-113385101D01*
X83540227Y-113547747D01*
X83258187Y-113681356D01*
X83062668Y-113808301D01*
X82916261Y-113950953D01*
X82842393Y-114045202D01*
X82691945Y-114233904D01*
X82602903Y-114292914D01*
X82550401Y-114238250D01*
X82548849Y-114234290D01*
X82522304Y-114043756D01*
X82535659Y-113884921D01*
X82533462Y-113717728D01*
X82452221Y-113674667D01*
X82210415Y-113734478D01*
X81894333Y-113899276D01*
X81541775Y-114147111D01*
X81326002Y-114328740D01*
X81102859Y-114526488D01*
X80977236Y-114620854D01*
X80921122Y-114622103D01*
X80906503Y-114540499D01*
X80906000Y-114482642D01*
X80969935Y-114165979D01*
X81167157Y-113803155D01*
X81505786Y-113379828D01*
X81571224Y-113308123D01*
X81772351Y-113088578D01*
X81864446Y-112976174D01*
X81854324Y-112954550D01*
X81748802Y-113007345D01*
X81680307Y-113046266D01*
X81447055Y-113207621D01*
X81258036Y-113383482D01*
X81244789Y-113399500D01*
X81110068Y-113537894D01*
X81014888Y-113590000D01*
X80875635Y-113652888D01*
X80663111Y-113822739D01*
X80406022Y-114071332D01*
X80133074Y-114370448D01*
X79872974Y-114691866D01*
X79816353Y-114768225D01*
X79499754Y-115258128D01*
X79304883Y-115710011D01*
X79212780Y-116180092D01*
X79200090Y-116595667D01*
X78936115Y-116595667D01*
X78922002Y-116419102D01*
X79011554Y-115702759D01*
X79039330Y-115579667D01*
X79200685Y-114902334D01*
X78954953Y-115198667D01*
X78806706Y-115389739D01*
X78717940Y-115527831D01*
X78706944Y-115558500D01*
X78638384Y-115619210D01*
X78610821Y-115622000D01*
X78557134Y-115557275D01*
X78573435Y-115398328D01*
X78645773Y-115198004D01*
X78760197Y-115009146D01*
X78778461Y-114987000D01*
X78962798Y-114762766D01*
X79045100Y-114639785D01*
X79022648Y-114626379D01*
X78892722Y-114730865D01*
X78849147Y-114770776D01*
X78651399Y-114928597D01*
X78548847Y-114954775D01*
X78544641Y-114859797D01*
X78641934Y-114654151D01*
X78758686Y-114469648D01*
X79113041Y-113976564D01*
X79439702Y-113600054D01*
X79781338Y-113302674D01*
X80180619Y-113046976D01*
X80650679Y-112809274D01*
X81065226Y-112624155D01*
X81482529Y-112452461D01*
X81845680Y-112316897D01*
X82040679Y-112254685D01*
X82542999Y-112115027D01*
X82274833Y-112005604D01*
X82095281Y-111925579D01*
X82008210Y-111873492D01*
X82006667Y-111870060D01*
X82084754Y-111857991D01*
X82292708Y-111848631D01*
X82591065Y-111843508D01*
X82705167Y-111843005D01*
X83129390Y-111833394D01*
X83577164Y-111809054D01*
X83953360Y-111775195D01*
X83961655Y-111774195D01*
X84414071Y-111749761D01*
X84965892Y-111768270D01*
X84965892Y-111768270D01*
G37*
X84965892Y-111768270D02*
X85381711Y-111806540D01*
X85777701Y-111855770D01*
X86058754Y-111906918D01*
X86278344Y-111979539D01*
X86489945Y-112093188D01*
X86747033Y-112267419D01*
X86857491Y-112346214D01*
X87212064Y-112593396D01*
X87587963Y-112844817D01*
X87912547Y-113052053D01*
X87956757Y-113079019D01*
X88402842Y-113428177D01*
X88804798Y-113889795D01*
X89118595Y-114406999D01*
X89259133Y-114761354D01*
X89354082Y-115198805D01*
X89415697Y-115736308D01*
X89440823Y-116307295D01*
X89426303Y-116845195D01*
X89376895Y-117245149D01*
X89273741Y-117617945D01*
X89115851Y-118026918D01*
X88982547Y-118298956D01*
X88833863Y-118575380D01*
X88763746Y-118745784D01*
X88762649Y-118848745D01*
X88821022Y-118922844D01*
X88826899Y-118927789D01*
X89044891Y-119207469D01*
X89175501Y-119586784D01*
X89202861Y-119872296D01*
X89152219Y-120399778D01*
X88995824Y-120798093D01*
X88724655Y-121076431D01*
X88329691Y-121243977D01*
X87801913Y-121309919D01*
X87791041Y-121310234D01*
X87447959Y-121332842D01*
X87181249Y-121394444D01*
X86909812Y-121519455D01*
X86709768Y-121635766D01*
X85746911Y-122145548D01*
X84636837Y-122600923D01*
X83394568Y-122995971D01*
X82968112Y-123109561D01*
X82649084Y-123186968D01*
X82429634Y-123222607D01*
X82246042Y-123219511D01*
X82034587Y-123180714D01*
X81939158Y-123158540D01*
X81720619Y-123066992D01*
X81449970Y-122900264D01*
X81261093Y-122756065D01*
X81010917Y-122563287D01*
X80778379Y-122414185D01*
X80651268Y-122354869D01*
X80373559Y-122229991D01*
X80030468Y-122020504D01*
X79673392Y-121763950D01*
X79353725Y-121497875D01*
X79122865Y-121259822D01*
X79087369Y-121212457D01*
X78934276Y-120944499D01*
X78859143Y-120662543D01*
X78853032Y-120578625D01*
X79114212Y-120578625D01*
X79255630Y-121011324D01*
X79294530Y-121078464D01*
X79466220Y-121275688D01*
X79741924Y-121509974D01*
X80072359Y-121746452D01*
X80408242Y-121950255D01*
X80700290Y-122086515D01*
X80736667Y-122098783D01*
X80917306Y-122191254D01*
X81156581Y-122358151D01*
X81321162Y-122492992D01*
X81574895Y-122701231D01*
X81806039Y-122843564D01*
X82045175Y-122921840D01*
X82322881Y-122937908D01*
X82669738Y-122893618D01*
X83116326Y-122790817D01*
X83678612Y-122635548D01*
X84206764Y-122469202D01*
X84749688Y-122271830D01*
X85283672Y-122054868D01*
X85785004Y-121829753D01*
X86229972Y-121607924D01*
X86594864Y-121400817D01*
X86855967Y-121219870D01*
X86989570Y-121076520D01*
X87002000Y-121032540D01*
X87072175Y-120976473D01*
X87234833Y-121000094D01*
X87592378Y-121048601D01*
X87979738Y-121026585D01*
X88346025Y-120944805D01*
X88640351Y-120814018D01*
X88797628Y-120669749D01*
X88841645Y-120537154D01*
X88888812Y-120299705D01*
X88913336Y-120130272D01*
X88917252Y-119662509D01*
X88798883Y-119308073D01*
X88559270Y-119069813D01*
X88518279Y-119047007D01*
X88232249Y-118942112D01*
X87955360Y-118951181D01*
X87626432Y-119077387D01*
X87591294Y-119095054D01*
X87392216Y-119179627D01*
X87272068Y-119197892D01*
X87256000Y-119179721D01*
X87173458Y-119142629D01*
X86933863Y-119115287D01*
X86549266Y-119098572D01*
X86070667Y-119093334D01*
X84885333Y-119093334D01*
X84885333Y-119704266D01*
X84017500Y-119648381D01*
X83516223Y-119614500D01*
X83159453Y-119582634D01*
X82922644Y-119545068D01*
X82781250Y-119494087D01*
X82710726Y-119421978D01*
X82686524Y-119321026D01*
X82684000Y-119229288D01*
X82658254Y-119034508D01*
X82550828Y-118905599D01*
X82376041Y-118808508D01*
X82038921Y-118707466D01*
X81825708Y-118714887D01*
X81647652Y-118786647D01*
X81586647Y-118933341D01*
X81583333Y-119015394D01*
X81568065Y-119177488D01*
X81489059Y-119246308D01*
X81296517Y-119260229D01*
X81265833Y-119260053D01*
X80919868Y-119244027D01*
X80546496Y-119205826D01*
X80187714Y-119152402D01*
X79885522Y-119090708D01*
X79681919Y-119027696D01*
X79621322Y-118987816D01*
X79566049Y-118939697D01*
X79552630Y-119022020D01*
X79514556Y-119170166D01*
X79417490Y-119407320D01*
X79319094Y-119610004D01*
X79135412Y-120108792D01*
X79114212Y-120578625D01*
X78853032Y-120578625D01*
X78838274Y-120375983D01*
X78812289Y-120048186D01*
X78741269Y-119818408D01*
X78606126Y-119619715D01*
X78433545Y-119347195D01*
X78331787Y-119050268D01*
X78317938Y-118849975D01*
X78623980Y-118849975D01*
X78632290Y-119061488D01*
X78699135Y-119295685D01*
X78806283Y-119493822D01*
X78935500Y-119597153D01*
X78966002Y-119601334D01*
X78975931Y-119543199D01*
X78897426Y-119398999D01*
X78865421Y-119353838D01*
X78728932Y-119071954D01*
X78728339Y-119051569D01*
X78991135Y-119051569D01*
X79047298Y-119197818D01*
X79137058Y-119262667D01*
X79199125Y-119191894D01*
X79212667Y-119098330D01*
X79174307Y-118939563D01*
X79089190Y-118867580D01*
X79006575Y-118914979D01*
X78991135Y-119051569D01*
X78728339Y-119051569D01*
X78723656Y-118890733D01*
X78730803Y-118748137D01*
X78692436Y-118719892D01*
X78623980Y-118849975D01*
X78317938Y-118849975D01*
X78313317Y-118783146D01*
X78371177Y-118627667D01*
X78874000Y-118627667D01*
X78916333Y-118670000D01*
X78958667Y-118627667D01*
X78916333Y-118585334D01*
X78874000Y-118627667D01*
X78371177Y-118627667D01*
X78375386Y-118616357D01*
X78510135Y-118512804D01*
X79059191Y-118512804D01*
X79076227Y-118560208D01*
X79165349Y-118630360D01*
X79313748Y-118733938D01*
X79372061Y-118730674D01*
X79382000Y-118627667D01*
X79309909Y-118525475D01*
X79191500Y-118503360D01*
X79059191Y-118512804D01*
X78510135Y-118512804D01*
X78546042Y-118485210D01*
X78803936Y-118357492D01*
X79069900Y-118267978D01*
X79217075Y-118246667D01*
X79295987Y-118234674D01*
X79317988Y-118174902D01*
X79280010Y-118031658D01*
X79178984Y-117769251D01*
X79175215Y-117759834D01*
X78975660Y-117090419D01*
X78936115Y-116595667D01*
X79200090Y-116595667D01*
X79223618Y-116852634D01*
X79277790Y-117149554D01*
X79352955Y-117457174D01*
X79439464Y-117746245D01*
X79527666Y-117987515D01*
X79607911Y-118151733D01*
X79670549Y-118209647D01*
X79705929Y-118132007D01*
X79706195Y-118129733D01*
X79734056Y-117885800D01*
X80466379Y-117945220D01*
X80941302Y-117986691D01*
X81272529Y-118025825D01*
X81485427Y-118069855D01*
X81605364Y-118126013D01*
X81657706Y-118201533D01*
X81668000Y-118287843D01*
X81699930Y-118426032D01*
X81827359Y-118445879D01*
X81865325Y-118439464D01*
X82070299Y-118447213D01*
X82327604Y-118514117D01*
X82383665Y-118535872D01*
X82614321Y-118630315D01*
X82727838Y-118651307D01*
X82765521Y-118585140D01*
X82768674Y-118418106D01*
X82768667Y-118408099D01*
X82768667Y-118146197D01*
X83594167Y-118201363D01*
X84086548Y-118236151D01*
X84434764Y-118268986D01*
X84663714Y-118307403D01*
X84798300Y-118358935D01*
X84863422Y-118431120D01*
X84883981Y-118531490D01*
X84885333Y-118592061D01*
X84885333Y-118839334D01*
X87181709Y-118839334D01*
X87128264Y-118479500D01*
X87122649Y-118140053D01*
X87183350Y-117654171D01*
X87264998Y-117230667D01*
X87375587Y-116664005D01*
X87430527Y-116217492D01*
X87425616Y-115849950D01*
X87356649Y-115520197D01*
X87219421Y-115187054D01*
X87019465Y-114825663D01*
X86764475Y-114436423D01*
X86525372Y-114144581D01*
X86345833Y-113991799D01*
X86139534Y-113855395D01*
X86089955Y-113781088D01*
X86199214Y-113761897D01*
X86409333Y-113782462D01*
X86620584Y-113805793D01*
X86738867Y-113809145D01*
X86748000Y-113805125D01*
X86673781Y-113714129D01*
X86477937Y-113592150D01*
X86200686Y-113458007D01*
X85882245Y-113330522D01*
X85562833Y-113228515D01*
X85461422Y-113203042D01*
X84809845Y-113053202D01*
X83946200Y-113385101D01*
X83540227Y-113547747D01*
X83258187Y-113681356D01*
X83062668Y-113808301D01*
X82916261Y-113950953D01*
X82842393Y-114045202D01*
X82691945Y-114233904D01*
X82602903Y-114292914D01*
X82550401Y-114238250D01*
X82548849Y-114234290D01*
X82522304Y-114043756D01*
X82535659Y-113884921D01*
X82533462Y-113717728D01*
X82452221Y-113674667D01*
X82210415Y-113734478D01*
X81894333Y-113899276D01*
X81541775Y-114147111D01*
X81326002Y-114328740D01*
X81102859Y-114526488D01*
X80977236Y-114620854D01*
X80921122Y-114622103D01*
X80906503Y-114540499D01*
X80906000Y-114482642D01*
X80969935Y-114165979D01*
X81167157Y-113803155D01*
X81505786Y-113379828D01*
X81571224Y-113308123D01*
X81772351Y-113088578D01*
X81864446Y-112976174D01*
X81854324Y-112954550D01*
X81748802Y-113007345D01*
X81680307Y-113046266D01*
X81447055Y-113207621D01*
X81258036Y-113383482D01*
X81244789Y-113399500D01*
X81110068Y-113537894D01*
X81014888Y-113590000D01*
X80875635Y-113652888D01*
X80663111Y-113822739D01*
X80406022Y-114071332D01*
X80133074Y-114370448D01*
X79872974Y-114691866D01*
X79816353Y-114768225D01*
X79499754Y-115258128D01*
X79304883Y-115710011D01*
X79212780Y-116180092D01*
X79200090Y-116595667D01*
X78936115Y-116595667D01*
X78922002Y-116419102D01*
X79011554Y-115702759D01*
X79039330Y-115579667D01*
X79200685Y-114902334D01*
X78954953Y-115198667D01*
X78806706Y-115389739D01*
X78717940Y-115527831D01*
X78706944Y-115558500D01*
X78638384Y-115619210D01*
X78610821Y-115622000D01*
X78557134Y-115557275D01*
X78573435Y-115398328D01*
X78645773Y-115198004D01*
X78760197Y-115009146D01*
X78778461Y-114987000D01*
X78962798Y-114762766D01*
X79045100Y-114639785D01*
X79022648Y-114626379D01*
X78892722Y-114730865D01*
X78849147Y-114770776D01*
X78651399Y-114928597D01*
X78548847Y-114954775D01*
X78544641Y-114859797D01*
X78641934Y-114654151D01*
X78758686Y-114469648D01*
X79113041Y-113976564D01*
X79439702Y-113600054D01*
X79781338Y-113302674D01*
X80180619Y-113046976D01*
X80650679Y-112809274D01*
X81065226Y-112624155D01*
X81482529Y-112452461D01*
X81845680Y-112316897D01*
X82040679Y-112254685D01*
X82542999Y-112115027D01*
X82274833Y-112005604D01*
X82095281Y-111925579D01*
X82008210Y-111873492D01*
X82006667Y-111870060D01*
X82084754Y-111857991D01*
X82292708Y-111848631D01*
X82591065Y-111843508D01*
X82705167Y-111843005D01*
X83129390Y-111833394D01*
X83577164Y-111809054D01*
X83953360Y-111775195D01*
X83961655Y-111774195D01*
X84414071Y-111749761D01*
X84965892Y-111768270D01*
G36*
X82436623Y-121012360D02*
X82806719Y-121185963D01*
X83043833Y-121360332D01*
X83161429Y-121494780D01*
X83161401Y-121606522D01*
X83029838Y-121709979D01*
X82752830Y-121819573D01*
X82535833Y-121886984D01*
X82216936Y-121981933D01*
X81957315Y-122060765D01*
X81802875Y-122109501D01*
X81786127Y-122115326D01*
X81705081Y-122063566D01*
X81594311Y-121896275D01*
X81752667Y-121896275D01*
X81766241Y-121965608D01*
X81828221Y-121989180D01*
X81970496Y-121963647D01*
X82224954Y-121885668D01*
X82395518Y-121828892D01*
X82711867Y-121718009D01*
X82890695Y-121639000D01*
X82956808Y-121575538D01*
X82935015Y-121511296D01*
X82913566Y-121487947D01*
X82691727Y-121373118D01*
X82404556Y-121359255D01*
X82119454Y-121442178D01*
X81966422Y-121546705D01*
X81820074Y-121724769D01*
X81753104Y-121886326D01*
X81752667Y-121896275D01*
X81594311Y-121896275D01*
X81592643Y-121893756D01*
X81503655Y-121710831D01*
X81314723Y-121271647D01*
X81492256Y-121094114D01*
X81738670Y-120959449D01*
X82067033Y-120934527D01*
X82436623Y-121012360D01*
X82436623Y-121012360D01*
G37*
X82436623Y-121012360D02*
X82806719Y-121185963D01*
X83043833Y-121360332D01*
X83161429Y-121494780D01*
X83161401Y-121606522D01*
X83029838Y-121709979D01*
X82752830Y-121819573D01*
X82535833Y-121886984D01*
X82216936Y-121981933D01*
X81957315Y-122060765D01*
X81802875Y-122109501D01*
X81786127Y-122115326D01*
X81705081Y-122063566D01*
X81594311Y-121896275D01*
X81752667Y-121896275D01*
X81766241Y-121965608D01*
X81828221Y-121989180D01*
X81970496Y-121963647D01*
X82224954Y-121885668D01*
X82395518Y-121828892D01*
X82711867Y-121718009D01*
X82890695Y-121639000D01*
X82956808Y-121575538D01*
X82935015Y-121511296D01*
X82913566Y-121487947D01*
X82691727Y-121373118D01*
X82404556Y-121359255D01*
X82119454Y-121442178D01*
X81966422Y-121546705D01*
X81820074Y-121724769D01*
X81753104Y-121886326D01*
X81752667Y-121896275D01*
X81594311Y-121896275D01*
X81592643Y-121893756D01*
X81503655Y-121710831D01*
X81314723Y-121271647D01*
X81492256Y-121094114D01*
X81738670Y-120959449D01*
X82067033Y-120934527D01*
X82436623Y-121012360D01*
G36*
X87880272Y-119213507D02*
X88188391Y-119342327D01*
X88371918Y-119561998D01*
X88423585Y-119841268D01*
X88336122Y-120148886D01*
X88156169Y-120399638D01*
X87947563Y-120603970D01*
X87804388Y-120687847D01*
X87688986Y-120665154D01*
X87611600Y-120600400D01*
X87536333Y-120446795D01*
X87504049Y-120240567D01*
X87478509Y-119995535D01*
X87433839Y-119818196D01*
X87425201Y-119606922D01*
X87434259Y-119580109D01*
X87642238Y-119580109D01*
X87686394Y-119803469D01*
X87708725Y-119861510D01*
X87777173Y-120080519D01*
X87792178Y-120241806D01*
X87788260Y-120257558D01*
X87787587Y-120339512D01*
X87860804Y-120322638D01*
X87968129Y-120233617D01*
X88069782Y-120099130D01*
X88093816Y-120052614D01*
X88154959Y-119785280D01*
X88079496Y-119584356D01*
X87910823Y-119486248D01*
X87716346Y-119475672D01*
X87642238Y-119580109D01*
X87434259Y-119580109D01*
X87492562Y-119407534D01*
X87601450Y-119239170D01*
X87737082Y-119194083D01*
X87880272Y-119213507D01*
X87880272Y-119213507D01*
G37*
X87880272Y-119213507D02*
X88188391Y-119342327D01*
X88371918Y-119561998D01*
X88423585Y-119841268D01*
X88336122Y-120148886D01*
X88156169Y-120399638D01*
X87947563Y-120603970D01*
X87804388Y-120687847D01*
X87688986Y-120665154D01*
X87611600Y-120600400D01*
X87536333Y-120446795D01*
X87504049Y-120240567D01*
X87478509Y-119995535D01*
X87433839Y-119818196D01*
X87425201Y-119606922D01*
X87434259Y-119580109D01*
X87642238Y-119580109D01*
X87686394Y-119803469D01*
X87708725Y-119861510D01*
X87777173Y-120080519D01*
X87792178Y-120241806D01*
X87788260Y-120257558D01*
X87787587Y-120339512D01*
X87860804Y-120322638D01*
X87968129Y-120233617D01*
X88069782Y-120099130D01*
X88093816Y-120052614D01*
X88154959Y-119785280D01*
X88079496Y-119584356D01*
X87910823Y-119486248D01*
X87716346Y-119475672D01*
X87642238Y-119580109D01*
X87434259Y-119580109D01*
X87492562Y-119407534D01*
X87601450Y-119239170D01*
X87737082Y-119194083D01*
X87880272Y-119213507D01*
G36*
X82544010Y-120107578D02*
X82553551Y-120115818D01*
X82576905Y-120223374D01*
X82477318Y-120326700D01*
X82292299Y-120434759D01*
X82177567Y-120418102D01*
X82137247Y-120369127D01*
X82152648Y-120264982D01*
X82268442Y-120160593D01*
X82420329Y-120095083D01*
X82544010Y-120107578D01*
X82544010Y-120107578D01*
G37*
X82544010Y-120107578D02*
X82553551Y-120115818D01*
X82576905Y-120223374D01*
X82477318Y-120326700D01*
X82292299Y-120434759D01*
X82177567Y-120418102D01*
X82137247Y-120369127D01*
X82152648Y-120264982D01*
X82268442Y-120160593D01*
X82420329Y-120095083D01*
X82544010Y-120107578D01*
G36*
X81608158Y-119911122D02*
X81724895Y-120019366D01*
X81788907Y-120164985D01*
X81782344Y-120238784D01*
X81695261Y-120353663D01*
X81569353Y-120310482D01*
X81515600Y-120261734D01*
X81421948Y-120093572D01*
X81449348Y-119940921D01*
X81491841Y-119901885D01*
X81608158Y-119911122D01*
X81608158Y-119911122D01*
G37*
X81608158Y-119911122D02*
X81724895Y-120019366D01*
X81788907Y-120164985D01*
X81782344Y-120238784D01*
X81695261Y-120353663D01*
X81569353Y-120310482D01*
X81515600Y-120261734D01*
X81421948Y-120093572D01*
X81449348Y-119940921D01*
X81491841Y-119901885D01*
X81608158Y-119911122D01*
G36*
X82278236Y-119650767D02*
X82586080Y-119764379D01*
X82746759Y-119879608D01*
X82877233Y-120037873D01*
X82919305Y-120148859D01*
X82912343Y-120163212D01*
X82858279Y-120157226D01*
X82853333Y-120122200D01*
X82776216Y-119971861D01*
X82574133Y-119844467D01*
X82290985Y-119750404D01*
X81970671Y-119700060D01*
X81657094Y-119703819D01*
X81394153Y-119772070D01*
X81387267Y-119775338D01*
X81260259Y-119833785D01*
X81272226Y-119809023D01*
X81371667Y-119726338D01*
X81609571Y-119624896D01*
X81932247Y-119601989D01*
X82278236Y-119650767D01*
X82278236Y-119650767D01*
G37*
X82278236Y-119650767D02*
X82586080Y-119764379D01*
X82746759Y-119879608D01*
X82877233Y-120037873D01*
X82919305Y-120148859D01*
X82912343Y-120163212D01*
X82858279Y-120157226D01*
X82853333Y-120122200D01*
X82776216Y-119971861D01*
X82574133Y-119844467D01*
X82290985Y-119750404D01*
X81970671Y-119700060D01*
X81657094Y-119703819D01*
X81394153Y-119772070D01*
X81387267Y-119775338D01*
X81260259Y-119833785D01*
X81272226Y-119809023D01*
X81371667Y-119726338D01*
X81609571Y-119624896D01*
X81932247Y-119601989D01*
X82278236Y-119650767D01*
G36*
X84303568Y-116438371D02*
X84577083Y-116582654D01*
X84619927Y-116606282D01*
X84925340Y-116774808D01*
X85109544Y-116881347D01*
X85197986Y-116948567D01*
X85216112Y-116999132D01*
X85189368Y-117055710D01*
X85166989Y-117093574D01*
X85108696Y-117149478D01*
X85005229Y-117143601D01*
X84823268Y-117066513D01*
X84545395Y-116917642D01*
X84277588Y-116768067D01*
X84075168Y-116653981D01*
X83976611Y-116597088D01*
X83973174Y-116594836D01*
X83979044Y-116513719D01*
X84004100Y-116436623D01*
X84049445Y-116374273D01*
X84138478Y-116371884D01*
X84303568Y-116438371D01*
X84303568Y-116438371D01*
G37*
X84303568Y-116438371D02*
X84577083Y-116582654D01*
X84619927Y-116606282D01*
X84925340Y-116774808D01*
X85109544Y-116881347D01*
X85197986Y-116948567D01*
X85216112Y-116999132D01*
X85189368Y-117055710D01*
X85166989Y-117093574D01*
X85108696Y-117149478D01*
X85005229Y-117143601D01*
X84823268Y-117066513D01*
X84545395Y-116917642D01*
X84277588Y-116768067D01*
X84075168Y-116653981D01*
X83976611Y-116597088D01*
X83973174Y-116594836D01*
X83979044Y-116513719D01*
X84004100Y-116436623D01*
X84049445Y-116374273D01*
X84138478Y-116371884D01*
X84303568Y-116438371D01*
G36*
X80760652Y-116351797D02*
X80848824Y-116418184D01*
X80838263Y-116503556D01*
X80708787Y-116563208D01*
X80499438Y-116602519D01*
X80205668Y-116672076D01*
X79946373Y-116776572D01*
X79880443Y-116816213D01*
X79713252Y-116908317D01*
X79608461Y-116920374D01*
X79605276Y-116917721D01*
X79556224Y-116810146D01*
X79637166Y-116686139D01*
X79784167Y-116570479D01*
X80018513Y-116449087D01*
X80293043Y-116367360D01*
X80557257Y-116332521D01*
X80760652Y-116351797D01*
X80760652Y-116351797D01*
G37*
X80760652Y-116351797D02*
X80848824Y-116418184D01*
X80838263Y-116503556D01*
X80708787Y-116563208D01*
X80499438Y-116602519D01*
X80205668Y-116672076D01*
X79946373Y-116776572D01*
X79880443Y-116816213D01*
X79713252Y-116908317D01*
X79608461Y-116920374D01*
X79605276Y-116917721D01*
X79556224Y-116810146D01*
X79637166Y-116686139D01*
X79784167Y-116570479D01*
X80018513Y-116449087D01*
X80293043Y-116367360D01*
X80557257Y-116332521D01*
X80760652Y-116351797D01*
D11*
X70430000Y-113720000D02*
X70430000Y-121340000D01*
X70430000Y-121340000D02*
X78050000Y-121340000D01*
X78050000Y-121340000D02*
X78050000Y-113720000D01*
X78050000Y-113720000D02*
X70430000Y-113720000D01*
X104100000Y-109130000D02*
X104100000Y-107130000D01*
X102600000Y-109584000D02*
X104600000Y-109584000D01*
X102600000Y-106676000D02*
X104700000Y-106676000D01*
D13*
G36*
X108555814Y-111718931D02*
X108639635Y-112163555D01*
X108948920Y-112291053D01*
X109258206Y-112418551D01*
X109629246Y-112166246D01*
X109733157Y-112095996D01*
X109827087Y-112033272D01*
X109906652Y-111980938D01*
X109967470Y-111941857D01*
X110005157Y-111918893D01*
X110015421Y-111913942D01*
X110033910Y-111926676D01*
X110073420Y-111961882D01*
X110129522Y-112015062D01*
X110197787Y-112081718D01*
X110273786Y-112157354D01*
X110353092Y-112237472D01*
X110431275Y-112317574D01*
X110503907Y-112393164D01*
X110566559Y-112459745D01*
X110614803Y-112512818D01*
X110644210Y-112547887D01*
X110651241Y-112559623D01*
X110641123Y-112581260D01*
X110612759Y-112628662D01*
X110569129Y-112697193D01*
X110513218Y-112782215D01*
X110448006Y-112879093D01*
X110410219Y-112934350D01*
X110341343Y-113035248D01*
X110280140Y-113126299D01*
X110229578Y-113202970D01*
X110192628Y-113260728D01*
X110172258Y-113295043D01*
X110169197Y-113302254D01*
X110176136Y-113322748D01*
X110195051Y-113370513D01*
X110223087Y-113438832D01*
X110257391Y-113520989D01*
X110295109Y-113610270D01*
X110333387Y-113699958D01*
X110369370Y-113783338D01*
X110400206Y-113853694D01*
X110423039Y-113904310D01*
X110435017Y-113928471D01*
X110435724Y-113929422D01*
X110454531Y-113934036D01*
X110504618Y-113944328D01*
X110580793Y-113959287D01*
X110677865Y-113977901D01*
X110790643Y-113999159D01*
X110856442Y-114011418D01*
X110976950Y-114034362D01*
X111085797Y-114056195D01*
X111177476Y-114075722D01*
X111246481Y-114091748D01*
X111287304Y-114103079D01*
X111295511Y-114106674D01*
X111303548Y-114131006D01*
X111310033Y-114185959D01*
X111314970Y-114265108D01*
X111318364Y-114362026D01*
X111320218Y-114470287D01*
X111320538Y-114583465D01*
X111319327Y-114695135D01*
X111316590Y-114798868D01*
X111312331Y-114888241D01*
X111306555Y-114956826D01*
X111299267Y-114998197D01*
X111294895Y-115006810D01*
X111268764Y-115017133D01*
X111213393Y-115031892D01*
X111136107Y-115049352D01*
X111044230Y-115067780D01*
X111012158Y-115073741D01*
X110857524Y-115102066D01*
X110735375Y-115124876D01*
X110641673Y-115143080D01*
X110572384Y-115157583D01*
X110523471Y-115169292D01*
X110490897Y-115179115D01*
X110470628Y-115187956D01*
X110458626Y-115196724D01*
X110456947Y-115198457D01*
X110440184Y-115226371D01*
X110414614Y-115280695D01*
X110382788Y-115354777D01*
X110347260Y-115441965D01*
X110310583Y-115535608D01*
X110275311Y-115629052D01*
X110243996Y-115715647D01*
X110219193Y-115788740D01*
X110203454Y-115841678D01*
X110199332Y-115867811D01*
X110199676Y-115868726D01*
X110213641Y-115890086D01*
X110245322Y-115937084D01*
X110291391Y-116004827D01*
X110348518Y-116088423D01*
X110413373Y-116182982D01*
X110431843Y-116209854D01*
X110497699Y-116307275D01*
X110555650Y-116396163D01*
X110602538Y-116471412D01*
X110635207Y-116527920D01*
X110650500Y-116560581D01*
X110651241Y-116564593D01*
X110638392Y-116585684D01*
X110602888Y-116627464D01*
X110549293Y-116685445D01*
X110482171Y-116755135D01*
X110406087Y-116832045D01*
X110325604Y-116911683D01*
X110245287Y-116989561D01*
X110169699Y-117061186D01*
X110103405Y-117122070D01*
X110050969Y-117167721D01*
X110016955Y-117193650D01*
X110007545Y-117197883D01*
X109985643Y-117187912D01*
X109940800Y-117161020D01*
X109880321Y-117121736D01*
X109833789Y-117090117D01*
X109749475Y-117032098D01*
X109649626Y-116963784D01*
X109549473Y-116895579D01*
X109495627Y-116859075D01*
X109313371Y-116735800D01*
X109160381Y-116818520D01*
X109090682Y-116854759D01*
X109031414Y-116882926D01*
X108991311Y-116898991D01*
X108981103Y-116901226D01*
X108968829Y-116884722D01*
X108944613Y-116838082D01*
X108910263Y-116765609D01*
X108867588Y-116671606D01*
X108818394Y-116560374D01*
X108764490Y-116436215D01*
X108707684Y-116303432D01*
X108649782Y-116166327D01*
X108592593Y-116029202D01*
X108537924Y-115896358D01*
X108487584Y-115772098D01*
X108443380Y-115660725D01*
X108407119Y-115566539D01*
X108380609Y-115493844D01*
X108365658Y-115446941D01*
X108363254Y-115430833D01*
X108382311Y-115410286D01*
X108424036Y-115376933D01*
X108479706Y-115337702D01*
X108484378Y-115334599D01*
X108628264Y-115219423D01*
X108744283Y-115085053D01*
X108831430Y-114935784D01*
X108888699Y-114775913D01*
X108915086Y-114609737D01*
X108909585Y-114441552D01*
X108871190Y-114275655D01*
X108798895Y-114116342D01*
X108777626Y-114081487D01*
X108666996Y-113940737D01*
X108536302Y-113827714D01*
X108390064Y-113743003D01*
X108232808Y-113687194D01*
X108069057Y-113660874D01*
X107903333Y-113664630D01*
X107740162Y-113699050D01*
X107584065Y-113764723D01*
X107439567Y-113862235D01*
X107394869Y-113901813D01*
X107281112Y-114025703D01*
X107198218Y-114156124D01*
X107141356Y-114302315D01*
X107109687Y-114447088D01*
X107101869Y-114609860D01*
X107127938Y-114773440D01*
X107185245Y-114932298D01*
X107271144Y-115080906D01*
X107382986Y-115213735D01*
X107518123Y-115325256D01*
X107535883Y-115337011D01*
X107592150Y-115375508D01*
X107634923Y-115408863D01*
X107655372Y-115430160D01*
X107655669Y-115430833D01*
X107651279Y-115453871D01*
X107633876Y-115506157D01*
X107605268Y-115583390D01*
X107567265Y-115681268D01*
X107521674Y-115795491D01*
X107470303Y-115921758D01*
X107414962Y-116055767D01*
X107357458Y-116193218D01*
X107299601Y-116329808D01*
X107243198Y-116461237D01*
X107190058Y-116583205D01*
X107141990Y-116691409D01*
X107100801Y-116781549D01*
X107068301Y-116849323D01*
X107046297Y-116890430D01*
X107037436Y-116901226D01*
X107010360Y-116892819D01*
X106959697Y-116870272D01*
X106894183Y-116837613D01*
X106858159Y-116818520D01*
X106705168Y-116735800D01*
X106522912Y-116859075D01*
X106429875Y-116922228D01*
X106328015Y-116991727D01*
X106232562Y-117057165D01*
X106184750Y-117090117D01*
X106117505Y-117135273D01*
X106060564Y-117171057D01*
X106021354Y-117192938D01*
X106008619Y-117197563D01*
X105990083Y-117185085D01*
X105949059Y-117150252D01*
X105889525Y-117096678D01*
X105815458Y-117027983D01*
X105730835Y-116947781D01*
X105677315Y-116896286D01*
X105583681Y-116804286D01*
X105502759Y-116721999D01*
X105437823Y-116652945D01*
X105392142Y-116600644D01*
X105368989Y-116568616D01*
X105366768Y-116562116D01*
X105377076Y-116537394D01*
X105405561Y-116487405D01*
X105449063Y-116417212D01*
X105504423Y-116331875D01*
X105568480Y-116236456D01*
X105586697Y-116209854D01*
X105653073Y-116113167D01*
X105712622Y-116026117D01*
X105762016Y-115953595D01*
X105797925Y-115900493D01*
X105817019Y-115871703D01*
X105818864Y-115868726D01*
X105816105Y-115845782D01*
X105801462Y-115795336D01*
X105777487Y-115724041D01*
X105746734Y-115638547D01*
X105711756Y-115545507D01*
X105675107Y-115451574D01*
X105639339Y-115363399D01*
X105607006Y-115287634D01*
X105580662Y-115230931D01*
X105562858Y-115199943D01*
X105561593Y-115198457D01*
X105550706Y-115189601D01*
X105532318Y-115180843D01*
X105502394Y-115171277D01*
X105456897Y-115159996D01*
X105391791Y-115146093D01*
X105303039Y-115128663D01*
X105186607Y-115106798D01*
X105038458Y-115079591D01*
X105006382Y-115073741D01*
X104911314Y-115055374D01*
X104828435Y-115037405D01*
X104765070Y-115021569D01*
X104728542Y-115009600D01*
X104723644Y-115006810D01*
X104715573Y-114982072D01*
X104709013Y-114926790D01*
X104703967Y-114847389D01*
X104700441Y-114750296D01*
X104698439Y-114641938D01*
X104697964Y-114528740D01*
X104699023Y-114417128D01*
X104701618Y-114313529D01*
X104705754Y-114224368D01*
X104711437Y-114156072D01*
X104718669Y-114115066D01*
X104723029Y-114106674D01*
X104747302Y-114098208D01*
X104802574Y-114084435D01*
X104883338Y-114066550D01*
X104984088Y-114045748D01*
X105099317Y-114023223D01*
X105162098Y-114011418D01*
X105281213Y-113989151D01*
X105387435Y-113968979D01*
X105475573Y-113951915D01*
X105540434Y-113938969D01*
X105576826Y-113931155D01*
X105582816Y-113929422D01*
X105592939Y-113909890D01*
X105614338Y-113862843D01*
X105644161Y-113795003D01*
X105679555Y-113713091D01*
X105717668Y-113623828D01*
X105755647Y-113533935D01*
X105790640Y-113450135D01*
X105819794Y-113379147D01*
X105840257Y-113327694D01*
X105849177Y-113302497D01*
X105849343Y-113301396D01*
X105839231Y-113281519D01*
X105810883Y-113235777D01*
X105767277Y-113168717D01*
X105711394Y-113084884D01*
X105646213Y-112988826D01*
X105608321Y-112933650D01*
X105539275Y-112832481D01*
X105477950Y-112740630D01*
X105427337Y-112662744D01*
X105390429Y-112603469D01*
X105370218Y-112567451D01*
X105367299Y-112559377D01*
X105379847Y-112540584D01*
X105414537Y-112500457D01*
X105466937Y-112443493D01*
X105532616Y-112374185D01*
X105607144Y-112297031D01*
X105686087Y-112216525D01*
X105765017Y-112137163D01*
X105839500Y-112063440D01*
X105905106Y-111999852D01*
X105957404Y-111950894D01*
X105991961Y-111921061D01*
X106003522Y-111913942D01*
X106022346Y-111923953D01*
X106067369Y-111952078D01*
X106134213Y-111995454D01*
X106218501Y-112051218D01*
X106315856Y-112116506D01*
X106389293Y-112166246D01*
X106760333Y-112418551D01*
X107378905Y-112163555D01*
X107462725Y-111718931D01*
X107546546Y-111274307D01*
X108471994Y-111274307D01*
X108555814Y-111718931D01*
X108555814Y-111718931D01*
G37*
X108555814Y-111718931D02*
X108639635Y-112163555D01*
X108948920Y-112291053D01*
X109258206Y-112418551D01*
X109629246Y-112166246D01*
X109733157Y-112095996D01*
X109827087Y-112033272D01*
X109906652Y-111980938D01*
X109967470Y-111941857D01*
X110005157Y-111918893D01*
X110015421Y-111913942D01*
X110033910Y-111926676D01*
X110073420Y-111961882D01*
X110129522Y-112015062D01*
X110197787Y-112081718D01*
X110273786Y-112157354D01*
X110353092Y-112237472D01*
X110431275Y-112317574D01*
X110503907Y-112393164D01*
X110566559Y-112459745D01*
X110614803Y-112512818D01*
X110644210Y-112547887D01*
X110651241Y-112559623D01*
X110641123Y-112581260D01*
X110612759Y-112628662D01*
X110569129Y-112697193D01*
X110513218Y-112782215D01*
X110448006Y-112879093D01*
X110410219Y-112934350D01*
X110341343Y-113035248D01*
X110280140Y-113126299D01*
X110229578Y-113202970D01*
X110192628Y-113260728D01*
X110172258Y-113295043D01*
X110169197Y-113302254D01*
X110176136Y-113322748D01*
X110195051Y-113370513D01*
X110223087Y-113438832D01*
X110257391Y-113520989D01*
X110295109Y-113610270D01*
X110333387Y-113699958D01*
X110369370Y-113783338D01*
X110400206Y-113853694D01*
X110423039Y-113904310D01*
X110435017Y-113928471D01*
X110435724Y-113929422D01*
X110454531Y-113934036D01*
X110504618Y-113944328D01*
X110580793Y-113959287D01*
X110677865Y-113977901D01*
X110790643Y-113999159D01*
X110856442Y-114011418D01*
X110976950Y-114034362D01*
X111085797Y-114056195D01*
X111177476Y-114075722D01*
X111246481Y-114091748D01*
X111287304Y-114103079D01*
X111295511Y-114106674D01*
X111303548Y-114131006D01*
X111310033Y-114185959D01*
X111314970Y-114265108D01*
X111318364Y-114362026D01*
X111320218Y-114470287D01*
X111320538Y-114583465D01*
X111319327Y-114695135D01*
X111316590Y-114798868D01*
X111312331Y-114888241D01*
X111306555Y-114956826D01*
X111299267Y-114998197D01*
X111294895Y-115006810D01*
X111268764Y-115017133D01*
X111213393Y-115031892D01*
X111136107Y-115049352D01*
X111044230Y-115067780D01*
X111012158Y-115073741D01*
X110857524Y-115102066D01*
X110735375Y-115124876D01*
X110641673Y-115143080D01*
X110572384Y-115157583D01*
X110523471Y-115169292D01*
X110490897Y-115179115D01*
X110470628Y-115187956D01*
X110458626Y-115196724D01*
X110456947Y-115198457D01*
X110440184Y-115226371D01*
X110414614Y-115280695D01*
X110382788Y-115354777D01*
X110347260Y-115441965D01*
X110310583Y-115535608D01*
X110275311Y-115629052D01*
X110243996Y-115715647D01*
X110219193Y-115788740D01*
X110203454Y-115841678D01*
X110199332Y-115867811D01*
X110199676Y-115868726D01*
X110213641Y-115890086D01*
X110245322Y-115937084D01*
X110291391Y-116004827D01*
X110348518Y-116088423D01*
X110413373Y-116182982D01*
X110431843Y-116209854D01*
X110497699Y-116307275D01*
X110555650Y-116396163D01*
X110602538Y-116471412D01*
X110635207Y-116527920D01*
X110650500Y-116560581D01*
X110651241Y-116564593D01*
X110638392Y-116585684D01*
X110602888Y-116627464D01*
X110549293Y-116685445D01*
X110482171Y-116755135D01*
X110406087Y-116832045D01*
X110325604Y-116911683D01*
X110245287Y-116989561D01*
X110169699Y-117061186D01*
X110103405Y-117122070D01*
X110050969Y-117167721D01*
X110016955Y-117193650D01*
X110007545Y-117197883D01*
X109985643Y-117187912D01*
X109940800Y-117161020D01*
X109880321Y-117121736D01*
X109833789Y-117090117D01*
X109749475Y-117032098D01*
X109649626Y-116963784D01*
X109549473Y-116895579D01*
X109495627Y-116859075D01*
X109313371Y-116735800D01*
X109160381Y-116818520D01*
X109090682Y-116854759D01*
X109031414Y-116882926D01*
X108991311Y-116898991D01*
X108981103Y-116901226D01*
X108968829Y-116884722D01*
X108944613Y-116838082D01*
X108910263Y-116765609D01*
X108867588Y-116671606D01*
X108818394Y-116560374D01*
X108764490Y-116436215D01*
X108707684Y-116303432D01*
X108649782Y-116166327D01*
X108592593Y-116029202D01*
X108537924Y-115896358D01*
X108487584Y-115772098D01*
X108443380Y-115660725D01*
X108407119Y-115566539D01*
X108380609Y-115493844D01*
X108365658Y-115446941D01*
X108363254Y-115430833D01*
X108382311Y-115410286D01*
X108424036Y-115376933D01*
X108479706Y-115337702D01*
X108484378Y-115334599D01*
X108628264Y-115219423D01*
X108744283Y-115085053D01*
X108831430Y-114935784D01*
X108888699Y-114775913D01*
X108915086Y-114609737D01*
X108909585Y-114441552D01*
X108871190Y-114275655D01*
X108798895Y-114116342D01*
X108777626Y-114081487D01*
X108666996Y-113940737D01*
X108536302Y-113827714D01*
X108390064Y-113743003D01*
X108232808Y-113687194D01*
X108069057Y-113660874D01*
X107903333Y-113664630D01*
X107740162Y-113699050D01*
X107584065Y-113764723D01*
X107439567Y-113862235D01*
X107394869Y-113901813D01*
X107281112Y-114025703D01*
X107198218Y-114156124D01*
X107141356Y-114302315D01*
X107109687Y-114447088D01*
X107101869Y-114609860D01*
X107127938Y-114773440D01*
X107185245Y-114932298D01*
X107271144Y-115080906D01*
X107382986Y-115213735D01*
X107518123Y-115325256D01*
X107535883Y-115337011D01*
X107592150Y-115375508D01*
X107634923Y-115408863D01*
X107655372Y-115430160D01*
X107655669Y-115430833D01*
X107651279Y-115453871D01*
X107633876Y-115506157D01*
X107605268Y-115583390D01*
X107567265Y-115681268D01*
X107521674Y-115795491D01*
X107470303Y-115921758D01*
X107414962Y-116055767D01*
X107357458Y-116193218D01*
X107299601Y-116329808D01*
X107243198Y-116461237D01*
X107190058Y-116583205D01*
X107141990Y-116691409D01*
X107100801Y-116781549D01*
X107068301Y-116849323D01*
X107046297Y-116890430D01*
X107037436Y-116901226D01*
X107010360Y-116892819D01*
X106959697Y-116870272D01*
X106894183Y-116837613D01*
X106858159Y-116818520D01*
X106705168Y-116735800D01*
X106522912Y-116859075D01*
X106429875Y-116922228D01*
X106328015Y-116991727D01*
X106232562Y-117057165D01*
X106184750Y-117090117D01*
X106117505Y-117135273D01*
X106060564Y-117171057D01*
X106021354Y-117192938D01*
X106008619Y-117197563D01*
X105990083Y-117185085D01*
X105949059Y-117150252D01*
X105889525Y-117096678D01*
X105815458Y-117027983D01*
X105730835Y-116947781D01*
X105677315Y-116896286D01*
X105583681Y-116804286D01*
X105502759Y-116721999D01*
X105437823Y-116652945D01*
X105392142Y-116600644D01*
X105368989Y-116568616D01*
X105366768Y-116562116D01*
X105377076Y-116537394D01*
X105405561Y-116487405D01*
X105449063Y-116417212D01*
X105504423Y-116331875D01*
X105568480Y-116236456D01*
X105586697Y-116209854D01*
X105653073Y-116113167D01*
X105712622Y-116026117D01*
X105762016Y-115953595D01*
X105797925Y-115900493D01*
X105817019Y-115871703D01*
X105818864Y-115868726D01*
X105816105Y-115845782D01*
X105801462Y-115795336D01*
X105777487Y-115724041D01*
X105746734Y-115638547D01*
X105711756Y-115545507D01*
X105675107Y-115451574D01*
X105639339Y-115363399D01*
X105607006Y-115287634D01*
X105580662Y-115230931D01*
X105562858Y-115199943D01*
X105561593Y-115198457D01*
X105550706Y-115189601D01*
X105532318Y-115180843D01*
X105502394Y-115171277D01*
X105456897Y-115159996D01*
X105391791Y-115146093D01*
X105303039Y-115128663D01*
X105186607Y-115106798D01*
X105038458Y-115079591D01*
X105006382Y-115073741D01*
X104911314Y-115055374D01*
X104828435Y-115037405D01*
X104765070Y-115021569D01*
X104728542Y-115009600D01*
X104723644Y-115006810D01*
X104715573Y-114982072D01*
X104709013Y-114926790D01*
X104703967Y-114847389D01*
X104700441Y-114750296D01*
X104698439Y-114641938D01*
X104697964Y-114528740D01*
X104699023Y-114417128D01*
X104701618Y-114313529D01*
X104705754Y-114224368D01*
X104711437Y-114156072D01*
X104718669Y-114115066D01*
X104723029Y-114106674D01*
X104747302Y-114098208D01*
X104802574Y-114084435D01*
X104883338Y-114066550D01*
X104984088Y-114045748D01*
X105099317Y-114023223D01*
X105162098Y-114011418D01*
X105281213Y-113989151D01*
X105387435Y-113968979D01*
X105475573Y-113951915D01*
X105540434Y-113938969D01*
X105576826Y-113931155D01*
X105582816Y-113929422D01*
X105592939Y-113909890D01*
X105614338Y-113862843D01*
X105644161Y-113795003D01*
X105679555Y-113713091D01*
X105717668Y-113623828D01*
X105755647Y-113533935D01*
X105790640Y-113450135D01*
X105819794Y-113379147D01*
X105840257Y-113327694D01*
X105849177Y-113302497D01*
X105849343Y-113301396D01*
X105839231Y-113281519D01*
X105810883Y-113235777D01*
X105767277Y-113168717D01*
X105711394Y-113084884D01*
X105646213Y-112988826D01*
X105608321Y-112933650D01*
X105539275Y-112832481D01*
X105477950Y-112740630D01*
X105427337Y-112662744D01*
X105390429Y-112603469D01*
X105370218Y-112567451D01*
X105367299Y-112559377D01*
X105379847Y-112540584D01*
X105414537Y-112500457D01*
X105466937Y-112443493D01*
X105532616Y-112374185D01*
X105607144Y-112297031D01*
X105686087Y-112216525D01*
X105765017Y-112137163D01*
X105839500Y-112063440D01*
X105905106Y-111999852D01*
X105957404Y-111950894D01*
X105991961Y-111921061D01*
X106003522Y-111913942D01*
X106022346Y-111923953D01*
X106067369Y-111952078D01*
X106134213Y-111995454D01*
X106218501Y-112051218D01*
X106315856Y-112116506D01*
X106389293Y-112166246D01*
X106760333Y-112418551D01*
X107378905Y-112163555D01*
X107462725Y-111718931D01*
X107546546Y-111274307D01*
X108471994Y-111274307D01*
X108555814Y-111718931D01*
D11*
X71421429Y-138352381D02*
X71421429Y-137352381D01*
X71802382Y-137352381D01*
X71897620Y-137400000D01*
X71945239Y-137447619D01*
X71992858Y-137542857D01*
X71992858Y-137685714D01*
X71945239Y-137780952D01*
X71897620Y-137828571D01*
X71802382Y-137876190D01*
X71421429Y-137876190D01*
X72611905Y-137352381D02*
X72802382Y-137352381D01*
X72897620Y-137400000D01*
X72992858Y-137495238D01*
X73040477Y-137685714D01*
X73040477Y-138019048D01*
X72992858Y-138209524D01*
X72897620Y-138304762D01*
X72802382Y-138352381D01*
X72611905Y-138352381D01*
X72516667Y-138304762D01*
X72421429Y-138209524D01*
X72373810Y-138019048D01*
X72373810Y-137685714D01*
X72421429Y-137495238D01*
X72516667Y-137400000D01*
X72611905Y-137352381D01*
X73373810Y-137352381D02*
X73611905Y-138352381D01*
X73802382Y-137638095D01*
X73992858Y-138352381D01*
X74230953Y-137352381D01*
X74611905Y-137828571D02*
X74945239Y-137828571D01*
X75088096Y-138352381D02*
X74611905Y-138352381D01*
X74611905Y-137352381D01*
X75088096Y-137352381D01*
X76088096Y-138352381D02*
X75754762Y-137876190D01*
X75516667Y-138352381D02*
X75516667Y-137352381D01*
X75897620Y-137352381D01*
X75992858Y-137400000D01*
X76040477Y-137447619D01*
X76088096Y-137542857D01*
X76088096Y-137685714D01*
X76040477Y-137780952D01*
X75992858Y-137828571D01*
X75897620Y-137876190D01*
X75516667Y-137876190D01*
X76516667Y-137971429D02*
X77278572Y-137971429D01*
X76897620Y-138352381D02*
X76897620Y-137590476D01*
X105171429Y-138352381D02*
X105171429Y-137352381D01*
X105552382Y-137352381D01*
X105647620Y-137400000D01*
X105695239Y-137447619D01*
X105742858Y-137542857D01*
X105742858Y-137685714D01*
X105695239Y-137780952D01*
X105647620Y-137828571D01*
X105552382Y-137876190D01*
X105171429Y-137876190D01*
X106361905Y-137352381D02*
X106552382Y-137352381D01*
X106647620Y-137400000D01*
X106742858Y-137495238D01*
X106790477Y-137685714D01*
X106790477Y-138019048D01*
X106742858Y-138209524D01*
X106647620Y-138304762D01*
X106552382Y-138352381D01*
X106361905Y-138352381D01*
X106266667Y-138304762D01*
X106171429Y-138209524D01*
X106123810Y-138019048D01*
X106123810Y-137685714D01*
X106171429Y-137495238D01*
X106266667Y-137400000D01*
X106361905Y-137352381D01*
X107123810Y-137352381D02*
X107361905Y-138352381D01*
X107552382Y-137638095D01*
X107742858Y-138352381D01*
X107980953Y-137352381D01*
X108361905Y-137828571D02*
X108695239Y-137828571D01*
X108838096Y-138352381D02*
X108361905Y-138352381D01*
X108361905Y-137352381D01*
X108838096Y-137352381D01*
X109838096Y-138352381D02*
X109504762Y-137876190D01*
X109266667Y-138352381D02*
X109266667Y-137352381D01*
X109647620Y-137352381D01*
X109742858Y-137400000D01*
X109790477Y-137447619D01*
X109838096Y-137542857D01*
X109838096Y-137685714D01*
X109790477Y-137780952D01*
X109742858Y-137828571D01*
X109647620Y-137876190D01*
X109266667Y-137876190D01*
X110266667Y-137971429D02*
X111028572Y-137971429D01*
X95850001Y-137828571D02*
X95992858Y-137876190D01*
X96040477Y-137923810D01*
X96088096Y-138019048D01*
X96088096Y-138161905D01*
X96040477Y-138257143D01*
X95992858Y-138304762D01*
X95897620Y-138352381D01*
X95516667Y-138352381D01*
X95516667Y-137352381D01*
X95850001Y-137352381D01*
X95945239Y-137400000D01*
X95992858Y-137447619D01*
X96040477Y-137542857D01*
X96040477Y-137638095D01*
X95992858Y-137733333D01*
X95945239Y-137780952D01*
X95850001Y-137828571D01*
X95516667Y-137828571D01*
X96516667Y-137828571D02*
X96850001Y-137828571D01*
X96992858Y-138352381D02*
X96516667Y-138352381D01*
X96516667Y-137352381D01*
X96992858Y-137352381D01*
X97421429Y-138352381D02*
X97421429Y-137352381D01*
X97659524Y-137352381D01*
X97802382Y-137400000D01*
X97897620Y-137495238D01*
X97945239Y-137590476D01*
X97992858Y-137780952D01*
X97992858Y-137923810D01*
X97945239Y-138114286D01*
X97897620Y-138209524D01*
X97802382Y-138304762D01*
X97659524Y-138352381D01*
X97421429Y-138352381D01*
X98421429Y-137971429D02*
X99183334Y-137971429D01*
X84350001Y-137828571D02*
X84492858Y-137876190D01*
X84540477Y-137923810D01*
X84588096Y-138019048D01*
X84588096Y-138161905D01*
X84540477Y-138257143D01*
X84492858Y-138304762D01*
X84397620Y-138352381D01*
X84016667Y-138352381D01*
X84016667Y-137352381D01*
X84350001Y-137352381D01*
X84445239Y-137400000D01*
X84492858Y-137447619D01*
X84540477Y-137542857D01*
X84540477Y-137638095D01*
X84492858Y-137733333D01*
X84445239Y-137780952D01*
X84350001Y-137828571D01*
X84016667Y-137828571D01*
X85016667Y-137828571D02*
X85350001Y-137828571D01*
X85492858Y-138352381D02*
X85016667Y-138352381D01*
X85016667Y-137352381D01*
X85492858Y-137352381D01*
X85921429Y-138352381D02*
X85921429Y-137352381D01*
X86159524Y-137352381D01*
X86302382Y-137400000D01*
X86397620Y-137495238D01*
X86445239Y-137590476D01*
X86492858Y-137780952D01*
X86492858Y-137923810D01*
X86445239Y-138114286D01*
X86397620Y-138209524D01*
X86302382Y-138304762D01*
X86159524Y-138352381D01*
X85921429Y-138352381D01*
X86921429Y-137971429D02*
X87683334Y-137971429D01*
X87302382Y-138352381D02*
X87302382Y-137590476D01*
X68209524Y-115317143D02*
X68161905Y-115364762D01*
X68019048Y-115412381D01*
X67923810Y-115412381D01*
X67780952Y-115364762D01*
X67685714Y-115269524D01*
X67638095Y-115174286D01*
X67590476Y-114983810D01*
X67590476Y-114840952D01*
X67638095Y-114650476D01*
X67685714Y-114555238D01*
X67780952Y-114460000D01*
X67923810Y-114412381D01*
X68019048Y-114412381D01*
X68161905Y-114460000D01*
X68209524Y-114507619D01*
X68638095Y-115412381D02*
X68638095Y-114412381D01*
X69209524Y-115412381D01*
X69209524Y-114412381D01*
X70209524Y-115412381D02*
X69638095Y-115412381D01*
X69923809Y-115412381D02*
X69923809Y-114412381D01*
X69828571Y-114555238D01*
X69733333Y-114650476D01*
X69638095Y-114698095D01*
X107261905Y-108452381D02*
X107261905Y-107452381D01*
X107500000Y-107452381D01*
X107642858Y-107500000D01*
X107738096Y-107595238D01*
X107785715Y-107690476D01*
X107833334Y-107880952D01*
X107833334Y-108023810D01*
X107785715Y-108214286D01*
X107738096Y-108309524D01*
X107642858Y-108404762D01*
X107500000Y-108452381D01*
X107261905Y-108452381D01*
X108166667Y-107452381D02*
X108785715Y-107452381D01*
X108452381Y-107833333D01*
X108595239Y-107833333D01*
X108690477Y-107880952D01*
X108738096Y-107928571D01*
X108785715Y-108023810D01*
X108785715Y-108261905D01*
X108738096Y-108357143D01*
X108690477Y-108404762D01*
X108595239Y-108452381D01*
X108309524Y-108452381D01*
X108214286Y-108404762D01*
X108166667Y-108357143D01*
M02*
