M48
;DRILL file {KiCad 4.0.5} date 02/12/17 12:32:28
;FORMAT={-:-/ absolute / metric / decimal}
FMAT,2
METRIC,TZ
T1C0.400
T2C1.000
T3C1.500
%
G90
G05
M71
T1
X104.89Y-114.26
X104.89Y-115.54
X104.89Y-116.81
T2
X97.31Y-113.15
X97.31Y-114.9
X97.31Y-116.65
X98.06Y-111.4
X98.06Y-118.4
X100.06Y-111.4
X100.06Y-118.4
X102.06Y-111.4
X102.06Y-118.4
T3
X76.1Y-124.36
X76.1Y-129.44
X86.1Y-124.36
X86.1Y-129.44
X96.1Y-124.36
X96.1Y-129.44
X106.1Y-124.36
X106.1Y-129.44
T0
M30
