%FSLAX45Y45*%
G04 Gerber Fmt 4.5, Leading zero omitted, Abs format (unit mm)*
G04 Created by KiCad (PCBNEW 4.0.4-stable) date 12/03/16 18:33:24*
%MOMM*%
%LPD*%
G01*
G04 APERTURE LIST*
%ADD10C,0.127000*%
%ADD11C,0.150000*%
%ADD12C,0.200000*%
%ADD13C,0.300000*%
G04 APERTURE END LIST*
D10*
D11*
X22650000Y-12450000D02*
X17850000Y-12450000D01*
X22650000Y-7650000D02*
X22650000Y-12450000D01*
X22450000Y-7650000D02*
X22650000Y-7650000D01*
X17850000Y-7650000D02*
X22450000Y-7650000D01*
X17850000Y-12450000D02*
X17850000Y-7650000D01*
D12*
X17990000Y-7790000D02*
X18310000Y-8110000D01*
X18310000Y-7790000D02*
X17990000Y-8110000D01*
X22190000Y-7790000D02*
X22510000Y-8110000D01*
X22510000Y-7790000D02*
X22190000Y-8110000D01*
D13*
X18113929Y-12923214D02*
X18113929Y-12623214D01*
X18185357Y-12623214D01*
X18228214Y-12637500D01*
X18256786Y-12666071D01*
X18271071Y-12694643D01*
X18285357Y-12751786D01*
X18285357Y-12794643D01*
X18271071Y-12851786D01*
X18256786Y-12880357D01*
X18228214Y-12908929D01*
X18185357Y-12923214D01*
X18113929Y-12923214D01*
X18413929Y-12923214D02*
X18413929Y-12723214D01*
X18413929Y-12780357D02*
X18428214Y-12751786D01*
X18442500Y-12737500D01*
X18471071Y-12723214D01*
X18499643Y-12723214D01*
X18599643Y-12923214D02*
X18599643Y-12723214D01*
X18599643Y-12623214D02*
X18585357Y-12637500D01*
X18599643Y-12651786D01*
X18613929Y-12637500D01*
X18599643Y-12623214D01*
X18599643Y-12651786D01*
X18785357Y-12923214D02*
X18756786Y-12908929D01*
X18742500Y-12880357D01*
X18742500Y-12623214D01*
X18942500Y-12923214D02*
X18913929Y-12908929D01*
X18899643Y-12880357D01*
X18899643Y-12623214D01*
X19285357Y-12923214D02*
X19285357Y-12623214D01*
X19385357Y-12837500D01*
X19485357Y-12623214D01*
X19485357Y-12923214D01*
X19756786Y-12923214D02*
X19756786Y-12766071D01*
X19742500Y-12737500D01*
X19713929Y-12723214D01*
X19656786Y-12723214D01*
X19628214Y-12737500D01*
X19756786Y-12908929D02*
X19728214Y-12923214D01*
X19656786Y-12923214D01*
X19628214Y-12908929D01*
X19613929Y-12880357D01*
X19613929Y-12851786D01*
X19628214Y-12823214D01*
X19656786Y-12808929D01*
X19728214Y-12808929D01*
X19756786Y-12794643D01*
X19899643Y-12723214D02*
X19899643Y-13023214D01*
X19899643Y-12737500D02*
X19928214Y-12723214D01*
X19985357Y-12723214D01*
X20013929Y-12737500D01*
X20028214Y-12751786D01*
X20042500Y-12780357D01*
X20042500Y-12866071D01*
X20028214Y-12894643D01*
X20013929Y-12908929D01*
X19985357Y-12923214D01*
X19928214Y-12923214D01*
X19899643Y-12908929D01*
X20171071Y-12894643D02*
X20185357Y-12908929D01*
X20171071Y-12923214D01*
X20156786Y-12908929D01*
X20171071Y-12894643D01*
X20171071Y-12923214D01*
X20171071Y-12737500D02*
X20185357Y-12751786D01*
X20171071Y-12766071D01*
X20156786Y-12751786D01*
X20171071Y-12737500D01*
X20171071Y-12766071D01*
X17522500Y-13257500D02*
X17842500Y-13577500D01*
X17842500Y-13257500D02*
X17522500Y-13577500D01*
X18085357Y-13253214D02*
X18271071Y-13253214D01*
X18171071Y-13367500D01*
X18213929Y-13367500D01*
X18242500Y-13381786D01*
X18256786Y-13396071D01*
X18271071Y-13424643D01*
X18271071Y-13496071D01*
X18256786Y-13524643D01*
X18242500Y-13538929D01*
X18213929Y-13553214D01*
X18128214Y-13553214D01*
X18099643Y-13538929D01*
X18085357Y-13524643D01*
X18399643Y-13524643D02*
X18413929Y-13538929D01*
X18399643Y-13553214D01*
X18385357Y-13538929D01*
X18399643Y-13524643D01*
X18399643Y-13553214D01*
X18528214Y-13281786D02*
X18542500Y-13267500D01*
X18571071Y-13253214D01*
X18642500Y-13253214D01*
X18671071Y-13267500D01*
X18685357Y-13281786D01*
X18699643Y-13310357D01*
X18699643Y-13338929D01*
X18685357Y-13381786D01*
X18513928Y-13553214D01*
X18699643Y-13553214D01*
X18885357Y-13253214D02*
X18913929Y-13253214D01*
X18942500Y-13267500D01*
X18956786Y-13281786D01*
X18971071Y-13310357D01*
X18985357Y-13367500D01*
X18985357Y-13438929D01*
X18971071Y-13496071D01*
X18956786Y-13524643D01*
X18942500Y-13538929D01*
X18913929Y-13553214D01*
X18885357Y-13553214D01*
X18856786Y-13538929D01*
X18842500Y-13524643D01*
X18828214Y-13496071D01*
X18813929Y-13438929D01*
X18813929Y-13367500D01*
X18828214Y-13310357D01*
X18842500Y-13281786D01*
X18856786Y-13267500D01*
X18885357Y-13253214D01*
X19113929Y-13553214D02*
X19113929Y-13353214D01*
X19113929Y-13381786D02*
X19128214Y-13367500D01*
X19156786Y-13353214D01*
X19199643Y-13353214D01*
X19228214Y-13367500D01*
X19242500Y-13396071D01*
X19242500Y-13553214D01*
X19242500Y-13396071D02*
X19256786Y-13367500D01*
X19285357Y-13353214D01*
X19328214Y-13353214D01*
X19356786Y-13367500D01*
X19371071Y-13396071D01*
X19371071Y-13553214D01*
X19513929Y-13553214D02*
X19513929Y-13353214D01*
X19513929Y-13381786D02*
X19528214Y-13367500D01*
X19556786Y-13353214D01*
X19599643Y-13353214D01*
X19628214Y-13367500D01*
X19642500Y-13396071D01*
X19642500Y-13553214D01*
X19642500Y-13396071D02*
X19656786Y-13367500D01*
X19685357Y-13353214D01*
X19728214Y-13353214D01*
X19756786Y-13367500D01*
X19771071Y-13396071D01*
X19771071Y-13553214D01*
X20356786Y-13238929D02*
X20099643Y-13624643D01*
X20742500Y-13253214D02*
X20771071Y-13253214D01*
X20799643Y-13267500D01*
X20813928Y-13281786D01*
X20828214Y-13310357D01*
X20842500Y-13367500D01*
X20842500Y-13438929D01*
X20828214Y-13496071D01*
X20813928Y-13524643D01*
X20799643Y-13538929D01*
X20771071Y-13553214D01*
X20742500Y-13553214D01*
X20713928Y-13538929D01*
X20699643Y-13524643D01*
X20685357Y-13496071D01*
X20671071Y-13438929D01*
X20671071Y-13367500D01*
X20685357Y-13310357D01*
X20699643Y-13281786D01*
X20713928Y-13267500D01*
X20742500Y-13253214D01*
X20971071Y-13524643D02*
X20985357Y-13538929D01*
X20971071Y-13553214D01*
X20956786Y-13538929D01*
X20971071Y-13524643D01*
X20971071Y-13553214D01*
X21271071Y-13553214D02*
X21099643Y-13553214D01*
X21185357Y-13553214D02*
X21185357Y-13253214D01*
X21156786Y-13296071D01*
X21128214Y-13324643D01*
X21099643Y-13338929D01*
X21385357Y-13281786D02*
X21399643Y-13267500D01*
X21428214Y-13253214D01*
X21499643Y-13253214D01*
X21528214Y-13267500D01*
X21542500Y-13281786D01*
X21556786Y-13310357D01*
X21556786Y-13338929D01*
X21542500Y-13381786D01*
X21371071Y-13553214D01*
X21556786Y-13553214D01*
X21813928Y-13253214D02*
X21756786Y-13253214D01*
X21728214Y-13267500D01*
X21713928Y-13281786D01*
X21685357Y-13324643D01*
X21671071Y-13381786D01*
X21671071Y-13496071D01*
X21685357Y-13524643D01*
X21699643Y-13538929D01*
X21728214Y-13553214D01*
X21785357Y-13553214D01*
X21813928Y-13538929D01*
X21828214Y-13524643D01*
X21842500Y-13496071D01*
X21842500Y-13424643D01*
X21828214Y-13396071D01*
X21813928Y-13381786D01*
X21785357Y-13367500D01*
X21728214Y-13367500D01*
X21699643Y-13381786D01*
X21685357Y-13396071D01*
X21671071Y-13424643D01*
X21956786Y-13253214D02*
X21956786Y-13310357D01*
X22071071Y-13253214D02*
X22071071Y-13310357D01*
X22513928Y-13667500D02*
X22499643Y-13653214D01*
X22471071Y-13610357D01*
X22456785Y-13581786D01*
X22442500Y-13538929D01*
X22428214Y-13467500D01*
X22428214Y-13410357D01*
X22442500Y-13338929D01*
X22456785Y-13296071D01*
X22471071Y-13267500D01*
X22499643Y-13224643D01*
X22513928Y-13210357D01*
X22613928Y-13281786D02*
X22628214Y-13267500D01*
X22656785Y-13253214D01*
X22728214Y-13253214D01*
X22756785Y-13267500D01*
X22771071Y-13281786D01*
X22785357Y-13310357D01*
X22785357Y-13338929D01*
X22771071Y-13381786D01*
X22599643Y-13553214D01*
X22785357Y-13553214D01*
X23142500Y-13553214D02*
X23142500Y-13253214D01*
X23271071Y-13553214D02*
X23271071Y-13396071D01*
X23256785Y-13367500D01*
X23228214Y-13353214D01*
X23185357Y-13353214D01*
X23156785Y-13367500D01*
X23142500Y-13381786D01*
X23456785Y-13553214D02*
X23428214Y-13538929D01*
X23413928Y-13524643D01*
X23399643Y-13496071D01*
X23399643Y-13410357D01*
X23413928Y-13381786D01*
X23428214Y-13367500D01*
X23456785Y-13353214D01*
X23499643Y-13353214D01*
X23528214Y-13367500D01*
X23542500Y-13381786D01*
X23556785Y-13410357D01*
X23556785Y-13496071D01*
X23542500Y-13524643D01*
X23528214Y-13538929D01*
X23499643Y-13553214D01*
X23456785Y-13553214D01*
X23728214Y-13553214D02*
X23699643Y-13538929D01*
X23685357Y-13510357D01*
X23685357Y-13253214D01*
X23956786Y-13538929D02*
X23928214Y-13553214D01*
X23871071Y-13553214D01*
X23842500Y-13538929D01*
X23828214Y-13510357D01*
X23828214Y-13396071D01*
X23842500Y-13367500D01*
X23871071Y-13353214D01*
X23928214Y-13353214D01*
X23956786Y-13367500D01*
X23971071Y-13396071D01*
X23971071Y-13424643D01*
X23828214Y-13453214D01*
X24085357Y-13538929D02*
X24113928Y-13553214D01*
X24171071Y-13553214D01*
X24199643Y-13538929D01*
X24213928Y-13510357D01*
X24213928Y-13496071D01*
X24199643Y-13467500D01*
X24171071Y-13453214D01*
X24128214Y-13453214D01*
X24099643Y-13438929D01*
X24085357Y-13410357D01*
X24085357Y-13396071D01*
X24099643Y-13367500D01*
X24128214Y-13353214D01*
X24171071Y-13353214D01*
X24199643Y-13367500D01*
X24313928Y-13667500D02*
X24328214Y-13653214D01*
X24356786Y-13610357D01*
X24371071Y-13581786D01*
X24385357Y-13538929D01*
X24399643Y-13467500D01*
X24399643Y-13410357D01*
X24385357Y-13338929D01*
X24371071Y-13296071D01*
X24356786Y-13267500D01*
X24328214Y-13224643D01*
X24313928Y-13210357D01*
X24856786Y-13667500D02*
X24842500Y-13653214D01*
X24813928Y-13610357D01*
X24799643Y-13581786D01*
X24785357Y-13538929D01*
X24771071Y-13467500D01*
X24771071Y-13410357D01*
X24785357Y-13338929D01*
X24799643Y-13296071D01*
X24813928Y-13267500D01*
X24842500Y-13224643D01*
X24856786Y-13210357D01*
X24971071Y-13353214D02*
X24971071Y-13553214D01*
X24971071Y-13381786D02*
X24985357Y-13367500D01*
X25013928Y-13353214D01*
X25056786Y-13353214D01*
X25085357Y-13367500D01*
X25099643Y-13396071D01*
X25099643Y-13553214D01*
X25285357Y-13553214D02*
X25256786Y-13538929D01*
X25242500Y-13524643D01*
X25228214Y-13496071D01*
X25228214Y-13410357D01*
X25242500Y-13381786D01*
X25256786Y-13367500D01*
X25285357Y-13353214D01*
X25328214Y-13353214D01*
X25356786Y-13367500D01*
X25371071Y-13381786D01*
X25385357Y-13410357D01*
X25385357Y-13496071D01*
X25371071Y-13524643D01*
X25356786Y-13538929D01*
X25328214Y-13553214D01*
X25285357Y-13553214D01*
X25471071Y-13353214D02*
X25585357Y-13353214D01*
X25513928Y-13253214D02*
X25513928Y-13510357D01*
X25528214Y-13538929D01*
X25556786Y-13553214D01*
X25585357Y-13553214D01*
X25913928Y-13353214D02*
X25913928Y-13653214D01*
X25913928Y-13367500D02*
X25942500Y-13353214D01*
X25999643Y-13353214D01*
X26028214Y-13367500D01*
X26042500Y-13381786D01*
X26056786Y-13410357D01*
X26056786Y-13496071D01*
X26042500Y-13524643D01*
X26028214Y-13538929D01*
X25999643Y-13553214D01*
X25942500Y-13553214D01*
X25913928Y-13538929D01*
X26228214Y-13553214D02*
X26199643Y-13538929D01*
X26185357Y-13510357D01*
X26185357Y-13253214D01*
X26471071Y-13553214D02*
X26471071Y-13396071D01*
X26456786Y-13367500D01*
X26428214Y-13353214D01*
X26371071Y-13353214D01*
X26342500Y-13367500D01*
X26471071Y-13538929D02*
X26442500Y-13553214D01*
X26371071Y-13553214D01*
X26342500Y-13538929D01*
X26328214Y-13510357D01*
X26328214Y-13481786D01*
X26342500Y-13453214D01*
X26371071Y-13438929D01*
X26442500Y-13438929D01*
X26471071Y-13424643D01*
X26571071Y-13353214D02*
X26685357Y-13353214D01*
X26613929Y-13253214D02*
X26613929Y-13510357D01*
X26628214Y-13538929D01*
X26656786Y-13553214D01*
X26685357Y-13553214D01*
X26899643Y-13538929D02*
X26871071Y-13553214D01*
X26813929Y-13553214D01*
X26785357Y-13538929D01*
X26771071Y-13510357D01*
X26771071Y-13396071D01*
X26785357Y-13367500D01*
X26813929Y-13353214D01*
X26871071Y-13353214D01*
X26899643Y-13367500D01*
X26913929Y-13396071D01*
X26913929Y-13424643D01*
X26771071Y-13453214D01*
X27171071Y-13553214D02*
X27171071Y-13253214D01*
X27171071Y-13538929D02*
X27142500Y-13553214D01*
X27085357Y-13553214D01*
X27056786Y-13538929D01*
X27042500Y-13524643D01*
X27028214Y-13496071D01*
X27028214Y-13410357D01*
X27042500Y-13381786D01*
X27056786Y-13367500D01*
X27085357Y-13353214D01*
X27142500Y-13353214D01*
X27171071Y-13367500D01*
X27285357Y-13667500D02*
X27299643Y-13653214D01*
X27328214Y-13610357D01*
X27342500Y-13581786D01*
X27356786Y-13538929D01*
X27371071Y-13467500D01*
X27371071Y-13410357D01*
X27356786Y-13338929D01*
X27342500Y-13296071D01*
X27328214Y-13267500D01*
X27299643Y-13224643D01*
X27285357Y-13210357D01*
M02*
