G04 #@! TF.FileFunction,Soldermask,Bot*
%FSLAX46Y46*%
G04 Gerber Fmt 4.6, Leading zero omitted, Abs format (unit mm)*
G04 Created by KiCad (PCBNEW 4.0.6) date 05/13/17 18:14:43*
%MOMM*%
%LPD*%
G01*
G04 APERTURE LIST*
%ADD10C,0.100000*%
%ADD11C,0.150000*%
%ADD12R,5.400000X5.400000*%
%ADD13R,5.400000X4.400000*%
%ADD14C,3.600000*%
%ADD15R,2.400000X2.100000*%
%ADD16R,2.100000X2.400000*%
%ADD17R,2.400000X2.400000*%
%ADD18R,9.800000X11.200000*%
%ADD19R,5.000000X2.900000*%
%ADD20R,2.000000X2.000000*%
G04 APERTURE END LIST*
D10*
D11*
X115000000Y-104000000D02*
X115000000Y-139000000D01*
X67000000Y-104000000D02*
X115000000Y-104000000D01*
X67000000Y-139000000D02*
X67000000Y-104000000D01*
X67250000Y-139000000D02*
X115000000Y-139000000D01*
X67000000Y-139000000D02*
X67250000Y-139000000D01*
D12*
X71680000Y-134400000D03*
X76690000Y-134400000D03*
D13*
X71680000Y-130400000D03*
X76690000Y-130400000D03*
D12*
X71680000Y-126400000D03*
X76690000Y-126400000D03*
X105430000Y-134400000D03*
X110440000Y-134400000D03*
D13*
X105430000Y-130400000D03*
X110440000Y-130400000D03*
D12*
X105430000Y-126400000D03*
X110440000Y-126400000D03*
X94180000Y-134400000D03*
X99190000Y-134400000D03*
D13*
X94180000Y-130400000D03*
X99190000Y-130400000D03*
D12*
X94180000Y-126400000D03*
X99190000Y-126400000D03*
X82930000Y-134400000D03*
X87940000Y-134400000D03*
D13*
X82930000Y-130400000D03*
X87940000Y-130400000D03*
D12*
X82930000Y-126400000D03*
X87940000Y-126400000D03*
D14*
X112000000Y-107000000D03*
X70000000Y-107000000D03*
D15*
X95000000Y-108250000D03*
X99000000Y-108250000D03*
X82250000Y-110250000D03*
X86250000Y-110250000D03*
D16*
X110500000Y-114500000D03*
X110500000Y-118500000D03*
D15*
X82750000Y-121250000D03*
X86750000Y-121250000D03*
X76200000Y-112500000D03*
X72200000Y-112500000D03*
D17*
X93000000Y-120000000D03*
X93000000Y-122000000D03*
X93000000Y-114000000D03*
X93000000Y-112000000D03*
X93000000Y-116000000D03*
X93000000Y-118000000D03*
X91000000Y-118000000D03*
X91000000Y-116000000D03*
X91000000Y-112000000D03*
X91000000Y-114000000D03*
X91000000Y-122000000D03*
X91000000Y-120000000D03*
X97000000Y-120000000D03*
X97000000Y-122000000D03*
X97000000Y-114000000D03*
X97000000Y-112000000D03*
X97000000Y-116000000D03*
X97000000Y-118000000D03*
X95000000Y-118000000D03*
X95000000Y-116000000D03*
X95000000Y-112000000D03*
X95000000Y-114000000D03*
X95000000Y-122000000D03*
X95000000Y-120000000D03*
X99000000Y-120000000D03*
X99000000Y-122000000D03*
X99000000Y-114000000D03*
X99000000Y-112000000D03*
X99000000Y-116000000D03*
X99000000Y-118000000D03*
X101000000Y-118000000D03*
X101000000Y-116000000D03*
X101000000Y-112000000D03*
X101000000Y-114000000D03*
X101000000Y-122000000D03*
X101000000Y-120000000D03*
D18*
X97000000Y-117000000D03*
D19*
X106000000Y-119540000D03*
X106000000Y-114460000D03*
D20*
X86950000Y-113630000D03*
X80450000Y-113630000D03*
X80450000Y-116170000D03*
X86950000Y-116170000D03*
M02*
