G04 #@! TF.FileFunction,Legend,Bot*
%FSLAX46Y46*%
G04 Gerber Fmt 4.6, Leading zero omitted, Abs format (unit mm)*
G04 Created by KiCad (PCBNEW 4.0.5) date 02/13/17 16:09:42*
%MOMM*%
%LPD*%
G01*
G04 APERTURE LIST*
%ADD10C,0.100000*%
%ADD11C,0.150000*%
%ADD12C,0.300000*%
%ADD13C,0.400000*%
%ADD14C,0.200000*%
%ADD15C,0.010000*%
G04 APERTURE END LIST*
D10*
D11*
X79999600Y-155999600D02*
X79999600Y-187999600D01*
X187999600Y-187999600D01*
X187999600Y-155999600D01*
X79999600Y-155999600D01*
D10*
D11*
X10000000Y-10000000D02*
X10000000Y-189999600D01*
X189999600Y-189999600D01*
X189999600Y-10000000D01*
X10000000Y-10000000D01*
D10*
D11*
X12000000Y-12000000D02*
X12000000Y-187999600D01*
X187999600Y-187999600D01*
X187999600Y-12000000D01*
X12000000Y-12000000D01*
D10*
D11*
X60000000Y-12000000D02*
X60000000Y-10000000D01*
D10*
D11*
X110000000Y-12000000D02*
X110000000Y-10000000D01*
D10*
D11*
X160000000Y-12000000D02*
X160000000Y-10000000D01*
D10*
D11*
X35990476Y-11588095D02*
X35247619Y-11588095D01*
X35619048Y-11588095D02*
X35619048Y-10288095D01*
X35495238Y-10473810D01*
X35371429Y-10597619D01*
X35247619Y-10659524D01*
D10*
D11*
X85247619Y-10411905D02*
X85309524Y-10350000D01*
X85433333Y-10288095D01*
X85742857Y-10288095D01*
X85866667Y-10350000D01*
X85928571Y-10411905D01*
X85990476Y-10535714D01*
X85990476Y-10659524D01*
X85928571Y-10845238D01*
X85185714Y-11588095D01*
X85990476Y-11588095D01*
D10*
D11*
X135185714Y-10288095D02*
X135990476Y-10288095D01*
X135557143Y-10783333D01*
X135742857Y-10783333D01*
X135866667Y-10845238D01*
X135928571Y-10907143D01*
X135990476Y-11030952D01*
X135990476Y-11340476D01*
X135928571Y-11464286D01*
X135866667Y-11526190D01*
X135742857Y-11588095D01*
X135371429Y-11588095D01*
X135247619Y-11526190D01*
X135185714Y-11464286D01*
D10*
D11*
X185866667Y-10721429D02*
X185866667Y-11588095D01*
X185557143Y-10226190D02*
X185247619Y-11154762D01*
X186052381Y-11154762D01*
D10*
D11*
X60000000Y-187999600D02*
X60000000Y-189999600D01*
D10*
D11*
X110000000Y-187999600D02*
X110000000Y-189999600D01*
D10*
D11*
X160000000Y-187999600D02*
X160000000Y-189999600D01*
D10*
D11*
X35990476Y-189587695D02*
X35247619Y-189587695D01*
X35619048Y-189587695D02*
X35619048Y-188287695D01*
X35495238Y-188473410D01*
X35371429Y-188597219D01*
X35247619Y-188659124D01*
D10*
D11*
X85247619Y-188411505D02*
X85309524Y-188349600D01*
X85433333Y-188287695D01*
X85742857Y-188287695D01*
X85866667Y-188349600D01*
X85928571Y-188411505D01*
X85990476Y-188535314D01*
X85990476Y-188659124D01*
X85928571Y-188844838D01*
X85185714Y-189587695D01*
X85990476Y-189587695D01*
D10*
D11*
X135185714Y-188287695D02*
X135990476Y-188287695D01*
X135557143Y-188782933D01*
X135742857Y-188782933D01*
X135866667Y-188844838D01*
X135928571Y-188906743D01*
X135990476Y-189030552D01*
X135990476Y-189340076D01*
X135928571Y-189463886D01*
X135866667Y-189525790D01*
X135742857Y-189587695D01*
X135371429Y-189587695D01*
X135247619Y-189525790D01*
X135185714Y-189463886D01*
D10*
D11*
X185866667Y-188721029D02*
X185866667Y-189587695D01*
X185557143Y-188225790D02*
X185247619Y-189154362D01*
X186052381Y-189154362D01*
D10*
D11*
X10000000Y-60000000D02*
X12000000Y-60000000D01*
D10*
D11*
X10000000Y-110000000D02*
X12000000Y-110000000D01*
D10*
D11*
X10000000Y-160000000D02*
X12000000Y-160000000D01*
D10*
D11*
X10690476Y-35216667D02*
X11309524Y-35216667D01*
X10566667Y-35588095D02*
X11000000Y-34288095D01*
X11433333Y-35588095D01*
D10*
D11*
X11092857Y-84907143D02*
X11278571Y-84969048D01*
X11340476Y-85030952D01*
X11402381Y-85154762D01*
X11402381Y-85340476D01*
X11340476Y-85464286D01*
X11278571Y-85526190D01*
X11154762Y-85588095D01*
X10659524Y-85588095D01*
X10659524Y-84288095D01*
X11092857Y-84288095D01*
X11216667Y-84350000D01*
X11278571Y-84411905D01*
X11340476Y-84535714D01*
X11340476Y-84659524D01*
X11278571Y-84783333D01*
X11216667Y-84845238D01*
X11092857Y-84907143D01*
X10659524Y-84907143D01*
D10*
D11*
X11402381Y-135464286D02*
X11340476Y-135526190D01*
X11154762Y-135588095D01*
X11030952Y-135588095D01*
X10845238Y-135526190D01*
X10721429Y-135402381D01*
X10659524Y-135278571D01*
X10597619Y-135030952D01*
X10597619Y-134845238D01*
X10659524Y-134597619D01*
X10721429Y-134473810D01*
X10845238Y-134350000D01*
X11030952Y-134288095D01*
X11154762Y-134288095D01*
X11340476Y-134350000D01*
X11402381Y-134411905D01*
D10*
D11*
X10659524Y-185588095D02*
X10659524Y-184288095D01*
X10969048Y-184288095D01*
X11154762Y-184350000D01*
X11278571Y-184473810D01*
X11340476Y-184597619D01*
X11402381Y-184845238D01*
X11402381Y-185030952D01*
X11340476Y-185278571D01*
X11278571Y-185402381D01*
X11154762Y-185526190D01*
X10969048Y-185588095D01*
X10659524Y-185588095D01*
D10*
D11*
X189999600Y-60000000D02*
X187999600Y-60000000D01*
D10*
D11*
X189999600Y-110000000D02*
X187999600Y-110000000D01*
D10*
D11*
X189999600Y-160000000D02*
X187999600Y-160000000D01*
D10*
D11*
X188690076Y-35216667D02*
X189309124Y-35216667D01*
X188566267Y-35588095D02*
X188999600Y-34288095D01*
X189432933Y-35588095D01*
D10*
D11*
X189092457Y-84907143D02*
X189278171Y-84969048D01*
X189340076Y-85030952D01*
X189401981Y-85154762D01*
X189401981Y-85340476D01*
X189340076Y-85464286D01*
X189278171Y-85526190D01*
X189154362Y-85588095D01*
X188659124Y-85588095D01*
X188659124Y-84288095D01*
X189092457Y-84288095D01*
X189216267Y-84350000D01*
X189278171Y-84411905D01*
X189340076Y-84535714D01*
X189340076Y-84659524D01*
X189278171Y-84783333D01*
X189216267Y-84845238D01*
X189092457Y-84907143D01*
X188659124Y-84907143D01*
D10*
D11*
X189401981Y-135464286D02*
X189340076Y-135526190D01*
X189154362Y-135588095D01*
X189030552Y-135588095D01*
X188844838Y-135526190D01*
X188721029Y-135402381D01*
X188659124Y-135278571D01*
X188597219Y-135030952D01*
X188597219Y-134845238D01*
X188659124Y-134597619D01*
X188721029Y-134473810D01*
X188844838Y-134350000D01*
X189030552Y-134288095D01*
X189154362Y-134288095D01*
X189340076Y-134350000D01*
X189401981Y-134411905D01*
D10*
D11*
X188659124Y-185588095D02*
X188659124Y-184288095D01*
X188968648Y-184288095D01*
X189154362Y-184350000D01*
X189278171Y-184473810D01*
X189340076Y-184597619D01*
X189401981Y-184845238D01*
X189401981Y-185030952D01*
X189340076Y-185278571D01*
X189278171Y-185402381D01*
X189154362Y-185526190D01*
X188968648Y-185588095D01*
X188659124Y-185588095D01*
D10*
D11*
X103356743Y-183778171D02*
X103356743Y-182278171D01*
X103713886Y-182278171D01*
X103928171Y-182349600D01*
X104071029Y-182492457D01*
X104142457Y-182635314D01*
X104213886Y-182921029D01*
X104213886Y-183135314D01*
X104142457Y-183421029D01*
X104071029Y-183563886D01*
X103928171Y-183706743D01*
X103713886Y-183778171D01*
X103356743Y-183778171D01*
X105499600Y-183778171D02*
X105499600Y-182992457D01*
X105428171Y-182849600D01*
X105285314Y-182778171D01*
X104999600Y-182778171D01*
X104856743Y-182849600D01*
X105499600Y-183706743D02*
X105356743Y-183778171D01*
X104999600Y-183778171D01*
X104856743Y-183706743D01*
X104785314Y-183563886D01*
X104785314Y-183421029D01*
X104856743Y-183278171D01*
X104999600Y-183206743D01*
X105356743Y-183206743D01*
X105499600Y-183135314D01*
X105999600Y-182778171D02*
X106571029Y-182778171D01*
X106213886Y-182278171D02*
X106213886Y-183563886D01*
X106285314Y-183706743D01*
X106428172Y-183778171D01*
X106571029Y-183778171D01*
X107642457Y-183706743D02*
X107499600Y-183778171D01*
X107213886Y-183778171D01*
X107071029Y-183706743D01*
X106999600Y-183563886D01*
X106999600Y-182992457D01*
X107071029Y-182849600D01*
X107213886Y-182778171D01*
X107499600Y-182778171D01*
X107642457Y-182849600D01*
X107713886Y-182992457D01*
X107713886Y-183135314D01*
X106999600Y-183278171D01*
X108356743Y-183635314D02*
X108428171Y-183706743D01*
X108356743Y-183778171D01*
X108285314Y-183706743D01*
X108356743Y-183635314D01*
X108356743Y-183778171D01*
X108356743Y-182849600D02*
X108428171Y-182921029D01*
X108356743Y-182992457D01*
X108285314Y-182921029D01*
X108356743Y-182849600D01*
X108356743Y-182992457D01*
D10*
D11*
X79999600Y-184499600D02*
X187999600Y-184499600D01*
D10*
D11*
X81356743Y-186578171D02*
X81356743Y-185078171D01*
X82213886Y-186578171D02*
X81571029Y-185721029D01*
X82213886Y-185078171D02*
X81356743Y-185935314D01*
X82856743Y-186578171D02*
X82856743Y-185578171D01*
X82856743Y-185078171D02*
X82785314Y-185149600D01*
X82856743Y-185221029D01*
X82928171Y-185149600D01*
X82856743Y-185078171D01*
X82856743Y-185221029D01*
X84428172Y-186435314D02*
X84356743Y-186506743D01*
X84142457Y-186578171D01*
X83999600Y-186578171D01*
X83785315Y-186506743D01*
X83642457Y-186363886D01*
X83571029Y-186221029D01*
X83499600Y-185935314D01*
X83499600Y-185721029D01*
X83571029Y-185435314D01*
X83642457Y-185292457D01*
X83785315Y-185149600D01*
X83999600Y-185078171D01*
X84142457Y-185078171D01*
X84356743Y-185149600D01*
X84428172Y-185221029D01*
X85713886Y-186578171D02*
X85713886Y-185792457D01*
X85642457Y-185649600D01*
X85499600Y-185578171D01*
X85213886Y-185578171D01*
X85071029Y-185649600D01*
X85713886Y-186506743D02*
X85571029Y-186578171D01*
X85213886Y-186578171D01*
X85071029Y-186506743D01*
X84999600Y-186363886D01*
X84999600Y-186221029D01*
X85071029Y-186078171D01*
X85213886Y-186006743D01*
X85571029Y-186006743D01*
X85713886Y-185935314D01*
X87071029Y-186578171D02*
X87071029Y-185078171D01*
X87071029Y-186506743D02*
X86928172Y-186578171D01*
X86642458Y-186578171D01*
X86499600Y-186506743D01*
X86428172Y-186435314D01*
X86356743Y-186292457D01*
X86356743Y-185863886D01*
X86428172Y-185721029D01*
X86499600Y-185649600D01*
X86642458Y-185578171D01*
X86928172Y-185578171D01*
X87071029Y-185649600D01*
X88928172Y-185792457D02*
X89428172Y-185792457D01*
X89642458Y-186578171D02*
X88928172Y-186578171D01*
X88928172Y-185078171D01*
X89642458Y-185078171D01*
X90285315Y-186435314D02*
X90356743Y-186506743D01*
X90285315Y-186578171D01*
X90213886Y-186506743D01*
X90285315Y-186435314D01*
X90285315Y-186578171D01*
X90999601Y-186578171D02*
X90999601Y-185078171D01*
X91356744Y-185078171D01*
X91571029Y-185149600D01*
X91713887Y-185292457D01*
X91785315Y-185435314D01*
X91856744Y-185721029D01*
X91856744Y-185935314D01*
X91785315Y-186221029D01*
X91713887Y-186363886D01*
X91571029Y-186506743D01*
X91356744Y-186578171D01*
X90999601Y-186578171D01*
X92499601Y-186435314D02*
X92571029Y-186506743D01*
X92499601Y-186578171D01*
X92428172Y-186506743D01*
X92499601Y-186435314D01*
X92499601Y-186578171D01*
X93142458Y-186149600D02*
X93856744Y-186149600D01*
X92999601Y-186578171D02*
X93499601Y-185078171D01*
X93999601Y-186578171D01*
X94499601Y-186435314D02*
X94571029Y-186506743D01*
X94499601Y-186578171D01*
X94428172Y-186506743D01*
X94499601Y-186435314D01*
X94499601Y-186578171D01*
X97499601Y-186578171D02*
X97499601Y-185078171D01*
X97642458Y-186006743D02*
X98071029Y-186578171D01*
X98071029Y-185578171D02*
X97499601Y-186149600D01*
X98713887Y-186578171D02*
X98713887Y-185578171D01*
X98713887Y-185078171D02*
X98642458Y-185149600D01*
X98713887Y-185221029D01*
X98785315Y-185149600D01*
X98713887Y-185078171D01*
X98713887Y-185221029D01*
X100071030Y-186506743D02*
X99928173Y-186578171D01*
X99642459Y-186578171D01*
X99499601Y-186506743D01*
X99428173Y-186435314D01*
X99356744Y-186292457D01*
X99356744Y-185863886D01*
X99428173Y-185721029D01*
X99499601Y-185649600D01*
X99642459Y-185578171D01*
X99928173Y-185578171D01*
X100071030Y-185649600D01*
X101356744Y-186578171D02*
X101356744Y-185792457D01*
X101285315Y-185649600D01*
X101142458Y-185578171D01*
X100856744Y-185578171D01*
X100713887Y-185649600D01*
X101356744Y-186506743D02*
X101213887Y-186578171D01*
X100856744Y-186578171D01*
X100713887Y-186506743D01*
X100642458Y-186363886D01*
X100642458Y-186221029D01*
X100713887Y-186078171D01*
X100856744Y-186006743D01*
X101213887Y-186006743D01*
X101356744Y-185935314D01*
X102713887Y-186578171D02*
X102713887Y-185078171D01*
X102713887Y-186506743D02*
X102571030Y-186578171D01*
X102285316Y-186578171D01*
X102142458Y-186506743D01*
X102071030Y-186435314D01*
X101999601Y-186292457D01*
X101999601Y-185863886D01*
X102071030Y-185721029D01*
X102142458Y-185649600D01*
X102285316Y-185578171D01*
X102571030Y-185578171D01*
X102713887Y-185649600D01*
X105213887Y-185578171D02*
X105213887Y-186578171D01*
X104856744Y-185006743D02*
X104499601Y-186078171D01*
X105428173Y-186078171D01*
X105999601Y-186435314D02*
X106071029Y-186506743D01*
X105999601Y-186578171D01*
X105928172Y-186506743D01*
X105999601Y-186435314D01*
X105999601Y-186578171D01*
X106999601Y-185078171D02*
X107142458Y-185078171D01*
X107285315Y-185149600D01*
X107356744Y-185221029D01*
X107428173Y-185363886D01*
X107499601Y-185649600D01*
X107499601Y-186006743D01*
X107428173Y-186292457D01*
X107356744Y-186435314D01*
X107285315Y-186506743D01*
X107142458Y-186578171D01*
X106999601Y-186578171D01*
X106856744Y-186506743D01*
X106785315Y-186435314D01*
X106713887Y-186292457D01*
X106642458Y-186006743D01*
X106642458Y-185649600D01*
X106713887Y-185363886D01*
X106785315Y-185221029D01*
X106856744Y-185149600D01*
X106999601Y-185078171D01*
X108142458Y-186435314D02*
X108213886Y-186506743D01*
X108142458Y-186578171D01*
X108071029Y-186506743D01*
X108142458Y-186435314D01*
X108142458Y-186578171D01*
X109571030Y-185078171D02*
X108856744Y-185078171D01*
X108785315Y-185792457D01*
X108856744Y-185721029D01*
X108999601Y-185649600D01*
X109356744Y-185649600D01*
X109499601Y-185721029D01*
X109571030Y-185792457D01*
X109642458Y-185935314D01*
X109642458Y-186292457D01*
X109571030Y-186435314D01*
X109499601Y-186506743D01*
X109356744Y-186578171D01*
X108999601Y-186578171D01*
X108856744Y-186506743D01*
X108785315Y-186435314D01*
D10*
D11*
X79999600Y-181499600D02*
X187999600Y-181499600D01*
D10*
D12*
X167213886Y-183778171D02*
X166713886Y-183063886D01*
X166356743Y-183778171D02*
X166356743Y-182278171D01*
X166928171Y-182278171D01*
X167071029Y-182349600D01*
X167142457Y-182421029D01*
X167213886Y-182563886D01*
X167213886Y-182778171D01*
X167142457Y-182921029D01*
X167071029Y-182992457D01*
X166928171Y-183063886D01*
X166356743Y-183063886D01*
X168428171Y-183706743D02*
X168285314Y-183778171D01*
X167999600Y-183778171D01*
X167856743Y-183706743D01*
X167785314Y-183563886D01*
X167785314Y-182992457D01*
X167856743Y-182849600D01*
X167999600Y-182778171D01*
X168285314Y-182778171D01*
X168428171Y-182849600D01*
X168499600Y-182992457D01*
X168499600Y-183135314D01*
X167785314Y-183278171D01*
X168999600Y-182778171D02*
X169356743Y-183778171D01*
X169713885Y-182778171D01*
X170285314Y-183635314D02*
X170356742Y-183706743D01*
X170285314Y-183778171D01*
X170213885Y-183706743D01*
X170285314Y-183635314D01*
X170285314Y-183778171D01*
X170285314Y-182849600D02*
X170356742Y-182921029D01*
X170285314Y-182992457D01*
X170213885Y-182921029D01*
X170285314Y-182849600D01*
X170285314Y-182992457D01*
D10*
D11*
X81285314Y-183706743D02*
X81499600Y-183778171D01*
X81856743Y-183778171D01*
X81999600Y-183706743D01*
X82071029Y-183635314D01*
X82142457Y-183492457D01*
X82142457Y-183349600D01*
X82071029Y-183206743D01*
X81999600Y-183135314D01*
X81856743Y-183063886D01*
X81571029Y-182992457D01*
X81428171Y-182921029D01*
X81356743Y-182849600D01*
X81285314Y-182706743D01*
X81285314Y-182563886D01*
X81356743Y-182421029D01*
X81428171Y-182349600D01*
X81571029Y-182278171D01*
X81928171Y-182278171D01*
X82142457Y-182349600D01*
X82785314Y-183778171D02*
X82785314Y-182778171D01*
X82785314Y-182278171D02*
X82713885Y-182349600D01*
X82785314Y-182421029D01*
X82856742Y-182349600D01*
X82785314Y-182278171D01*
X82785314Y-182421029D01*
X83356743Y-182778171D02*
X84142457Y-182778171D01*
X83356743Y-183778171D01*
X84142457Y-183778171D01*
X85285314Y-183706743D02*
X85142457Y-183778171D01*
X84856743Y-183778171D01*
X84713886Y-183706743D01*
X84642457Y-183563886D01*
X84642457Y-182992457D01*
X84713886Y-182849600D01*
X84856743Y-182778171D01*
X85142457Y-182778171D01*
X85285314Y-182849600D01*
X85356743Y-182992457D01*
X85356743Y-183135314D01*
X84642457Y-183278171D01*
X85999600Y-183635314D02*
X86071028Y-183706743D01*
X85999600Y-183778171D01*
X85928171Y-183706743D01*
X85999600Y-183635314D01*
X85999600Y-183778171D01*
X85999600Y-182849600D02*
X86071028Y-182921029D01*
X85999600Y-182992457D01*
X85928171Y-182921029D01*
X85999600Y-182849600D01*
X85999600Y-182992457D01*
X87856743Y-182278171D02*
X87856743Y-183492457D01*
X87928171Y-183635314D01*
X87999600Y-183706743D01*
X88142457Y-183778171D01*
X88428171Y-183778171D01*
X88571029Y-183706743D01*
X88642457Y-183635314D01*
X88713886Y-183492457D01*
X88713886Y-182278171D01*
X89356743Y-183706743D02*
X89499600Y-183778171D01*
X89785315Y-183778171D01*
X89928172Y-183706743D01*
X89999600Y-183563886D01*
X89999600Y-183492457D01*
X89928172Y-183349600D01*
X89785315Y-183278171D01*
X89571029Y-183278171D01*
X89428172Y-183206743D01*
X89356743Y-183063886D01*
X89356743Y-182992457D01*
X89428172Y-182849600D01*
X89571029Y-182778171D01*
X89785315Y-182778171D01*
X89928172Y-182849600D01*
X91213886Y-183706743D02*
X91071029Y-183778171D01*
X90785315Y-183778171D01*
X90642458Y-183706743D01*
X90571029Y-183563886D01*
X90571029Y-182992457D01*
X90642458Y-182849600D01*
X90785315Y-182778171D01*
X91071029Y-182778171D01*
X91213886Y-182849600D01*
X91285315Y-182992457D01*
X91285315Y-183135314D01*
X90571029Y-183278171D01*
X91928172Y-183778171D02*
X91928172Y-182778171D01*
X91928172Y-183063886D02*
X91999600Y-182921029D01*
X92071029Y-182849600D01*
X92213886Y-182778171D01*
X92356743Y-182778171D01*
D10*
D11*
X166356743Y-186578171D02*
X166356743Y-185078171D01*
X167713886Y-186578171D02*
X167713886Y-185078171D01*
X167713886Y-186506743D02*
X167571029Y-186578171D01*
X167285315Y-186578171D01*
X167142457Y-186506743D01*
X167071029Y-186435314D01*
X166999600Y-186292457D01*
X166999600Y-185863886D01*
X167071029Y-185721029D01*
X167142457Y-185649600D01*
X167285315Y-185578171D01*
X167571029Y-185578171D01*
X167713886Y-185649600D01*
X168428172Y-186435314D02*
X168499600Y-186506743D01*
X168428172Y-186578171D01*
X168356743Y-186506743D01*
X168428172Y-186435314D01*
X168428172Y-186578171D01*
X168428172Y-185649600D02*
X168499600Y-185721029D01*
X168428172Y-185792457D01*
X168356743Y-185721029D01*
X168428172Y-185649600D01*
X168428172Y-185792457D01*
X171071029Y-186578171D02*
X170213886Y-186578171D01*
X170642458Y-186578171D02*
X170642458Y-185078171D01*
X170499601Y-185292457D01*
X170356743Y-185435314D01*
X170213886Y-185506743D01*
X172785314Y-185006743D02*
X171499600Y-186935314D01*
X174071029Y-186578171D02*
X173213886Y-186578171D01*
X173642458Y-186578171D02*
X173642458Y-185078171D01*
X173499601Y-185292457D01*
X173356743Y-185435314D01*
X173213886Y-185506743D01*
D10*
D11*
X79999600Y-177499600D02*
X187999600Y-177499600D01*
D10*
D13*
X81451981Y-178204362D02*
X82594838Y-178204362D01*
X81773410Y-180204362D02*
X82023410Y-178204362D01*
X83011505Y-180204362D02*
X83178171Y-178871029D01*
X83261505Y-178204362D02*
X83154362Y-178299600D01*
X83237695Y-178394838D01*
X83344839Y-178299600D01*
X83261505Y-178204362D01*
X83237695Y-178394838D01*
X83844838Y-178871029D02*
X84606743Y-178871029D01*
X84213886Y-178204362D02*
X83999600Y-179918648D01*
X84071030Y-180109124D01*
X84249601Y-180204362D01*
X84440077Y-180204362D01*
X85392458Y-180204362D02*
X85213887Y-180109124D01*
X85142457Y-179918648D01*
X85356743Y-178204362D01*
X86928172Y-180109124D02*
X86725791Y-180204362D01*
X86344839Y-180204362D01*
X86166267Y-180109124D01*
X86094838Y-179918648D01*
X86190076Y-179156743D01*
X86309124Y-178966267D01*
X86511505Y-178871029D01*
X86892457Y-178871029D01*
X87071029Y-178966267D01*
X87142457Y-179156743D01*
X87118648Y-179347219D01*
X86142457Y-179537695D01*
X87892457Y-180013886D02*
X87975792Y-180109124D01*
X87868648Y-180204362D01*
X87785315Y-180109124D01*
X87892457Y-180013886D01*
X87868648Y-180204362D01*
X88023410Y-178966267D02*
X88106744Y-179061505D01*
X87999600Y-179156743D01*
X87916267Y-179061505D01*
X88023410Y-178966267D01*
X87999600Y-179156743D01*
D10*
D11*
X81856743Y-175592457D02*
X81356743Y-175592457D01*
X81356743Y-176378171D02*
X81356743Y-174878171D01*
X82071029Y-174878171D01*
X82642457Y-176378171D02*
X82642457Y-175378171D01*
X82642457Y-174878171D02*
X82571028Y-174949600D01*
X82642457Y-175021029D01*
X82713885Y-174949600D01*
X82642457Y-174878171D01*
X82642457Y-175021029D01*
X83571029Y-176378171D02*
X83428171Y-176306743D01*
X83356743Y-176163886D01*
X83356743Y-174878171D01*
X84713885Y-176306743D02*
X84571028Y-176378171D01*
X84285314Y-176378171D01*
X84142457Y-176306743D01*
X84071028Y-176163886D01*
X84071028Y-175592457D01*
X84142457Y-175449600D01*
X84285314Y-175378171D01*
X84571028Y-175378171D01*
X84713885Y-175449600D01*
X84785314Y-175592457D01*
X84785314Y-175735314D01*
X84071028Y-175878171D01*
X85428171Y-176235314D02*
X85499599Y-176306743D01*
X85428171Y-176378171D01*
X85356742Y-176306743D01*
X85428171Y-176235314D01*
X85428171Y-176378171D01*
X85428171Y-175449600D02*
X85499599Y-175521029D01*
X85428171Y-175592457D01*
X85356742Y-175521029D01*
X85428171Y-175449600D01*
X85428171Y-175592457D01*
X87285314Y-176378171D02*
X87285314Y-174878171D01*
X87285314Y-175592457D02*
X88142457Y-175592457D01*
X88142457Y-176378171D02*
X88142457Y-174878171D01*
X88856743Y-176378171D02*
X88856743Y-175378171D01*
X88856743Y-174878171D02*
X88785314Y-174949600D01*
X88856743Y-175021029D01*
X88928171Y-174949600D01*
X88856743Y-174878171D01*
X88856743Y-175021029D01*
X90213886Y-175378171D02*
X90213886Y-176592457D01*
X90142457Y-176735314D01*
X90071029Y-176806743D01*
X89928172Y-176878171D01*
X89713886Y-176878171D01*
X89571029Y-176806743D01*
X90213886Y-176306743D02*
X90071029Y-176378171D01*
X89785315Y-176378171D01*
X89642457Y-176306743D01*
X89571029Y-176235314D01*
X89499600Y-176092457D01*
X89499600Y-175663886D01*
X89571029Y-175521029D01*
X89642457Y-175449600D01*
X89785315Y-175378171D01*
X90071029Y-175378171D01*
X90213886Y-175449600D01*
X90928172Y-176378171D02*
X90928172Y-174878171D01*
X91571029Y-176378171D02*
X91571029Y-175592457D01*
X91499600Y-175449600D01*
X91356743Y-175378171D01*
X91142458Y-175378171D01*
X90999600Y-175449600D01*
X90928172Y-175521029D01*
X93428172Y-176378171D02*
X93428172Y-174878171D01*
X93999600Y-174878171D01*
X94142458Y-174949600D01*
X94213886Y-175021029D01*
X94285315Y-175163886D01*
X94285315Y-175378171D01*
X94213886Y-175521029D01*
X94142458Y-175592457D01*
X93999600Y-175663886D01*
X93428172Y-175663886D01*
X95142458Y-176378171D02*
X94999600Y-176306743D01*
X94928172Y-176235314D01*
X94856743Y-176092457D01*
X94856743Y-175663886D01*
X94928172Y-175521029D01*
X94999600Y-175449600D01*
X95142458Y-175378171D01*
X95356743Y-175378171D01*
X95499600Y-175449600D01*
X95571029Y-175521029D01*
X95642458Y-175663886D01*
X95642458Y-176092457D01*
X95571029Y-176235314D01*
X95499600Y-176306743D01*
X95356743Y-176378171D01*
X95142458Y-176378171D01*
X96142458Y-175378171D02*
X96428172Y-176378171D01*
X96713886Y-175663886D01*
X96999601Y-176378171D01*
X97285315Y-175378171D01*
X98428172Y-176306743D02*
X98285315Y-176378171D01*
X97999601Y-176378171D01*
X97856744Y-176306743D01*
X97785315Y-176163886D01*
X97785315Y-175592457D01*
X97856744Y-175449600D01*
X97999601Y-175378171D01*
X98285315Y-175378171D01*
X98428172Y-175449600D01*
X98499601Y-175592457D01*
X98499601Y-175735314D01*
X97785315Y-175878171D01*
X99142458Y-176378171D02*
X99142458Y-175378171D01*
X99142458Y-175663886D02*
X99213886Y-175521029D01*
X99285315Y-175449600D01*
X99428172Y-175378171D01*
X99571029Y-175378171D01*
X101142457Y-176306743D02*
X101356743Y-176378171D01*
X101713886Y-176378171D01*
X101856743Y-176306743D01*
X101928172Y-176235314D01*
X101999600Y-176092457D01*
X101999600Y-175949600D01*
X101928172Y-175806743D01*
X101856743Y-175735314D01*
X101713886Y-175663886D01*
X101428172Y-175592457D01*
X101285314Y-175521029D01*
X101213886Y-175449600D01*
X101142457Y-175306743D01*
X101142457Y-175163886D01*
X101213886Y-175021029D01*
X101285314Y-174949600D01*
X101428172Y-174878171D01*
X101785314Y-174878171D01*
X101999600Y-174949600D01*
X102499600Y-174878171D02*
X102856743Y-176378171D01*
X103142457Y-175306743D01*
X103428171Y-176378171D01*
X103785314Y-174878171D01*
X104356743Y-176235314D02*
X104428171Y-176306743D01*
X104356743Y-176378171D01*
X104285314Y-176306743D01*
X104356743Y-176235314D01*
X104356743Y-176378171D01*
X105071029Y-176378171D02*
X105071029Y-174878171D01*
X105213886Y-175806743D02*
X105642457Y-176378171D01*
X105642457Y-175378171D02*
X105071029Y-175949600D01*
X106285315Y-176378171D02*
X106285315Y-175378171D01*
X106285315Y-174878171D02*
X106213886Y-174949600D01*
X106285315Y-175021029D01*
X106356743Y-174949600D01*
X106285315Y-174878171D01*
X106285315Y-175021029D01*
X107642458Y-176306743D02*
X107499601Y-176378171D01*
X107213887Y-176378171D01*
X107071029Y-176306743D01*
X106999601Y-176235314D01*
X106928172Y-176092457D01*
X106928172Y-175663886D01*
X106999601Y-175521029D01*
X107071029Y-175449600D01*
X107213887Y-175378171D01*
X107499601Y-175378171D01*
X107642458Y-175449600D01*
X108928172Y-176378171D02*
X108928172Y-175592457D01*
X108856743Y-175449600D01*
X108713886Y-175378171D01*
X108428172Y-175378171D01*
X108285315Y-175449600D01*
X108928172Y-176306743D02*
X108785315Y-176378171D01*
X108428172Y-176378171D01*
X108285315Y-176306743D01*
X108213886Y-176163886D01*
X108213886Y-176021029D01*
X108285315Y-175878171D01*
X108428172Y-175806743D01*
X108785315Y-175806743D01*
X108928172Y-175735314D01*
X110285315Y-176378171D02*
X110285315Y-174878171D01*
X110285315Y-176306743D02*
X110142458Y-176378171D01*
X109856744Y-176378171D01*
X109713886Y-176306743D01*
X109642458Y-176235314D01*
X109571029Y-176092457D01*
X109571029Y-175663886D01*
X109642458Y-175521029D01*
X109713886Y-175449600D01*
X109856744Y-175378171D01*
X110142458Y-175378171D01*
X110285315Y-175449600D01*
X110642458Y-176521029D02*
X111785315Y-176521029D01*
X112142458Y-175378171D02*
X112142458Y-176878171D01*
X112142458Y-175449600D02*
X112285315Y-175378171D01*
X112571029Y-175378171D01*
X112713886Y-175449600D01*
X112785315Y-175521029D01*
X112856744Y-175663886D01*
X112856744Y-176092457D01*
X112785315Y-176235314D01*
X112713886Y-176306743D01*
X112571029Y-176378171D01*
X112285315Y-176378171D01*
X112142458Y-176306743D01*
X114142458Y-176306743D02*
X113999601Y-176378171D01*
X113713887Y-176378171D01*
X113571029Y-176306743D01*
X113499601Y-176235314D01*
X113428172Y-176092457D01*
X113428172Y-175663886D01*
X113499601Y-175521029D01*
X113571029Y-175449600D01*
X113713887Y-175378171D01*
X113999601Y-175378171D01*
X114142458Y-175449600D01*
X114785315Y-176378171D02*
X114785315Y-174878171D01*
X114785315Y-175449600D02*
X114928172Y-175378171D01*
X115213886Y-175378171D01*
X115356743Y-175449600D01*
X115428172Y-175521029D01*
X115499601Y-175663886D01*
X115499601Y-176092457D01*
X115428172Y-176235314D01*
X115356743Y-176306743D01*
X115213886Y-176378171D01*
X114928172Y-176378171D01*
X114785315Y-176306743D01*
D10*
D11*
X79999600Y-171499600D02*
X187999600Y-171499600D01*
D10*
D11*
X81285314Y-173606743D02*
X81499600Y-173678171D01*
X81856743Y-173678171D01*
X81999600Y-173606743D01*
X82071029Y-173535314D01*
X82142457Y-173392457D01*
X82142457Y-173249600D01*
X82071029Y-173106743D01*
X81999600Y-173035314D01*
X81856743Y-172963886D01*
X81571029Y-172892457D01*
X81428171Y-172821029D01*
X81356743Y-172749600D01*
X81285314Y-172606743D01*
X81285314Y-172463886D01*
X81356743Y-172321029D01*
X81428171Y-172249600D01*
X81571029Y-172178171D01*
X81928171Y-172178171D01*
X82142457Y-172249600D01*
X82785314Y-173678171D02*
X82785314Y-172178171D01*
X83428171Y-173678171D02*
X83428171Y-172892457D01*
X83356742Y-172749600D01*
X83213885Y-172678171D01*
X82999600Y-172678171D01*
X82856742Y-172749600D01*
X82785314Y-172821029D01*
X84713885Y-173606743D02*
X84571028Y-173678171D01*
X84285314Y-173678171D01*
X84142457Y-173606743D01*
X84071028Y-173463886D01*
X84071028Y-172892457D01*
X84142457Y-172749600D01*
X84285314Y-172678171D01*
X84571028Y-172678171D01*
X84713885Y-172749600D01*
X84785314Y-172892457D01*
X84785314Y-173035314D01*
X84071028Y-173178171D01*
X85999599Y-173606743D02*
X85856742Y-173678171D01*
X85571028Y-173678171D01*
X85428171Y-173606743D01*
X85356742Y-173463886D01*
X85356742Y-172892457D01*
X85428171Y-172749600D01*
X85571028Y-172678171D01*
X85856742Y-172678171D01*
X85999599Y-172749600D01*
X86071028Y-172892457D01*
X86071028Y-173035314D01*
X85356742Y-173178171D01*
X86499599Y-172678171D02*
X87071028Y-172678171D01*
X86713885Y-172178171D02*
X86713885Y-173463886D01*
X86785313Y-173606743D01*
X86928171Y-173678171D01*
X87071028Y-173678171D01*
X87571028Y-173535314D02*
X87642456Y-173606743D01*
X87571028Y-173678171D01*
X87499599Y-173606743D01*
X87571028Y-173535314D01*
X87571028Y-173678171D01*
X87571028Y-172749600D02*
X87642456Y-172821029D01*
X87571028Y-172892457D01*
X87499599Y-172821029D01*
X87571028Y-172749600D01*
X87571028Y-172892457D01*
D10*
D11*
X99999600Y-181499600D02*
X99999600Y-184499600D01*
D10*
D11*
X163999600Y-181499600D02*
X163999600Y-187999600D01*
X67100000Y-102900000D02*
X67100000Y-134900000D01*
X115100000Y-102900000D02*
X67100000Y-102900000D01*
X115100000Y-134900000D02*
X115100000Y-102900000D01*
X68766666Y-134900000D02*
G75*
G03X68766666Y-134900000I-1666666J0D01*
G01*
X64600000Y-134900000D02*
X69600000Y-134900000D01*
X67100000Y-132400000D02*
X67100000Y-137400000D01*
X115100000Y-134900000D02*
X67100000Y-134900000D01*
X68766666Y-134900000D02*
G75*
G03X68766666Y-134900000I-1666666J0D01*
G01*
X64600000Y-134900000D02*
X69600000Y-134900000D01*
X67100000Y-132400000D02*
X67100000Y-137400000D01*
D10*
X81297619Y-117154762D02*
X81160715Y-117202381D01*
X80922619Y-117202381D01*
X80821428Y-117154762D01*
X80767857Y-117107143D01*
X80708333Y-117011905D01*
X80696428Y-116916667D01*
X80732143Y-116821429D01*
X80773809Y-116773810D01*
X80863095Y-116726190D01*
X81047619Y-116678571D01*
X81136905Y-116630952D01*
X81178572Y-116583333D01*
X81214286Y-116488095D01*
X81202381Y-116392857D01*
X81142857Y-116297619D01*
X81089286Y-116250000D01*
X80988096Y-116202381D01*
X80750000Y-116202381D01*
X80613095Y-116250000D01*
X80303572Y-117202381D02*
X80220238Y-116535714D01*
X80232143Y-116630952D02*
X80178572Y-116583333D01*
X80077381Y-116535714D01*
X79934523Y-116535714D01*
X79845238Y-116583333D01*
X79809523Y-116678571D01*
X79875000Y-117202381D01*
X79809523Y-116678571D02*
X79750000Y-116583333D01*
X79648809Y-116535714D01*
X79505952Y-116535714D01*
X79416667Y-116583333D01*
X79380952Y-116678571D01*
X79446429Y-117202381D01*
X78541667Y-117202381D02*
X78476190Y-116678571D01*
X78511905Y-116583333D01*
X78601190Y-116535714D01*
X78791667Y-116535714D01*
X78892858Y-116583333D01*
X78535714Y-117154762D02*
X78636905Y-117202381D01*
X78875001Y-117202381D01*
X78964286Y-117154762D01*
X79000000Y-117059524D01*
X78988096Y-116964286D01*
X78928572Y-116869048D01*
X78827382Y-116821429D01*
X78589286Y-116821429D01*
X78488095Y-116773810D01*
X77922620Y-117202381D02*
X78011905Y-117154762D01*
X78047619Y-117059524D01*
X77940477Y-116202381D01*
X77398810Y-117202381D02*
X77488095Y-117154762D01*
X77523809Y-117059524D01*
X77416667Y-116202381D01*
X76255952Y-117202381D02*
X76130952Y-116202381D01*
X75892857Y-116202381D01*
X75755951Y-116250000D01*
X75672618Y-116345238D01*
X75636903Y-116440476D01*
X75613094Y-116630952D01*
X75630951Y-116773810D01*
X75702380Y-116964286D01*
X75761903Y-117059524D01*
X75869046Y-117154762D01*
X76017857Y-117202381D01*
X76255952Y-117202381D01*
X75255952Y-117202381D02*
X75172618Y-116535714D01*
X75196428Y-116726190D02*
X75136904Y-116630952D01*
X75083333Y-116583333D01*
X74982142Y-116535714D01*
X74886903Y-116535714D01*
X74636904Y-117202381D02*
X74553570Y-116535714D01*
X74511904Y-116202381D02*
X74565475Y-116250000D01*
X74523808Y-116297619D01*
X74470237Y-116250000D01*
X74511904Y-116202381D01*
X74523808Y-116297619D01*
X74172618Y-116535714D02*
X74017857Y-117202381D01*
X73696427Y-116535714D01*
X73011903Y-117154762D02*
X73113094Y-117202381D01*
X73303571Y-117202381D01*
X73392856Y-117154762D01*
X73428570Y-117059524D01*
X73380951Y-116678571D01*
X73321428Y-116583333D01*
X73220237Y-116535714D01*
X73029760Y-116535714D01*
X72940475Y-116583333D01*
X72904760Y-116678571D01*
X72916665Y-116773810D01*
X73404761Y-116869048D01*
X72541666Y-117202381D02*
X72458332Y-116535714D01*
X72482142Y-116726190D02*
X72422618Y-116630952D01*
X72369047Y-116583333D01*
X72267856Y-116535714D01*
X72172617Y-116535714D01*
D14*
X81133928Y-115178571D02*
X80946428Y-113678571D01*
X80589285Y-113678571D01*
X80383929Y-113750000D01*
X80258928Y-113892857D01*
X80205357Y-114035714D01*
X80169643Y-114321429D01*
X80196428Y-114535714D01*
X80303572Y-114821429D01*
X80392857Y-114964286D01*
X80553572Y-115107143D01*
X80776785Y-115178571D01*
X81133928Y-115178571D01*
X79633928Y-115178571D02*
X79508928Y-114178571D01*
X79446428Y-113678571D02*
X79526786Y-113750000D01*
X79464286Y-113821429D01*
X79383929Y-113750000D01*
X79446428Y-113678571D01*
X79464286Y-113821429D01*
X78151785Y-114178571D02*
X78303571Y-115392857D01*
X78392857Y-115535714D01*
X78473214Y-115607143D01*
X78624999Y-115678571D01*
X78839285Y-115678571D01*
X78973214Y-115607143D01*
X78267857Y-115107143D02*
X78419642Y-115178571D01*
X78705356Y-115178571D01*
X78839286Y-115107143D01*
X78901785Y-115035714D01*
X78955357Y-114892857D01*
X78901786Y-114464286D01*
X78812500Y-114321429D01*
X78732143Y-114250000D01*
X78580356Y-114178571D01*
X78294642Y-114178571D01*
X78160714Y-114250000D01*
X77562499Y-115178571D02*
X77437499Y-114178571D01*
X77374999Y-113678571D02*
X77455357Y-113750000D01*
X77392857Y-113821429D01*
X77312500Y-113750000D01*
X77374999Y-113678571D01*
X77392857Y-113821429D01*
X76937499Y-114178571D02*
X76366070Y-114178571D01*
X76660713Y-113678571D02*
X76821428Y-114964286D01*
X76767857Y-115107143D01*
X76633927Y-115178571D01*
X76491070Y-115178571D01*
X75348213Y-115178571D02*
X75249999Y-114392857D01*
X75303571Y-114250000D01*
X75437499Y-114178571D01*
X75723213Y-114178571D01*
X75874999Y-114250000D01*
X75339285Y-115107143D02*
X75491070Y-115178571D01*
X75848213Y-115178571D01*
X75982142Y-115107143D01*
X76035714Y-114964286D01*
X76017857Y-114821429D01*
X75928570Y-114678571D01*
X75776785Y-114607143D01*
X75419642Y-114607143D01*
X75267856Y-114535714D01*
X74419641Y-115178571D02*
X74553571Y-115107143D01*
X74607142Y-114964286D01*
X74446427Y-113678571D01*
X72767857Y-115107143D02*
X72562499Y-115178571D01*
X72205356Y-115178571D01*
X72053571Y-115107143D01*
X71973213Y-115035714D01*
X71883928Y-114892857D01*
X71866071Y-114750000D01*
X71919642Y-114607143D01*
X71982142Y-114535714D01*
X72116071Y-114464286D01*
X72392856Y-114392857D01*
X72526786Y-114321429D01*
X72589285Y-114250000D01*
X72642857Y-114107143D01*
X72625000Y-113964286D01*
X72535714Y-113821429D01*
X72455357Y-113750000D01*
X72303570Y-113678571D01*
X71946428Y-113678571D01*
X71741071Y-113750000D01*
X70508928Y-114178571D02*
X70696428Y-115678571D01*
X70625000Y-115107143D02*
X70776785Y-115178571D01*
X71062499Y-115178571D01*
X71196429Y-115107143D01*
X71258928Y-115035714D01*
X71312500Y-114892857D01*
X71258929Y-114464286D01*
X71169643Y-114321429D01*
X71089286Y-114250000D01*
X70937499Y-114178571D01*
X70651785Y-114178571D01*
X70517857Y-114250000D01*
X69919642Y-115178571D02*
X69794642Y-114178571D01*
X69830357Y-114464286D02*
X69741072Y-114321429D01*
X69660714Y-114250000D01*
X69508928Y-114178571D01*
X69366071Y-114178571D01*
X69080357Y-114178571D02*
X68508928Y-114178571D01*
X68803571Y-113678571D02*
X68964286Y-114964286D01*
X68910715Y-115107143D01*
X68776785Y-115178571D01*
X68633928Y-115178571D01*
D11*
X100754762Y-105102381D02*
X100421429Y-106102381D01*
X100088095Y-105102381D01*
X99373809Y-106054762D02*
X99469047Y-106102381D01*
X99659524Y-106102381D01*
X99754762Y-106054762D01*
X99802381Y-105959524D01*
X99802381Y-105578571D01*
X99754762Y-105483333D01*
X99659524Y-105435714D01*
X99469047Y-105435714D01*
X99373809Y-105483333D01*
X99326190Y-105578571D01*
X99326190Y-105673810D01*
X99802381Y-105769048D01*
X98897619Y-106102381D02*
X98897619Y-105435714D01*
X98897619Y-105626190D02*
X98850000Y-105530952D01*
X98802381Y-105483333D01*
X98707143Y-105435714D01*
X98611904Y-105435714D01*
X96992856Y-106102381D02*
X97564285Y-106102381D01*
X97278571Y-106102381D02*
X97278571Y-105102381D01*
X97373809Y-105245238D01*
X97469047Y-105340476D01*
X97564285Y-105388095D01*
X96564285Y-106007143D02*
X96516666Y-106054762D01*
X96564285Y-106102381D01*
X96611904Y-106054762D01*
X96564285Y-106007143D01*
X96564285Y-106102381D01*
X96183333Y-105102381D02*
X95516666Y-105102381D01*
X95945238Y-106102381D01*
D15*
G36*
X85984108Y-106118270D02*
X85568289Y-106156540D01*
X85172299Y-106205770D01*
X84891246Y-106256918D01*
X84671656Y-106329539D01*
X84460055Y-106443188D01*
X84202967Y-106617419D01*
X84092509Y-106696214D01*
X83737936Y-106943396D01*
X83362037Y-107194817D01*
X83037453Y-107402053D01*
X82993243Y-107429019D01*
X82547158Y-107778177D01*
X82145202Y-108239795D01*
X81831405Y-108756999D01*
X81690867Y-109111354D01*
X81595918Y-109548805D01*
X81534303Y-110086308D01*
X81509177Y-110657295D01*
X81523697Y-111195195D01*
X81573105Y-111595149D01*
X81676259Y-111967945D01*
X81834149Y-112376918D01*
X81967453Y-112648956D01*
X82116137Y-112925380D01*
X82186254Y-113095784D01*
X82187351Y-113198745D01*
X82128978Y-113272844D01*
X82123101Y-113277789D01*
X81905109Y-113557469D01*
X81774499Y-113936784D01*
X81747139Y-114222296D01*
X81797781Y-114749778D01*
X81954176Y-115148093D01*
X82225345Y-115426431D01*
X82620309Y-115593977D01*
X83148087Y-115659919D01*
X83158959Y-115660234D01*
X83502041Y-115682842D01*
X83768751Y-115744444D01*
X84040188Y-115869455D01*
X84240232Y-115985766D01*
X85203089Y-116495548D01*
X86313163Y-116950923D01*
X87555432Y-117345971D01*
X87981888Y-117459561D01*
X88300916Y-117536968D01*
X88520366Y-117572607D01*
X88703958Y-117569511D01*
X88915413Y-117530714D01*
X89010842Y-117508540D01*
X89229381Y-117416992D01*
X89500030Y-117250264D01*
X89688907Y-117106065D01*
X89939083Y-116913287D01*
X90171621Y-116764185D01*
X90298732Y-116704869D01*
X90576441Y-116579991D01*
X90919532Y-116370504D01*
X91276608Y-116113950D01*
X91596275Y-115847875D01*
X91827135Y-115609822D01*
X91862631Y-115562457D01*
X92015724Y-115294499D01*
X92090857Y-115012543D01*
X92096968Y-114928625D01*
X91835788Y-114928625D01*
X91694370Y-115361324D01*
X91655470Y-115428464D01*
X91483780Y-115625688D01*
X91208076Y-115859974D01*
X90877641Y-116096452D01*
X90541758Y-116300255D01*
X90249710Y-116436515D01*
X90213333Y-116448783D01*
X90032694Y-116541254D01*
X89793419Y-116708151D01*
X89628838Y-116842992D01*
X89375105Y-117051231D01*
X89143961Y-117193564D01*
X88904825Y-117271840D01*
X88627119Y-117287908D01*
X88280262Y-117243618D01*
X87833674Y-117140817D01*
X87271388Y-116985548D01*
X86743236Y-116819202D01*
X86200312Y-116621830D01*
X85666328Y-116404868D01*
X85164996Y-116179753D01*
X84720028Y-115957924D01*
X84355136Y-115750817D01*
X84094033Y-115569870D01*
X83960430Y-115426520D01*
X83948000Y-115382540D01*
X83877825Y-115326473D01*
X83715167Y-115350094D01*
X83357622Y-115398601D01*
X82970262Y-115376585D01*
X82603975Y-115294805D01*
X82309649Y-115164018D01*
X82152372Y-115019749D01*
X82108355Y-114887154D01*
X82061188Y-114649705D01*
X82036664Y-114480272D01*
X82032748Y-114012509D01*
X82151117Y-113658073D01*
X82390730Y-113419813D01*
X82431721Y-113397007D01*
X82717751Y-113292112D01*
X82994640Y-113301181D01*
X83323568Y-113427387D01*
X83358706Y-113445054D01*
X83557784Y-113529627D01*
X83677932Y-113547892D01*
X83694000Y-113529721D01*
X83776542Y-113492629D01*
X84016137Y-113465287D01*
X84400734Y-113448572D01*
X84879333Y-113443334D01*
X86064667Y-113443334D01*
X86064667Y-114054266D01*
X86932500Y-113998381D01*
X87433777Y-113964500D01*
X87790547Y-113932634D01*
X88027356Y-113895068D01*
X88168750Y-113844087D01*
X88239274Y-113771978D01*
X88263476Y-113671026D01*
X88266000Y-113579288D01*
X88291746Y-113384508D01*
X88399172Y-113255599D01*
X88573959Y-113158508D01*
X88911079Y-113057466D01*
X89124292Y-113064887D01*
X89302348Y-113136647D01*
X89363353Y-113283341D01*
X89366667Y-113365394D01*
X89381935Y-113527488D01*
X89460941Y-113596308D01*
X89653483Y-113610229D01*
X89684167Y-113610053D01*
X90030132Y-113594027D01*
X90403504Y-113555826D01*
X90762286Y-113502402D01*
X91064478Y-113440708D01*
X91268081Y-113377696D01*
X91328678Y-113337816D01*
X91383951Y-113289697D01*
X91397370Y-113372020D01*
X91435444Y-113520166D01*
X91532510Y-113757320D01*
X91630906Y-113960004D01*
X91814588Y-114458792D01*
X91835788Y-114928625D01*
X92096968Y-114928625D01*
X92111726Y-114725983D01*
X92137711Y-114398186D01*
X92208731Y-114168408D01*
X92343874Y-113969715D01*
X92516455Y-113697195D01*
X92618213Y-113400268D01*
X92632062Y-113199975D01*
X92326020Y-113199975D01*
X92317710Y-113411488D01*
X92250865Y-113645685D01*
X92143717Y-113843822D01*
X92014500Y-113947153D01*
X91983998Y-113951334D01*
X91974069Y-113893199D01*
X92052574Y-113748999D01*
X92084579Y-113703838D01*
X92221068Y-113421954D01*
X92221661Y-113401569D01*
X91958865Y-113401569D01*
X91902702Y-113547818D01*
X91812942Y-113612667D01*
X91750875Y-113541894D01*
X91737333Y-113448330D01*
X91775693Y-113289563D01*
X91860810Y-113217580D01*
X91943425Y-113264979D01*
X91958865Y-113401569D01*
X92221661Y-113401569D01*
X92226344Y-113240733D01*
X92219197Y-113098137D01*
X92257564Y-113069892D01*
X92326020Y-113199975D01*
X92632062Y-113199975D01*
X92636683Y-113133146D01*
X92578823Y-112977667D01*
X92076000Y-112977667D01*
X92033667Y-113020000D01*
X91991333Y-112977667D01*
X92033667Y-112935334D01*
X92076000Y-112977667D01*
X92578823Y-112977667D01*
X92574614Y-112966357D01*
X92439865Y-112862804D01*
X91890809Y-112862804D01*
X91873773Y-112910208D01*
X91784651Y-112980360D01*
X91636252Y-113083938D01*
X91577939Y-113080674D01*
X91568000Y-112977667D01*
X91640091Y-112875475D01*
X91758500Y-112853360D01*
X91890809Y-112862804D01*
X92439865Y-112862804D01*
X92403958Y-112835210D01*
X92146064Y-112707492D01*
X91880100Y-112617978D01*
X91732925Y-112596667D01*
X91654013Y-112584674D01*
X91632012Y-112524902D01*
X91669990Y-112381658D01*
X91771016Y-112119251D01*
X91774785Y-112109834D01*
X91974340Y-111440419D01*
X92013885Y-110945667D01*
X91749910Y-110945667D01*
X91726382Y-111202634D01*
X91672210Y-111499554D01*
X91597045Y-111807174D01*
X91510536Y-112096245D01*
X91422334Y-112337515D01*
X91342089Y-112501733D01*
X91279451Y-112559647D01*
X91244071Y-112482007D01*
X91243805Y-112479733D01*
X91215944Y-112235800D01*
X90483621Y-112295220D01*
X90008698Y-112336691D01*
X89677471Y-112375825D01*
X89464573Y-112419855D01*
X89344636Y-112476013D01*
X89292294Y-112551533D01*
X89282000Y-112637843D01*
X89250070Y-112776032D01*
X89122641Y-112795879D01*
X89084675Y-112789464D01*
X88879701Y-112797213D01*
X88622396Y-112864117D01*
X88566335Y-112885872D01*
X88335679Y-112980315D01*
X88222162Y-113001307D01*
X88184479Y-112935140D01*
X88181326Y-112768106D01*
X88181333Y-112758099D01*
X88181333Y-112496197D01*
X87355833Y-112551363D01*
X86863452Y-112586151D01*
X86515236Y-112618986D01*
X86286286Y-112657403D01*
X86151700Y-112708935D01*
X86086578Y-112781120D01*
X86066019Y-112881490D01*
X86064667Y-112942061D01*
X86064667Y-113189334D01*
X83768291Y-113189334D01*
X83821736Y-112829500D01*
X83827351Y-112490053D01*
X83766650Y-112004171D01*
X83685002Y-111580667D01*
X83574413Y-111014005D01*
X83519473Y-110567492D01*
X83524384Y-110199950D01*
X83593351Y-109870197D01*
X83730579Y-109537054D01*
X83930535Y-109175663D01*
X84185525Y-108786423D01*
X84424628Y-108494581D01*
X84604167Y-108341799D01*
X84810466Y-108205395D01*
X84860045Y-108131088D01*
X84750786Y-108111897D01*
X84540667Y-108132462D01*
X84329416Y-108155793D01*
X84211133Y-108159145D01*
X84202000Y-108155125D01*
X84276219Y-108064129D01*
X84472063Y-107942150D01*
X84749314Y-107808007D01*
X85067755Y-107680522D01*
X85387167Y-107578515D01*
X85488578Y-107553042D01*
X86140155Y-107403202D01*
X87003800Y-107735101D01*
X87409773Y-107897747D01*
X87691813Y-108031356D01*
X87887332Y-108158301D01*
X88033739Y-108300953D01*
X88107607Y-108395202D01*
X88258055Y-108583904D01*
X88347097Y-108642914D01*
X88399599Y-108588250D01*
X88401151Y-108584290D01*
X88427696Y-108393756D01*
X88414341Y-108234921D01*
X88416538Y-108067728D01*
X88497779Y-108024667D01*
X88739585Y-108084478D01*
X89055667Y-108249276D01*
X89408225Y-108497111D01*
X89623998Y-108678740D01*
X89847141Y-108876488D01*
X89972764Y-108970854D01*
X90028878Y-108972103D01*
X90043497Y-108890499D01*
X90044000Y-108832642D01*
X89980065Y-108515979D01*
X89782843Y-108153155D01*
X89444214Y-107729828D01*
X89378776Y-107658123D01*
X89177649Y-107438578D01*
X89085554Y-107326174D01*
X89095676Y-107304550D01*
X89201198Y-107357345D01*
X89269693Y-107396266D01*
X89502945Y-107557621D01*
X89691964Y-107733482D01*
X89705211Y-107749500D01*
X89839932Y-107887894D01*
X89935112Y-107940000D01*
X90074365Y-108002888D01*
X90286889Y-108172739D01*
X90543978Y-108421332D01*
X90816926Y-108720448D01*
X91077026Y-109041866D01*
X91133647Y-109118225D01*
X91450246Y-109608128D01*
X91645117Y-110060011D01*
X91737220Y-110530092D01*
X91749910Y-110945667D01*
X92013885Y-110945667D01*
X92027998Y-110769102D01*
X91938446Y-110052759D01*
X91910670Y-109929667D01*
X91749315Y-109252334D01*
X91995047Y-109548667D01*
X92143294Y-109739739D01*
X92232060Y-109877831D01*
X92243056Y-109908500D01*
X92311616Y-109969210D01*
X92339179Y-109972000D01*
X92392866Y-109907275D01*
X92376565Y-109748328D01*
X92304227Y-109548004D01*
X92189803Y-109359146D01*
X92171539Y-109337000D01*
X91987202Y-109112766D01*
X91904900Y-108989785D01*
X91927352Y-108976379D01*
X92057278Y-109080865D01*
X92100853Y-109120776D01*
X92298601Y-109278597D01*
X92401153Y-109304775D01*
X92405359Y-109209797D01*
X92308066Y-109004151D01*
X92191314Y-108819648D01*
X91836959Y-108326564D01*
X91510298Y-107950054D01*
X91168662Y-107652674D01*
X90769381Y-107396976D01*
X90299321Y-107159274D01*
X89884774Y-106974155D01*
X89467471Y-106802461D01*
X89104320Y-106666897D01*
X88909321Y-106604685D01*
X88407001Y-106465027D01*
X88675167Y-106355604D01*
X88854719Y-106275579D01*
X88941790Y-106223492D01*
X88943333Y-106220060D01*
X88865246Y-106207991D01*
X88657292Y-106198631D01*
X88358935Y-106193508D01*
X88244833Y-106193005D01*
X87820610Y-106183394D01*
X87372836Y-106159054D01*
X86996640Y-106125195D01*
X86988345Y-106124195D01*
X86535929Y-106099761D01*
X85984108Y-106118270D01*
X85984108Y-106118270D01*
G37*
X85984108Y-106118270D02*
X85568289Y-106156540D01*
X85172299Y-106205770D01*
X84891246Y-106256918D01*
X84671656Y-106329539D01*
X84460055Y-106443188D01*
X84202967Y-106617419D01*
X84092509Y-106696214D01*
X83737936Y-106943396D01*
X83362037Y-107194817D01*
X83037453Y-107402053D01*
X82993243Y-107429019D01*
X82547158Y-107778177D01*
X82145202Y-108239795D01*
X81831405Y-108756999D01*
X81690867Y-109111354D01*
X81595918Y-109548805D01*
X81534303Y-110086308D01*
X81509177Y-110657295D01*
X81523697Y-111195195D01*
X81573105Y-111595149D01*
X81676259Y-111967945D01*
X81834149Y-112376918D01*
X81967453Y-112648956D01*
X82116137Y-112925380D01*
X82186254Y-113095784D01*
X82187351Y-113198745D01*
X82128978Y-113272844D01*
X82123101Y-113277789D01*
X81905109Y-113557469D01*
X81774499Y-113936784D01*
X81747139Y-114222296D01*
X81797781Y-114749778D01*
X81954176Y-115148093D01*
X82225345Y-115426431D01*
X82620309Y-115593977D01*
X83148087Y-115659919D01*
X83158959Y-115660234D01*
X83502041Y-115682842D01*
X83768751Y-115744444D01*
X84040188Y-115869455D01*
X84240232Y-115985766D01*
X85203089Y-116495548D01*
X86313163Y-116950923D01*
X87555432Y-117345971D01*
X87981888Y-117459561D01*
X88300916Y-117536968D01*
X88520366Y-117572607D01*
X88703958Y-117569511D01*
X88915413Y-117530714D01*
X89010842Y-117508540D01*
X89229381Y-117416992D01*
X89500030Y-117250264D01*
X89688907Y-117106065D01*
X89939083Y-116913287D01*
X90171621Y-116764185D01*
X90298732Y-116704869D01*
X90576441Y-116579991D01*
X90919532Y-116370504D01*
X91276608Y-116113950D01*
X91596275Y-115847875D01*
X91827135Y-115609822D01*
X91862631Y-115562457D01*
X92015724Y-115294499D01*
X92090857Y-115012543D01*
X92096968Y-114928625D01*
X91835788Y-114928625D01*
X91694370Y-115361324D01*
X91655470Y-115428464D01*
X91483780Y-115625688D01*
X91208076Y-115859974D01*
X90877641Y-116096452D01*
X90541758Y-116300255D01*
X90249710Y-116436515D01*
X90213333Y-116448783D01*
X90032694Y-116541254D01*
X89793419Y-116708151D01*
X89628838Y-116842992D01*
X89375105Y-117051231D01*
X89143961Y-117193564D01*
X88904825Y-117271840D01*
X88627119Y-117287908D01*
X88280262Y-117243618D01*
X87833674Y-117140817D01*
X87271388Y-116985548D01*
X86743236Y-116819202D01*
X86200312Y-116621830D01*
X85666328Y-116404868D01*
X85164996Y-116179753D01*
X84720028Y-115957924D01*
X84355136Y-115750817D01*
X84094033Y-115569870D01*
X83960430Y-115426520D01*
X83948000Y-115382540D01*
X83877825Y-115326473D01*
X83715167Y-115350094D01*
X83357622Y-115398601D01*
X82970262Y-115376585D01*
X82603975Y-115294805D01*
X82309649Y-115164018D01*
X82152372Y-115019749D01*
X82108355Y-114887154D01*
X82061188Y-114649705D01*
X82036664Y-114480272D01*
X82032748Y-114012509D01*
X82151117Y-113658073D01*
X82390730Y-113419813D01*
X82431721Y-113397007D01*
X82717751Y-113292112D01*
X82994640Y-113301181D01*
X83323568Y-113427387D01*
X83358706Y-113445054D01*
X83557784Y-113529627D01*
X83677932Y-113547892D01*
X83694000Y-113529721D01*
X83776542Y-113492629D01*
X84016137Y-113465287D01*
X84400734Y-113448572D01*
X84879333Y-113443334D01*
X86064667Y-113443334D01*
X86064667Y-114054266D01*
X86932500Y-113998381D01*
X87433777Y-113964500D01*
X87790547Y-113932634D01*
X88027356Y-113895068D01*
X88168750Y-113844087D01*
X88239274Y-113771978D01*
X88263476Y-113671026D01*
X88266000Y-113579288D01*
X88291746Y-113384508D01*
X88399172Y-113255599D01*
X88573959Y-113158508D01*
X88911079Y-113057466D01*
X89124292Y-113064887D01*
X89302348Y-113136647D01*
X89363353Y-113283341D01*
X89366667Y-113365394D01*
X89381935Y-113527488D01*
X89460941Y-113596308D01*
X89653483Y-113610229D01*
X89684167Y-113610053D01*
X90030132Y-113594027D01*
X90403504Y-113555826D01*
X90762286Y-113502402D01*
X91064478Y-113440708D01*
X91268081Y-113377696D01*
X91328678Y-113337816D01*
X91383951Y-113289697D01*
X91397370Y-113372020D01*
X91435444Y-113520166D01*
X91532510Y-113757320D01*
X91630906Y-113960004D01*
X91814588Y-114458792D01*
X91835788Y-114928625D01*
X92096968Y-114928625D01*
X92111726Y-114725983D01*
X92137711Y-114398186D01*
X92208731Y-114168408D01*
X92343874Y-113969715D01*
X92516455Y-113697195D01*
X92618213Y-113400268D01*
X92632062Y-113199975D01*
X92326020Y-113199975D01*
X92317710Y-113411488D01*
X92250865Y-113645685D01*
X92143717Y-113843822D01*
X92014500Y-113947153D01*
X91983998Y-113951334D01*
X91974069Y-113893199D01*
X92052574Y-113748999D01*
X92084579Y-113703838D01*
X92221068Y-113421954D01*
X92221661Y-113401569D01*
X91958865Y-113401569D01*
X91902702Y-113547818D01*
X91812942Y-113612667D01*
X91750875Y-113541894D01*
X91737333Y-113448330D01*
X91775693Y-113289563D01*
X91860810Y-113217580D01*
X91943425Y-113264979D01*
X91958865Y-113401569D01*
X92221661Y-113401569D01*
X92226344Y-113240733D01*
X92219197Y-113098137D01*
X92257564Y-113069892D01*
X92326020Y-113199975D01*
X92632062Y-113199975D01*
X92636683Y-113133146D01*
X92578823Y-112977667D01*
X92076000Y-112977667D01*
X92033667Y-113020000D01*
X91991333Y-112977667D01*
X92033667Y-112935334D01*
X92076000Y-112977667D01*
X92578823Y-112977667D01*
X92574614Y-112966357D01*
X92439865Y-112862804D01*
X91890809Y-112862804D01*
X91873773Y-112910208D01*
X91784651Y-112980360D01*
X91636252Y-113083938D01*
X91577939Y-113080674D01*
X91568000Y-112977667D01*
X91640091Y-112875475D01*
X91758500Y-112853360D01*
X91890809Y-112862804D01*
X92439865Y-112862804D01*
X92403958Y-112835210D01*
X92146064Y-112707492D01*
X91880100Y-112617978D01*
X91732925Y-112596667D01*
X91654013Y-112584674D01*
X91632012Y-112524902D01*
X91669990Y-112381658D01*
X91771016Y-112119251D01*
X91774785Y-112109834D01*
X91974340Y-111440419D01*
X92013885Y-110945667D01*
X91749910Y-110945667D01*
X91726382Y-111202634D01*
X91672210Y-111499554D01*
X91597045Y-111807174D01*
X91510536Y-112096245D01*
X91422334Y-112337515D01*
X91342089Y-112501733D01*
X91279451Y-112559647D01*
X91244071Y-112482007D01*
X91243805Y-112479733D01*
X91215944Y-112235800D01*
X90483621Y-112295220D01*
X90008698Y-112336691D01*
X89677471Y-112375825D01*
X89464573Y-112419855D01*
X89344636Y-112476013D01*
X89292294Y-112551533D01*
X89282000Y-112637843D01*
X89250070Y-112776032D01*
X89122641Y-112795879D01*
X89084675Y-112789464D01*
X88879701Y-112797213D01*
X88622396Y-112864117D01*
X88566335Y-112885872D01*
X88335679Y-112980315D01*
X88222162Y-113001307D01*
X88184479Y-112935140D01*
X88181326Y-112768106D01*
X88181333Y-112758099D01*
X88181333Y-112496197D01*
X87355833Y-112551363D01*
X86863452Y-112586151D01*
X86515236Y-112618986D01*
X86286286Y-112657403D01*
X86151700Y-112708935D01*
X86086578Y-112781120D01*
X86066019Y-112881490D01*
X86064667Y-112942061D01*
X86064667Y-113189334D01*
X83768291Y-113189334D01*
X83821736Y-112829500D01*
X83827351Y-112490053D01*
X83766650Y-112004171D01*
X83685002Y-111580667D01*
X83574413Y-111014005D01*
X83519473Y-110567492D01*
X83524384Y-110199950D01*
X83593351Y-109870197D01*
X83730579Y-109537054D01*
X83930535Y-109175663D01*
X84185525Y-108786423D01*
X84424628Y-108494581D01*
X84604167Y-108341799D01*
X84810466Y-108205395D01*
X84860045Y-108131088D01*
X84750786Y-108111897D01*
X84540667Y-108132462D01*
X84329416Y-108155793D01*
X84211133Y-108159145D01*
X84202000Y-108155125D01*
X84276219Y-108064129D01*
X84472063Y-107942150D01*
X84749314Y-107808007D01*
X85067755Y-107680522D01*
X85387167Y-107578515D01*
X85488578Y-107553042D01*
X86140155Y-107403202D01*
X87003800Y-107735101D01*
X87409773Y-107897747D01*
X87691813Y-108031356D01*
X87887332Y-108158301D01*
X88033739Y-108300953D01*
X88107607Y-108395202D01*
X88258055Y-108583904D01*
X88347097Y-108642914D01*
X88399599Y-108588250D01*
X88401151Y-108584290D01*
X88427696Y-108393756D01*
X88414341Y-108234921D01*
X88416538Y-108067728D01*
X88497779Y-108024667D01*
X88739585Y-108084478D01*
X89055667Y-108249276D01*
X89408225Y-108497111D01*
X89623998Y-108678740D01*
X89847141Y-108876488D01*
X89972764Y-108970854D01*
X90028878Y-108972103D01*
X90043497Y-108890499D01*
X90044000Y-108832642D01*
X89980065Y-108515979D01*
X89782843Y-108153155D01*
X89444214Y-107729828D01*
X89378776Y-107658123D01*
X89177649Y-107438578D01*
X89085554Y-107326174D01*
X89095676Y-107304550D01*
X89201198Y-107357345D01*
X89269693Y-107396266D01*
X89502945Y-107557621D01*
X89691964Y-107733482D01*
X89705211Y-107749500D01*
X89839932Y-107887894D01*
X89935112Y-107940000D01*
X90074365Y-108002888D01*
X90286889Y-108172739D01*
X90543978Y-108421332D01*
X90816926Y-108720448D01*
X91077026Y-109041866D01*
X91133647Y-109118225D01*
X91450246Y-109608128D01*
X91645117Y-110060011D01*
X91737220Y-110530092D01*
X91749910Y-110945667D01*
X92013885Y-110945667D01*
X92027998Y-110769102D01*
X91938446Y-110052759D01*
X91910670Y-109929667D01*
X91749315Y-109252334D01*
X91995047Y-109548667D01*
X92143294Y-109739739D01*
X92232060Y-109877831D01*
X92243056Y-109908500D01*
X92311616Y-109969210D01*
X92339179Y-109972000D01*
X92392866Y-109907275D01*
X92376565Y-109748328D01*
X92304227Y-109548004D01*
X92189803Y-109359146D01*
X92171539Y-109337000D01*
X91987202Y-109112766D01*
X91904900Y-108989785D01*
X91927352Y-108976379D01*
X92057278Y-109080865D01*
X92100853Y-109120776D01*
X92298601Y-109278597D01*
X92401153Y-109304775D01*
X92405359Y-109209797D01*
X92308066Y-109004151D01*
X92191314Y-108819648D01*
X91836959Y-108326564D01*
X91510298Y-107950054D01*
X91168662Y-107652674D01*
X90769381Y-107396976D01*
X90299321Y-107159274D01*
X89884774Y-106974155D01*
X89467471Y-106802461D01*
X89104320Y-106666897D01*
X88909321Y-106604685D01*
X88407001Y-106465027D01*
X88675167Y-106355604D01*
X88854719Y-106275579D01*
X88941790Y-106223492D01*
X88943333Y-106220060D01*
X88865246Y-106207991D01*
X88657292Y-106198631D01*
X88358935Y-106193508D01*
X88244833Y-106193005D01*
X87820610Y-106183394D01*
X87372836Y-106159054D01*
X86996640Y-106125195D01*
X86988345Y-106124195D01*
X86535929Y-106099761D01*
X85984108Y-106118270D01*
G36*
X88513377Y-115362360D02*
X88143281Y-115535963D01*
X87906167Y-115710332D01*
X87788571Y-115844780D01*
X87788599Y-115956522D01*
X87920162Y-116059979D01*
X88197170Y-116169573D01*
X88414167Y-116236984D01*
X88733064Y-116331933D01*
X88992685Y-116410765D01*
X89147125Y-116459501D01*
X89163873Y-116465326D01*
X89244919Y-116413566D01*
X89355689Y-116246275D01*
X89197333Y-116246275D01*
X89183759Y-116315608D01*
X89121779Y-116339180D01*
X88979504Y-116313647D01*
X88725046Y-116235668D01*
X88554482Y-116178892D01*
X88238133Y-116068009D01*
X88059305Y-115989000D01*
X87993192Y-115925538D01*
X88014985Y-115861296D01*
X88036434Y-115837947D01*
X88258273Y-115723118D01*
X88545444Y-115709255D01*
X88830546Y-115792178D01*
X88983578Y-115896705D01*
X89129926Y-116074769D01*
X89196896Y-116236326D01*
X89197333Y-116246275D01*
X89355689Y-116246275D01*
X89357357Y-116243756D01*
X89446345Y-116060831D01*
X89635277Y-115621647D01*
X89457744Y-115444114D01*
X89211330Y-115309449D01*
X88882967Y-115284527D01*
X88513377Y-115362360D01*
X88513377Y-115362360D01*
G37*
X88513377Y-115362360D02*
X88143281Y-115535963D01*
X87906167Y-115710332D01*
X87788571Y-115844780D01*
X87788599Y-115956522D01*
X87920162Y-116059979D01*
X88197170Y-116169573D01*
X88414167Y-116236984D01*
X88733064Y-116331933D01*
X88992685Y-116410765D01*
X89147125Y-116459501D01*
X89163873Y-116465326D01*
X89244919Y-116413566D01*
X89355689Y-116246275D01*
X89197333Y-116246275D01*
X89183759Y-116315608D01*
X89121779Y-116339180D01*
X88979504Y-116313647D01*
X88725046Y-116235668D01*
X88554482Y-116178892D01*
X88238133Y-116068009D01*
X88059305Y-115989000D01*
X87993192Y-115925538D01*
X88014985Y-115861296D01*
X88036434Y-115837947D01*
X88258273Y-115723118D01*
X88545444Y-115709255D01*
X88830546Y-115792178D01*
X88983578Y-115896705D01*
X89129926Y-116074769D01*
X89196896Y-116236326D01*
X89197333Y-116246275D01*
X89355689Y-116246275D01*
X89357357Y-116243756D01*
X89446345Y-116060831D01*
X89635277Y-115621647D01*
X89457744Y-115444114D01*
X89211330Y-115309449D01*
X88882967Y-115284527D01*
X88513377Y-115362360D01*
G36*
X83069728Y-113563507D02*
X82761609Y-113692327D01*
X82578082Y-113911998D01*
X82526415Y-114191268D01*
X82613878Y-114498886D01*
X82793831Y-114749638D01*
X83002437Y-114953970D01*
X83145612Y-115037847D01*
X83261014Y-115015154D01*
X83338400Y-114950400D01*
X83413667Y-114796795D01*
X83445951Y-114590567D01*
X83471491Y-114345535D01*
X83516161Y-114168196D01*
X83524799Y-113956922D01*
X83515741Y-113930109D01*
X83307762Y-113930109D01*
X83263606Y-114153469D01*
X83241275Y-114211510D01*
X83172827Y-114430519D01*
X83157822Y-114591806D01*
X83161740Y-114607558D01*
X83162413Y-114689512D01*
X83089196Y-114672638D01*
X82981871Y-114583617D01*
X82880218Y-114449130D01*
X82856184Y-114402614D01*
X82795041Y-114135280D01*
X82870504Y-113934356D01*
X83039177Y-113836248D01*
X83233654Y-113825672D01*
X83307762Y-113930109D01*
X83515741Y-113930109D01*
X83457438Y-113757534D01*
X83348550Y-113589170D01*
X83212918Y-113544083D01*
X83069728Y-113563507D01*
X83069728Y-113563507D01*
G37*
X83069728Y-113563507D02*
X82761609Y-113692327D01*
X82578082Y-113911998D01*
X82526415Y-114191268D01*
X82613878Y-114498886D01*
X82793831Y-114749638D01*
X83002437Y-114953970D01*
X83145612Y-115037847D01*
X83261014Y-115015154D01*
X83338400Y-114950400D01*
X83413667Y-114796795D01*
X83445951Y-114590567D01*
X83471491Y-114345535D01*
X83516161Y-114168196D01*
X83524799Y-113956922D01*
X83515741Y-113930109D01*
X83307762Y-113930109D01*
X83263606Y-114153469D01*
X83241275Y-114211510D01*
X83172827Y-114430519D01*
X83157822Y-114591806D01*
X83161740Y-114607558D01*
X83162413Y-114689512D01*
X83089196Y-114672638D01*
X82981871Y-114583617D01*
X82880218Y-114449130D01*
X82856184Y-114402614D01*
X82795041Y-114135280D01*
X82870504Y-113934356D01*
X83039177Y-113836248D01*
X83233654Y-113825672D01*
X83307762Y-113930109D01*
X83515741Y-113930109D01*
X83457438Y-113757534D01*
X83348550Y-113589170D01*
X83212918Y-113544083D01*
X83069728Y-113563507D01*
G36*
X88405990Y-114457578D02*
X88396449Y-114465818D01*
X88373095Y-114573374D01*
X88472682Y-114676700D01*
X88657701Y-114784759D01*
X88772433Y-114768102D01*
X88812753Y-114719127D01*
X88797352Y-114614982D01*
X88681558Y-114510593D01*
X88529671Y-114445083D01*
X88405990Y-114457578D01*
X88405990Y-114457578D01*
G37*
X88405990Y-114457578D02*
X88396449Y-114465818D01*
X88373095Y-114573374D01*
X88472682Y-114676700D01*
X88657701Y-114784759D01*
X88772433Y-114768102D01*
X88812753Y-114719127D01*
X88797352Y-114614982D01*
X88681558Y-114510593D01*
X88529671Y-114445083D01*
X88405990Y-114457578D01*
G36*
X89341842Y-114261122D02*
X89225105Y-114369366D01*
X89161093Y-114514985D01*
X89167656Y-114588784D01*
X89254739Y-114703663D01*
X89380647Y-114660482D01*
X89434400Y-114611734D01*
X89528052Y-114443572D01*
X89500652Y-114290921D01*
X89458159Y-114251885D01*
X89341842Y-114261122D01*
X89341842Y-114261122D01*
G37*
X89341842Y-114261122D02*
X89225105Y-114369366D01*
X89161093Y-114514985D01*
X89167656Y-114588784D01*
X89254739Y-114703663D01*
X89380647Y-114660482D01*
X89434400Y-114611734D01*
X89528052Y-114443572D01*
X89500652Y-114290921D01*
X89458159Y-114251885D01*
X89341842Y-114261122D01*
G36*
X88671764Y-114000767D02*
X88363920Y-114114379D01*
X88203241Y-114229608D01*
X88072767Y-114387873D01*
X88030695Y-114498859D01*
X88037657Y-114513212D01*
X88091721Y-114507226D01*
X88096667Y-114472200D01*
X88173784Y-114321861D01*
X88375867Y-114194467D01*
X88659015Y-114100404D01*
X88979329Y-114050060D01*
X89292906Y-114053819D01*
X89555847Y-114122070D01*
X89562733Y-114125338D01*
X89689741Y-114183785D01*
X89677774Y-114159023D01*
X89578333Y-114076338D01*
X89340429Y-113974896D01*
X89017753Y-113951989D01*
X88671764Y-114000767D01*
X88671764Y-114000767D01*
G37*
X88671764Y-114000767D02*
X88363920Y-114114379D01*
X88203241Y-114229608D01*
X88072767Y-114387873D01*
X88030695Y-114498859D01*
X88037657Y-114513212D01*
X88091721Y-114507226D01*
X88096667Y-114472200D01*
X88173784Y-114321861D01*
X88375867Y-114194467D01*
X88659015Y-114100404D01*
X88979329Y-114050060D01*
X89292906Y-114053819D01*
X89555847Y-114122070D01*
X89562733Y-114125338D01*
X89689741Y-114183785D01*
X89677774Y-114159023D01*
X89578333Y-114076338D01*
X89340429Y-113974896D01*
X89017753Y-113951989D01*
X88671764Y-114000767D01*
G36*
X86646432Y-110788371D02*
X86372917Y-110932654D01*
X86330073Y-110956282D01*
X86024660Y-111124808D01*
X85840456Y-111231347D01*
X85752014Y-111298567D01*
X85733888Y-111349132D01*
X85760632Y-111405710D01*
X85783011Y-111443574D01*
X85841304Y-111499478D01*
X85944771Y-111493601D01*
X86126732Y-111416513D01*
X86404605Y-111267642D01*
X86672412Y-111118067D01*
X86874832Y-111003981D01*
X86973389Y-110947088D01*
X86976826Y-110944836D01*
X86970956Y-110863719D01*
X86945900Y-110786623D01*
X86900555Y-110724273D01*
X86811522Y-110721884D01*
X86646432Y-110788371D01*
X86646432Y-110788371D01*
G37*
X86646432Y-110788371D02*
X86372917Y-110932654D01*
X86330073Y-110956282D01*
X86024660Y-111124808D01*
X85840456Y-111231347D01*
X85752014Y-111298567D01*
X85733888Y-111349132D01*
X85760632Y-111405710D01*
X85783011Y-111443574D01*
X85841304Y-111499478D01*
X85944771Y-111493601D01*
X86126732Y-111416513D01*
X86404605Y-111267642D01*
X86672412Y-111118067D01*
X86874832Y-111003981D01*
X86973389Y-110947088D01*
X86976826Y-110944836D01*
X86970956Y-110863719D01*
X86945900Y-110786623D01*
X86900555Y-110724273D01*
X86811522Y-110721884D01*
X86646432Y-110788371D01*
G36*
X90189348Y-110701797D02*
X90101176Y-110768184D01*
X90111737Y-110853556D01*
X90241213Y-110913208D01*
X90450562Y-110952519D01*
X90744332Y-111022076D01*
X91003627Y-111126572D01*
X91069557Y-111166213D01*
X91236748Y-111258317D01*
X91341539Y-111270374D01*
X91344724Y-111267721D01*
X91393776Y-111160146D01*
X91312834Y-111036139D01*
X91165833Y-110920479D01*
X90931487Y-110799087D01*
X90656957Y-110717360D01*
X90392743Y-110682521D01*
X90189348Y-110701797D01*
X90189348Y-110701797D01*
G37*
X90189348Y-110701797D02*
X90101176Y-110768184D01*
X90111737Y-110853556D01*
X90241213Y-110913208D01*
X90450562Y-110952519D01*
X90744332Y-111022076D01*
X91003627Y-111126572D01*
X91069557Y-111166213D01*
X91236748Y-111258317D01*
X91341539Y-111270374D01*
X91344724Y-111267721D01*
X91393776Y-111160146D01*
X91312834Y-111036139D01*
X91165833Y-110920479D01*
X90931487Y-110799087D01*
X90656957Y-110717360D01*
X90392743Y-110682521D01*
X90189348Y-110701797D01*
G36*
X112581114Y-115484505D02*
X112506461Y-115521727D01*
X112440569Y-115590261D01*
X112422423Y-115615648D01*
X112402655Y-115648866D01*
X112389828Y-115684945D01*
X112382490Y-115733098D01*
X112379187Y-115802536D01*
X112378462Y-115894206D01*
X112381737Y-116019830D01*
X112393123Y-116114154D01*
X112414959Y-116184523D01*
X112449581Y-116238286D01*
X112499330Y-116282788D01*
X112502986Y-116285423D01*
X112552015Y-116312377D01*
X112611055Y-116325712D01*
X112686141Y-116329000D01*
X112808205Y-116329000D01*
X112808256Y-116447497D01*
X112809392Y-116513492D01*
X112816314Y-116552202D01*
X112834402Y-116575419D01*
X112869038Y-116594933D01*
X112877355Y-116598920D01*
X112916280Y-116617603D01*
X112946417Y-116629403D01*
X112968826Y-116630422D01*
X112984567Y-116616761D01*
X112994698Y-116584522D01*
X113000277Y-116529804D01*
X113002365Y-116448711D01*
X113002019Y-116337344D01*
X113000300Y-116191802D01*
X112999763Y-116148269D01*
X112997828Y-115998205D01*
X112996096Y-115900042D01*
X112808308Y-115900042D01*
X112807252Y-115983364D01*
X112802562Y-116037880D01*
X112791949Y-116073837D01*
X112773128Y-116101482D01*
X112760350Y-116114965D01*
X112708110Y-116154417D01*
X112661858Y-116157628D01*
X112614133Y-116125049D01*
X112612923Y-116123846D01*
X112593506Y-116098668D01*
X112581693Y-116064447D01*
X112575735Y-116011748D01*
X112573880Y-115931131D01*
X112573846Y-115913271D01*
X112578330Y-115802175D01*
X112592926Y-115725161D01*
X112619350Y-115678147D01*
X112659317Y-115657050D01*
X112682416Y-115654923D01*
X112737238Y-115664900D01*
X112774842Y-115697752D01*
X112797477Y-115757857D01*
X112807394Y-115849598D01*
X112808308Y-115900042D01*
X112996096Y-115900042D01*
X112995778Y-115882060D01*
X112993127Y-115794679D01*
X112989394Y-115730905D01*
X112984093Y-115685582D01*
X112976742Y-115653555D01*
X112966857Y-115629668D01*
X112953954Y-115608764D01*
X112948421Y-115600898D01*
X112875031Y-115526595D01*
X112782240Y-115484467D01*
X112674904Y-115472722D01*
X112581114Y-115484505D01*
X112581114Y-115484505D01*
G37*
X112581114Y-115484505D02*
X112506461Y-115521727D01*
X112440569Y-115590261D01*
X112422423Y-115615648D01*
X112402655Y-115648866D01*
X112389828Y-115684945D01*
X112382490Y-115733098D01*
X112379187Y-115802536D01*
X112378462Y-115894206D01*
X112381737Y-116019830D01*
X112393123Y-116114154D01*
X112414959Y-116184523D01*
X112449581Y-116238286D01*
X112499330Y-116282788D01*
X112502986Y-116285423D01*
X112552015Y-116312377D01*
X112611055Y-116325712D01*
X112686141Y-116329000D01*
X112808205Y-116329000D01*
X112808256Y-116447497D01*
X112809392Y-116513492D01*
X112816314Y-116552202D01*
X112834402Y-116575419D01*
X112869038Y-116594933D01*
X112877355Y-116598920D01*
X112916280Y-116617603D01*
X112946417Y-116629403D01*
X112968826Y-116630422D01*
X112984567Y-116616761D01*
X112994698Y-116584522D01*
X113000277Y-116529804D01*
X113002365Y-116448711D01*
X113002019Y-116337344D01*
X113000300Y-116191802D01*
X112999763Y-116148269D01*
X112997828Y-115998205D01*
X112996096Y-115900042D01*
X112808308Y-115900042D01*
X112807252Y-115983364D01*
X112802562Y-116037880D01*
X112791949Y-116073837D01*
X112773128Y-116101482D01*
X112760350Y-116114965D01*
X112708110Y-116154417D01*
X112661858Y-116157628D01*
X112614133Y-116125049D01*
X112612923Y-116123846D01*
X112593506Y-116098668D01*
X112581693Y-116064447D01*
X112575735Y-116011748D01*
X112573880Y-115931131D01*
X112573846Y-115913271D01*
X112578330Y-115802175D01*
X112592926Y-115725161D01*
X112619350Y-115678147D01*
X112659317Y-115657050D01*
X112682416Y-115654923D01*
X112737238Y-115664900D01*
X112774842Y-115697752D01*
X112797477Y-115757857D01*
X112807394Y-115849598D01*
X112808308Y-115900042D01*
X112996096Y-115900042D01*
X112995778Y-115882060D01*
X112993127Y-115794679D01*
X112989394Y-115730905D01*
X112984093Y-115685582D01*
X112976742Y-115653555D01*
X112966857Y-115629668D01*
X112953954Y-115608764D01*
X112948421Y-115600898D01*
X112875031Y-115526595D01*
X112782240Y-115484467D01*
X112674904Y-115472722D01*
X112581114Y-115484505D01*
G36*
X111078336Y-115495089D02*
X111015633Y-115531358D01*
X110972039Y-115567358D01*
X110940155Y-115605075D01*
X110918190Y-115651199D01*
X110904351Y-115712421D01*
X110896847Y-115795431D01*
X110893883Y-115906919D01*
X110893539Y-115987062D01*
X110893539Y-116282065D01*
X111059615Y-116356515D01*
X111069385Y-116033402D01*
X111073421Y-115912729D01*
X111077656Y-115825141D01*
X111082903Y-115764650D01*
X111089975Y-115725268D01*
X111099689Y-115701007D01*
X111112856Y-115685880D01*
X111117081Y-115682606D01*
X111181091Y-115657034D01*
X111245792Y-115667153D01*
X111284308Y-115694000D01*
X111299975Y-115713024D01*
X111310820Y-115737988D01*
X111317712Y-115775834D01*
X111321521Y-115833502D01*
X111323117Y-115917935D01*
X111323385Y-116005928D01*
X111323437Y-116116323D01*
X111325328Y-116194463D01*
X111331655Y-116247165D01*
X111345017Y-116281242D01*
X111368015Y-116303511D01*
X111403246Y-116320787D01*
X111450303Y-116338738D01*
X111501697Y-116358278D01*
X111495579Y-116011485D01*
X111493116Y-115886468D01*
X111490233Y-115794082D01*
X111486102Y-115727881D01*
X111479893Y-115681420D01*
X111470774Y-115648256D01*
X111457917Y-115621944D01*
X111442416Y-115598729D01*
X111367629Y-115524569D01*
X111276372Y-115481684D01*
X111177117Y-115471412D01*
X111078336Y-115495089D01*
X111078336Y-115495089D01*
G37*
X111078336Y-115495089D02*
X111015633Y-115531358D01*
X110972039Y-115567358D01*
X110940155Y-115605075D01*
X110918190Y-115651199D01*
X110904351Y-115712421D01*
X110896847Y-115795431D01*
X110893883Y-115906919D01*
X110893539Y-115987062D01*
X110893539Y-116282065D01*
X111059615Y-116356515D01*
X111069385Y-116033402D01*
X111073421Y-115912729D01*
X111077656Y-115825141D01*
X111082903Y-115764650D01*
X111089975Y-115725268D01*
X111099689Y-115701007D01*
X111112856Y-115685880D01*
X111117081Y-115682606D01*
X111181091Y-115657034D01*
X111245792Y-115667153D01*
X111284308Y-115694000D01*
X111299975Y-115713024D01*
X111310820Y-115737988D01*
X111317712Y-115775834D01*
X111321521Y-115833502D01*
X111323117Y-115917935D01*
X111323385Y-116005928D01*
X111323437Y-116116323D01*
X111325328Y-116194463D01*
X111331655Y-116247165D01*
X111345017Y-116281242D01*
X111368015Y-116303511D01*
X111403246Y-116320787D01*
X111450303Y-116338738D01*
X111501697Y-116358278D01*
X111495579Y-116011485D01*
X111493116Y-115886468D01*
X111490233Y-115794082D01*
X111486102Y-115727881D01*
X111479893Y-115681420D01*
X111470774Y-115648256D01*
X111457917Y-115621944D01*
X111442416Y-115598729D01*
X111367629Y-115524569D01*
X111276372Y-115481684D01*
X111177117Y-115471412D01*
X111078336Y-115495089D01*
G36*
X113333114Y-115487256D02*
X113241536Y-115535409D01*
X113173951Y-115612905D01*
X113149943Y-115662727D01*
X113131262Y-115737533D01*
X113121699Y-115832052D01*
X113120792Y-115935210D01*
X113128079Y-116035935D01*
X113143097Y-116123153D01*
X113165385Y-116185791D01*
X113172235Y-116196579D01*
X113253368Y-116277105D01*
X113349734Y-116325336D01*
X113454299Y-116339450D01*
X113560032Y-116317629D01*
X113589457Y-116304547D01*
X113646759Y-116264231D01*
X113697050Y-116210775D01*
X113701803Y-116203995D01*
X113721122Y-116171321D01*
X113733892Y-116136394D01*
X113741436Y-116090414D01*
X113745076Y-116024584D01*
X113746135Y-115930105D01*
X113746154Y-115908923D01*
X113746106Y-115902182D01*
X113550769Y-115902182D01*
X113549632Y-115991349D01*
X113545159Y-116050520D01*
X113535754Y-116088741D01*
X113519824Y-116115053D01*
X113511692Y-116123846D01*
X113464942Y-116157261D01*
X113419553Y-116155737D01*
X113373660Y-116126752D01*
X113346288Y-116095809D01*
X113330077Y-116050643D01*
X113320974Y-115979420D01*
X113320349Y-115971114D01*
X113318796Y-115842037D01*
X113335035Y-115746172D01*
X113368848Y-115684107D01*
X113420016Y-115656432D01*
X113438280Y-115654923D01*
X113486240Y-115662513D01*
X113519047Y-115688808D01*
X113539105Y-115739095D01*
X113548822Y-115818664D01*
X113550769Y-115902182D01*
X113746106Y-115902182D01*
X113745426Y-115808249D01*
X113742371Y-115737906D01*
X113735678Y-115689163D01*
X113724040Y-115653288D01*
X113706147Y-115621548D01*
X113702192Y-115615648D01*
X113635733Y-115536104D01*
X113563315Y-115489929D01*
X113475151Y-115471599D01*
X113445213Y-115470703D01*
X113333114Y-115487256D01*
X113333114Y-115487256D01*
G37*
X113333114Y-115487256D02*
X113241536Y-115535409D01*
X113173951Y-115612905D01*
X113149943Y-115662727D01*
X113131262Y-115737533D01*
X113121699Y-115832052D01*
X113120792Y-115935210D01*
X113128079Y-116035935D01*
X113143097Y-116123153D01*
X113165385Y-116185791D01*
X113172235Y-116196579D01*
X113253368Y-116277105D01*
X113349734Y-116325336D01*
X113454299Y-116339450D01*
X113560032Y-116317629D01*
X113589457Y-116304547D01*
X113646759Y-116264231D01*
X113697050Y-116210775D01*
X113701803Y-116203995D01*
X113721122Y-116171321D01*
X113733892Y-116136394D01*
X113741436Y-116090414D01*
X113745076Y-116024584D01*
X113746135Y-115930105D01*
X113746154Y-115908923D01*
X113746106Y-115902182D01*
X113550769Y-115902182D01*
X113549632Y-115991349D01*
X113545159Y-116050520D01*
X113535754Y-116088741D01*
X113519824Y-116115053D01*
X113511692Y-116123846D01*
X113464942Y-116157261D01*
X113419553Y-116155737D01*
X113373660Y-116126752D01*
X113346288Y-116095809D01*
X113330077Y-116050643D01*
X113320974Y-115979420D01*
X113320349Y-115971114D01*
X113318796Y-115842037D01*
X113335035Y-115746172D01*
X113368848Y-115684107D01*
X113420016Y-115656432D01*
X113438280Y-115654923D01*
X113486240Y-115662513D01*
X113519047Y-115688808D01*
X113539105Y-115739095D01*
X113548822Y-115818664D01*
X113550769Y-115902182D01*
X113746106Y-115902182D01*
X113745426Y-115808249D01*
X113742371Y-115737906D01*
X113735678Y-115689163D01*
X113724040Y-115653288D01*
X113706147Y-115621548D01*
X113702192Y-115615648D01*
X113635733Y-115536104D01*
X113563315Y-115489929D01*
X113475151Y-115471599D01*
X113445213Y-115470703D01*
X113333114Y-115487256D01*
G36*
X111815746Y-115499745D02*
X111738714Y-115551567D01*
X111679184Y-115626412D01*
X111643622Y-115721654D01*
X111636429Y-115791756D01*
X111637246Y-115821009D01*
X111644086Y-115843407D01*
X111662888Y-115863474D01*
X111699592Y-115885733D01*
X111760138Y-115914709D01*
X111850466Y-115954927D01*
X111850923Y-115955129D01*
X111934067Y-115993210D01*
X112002247Y-116027025D01*
X112048495Y-116052933D01*
X112065842Y-116067295D01*
X112065846Y-116067411D01*
X112050557Y-116098685D01*
X112014804Y-116133157D01*
X111973758Y-116157990D01*
X111952963Y-116162923D01*
X111896230Y-116145862D01*
X111847373Y-116103133D01*
X111823535Y-116056155D01*
X111800603Y-116021522D01*
X111755682Y-115982081D01*
X111702877Y-115948009D01*
X111656290Y-115929480D01*
X111646548Y-115928462D01*
X111635582Y-115945215D01*
X111634921Y-115988039D01*
X111642980Y-116045781D01*
X111658173Y-116107289D01*
X111678914Y-116161409D01*
X111679962Y-116163510D01*
X111742379Y-116250660D01*
X111823274Y-116309939D01*
X111915144Y-116339034D01*
X112010487Y-116335634D01*
X112101802Y-116297428D01*
X112105862Y-116294741D01*
X112177694Y-116229642D01*
X112224927Y-116144705D01*
X112251066Y-116033021D01*
X112254574Y-116001643D01*
X112260787Y-115853536D01*
X112253339Y-115784468D01*
X112065846Y-115784468D01*
X112063410Y-115827552D01*
X112050086Y-115840126D01*
X112016868Y-115830719D01*
X111964506Y-115808483D01*
X111905976Y-115780610D01*
X111904521Y-115779872D01*
X111854911Y-115753777D01*
X111835000Y-115736363D01*
X111839910Y-115718107D01*
X111860584Y-115694120D01*
X111913181Y-115659406D01*
X111969823Y-115656856D01*
X112020631Y-115682119D01*
X112055724Y-115730847D01*
X112065846Y-115784468D01*
X112253339Y-115784468D01*
X112248008Y-115735036D01*
X112215222Y-115641055D01*
X112169579Y-115575215D01*
X112087198Y-115508681D01*
X111996454Y-115475676D01*
X111903815Y-115473573D01*
X111815746Y-115499745D01*
X111815746Y-115499745D01*
G37*
X111815746Y-115499745D02*
X111738714Y-115551567D01*
X111679184Y-115626412D01*
X111643622Y-115721654D01*
X111636429Y-115791756D01*
X111637246Y-115821009D01*
X111644086Y-115843407D01*
X111662888Y-115863474D01*
X111699592Y-115885733D01*
X111760138Y-115914709D01*
X111850466Y-115954927D01*
X111850923Y-115955129D01*
X111934067Y-115993210D01*
X112002247Y-116027025D01*
X112048495Y-116052933D01*
X112065842Y-116067295D01*
X112065846Y-116067411D01*
X112050557Y-116098685D01*
X112014804Y-116133157D01*
X111973758Y-116157990D01*
X111952963Y-116162923D01*
X111896230Y-116145862D01*
X111847373Y-116103133D01*
X111823535Y-116056155D01*
X111800603Y-116021522D01*
X111755682Y-115982081D01*
X111702877Y-115948009D01*
X111656290Y-115929480D01*
X111646548Y-115928462D01*
X111635582Y-115945215D01*
X111634921Y-115988039D01*
X111642980Y-116045781D01*
X111658173Y-116107289D01*
X111678914Y-116161409D01*
X111679962Y-116163510D01*
X111742379Y-116250660D01*
X111823274Y-116309939D01*
X111915144Y-116339034D01*
X112010487Y-116335634D01*
X112101802Y-116297428D01*
X112105862Y-116294741D01*
X112177694Y-116229642D01*
X112224927Y-116144705D01*
X112251066Y-116033021D01*
X112254574Y-116001643D01*
X112260787Y-115853536D01*
X112253339Y-115784468D01*
X112065846Y-115784468D01*
X112063410Y-115827552D01*
X112050086Y-115840126D01*
X112016868Y-115830719D01*
X111964506Y-115808483D01*
X111905976Y-115780610D01*
X111904521Y-115779872D01*
X111854911Y-115753777D01*
X111835000Y-115736363D01*
X111839910Y-115718107D01*
X111860584Y-115694120D01*
X111913181Y-115659406D01*
X111969823Y-115656856D01*
X112020631Y-115682119D01*
X112055724Y-115730847D01*
X112065846Y-115784468D01*
X112253339Y-115784468D01*
X112248008Y-115735036D01*
X112215222Y-115641055D01*
X112169579Y-115575215D01*
X112087198Y-115508681D01*
X111996454Y-115475676D01*
X111903815Y-115473573D01*
X111815746Y-115499745D01*
G36*
X110190154Y-115392120D02*
X110184428Y-115471980D01*
X110177851Y-115519039D01*
X110168738Y-115539566D01*
X110155402Y-115539829D01*
X110151077Y-115537378D01*
X110093556Y-115519636D01*
X110018732Y-115520672D01*
X109942661Y-115538910D01*
X109895082Y-115562505D01*
X109846298Y-115600198D01*
X109810636Y-115642855D01*
X109786155Y-115697057D01*
X109770913Y-115769384D01*
X109762970Y-115866419D01*
X109760384Y-115994742D01*
X109760338Y-116019358D01*
X109760308Y-116295870D01*
X109821839Y-116317320D01*
X109865541Y-116331912D01*
X109889518Y-116338706D01*
X109890223Y-116338769D01*
X109892585Y-116320345D01*
X109894594Y-116269526D01*
X109896099Y-116192993D01*
X109896947Y-116097430D01*
X109897077Y-116039329D01*
X109897349Y-115924771D01*
X109898748Y-115842667D01*
X109902151Y-115786393D01*
X109908433Y-115749326D01*
X109918471Y-115724844D01*
X109933139Y-115706325D01*
X109942298Y-115697406D01*
X110005211Y-115661466D01*
X110073864Y-115658775D01*
X110136152Y-115689170D01*
X110147671Y-115700144D01*
X110164567Y-115720779D01*
X110176286Y-115745256D01*
X110183767Y-115780647D01*
X110187946Y-115834026D01*
X110189763Y-115912466D01*
X110190154Y-116020617D01*
X110190154Y-116295870D01*
X110251685Y-116317320D01*
X110295387Y-116331912D01*
X110319364Y-116338706D01*
X110320070Y-116338769D01*
X110321874Y-116320069D01*
X110323500Y-116267322D01*
X110324883Y-116185557D01*
X110325958Y-116079805D01*
X110326660Y-115955094D01*
X110326923Y-115816455D01*
X110326923Y-115281806D01*
X110199923Y-115228236D01*
X110190154Y-115392120D01*
X110190154Y-115392120D01*
G37*
X110190154Y-115392120D02*
X110184428Y-115471980D01*
X110177851Y-115519039D01*
X110168738Y-115539566D01*
X110155402Y-115539829D01*
X110151077Y-115537378D01*
X110093556Y-115519636D01*
X110018732Y-115520672D01*
X109942661Y-115538910D01*
X109895082Y-115562505D01*
X109846298Y-115600198D01*
X109810636Y-115642855D01*
X109786155Y-115697057D01*
X109770913Y-115769384D01*
X109762970Y-115866419D01*
X109760384Y-115994742D01*
X109760338Y-116019358D01*
X109760308Y-116295870D01*
X109821839Y-116317320D01*
X109865541Y-116331912D01*
X109889518Y-116338706D01*
X109890223Y-116338769D01*
X109892585Y-116320345D01*
X109894594Y-116269526D01*
X109896099Y-116192993D01*
X109896947Y-116097430D01*
X109897077Y-116039329D01*
X109897349Y-115924771D01*
X109898748Y-115842667D01*
X109902151Y-115786393D01*
X109908433Y-115749326D01*
X109918471Y-115724844D01*
X109933139Y-115706325D01*
X109942298Y-115697406D01*
X110005211Y-115661466D01*
X110073864Y-115658775D01*
X110136152Y-115689170D01*
X110147671Y-115700144D01*
X110164567Y-115720779D01*
X110176286Y-115745256D01*
X110183767Y-115780647D01*
X110187946Y-115834026D01*
X110189763Y-115912466D01*
X110190154Y-116020617D01*
X110190154Y-116295870D01*
X110251685Y-116317320D01*
X110295387Y-116331912D01*
X110319364Y-116338706D01*
X110320070Y-116338769D01*
X110321874Y-116320069D01*
X110323500Y-116267322D01*
X110324883Y-116185557D01*
X110325958Y-116079805D01*
X110326660Y-115955094D01*
X110326923Y-115816455D01*
X110326923Y-115281806D01*
X110199923Y-115228236D01*
X110190154Y-115392120D01*
G36*
X109296499Y-115526303D02*
X109219940Y-115554733D01*
X109219064Y-115555279D01*
X109171715Y-115590127D01*
X109136759Y-115630852D01*
X109112175Y-115683925D01*
X109095938Y-115755814D01*
X109086025Y-115852992D01*
X109080414Y-115981928D01*
X109079923Y-116000298D01*
X109072859Y-116277287D01*
X109132305Y-116308028D01*
X109175319Y-116328802D01*
X109201290Y-116338646D01*
X109202491Y-116338769D01*
X109206986Y-116320606D01*
X109210556Y-116271612D01*
X109212752Y-116200031D01*
X109213231Y-116142068D01*
X109213242Y-116048170D01*
X109217534Y-115989203D01*
X109232497Y-115961079D01*
X109264518Y-115959706D01*
X109319986Y-115980998D01*
X109403731Y-116020136D01*
X109465311Y-116052643D01*
X109496983Y-116080845D01*
X109506294Y-116111582D01*
X109506308Y-116113104D01*
X109490943Y-116166054D01*
X109445453Y-116194660D01*
X109375834Y-116198803D01*
X109325687Y-116198084D01*
X109299246Y-116212527D01*
X109282757Y-116247218D01*
X109273267Y-116291416D01*
X109286943Y-116316493D01*
X109292093Y-116320082D01*
X109340575Y-116334496D01*
X109408469Y-116336537D01*
X109478388Y-116326983D01*
X109527932Y-116309522D01*
X109596430Y-116251364D01*
X109635366Y-116170408D01*
X109643077Y-116107160D01*
X109637193Y-116050111D01*
X109615899Y-116003542D01*
X109573735Y-115962181D01*
X109505241Y-115920755D01*
X109404956Y-115873993D01*
X109398846Y-115871350D01*
X109308510Y-115829617D01*
X109252765Y-115795391D01*
X109228871Y-115764635D01*
X109234087Y-115733311D01*
X109265672Y-115697383D01*
X109275117Y-115689116D01*
X109338383Y-115657058D01*
X109403936Y-115658407D01*
X109461028Y-115689838D01*
X109498907Y-115748024D01*
X109502426Y-115759446D01*
X109536700Y-115814837D01*
X109580191Y-115841518D01*
X109643077Y-115867960D01*
X109643077Y-115799548D01*
X109623948Y-115700110D01*
X109567169Y-115608902D01*
X109537622Y-115578389D01*
X109470458Y-115539228D01*
X109385044Y-115521500D01*
X109296499Y-115526303D01*
X109296499Y-115526303D01*
G37*
X109296499Y-115526303D02*
X109219940Y-115554733D01*
X109219064Y-115555279D01*
X109171715Y-115590127D01*
X109136759Y-115630852D01*
X109112175Y-115683925D01*
X109095938Y-115755814D01*
X109086025Y-115852992D01*
X109080414Y-115981928D01*
X109079923Y-116000298D01*
X109072859Y-116277287D01*
X109132305Y-116308028D01*
X109175319Y-116328802D01*
X109201290Y-116338646D01*
X109202491Y-116338769D01*
X109206986Y-116320606D01*
X109210556Y-116271612D01*
X109212752Y-116200031D01*
X109213231Y-116142068D01*
X109213242Y-116048170D01*
X109217534Y-115989203D01*
X109232497Y-115961079D01*
X109264518Y-115959706D01*
X109319986Y-115980998D01*
X109403731Y-116020136D01*
X109465311Y-116052643D01*
X109496983Y-116080845D01*
X109506294Y-116111582D01*
X109506308Y-116113104D01*
X109490943Y-116166054D01*
X109445453Y-116194660D01*
X109375834Y-116198803D01*
X109325687Y-116198084D01*
X109299246Y-116212527D01*
X109282757Y-116247218D01*
X109273267Y-116291416D01*
X109286943Y-116316493D01*
X109292093Y-116320082D01*
X109340575Y-116334496D01*
X109408469Y-116336537D01*
X109478388Y-116326983D01*
X109527932Y-116309522D01*
X109596430Y-116251364D01*
X109635366Y-116170408D01*
X109643077Y-116107160D01*
X109637193Y-116050111D01*
X109615899Y-116003542D01*
X109573735Y-115962181D01*
X109505241Y-115920755D01*
X109404956Y-115873993D01*
X109398846Y-115871350D01*
X109308510Y-115829617D01*
X109252765Y-115795391D01*
X109228871Y-115764635D01*
X109234087Y-115733311D01*
X109265672Y-115697383D01*
X109275117Y-115689116D01*
X109338383Y-115657058D01*
X109403936Y-115658407D01*
X109461028Y-115689838D01*
X109498907Y-115748024D01*
X109502426Y-115759446D01*
X109536700Y-115814837D01*
X109580191Y-115841518D01*
X109643077Y-115867960D01*
X109643077Y-115799548D01*
X109623948Y-115700110D01*
X109567169Y-115608902D01*
X109537622Y-115578389D01*
X109470458Y-115539228D01*
X109385044Y-115521500D01*
X109296499Y-115526303D01*
G36*
X108636638Y-115524670D02*
X108547883Y-115557421D01*
X108475978Y-115615350D01*
X108447856Y-115656128D01*
X108417198Y-115730954D01*
X108417835Y-115785058D01*
X108450013Y-115821446D01*
X108461919Y-115827633D01*
X108513325Y-115846925D01*
X108539578Y-115841982D01*
X108548470Y-115809587D01*
X108548923Y-115791692D01*
X108565203Y-115725859D01*
X108607635Y-115679807D01*
X108666612Y-115657564D01*
X108732525Y-115663161D01*
X108786105Y-115692229D01*
X108804202Y-115708810D01*
X108817029Y-115728925D01*
X108825694Y-115759332D01*
X108831304Y-115806788D01*
X108834965Y-115878050D01*
X108837785Y-115979875D01*
X108838516Y-116012115D01*
X108841180Y-116122410D01*
X108844208Y-116200036D01*
X108848750Y-116251396D01*
X108855954Y-116282890D01*
X108866967Y-116300920D01*
X108882940Y-116311888D01*
X108893166Y-116316733D01*
X108936594Y-116333301D01*
X108962158Y-116338769D01*
X108970605Y-116320507D01*
X108975761Y-116265296D01*
X108977654Y-116172499D01*
X108976311Y-116041478D01*
X108975893Y-116021269D01*
X108972942Y-115901733D01*
X108969452Y-115814449D01*
X108964486Y-115752591D01*
X108957107Y-115709336D01*
X108946376Y-115677860D01*
X108931355Y-115651339D01*
X108923498Y-115639975D01*
X108878447Y-115589692D01*
X108828060Y-115550581D01*
X108821892Y-115547167D01*
X108731542Y-115520212D01*
X108636638Y-115524670D01*
X108636638Y-115524670D01*
G37*
X108636638Y-115524670D02*
X108547883Y-115557421D01*
X108475978Y-115615350D01*
X108447856Y-115656128D01*
X108417198Y-115730954D01*
X108417835Y-115785058D01*
X108450013Y-115821446D01*
X108461919Y-115827633D01*
X108513325Y-115846925D01*
X108539578Y-115841982D01*
X108548470Y-115809587D01*
X108548923Y-115791692D01*
X108565203Y-115725859D01*
X108607635Y-115679807D01*
X108666612Y-115657564D01*
X108732525Y-115663161D01*
X108786105Y-115692229D01*
X108804202Y-115708810D01*
X108817029Y-115728925D01*
X108825694Y-115759332D01*
X108831304Y-115806788D01*
X108834965Y-115878050D01*
X108837785Y-115979875D01*
X108838516Y-116012115D01*
X108841180Y-116122410D01*
X108844208Y-116200036D01*
X108848750Y-116251396D01*
X108855954Y-116282890D01*
X108866967Y-116300920D01*
X108882940Y-116311888D01*
X108893166Y-116316733D01*
X108936594Y-116333301D01*
X108962158Y-116338769D01*
X108970605Y-116320507D01*
X108975761Y-116265296D01*
X108977654Y-116172499D01*
X108976311Y-116041478D01*
X108975893Y-116021269D01*
X108972942Y-115901733D01*
X108969452Y-115814449D01*
X108964486Y-115752591D01*
X108957107Y-115709336D01*
X108946376Y-115677860D01*
X108931355Y-115651339D01*
X108923498Y-115639975D01*
X108878447Y-115589692D01*
X108828060Y-115550581D01*
X108821892Y-115547167D01*
X108731542Y-115520212D01*
X108636638Y-115524670D01*
G36*
X107747919Y-115680289D02*
X107748167Y-115826320D01*
X107749128Y-115938655D01*
X107751206Y-116022678D01*
X107754807Y-116083769D01*
X107760335Y-116127309D01*
X107768196Y-116158679D01*
X107778793Y-116183262D01*
X107786818Y-116197294D01*
X107853272Y-116273388D01*
X107937530Y-116321084D01*
X108030751Y-116338199D01*
X108124100Y-116322546D01*
X108179688Y-116294418D01*
X108238043Y-116245760D01*
X108277814Y-116186333D01*
X108301810Y-116108507D01*
X108312839Y-116004652D01*
X108314401Y-115928462D01*
X108314191Y-115922986D01*
X108177692Y-115922986D01*
X108176859Y-116010355D01*
X108173039Y-116068192D01*
X108164254Y-116106029D01*
X108148526Y-116133398D01*
X108129734Y-116154042D01*
X108066625Y-116193890D01*
X107998863Y-116197295D01*
X107934821Y-116164025D01*
X107929836Y-116159517D01*
X107908561Y-116136067D01*
X107895221Y-116108166D01*
X107887999Y-116066641D01*
X107885077Y-116002316D01*
X107884615Y-115931200D01*
X107885617Y-115841858D01*
X107889762Y-115782258D01*
X107898764Y-115743089D01*
X107914333Y-115715040D01*
X107927098Y-115700144D01*
X107986400Y-115662575D01*
X108054699Y-115658057D01*
X108119890Y-115686753D01*
X108132472Y-115697406D01*
X108153889Y-115721063D01*
X108167256Y-115749251D01*
X108174434Y-115791245D01*
X108177281Y-115856319D01*
X108177692Y-115922986D01*
X108314191Y-115922986D01*
X108309678Y-115805765D01*
X108293638Y-115713577D01*
X108263472Y-115644269D01*
X108216371Y-115590211D01*
X108179688Y-115562505D01*
X108113010Y-115532572D01*
X108035728Y-115518678D01*
X107963890Y-115522397D01*
X107923692Y-115537400D01*
X107907918Y-115541670D01*
X107897450Y-115525750D01*
X107890144Y-115483089D01*
X107884615Y-115418106D01*
X107878563Y-115345732D01*
X107870156Y-115302187D01*
X107854859Y-115277287D01*
X107828136Y-115260845D01*
X107811346Y-115253564D01*
X107747846Y-115226963D01*
X107747919Y-115680289D01*
X107747919Y-115680289D01*
G37*
X107747919Y-115680289D02*
X107748167Y-115826320D01*
X107749128Y-115938655D01*
X107751206Y-116022678D01*
X107754807Y-116083769D01*
X107760335Y-116127309D01*
X107768196Y-116158679D01*
X107778793Y-116183262D01*
X107786818Y-116197294D01*
X107853272Y-116273388D01*
X107937530Y-116321084D01*
X108030751Y-116338199D01*
X108124100Y-116322546D01*
X108179688Y-116294418D01*
X108238043Y-116245760D01*
X108277814Y-116186333D01*
X108301810Y-116108507D01*
X108312839Y-116004652D01*
X108314401Y-115928462D01*
X108314191Y-115922986D01*
X108177692Y-115922986D01*
X108176859Y-116010355D01*
X108173039Y-116068192D01*
X108164254Y-116106029D01*
X108148526Y-116133398D01*
X108129734Y-116154042D01*
X108066625Y-116193890D01*
X107998863Y-116197295D01*
X107934821Y-116164025D01*
X107929836Y-116159517D01*
X107908561Y-116136067D01*
X107895221Y-116108166D01*
X107887999Y-116066641D01*
X107885077Y-116002316D01*
X107884615Y-115931200D01*
X107885617Y-115841858D01*
X107889762Y-115782258D01*
X107898764Y-115743089D01*
X107914333Y-115715040D01*
X107927098Y-115700144D01*
X107986400Y-115662575D01*
X108054699Y-115658057D01*
X108119890Y-115686753D01*
X108132472Y-115697406D01*
X108153889Y-115721063D01*
X108167256Y-115749251D01*
X108174434Y-115791245D01*
X108177281Y-115856319D01*
X108177692Y-115922986D01*
X108314191Y-115922986D01*
X108309678Y-115805765D01*
X108293638Y-115713577D01*
X108263472Y-115644269D01*
X108216371Y-115590211D01*
X108179688Y-115562505D01*
X108113010Y-115532572D01*
X108035728Y-115518678D01*
X107963890Y-115522397D01*
X107923692Y-115537400D01*
X107907918Y-115541670D01*
X107897450Y-115525750D01*
X107890144Y-115483089D01*
X107884615Y-115418106D01*
X107878563Y-115345732D01*
X107870156Y-115302187D01*
X107854859Y-115277287D01*
X107828136Y-115260845D01*
X107811346Y-115253564D01*
X107747846Y-115226963D01*
X107747919Y-115680289D01*
G36*
X106954071Y-115536662D02*
X106951089Y-115588068D01*
X106948753Y-115666192D01*
X106947251Y-115764857D01*
X106946769Y-115868343D01*
X106946769Y-116218533D01*
X107008599Y-116280363D01*
X107051207Y-116318462D01*
X107088610Y-116333895D01*
X107139730Y-116332918D01*
X107160022Y-116330433D01*
X107223446Y-116323200D01*
X107275905Y-116319055D01*
X107288692Y-116318672D01*
X107331801Y-116321176D01*
X107393456Y-116327462D01*
X107417362Y-116330433D01*
X107476078Y-116335028D01*
X107515536Y-116325046D01*
X107554662Y-116294228D01*
X107568785Y-116280363D01*
X107630615Y-116218533D01*
X107630615Y-115563503D01*
X107580850Y-115540829D01*
X107537998Y-115524034D01*
X107512927Y-115518154D01*
X107506499Y-115536736D01*
X107500491Y-115588655D01*
X107495303Y-115668172D01*
X107491336Y-115769546D01*
X107489423Y-115855192D01*
X107484077Y-116192231D01*
X107437440Y-116198825D01*
X107395024Y-116194214D01*
X107374240Y-116179287D01*
X107368430Y-116151377D01*
X107363470Y-116091925D01*
X107359754Y-116008466D01*
X107357676Y-115908532D01*
X107357376Y-115857104D01*
X107357077Y-115561054D01*
X107295546Y-115539604D01*
X107251996Y-115525020D01*
X107228306Y-115518219D01*
X107227623Y-115518154D01*
X107225246Y-115536642D01*
X107222634Y-115587906D01*
X107220005Y-115665649D01*
X107217579Y-115763574D01*
X107215885Y-115855192D01*
X107210539Y-116192231D01*
X107093308Y-116192231D01*
X107087928Y-115884746D01*
X107082549Y-115577261D01*
X107025399Y-115547707D01*
X106983203Y-115527413D01*
X106958230Y-115518204D01*
X106957509Y-115518154D01*
X106954071Y-115536662D01*
X106954071Y-115536662D01*
G37*
X106954071Y-115536662D02*
X106951089Y-115588068D01*
X106948753Y-115666192D01*
X106947251Y-115764857D01*
X106946769Y-115868343D01*
X106946769Y-116218533D01*
X107008599Y-116280363D01*
X107051207Y-116318462D01*
X107088610Y-116333895D01*
X107139730Y-116332918D01*
X107160022Y-116330433D01*
X107223446Y-116323200D01*
X107275905Y-116319055D01*
X107288692Y-116318672D01*
X107331801Y-116321176D01*
X107393456Y-116327462D01*
X107417362Y-116330433D01*
X107476078Y-116335028D01*
X107515536Y-116325046D01*
X107554662Y-116294228D01*
X107568785Y-116280363D01*
X107630615Y-116218533D01*
X107630615Y-115563503D01*
X107580850Y-115540829D01*
X107537998Y-115524034D01*
X107512927Y-115518154D01*
X107506499Y-115536736D01*
X107500491Y-115588655D01*
X107495303Y-115668172D01*
X107491336Y-115769546D01*
X107489423Y-115855192D01*
X107484077Y-116192231D01*
X107437440Y-116198825D01*
X107395024Y-116194214D01*
X107374240Y-116179287D01*
X107368430Y-116151377D01*
X107363470Y-116091925D01*
X107359754Y-116008466D01*
X107357676Y-115908532D01*
X107357376Y-115857104D01*
X107357077Y-115561054D01*
X107295546Y-115539604D01*
X107251996Y-115525020D01*
X107228306Y-115518219D01*
X107227623Y-115518154D01*
X107225246Y-115536642D01*
X107222634Y-115587906D01*
X107220005Y-115665649D01*
X107217579Y-115763574D01*
X107215885Y-115855192D01*
X107210539Y-116192231D01*
X107093308Y-116192231D01*
X107087928Y-115884746D01*
X107082549Y-115577261D01*
X107025399Y-115547707D01*
X106983203Y-115527413D01*
X106958230Y-115518204D01*
X106957509Y-115518154D01*
X106954071Y-115536662D01*
G36*
X106462667Y-115533528D02*
X106406410Y-115559117D01*
X106362253Y-115590124D01*
X106329899Y-115624795D01*
X106307562Y-115669520D01*
X106293454Y-115730692D01*
X106285789Y-115814701D01*
X106282780Y-115927940D01*
X106282462Y-116002509D01*
X106282462Y-116293420D01*
X106332227Y-116316095D01*
X106371424Y-116332667D01*
X106390843Y-116338769D01*
X106394558Y-116320610D01*
X106397505Y-116271648D01*
X106399309Y-116200153D01*
X106399692Y-116143385D01*
X106401339Y-116061371D01*
X106405778Y-115996309D01*
X106412260Y-115956467D01*
X106417410Y-115948000D01*
X106452023Y-115956646D01*
X106506360Y-115978823D01*
X106569278Y-116008886D01*
X106629632Y-116041192D01*
X106676279Y-116070098D01*
X106698074Y-116089961D01*
X106698161Y-116090175D01*
X106696286Y-116126935D01*
X106679475Y-116162026D01*
X106649961Y-116190528D01*
X106606884Y-116200061D01*
X106570068Y-116198950D01*
X106517926Y-116198133D01*
X106490556Y-116210349D01*
X106474118Y-116242624D01*
X106472045Y-116248710D01*
X106464919Y-116294739D01*
X106483976Y-116322687D01*
X106533647Y-116336007D01*
X106587303Y-116338470D01*
X106683858Y-116320210D01*
X106733841Y-116294131D01*
X106795571Y-116232868D01*
X106828310Y-116157670D01*
X106831247Y-116078211D01*
X106803576Y-116004167D01*
X106761953Y-115957769D01*
X106720396Y-115931793D01*
X106655078Y-115898907D01*
X106578962Y-115865557D01*
X106566274Y-115860461D01*
X106482667Y-115823565D01*
X106434470Y-115791046D01*
X106418970Y-115758718D01*
X106433450Y-115722394D01*
X106458308Y-115694000D01*
X106517061Y-115659039D01*
X106581707Y-115656417D01*
X106640992Y-115683358D01*
X106683661Y-115737088D01*
X106689261Y-115750950D01*
X106721867Y-115801936D01*
X106769470Y-115839787D01*
X106829539Y-115870850D01*
X106829539Y-115782768D01*
X106826003Y-115728951D01*
X106810844Y-115686534D01*
X106777232Y-115641279D01*
X106744965Y-115606420D01*
X106694791Y-115557062D01*
X106655807Y-115530547D01*
X106613936Y-115519911D01*
X106566540Y-115518154D01*
X106462667Y-115533528D01*
X106462667Y-115533528D01*
G37*
X106462667Y-115533528D02*
X106406410Y-115559117D01*
X106362253Y-115590124D01*
X106329899Y-115624795D01*
X106307562Y-115669520D01*
X106293454Y-115730692D01*
X106285789Y-115814701D01*
X106282780Y-115927940D01*
X106282462Y-116002509D01*
X106282462Y-116293420D01*
X106332227Y-116316095D01*
X106371424Y-116332667D01*
X106390843Y-116338769D01*
X106394558Y-116320610D01*
X106397505Y-116271648D01*
X106399309Y-116200153D01*
X106399692Y-116143385D01*
X106401339Y-116061371D01*
X106405778Y-115996309D01*
X106412260Y-115956467D01*
X106417410Y-115948000D01*
X106452023Y-115956646D01*
X106506360Y-115978823D01*
X106569278Y-116008886D01*
X106629632Y-116041192D01*
X106676279Y-116070098D01*
X106698074Y-116089961D01*
X106698161Y-116090175D01*
X106696286Y-116126935D01*
X106679475Y-116162026D01*
X106649961Y-116190528D01*
X106606884Y-116200061D01*
X106570068Y-116198950D01*
X106517926Y-116198133D01*
X106490556Y-116210349D01*
X106474118Y-116242624D01*
X106472045Y-116248710D01*
X106464919Y-116294739D01*
X106483976Y-116322687D01*
X106533647Y-116336007D01*
X106587303Y-116338470D01*
X106683858Y-116320210D01*
X106733841Y-116294131D01*
X106795571Y-116232868D01*
X106828310Y-116157670D01*
X106831247Y-116078211D01*
X106803576Y-116004167D01*
X106761953Y-115957769D01*
X106720396Y-115931793D01*
X106655078Y-115898907D01*
X106578962Y-115865557D01*
X106566274Y-115860461D01*
X106482667Y-115823565D01*
X106434470Y-115791046D01*
X106418970Y-115758718D01*
X106433450Y-115722394D01*
X106458308Y-115694000D01*
X106517061Y-115659039D01*
X106581707Y-115656417D01*
X106640992Y-115683358D01*
X106683661Y-115737088D01*
X106689261Y-115750950D01*
X106721867Y-115801936D01*
X106769470Y-115839787D01*
X106829539Y-115870850D01*
X106829539Y-115782768D01*
X106826003Y-115728951D01*
X106810844Y-115686534D01*
X106777232Y-115641279D01*
X106744965Y-115606420D01*
X106694791Y-115557062D01*
X106655807Y-115530547D01*
X106613936Y-115519911D01*
X106566540Y-115518154D01*
X106462667Y-115533528D01*
G36*
X105779193Y-115536782D02*
X105755839Y-115546988D01*
X105700098Y-115591134D01*
X105652431Y-115654967D01*
X105622952Y-115723087D01*
X105618154Y-115756670D01*
X105634240Y-115803556D01*
X105669525Y-115828365D01*
X105707356Y-115843387D01*
X105724679Y-115846155D01*
X105733114Y-115826066D01*
X105749770Y-115782351D01*
X105757077Y-115762598D01*
X105798052Y-115694271D01*
X105857378Y-115660191D01*
X105933448Y-115661239D01*
X105939082Y-115662581D01*
X105979695Y-115681836D01*
X106009552Y-115719375D01*
X106029945Y-115779809D01*
X106042164Y-115867751D01*
X106047500Y-115987813D01*
X106048000Y-116051698D01*
X106048248Y-116152403D01*
X106049874Y-116221054D01*
X106054199Y-116264673D01*
X106062546Y-116290282D01*
X106076235Y-116304903D01*
X106096589Y-116315558D01*
X106097766Y-116316095D01*
X106136962Y-116332667D01*
X106156381Y-116338769D01*
X106159365Y-116320319D01*
X106161919Y-116269323D01*
X106163860Y-116192308D01*
X106165003Y-116095805D01*
X106165231Y-116025184D01*
X106164068Y-115888525D01*
X106159521Y-115784851D01*
X106150001Y-115708108D01*
X106133919Y-115652246D01*
X106109687Y-115611212D01*
X106075714Y-115578954D01*
X106042167Y-115556440D01*
X105961501Y-115526476D01*
X105867619Y-115519718D01*
X105779193Y-115536782D01*
X105779193Y-115536782D01*
G37*
X105779193Y-115536782D02*
X105755839Y-115546988D01*
X105700098Y-115591134D01*
X105652431Y-115654967D01*
X105622952Y-115723087D01*
X105618154Y-115756670D01*
X105634240Y-115803556D01*
X105669525Y-115828365D01*
X105707356Y-115843387D01*
X105724679Y-115846155D01*
X105733114Y-115826066D01*
X105749770Y-115782351D01*
X105757077Y-115762598D01*
X105798052Y-115694271D01*
X105857378Y-115660191D01*
X105933448Y-115661239D01*
X105939082Y-115662581D01*
X105979695Y-115681836D01*
X106009552Y-115719375D01*
X106029945Y-115779809D01*
X106042164Y-115867751D01*
X106047500Y-115987813D01*
X106048000Y-116051698D01*
X106048248Y-116152403D01*
X106049874Y-116221054D01*
X106054199Y-116264673D01*
X106062546Y-116290282D01*
X106076235Y-116304903D01*
X106096589Y-116315558D01*
X106097766Y-116316095D01*
X106136962Y-116332667D01*
X106156381Y-116338769D01*
X106159365Y-116320319D01*
X106161919Y-116269323D01*
X106163860Y-116192308D01*
X106165003Y-116095805D01*
X106165231Y-116025184D01*
X106164068Y-115888525D01*
X106159521Y-115784851D01*
X106150001Y-115708108D01*
X106133919Y-115652246D01*
X106109687Y-115611212D01*
X106075714Y-115578954D01*
X106042167Y-115556440D01*
X105961501Y-115526476D01*
X105867619Y-115519718D01*
X105779193Y-115536782D01*
G36*
X105104776Y-115547838D02*
X105027472Y-115598361D01*
X104990186Y-115643590D01*
X104960647Y-115725663D01*
X104958301Y-115790607D01*
X104963615Y-115877445D01*
X105163885Y-115965103D01*
X105261261Y-116009887D01*
X105324887Y-116045913D01*
X105357971Y-116077117D01*
X105363720Y-116107436D01*
X105345342Y-116140805D01*
X105325077Y-116162923D01*
X105266111Y-116198393D01*
X105201976Y-116200879D01*
X105143074Y-116173235D01*
X105099803Y-116118320D01*
X105092064Y-116098928D01*
X105054994Y-116038364D01*
X105012346Y-116012552D01*
X104953846Y-115990471D01*
X104953846Y-116074184D01*
X104959018Y-116131150D01*
X104979277Y-116179189D01*
X105021738Y-116234346D01*
X105028049Y-116241514D01*
X105075280Y-116290585D01*
X105115879Y-116316920D01*
X105166672Y-116329035D01*
X105208780Y-116333003D01*
X105284098Y-116333991D01*
X105337714Y-116321466D01*
X105371162Y-116302869D01*
X105423732Y-116261975D01*
X105460121Y-116217748D01*
X105483150Y-116162126D01*
X105495641Y-116087047D01*
X105500413Y-115984449D01*
X105500794Y-115932376D01*
X105499499Y-115869948D01*
X105381529Y-115869948D01*
X105380161Y-115903438D01*
X105376751Y-115908923D01*
X105354247Y-115901472D01*
X105305818Y-115881753D01*
X105241092Y-115853718D01*
X105227557Y-115847692D01*
X105145756Y-115806096D01*
X105100688Y-115769538D01*
X105090783Y-115735296D01*
X105114474Y-115700648D01*
X105134040Y-115685339D01*
X105204640Y-115654721D01*
X105270720Y-115659780D01*
X105326041Y-115697151D01*
X105364364Y-115763473D01*
X105376651Y-115816116D01*
X105381529Y-115869948D01*
X105499499Y-115869948D01*
X105498270Y-115810720D01*
X105488968Y-115720710D01*
X105470540Y-115655167D01*
X105440640Y-115606912D01*
X105396920Y-115568767D01*
X105377859Y-115556440D01*
X105291274Y-115524336D01*
X105196478Y-115522316D01*
X105104776Y-115547838D01*
X105104776Y-115547838D01*
G37*
X105104776Y-115547838D02*
X105027472Y-115598361D01*
X104990186Y-115643590D01*
X104960647Y-115725663D01*
X104958301Y-115790607D01*
X104963615Y-115877445D01*
X105163885Y-115965103D01*
X105261261Y-116009887D01*
X105324887Y-116045913D01*
X105357971Y-116077117D01*
X105363720Y-116107436D01*
X105345342Y-116140805D01*
X105325077Y-116162923D01*
X105266111Y-116198393D01*
X105201976Y-116200879D01*
X105143074Y-116173235D01*
X105099803Y-116118320D01*
X105092064Y-116098928D01*
X105054994Y-116038364D01*
X105012346Y-116012552D01*
X104953846Y-115990471D01*
X104953846Y-116074184D01*
X104959018Y-116131150D01*
X104979277Y-116179189D01*
X105021738Y-116234346D01*
X105028049Y-116241514D01*
X105075280Y-116290585D01*
X105115879Y-116316920D01*
X105166672Y-116329035D01*
X105208780Y-116333003D01*
X105284098Y-116333991D01*
X105337714Y-116321466D01*
X105371162Y-116302869D01*
X105423732Y-116261975D01*
X105460121Y-116217748D01*
X105483150Y-116162126D01*
X105495641Y-116087047D01*
X105500413Y-115984449D01*
X105500794Y-115932376D01*
X105499499Y-115869948D01*
X105381529Y-115869948D01*
X105380161Y-115903438D01*
X105376751Y-115908923D01*
X105354247Y-115901472D01*
X105305818Y-115881753D01*
X105241092Y-115853718D01*
X105227557Y-115847692D01*
X105145756Y-115806096D01*
X105100688Y-115769538D01*
X105090783Y-115735296D01*
X105114474Y-115700648D01*
X105134040Y-115685339D01*
X105204640Y-115654721D01*
X105270720Y-115659780D01*
X105326041Y-115697151D01*
X105364364Y-115763473D01*
X105376651Y-115816116D01*
X105381529Y-115869948D01*
X105499499Y-115869948D01*
X105498270Y-115810720D01*
X105488968Y-115720710D01*
X105470540Y-115655167D01*
X105440640Y-115606912D01*
X105396920Y-115568767D01*
X105377859Y-115556440D01*
X105291274Y-115524336D01*
X105196478Y-115522316D01*
X105104776Y-115547838D01*
G36*
X109210122Y-109187776D02*
X109104388Y-109188355D01*
X109027868Y-109189922D01*
X108975628Y-109192972D01*
X108942737Y-109197996D01*
X108924263Y-109205489D01*
X108915273Y-109215944D01*
X108910837Y-109229853D01*
X108910406Y-109231654D01*
X108903667Y-109264145D01*
X108891192Y-109328252D01*
X108874281Y-109417151D01*
X108854229Y-109524019D01*
X108832336Y-109642033D01*
X108831571Y-109646178D01*
X108809641Y-109761831D01*
X108789123Y-109864014D01*
X108771341Y-109946598D01*
X108757619Y-110003456D01*
X108749282Y-110028458D01*
X108748884Y-110028901D01*
X108724323Y-110041110D01*
X108673685Y-110061456D01*
X108607905Y-110085545D01*
X108607539Y-110085674D01*
X108524683Y-110116818D01*
X108427000Y-110156491D01*
X108334923Y-110196381D01*
X108330566Y-110198353D01*
X108180593Y-110266420D01*
X107848502Y-110039639D01*
X107746626Y-109970504D01*
X107654343Y-109908697D01*
X107576997Y-109857733D01*
X107519936Y-109821127D01*
X107488505Y-109802394D01*
X107485521Y-109801004D01*
X107462679Y-109807190D01*
X107420018Y-109837035D01*
X107355872Y-109891947D01*
X107268579Y-109973334D01*
X107179465Y-110059922D01*
X107093559Y-110145247D01*
X107016673Y-110223108D01*
X106953436Y-110288697D01*
X106908477Y-110337205D01*
X106886424Y-110363825D01*
X106885604Y-110365195D01*
X106883166Y-110383463D01*
X106892350Y-110413295D01*
X106915426Y-110458721D01*
X106954663Y-110523770D01*
X107012330Y-110612470D01*
X107089205Y-110726657D01*
X107157430Y-110827162D01*
X107218418Y-110917303D01*
X107268644Y-110991849D01*
X107304584Y-111045565D01*
X107322713Y-111073218D01*
X107323854Y-111075095D01*
X107321641Y-111101590D01*
X107304862Y-111153086D01*
X107276858Y-111219851D01*
X107266878Y-111241172D01*
X107223328Y-111336159D01*
X107176866Y-111443937D01*
X107139123Y-111537192D01*
X107111927Y-111606406D01*
X107090325Y-111659006D01*
X107077842Y-111686497D01*
X107076291Y-111688616D01*
X107053332Y-111692124D01*
X106999214Y-111701738D01*
X106921132Y-111716089D01*
X106826281Y-111733807D01*
X106721857Y-111753525D01*
X106615056Y-111773874D01*
X106513074Y-111793486D01*
X106423106Y-111810991D01*
X106352347Y-111825022D01*
X106307994Y-111834209D01*
X106297115Y-111836807D01*
X106285878Y-111843218D01*
X106277395Y-111857697D01*
X106271286Y-111885133D01*
X106267168Y-111930411D01*
X106264659Y-111998420D01*
X106263379Y-112094047D01*
X106262946Y-112222180D01*
X106262923Y-112274701D01*
X106262923Y-112701845D01*
X106365500Y-112722091D01*
X106422569Y-112733070D01*
X106507731Y-112749095D01*
X106610628Y-112768233D01*
X106720904Y-112788551D01*
X106751385Y-112794132D01*
X106853145Y-112813917D01*
X106941795Y-112833373D01*
X107009892Y-112850697D01*
X107049996Y-112864088D01*
X107056677Y-112868079D01*
X107073081Y-112896342D01*
X107096601Y-112951109D01*
X107122684Y-113021588D01*
X107127858Y-113036769D01*
X107162044Y-113130896D01*
X107204477Y-113237101D01*
X107246003Y-113332473D01*
X107246208Y-113332916D01*
X107315360Y-113482525D01*
X106860488Y-114151617D01*
X107152500Y-114444116D01*
X107240820Y-114531170D01*
X107321375Y-114607909D01*
X107389640Y-114670237D01*
X107441092Y-114714056D01*
X107471206Y-114735270D01*
X107475526Y-114736616D01*
X107500889Y-114726016D01*
X107552642Y-114696547D01*
X107625132Y-114651705D01*
X107712706Y-114594984D01*
X107807388Y-114531462D01*
X107903484Y-114466668D01*
X107989163Y-114410287D01*
X108058984Y-114365788D01*
X108107506Y-114336639D01*
X108129218Y-114326308D01*
X108155707Y-114335050D01*
X108205938Y-114358087D01*
X108269549Y-114390631D01*
X108276292Y-114394249D01*
X108361954Y-114437210D01*
X108420694Y-114458279D01*
X108457228Y-114458503D01*
X108476269Y-114438928D01*
X108476380Y-114438654D01*
X108485898Y-114415472D01*
X108508597Y-114360441D01*
X108542718Y-114277822D01*
X108586500Y-114171872D01*
X108638184Y-114046852D01*
X108696008Y-113907020D01*
X108752009Y-113771637D01*
X108813553Y-113622234D01*
X108870061Y-113483832D01*
X108919839Y-113360673D01*
X108961194Y-113257002D01*
X108992432Y-113177059D01*
X109011859Y-113125088D01*
X109017846Y-113105692D01*
X109002832Y-113083443D01*
X108963561Y-113047982D01*
X108911193Y-113008887D01*
X108762059Y-112885245D01*
X108645489Y-112743522D01*
X108562882Y-112586704D01*
X108515634Y-112417775D01*
X108505143Y-112239722D01*
X108512769Y-112157539D01*
X108554318Y-111987031D01*
X108625877Y-111836459D01*
X108723005Y-111707309D01*
X108841266Y-111601064D01*
X108976220Y-111519210D01*
X109123429Y-111463232D01*
X109278456Y-111434615D01*
X109436861Y-111434844D01*
X109594206Y-111465405D01*
X109746054Y-111527782D01*
X109887965Y-111623460D01*
X109947197Y-111677572D01*
X110060797Y-111816520D01*
X110139894Y-111968361D01*
X110185014Y-112128667D01*
X110196684Y-112293012D01*
X110175431Y-112456971D01*
X110121780Y-112616118D01*
X110036260Y-112766025D01*
X109919395Y-112902267D01*
X109788807Y-113008887D01*
X109734412Y-113049642D01*
X109695986Y-113084718D01*
X109682154Y-113105726D01*
X109689397Y-113128635D01*
X109709995Y-113183365D01*
X109742254Y-113265672D01*
X109784479Y-113371315D01*
X109834977Y-113496050D01*
X109892052Y-113635636D01*
X109948146Y-113771670D01*
X110010033Y-113921201D01*
X110067356Y-114059767D01*
X110118356Y-114183107D01*
X110161273Y-114286964D01*
X110194347Y-114367080D01*
X110215819Y-114419195D01*
X110223775Y-114438654D01*
X110242571Y-114458423D01*
X110278926Y-114458365D01*
X110337521Y-114437441D01*
X110423032Y-114394613D01*
X110423708Y-114394249D01*
X110488093Y-114361012D01*
X110540139Y-114336802D01*
X110569488Y-114326404D01*
X110570783Y-114326308D01*
X110592876Y-114336855D01*
X110641652Y-114366184D01*
X110711669Y-114410827D01*
X110797486Y-114467314D01*
X110892612Y-114531462D01*
X110989460Y-114596411D01*
X111076747Y-114652896D01*
X111148819Y-114697421D01*
X111200023Y-114726490D01*
X111224474Y-114736616D01*
X111246990Y-114723307D01*
X111292258Y-114686112D01*
X111355756Y-114629128D01*
X111432961Y-114556449D01*
X111519349Y-114472171D01*
X111547601Y-114444016D01*
X111839713Y-114151416D01*
X111617369Y-113825104D01*
X111549798Y-113724897D01*
X111490493Y-113634963D01*
X111442783Y-113560510D01*
X111409993Y-113506751D01*
X111395452Y-113478894D01*
X111395026Y-113476912D01*
X111402692Y-113450655D01*
X111423311Y-113397837D01*
X111453315Y-113327310D01*
X111474375Y-113280093D01*
X111513752Y-113189694D01*
X111550835Y-113098366D01*
X111579585Y-113021200D01*
X111587395Y-112997692D01*
X111609583Y-112934916D01*
X111631273Y-112886411D01*
X111643187Y-112868079D01*
X111669477Y-112856859D01*
X111726858Y-112840954D01*
X111807882Y-112822167D01*
X111905105Y-112802299D01*
X111948615Y-112794132D01*
X112059104Y-112773829D01*
X112165084Y-112754170D01*
X112256199Y-112737088D01*
X112322092Y-112724518D01*
X112334500Y-112722091D01*
X112437077Y-112701845D01*
X112437077Y-112274701D01*
X112436847Y-112134246D01*
X112435901Y-112027979D01*
X112433859Y-111951013D01*
X112430338Y-111898460D01*
X112424957Y-111865433D01*
X112417334Y-111847045D01*
X112407088Y-111838408D01*
X112402885Y-111836807D01*
X112377530Y-111831127D01*
X112321516Y-111819795D01*
X112242036Y-111804179D01*
X112146288Y-111785647D01*
X112041467Y-111765569D01*
X111934768Y-111745312D01*
X111833387Y-111726246D01*
X111744521Y-111709739D01*
X111675363Y-111697159D01*
X111633111Y-111689875D01*
X111623710Y-111688616D01*
X111615193Y-111671763D01*
X111596340Y-111626870D01*
X111570676Y-111562430D01*
X111560877Y-111537192D01*
X111521352Y-111439686D01*
X111474808Y-111331959D01*
X111433123Y-111241172D01*
X111402450Y-111171753D01*
X111382044Y-111114710D01*
X111375232Y-111079777D01*
X111376318Y-111075095D01*
X111390715Y-111052991D01*
X111423588Y-111003831D01*
X111471410Y-110932848D01*
X111530652Y-110845278D01*
X111597785Y-110746357D01*
X111611059Y-110726830D01*
X111688954Y-110611140D01*
X111746213Y-110523044D01*
X111785119Y-110458486D01*
X111807956Y-110413411D01*
X111817006Y-110383763D01*
X111814552Y-110365485D01*
X111814489Y-110365369D01*
X111795173Y-110341361D01*
X111752449Y-110294947D01*
X111690949Y-110230937D01*
X111615302Y-110154145D01*
X111530139Y-110069382D01*
X111520535Y-110059922D01*
X111413210Y-109955989D01*
X111330385Y-109879675D01*
X111270395Y-109829571D01*
X111231577Y-109804270D01*
X111214480Y-109801004D01*
X111189527Y-109815250D01*
X111137745Y-109848156D01*
X111064480Y-109896208D01*
X110975080Y-109955890D01*
X110874889Y-110023688D01*
X110851499Y-110039639D01*
X110519407Y-110266420D01*
X110369435Y-110198353D01*
X110278230Y-110158685D01*
X110180331Y-110118791D01*
X110096169Y-110086983D01*
X110092462Y-110085674D01*
X110026631Y-110061576D01*
X109975884Y-110041200D01*
X109951158Y-110028936D01*
X109951116Y-110028901D01*
X109943271Y-110006734D01*
X109929934Y-109952217D01*
X109912430Y-109871480D01*
X109892083Y-109770650D01*
X109870218Y-109655856D01*
X109868429Y-109646178D01*
X109846496Y-109527904D01*
X109826360Y-109420542D01*
X109809320Y-109330917D01*
X109796672Y-109265851D01*
X109789716Y-109232168D01*
X109789594Y-109231654D01*
X109785361Y-109217325D01*
X109777129Y-109206507D01*
X109759967Y-109198706D01*
X109728942Y-109193429D01*
X109679122Y-109190182D01*
X109605576Y-109188472D01*
X109503371Y-109187807D01*
X109367575Y-109187693D01*
X109350000Y-109187692D01*
X109210122Y-109187776D01*
X109210122Y-109187776D01*
G37*
X109210122Y-109187776D02*
X109104388Y-109188355D01*
X109027868Y-109189922D01*
X108975628Y-109192972D01*
X108942737Y-109197996D01*
X108924263Y-109205489D01*
X108915273Y-109215944D01*
X108910837Y-109229853D01*
X108910406Y-109231654D01*
X108903667Y-109264145D01*
X108891192Y-109328252D01*
X108874281Y-109417151D01*
X108854229Y-109524019D01*
X108832336Y-109642033D01*
X108831571Y-109646178D01*
X108809641Y-109761831D01*
X108789123Y-109864014D01*
X108771341Y-109946598D01*
X108757619Y-110003456D01*
X108749282Y-110028458D01*
X108748884Y-110028901D01*
X108724323Y-110041110D01*
X108673685Y-110061456D01*
X108607905Y-110085545D01*
X108607539Y-110085674D01*
X108524683Y-110116818D01*
X108427000Y-110156491D01*
X108334923Y-110196381D01*
X108330566Y-110198353D01*
X108180593Y-110266420D01*
X107848502Y-110039639D01*
X107746626Y-109970504D01*
X107654343Y-109908697D01*
X107576997Y-109857733D01*
X107519936Y-109821127D01*
X107488505Y-109802394D01*
X107485521Y-109801004D01*
X107462679Y-109807190D01*
X107420018Y-109837035D01*
X107355872Y-109891947D01*
X107268579Y-109973334D01*
X107179465Y-110059922D01*
X107093559Y-110145247D01*
X107016673Y-110223108D01*
X106953436Y-110288697D01*
X106908477Y-110337205D01*
X106886424Y-110363825D01*
X106885604Y-110365195D01*
X106883166Y-110383463D01*
X106892350Y-110413295D01*
X106915426Y-110458721D01*
X106954663Y-110523770D01*
X107012330Y-110612470D01*
X107089205Y-110726657D01*
X107157430Y-110827162D01*
X107218418Y-110917303D01*
X107268644Y-110991849D01*
X107304584Y-111045565D01*
X107322713Y-111073218D01*
X107323854Y-111075095D01*
X107321641Y-111101590D01*
X107304862Y-111153086D01*
X107276858Y-111219851D01*
X107266878Y-111241172D01*
X107223328Y-111336159D01*
X107176866Y-111443937D01*
X107139123Y-111537192D01*
X107111927Y-111606406D01*
X107090325Y-111659006D01*
X107077842Y-111686497D01*
X107076291Y-111688616D01*
X107053332Y-111692124D01*
X106999214Y-111701738D01*
X106921132Y-111716089D01*
X106826281Y-111733807D01*
X106721857Y-111753525D01*
X106615056Y-111773874D01*
X106513074Y-111793486D01*
X106423106Y-111810991D01*
X106352347Y-111825022D01*
X106307994Y-111834209D01*
X106297115Y-111836807D01*
X106285878Y-111843218D01*
X106277395Y-111857697D01*
X106271286Y-111885133D01*
X106267168Y-111930411D01*
X106264659Y-111998420D01*
X106263379Y-112094047D01*
X106262946Y-112222180D01*
X106262923Y-112274701D01*
X106262923Y-112701845D01*
X106365500Y-112722091D01*
X106422569Y-112733070D01*
X106507731Y-112749095D01*
X106610628Y-112768233D01*
X106720904Y-112788551D01*
X106751385Y-112794132D01*
X106853145Y-112813917D01*
X106941795Y-112833373D01*
X107009892Y-112850697D01*
X107049996Y-112864088D01*
X107056677Y-112868079D01*
X107073081Y-112896342D01*
X107096601Y-112951109D01*
X107122684Y-113021588D01*
X107127858Y-113036769D01*
X107162044Y-113130896D01*
X107204477Y-113237101D01*
X107246003Y-113332473D01*
X107246208Y-113332916D01*
X107315360Y-113482525D01*
X106860488Y-114151617D01*
X107152500Y-114444116D01*
X107240820Y-114531170D01*
X107321375Y-114607909D01*
X107389640Y-114670237D01*
X107441092Y-114714056D01*
X107471206Y-114735270D01*
X107475526Y-114736616D01*
X107500889Y-114726016D01*
X107552642Y-114696547D01*
X107625132Y-114651705D01*
X107712706Y-114594984D01*
X107807388Y-114531462D01*
X107903484Y-114466668D01*
X107989163Y-114410287D01*
X108058984Y-114365788D01*
X108107506Y-114336639D01*
X108129218Y-114326308D01*
X108155707Y-114335050D01*
X108205938Y-114358087D01*
X108269549Y-114390631D01*
X108276292Y-114394249D01*
X108361954Y-114437210D01*
X108420694Y-114458279D01*
X108457228Y-114458503D01*
X108476269Y-114438928D01*
X108476380Y-114438654D01*
X108485898Y-114415472D01*
X108508597Y-114360441D01*
X108542718Y-114277822D01*
X108586500Y-114171872D01*
X108638184Y-114046852D01*
X108696008Y-113907020D01*
X108752009Y-113771637D01*
X108813553Y-113622234D01*
X108870061Y-113483832D01*
X108919839Y-113360673D01*
X108961194Y-113257002D01*
X108992432Y-113177059D01*
X109011859Y-113125088D01*
X109017846Y-113105692D01*
X109002832Y-113083443D01*
X108963561Y-113047982D01*
X108911193Y-113008887D01*
X108762059Y-112885245D01*
X108645489Y-112743522D01*
X108562882Y-112586704D01*
X108515634Y-112417775D01*
X108505143Y-112239722D01*
X108512769Y-112157539D01*
X108554318Y-111987031D01*
X108625877Y-111836459D01*
X108723005Y-111707309D01*
X108841266Y-111601064D01*
X108976220Y-111519210D01*
X109123429Y-111463232D01*
X109278456Y-111434615D01*
X109436861Y-111434844D01*
X109594206Y-111465405D01*
X109746054Y-111527782D01*
X109887965Y-111623460D01*
X109947197Y-111677572D01*
X110060797Y-111816520D01*
X110139894Y-111968361D01*
X110185014Y-112128667D01*
X110196684Y-112293012D01*
X110175431Y-112456971D01*
X110121780Y-112616118D01*
X110036260Y-112766025D01*
X109919395Y-112902267D01*
X109788807Y-113008887D01*
X109734412Y-113049642D01*
X109695986Y-113084718D01*
X109682154Y-113105726D01*
X109689397Y-113128635D01*
X109709995Y-113183365D01*
X109742254Y-113265672D01*
X109784479Y-113371315D01*
X109834977Y-113496050D01*
X109892052Y-113635636D01*
X109948146Y-113771670D01*
X110010033Y-113921201D01*
X110067356Y-114059767D01*
X110118356Y-114183107D01*
X110161273Y-114286964D01*
X110194347Y-114367080D01*
X110215819Y-114419195D01*
X110223775Y-114438654D01*
X110242571Y-114458423D01*
X110278926Y-114458365D01*
X110337521Y-114437441D01*
X110423032Y-114394613D01*
X110423708Y-114394249D01*
X110488093Y-114361012D01*
X110540139Y-114336802D01*
X110569488Y-114326404D01*
X110570783Y-114326308D01*
X110592876Y-114336855D01*
X110641652Y-114366184D01*
X110711669Y-114410827D01*
X110797486Y-114467314D01*
X110892612Y-114531462D01*
X110989460Y-114596411D01*
X111076747Y-114652896D01*
X111148819Y-114697421D01*
X111200023Y-114726490D01*
X111224474Y-114736616D01*
X111246990Y-114723307D01*
X111292258Y-114686112D01*
X111355756Y-114629128D01*
X111432961Y-114556449D01*
X111519349Y-114472171D01*
X111547601Y-114444016D01*
X111839713Y-114151416D01*
X111617369Y-113825104D01*
X111549798Y-113724897D01*
X111490493Y-113634963D01*
X111442783Y-113560510D01*
X111409993Y-113506751D01*
X111395452Y-113478894D01*
X111395026Y-113476912D01*
X111402692Y-113450655D01*
X111423311Y-113397837D01*
X111453315Y-113327310D01*
X111474375Y-113280093D01*
X111513752Y-113189694D01*
X111550835Y-113098366D01*
X111579585Y-113021200D01*
X111587395Y-112997692D01*
X111609583Y-112934916D01*
X111631273Y-112886411D01*
X111643187Y-112868079D01*
X111669477Y-112856859D01*
X111726858Y-112840954D01*
X111807882Y-112822167D01*
X111905105Y-112802299D01*
X111948615Y-112794132D01*
X112059104Y-112773829D01*
X112165084Y-112754170D01*
X112256199Y-112737088D01*
X112322092Y-112724518D01*
X112334500Y-112722091D01*
X112437077Y-112701845D01*
X112437077Y-112274701D01*
X112436847Y-112134246D01*
X112435901Y-112027979D01*
X112433859Y-111951013D01*
X112430338Y-111898460D01*
X112424957Y-111865433D01*
X112417334Y-111847045D01*
X112407088Y-111838408D01*
X112402885Y-111836807D01*
X112377530Y-111831127D01*
X112321516Y-111819795D01*
X112242036Y-111804179D01*
X112146288Y-111785647D01*
X112041467Y-111765569D01*
X111934768Y-111745312D01*
X111833387Y-111726246D01*
X111744521Y-111709739D01*
X111675363Y-111697159D01*
X111633111Y-111689875D01*
X111623710Y-111688616D01*
X111615193Y-111671763D01*
X111596340Y-111626870D01*
X111570676Y-111562430D01*
X111560877Y-111537192D01*
X111521352Y-111439686D01*
X111474808Y-111331959D01*
X111433123Y-111241172D01*
X111402450Y-111171753D01*
X111382044Y-111114710D01*
X111375232Y-111079777D01*
X111376318Y-111075095D01*
X111390715Y-111052991D01*
X111423588Y-111003831D01*
X111471410Y-110932848D01*
X111530652Y-110845278D01*
X111597785Y-110746357D01*
X111611059Y-110726830D01*
X111688954Y-110611140D01*
X111746213Y-110523044D01*
X111785119Y-110458486D01*
X111807956Y-110413411D01*
X111817006Y-110383763D01*
X111814552Y-110365485D01*
X111814489Y-110365369D01*
X111795173Y-110341361D01*
X111752449Y-110294947D01*
X111690949Y-110230937D01*
X111615302Y-110154145D01*
X111530139Y-110069382D01*
X111520535Y-110059922D01*
X111413210Y-109955989D01*
X111330385Y-109879675D01*
X111270395Y-109829571D01*
X111231577Y-109804270D01*
X111214480Y-109801004D01*
X111189527Y-109815250D01*
X111137745Y-109848156D01*
X111064480Y-109896208D01*
X110975080Y-109955890D01*
X110874889Y-110023688D01*
X110851499Y-110039639D01*
X110519407Y-110266420D01*
X110369435Y-110198353D01*
X110278230Y-110158685D01*
X110180331Y-110118791D01*
X110096169Y-110086983D01*
X110092462Y-110085674D01*
X110026631Y-110061576D01*
X109975884Y-110041200D01*
X109951158Y-110028936D01*
X109951116Y-110028901D01*
X109943271Y-110006734D01*
X109929934Y-109952217D01*
X109912430Y-109871480D01*
X109892083Y-109770650D01*
X109870218Y-109655856D01*
X109868429Y-109646178D01*
X109846496Y-109527904D01*
X109826360Y-109420542D01*
X109809320Y-109330917D01*
X109796672Y-109265851D01*
X109789716Y-109232168D01*
X109789594Y-109231654D01*
X109785361Y-109217325D01*
X109777129Y-109206507D01*
X109759967Y-109198706D01*
X109728942Y-109193429D01*
X109679122Y-109190182D01*
X109605576Y-109188472D01*
X109503371Y-109187807D01*
X109367575Y-109187693D01*
X109350000Y-109187692D01*
X109210122Y-109187776D01*
M02*
