G04 #@! TF.FileFunction,Legend,Top*
%FSLAX46Y46*%
G04 Gerber Fmt 4.6, Leading zero omitted, Abs format (unit mm)*
G04 Created by KiCad (PCBNEW 4.0.5) date 02/06/17 22:24:31*
%MOMM*%
%LPD*%
G01*
G04 APERTURE LIST*
%ADD10C,0.100000*%
%ADD11C,0.150000*%
%ADD12C,0.300000*%
%ADD13C,0.400000*%
%ADD14C,0.002540*%
G04 APERTURE END LIST*
D10*
D11*
X79999600Y-155999600D02*
X79999600Y-187999600D01*
X187999600Y-187999600D01*
X187999600Y-155999600D01*
X79999600Y-155999600D01*
D10*
D11*
X10000000Y-10000000D02*
X10000000Y-189999600D01*
X189999600Y-189999600D01*
X189999600Y-10000000D01*
X10000000Y-10000000D01*
D10*
D11*
X12000000Y-12000000D02*
X12000000Y-187999600D01*
X187999600Y-187999600D01*
X187999600Y-12000000D01*
X12000000Y-12000000D01*
D10*
D11*
X60000000Y-12000000D02*
X60000000Y-10000000D01*
D10*
D11*
X110000000Y-12000000D02*
X110000000Y-10000000D01*
D10*
D11*
X160000000Y-12000000D02*
X160000000Y-10000000D01*
D10*
D11*
X35990476Y-11588095D02*
X35247619Y-11588095D01*
X35619048Y-11588095D02*
X35619048Y-10288095D01*
X35495238Y-10473810D01*
X35371429Y-10597619D01*
X35247619Y-10659524D01*
D10*
D11*
X85247619Y-10411905D02*
X85309524Y-10350000D01*
X85433333Y-10288095D01*
X85742857Y-10288095D01*
X85866667Y-10350000D01*
X85928571Y-10411905D01*
X85990476Y-10535714D01*
X85990476Y-10659524D01*
X85928571Y-10845238D01*
X85185714Y-11588095D01*
X85990476Y-11588095D01*
D10*
D11*
X135185714Y-10288095D02*
X135990476Y-10288095D01*
X135557143Y-10783333D01*
X135742857Y-10783333D01*
X135866667Y-10845238D01*
X135928571Y-10907143D01*
X135990476Y-11030952D01*
X135990476Y-11340476D01*
X135928571Y-11464286D01*
X135866667Y-11526190D01*
X135742857Y-11588095D01*
X135371429Y-11588095D01*
X135247619Y-11526190D01*
X135185714Y-11464286D01*
D10*
D11*
X185866667Y-10721429D02*
X185866667Y-11588095D01*
X185557143Y-10226190D02*
X185247619Y-11154762D01*
X186052381Y-11154762D01*
D10*
D11*
X60000000Y-187999600D02*
X60000000Y-189999600D01*
D10*
D11*
X110000000Y-187999600D02*
X110000000Y-189999600D01*
D10*
D11*
X160000000Y-187999600D02*
X160000000Y-189999600D01*
D10*
D11*
X35990476Y-189587695D02*
X35247619Y-189587695D01*
X35619048Y-189587695D02*
X35619048Y-188287695D01*
X35495238Y-188473410D01*
X35371429Y-188597219D01*
X35247619Y-188659124D01*
D10*
D11*
X85247619Y-188411505D02*
X85309524Y-188349600D01*
X85433333Y-188287695D01*
X85742857Y-188287695D01*
X85866667Y-188349600D01*
X85928571Y-188411505D01*
X85990476Y-188535314D01*
X85990476Y-188659124D01*
X85928571Y-188844838D01*
X85185714Y-189587695D01*
X85990476Y-189587695D01*
D10*
D11*
X135185714Y-188287695D02*
X135990476Y-188287695D01*
X135557143Y-188782933D01*
X135742857Y-188782933D01*
X135866667Y-188844838D01*
X135928571Y-188906743D01*
X135990476Y-189030552D01*
X135990476Y-189340076D01*
X135928571Y-189463886D01*
X135866667Y-189525790D01*
X135742857Y-189587695D01*
X135371429Y-189587695D01*
X135247619Y-189525790D01*
X135185714Y-189463886D01*
D10*
D11*
X185866667Y-188721029D02*
X185866667Y-189587695D01*
X185557143Y-188225790D02*
X185247619Y-189154362D01*
X186052381Y-189154362D01*
D10*
D11*
X10000000Y-60000000D02*
X12000000Y-60000000D01*
D10*
D11*
X10000000Y-110000000D02*
X12000000Y-110000000D01*
D10*
D11*
X10000000Y-160000000D02*
X12000000Y-160000000D01*
D10*
D11*
X10690476Y-35216667D02*
X11309524Y-35216667D01*
X10566667Y-35588095D02*
X11000000Y-34288095D01*
X11433333Y-35588095D01*
D10*
D11*
X11092857Y-84907143D02*
X11278571Y-84969048D01*
X11340476Y-85030952D01*
X11402381Y-85154762D01*
X11402381Y-85340476D01*
X11340476Y-85464286D01*
X11278571Y-85526190D01*
X11154762Y-85588095D01*
X10659524Y-85588095D01*
X10659524Y-84288095D01*
X11092857Y-84288095D01*
X11216667Y-84350000D01*
X11278571Y-84411905D01*
X11340476Y-84535714D01*
X11340476Y-84659524D01*
X11278571Y-84783333D01*
X11216667Y-84845238D01*
X11092857Y-84907143D01*
X10659524Y-84907143D01*
D10*
D11*
X11402381Y-135464286D02*
X11340476Y-135526190D01*
X11154762Y-135588095D01*
X11030952Y-135588095D01*
X10845238Y-135526190D01*
X10721429Y-135402381D01*
X10659524Y-135278571D01*
X10597619Y-135030952D01*
X10597619Y-134845238D01*
X10659524Y-134597619D01*
X10721429Y-134473810D01*
X10845238Y-134350000D01*
X11030952Y-134288095D01*
X11154762Y-134288095D01*
X11340476Y-134350000D01*
X11402381Y-134411905D01*
D10*
D11*
X10659524Y-185588095D02*
X10659524Y-184288095D01*
X10969048Y-184288095D01*
X11154762Y-184350000D01*
X11278571Y-184473810D01*
X11340476Y-184597619D01*
X11402381Y-184845238D01*
X11402381Y-185030952D01*
X11340476Y-185278571D01*
X11278571Y-185402381D01*
X11154762Y-185526190D01*
X10969048Y-185588095D01*
X10659524Y-185588095D01*
D10*
D11*
X189999600Y-60000000D02*
X187999600Y-60000000D01*
D10*
D11*
X189999600Y-110000000D02*
X187999600Y-110000000D01*
D10*
D11*
X189999600Y-160000000D02*
X187999600Y-160000000D01*
D10*
D11*
X188690076Y-35216667D02*
X189309124Y-35216667D01*
X188566267Y-35588095D02*
X188999600Y-34288095D01*
X189432933Y-35588095D01*
D10*
D11*
X189092457Y-84907143D02*
X189278171Y-84969048D01*
X189340076Y-85030952D01*
X189401981Y-85154762D01*
X189401981Y-85340476D01*
X189340076Y-85464286D01*
X189278171Y-85526190D01*
X189154362Y-85588095D01*
X188659124Y-85588095D01*
X188659124Y-84288095D01*
X189092457Y-84288095D01*
X189216267Y-84350000D01*
X189278171Y-84411905D01*
X189340076Y-84535714D01*
X189340076Y-84659524D01*
X189278171Y-84783333D01*
X189216267Y-84845238D01*
X189092457Y-84907143D01*
X188659124Y-84907143D01*
D10*
D11*
X189401981Y-135464286D02*
X189340076Y-135526190D01*
X189154362Y-135588095D01*
X189030552Y-135588095D01*
X188844838Y-135526190D01*
X188721029Y-135402381D01*
X188659124Y-135278571D01*
X188597219Y-135030952D01*
X188597219Y-134845238D01*
X188659124Y-134597619D01*
X188721029Y-134473810D01*
X188844838Y-134350000D01*
X189030552Y-134288095D01*
X189154362Y-134288095D01*
X189340076Y-134350000D01*
X189401981Y-134411905D01*
D10*
D11*
X188659124Y-185588095D02*
X188659124Y-184288095D01*
X188968648Y-184288095D01*
X189154362Y-184350000D01*
X189278171Y-184473810D01*
X189340076Y-184597619D01*
X189401981Y-184845238D01*
X189401981Y-185030952D01*
X189340076Y-185278571D01*
X189278171Y-185402381D01*
X189154362Y-185526190D01*
X188968648Y-185588095D01*
X188659124Y-185588095D01*
D10*
D11*
X103356743Y-183778171D02*
X103356743Y-182278171D01*
X103713886Y-182278171D01*
X103928171Y-182349600D01*
X104071029Y-182492457D01*
X104142457Y-182635314D01*
X104213886Y-182921029D01*
X104213886Y-183135314D01*
X104142457Y-183421029D01*
X104071029Y-183563886D01*
X103928171Y-183706743D01*
X103713886Y-183778171D01*
X103356743Y-183778171D01*
X105499600Y-183778171D02*
X105499600Y-182992457D01*
X105428171Y-182849600D01*
X105285314Y-182778171D01*
X104999600Y-182778171D01*
X104856743Y-182849600D01*
X105499600Y-183706743D02*
X105356743Y-183778171D01*
X104999600Y-183778171D01*
X104856743Y-183706743D01*
X104785314Y-183563886D01*
X104785314Y-183421029D01*
X104856743Y-183278171D01*
X104999600Y-183206743D01*
X105356743Y-183206743D01*
X105499600Y-183135314D01*
X105999600Y-182778171D02*
X106571029Y-182778171D01*
X106213886Y-182278171D02*
X106213886Y-183563886D01*
X106285314Y-183706743D01*
X106428172Y-183778171D01*
X106571029Y-183778171D01*
X107642457Y-183706743D02*
X107499600Y-183778171D01*
X107213886Y-183778171D01*
X107071029Y-183706743D01*
X106999600Y-183563886D01*
X106999600Y-182992457D01*
X107071029Y-182849600D01*
X107213886Y-182778171D01*
X107499600Y-182778171D01*
X107642457Y-182849600D01*
X107713886Y-182992457D01*
X107713886Y-183135314D01*
X106999600Y-183278171D01*
X108356743Y-183635314D02*
X108428171Y-183706743D01*
X108356743Y-183778171D01*
X108285314Y-183706743D01*
X108356743Y-183635314D01*
X108356743Y-183778171D01*
X108356743Y-182849600D02*
X108428171Y-182921029D01*
X108356743Y-182992457D01*
X108285314Y-182921029D01*
X108356743Y-182849600D01*
X108356743Y-182992457D01*
D10*
D11*
X79999600Y-184499600D02*
X187999600Y-184499600D01*
D10*
D11*
X81356743Y-186578171D02*
X81356743Y-185078171D01*
X82213886Y-186578171D02*
X81571029Y-185721029D01*
X82213886Y-185078171D02*
X81356743Y-185935314D01*
X82856743Y-186578171D02*
X82856743Y-185578171D01*
X82856743Y-185078171D02*
X82785314Y-185149600D01*
X82856743Y-185221029D01*
X82928171Y-185149600D01*
X82856743Y-185078171D01*
X82856743Y-185221029D01*
X84428172Y-186435314D02*
X84356743Y-186506743D01*
X84142457Y-186578171D01*
X83999600Y-186578171D01*
X83785315Y-186506743D01*
X83642457Y-186363886D01*
X83571029Y-186221029D01*
X83499600Y-185935314D01*
X83499600Y-185721029D01*
X83571029Y-185435314D01*
X83642457Y-185292457D01*
X83785315Y-185149600D01*
X83999600Y-185078171D01*
X84142457Y-185078171D01*
X84356743Y-185149600D01*
X84428172Y-185221029D01*
X85713886Y-186578171D02*
X85713886Y-185792457D01*
X85642457Y-185649600D01*
X85499600Y-185578171D01*
X85213886Y-185578171D01*
X85071029Y-185649600D01*
X85713886Y-186506743D02*
X85571029Y-186578171D01*
X85213886Y-186578171D01*
X85071029Y-186506743D01*
X84999600Y-186363886D01*
X84999600Y-186221029D01*
X85071029Y-186078171D01*
X85213886Y-186006743D01*
X85571029Y-186006743D01*
X85713886Y-185935314D01*
X87071029Y-186578171D02*
X87071029Y-185078171D01*
X87071029Y-186506743D02*
X86928172Y-186578171D01*
X86642458Y-186578171D01*
X86499600Y-186506743D01*
X86428172Y-186435314D01*
X86356743Y-186292457D01*
X86356743Y-185863886D01*
X86428172Y-185721029D01*
X86499600Y-185649600D01*
X86642458Y-185578171D01*
X86928172Y-185578171D01*
X87071029Y-185649600D01*
X88928172Y-185792457D02*
X89428172Y-185792457D01*
X89642458Y-186578171D02*
X88928172Y-186578171D01*
X88928172Y-185078171D01*
X89642458Y-185078171D01*
X90285315Y-186435314D02*
X90356743Y-186506743D01*
X90285315Y-186578171D01*
X90213886Y-186506743D01*
X90285315Y-186435314D01*
X90285315Y-186578171D01*
X90999601Y-186578171D02*
X90999601Y-185078171D01*
X91356744Y-185078171D01*
X91571029Y-185149600D01*
X91713887Y-185292457D01*
X91785315Y-185435314D01*
X91856744Y-185721029D01*
X91856744Y-185935314D01*
X91785315Y-186221029D01*
X91713887Y-186363886D01*
X91571029Y-186506743D01*
X91356744Y-186578171D01*
X90999601Y-186578171D01*
X92499601Y-186435314D02*
X92571029Y-186506743D01*
X92499601Y-186578171D01*
X92428172Y-186506743D01*
X92499601Y-186435314D01*
X92499601Y-186578171D01*
X93142458Y-186149600D02*
X93856744Y-186149600D01*
X92999601Y-186578171D02*
X93499601Y-185078171D01*
X93999601Y-186578171D01*
X94499601Y-186435314D02*
X94571029Y-186506743D01*
X94499601Y-186578171D01*
X94428172Y-186506743D01*
X94499601Y-186435314D01*
X94499601Y-186578171D01*
X97499601Y-186578171D02*
X97499601Y-185078171D01*
X97642458Y-186006743D02*
X98071029Y-186578171D01*
X98071029Y-185578171D02*
X97499601Y-186149600D01*
X98713887Y-186578171D02*
X98713887Y-185578171D01*
X98713887Y-185078171D02*
X98642458Y-185149600D01*
X98713887Y-185221029D01*
X98785315Y-185149600D01*
X98713887Y-185078171D01*
X98713887Y-185221029D01*
X100071030Y-186506743D02*
X99928173Y-186578171D01*
X99642459Y-186578171D01*
X99499601Y-186506743D01*
X99428173Y-186435314D01*
X99356744Y-186292457D01*
X99356744Y-185863886D01*
X99428173Y-185721029D01*
X99499601Y-185649600D01*
X99642459Y-185578171D01*
X99928173Y-185578171D01*
X100071030Y-185649600D01*
X101356744Y-186578171D02*
X101356744Y-185792457D01*
X101285315Y-185649600D01*
X101142458Y-185578171D01*
X100856744Y-185578171D01*
X100713887Y-185649600D01*
X101356744Y-186506743D02*
X101213887Y-186578171D01*
X100856744Y-186578171D01*
X100713887Y-186506743D01*
X100642458Y-186363886D01*
X100642458Y-186221029D01*
X100713887Y-186078171D01*
X100856744Y-186006743D01*
X101213887Y-186006743D01*
X101356744Y-185935314D01*
X102713887Y-186578171D02*
X102713887Y-185078171D01*
X102713887Y-186506743D02*
X102571030Y-186578171D01*
X102285316Y-186578171D01*
X102142458Y-186506743D01*
X102071030Y-186435314D01*
X101999601Y-186292457D01*
X101999601Y-185863886D01*
X102071030Y-185721029D01*
X102142458Y-185649600D01*
X102285316Y-185578171D01*
X102571030Y-185578171D01*
X102713887Y-185649600D01*
X105213887Y-185578171D02*
X105213887Y-186578171D01*
X104856744Y-185006743D02*
X104499601Y-186078171D01*
X105428173Y-186078171D01*
X105999601Y-186435314D02*
X106071029Y-186506743D01*
X105999601Y-186578171D01*
X105928172Y-186506743D01*
X105999601Y-186435314D01*
X105999601Y-186578171D01*
X106999601Y-185078171D02*
X107142458Y-185078171D01*
X107285315Y-185149600D01*
X107356744Y-185221029D01*
X107428173Y-185363886D01*
X107499601Y-185649600D01*
X107499601Y-186006743D01*
X107428173Y-186292457D01*
X107356744Y-186435314D01*
X107285315Y-186506743D01*
X107142458Y-186578171D01*
X106999601Y-186578171D01*
X106856744Y-186506743D01*
X106785315Y-186435314D01*
X106713887Y-186292457D01*
X106642458Y-186006743D01*
X106642458Y-185649600D01*
X106713887Y-185363886D01*
X106785315Y-185221029D01*
X106856744Y-185149600D01*
X106999601Y-185078171D01*
X108142458Y-186435314D02*
X108213886Y-186506743D01*
X108142458Y-186578171D01*
X108071029Y-186506743D01*
X108142458Y-186435314D01*
X108142458Y-186578171D01*
X109571030Y-185078171D02*
X108856744Y-185078171D01*
X108785315Y-185792457D01*
X108856744Y-185721029D01*
X108999601Y-185649600D01*
X109356744Y-185649600D01*
X109499601Y-185721029D01*
X109571030Y-185792457D01*
X109642458Y-185935314D01*
X109642458Y-186292457D01*
X109571030Y-186435314D01*
X109499601Y-186506743D01*
X109356744Y-186578171D01*
X108999601Y-186578171D01*
X108856744Y-186506743D01*
X108785315Y-186435314D01*
D10*
D11*
X79999600Y-181499600D02*
X187999600Y-181499600D01*
D10*
D12*
X167213886Y-183778171D02*
X166713886Y-183063886D01*
X166356743Y-183778171D02*
X166356743Y-182278171D01*
X166928171Y-182278171D01*
X167071029Y-182349600D01*
X167142457Y-182421029D01*
X167213886Y-182563886D01*
X167213886Y-182778171D01*
X167142457Y-182921029D01*
X167071029Y-182992457D01*
X166928171Y-183063886D01*
X166356743Y-183063886D01*
X168428171Y-183706743D02*
X168285314Y-183778171D01*
X167999600Y-183778171D01*
X167856743Y-183706743D01*
X167785314Y-183563886D01*
X167785314Y-182992457D01*
X167856743Y-182849600D01*
X167999600Y-182778171D01*
X168285314Y-182778171D01*
X168428171Y-182849600D01*
X168499600Y-182992457D01*
X168499600Y-183135314D01*
X167785314Y-183278171D01*
X168999600Y-182778171D02*
X169356743Y-183778171D01*
X169713885Y-182778171D01*
X170285314Y-183635314D02*
X170356742Y-183706743D01*
X170285314Y-183778171D01*
X170213885Y-183706743D01*
X170285314Y-183635314D01*
X170285314Y-183778171D01*
X170285314Y-182849600D02*
X170356742Y-182921029D01*
X170285314Y-182992457D01*
X170213885Y-182921029D01*
X170285314Y-182849600D01*
X170285314Y-182992457D01*
D10*
D11*
X81285314Y-183706743D02*
X81499600Y-183778171D01*
X81856743Y-183778171D01*
X81999600Y-183706743D01*
X82071029Y-183635314D01*
X82142457Y-183492457D01*
X82142457Y-183349600D01*
X82071029Y-183206743D01*
X81999600Y-183135314D01*
X81856743Y-183063886D01*
X81571029Y-182992457D01*
X81428171Y-182921029D01*
X81356743Y-182849600D01*
X81285314Y-182706743D01*
X81285314Y-182563886D01*
X81356743Y-182421029D01*
X81428171Y-182349600D01*
X81571029Y-182278171D01*
X81928171Y-182278171D01*
X82142457Y-182349600D01*
X82785314Y-183778171D02*
X82785314Y-182778171D01*
X82785314Y-182278171D02*
X82713885Y-182349600D01*
X82785314Y-182421029D01*
X82856742Y-182349600D01*
X82785314Y-182278171D01*
X82785314Y-182421029D01*
X83356743Y-182778171D02*
X84142457Y-182778171D01*
X83356743Y-183778171D01*
X84142457Y-183778171D01*
X85285314Y-183706743D02*
X85142457Y-183778171D01*
X84856743Y-183778171D01*
X84713886Y-183706743D01*
X84642457Y-183563886D01*
X84642457Y-182992457D01*
X84713886Y-182849600D01*
X84856743Y-182778171D01*
X85142457Y-182778171D01*
X85285314Y-182849600D01*
X85356743Y-182992457D01*
X85356743Y-183135314D01*
X84642457Y-183278171D01*
X85999600Y-183635314D02*
X86071028Y-183706743D01*
X85999600Y-183778171D01*
X85928171Y-183706743D01*
X85999600Y-183635314D01*
X85999600Y-183778171D01*
X85999600Y-182849600D02*
X86071028Y-182921029D01*
X85999600Y-182992457D01*
X85928171Y-182921029D01*
X85999600Y-182849600D01*
X85999600Y-182992457D01*
X87856743Y-182278171D02*
X87856743Y-183492457D01*
X87928171Y-183635314D01*
X87999600Y-183706743D01*
X88142457Y-183778171D01*
X88428171Y-183778171D01*
X88571029Y-183706743D01*
X88642457Y-183635314D01*
X88713886Y-183492457D01*
X88713886Y-182278171D01*
X89356743Y-183706743D02*
X89499600Y-183778171D01*
X89785315Y-183778171D01*
X89928172Y-183706743D01*
X89999600Y-183563886D01*
X89999600Y-183492457D01*
X89928172Y-183349600D01*
X89785315Y-183278171D01*
X89571029Y-183278171D01*
X89428172Y-183206743D01*
X89356743Y-183063886D01*
X89356743Y-182992457D01*
X89428172Y-182849600D01*
X89571029Y-182778171D01*
X89785315Y-182778171D01*
X89928172Y-182849600D01*
X91213886Y-183706743D02*
X91071029Y-183778171D01*
X90785315Y-183778171D01*
X90642458Y-183706743D01*
X90571029Y-183563886D01*
X90571029Y-182992457D01*
X90642458Y-182849600D01*
X90785315Y-182778171D01*
X91071029Y-182778171D01*
X91213886Y-182849600D01*
X91285315Y-182992457D01*
X91285315Y-183135314D01*
X90571029Y-183278171D01*
X91928172Y-183778171D02*
X91928172Y-182778171D01*
X91928172Y-183063886D02*
X91999600Y-182921029D01*
X92071029Y-182849600D01*
X92213886Y-182778171D01*
X92356743Y-182778171D01*
D10*
D11*
X166356743Y-186578171D02*
X166356743Y-185078171D01*
X167713886Y-186578171D02*
X167713886Y-185078171D01*
X167713886Y-186506743D02*
X167571029Y-186578171D01*
X167285315Y-186578171D01*
X167142457Y-186506743D01*
X167071029Y-186435314D01*
X166999600Y-186292457D01*
X166999600Y-185863886D01*
X167071029Y-185721029D01*
X167142457Y-185649600D01*
X167285315Y-185578171D01*
X167571029Y-185578171D01*
X167713886Y-185649600D01*
X168428172Y-186435314D02*
X168499600Y-186506743D01*
X168428172Y-186578171D01*
X168356743Y-186506743D01*
X168428172Y-186435314D01*
X168428172Y-186578171D01*
X168428172Y-185649600D02*
X168499600Y-185721029D01*
X168428172Y-185792457D01*
X168356743Y-185721029D01*
X168428172Y-185649600D01*
X168428172Y-185792457D01*
X171071029Y-186578171D02*
X170213886Y-186578171D01*
X170642458Y-186578171D02*
X170642458Y-185078171D01*
X170499601Y-185292457D01*
X170356743Y-185435314D01*
X170213886Y-185506743D01*
X172785314Y-185006743D02*
X171499600Y-186935314D01*
X174071029Y-186578171D02*
X173213886Y-186578171D01*
X173642458Y-186578171D02*
X173642458Y-185078171D01*
X173499601Y-185292457D01*
X173356743Y-185435314D01*
X173213886Y-185506743D01*
D10*
D11*
X79999600Y-177499600D02*
X187999600Y-177499600D01*
D10*
D13*
X81451981Y-178204362D02*
X82594838Y-178204362D01*
X81773410Y-180204362D02*
X82023410Y-178204362D01*
X83011505Y-180204362D02*
X83178171Y-178871029D01*
X83261505Y-178204362D02*
X83154362Y-178299600D01*
X83237695Y-178394838D01*
X83344839Y-178299600D01*
X83261505Y-178204362D01*
X83237695Y-178394838D01*
X83844838Y-178871029D02*
X84606743Y-178871029D01*
X84213886Y-178204362D02*
X83999600Y-179918648D01*
X84071030Y-180109124D01*
X84249601Y-180204362D01*
X84440077Y-180204362D01*
X85392458Y-180204362D02*
X85213887Y-180109124D01*
X85142457Y-179918648D01*
X85356743Y-178204362D01*
X86928172Y-180109124D02*
X86725791Y-180204362D01*
X86344839Y-180204362D01*
X86166267Y-180109124D01*
X86094838Y-179918648D01*
X86190076Y-179156743D01*
X86309124Y-178966267D01*
X86511505Y-178871029D01*
X86892457Y-178871029D01*
X87071029Y-178966267D01*
X87142457Y-179156743D01*
X87118648Y-179347219D01*
X86142457Y-179537695D01*
X87892457Y-180013886D02*
X87975792Y-180109124D01*
X87868648Y-180204362D01*
X87785315Y-180109124D01*
X87892457Y-180013886D01*
X87868648Y-180204362D01*
X88023410Y-178966267D02*
X88106744Y-179061505D01*
X87999600Y-179156743D01*
X87916267Y-179061505D01*
X88023410Y-178966267D01*
X87999600Y-179156743D01*
D10*
D11*
X81856743Y-175592457D02*
X81356743Y-175592457D01*
X81356743Y-176378171D02*
X81356743Y-174878171D01*
X82071029Y-174878171D01*
X82642457Y-176378171D02*
X82642457Y-175378171D01*
X82642457Y-174878171D02*
X82571028Y-174949600D01*
X82642457Y-175021029D01*
X82713885Y-174949600D01*
X82642457Y-174878171D01*
X82642457Y-175021029D01*
X83571029Y-176378171D02*
X83428171Y-176306743D01*
X83356743Y-176163886D01*
X83356743Y-174878171D01*
X84713885Y-176306743D02*
X84571028Y-176378171D01*
X84285314Y-176378171D01*
X84142457Y-176306743D01*
X84071028Y-176163886D01*
X84071028Y-175592457D01*
X84142457Y-175449600D01*
X84285314Y-175378171D01*
X84571028Y-175378171D01*
X84713885Y-175449600D01*
X84785314Y-175592457D01*
X84785314Y-175735314D01*
X84071028Y-175878171D01*
X85428171Y-176235314D02*
X85499599Y-176306743D01*
X85428171Y-176378171D01*
X85356742Y-176306743D01*
X85428171Y-176235314D01*
X85428171Y-176378171D01*
X85428171Y-175449600D02*
X85499599Y-175521029D01*
X85428171Y-175592457D01*
X85356742Y-175521029D01*
X85428171Y-175449600D01*
X85428171Y-175592457D01*
X87285314Y-176378171D02*
X87285314Y-174878171D01*
X87285314Y-175592457D02*
X88142457Y-175592457D01*
X88142457Y-176378171D02*
X88142457Y-174878171D01*
X88856743Y-176378171D02*
X88856743Y-175378171D01*
X88856743Y-174878171D02*
X88785314Y-174949600D01*
X88856743Y-175021029D01*
X88928171Y-174949600D01*
X88856743Y-174878171D01*
X88856743Y-175021029D01*
X90213886Y-175378171D02*
X90213886Y-176592457D01*
X90142457Y-176735314D01*
X90071029Y-176806743D01*
X89928172Y-176878171D01*
X89713886Y-176878171D01*
X89571029Y-176806743D01*
X90213886Y-176306743D02*
X90071029Y-176378171D01*
X89785315Y-176378171D01*
X89642457Y-176306743D01*
X89571029Y-176235314D01*
X89499600Y-176092457D01*
X89499600Y-175663886D01*
X89571029Y-175521029D01*
X89642457Y-175449600D01*
X89785315Y-175378171D01*
X90071029Y-175378171D01*
X90213886Y-175449600D01*
X90928172Y-176378171D02*
X90928172Y-174878171D01*
X91571029Y-176378171D02*
X91571029Y-175592457D01*
X91499600Y-175449600D01*
X91356743Y-175378171D01*
X91142458Y-175378171D01*
X90999600Y-175449600D01*
X90928172Y-175521029D01*
X93428172Y-176378171D02*
X93428172Y-174878171D01*
X93999600Y-174878171D01*
X94142458Y-174949600D01*
X94213886Y-175021029D01*
X94285315Y-175163886D01*
X94285315Y-175378171D01*
X94213886Y-175521029D01*
X94142458Y-175592457D01*
X93999600Y-175663886D01*
X93428172Y-175663886D01*
X95142458Y-176378171D02*
X94999600Y-176306743D01*
X94928172Y-176235314D01*
X94856743Y-176092457D01*
X94856743Y-175663886D01*
X94928172Y-175521029D01*
X94999600Y-175449600D01*
X95142458Y-175378171D01*
X95356743Y-175378171D01*
X95499600Y-175449600D01*
X95571029Y-175521029D01*
X95642458Y-175663886D01*
X95642458Y-176092457D01*
X95571029Y-176235314D01*
X95499600Y-176306743D01*
X95356743Y-176378171D01*
X95142458Y-176378171D01*
X96142458Y-175378171D02*
X96428172Y-176378171D01*
X96713886Y-175663886D01*
X96999601Y-176378171D01*
X97285315Y-175378171D01*
X98428172Y-176306743D02*
X98285315Y-176378171D01*
X97999601Y-176378171D01*
X97856744Y-176306743D01*
X97785315Y-176163886D01*
X97785315Y-175592457D01*
X97856744Y-175449600D01*
X97999601Y-175378171D01*
X98285315Y-175378171D01*
X98428172Y-175449600D01*
X98499601Y-175592457D01*
X98499601Y-175735314D01*
X97785315Y-175878171D01*
X99142458Y-176378171D02*
X99142458Y-175378171D01*
X99142458Y-175663886D02*
X99213886Y-175521029D01*
X99285315Y-175449600D01*
X99428172Y-175378171D01*
X99571029Y-175378171D01*
X101142457Y-176306743D02*
X101356743Y-176378171D01*
X101713886Y-176378171D01*
X101856743Y-176306743D01*
X101928172Y-176235314D01*
X101999600Y-176092457D01*
X101999600Y-175949600D01*
X101928172Y-175806743D01*
X101856743Y-175735314D01*
X101713886Y-175663886D01*
X101428172Y-175592457D01*
X101285314Y-175521029D01*
X101213886Y-175449600D01*
X101142457Y-175306743D01*
X101142457Y-175163886D01*
X101213886Y-175021029D01*
X101285314Y-174949600D01*
X101428172Y-174878171D01*
X101785314Y-174878171D01*
X101999600Y-174949600D01*
X102499600Y-174878171D02*
X102856743Y-176378171D01*
X103142457Y-175306743D01*
X103428171Y-176378171D01*
X103785314Y-174878171D01*
X104356743Y-176235314D02*
X104428171Y-176306743D01*
X104356743Y-176378171D01*
X104285314Y-176306743D01*
X104356743Y-176235314D01*
X104356743Y-176378171D01*
X105071029Y-176378171D02*
X105071029Y-174878171D01*
X105213886Y-175806743D02*
X105642457Y-176378171D01*
X105642457Y-175378171D02*
X105071029Y-175949600D01*
X106285315Y-176378171D02*
X106285315Y-175378171D01*
X106285315Y-174878171D02*
X106213886Y-174949600D01*
X106285315Y-175021029D01*
X106356743Y-174949600D01*
X106285315Y-174878171D01*
X106285315Y-175021029D01*
X107642458Y-176306743D02*
X107499601Y-176378171D01*
X107213887Y-176378171D01*
X107071029Y-176306743D01*
X106999601Y-176235314D01*
X106928172Y-176092457D01*
X106928172Y-175663886D01*
X106999601Y-175521029D01*
X107071029Y-175449600D01*
X107213887Y-175378171D01*
X107499601Y-175378171D01*
X107642458Y-175449600D01*
X108928172Y-176378171D02*
X108928172Y-175592457D01*
X108856743Y-175449600D01*
X108713886Y-175378171D01*
X108428172Y-175378171D01*
X108285315Y-175449600D01*
X108928172Y-176306743D02*
X108785315Y-176378171D01*
X108428172Y-176378171D01*
X108285315Y-176306743D01*
X108213886Y-176163886D01*
X108213886Y-176021029D01*
X108285315Y-175878171D01*
X108428172Y-175806743D01*
X108785315Y-175806743D01*
X108928172Y-175735314D01*
X110285315Y-176378171D02*
X110285315Y-174878171D01*
X110285315Y-176306743D02*
X110142458Y-176378171D01*
X109856744Y-176378171D01*
X109713886Y-176306743D01*
X109642458Y-176235314D01*
X109571029Y-176092457D01*
X109571029Y-175663886D01*
X109642458Y-175521029D01*
X109713886Y-175449600D01*
X109856744Y-175378171D01*
X110142458Y-175378171D01*
X110285315Y-175449600D01*
X110642458Y-176521029D02*
X111785315Y-176521029D01*
X112142458Y-175378171D02*
X112142458Y-176878171D01*
X112142458Y-175449600D02*
X112285315Y-175378171D01*
X112571029Y-175378171D01*
X112713886Y-175449600D01*
X112785315Y-175521029D01*
X112856744Y-175663886D01*
X112856744Y-176092457D01*
X112785315Y-176235314D01*
X112713886Y-176306743D01*
X112571029Y-176378171D01*
X112285315Y-176378171D01*
X112142458Y-176306743D01*
X114142458Y-176306743D02*
X113999601Y-176378171D01*
X113713887Y-176378171D01*
X113571029Y-176306743D01*
X113499601Y-176235314D01*
X113428172Y-176092457D01*
X113428172Y-175663886D01*
X113499601Y-175521029D01*
X113571029Y-175449600D01*
X113713887Y-175378171D01*
X113999601Y-175378171D01*
X114142458Y-175449600D01*
X114785315Y-176378171D02*
X114785315Y-174878171D01*
X114785315Y-175449600D02*
X114928172Y-175378171D01*
X115213886Y-175378171D01*
X115356743Y-175449600D01*
X115428172Y-175521029D01*
X115499601Y-175663886D01*
X115499601Y-176092457D01*
X115428172Y-176235314D01*
X115356743Y-176306743D01*
X115213886Y-176378171D01*
X114928172Y-176378171D01*
X114785315Y-176306743D01*
D10*
D11*
X79999600Y-171499600D02*
X187999600Y-171499600D01*
D10*
D11*
X81285314Y-173606743D02*
X81499600Y-173678171D01*
X81856743Y-173678171D01*
X81999600Y-173606743D01*
X82071029Y-173535314D01*
X82142457Y-173392457D01*
X82142457Y-173249600D01*
X82071029Y-173106743D01*
X81999600Y-173035314D01*
X81856743Y-172963886D01*
X81571029Y-172892457D01*
X81428171Y-172821029D01*
X81356743Y-172749600D01*
X81285314Y-172606743D01*
X81285314Y-172463886D01*
X81356743Y-172321029D01*
X81428171Y-172249600D01*
X81571029Y-172178171D01*
X81928171Y-172178171D01*
X82142457Y-172249600D01*
X82785314Y-173678171D02*
X82785314Y-172178171D01*
X83428171Y-173678171D02*
X83428171Y-172892457D01*
X83356742Y-172749600D01*
X83213885Y-172678171D01*
X82999600Y-172678171D01*
X82856742Y-172749600D01*
X82785314Y-172821029D01*
X84713885Y-173606743D02*
X84571028Y-173678171D01*
X84285314Y-173678171D01*
X84142457Y-173606743D01*
X84071028Y-173463886D01*
X84071028Y-172892457D01*
X84142457Y-172749600D01*
X84285314Y-172678171D01*
X84571028Y-172678171D01*
X84713885Y-172749600D01*
X84785314Y-172892457D01*
X84785314Y-173035314D01*
X84071028Y-173178171D01*
X85999599Y-173606743D02*
X85856742Y-173678171D01*
X85571028Y-173678171D01*
X85428171Y-173606743D01*
X85356742Y-173463886D01*
X85356742Y-172892457D01*
X85428171Y-172749600D01*
X85571028Y-172678171D01*
X85856742Y-172678171D01*
X85999599Y-172749600D01*
X86071028Y-172892457D01*
X86071028Y-173035314D01*
X85356742Y-173178171D01*
X86499599Y-172678171D02*
X87071028Y-172678171D01*
X86713885Y-172178171D02*
X86713885Y-173463886D01*
X86785313Y-173606743D01*
X86928171Y-173678171D01*
X87071028Y-173678171D01*
X87571028Y-173535314D02*
X87642456Y-173606743D01*
X87571028Y-173678171D01*
X87499599Y-173606743D01*
X87571028Y-173535314D01*
X87571028Y-173678171D01*
X87571028Y-172749600D02*
X87642456Y-172821029D01*
X87571028Y-172892457D01*
X87499599Y-172821029D01*
X87571028Y-172749600D01*
X87571028Y-172892457D01*
D10*
D11*
X99999600Y-181499600D02*
X99999600Y-184499600D01*
D10*
D11*
X163999600Y-181499600D02*
X163999600Y-187999600D01*
X68766666Y-134900000D02*
G75*
G03X68766666Y-134900000I-1666666J0D01*
G01*
X64600000Y-134900000D02*
X69600000Y-134900000D01*
X67100000Y-132400000D02*
X67100000Y-137400000D01*
X77552381Y-92733333D02*
X78266667Y-92733333D01*
X78409524Y-92780953D01*
X78504762Y-92876191D01*
X78552381Y-93019048D01*
X78552381Y-93114286D01*
X78552381Y-92257143D02*
X77552381Y-92257143D01*
X77552381Y-91876190D01*
X77600000Y-91780952D01*
X77647619Y-91733333D01*
X77742857Y-91685714D01*
X77885714Y-91685714D01*
X77980952Y-91733333D01*
X78028571Y-91780952D01*
X78076190Y-91876190D01*
X78076190Y-92257143D01*
X78552381Y-90733333D02*
X78552381Y-91304762D01*
X78552381Y-91019048D02*
X77552381Y-91019048D01*
X77695238Y-91114286D01*
X77790476Y-91209524D01*
X77838095Y-91304762D01*
X75528571Y-92709523D02*
X75528571Y-93042857D01*
X76052381Y-93042857D02*
X75052381Y-93042857D01*
X75052381Y-92566666D01*
X75766667Y-92233333D02*
X75766667Y-91757142D01*
X76052381Y-92328571D02*
X75052381Y-91995238D01*
X76052381Y-91661904D01*
X76052381Y-91328571D02*
X75052381Y-91328571D01*
X76052381Y-90757142D01*
X75052381Y-90757142D01*
X115100000Y-134900000D02*
X67100000Y-134900000D01*
X115100000Y-86900000D02*
X115100000Y-134900000D01*
X113100000Y-86900000D02*
X115100000Y-86900000D01*
X67100000Y-86900000D02*
X113100000Y-86900000D01*
X67100000Y-134900000D02*
X67100000Y-86900000D01*
X68766666Y-134900000D02*
G75*
G03X68766666Y-134900000I-1666666J0D01*
G01*
X64600000Y-134900000D02*
X69600000Y-134900000D01*
X67100000Y-132400000D02*
X67100000Y-137400000D01*
D12*
X70008372Y-96602343D02*
X71151229Y-96602343D01*
X70109972Y-99675743D02*
X71252829Y-99675743D01*
X70681400Y-100247171D02*
X70681400Y-99104314D01*
D11*
X85600000Y-109900000D02*
X85600000Y-108650000D01*
X85600000Y-109900000D02*
X87100000Y-109900000D01*
X85600000Y-99900000D02*
X87100000Y-99900000D01*
X85600000Y-99900000D02*
X85600000Y-101150000D01*
X82100000Y-93825000D02*
X84100000Y-93825000D01*
X84100000Y-95975000D02*
X82100000Y-95975000D01*
X79800000Y-118800000D02*
X79800000Y-132000000D01*
X79800000Y-132000000D02*
X69600000Y-132000000D01*
X69600000Y-132000000D02*
X69600000Y-118800000D01*
X69600000Y-118800000D02*
X79800000Y-118800000D01*
X90800000Y-118800000D02*
X90800000Y-132000000D01*
X90800000Y-132000000D02*
X80600000Y-132000000D01*
X80600000Y-132000000D02*
X80600000Y-118800000D01*
X80600000Y-118800000D02*
X90800000Y-118800000D01*
X84100000Y-89975000D02*
X82100000Y-89975000D01*
X82100000Y-87825000D02*
X84100000Y-87825000D01*
X82100000Y-90825000D02*
X84100000Y-90825000D01*
X84100000Y-92975000D02*
X82100000Y-92975000D01*
X84100000Y-98975000D02*
X82100000Y-98975000D01*
X82100000Y-96825000D02*
X84100000Y-96825000D01*
X72400000Y-105100000D02*
X72400000Y-102700000D01*
X72400000Y-102700000D02*
X76800000Y-102700000D01*
X76800000Y-102700000D02*
X76800000Y-105100000D01*
X76800000Y-105100000D02*
X72400000Y-105100000D01*
D12*
X73200000Y-103250000D02*
G75*
G03X73200000Y-103250000I-250000J0D01*
G01*
D11*
X101800000Y-118800000D02*
X101800000Y-132000000D01*
X101800000Y-132000000D02*
X91600000Y-132000000D01*
X91600000Y-132000000D02*
X91600000Y-118800000D01*
X91600000Y-118800000D02*
X101800000Y-118800000D01*
X112800000Y-118800000D02*
X112800000Y-132000000D01*
X112800000Y-132000000D02*
X102600000Y-132000000D01*
X102600000Y-132000000D02*
X102600000Y-118800000D01*
X102600000Y-118800000D02*
X112800000Y-118800000D01*
X71790000Y-101710000D02*
X79410000Y-101710000D01*
X79410000Y-101710000D02*
X79410000Y-94090000D01*
X79410000Y-94090000D02*
X71790000Y-94090000D01*
X71790000Y-94090000D02*
X71790000Y-101710000D01*
X77100000Y-89975000D02*
X75100000Y-89975000D01*
X75100000Y-87825000D02*
X77100000Y-87825000D01*
X84600000Y-116400000D02*
X84600000Y-114400000D01*
X83100000Y-116854000D02*
X85100000Y-116854000D01*
X83100000Y-113946000D02*
X85200000Y-113946000D01*
D14*
G36*
X69384323Y-106878190D02*
X69384323Y-107089857D01*
X69384323Y-111468711D01*
X69384323Y-111680378D01*
X69595990Y-111680378D01*
X79584010Y-111680378D01*
X79795677Y-111680378D01*
X79795677Y-111468711D01*
X79795677Y-106878190D01*
X79381431Y-106878190D01*
X79372344Y-111257045D01*
X69807656Y-111257045D01*
X69807656Y-107301524D01*
X77945799Y-107301524D01*
X77945799Y-106878190D01*
X69595990Y-106878190D01*
X69384323Y-106878190D01*
X69384323Y-106878190D01*
G37*
X69384323Y-106878190D02*
X69384323Y-107089857D01*
X69384323Y-111468711D01*
X69384323Y-111680378D01*
X69595990Y-111680378D01*
X79584010Y-111680378D01*
X79795677Y-111680378D01*
X79795677Y-111468711D01*
X79795677Y-106878190D01*
X79381431Y-106878190D01*
X79372344Y-111257045D01*
X69807656Y-111257045D01*
X69807656Y-107301524D01*
X77945799Y-107301524D01*
X77945799Y-106878190D01*
X69595990Y-106878190D01*
X69384323Y-106878190D01*
G36*
X71827039Y-109330994D02*
X72175958Y-109330994D01*
X72172753Y-109487108D01*
X72163141Y-109632991D01*
X72147121Y-109768642D01*
X72124693Y-109894060D01*
X72095858Y-110009247D01*
X72060615Y-110114202D01*
X72018964Y-110208925D01*
X71970906Y-110293416D01*
X71897134Y-110390430D01*
X71811420Y-110469805D01*
X71713763Y-110531541D01*
X71604163Y-110575638D01*
X71482620Y-110602096D01*
X71349135Y-110610916D01*
X71215649Y-110602142D01*
X71094105Y-110575822D01*
X70984506Y-110531954D01*
X70886849Y-110470539D01*
X70801135Y-110391578D01*
X70727364Y-110295069D01*
X70679693Y-110210914D01*
X70638377Y-110116372D01*
X70603418Y-110011444D01*
X70574815Y-109896128D01*
X70552569Y-109770425D01*
X70536678Y-109634335D01*
X70527144Y-109487858D01*
X70523966Y-109330994D01*
X70527144Y-109174492D01*
X70536678Y-109028274D01*
X70552569Y-108892340D01*
X70574815Y-108766689D01*
X70603418Y-108651321D01*
X70638377Y-108546237D01*
X70679693Y-108451436D01*
X70727364Y-108366918D01*
X70801594Y-108269905D01*
X70887584Y-108190531D01*
X70985332Y-108128795D01*
X71094841Y-108084698D01*
X71216108Y-108058239D01*
X71349135Y-108049418D01*
X71482620Y-108058239D01*
X71604163Y-108084698D01*
X71713763Y-108128795D01*
X71811420Y-108190531D01*
X71897134Y-108269905D01*
X71970906Y-108366918D01*
X72018964Y-108451436D01*
X72060615Y-108546237D01*
X72095858Y-108651321D01*
X72124693Y-108766689D01*
X72147121Y-108892340D01*
X72163141Y-109028274D01*
X72172753Y-109174492D01*
X72175958Y-109330994D01*
X71827039Y-109330994D01*
X71823915Y-109158280D01*
X71814544Y-109002838D01*
X71798926Y-108864667D01*
X71777061Y-108743767D01*
X71748949Y-108640138D01*
X71714591Y-108553780D01*
X71650201Y-108451772D01*
X71567829Y-108378909D01*
X71467473Y-108335190D01*
X71349135Y-108320616D01*
X71231415Y-108335190D01*
X71131266Y-108378909D01*
X71048688Y-108451772D01*
X70983679Y-108553780D01*
X70949825Y-108640138D01*
X70922126Y-108743767D01*
X70900583Y-108864667D01*
X70885195Y-109002838D01*
X70875962Y-109158280D01*
X70872885Y-109330994D01*
X70875962Y-109503203D01*
X70885195Y-109658232D01*
X70900583Y-109796082D01*
X70922126Y-109916752D01*
X70949825Y-110020243D01*
X70983679Y-110106554D01*
X71048688Y-110208563D01*
X71131266Y-110281427D01*
X71231415Y-110325145D01*
X71349135Y-110339718D01*
X71467473Y-110325249D01*
X71567829Y-110281840D01*
X71650201Y-110209493D01*
X71714591Y-110108208D01*
X71748949Y-110021851D01*
X71777061Y-109918222D01*
X71798926Y-109797322D01*
X71814544Y-109659151D01*
X71823915Y-109503708D01*
X71827039Y-109330994D01*
X71827039Y-109330994D01*
G37*
X71827039Y-109330994D02*
X72175958Y-109330994D01*
X72172753Y-109487108D01*
X72163141Y-109632991D01*
X72147121Y-109768642D01*
X72124693Y-109894060D01*
X72095858Y-110009247D01*
X72060615Y-110114202D01*
X72018964Y-110208925D01*
X71970906Y-110293416D01*
X71897134Y-110390430D01*
X71811420Y-110469805D01*
X71713763Y-110531541D01*
X71604163Y-110575638D01*
X71482620Y-110602096D01*
X71349135Y-110610916D01*
X71215649Y-110602142D01*
X71094105Y-110575822D01*
X70984506Y-110531954D01*
X70886849Y-110470539D01*
X70801135Y-110391578D01*
X70727364Y-110295069D01*
X70679693Y-110210914D01*
X70638377Y-110116372D01*
X70603418Y-110011444D01*
X70574815Y-109896128D01*
X70552569Y-109770425D01*
X70536678Y-109634335D01*
X70527144Y-109487858D01*
X70523966Y-109330994D01*
X70527144Y-109174492D01*
X70536678Y-109028274D01*
X70552569Y-108892340D01*
X70574815Y-108766689D01*
X70603418Y-108651321D01*
X70638377Y-108546237D01*
X70679693Y-108451436D01*
X70727364Y-108366918D01*
X70801594Y-108269905D01*
X70887584Y-108190531D01*
X70985332Y-108128795D01*
X71094841Y-108084698D01*
X71216108Y-108058239D01*
X71349135Y-108049418D01*
X71482620Y-108058239D01*
X71604163Y-108084698D01*
X71713763Y-108128795D01*
X71811420Y-108190531D01*
X71897134Y-108269905D01*
X71970906Y-108366918D01*
X72018964Y-108451436D01*
X72060615Y-108546237D01*
X72095858Y-108651321D01*
X72124693Y-108766689D01*
X72147121Y-108892340D01*
X72163141Y-109028274D01*
X72172753Y-109174492D01*
X72175958Y-109330994D01*
X71827039Y-109330994D01*
X71823915Y-109158280D01*
X71814544Y-109002838D01*
X71798926Y-108864667D01*
X71777061Y-108743767D01*
X71748949Y-108640138D01*
X71714591Y-108553780D01*
X71650201Y-108451772D01*
X71567829Y-108378909D01*
X71467473Y-108335190D01*
X71349135Y-108320616D01*
X71231415Y-108335190D01*
X71131266Y-108378909D01*
X71048688Y-108451772D01*
X70983679Y-108553780D01*
X70949825Y-108640138D01*
X70922126Y-108743767D01*
X70900583Y-108864667D01*
X70885195Y-109002838D01*
X70875962Y-109158280D01*
X70872885Y-109330994D01*
X70875962Y-109503203D01*
X70885195Y-109658232D01*
X70900583Y-109796082D01*
X70922126Y-109916752D01*
X70949825Y-110020243D01*
X70983679Y-110106554D01*
X71048688Y-110208563D01*
X71131266Y-110281427D01*
X71231415Y-110325145D01*
X71349135Y-110339718D01*
X71467473Y-110325249D01*
X71567829Y-110281840D01*
X71650201Y-110209493D01*
X71714591Y-110108208D01*
X71748949Y-110021851D01*
X71777061Y-109918222D01*
X71798926Y-109797322D01*
X71814544Y-109659151D01*
X71823915Y-109503708D01*
X71827039Y-109330994D01*
G36*
X74041270Y-108178402D02*
X74041270Y-108517400D01*
X73939662Y-108457687D01*
X73837687Y-108408628D01*
X73735346Y-108370225D01*
X73633554Y-108342666D01*
X73531028Y-108326130D01*
X73427768Y-108320616D01*
X73281144Y-108332928D01*
X73156569Y-108369860D01*
X73054044Y-108431410D01*
X72977792Y-108512808D01*
X72932041Y-108611475D01*
X72916791Y-108727413D01*
X72939115Y-108871695D01*
X73006088Y-108977114D01*
X73083993Y-109031318D01*
X73196441Y-109079273D01*
X73343432Y-109120981D01*
X73518718Y-109160668D01*
X73650083Y-109196784D01*
X73766367Y-109240309D01*
X73867570Y-109291241D01*
X73953693Y-109349581D01*
X74024734Y-109415329D01*
X74094186Y-109510001D01*
X74143795Y-109620382D01*
X74173561Y-109746473D01*
X74183484Y-109888272D01*
X74174752Y-110022482D01*
X74148558Y-110143331D01*
X74104902Y-110250818D01*
X74043783Y-110344943D01*
X73965203Y-110425708D01*
X73869952Y-110492383D01*
X73758827Y-110544241D01*
X73631827Y-110581283D01*
X73488952Y-110603508D01*
X73330203Y-110610916D01*
X73214263Y-110606690D01*
X73097957Y-110594012D01*
X72981283Y-110572881D01*
X72864242Y-110544402D01*
X72746833Y-110507471D01*
X72629057Y-110462087D01*
X72629057Y-110106554D01*
X72753448Y-110179866D01*
X72873061Y-110238846D01*
X72987898Y-110283494D01*
X73101632Y-110314730D01*
X73215733Y-110333471D01*
X73330203Y-110339718D01*
X73449678Y-110332690D01*
X73555098Y-110311606D01*
X73646462Y-110276466D01*
X73723770Y-110227270D01*
X73801858Y-110141281D01*
X73848712Y-110035447D01*
X73864330Y-109909770D01*
X73853489Y-109796036D01*
X73820967Y-109701778D01*
X73766766Y-109626996D01*
X73686838Y-109566914D01*
X73574941Y-109516754D01*
X73431075Y-109476514D01*
X73252481Y-109435173D01*
X73122438Y-109400910D01*
X73007477Y-109360297D01*
X72907597Y-109313334D01*
X72822798Y-109260020D01*
X72753080Y-109200356D01*
X72685074Y-109115091D01*
X72636498Y-109016389D01*
X72607353Y-108904251D01*
X72597637Y-108778676D01*
X72606501Y-108651677D01*
X72633091Y-108535261D01*
X72677409Y-108429428D01*
X72739454Y-108334177D01*
X72819226Y-108249510D01*
X72914344Y-108177478D01*
X73021103Y-108121453D01*
X73139504Y-108081435D01*
X73269547Y-108057423D01*
X73411231Y-108049418D01*
X73507693Y-108053095D01*
X73607463Y-108064119D01*
X73710541Y-108082491D01*
X73817108Y-108107114D01*
X73927351Y-108139084D01*
X74041270Y-108178402D01*
X74041270Y-108178402D01*
G37*
X74041270Y-108178402D02*
X74041270Y-108517400D01*
X73939662Y-108457687D01*
X73837687Y-108408628D01*
X73735346Y-108370225D01*
X73633554Y-108342666D01*
X73531028Y-108326130D01*
X73427768Y-108320616D01*
X73281144Y-108332928D01*
X73156569Y-108369860D01*
X73054044Y-108431410D01*
X72977792Y-108512808D01*
X72932041Y-108611475D01*
X72916791Y-108727413D01*
X72939115Y-108871695D01*
X73006088Y-108977114D01*
X73083993Y-109031318D01*
X73196441Y-109079273D01*
X73343432Y-109120981D01*
X73518718Y-109160668D01*
X73650083Y-109196784D01*
X73766367Y-109240309D01*
X73867570Y-109291241D01*
X73953693Y-109349581D01*
X74024734Y-109415329D01*
X74094186Y-109510001D01*
X74143795Y-109620382D01*
X74173561Y-109746473D01*
X74183484Y-109888272D01*
X74174752Y-110022482D01*
X74148558Y-110143331D01*
X74104902Y-110250818D01*
X74043783Y-110344943D01*
X73965203Y-110425708D01*
X73869952Y-110492383D01*
X73758827Y-110544241D01*
X73631827Y-110581283D01*
X73488952Y-110603508D01*
X73330203Y-110610916D01*
X73214263Y-110606690D01*
X73097957Y-110594012D01*
X72981283Y-110572881D01*
X72864242Y-110544402D01*
X72746833Y-110507471D01*
X72629057Y-110462087D01*
X72629057Y-110106554D01*
X72753448Y-110179866D01*
X72873061Y-110238846D01*
X72987898Y-110283494D01*
X73101632Y-110314730D01*
X73215733Y-110333471D01*
X73330203Y-110339718D01*
X73449678Y-110332690D01*
X73555098Y-110311606D01*
X73646462Y-110276466D01*
X73723770Y-110227270D01*
X73801858Y-110141281D01*
X73848712Y-110035447D01*
X73864330Y-109909770D01*
X73853489Y-109796036D01*
X73820967Y-109701778D01*
X73766766Y-109626996D01*
X73686838Y-109566914D01*
X73574941Y-109516754D01*
X73431075Y-109476514D01*
X73252481Y-109435173D01*
X73122438Y-109400910D01*
X73007477Y-109360297D01*
X72907597Y-109313334D01*
X72822798Y-109260020D01*
X72753080Y-109200356D01*
X72685074Y-109115091D01*
X72636498Y-109016389D01*
X72607353Y-108904251D01*
X72597637Y-108778676D01*
X72606501Y-108651677D01*
X72633091Y-108535261D01*
X72677409Y-108429428D01*
X72739454Y-108334177D01*
X72819226Y-108249510D01*
X72914344Y-108177478D01*
X73021103Y-108121453D01*
X73139504Y-108081435D01*
X73269547Y-108057423D01*
X73411231Y-108049418D01*
X73507693Y-108053095D01*
X73607463Y-108064119D01*
X73710541Y-108082491D01*
X73817108Y-108107114D01*
X73927351Y-108139084D01*
X74041270Y-108178402D01*
G36*
X74631622Y-108094067D02*
X74967312Y-108094067D01*
X74967312Y-109106098D01*
X75881778Y-109106098D01*
X75881778Y-108094067D01*
X76217468Y-108094067D01*
X76217468Y-110562960D01*
X75881778Y-110562960D01*
X75881778Y-109387218D01*
X74967312Y-109387218D01*
X74967312Y-110562960D01*
X74631622Y-110562960D01*
X74631622Y-108094067D01*
X74631622Y-108094067D01*
G37*
X74631622Y-108094067D02*
X74967312Y-108094067D01*
X74967312Y-109106098D01*
X75881778Y-109106098D01*
X75881778Y-108094067D01*
X76217468Y-108094067D01*
X76217468Y-110562960D01*
X75881778Y-110562960D01*
X75881778Y-109387218D01*
X74967312Y-109387218D01*
X74967312Y-110562960D01*
X74631622Y-110562960D01*
X74631622Y-108094067D01*
G36*
X76442364Y-108094067D02*
X76768133Y-108094067D01*
X77004604Y-110098285D01*
X77285723Y-108772062D01*
X77634643Y-108772062D01*
X77919070Y-110101593D01*
X78719986Y-106259622D01*
X79045754Y-106259622D01*
X78112546Y-110562960D01*
X77796700Y-110562960D01*
X77461010Y-109096176D01*
X77126973Y-110562960D01*
X76811127Y-110562960D01*
X76442364Y-108094067D01*
X76442364Y-108094067D01*
G37*
X76442364Y-108094067D02*
X76768133Y-108094067D01*
X77004604Y-110098285D01*
X77285723Y-108772062D01*
X77634643Y-108772062D01*
X77919070Y-110101593D01*
X78719986Y-106259622D01*
X79045754Y-106259622D01*
X78112546Y-110562960D01*
X77796700Y-110562960D01*
X77461010Y-109096176D01*
X77126973Y-110562960D01*
X76811127Y-110562960D01*
X76442364Y-108094067D01*
D11*
X86004762Y-111947619D02*
X85909524Y-111900000D01*
X85814286Y-111804762D01*
X85671429Y-111661905D01*
X85576190Y-111614286D01*
X85480952Y-111614286D01*
X85528571Y-111852381D02*
X85433333Y-111804762D01*
X85338095Y-111709524D01*
X85290476Y-111519048D01*
X85290476Y-111185714D01*
X85338095Y-110995238D01*
X85433333Y-110900000D01*
X85528571Y-110852381D01*
X85719048Y-110852381D01*
X85814286Y-110900000D01*
X85909524Y-110995238D01*
X85957143Y-111185714D01*
X85957143Y-111519048D01*
X85909524Y-111709524D01*
X85814286Y-111804762D01*
X85719048Y-111852381D01*
X85528571Y-111852381D01*
X86909524Y-111852381D02*
X86338095Y-111852381D01*
X86623809Y-111852381D02*
X86623809Y-110852381D01*
X86528571Y-110995238D01*
X86433333Y-111090476D01*
X86338095Y-111138095D01*
X83552381Y-95016666D02*
X83076190Y-95350000D01*
X83552381Y-95588095D02*
X82552381Y-95588095D01*
X82552381Y-95207142D01*
X82600000Y-95111904D01*
X82647619Y-95064285D01*
X82742857Y-95016666D01*
X82885714Y-95016666D01*
X82980952Y-95064285D01*
X83028571Y-95111904D01*
X83076190Y-95207142D01*
X83076190Y-95588095D01*
X82552381Y-94111904D02*
X82552381Y-94588095D01*
X83028571Y-94635714D01*
X82980952Y-94588095D01*
X82933333Y-94492857D01*
X82933333Y-94254761D01*
X82980952Y-94159523D01*
X83028571Y-94111904D01*
X83123810Y-94064285D01*
X83361905Y-94064285D01*
X83457143Y-94111904D01*
X83504762Y-94159523D01*
X83552381Y-94254761D01*
X83552381Y-94492857D01*
X83504762Y-94588095D01*
X83457143Y-94635714D01*
X72491429Y-133402381D02*
X72491429Y-132402381D01*
X72872382Y-132402381D01*
X72967620Y-132450000D01*
X73015239Y-132497619D01*
X73062858Y-132592857D01*
X73062858Y-132735714D01*
X73015239Y-132830952D01*
X72967620Y-132878571D01*
X72872382Y-132926190D01*
X72491429Y-132926190D01*
X73681905Y-132402381D02*
X73872382Y-132402381D01*
X73967620Y-132450000D01*
X74062858Y-132545238D01*
X74110477Y-132735714D01*
X74110477Y-133069048D01*
X74062858Y-133259524D01*
X73967620Y-133354762D01*
X73872382Y-133402381D01*
X73681905Y-133402381D01*
X73586667Y-133354762D01*
X73491429Y-133259524D01*
X73443810Y-133069048D01*
X73443810Y-132735714D01*
X73491429Y-132545238D01*
X73586667Y-132450000D01*
X73681905Y-132402381D01*
X74443810Y-132402381D02*
X74681905Y-133402381D01*
X74872382Y-132688095D01*
X75062858Y-133402381D01*
X75300953Y-132402381D01*
X75681905Y-132878571D02*
X76015239Y-132878571D01*
X76158096Y-133402381D02*
X75681905Y-133402381D01*
X75681905Y-132402381D01*
X76158096Y-132402381D01*
X77158096Y-133402381D02*
X76824762Y-132926190D01*
X76586667Y-133402381D02*
X76586667Y-132402381D01*
X76967620Y-132402381D01*
X77062858Y-132450000D01*
X77110477Y-132497619D01*
X77158096Y-132592857D01*
X77158096Y-132735714D01*
X77110477Y-132830952D01*
X77062858Y-132878571D01*
X76967620Y-132926190D01*
X76586667Y-132926190D01*
X77586667Y-133021429D02*
X78348572Y-133021429D01*
X82911429Y-133462381D02*
X82911429Y-132462381D01*
X83292382Y-132462381D01*
X83387620Y-132510000D01*
X83435239Y-132557619D01*
X83482858Y-132652857D01*
X83482858Y-132795714D01*
X83435239Y-132890952D01*
X83387620Y-132938571D01*
X83292382Y-132986190D01*
X82911429Y-132986190D01*
X84101905Y-132462381D02*
X84292382Y-132462381D01*
X84387620Y-132510000D01*
X84482858Y-132605238D01*
X84530477Y-132795714D01*
X84530477Y-133129048D01*
X84482858Y-133319524D01*
X84387620Y-133414762D01*
X84292382Y-133462381D01*
X84101905Y-133462381D01*
X84006667Y-133414762D01*
X83911429Y-133319524D01*
X83863810Y-133129048D01*
X83863810Y-132795714D01*
X83911429Y-132605238D01*
X84006667Y-132510000D01*
X84101905Y-132462381D01*
X84863810Y-132462381D02*
X85101905Y-133462381D01*
X85292382Y-132748095D01*
X85482858Y-133462381D01*
X85720953Y-132462381D01*
X86101905Y-132938571D02*
X86435239Y-132938571D01*
X86578096Y-133462381D02*
X86101905Y-133462381D01*
X86101905Y-132462381D01*
X86578096Y-132462381D01*
X87578096Y-133462381D02*
X87244762Y-132986190D01*
X87006667Y-133462381D02*
X87006667Y-132462381D01*
X87387620Y-132462381D01*
X87482858Y-132510000D01*
X87530477Y-132557619D01*
X87578096Y-132652857D01*
X87578096Y-132795714D01*
X87530477Y-132890952D01*
X87482858Y-132938571D01*
X87387620Y-132986190D01*
X87006667Y-132986190D01*
X88006667Y-133081429D02*
X88768572Y-133081429D01*
X88387620Y-133462381D02*
X88387620Y-132700476D01*
X83552381Y-89066666D02*
X83076190Y-89400000D01*
X83552381Y-89638095D02*
X82552381Y-89638095D01*
X82552381Y-89257142D01*
X82600000Y-89161904D01*
X82647619Y-89114285D01*
X82742857Y-89066666D01*
X82885714Y-89066666D01*
X82980952Y-89114285D01*
X83028571Y-89161904D01*
X83076190Y-89257142D01*
X83076190Y-89638095D01*
X83552381Y-88114285D02*
X83552381Y-88685714D01*
X83552381Y-88400000D02*
X82552381Y-88400000D01*
X82695238Y-88495238D01*
X82790476Y-88590476D01*
X82838095Y-88685714D01*
X83552381Y-92066666D02*
X83076190Y-92400000D01*
X83552381Y-92638095D02*
X82552381Y-92638095D01*
X82552381Y-92257142D01*
X82600000Y-92161904D01*
X82647619Y-92114285D01*
X82742857Y-92066666D01*
X82885714Y-92066666D01*
X82980952Y-92114285D01*
X83028571Y-92161904D01*
X83076190Y-92257142D01*
X83076190Y-92638095D01*
X82647619Y-91685714D02*
X82600000Y-91638095D01*
X82552381Y-91542857D01*
X82552381Y-91304761D01*
X82600000Y-91209523D01*
X82647619Y-91161904D01*
X82742857Y-91114285D01*
X82838095Y-91114285D01*
X82980952Y-91161904D01*
X83552381Y-91733333D01*
X83552381Y-91114285D01*
X83552381Y-98066666D02*
X83076190Y-98400000D01*
X83552381Y-98638095D02*
X82552381Y-98638095D01*
X82552381Y-98257142D01*
X82600000Y-98161904D01*
X82647619Y-98114285D01*
X82742857Y-98066666D01*
X82885714Y-98066666D01*
X82980952Y-98114285D01*
X83028571Y-98161904D01*
X83076190Y-98257142D01*
X83076190Y-98638095D01*
X82885714Y-97209523D02*
X83552381Y-97209523D01*
X82504762Y-97447619D02*
X83219048Y-97685714D01*
X83219048Y-97066666D01*
X67885715Y-130828571D02*
X67552381Y-130828571D01*
X67552381Y-131352381D02*
X67552381Y-130352381D01*
X68028572Y-130352381D01*
X68933334Y-131352381D02*
X68361905Y-131352381D01*
X68647619Y-131352381D02*
X68647619Y-130352381D01*
X68552381Y-130495238D01*
X68457143Y-130590476D01*
X68361905Y-130638095D01*
X73738095Y-103502381D02*
X73738095Y-104311905D01*
X73785714Y-104407143D01*
X73833333Y-104454762D01*
X73928571Y-104502381D01*
X74119048Y-104502381D01*
X74214286Y-104454762D01*
X74261905Y-104407143D01*
X74309524Y-104311905D01*
X74309524Y-103502381D01*
X75309524Y-104502381D02*
X74738095Y-104502381D01*
X75023809Y-104502381D02*
X75023809Y-103502381D01*
X74928571Y-103645238D01*
X74833333Y-103740476D01*
X74738095Y-103788095D01*
X95186361Y-132872371D02*
X95329218Y-132919990D01*
X95376837Y-132967610D01*
X95424456Y-133062848D01*
X95424456Y-133205705D01*
X95376837Y-133300943D01*
X95329218Y-133348562D01*
X95233980Y-133396181D01*
X94853027Y-133396181D01*
X94853027Y-132396181D01*
X95186361Y-132396181D01*
X95281599Y-132443800D01*
X95329218Y-132491419D01*
X95376837Y-132586657D01*
X95376837Y-132681895D01*
X95329218Y-132777133D01*
X95281599Y-132824752D01*
X95186361Y-132872371D01*
X94853027Y-132872371D01*
X95853027Y-132872371D02*
X96186361Y-132872371D01*
X96329218Y-133396181D02*
X95853027Y-133396181D01*
X95853027Y-132396181D01*
X96329218Y-132396181D01*
X96757789Y-133396181D02*
X96757789Y-132396181D01*
X96995884Y-132396181D01*
X97138742Y-132443800D01*
X97233980Y-132539038D01*
X97281599Y-132634276D01*
X97329218Y-132824752D01*
X97329218Y-132967610D01*
X97281599Y-133158086D01*
X97233980Y-133253324D01*
X97138742Y-133348562D01*
X96995884Y-133396181D01*
X96757789Y-133396181D01*
X97757789Y-133015229D02*
X98519694Y-133015229D01*
X98138742Y-133396181D02*
X98138742Y-132634276D01*
X106425121Y-132913011D02*
X106567978Y-132960630D01*
X106615597Y-133008250D01*
X106663216Y-133103488D01*
X106663216Y-133246345D01*
X106615597Y-133341583D01*
X106567978Y-133389202D01*
X106472740Y-133436821D01*
X106091787Y-133436821D01*
X106091787Y-132436821D01*
X106425121Y-132436821D01*
X106520359Y-132484440D01*
X106567978Y-132532059D01*
X106615597Y-132627297D01*
X106615597Y-132722535D01*
X106567978Y-132817773D01*
X106520359Y-132865392D01*
X106425121Y-132913011D01*
X106091787Y-132913011D01*
X107091787Y-132913011D02*
X107425121Y-132913011D01*
X107567978Y-133436821D02*
X107091787Y-133436821D01*
X107091787Y-132436821D01*
X107567978Y-132436821D01*
X107996549Y-133436821D02*
X107996549Y-132436821D01*
X108234644Y-132436821D01*
X108377502Y-132484440D01*
X108472740Y-132579678D01*
X108520359Y-132674916D01*
X108567978Y-132865392D01*
X108567978Y-133008250D01*
X108520359Y-133198726D01*
X108472740Y-133293964D01*
X108377502Y-133389202D01*
X108234644Y-133436821D01*
X107996549Y-133436821D01*
X108996549Y-133055869D02*
X109758454Y-133055869D01*
X73457143Y-92590476D02*
X73504762Y-92638095D01*
X73552381Y-92780952D01*
X73552381Y-92876190D01*
X73504762Y-93019048D01*
X73409524Y-93114286D01*
X73314286Y-93161905D01*
X73123810Y-93209524D01*
X72980952Y-93209524D01*
X72790476Y-93161905D01*
X72695238Y-93114286D01*
X72600000Y-93019048D01*
X72552381Y-92876190D01*
X72552381Y-92780952D01*
X72600000Y-92638095D01*
X72647619Y-92590476D01*
X73552381Y-92161905D02*
X72552381Y-92161905D01*
X73552381Y-91590476D01*
X72552381Y-91590476D01*
X73552381Y-90590476D02*
X73552381Y-91161905D01*
X73552381Y-90876191D02*
X72552381Y-90876191D01*
X72695238Y-90971429D01*
X72790476Y-91066667D01*
X72838095Y-91161905D01*
X76552381Y-89066666D02*
X76076190Y-89400000D01*
X76552381Y-89638095D02*
X75552381Y-89638095D01*
X75552381Y-89257142D01*
X75600000Y-89161904D01*
X75647619Y-89114285D01*
X75742857Y-89066666D01*
X75885714Y-89066666D01*
X75980952Y-89114285D01*
X76028571Y-89161904D01*
X76076190Y-89257142D01*
X76076190Y-89638095D01*
X75552381Y-88733333D02*
X75552381Y-88114285D01*
X75933333Y-88447619D01*
X75933333Y-88304761D01*
X75980952Y-88209523D01*
X76028571Y-88161904D01*
X76123810Y-88114285D01*
X76361905Y-88114285D01*
X76457143Y-88161904D01*
X76504762Y-88209523D01*
X76552381Y-88304761D01*
X76552381Y-88590476D01*
X76504762Y-88685714D01*
X76457143Y-88733333D01*
X83361905Y-118352381D02*
X83361905Y-117352381D01*
X83600000Y-117352381D01*
X83742858Y-117400000D01*
X83838096Y-117495238D01*
X83885715Y-117590476D01*
X83933334Y-117780952D01*
X83933334Y-117923810D01*
X83885715Y-118114286D01*
X83838096Y-118209524D01*
X83742858Y-118304762D01*
X83600000Y-118352381D01*
X83361905Y-118352381D01*
X84266667Y-117352381D02*
X84885715Y-117352381D01*
X84552381Y-117733333D01*
X84695239Y-117733333D01*
X84790477Y-117780952D01*
X84838096Y-117828571D01*
X84885715Y-117923810D01*
X84885715Y-118161905D01*
X84838096Y-118257143D01*
X84790477Y-118304762D01*
X84695239Y-118352381D01*
X84409524Y-118352381D01*
X84314286Y-118304762D01*
X84266667Y-118257143D01*
M02*
