G04 #@! TF.FileFunction,Soldermask,Top*
%FSLAX46Y46*%
G04 Gerber Fmt 4.6, Leading zero omitted, Abs format (unit mm)*
G04 Created by KiCad (PCBNEW 4.0.6) date 04/13/17 22:35:33*
%MOMM*%
%LPD*%
G01*
G04 APERTURE LIST*
%ADD10C,0.100000*%
%ADD11C,3.600000*%
%ADD12R,2.400000X2.100000*%
%ADD13C,2.540000*%
%ADD14R,1.150000X1.900000*%
%ADD15R,2.940000X1.670000*%
%ADD16R,2.100000X2.400000*%
%ADD17R,2.400000X3.100000*%
%ADD18R,6.900000X9.400000*%
%ADD19R,1.900000X1.900000*%
%ADD20R,1.290000X0.840000*%
%ADD21R,1.690000X4.840000*%
%ADD22R,3.440000X4.340000*%
%ADD23R,5.400000X5.400000*%
%ADD24R,5.400000X4.400000*%
G04 APERTURE END LIST*
D10*
D11*
X70000000Y-136000000D03*
X112000000Y-136000000D03*
X112000000Y-106000000D03*
X70000000Y-106000000D03*
D12*
X78100000Y-117900000D03*
X82100000Y-117900000D03*
X96600000Y-107900000D03*
X100600000Y-107900000D03*
X103350000Y-109900000D03*
X107350000Y-109900000D03*
X75100000Y-117900000D03*
X71100000Y-117900000D03*
D13*
X74000000Y-105000000D03*
D14*
X85770000Y-110650000D03*
X84500000Y-110650000D03*
X84500000Y-117150000D03*
X85770000Y-117150000D03*
D15*
X73830000Y-114440000D03*
X78370000Y-114440000D03*
X78370000Y-111900000D03*
X73830000Y-111900000D03*
X73830000Y-109360000D03*
X78370000Y-109360000D03*
D16*
X82100000Y-110900000D03*
X82100000Y-114900000D03*
D17*
X91700000Y-116900000D03*
X88600000Y-116900000D03*
D18*
X98310000Y-113900000D03*
D19*
X96560000Y-117400000D03*
X96560000Y-110400000D03*
X98560000Y-110400000D03*
X100560000Y-110400000D03*
X98560000Y-117400000D03*
X95810000Y-112150000D03*
X95810000Y-115650000D03*
X100560000Y-117400000D03*
D20*
X103390000Y-114540000D03*
X103390000Y-115810000D03*
X103390000Y-113260000D03*
D21*
X97910000Y-113900000D03*
D22*
X100110000Y-113900000D03*
D20*
X103390000Y-111990000D03*
D18*
X98310000Y-113900000D03*
D19*
X95810000Y-113900000D03*
D23*
X71680000Y-129900000D03*
X76690000Y-129900000D03*
D24*
X71680000Y-125900000D03*
X76690000Y-125900000D03*
D23*
X71680000Y-121900000D03*
X76690000Y-121900000D03*
X94180000Y-129900000D03*
X99190000Y-129900000D03*
D24*
X94180000Y-125900000D03*
X99190000Y-125900000D03*
D23*
X94180000Y-121900000D03*
X99190000Y-121900000D03*
X82930000Y-129900000D03*
X87940000Y-129900000D03*
D24*
X82930000Y-125900000D03*
X87940000Y-125900000D03*
D23*
X82930000Y-121900000D03*
X87940000Y-121900000D03*
X105430000Y-129900000D03*
X110440000Y-129900000D03*
D24*
X105430000Y-125900000D03*
X110440000Y-125900000D03*
D23*
X105430000Y-121900000D03*
X110440000Y-121900000D03*
M02*
