M48
;DRILL file {KiCad 4.0.6} date 05/13/17 18:14:58
;FORMAT={-:-/ absolute / metric / decimal}
FMAT,2
METRIC,TZ
T1C0.400
T2C1.000
T3C2.000
%
G90
G05
M71
T1
X71.9Y-114.9
X72.Y-120.1
X76.5Y-115.
X76.6Y-120.
X102.Y-108.25
X104.25Y-119.5
X105.25Y-119.5
X106.25Y-119.5
X107.25Y-119.5
T2
X91.Y-112.
X91.Y-114.
X91.Y-116.
X91.Y-118.
X91.Y-120.
X91.Y-122.
X93.Y-112.
X93.Y-114.
X93.Y-116.
X93.Y-118.
X93.Y-120.
X93.Y-122.
X95.Y-112.
X95.Y-114.
X95.Y-116.
X95.Y-118.
X95.Y-120.
X95.Y-122.
X97.Y-112.
X97.Y-114.
X97.Y-116.
X97.Y-118.
X97.Y-120.
X97.Y-122.
X99.Y-112.
X99.Y-114.
X99.Y-116.
X99.Y-118.
X99.Y-120.
X99.Y-122.
X101.Y-112.
X101.Y-114.
X101.Y-116.
X101.Y-118.
X101.Y-120.
X101.Y-122.
T3
X70.68Y-125.4
X70.68Y-130.4
X70.68Y-135.4
X77.69Y-125.4
X77.69Y-130.4
X77.69Y-135.4
X81.93Y-125.4
X81.93Y-130.4
X81.93Y-135.4
X88.94Y-125.4
X88.94Y-130.4
X88.94Y-135.4
X93.18Y-125.4
X93.18Y-130.4
X93.18Y-135.4
X100.19Y-125.4
X100.19Y-130.4
X100.19Y-135.4
X104.43Y-125.4
X104.43Y-130.4
X104.43Y-135.4
X111.44Y-125.4
X111.44Y-130.4
X111.44Y-135.4
T0
M30
