M48
;DRILL file {KiCad 4.0.4-stable} date 12/03/16 18:33:26
;FORMAT={-:-/ absolute / metric / decimal}
FMAT,2
METRIC,TZ
T1C0.400
T2C0.500
T3C2.000
%
G90
G05
M71
T1
X189.25Y-94.1
X192.3Y-78.5
X192.5Y-84.5
X193.1Y-97.1
X194.5Y-97.04
X194.5Y-105.
X195.7Y-97.1
T2
X199.5Y-82.5
X199.5Y-83.5
X199.5Y-84.5
X199.5Y-85.5
X199.5Y-86.5
X199.5Y-87.5
X199.5Y-88.5
X199.5Y-89.5
X199.5Y-90.5
X199.5Y-91.5
X199.5Y-92.5
X199.5Y-93.5
X199.5Y-94.5
X199.5Y-95.5
X199.5Y-96.5
X199.5Y-97.5
X199.5Y-98.5
X199.5Y-99.5
X199.5Y-100.5
X199.5Y-101.5
X199.5Y-102.5
X199.5Y-103.5
X199.5Y-104.5
X199.5Y-105.5
X199.5Y-106.5
X200.5Y-82.5
X200.5Y-83.5
X200.5Y-84.5
X200.5Y-85.5
X200.5Y-86.5
X200.5Y-87.5
X200.5Y-88.5
X200.5Y-89.5
X200.5Y-90.5
X200.5Y-91.5
X200.5Y-92.5
X200.5Y-93.5
X200.5Y-94.5
X200.5Y-95.5
X200.5Y-96.5
X200.5Y-97.5
X200.5Y-98.5
X200.5Y-99.5
X200.5Y-100.5
X200.5Y-101.5
X200.5Y-102.5
X200.5Y-103.5
X200.5Y-104.5
X200.5Y-105.5
X200.5Y-106.5
X201.5Y-82.5
X201.5Y-83.5
X201.5Y-84.5
X201.5Y-85.5
X201.5Y-86.5
X201.5Y-87.5
X201.5Y-88.5
X201.5Y-89.5
X201.5Y-90.5
X201.5Y-91.5
X201.5Y-92.5
X201.5Y-93.5
X201.5Y-94.5
X201.5Y-95.5
X201.5Y-96.5
X201.5Y-97.5
X201.5Y-98.5
X201.5Y-99.5
X201.5Y-100.5
X201.5Y-101.5
X201.5Y-102.5
X201.5Y-103.5
X201.5Y-104.5
X201.5Y-105.5
X201.5Y-106.5
X202.5Y-82.5
X202.5Y-83.5
X202.5Y-84.5
X202.5Y-85.5
X202.5Y-86.5
X202.5Y-87.5
X202.5Y-88.5
X202.5Y-89.5
X202.5Y-90.5
X202.5Y-91.5
X202.5Y-92.5
X202.5Y-93.5
X202.5Y-94.5
X202.5Y-95.5
X202.5Y-96.5
X202.5Y-97.5
X202.5Y-98.5
X202.5Y-99.5
X202.5Y-100.5
X202.5Y-101.5
X202.5Y-102.5
X202.5Y-103.5
X202.5Y-104.5
X202.5Y-105.5
X202.5Y-106.5
X203.5Y-82.5
X203.5Y-83.5
X203.5Y-84.5
X203.5Y-85.5
X203.5Y-86.5
X203.5Y-87.5
X203.5Y-88.5
X203.5Y-89.5
X203.5Y-90.5
X203.5Y-91.5
X203.5Y-92.5
X203.5Y-93.5
X203.5Y-94.5
X203.5Y-95.5
X203.5Y-96.5
X203.5Y-97.5
X203.5Y-98.5
X203.5Y-99.5
X203.5Y-100.5
X203.5Y-101.5
X203.5Y-102.5
X203.5Y-103.5
X203.5Y-104.5
X203.5Y-105.5
X203.5Y-106.5
X204.5Y-82.5
X204.5Y-83.5
X204.5Y-84.5
X204.5Y-85.5
X204.5Y-86.5
X204.5Y-87.5
X204.5Y-88.5
X204.5Y-89.5
X204.5Y-90.5
X204.5Y-91.5
X204.5Y-92.5
X204.5Y-93.5
X204.5Y-94.5
X204.5Y-95.5
X204.5Y-96.5
X204.5Y-97.5
X204.5Y-98.5
X204.5Y-99.5
X204.5Y-100.5
X204.5Y-101.5
X204.5Y-102.5
X204.5Y-103.5
X204.5Y-104.5
X204.5Y-105.5
X204.5Y-106.5
X205.5Y-82.5
X205.5Y-83.5
X205.5Y-84.5
X205.5Y-85.5
X205.5Y-86.5
X205.5Y-87.5
X205.5Y-88.5
X205.5Y-89.5
X205.5Y-90.5
X205.5Y-91.5
X205.5Y-92.5
X205.5Y-93.5
X205.5Y-94.5
X205.5Y-95.5
X205.5Y-96.5
X205.5Y-97.5
X205.5Y-98.5
X205.5Y-99.5
X205.5Y-100.5
X205.5Y-101.5
X205.5Y-102.5
X205.5Y-103.5
X205.5Y-104.5
X205.5Y-105.5
X205.5Y-106.5
X206.5Y-82.5
X206.5Y-83.5
X206.5Y-84.5
X206.5Y-85.5
X206.5Y-86.5
X206.5Y-87.5
X206.5Y-88.5
X206.5Y-89.5
X206.5Y-90.5
X206.5Y-91.5
X206.5Y-92.5
X206.5Y-93.5
X206.5Y-94.5
X206.5Y-95.5
X206.5Y-96.5
X206.5Y-97.5
X206.5Y-98.5
X206.5Y-99.5
X206.5Y-100.5
X206.5Y-101.5
X206.5Y-102.5
X206.5Y-103.5
X206.5Y-104.5
X206.5Y-105.5
X206.5Y-106.5
X207.5Y-82.5
X207.5Y-83.5
X207.5Y-84.5
X207.5Y-85.5
X207.5Y-86.5
X207.5Y-87.5
X207.5Y-88.5
X207.5Y-89.5
X207.5Y-90.5
X207.5Y-91.5
X207.5Y-92.5
X207.5Y-93.5
X207.5Y-94.5
X207.5Y-95.5
X207.5Y-96.5
X207.5Y-97.5
X207.5Y-98.5
X207.5Y-99.5
X207.5Y-100.5
X207.5Y-101.5
X207.5Y-102.5
X207.5Y-103.5
X207.5Y-104.5
X207.5Y-105.5
X207.5Y-106.5
X208.5Y-82.5
X208.5Y-83.5
X208.5Y-84.5
X208.5Y-85.5
X208.5Y-86.5
X208.5Y-87.5
X208.5Y-88.5
X208.5Y-89.5
X208.5Y-90.5
X208.5Y-91.5
X208.5Y-92.5
X208.5Y-93.5
X208.5Y-94.5
X208.5Y-95.5
X208.5Y-96.5
X208.5Y-97.5
X208.5Y-98.5
X208.5Y-99.5
X208.5Y-100.5
X208.5Y-101.5
X208.5Y-102.5
X208.5Y-103.5
X208.5Y-104.5
X208.5Y-105.5
X208.5Y-106.5
X209.5Y-82.5
X209.5Y-83.5
X209.5Y-84.5
X209.5Y-85.5
X209.5Y-86.5
X209.5Y-87.5
X209.5Y-88.5
X209.5Y-89.5
X209.5Y-90.5
X209.5Y-91.5
X209.5Y-92.5
X209.5Y-93.5
X209.5Y-94.5
X209.5Y-95.5
X209.5Y-96.5
X209.5Y-97.5
X209.5Y-98.5
X209.5Y-99.5
X209.5Y-100.5
X209.5Y-101.5
X209.5Y-102.5
X209.5Y-103.5
X209.5Y-104.5
X209.5Y-105.5
X209.5Y-106.5
X210.5Y-82.5
X210.5Y-83.5
X210.5Y-84.5
X210.5Y-85.5
X210.5Y-86.5
X210.5Y-87.5
X210.5Y-88.5
X210.5Y-89.5
X210.5Y-90.5
X210.5Y-91.5
X210.5Y-92.5
X210.5Y-93.5
X210.5Y-94.5
X210.5Y-95.5
X210.5Y-96.5
X210.5Y-97.5
X210.5Y-98.5
X210.5Y-99.5
X210.5Y-100.5
X210.5Y-101.5
X210.5Y-102.5
X210.5Y-103.5
X210.5Y-104.5
X210.5Y-105.5
X210.5Y-106.5
X211.5Y-82.5
X211.5Y-83.5
X211.5Y-84.5
X211.5Y-85.5
X211.5Y-86.5
X211.5Y-87.5
X211.5Y-88.5
X211.5Y-89.5
X211.5Y-90.5
X211.5Y-91.5
X211.5Y-92.5
X211.5Y-93.5
X211.5Y-94.5
X211.5Y-95.5
X211.5Y-96.5
X211.5Y-97.5
X211.5Y-98.5
X211.5Y-99.5
X211.5Y-100.5
X211.5Y-101.5
X211.5Y-102.5
X211.5Y-103.5
X211.5Y-104.5
X211.5Y-105.5
X211.5Y-106.5
X212.5Y-82.5
X212.5Y-83.5
X212.5Y-84.5
X212.5Y-85.5
X212.5Y-86.5
X212.5Y-87.5
X212.5Y-88.5
X212.5Y-89.5
X212.5Y-90.5
X212.5Y-91.5
X212.5Y-92.5
X212.5Y-93.5
X212.5Y-94.5
X212.5Y-95.5
X212.5Y-96.5
X212.5Y-97.5
X212.5Y-98.5
X212.5Y-99.5
X212.5Y-100.5
X212.5Y-101.5
X212.5Y-102.5
X212.5Y-103.5
X212.5Y-104.5
X212.5Y-105.5
X212.5Y-106.5
X213.5Y-82.5
X213.5Y-83.5
X213.5Y-84.5
X213.5Y-85.5
X213.5Y-86.5
X213.5Y-87.5
X213.5Y-88.5
X213.5Y-89.5
X213.5Y-90.5
X213.5Y-91.5
X213.5Y-92.5
X213.5Y-93.5
X213.5Y-94.5
X213.5Y-95.5
X213.5Y-96.5
X213.5Y-97.5
X213.5Y-98.5
X213.5Y-99.5
X213.5Y-100.5
X213.5Y-101.5
X213.5Y-102.5
X213.5Y-103.5
X213.5Y-104.5
X213.5Y-105.5
X213.5Y-106.5
X214.5Y-82.5
X214.5Y-83.5
X214.5Y-84.5
X214.5Y-85.5
X214.5Y-86.5
X214.5Y-87.5
X214.5Y-88.5
X214.5Y-89.5
X214.5Y-90.5
X214.5Y-91.5
X214.5Y-92.5
X214.5Y-93.5
X214.5Y-94.5
X214.5Y-95.5
X214.5Y-96.5
X214.5Y-97.5
X214.5Y-98.5
X214.5Y-99.5
X214.5Y-100.5
X214.5Y-101.5
X214.5Y-102.5
X214.5Y-103.5
X214.5Y-104.5
X214.5Y-105.5
X214.5Y-106.5
X215.5Y-82.5
X215.5Y-83.5
X215.5Y-84.5
X215.5Y-85.5
X215.5Y-86.5
X215.5Y-87.5
X215.5Y-88.5
X215.5Y-89.5
X215.5Y-90.5
X215.5Y-91.5
X215.5Y-92.5
X215.5Y-93.5
X215.5Y-94.5
X215.5Y-95.5
X215.5Y-96.5
X215.5Y-97.5
X215.5Y-98.5
X215.5Y-99.5
X215.5Y-100.5
X215.5Y-101.5
X215.5Y-102.5
X215.5Y-103.5
X215.5Y-104.5
X215.5Y-105.5
X215.5Y-106.5
X216.5Y-82.5
X216.5Y-83.5
X216.5Y-84.5
X216.5Y-85.5
X216.5Y-86.5
X216.5Y-87.5
X216.5Y-88.5
X216.5Y-89.5
X216.5Y-90.5
X216.5Y-91.5
X216.5Y-92.5
X216.5Y-93.5
X216.5Y-94.5
X216.5Y-95.5
X216.5Y-96.5
X216.5Y-97.5
X216.5Y-98.5
X216.5Y-99.5
X216.5Y-100.5
X216.5Y-101.5
X216.5Y-102.5
X216.5Y-103.5
X216.5Y-104.5
X216.5Y-105.5
X216.5Y-106.5
X217.5Y-82.5
X217.5Y-83.5
X217.5Y-84.5
X217.5Y-85.5
X217.5Y-86.5
X217.5Y-87.5
X217.5Y-88.5
X217.5Y-89.5
X217.5Y-90.5
X217.5Y-91.5
X217.5Y-92.5
X217.5Y-93.5
X217.5Y-94.5
X217.5Y-95.5
X217.5Y-96.5
X217.5Y-97.5
X217.5Y-98.5
X217.5Y-99.5
X217.5Y-100.5
X217.5Y-101.5
X217.5Y-102.5
X217.5Y-103.5
X217.5Y-104.5
X217.5Y-105.5
X217.5Y-106.5
X218.5Y-82.5
X218.5Y-83.5
X218.5Y-84.5
X218.5Y-85.5
X218.5Y-86.5
X218.5Y-87.5
X218.5Y-88.5
X218.5Y-89.5
X218.5Y-90.5
X218.5Y-91.5
X218.5Y-92.5
X218.5Y-93.5
X218.5Y-94.5
X218.5Y-95.5
X218.5Y-96.5
X218.5Y-97.5
X218.5Y-98.5
X218.5Y-99.5
X218.5Y-100.5
X218.5Y-101.5
X218.5Y-102.5
X218.5Y-103.5
X218.5Y-104.5
X218.5Y-105.5
X218.5Y-106.5
X219.5Y-82.5
X219.5Y-83.5
X219.5Y-84.5
X219.5Y-85.5
X219.5Y-86.5
X219.5Y-87.5
X219.5Y-88.5
X219.5Y-89.5
X219.5Y-90.5
X219.5Y-91.5
X219.5Y-92.5
X219.5Y-93.5
X219.5Y-94.5
X219.5Y-95.5
X219.5Y-96.5
X219.5Y-97.5
X219.5Y-98.5
X219.5Y-99.5
X219.5Y-100.5
X219.5Y-101.5
X219.5Y-102.5
X219.5Y-103.5
X219.5Y-104.5
X219.5Y-105.5
X219.5Y-106.5
X220.5Y-82.5
X220.5Y-83.5
X220.5Y-84.5
X220.5Y-85.5
X220.5Y-86.5
X220.5Y-87.5
X220.5Y-88.5
X220.5Y-89.5
X220.5Y-90.5
X220.5Y-91.5
X220.5Y-92.5
X220.5Y-93.5
X220.5Y-94.5
X220.5Y-95.5
X220.5Y-96.5
X220.5Y-97.5
X220.5Y-98.5
X220.5Y-99.5
X220.5Y-100.5
X220.5Y-101.5
X220.5Y-102.5
X220.5Y-103.5
X220.5Y-104.5
X220.5Y-105.5
X220.5Y-106.5
X221.5Y-82.5
X221.5Y-83.5
X221.5Y-84.5
X221.5Y-85.5
X221.5Y-86.5
X221.5Y-87.5
X221.5Y-88.5
X221.5Y-89.5
X221.5Y-90.5
X221.5Y-91.5
X221.5Y-92.5
X221.5Y-93.5
X221.5Y-94.5
X221.5Y-95.5
X221.5Y-96.5
X221.5Y-97.5
X221.5Y-98.5
X221.5Y-99.5
X221.5Y-100.5
X221.5Y-101.5
X221.5Y-102.5
X221.5Y-103.5
X221.5Y-104.5
X221.5Y-105.5
X221.5Y-106.5
X222.5Y-82.5
X222.5Y-83.5
X222.5Y-84.5
X222.5Y-85.5
X222.5Y-86.5
X222.5Y-87.5
X222.5Y-88.5
X222.5Y-89.5
X222.5Y-90.5
X222.5Y-91.5
X222.5Y-92.5
X222.5Y-93.5
X222.5Y-94.5
X222.5Y-95.5
X222.5Y-96.5
X222.5Y-97.5
X222.5Y-98.5
X222.5Y-99.5
X222.5Y-100.5
X222.5Y-101.5
X222.5Y-102.5
X222.5Y-103.5
X222.5Y-104.5
X222.5Y-105.5
X222.5Y-106.5
X223.5Y-82.5
X223.5Y-83.5
X223.5Y-84.5
X223.5Y-85.5
X223.5Y-86.5
X223.5Y-87.5
X223.5Y-88.5
X223.5Y-89.5
X223.5Y-90.5
X223.5Y-91.5
X223.5Y-92.5
X223.5Y-93.5
X223.5Y-94.5
X223.5Y-95.5
X223.5Y-96.5
X223.5Y-97.5
X223.5Y-98.5
X223.5Y-99.5
X223.5Y-100.5
X223.5Y-101.5
X223.5Y-102.5
X223.5Y-103.5
X223.5Y-104.5
X223.5Y-105.5
X223.5Y-106.5
T3
X182.58Y-110.
X182.58Y-115.
X182.58Y-120.
X189.59Y-110.
X189.59Y-115.
X189.59Y-120.
X193.58Y-110.
X193.58Y-115.
X193.58Y-120.
X200.59Y-110.
X200.59Y-115.
X200.59Y-120.
X204.58Y-110.
X204.58Y-115.
X204.58Y-120.
X211.59Y-110.
X211.59Y-115.
X211.59Y-120.
X215.58Y-110.
X215.58Y-115.
X215.58Y-120.
X222.59Y-110.
X222.59Y-115.
X222.59Y-120.
T0
M30
