G04 #@! TF.FileFunction,Legend,Top*
%FSLAX46Y46*%
G04 Gerber Fmt 4.6, Leading zero omitted, Abs format (unit mm)*
G04 Created by KiCad (PCBNEW 4.0.6) date 04/13/17 23:57:20*
%MOMM*%
%LPD*%
G01*
G04 APERTURE LIST*
%ADD10C,0.100000*%
%ADD11C,0.300000*%
%ADD12C,0.150000*%
%ADD13C,0.200000*%
%ADD14C,0.010000*%
%ADD15C,0.120000*%
G04 APERTURE END LIST*
D10*
D11*
X79178571Y-135178571D02*
X79535714Y-136678571D01*
X79821428Y-135607143D01*
X80107142Y-136678571D01*
X80464285Y-135178571D01*
X80892857Y-135178571D02*
X81250000Y-136678571D01*
X81535714Y-135607143D01*
X81821428Y-136678571D01*
X82178571Y-135178571D01*
X82607143Y-135178571D02*
X82964286Y-136678571D01*
X83250000Y-135607143D01*
X83535714Y-136678571D01*
X83892857Y-135178571D01*
X84464286Y-136535714D02*
X84535714Y-136607143D01*
X84464286Y-136678571D01*
X84392857Y-136607143D01*
X84464286Y-136535714D01*
X84464286Y-136678571D01*
X85178572Y-136678571D02*
X85178572Y-135178571D01*
X85535715Y-135178571D01*
X85750000Y-135250000D01*
X85892858Y-135392857D01*
X85964286Y-135535714D01*
X86035715Y-135821429D01*
X86035715Y-136035714D01*
X85964286Y-136321429D01*
X85892858Y-136464286D01*
X85750000Y-136607143D01*
X85535715Y-136678571D01*
X85178572Y-136678571D01*
X86678572Y-136678571D02*
X86678572Y-135678571D01*
X86678572Y-135178571D02*
X86607143Y-135250000D01*
X86678572Y-135321429D01*
X86750000Y-135250000D01*
X86678572Y-135178571D01*
X86678572Y-135321429D01*
X88035715Y-135678571D02*
X88035715Y-136892857D01*
X87964286Y-137035714D01*
X87892858Y-137107143D01*
X87750001Y-137178571D01*
X87535715Y-137178571D01*
X87392858Y-137107143D01*
X88035715Y-136607143D02*
X87892858Y-136678571D01*
X87607144Y-136678571D01*
X87464286Y-136607143D01*
X87392858Y-136535714D01*
X87321429Y-136392857D01*
X87321429Y-135964286D01*
X87392858Y-135821429D01*
X87464286Y-135750000D01*
X87607144Y-135678571D01*
X87892858Y-135678571D01*
X88035715Y-135750000D01*
X88750001Y-136678571D02*
X88750001Y-135678571D01*
X88750001Y-135178571D02*
X88678572Y-135250000D01*
X88750001Y-135321429D01*
X88821429Y-135250000D01*
X88750001Y-135178571D01*
X88750001Y-135321429D01*
X89250001Y-135678571D02*
X89821430Y-135678571D01*
X89464287Y-135178571D02*
X89464287Y-136464286D01*
X89535715Y-136607143D01*
X89678573Y-136678571D01*
X89821430Y-136678571D01*
X90964287Y-136678571D02*
X90964287Y-135892857D01*
X90892858Y-135750000D01*
X90750001Y-135678571D01*
X90464287Y-135678571D01*
X90321430Y-135750000D01*
X90964287Y-136607143D02*
X90821430Y-136678571D01*
X90464287Y-136678571D01*
X90321430Y-136607143D01*
X90250001Y-136464286D01*
X90250001Y-136321429D01*
X90321430Y-136178571D01*
X90464287Y-136107143D01*
X90821430Y-136107143D01*
X90964287Y-136035714D01*
X91892859Y-136678571D02*
X91750001Y-136607143D01*
X91678573Y-136464286D01*
X91678573Y-135178571D01*
X92464287Y-136107143D02*
X93607144Y-136107143D01*
X94250001Y-136607143D02*
X94464287Y-136678571D01*
X94821430Y-136678571D01*
X94964287Y-136607143D01*
X95035716Y-136535714D01*
X95107144Y-136392857D01*
X95107144Y-136250000D01*
X95035716Y-136107143D01*
X94964287Y-136035714D01*
X94821430Y-135964286D01*
X94535716Y-135892857D01*
X94392858Y-135821429D01*
X94321430Y-135750000D01*
X94250001Y-135607143D01*
X94250001Y-135464286D01*
X94321430Y-135321429D01*
X94392858Y-135250000D01*
X94535716Y-135178571D01*
X94892858Y-135178571D01*
X95107144Y-135250000D01*
X96392858Y-135678571D02*
X96392858Y-137178571D01*
X96392858Y-136607143D02*
X96250001Y-136678571D01*
X95964287Y-136678571D01*
X95821429Y-136607143D01*
X95750001Y-136535714D01*
X95678572Y-136392857D01*
X95678572Y-135964286D01*
X95750001Y-135821429D01*
X95821429Y-135750000D01*
X95964287Y-135678571D01*
X96250001Y-135678571D01*
X96392858Y-135750000D01*
X97107144Y-136678571D02*
X97107144Y-135678571D01*
X97107144Y-135964286D02*
X97178572Y-135821429D01*
X97250001Y-135750000D01*
X97392858Y-135678571D01*
X97535715Y-135678571D01*
X97821429Y-135678571D02*
X98392858Y-135678571D01*
X98035715Y-135178571D02*
X98035715Y-136464286D01*
X98107143Y-136607143D01*
X98250001Y-136678571D01*
X98392858Y-136678571D01*
X98892858Y-136535714D02*
X98964286Y-136607143D01*
X98892858Y-136678571D01*
X98821429Y-136607143D01*
X98892858Y-136535714D01*
X98892858Y-136678571D01*
X100464287Y-136535714D02*
X100392858Y-136607143D01*
X100178572Y-136678571D01*
X100035715Y-136678571D01*
X99821430Y-136607143D01*
X99678572Y-136464286D01*
X99607144Y-136321429D01*
X99535715Y-136035714D01*
X99535715Y-135821429D01*
X99607144Y-135535714D01*
X99678572Y-135392857D01*
X99821430Y-135250000D01*
X100035715Y-135178571D01*
X100178572Y-135178571D01*
X100392858Y-135250000D01*
X100464287Y-135321429D01*
X101392858Y-135178571D02*
X101678572Y-135178571D01*
X101821430Y-135250000D01*
X101964287Y-135392857D01*
X102035715Y-135678571D01*
X102035715Y-136178571D01*
X101964287Y-136464286D01*
X101821430Y-136607143D01*
X101678572Y-136678571D01*
X101392858Y-136678571D01*
X101250001Y-136607143D01*
X101107144Y-136464286D01*
X101035715Y-136178571D01*
X101035715Y-135678571D01*
X101107144Y-135392857D01*
X101250001Y-135250000D01*
X101392858Y-135178571D01*
X102678573Y-136678571D02*
X102678573Y-135178571D01*
X103178573Y-136250000D01*
X103678573Y-135178571D01*
X103678573Y-136678571D01*
D12*
X70266667Y-112352381D02*
X70266667Y-113066667D01*
X70219047Y-113209524D01*
X70123809Y-113304762D01*
X69980952Y-113352381D01*
X69885714Y-113352381D01*
X70742857Y-113352381D02*
X70742857Y-112352381D01*
X71123810Y-112352381D01*
X71219048Y-112400000D01*
X71266667Y-112447619D01*
X71314286Y-112542857D01*
X71314286Y-112685714D01*
X71266667Y-112780952D01*
X71219048Y-112828571D01*
X71123810Y-112876190D01*
X70742857Y-112876190D01*
X72266667Y-113352381D02*
X71695238Y-113352381D01*
X71980952Y-113352381D02*
X71980952Y-112352381D01*
X71885714Y-112495238D01*
X71790476Y-112590476D01*
X71695238Y-112638095D01*
X70290477Y-109828571D02*
X69957143Y-109828571D01*
X69957143Y-110352381D02*
X69957143Y-109352381D01*
X70433334Y-109352381D01*
X70766667Y-110066667D02*
X71242858Y-110066667D01*
X70671429Y-110352381D02*
X71004762Y-109352381D01*
X71338096Y-110352381D01*
X71671429Y-110352381D02*
X71671429Y-109352381D01*
X72242858Y-110352381D01*
X72242858Y-109352381D01*
D11*
X79528572Y-105007143D02*
X80671429Y-105007143D01*
X73528572Y-105007143D02*
X74671429Y-105007143D01*
X74100000Y-105578571D02*
X74100000Y-104435714D01*
D10*
X91220238Y-95452381D02*
X90744047Y-95452381D01*
X90869047Y-94452381D01*
X91553571Y-95452381D02*
X91636905Y-94785714D01*
X91678571Y-94452381D02*
X91625000Y-94500000D01*
X91666667Y-94547619D01*
X91720238Y-94500000D01*
X91678571Y-94452381D01*
X91666667Y-94547619D01*
X91970238Y-94785714D02*
X92351190Y-94785714D01*
X92154761Y-94452381D02*
X92047619Y-95309524D01*
X92083333Y-95404762D01*
X92172618Y-95452381D01*
X92267856Y-95452381D01*
X92541667Y-94785714D02*
X92922619Y-94785714D01*
X92726190Y-94452381D02*
X92619048Y-95309524D01*
X92654762Y-95404762D01*
X92744047Y-95452381D01*
X92839285Y-95452381D01*
X93315476Y-95452381D02*
X93226191Y-95404762D01*
X93190477Y-95309524D01*
X93297619Y-94452381D01*
X94083335Y-95404762D02*
X93982144Y-95452381D01*
X93791667Y-95452381D01*
X93702382Y-95404762D01*
X93666668Y-95309524D01*
X93714287Y-94928571D01*
X93773810Y-94833333D01*
X93875001Y-94785714D01*
X94065478Y-94785714D01*
X94154763Y-94833333D01*
X94190478Y-94928571D01*
X94178573Y-95023810D01*
X93690477Y-95119048D01*
X95315477Y-95452381D02*
X95440477Y-94452381D01*
X95678572Y-94452381D01*
X95815478Y-94500000D01*
X95898811Y-94595238D01*
X95934526Y-94690476D01*
X95958335Y-94880952D01*
X95940478Y-95023810D01*
X95869049Y-95214286D01*
X95809526Y-95309524D01*
X95702383Y-95404762D01*
X95553572Y-95452381D01*
X95315477Y-95452381D01*
X96315477Y-95452381D02*
X96398811Y-94785714D01*
X96375001Y-94976190D02*
X96434525Y-94880952D01*
X96488096Y-94833333D01*
X96589287Y-94785714D01*
X96684526Y-94785714D01*
X96934525Y-95452381D02*
X97017859Y-94785714D01*
X97059525Y-94452381D02*
X97005954Y-94500000D01*
X97047621Y-94547619D01*
X97101192Y-94500000D01*
X97059525Y-94452381D01*
X97047621Y-94547619D01*
X97398811Y-94785714D02*
X97553572Y-95452381D01*
X97875002Y-94785714D01*
X98559526Y-95404762D02*
X98458335Y-95452381D01*
X98267858Y-95452381D01*
X98178573Y-95404762D01*
X98142859Y-95309524D01*
X98190478Y-94928571D01*
X98250001Y-94833333D01*
X98351192Y-94785714D01*
X98541669Y-94785714D01*
X98630954Y-94833333D01*
X98666669Y-94928571D01*
X98654764Y-95023810D01*
X98166668Y-95119048D01*
X99029763Y-95452381D02*
X99113097Y-94785714D01*
X99089287Y-94976190D02*
X99148811Y-94880952D01*
X99202382Y-94833333D01*
X99303573Y-94785714D01*
X99398812Y-94785714D01*
D13*
X90427084Y-93291667D02*
X90645834Y-91541667D01*
X91062500Y-91541667D01*
X91302083Y-91625000D01*
X91447917Y-91791667D01*
X91510416Y-91958333D01*
X91552084Y-92291667D01*
X91520834Y-92541667D01*
X91395833Y-92875000D01*
X91291667Y-93041667D01*
X91104166Y-93208333D01*
X90843750Y-93291667D01*
X90427084Y-93291667D01*
X92177084Y-93291667D02*
X92322917Y-92125000D01*
X92395834Y-91541667D02*
X92302083Y-91625000D01*
X92375000Y-91708333D01*
X92468750Y-91625000D01*
X92395834Y-91541667D01*
X92375000Y-91708333D01*
X93906250Y-92125000D02*
X93729167Y-93541667D01*
X93624999Y-93708333D01*
X93531250Y-93791667D01*
X93354166Y-93875000D01*
X93104166Y-93875000D01*
X92947917Y-93791667D01*
X93770833Y-93208333D02*
X93593750Y-93291667D01*
X93260417Y-93291667D01*
X93104166Y-93208333D01*
X93031250Y-93125000D01*
X92968749Y-92958333D01*
X93031249Y-92458333D01*
X93135417Y-92291667D01*
X93229166Y-92208333D01*
X93406250Y-92125000D01*
X93739583Y-92125000D01*
X93895833Y-92208333D01*
X94593750Y-93291667D02*
X94739583Y-92125000D01*
X94812500Y-91541667D02*
X94718749Y-91625000D01*
X94791666Y-91708333D01*
X94885416Y-91625000D01*
X94812500Y-91541667D01*
X94791666Y-91708333D01*
X95322916Y-92125000D02*
X95989582Y-92125000D01*
X95645833Y-91541667D02*
X95458333Y-93041667D01*
X95520832Y-93208333D01*
X95677083Y-93291667D01*
X95843749Y-93291667D01*
X97177083Y-93291667D02*
X97291666Y-92375000D01*
X97229165Y-92208333D01*
X97072916Y-92125000D01*
X96739582Y-92125000D01*
X96562499Y-92208333D01*
X97187499Y-93208333D02*
X97010416Y-93291667D01*
X96593749Y-93291667D01*
X96437499Y-93208333D01*
X96374999Y-93041667D01*
X96395832Y-92875000D01*
X96499999Y-92708333D01*
X96677082Y-92625000D01*
X97093749Y-92625000D01*
X97270833Y-92541667D01*
X98260416Y-93291667D02*
X98104165Y-93208333D01*
X98041666Y-93041667D01*
X98229166Y-91541667D01*
X100187498Y-93208333D02*
X100427082Y-93291667D01*
X100843749Y-93291667D01*
X101020832Y-93208333D01*
X101114582Y-93125000D01*
X101218748Y-92958333D01*
X101239582Y-92791667D01*
X101177082Y-92625000D01*
X101104166Y-92541667D01*
X100947915Y-92458333D01*
X100624999Y-92375000D01*
X100468749Y-92291667D01*
X100395832Y-92208333D01*
X100333332Y-92041667D01*
X100354165Y-91875000D01*
X100458332Y-91708333D01*
X100552082Y-91625000D01*
X100729166Y-91541667D01*
X101145832Y-91541667D01*
X101385415Y-91625000D01*
X102822916Y-92125000D02*
X102604166Y-93875000D01*
X102687499Y-93208333D02*
X102510416Y-93291667D01*
X102177083Y-93291667D01*
X102020832Y-93208333D01*
X101947916Y-93125000D01*
X101885415Y-92958333D01*
X101947915Y-92458333D01*
X102052083Y-92291667D01*
X102145832Y-92208333D01*
X102322916Y-92125000D01*
X102656249Y-92125000D01*
X102812499Y-92208333D01*
X103510416Y-93291667D02*
X103656249Y-92125000D01*
X103614582Y-92458333D02*
X103718749Y-92291667D01*
X103812498Y-92208333D01*
X103989582Y-92125000D01*
X104156249Y-92125000D01*
X104489582Y-92125000D02*
X105156248Y-92125000D01*
X104812499Y-91541667D02*
X104624999Y-93041667D01*
X104687498Y-93208333D01*
X104843749Y-93291667D01*
X105010415Y-93291667D01*
D10*
X101595238Y-97452381D02*
X101928571Y-98452381D01*
X102261905Y-97452381D01*
X102976191Y-98404762D02*
X102880953Y-98452381D01*
X102690476Y-98452381D01*
X102595238Y-98404762D01*
X102547619Y-98309524D01*
X102547619Y-97928571D01*
X102595238Y-97833333D01*
X102690476Y-97785714D01*
X102880953Y-97785714D01*
X102976191Y-97833333D01*
X103023810Y-97928571D01*
X103023810Y-98023810D01*
X102547619Y-98119048D01*
X103452381Y-98452381D02*
X103452381Y-97785714D01*
X103452381Y-97976190D02*
X103500000Y-97880952D01*
X103547619Y-97833333D01*
X103642857Y-97785714D01*
X103738096Y-97785714D01*
X105357144Y-98452381D02*
X104785715Y-98452381D01*
X105071429Y-98452381D02*
X105071429Y-97452381D01*
X104976191Y-97595238D01*
X104880953Y-97690476D01*
X104785715Y-97738095D01*
X105785715Y-98357143D02*
X105833334Y-98404762D01*
X105785715Y-98452381D01*
X105738096Y-98404762D01*
X105785715Y-98357143D01*
X105785715Y-98452381D01*
X106309524Y-98452381D02*
X106500000Y-98452381D01*
X106595239Y-98404762D01*
X106642858Y-98357143D01*
X106738096Y-98214286D01*
X106785715Y-98023810D01*
X106785715Y-97642857D01*
X106738096Y-97547619D01*
X106690477Y-97500000D01*
X106595239Y-97452381D01*
X106404762Y-97452381D01*
X106309524Y-97500000D01*
X106261905Y-97547619D01*
X106214286Y-97642857D01*
X106214286Y-97880952D01*
X106261905Y-97976190D01*
X106309524Y-98023810D01*
X106404762Y-98071429D01*
X106595239Y-98071429D01*
X106690477Y-98023810D01*
X106738096Y-97976190D01*
X106785715Y-97880952D01*
D14*
G36*
X82765892Y-91368270D02*
X83181711Y-91406540D01*
X83577701Y-91455770D01*
X83858754Y-91506918D01*
X84078344Y-91579539D01*
X84289945Y-91693188D01*
X84547033Y-91867419D01*
X84657491Y-91946214D01*
X85012064Y-92193396D01*
X85387963Y-92444817D01*
X85712547Y-92652053D01*
X85756757Y-92679019D01*
X86202842Y-93028177D01*
X86604798Y-93489795D01*
X86918595Y-94006999D01*
X87059133Y-94361354D01*
X87154082Y-94798805D01*
X87215697Y-95336308D01*
X87240823Y-95907295D01*
X87226303Y-96445195D01*
X87176895Y-96845149D01*
X87073741Y-97217945D01*
X86915851Y-97626918D01*
X86782547Y-97898956D01*
X86633863Y-98175380D01*
X86563746Y-98345784D01*
X86562649Y-98448745D01*
X86621022Y-98522844D01*
X86626899Y-98527789D01*
X86844891Y-98807469D01*
X86975501Y-99186784D01*
X87002861Y-99472296D01*
X86952219Y-99999778D01*
X86795824Y-100398093D01*
X86524655Y-100676431D01*
X86129691Y-100843977D01*
X85601913Y-100909919D01*
X85591041Y-100910234D01*
X85247959Y-100932842D01*
X84981249Y-100994444D01*
X84709812Y-101119455D01*
X84509768Y-101235766D01*
X83546911Y-101745548D01*
X82436837Y-102200923D01*
X81194568Y-102595971D01*
X80768112Y-102709561D01*
X80449084Y-102786968D01*
X80229634Y-102822607D01*
X80046042Y-102819511D01*
X79834587Y-102780714D01*
X79739158Y-102758540D01*
X79520619Y-102666992D01*
X79249970Y-102500264D01*
X79061093Y-102356065D01*
X78810917Y-102163287D01*
X78578379Y-102014185D01*
X78451268Y-101954869D01*
X78173559Y-101829991D01*
X77830468Y-101620504D01*
X77473392Y-101363950D01*
X77153725Y-101097875D01*
X76922865Y-100859822D01*
X76887369Y-100812457D01*
X76734276Y-100544499D01*
X76659143Y-100262543D01*
X76653032Y-100178625D01*
X76914212Y-100178625D01*
X77055630Y-100611324D01*
X77094530Y-100678464D01*
X77266220Y-100875688D01*
X77541924Y-101109974D01*
X77872359Y-101346452D01*
X78208242Y-101550255D01*
X78500290Y-101686515D01*
X78536667Y-101698783D01*
X78717306Y-101791254D01*
X78956581Y-101958151D01*
X79121162Y-102092992D01*
X79374895Y-102301231D01*
X79606039Y-102443564D01*
X79845175Y-102521840D01*
X80122881Y-102537908D01*
X80469738Y-102493618D01*
X80916326Y-102390817D01*
X81478612Y-102235548D01*
X82006764Y-102069202D01*
X82549688Y-101871830D01*
X83083672Y-101654868D01*
X83585004Y-101429753D01*
X84029972Y-101207924D01*
X84394864Y-101000817D01*
X84655967Y-100819870D01*
X84789570Y-100676520D01*
X84802000Y-100632540D01*
X84872175Y-100576473D01*
X85034833Y-100600094D01*
X85392378Y-100648601D01*
X85779738Y-100626585D01*
X86146025Y-100544805D01*
X86440351Y-100414018D01*
X86597628Y-100269749D01*
X86641645Y-100137154D01*
X86688812Y-99899705D01*
X86713336Y-99730272D01*
X86717252Y-99262509D01*
X86598883Y-98908073D01*
X86359270Y-98669813D01*
X86318279Y-98647007D01*
X86032249Y-98542112D01*
X85755360Y-98551181D01*
X85426432Y-98677387D01*
X85391294Y-98695054D01*
X85192216Y-98779627D01*
X85072068Y-98797892D01*
X85056000Y-98779721D01*
X84973458Y-98742629D01*
X84733863Y-98715287D01*
X84349266Y-98698572D01*
X83870667Y-98693334D01*
X82685333Y-98693334D01*
X82685333Y-99304266D01*
X81817500Y-99248381D01*
X81316223Y-99214500D01*
X80959453Y-99182634D01*
X80722644Y-99145068D01*
X80581250Y-99094087D01*
X80510726Y-99021978D01*
X80486524Y-98921026D01*
X80484000Y-98829288D01*
X80458254Y-98634508D01*
X80350828Y-98505599D01*
X80176041Y-98408508D01*
X79838921Y-98307466D01*
X79625708Y-98314887D01*
X79447652Y-98386647D01*
X79386647Y-98533341D01*
X79383333Y-98615394D01*
X79368065Y-98777488D01*
X79289059Y-98846308D01*
X79096517Y-98860229D01*
X79065833Y-98860053D01*
X78719868Y-98844027D01*
X78346496Y-98805826D01*
X77987714Y-98752402D01*
X77685522Y-98690708D01*
X77481919Y-98627696D01*
X77421322Y-98587816D01*
X77366049Y-98539697D01*
X77352630Y-98622020D01*
X77314556Y-98770166D01*
X77217490Y-99007320D01*
X77119094Y-99210004D01*
X76935412Y-99708792D01*
X76914212Y-100178625D01*
X76653032Y-100178625D01*
X76638274Y-99975983D01*
X76612289Y-99648186D01*
X76541269Y-99418408D01*
X76406126Y-99219715D01*
X76233545Y-98947195D01*
X76131787Y-98650268D01*
X76117938Y-98449975D01*
X76423980Y-98449975D01*
X76432290Y-98661488D01*
X76499135Y-98895685D01*
X76606283Y-99093822D01*
X76735500Y-99197153D01*
X76766002Y-99201334D01*
X76775931Y-99143199D01*
X76697426Y-98998999D01*
X76665421Y-98953838D01*
X76528932Y-98671954D01*
X76528339Y-98651569D01*
X76791135Y-98651569D01*
X76847298Y-98797818D01*
X76937058Y-98862667D01*
X76999125Y-98791894D01*
X77012667Y-98698330D01*
X76974307Y-98539563D01*
X76889190Y-98467580D01*
X76806575Y-98514979D01*
X76791135Y-98651569D01*
X76528339Y-98651569D01*
X76523656Y-98490733D01*
X76530803Y-98348137D01*
X76492436Y-98319892D01*
X76423980Y-98449975D01*
X76117938Y-98449975D01*
X76113317Y-98383146D01*
X76171177Y-98227667D01*
X76674000Y-98227667D01*
X76716333Y-98270000D01*
X76758667Y-98227667D01*
X76716333Y-98185334D01*
X76674000Y-98227667D01*
X76171177Y-98227667D01*
X76175386Y-98216357D01*
X76310135Y-98112804D01*
X76859191Y-98112804D01*
X76876227Y-98160208D01*
X76965349Y-98230360D01*
X77113748Y-98333938D01*
X77172061Y-98330674D01*
X77182000Y-98227667D01*
X77109909Y-98125475D01*
X76991500Y-98103360D01*
X76859191Y-98112804D01*
X76310135Y-98112804D01*
X76346042Y-98085210D01*
X76603936Y-97957492D01*
X76869900Y-97867978D01*
X77017075Y-97846667D01*
X77095987Y-97834674D01*
X77117988Y-97774902D01*
X77080010Y-97631658D01*
X76978984Y-97369251D01*
X76975215Y-97359834D01*
X76775660Y-96690419D01*
X76736115Y-96195667D01*
X77000090Y-96195667D01*
X77023618Y-96452634D01*
X77077790Y-96749554D01*
X77152955Y-97057174D01*
X77239464Y-97346245D01*
X77327666Y-97587515D01*
X77407911Y-97751733D01*
X77470549Y-97809647D01*
X77505929Y-97732007D01*
X77506195Y-97729733D01*
X77534056Y-97485800D01*
X78266379Y-97545220D01*
X78741302Y-97586691D01*
X79072529Y-97625825D01*
X79285427Y-97669855D01*
X79405364Y-97726013D01*
X79457706Y-97801533D01*
X79468000Y-97887843D01*
X79499930Y-98026032D01*
X79627359Y-98045879D01*
X79665325Y-98039464D01*
X79870299Y-98047213D01*
X80127604Y-98114117D01*
X80183665Y-98135872D01*
X80414321Y-98230315D01*
X80527838Y-98251307D01*
X80565521Y-98185140D01*
X80568674Y-98018106D01*
X80568667Y-98008099D01*
X80568667Y-97746197D01*
X81394167Y-97801363D01*
X81886548Y-97836151D01*
X82234764Y-97868986D01*
X82463714Y-97907403D01*
X82598300Y-97958935D01*
X82663422Y-98031120D01*
X82683981Y-98131490D01*
X82685333Y-98192061D01*
X82685333Y-98439334D01*
X84981709Y-98439334D01*
X84928264Y-98079500D01*
X84922649Y-97740053D01*
X84983350Y-97254171D01*
X85064998Y-96830667D01*
X85175587Y-96264005D01*
X85230527Y-95817492D01*
X85225616Y-95449950D01*
X85156649Y-95120197D01*
X85019421Y-94787054D01*
X84819465Y-94425663D01*
X84564475Y-94036423D01*
X84325372Y-93744581D01*
X84145833Y-93591799D01*
X83939534Y-93455395D01*
X83889955Y-93381088D01*
X83999214Y-93361897D01*
X84209333Y-93382462D01*
X84420584Y-93405793D01*
X84538867Y-93409145D01*
X84548000Y-93405125D01*
X84473781Y-93314129D01*
X84277937Y-93192150D01*
X84000686Y-93058007D01*
X83682245Y-92930522D01*
X83362833Y-92828515D01*
X83261422Y-92803042D01*
X82609845Y-92653202D01*
X81746200Y-92985101D01*
X81340227Y-93147747D01*
X81058187Y-93281356D01*
X80862668Y-93408301D01*
X80716261Y-93550953D01*
X80642393Y-93645202D01*
X80491945Y-93833904D01*
X80402903Y-93892914D01*
X80350401Y-93838250D01*
X80348849Y-93834290D01*
X80322304Y-93643756D01*
X80335659Y-93484921D01*
X80333462Y-93317728D01*
X80252221Y-93274667D01*
X80010415Y-93334478D01*
X79694333Y-93499276D01*
X79341775Y-93747111D01*
X79126002Y-93928740D01*
X78902859Y-94126488D01*
X78777236Y-94220854D01*
X78721122Y-94222103D01*
X78706503Y-94140499D01*
X78706000Y-94082642D01*
X78769935Y-93765979D01*
X78967157Y-93403155D01*
X79305786Y-92979828D01*
X79371224Y-92908123D01*
X79572351Y-92688578D01*
X79664446Y-92576174D01*
X79654324Y-92554550D01*
X79548802Y-92607345D01*
X79480307Y-92646266D01*
X79247055Y-92807621D01*
X79058036Y-92983482D01*
X79044789Y-92999500D01*
X78910068Y-93137894D01*
X78814888Y-93190000D01*
X78675635Y-93252888D01*
X78463111Y-93422739D01*
X78206022Y-93671332D01*
X77933074Y-93970448D01*
X77672974Y-94291866D01*
X77616353Y-94368225D01*
X77299754Y-94858128D01*
X77104883Y-95310011D01*
X77012780Y-95780092D01*
X77000090Y-96195667D01*
X76736115Y-96195667D01*
X76722002Y-96019102D01*
X76811554Y-95302759D01*
X76839330Y-95179667D01*
X77000685Y-94502334D01*
X76754953Y-94798667D01*
X76606706Y-94989739D01*
X76517940Y-95127831D01*
X76506944Y-95158500D01*
X76438384Y-95219210D01*
X76410821Y-95222000D01*
X76357134Y-95157275D01*
X76373435Y-94998328D01*
X76445773Y-94798004D01*
X76560197Y-94609146D01*
X76578461Y-94587000D01*
X76762798Y-94362766D01*
X76845100Y-94239785D01*
X76822648Y-94226379D01*
X76692722Y-94330865D01*
X76649147Y-94370776D01*
X76451399Y-94528597D01*
X76348847Y-94554775D01*
X76344641Y-94459797D01*
X76441934Y-94254151D01*
X76558686Y-94069648D01*
X76913041Y-93576564D01*
X77239702Y-93200054D01*
X77581338Y-92902674D01*
X77980619Y-92646976D01*
X78450679Y-92409274D01*
X78865226Y-92224155D01*
X79282529Y-92052461D01*
X79645680Y-91916897D01*
X79840679Y-91854685D01*
X80342999Y-91715027D01*
X80074833Y-91605604D01*
X79895281Y-91525579D01*
X79808210Y-91473492D01*
X79806667Y-91470060D01*
X79884754Y-91457991D01*
X80092708Y-91448631D01*
X80391065Y-91443508D01*
X80505167Y-91443005D01*
X80929390Y-91433394D01*
X81377164Y-91409054D01*
X81753360Y-91375195D01*
X81761655Y-91374195D01*
X82214071Y-91349761D01*
X82765892Y-91368270D01*
X82765892Y-91368270D01*
G37*
X82765892Y-91368270D02*
X83181711Y-91406540D01*
X83577701Y-91455770D01*
X83858754Y-91506918D01*
X84078344Y-91579539D01*
X84289945Y-91693188D01*
X84547033Y-91867419D01*
X84657491Y-91946214D01*
X85012064Y-92193396D01*
X85387963Y-92444817D01*
X85712547Y-92652053D01*
X85756757Y-92679019D01*
X86202842Y-93028177D01*
X86604798Y-93489795D01*
X86918595Y-94006999D01*
X87059133Y-94361354D01*
X87154082Y-94798805D01*
X87215697Y-95336308D01*
X87240823Y-95907295D01*
X87226303Y-96445195D01*
X87176895Y-96845149D01*
X87073741Y-97217945D01*
X86915851Y-97626918D01*
X86782547Y-97898956D01*
X86633863Y-98175380D01*
X86563746Y-98345784D01*
X86562649Y-98448745D01*
X86621022Y-98522844D01*
X86626899Y-98527789D01*
X86844891Y-98807469D01*
X86975501Y-99186784D01*
X87002861Y-99472296D01*
X86952219Y-99999778D01*
X86795824Y-100398093D01*
X86524655Y-100676431D01*
X86129691Y-100843977D01*
X85601913Y-100909919D01*
X85591041Y-100910234D01*
X85247959Y-100932842D01*
X84981249Y-100994444D01*
X84709812Y-101119455D01*
X84509768Y-101235766D01*
X83546911Y-101745548D01*
X82436837Y-102200923D01*
X81194568Y-102595971D01*
X80768112Y-102709561D01*
X80449084Y-102786968D01*
X80229634Y-102822607D01*
X80046042Y-102819511D01*
X79834587Y-102780714D01*
X79739158Y-102758540D01*
X79520619Y-102666992D01*
X79249970Y-102500264D01*
X79061093Y-102356065D01*
X78810917Y-102163287D01*
X78578379Y-102014185D01*
X78451268Y-101954869D01*
X78173559Y-101829991D01*
X77830468Y-101620504D01*
X77473392Y-101363950D01*
X77153725Y-101097875D01*
X76922865Y-100859822D01*
X76887369Y-100812457D01*
X76734276Y-100544499D01*
X76659143Y-100262543D01*
X76653032Y-100178625D01*
X76914212Y-100178625D01*
X77055630Y-100611324D01*
X77094530Y-100678464D01*
X77266220Y-100875688D01*
X77541924Y-101109974D01*
X77872359Y-101346452D01*
X78208242Y-101550255D01*
X78500290Y-101686515D01*
X78536667Y-101698783D01*
X78717306Y-101791254D01*
X78956581Y-101958151D01*
X79121162Y-102092992D01*
X79374895Y-102301231D01*
X79606039Y-102443564D01*
X79845175Y-102521840D01*
X80122881Y-102537908D01*
X80469738Y-102493618D01*
X80916326Y-102390817D01*
X81478612Y-102235548D01*
X82006764Y-102069202D01*
X82549688Y-101871830D01*
X83083672Y-101654868D01*
X83585004Y-101429753D01*
X84029972Y-101207924D01*
X84394864Y-101000817D01*
X84655967Y-100819870D01*
X84789570Y-100676520D01*
X84802000Y-100632540D01*
X84872175Y-100576473D01*
X85034833Y-100600094D01*
X85392378Y-100648601D01*
X85779738Y-100626585D01*
X86146025Y-100544805D01*
X86440351Y-100414018D01*
X86597628Y-100269749D01*
X86641645Y-100137154D01*
X86688812Y-99899705D01*
X86713336Y-99730272D01*
X86717252Y-99262509D01*
X86598883Y-98908073D01*
X86359270Y-98669813D01*
X86318279Y-98647007D01*
X86032249Y-98542112D01*
X85755360Y-98551181D01*
X85426432Y-98677387D01*
X85391294Y-98695054D01*
X85192216Y-98779627D01*
X85072068Y-98797892D01*
X85056000Y-98779721D01*
X84973458Y-98742629D01*
X84733863Y-98715287D01*
X84349266Y-98698572D01*
X83870667Y-98693334D01*
X82685333Y-98693334D01*
X82685333Y-99304266D01*
X81817500Y-99248381D01*
X81316223Y-99214500D01*
X80959453Y-99182634D01*
X80722644Y-99145068D01*
X80581250Y-99094087D01*
X80510726Y-99021978D01*
X80486524Y-98921026D01*
X80484000Y-98829288D01*
X80458254Y-98634508D01*
X80350828Y-98505599D01*
X80176041Y-98408508D01*
X79838921Y-98307466D01*
X79625708Y-98314887D01*
X79447652Y-98386647D01*
X79386647Y-98533341D01*
X79383333Y-98615394D01*
X79368065Y-98777488D01*
X79289059Y-98846308D01*
X79096517Y-98860229D01*
X79065833Y-98860053D01*
X78719868Y-98844027D01*
X78346496Y-98805826D01*
X77987714Y-98752402D01*
X77685522Y-98690708D01*
X77481919Y-98627696D01*
X77421322Y-98587816D01*
X77366049Y-98539697D01*
X77352630Y-98622020D01*
X77314556Y-98770166D01*
X77217490Y-99007320D01*
X77119094Y-99210004D01*
X76935412Y-99708792D01*
X76914212Y-100178625D01*
X76653032Y-100178625D01*
X76638274Y-99975983D01*
X76612289Y-99648186D01*
X76541269Y-99418408D01*
X76406126Y-99219715D01*
X76233545Y-98947195D01*
X76131787Y-98650268D01*
X76117938Y-98449975D01*
X76423980Y-98449975D01*
X76432290Y-98661488D01*
X76499135Y-98895685D01*
X76606283Y-99093822D01*
X76735500Y-99197153D01*
X76766002Y-99201334D01*
X76775931Y-99143199D01*
X76697426Y-98998999D01*
X76665421Y-98953838D01*
X76528932Y-98671954D01*
X76528339Y-98651569D01*
X76791135Y-98651569D01*
X76847298Y-98797818D01*
X76937058Y-98862667D01*
X76999125Y-98791894D01*
X77012667Y-98698330D01*
X76974307Y-98539563D01*
X76889190Y-98467580D01*
X76806575Y-98514979D01*
X76791135Y-98651569D01*
X76528339Y-98651569D01*
X76523656Y-98490733D01*
X76530803Y-98348137D01*
X76492436Y-98319892D01*
X76423980Y-98449975D01*
X76117938Y-98449975D01*
X76113317Y-98383146D01*
X76171177Y-98227667D01*
X76674000Y-98227667D01*
X76716333Y-98270000D01*
X76758667Y-98227667D01*
X76716333Y-98185334D01*
X76674000Y-98227667D01*
X76171177Y-98227667D01*
X76175386Y-98216357D01*
X76310135Y-98112804D01*
X76859191Y-98112804D01*
X76876227Y-98160208D01*
X76965349Y-98230360D01*
X77113748Y-98333938D01*
X77172061Y-98330674D01*
X77182000Y-98227667D01*
X77109909Y-98125475D01*
X76991500Y-98103360D01*
X76859191Y-98112804D01*
X76310135Y-98112804D01*
X76346042Y-98085210D01*
X76603936Y-97957492D01*
X76869900Y-97867978D01*
X77017075Y-97846667D01*
X77095987Y-97834674D01*
X77117988Y-97774902D01*
X77080010Y-97631658D01*
X76978984Y-97369251D01*
X76975215Y-97359834D01*
X76775660Y-96690419D01*
X76736115Y-96195667D01*
X77000090Y-96195667D01*
X77023618Y-96452634D01*
X77077790Y-96749554D01*
X77152955Y-97057174D01*
X77239464Y-97346245D01*
X77327666Y-97587515D01*
X77407911Y-97751733D01*
X77470549Y-97809647D01*
X77505929Y-97732007D01*
X77506195Y-97729733D01*
X77534056Y-97485800D01*
X78266379Y-97545220D01*
X78741302Y-97586691D01*
X79072529Y-97625825D01*
X79285427Y-97669855D01*
X79405364Y-97726013D01*
X79457706Y-97801533D01*
X79468000Y-97887843D01*
X79499930Y-98026032D01*
X79627359Y-98045879D01*
X79665325Y-98039464D01*
X79870299Y-98047213D01*
X80127604Y-98114117D01*
X80183665Y-98135872D01*
X80414321Y-98230315D01*
X80527838Y-98251307D01*
X80565521Y-98185140D01*
X80568674Y-98018106D01*
X80568667Y-98008099D01*
X80568667Y-97746197D01*
X81394167Y-97801363D01*
X81886548Y-97836151D01*
X82234764Y-97868986D01*
X82463714Y-97907403D01*
X82598300Y-97958935D01*
X82663422Y-98031120D01*
X82683981Y-98131490D01*
X82685333Y-98192061D01*
X82685333Y-98439334D01*
X84981709Y-98439334D01*
X84928264Y-98079500D01*
X84922649Y-97740053D01*
X84983350Y-97254171D01*
X85064998Y-96830667D01*
X85175587Y-96264005D01*
X85230527Y-95817492D01*
X85225616Y-95449950D01*
X85156649Y-95120197D01*
X85019421Y-94787054D01*
X84819465Y-94425663D01*
X84564475Y-94036423D01*
X84325372Y-93744581D01*
X84145833Y-93591799D01*
X83939534Y-93455395D01*
X83889955Y-93381088D01*
X83999214Y-93361897D01*
X84209333Y-93382462D01*
X84420584Y-93405793D01*
X84538867Y-93409145D01*
X84548000Y-93405125D01*
X84473781Y-93314129D01*
X84277937Y-93192150D01*
X84000686Y-93058007D01*
X83682245Y-92930522D01*
X83362833Y-92828515D01*
X83261422Y-92803042D01*
X82609845Y-92653202D01*
X81746200Y-92985101D01*
X81340227Y-93147747D01*
X81058187Y-93281356D01*
X80862668Y-93408301D01*
X80716261Y-93550953D01*
X80642393Y-93645202D01*
X80491945Y-93833904D01*
X80402903Y-93892914D01*
X80350401Y-93838250D01*
X80348849Y-93834290D01*
X80322304Y-93643756D01*
X80335659Y-93484921D01*
X80333462Y-93317728D01*
X80252221Y-93274667D01*
X80010415Y-93334478D01*
X79694333Y-93499276D01*
X79341775Y-93747111D01*
X79126002Y-93928740D01*
X78902859Y-94126488D01*
X78777236Y-94220854D01*
X78721122Y-94222103D01*
X78706503Y-94140499D01*
X78706000Y-94082642D01*
X78769935Y-93765979D01*
X78967157Y-93403155D01*
X79305786Y-92979828D01*
X79371224Y-92908123D01*
X79572351Y-92688578D01*
X79664446Y-92576174D01*
X79654324Y-92554550D01*
X79548802Y-92607345D01*
X79480307Y-92646266D01*
X79247055Y-92807621D01*
X79058036Y-92983482D01*
X79044789Y-92999500D01*
X78910068Y-93137894D01*
X78814888Y-93190000D01*
X78675635Y-93252888D01*
X78463111Y-93422739D01*
X78206022Y-93671332D01*
X77933074Y-93970448D01*
X77672974Y-94291866D01*
X77616353Y-94368225D01*
X77299754Y-94858128D01*
X77104883Y-95310011D01*
X77012780Y-95780092D01*
X77000090Y-96195667D01*
X76736115Y-96195667D01*
X76722002Y-96019102D01*
X76811554Y-95302759D01*
X76839330Y-95179667D01*
X77000685Y-94502334D01*
X76754953Y-94798667D01*
X76606706Y-94989739D01*
X76517940Y-95127831D01*
X76506944Y-95158500D01*
X76438384Y-95219210D01*
X76410821Y-95222000D01*
X76357134Y-95157275D01*
X76373435Y-94998328D01*
X76445773Y-94798004D01*
X76560197Y-94609146D01*
X76578461Y-94587000D01*
X76762798Y-94362766D01*
X76845100Y-94239785D01*
X76822648Y-94226379D01*
X76692722Y-94330865D01*
X76649147Y-94370776D01*
X76451399Y-94528597D01*
X76348847Y-94554775D01*
X76344641Y-94459797D01*
X76441934Y-94254151D01*
X76558686Y-94069648D01*
X76913041Y-93576564D01*
X77239702Y-93200054D01*
X77581338Y-92902674D01*
X77980619Y-92646976D01*
X78450679Y-92409274D01*
X78865226Y-92224155D01*
X79282529Y-92052461D01*
X79645680Y-91916897D01*
X79840679Y-91854685D01*
X80342999Y-91715027D01*
X80074833Y-91605604D01*
X79895281Y-91525579D01*
X79808210Y-91473492D01*
X79806667Y-91470060D01*
X79884754Y-91457991D01*
X80092708Y-91448631D01*
X80391065Y-91443508D01*
X80505167Y-91443005D01*
X80929390Y-91433394D01*
X81377164Y-91409054D01*
X81753360Y-91375195D01*
X81761655Y-91374195D01*
X82214071Y-91349761D01*
X82765892Y-91368270D01*
G36*
X80236623Y-100612360D02*
X80606719Y-100785963D01*
X80843833Y-100960332D01*
X80961429Y-101094780D01*
X80961401Y-101206522D01*
X80829838Y-101309979D01*
X80552830Y-101419573D01*
X80335833Y-101486984D01*
X80016936Y-101581933D01*
X79757315Y-101660765D01*
X79602875Y-101709501D01*
X79586127Y-101715326D01*
X79505081Y-101663566D01*
X79394311Y-101496275D01*
X79552667Y-101496275D01*
X79566241Y-101565608D01*
X79628221Y-101589180D01*
X79770496Y-101563647D01*
X80024954Y-101485668D01*
X80195518Y-101428892D01*
X80511867Y-101318009D01*
X80690695Y-101239000D01*
X80756808Y-101175538D01*
X80735015Y-101111296D01*
X80713566Y-101087947D01*
X80491727Y-100973118D01*
X80204556Y-100959255D01*
X79919454Y-101042178D01*
X79766422Y-101146705D01*
X79620074Y-101324769D01*
X79553104Y-101486326D01*
X79552667Y-101496275D01*
X79394311Y-101496275D01*
X79392643Y-101493756D01*
X79303655Y-101310831D01*
X79114723Y-100871647D01*
X79292256Y-100694114D01*
X79538670Y-100559449D01*
X79867033Y-100534527D01*
X80236623Y-100612360D01*
X80236623Y-100612360D01*
G37*
X80236623Y-100612360D02*
X80606719Y-100785963D01*
X80843833Y-100960332D01*
X80961429Y-101094780D01*
X80961401Y-101206522D01*
X80829838Y-101309979D01*
X80552830Y-101419573D01*
X80335833Y-101486984D01*
X80016936Y-101581933D01*
X79757315Y-101660765D01*
X79602875Y-101709501D01*
X79586127Y-101715326D01*
X79505081Y-101663566D01*
X79394311Y-101496275D01*
X79552667Y-101496275D01*
X79566241Y-101565608D01*
X79628221Y-101589180D01*
X79770496Y-101563647D01*
X80024954Y-101485668D01*
X80195518Y-101428892D01*
X80511867Y-101318009D01*
X80690695Y-101239000D01*
X80756808Y-101175538D01*
X80735015Y-101111296D01*
X80713566Y-101087947D01*
X80491727Y-100973118D01*
X80204556Y-100959255D01*
X79919454Y-101042178D01*
X79766422Y-101146705D01*
X79620074Y-101324769D01*
X79553104Y-101486326D01*
X79552667Y-101496275D01*
X79394311Y-101496275D01*
X79392643Y-101493756D01*
X79303655Y-101310831D01*
X79114723Y-100871647D01*
X79292256Y-100694114D01*
X79538670Y-100559449D01*
X79867033Y-100534527D01*
X80236623Y-100612360D01*
G36*
X85680272Y-98813507D02*
X85988391Y-98942327D01*
X86171918Y-99161998D01*
X86223585Y-99441268D01*
X86136122Y-99748886D01*
X85956169Y-99999638D01*
X85747563Y-100203970D01*
X85604388Y-100287847D01*
X85488986Y-100265154D01*
X85411600Y-100200400D01*
X85336333Y-100046795D01*
X85304049Y-99840567D01*
X85278509Y-99595535D01*
X85233839Y-99418196D01*
X85225201Y-99206922D01*
X85234259Y-99180109D01*
X85442238Y-99180109D01*
X85486394Y-99403469D01*
X85508725Y-99461510D01*
X85577173Y-99680519D01*
X85592178Y-99841806D01*
X85588260Y-99857558D01*
X85587587Y-99939512D01*
X85660804Y-99922638D01*
X85768129Y-99833617D01*
X85869782Y-99699130D01*
X85893816Y-99652614D01*
X85954959Y-99385280D01*
X85879496Y-99184356D01*
X85710823Y-99086248D01*
X85516346Y-99075672D01*
X85442238Y-99180109D01*
X85234259Y-99180109D01*
X85292562Y-99007534D01*
X85401450Y-98839170D01*
X85537082Y-98794083D01*
X85680272Y-98813507D01*
X85680272Y-98813507D01*
G37*
X85680272Y-98813507D02*
X85988391Y-98942327D01*
X86171918Y-99161998D01*
X86223585Y-99441268D01*
X86136122Y-99748886D01*
X85956169Y-99999638D01*
X85747563Y-100203970D01*
X85604388Y-100287847D01*
X85488986Y-100265154D01*
X85411600Y-100200400D01*
X85336333Y-100046795D01*
X85304049Y-99840567D01*
X85278509Y-99595535D01*
X85233839Y-99418196D01*
X85225201Y-99206922D01*
X85234259Y-99180109D01*
X85442238Y-99180109D01*
X85486394Y-99403469D01*
X85508725Y-99461510D01*
X85577173Y-99680519D01*
X85592178Y-99841806D01*
X85588260Y-99857558D01*
X85587587Y-99939512D01*
X85660804Y-99922638D01*
X85768129Y-99833617D01*
X85869782Y-99699130D01*
X85893816Y-99652614D01*
X85954959Y-99385280D01*
X85879496Y-99184356D01*
X85710823Y-99086248D01*
X85516346Y-99075672D01*
X85442238Y-99180109D01*
X85234259Y-99180109D01*
X85292562Y-99007534D01*
X85401450Y-98839170D01*
X85537082Y-98794083D01*
X85680272Y-98813507D01*
G36*
X80344010Y-99707578D02*
X80353551Y-99715818D01*
X80376905Y-99823374D01*
X80277318Y-99926700D01*
X80092299Y-100034759D01*
X79977567Y-100018102D01*
X79937247Y-99969127D01*
X79952648Y-99864982D01*
X80068442Y-99760593D01*
X80220329Y-99695083D01*
X80344010Y-99707578D01*
X80344010Y-99707578D01*
G37*
X80344010Y-99707578D02*
X80353551Y-99715818D01*
X80376905Y-99823374D01*
X80277318Y-99926700D01*
X80092299Y-100034759D01*
X79977567Y-100018102D01*
X79937247Y-99969127D01*
X79952648Y-99864982D01*
X80068442Y-99760593D01*
X80220329Y-99695083D01*
X80344010Y-99707578D01*
G36*
X79408158Y-99511122D02*
X79524895Y-99619366D01*
X79588907Y-99764985D01*
X79582344Y-99838784D01*
X79495261Y-99953663D01*
X79369353Y-99910482D01*
X79315600Y-99861734D01*
X79221948Y-99693572D01*
X79249348Y-99540921D01*
X79291841Y-99501885D01*
X79408158Y-99511122D01*
X79408158Y-99511122D01*
G37*
X79408158Y-99511122D02*
X79524895Y-99619366D01*
X79588907Y-99764985D01*
X79582344Y-99838784D01*
X79495261Y-99953663D01*
X79369353Y-99910482D01*
X79315600Y-99861734D01*
X79221948Y-99693572D01*
X79249348Y-99540921D01*
X79291841Y-99501885D01*
X79408158Y-99511122D01*
G36*
X80078236Y-99250767D02*
X80386080Y-99364379D01*
X80546759Y-99479608D01*
X80677233Y-99637873D01*
X80719305Y-99748859D01*
X80712343Y-99763212D01*
X80658279Y-99757226D01*
X80653333Y-99722200D01*
X80576216Y-99571861D01*
X80374133Y-99444467D01*
X80090985Y-99350404D01*
X79770671Y-99300060D01*
X79457094Y-99303819D01*
X79194153Y-99372070D01*
X79187267Y-99375338D01*
X79060259Y-99433785D01*
X79072226Y-99409023D01*
X79171667Y-99326338D01*
X79409571Y-99224896D01*
X79732247Y-99201989D01*
X80078236Y-99250767D01*
X80078236Y-99250767D01*
G37*
X80078236Y-99250767D02*
X80386080Y-99364379D01*
X80546759Y-99479608D01*
X80677233Y-99637873D01*
X80719305Y-99748859D01*
X80712343Y-99763212D01*
X80658279Y-99757226D01*
X80653333Y-99722200D01*
X80576216Y-99571861D01*
X80374133Y-99444467D01*
X80090985Y-99350404D01*
X79770671Y-99300060D01*
X79457094Y-99303819D01*
X79194153Y-99372070D01*
X79187267Y-99375338D01*
X79060259Y-99433785D01*
X79072226Y-99409023D01*
X79171667Y-99326338D01*
X79409571Y-99224896D01*
X79732247Y-99201989D01*
X80078236Y-99250767D01*
G36*
X82103568Y-96038371D02*
X82377083Y-96182654D01*
X82419927Y-96206282D01*
X82725340Y-96374808D01*
X82909544Y-96481347D01*
X82997986Y-96548567D01*
X83016112Y-96599132D01*
X82989368Y-96655710D01*
X82966989Y-96693574D01*
X82908696Y-96749478D01*
X82805229Y-96743601D01*
X82623268Y-96666513D01*
X82345395Y-96517642D01*
X82077588Y-96368067D01*
X81875168Y-96253981D01*
X81776611Y-96197088D01*
X81773174Y-96194836D01*
X81779044Y-96113719D01*
X81804100Y-96036623D01*
X81849445Y-95974273D01*
X81938478Y-95971884D01*
X82103568Y-96038371D01*
X82103568Y-96038371D01*
G37*
X82103568Y-96038371D02*
X82377083Y-96182654D01*
X82419927Y-96206282D01*
X82725340Y-96374808D01*
X82909544Y-96481347D01*
X82997986Y-96548567D01*
X83016112Y-96599132D01*
X82989368Y-96655710D01*
X82966989Y-96693574D01*
X82908696Y-96749478D01*
X82805229Y-96743601D01*
X82623268Y-96666513D01*
X82345395Y-96517642D01*
X82077588Y-96368067D01*
X81875168Y-96253981D01*
X81776611Y-96197088D01*
X81773174Y-96194836D01*
X81779044Y-96113719D01*
X81804100Y-96036623D01*
X81849445Y-95974273D01*
X81938478Y-95971884D01*
X82103568Y-96038371D01*
G36*
X78560652Y-95951797D02*
X78648824Y-96018184D01*
X78638263Y-96103556D01*
X78508787Y-96163208D01*
X78299438Y-96202519D01*
X78005668Y-96272076D01*
X77746373Y-96376572D01*
X77680443Y-96416213D01*
X77513252Y-96508317D01*
X77408461Y-96520374D01*
X77405276Y-96517721D01*
X77356224Y-96410146D01*
X77437166Y-96286139D01*
X77584167Y-96170479D01*
X77818513Y-96049087D01*
X78093043Y-95967360D01*
X78357257Y-95932521D01*
X78560652Y-95951797D01*
X78560652Y-95951797D01*
G37*
X78560652Y-95951797D02*
X78648824Y-96018184D01*
X78638263Y-96103556D01*
X78508787Y-96163208D01*
X78299438Y-96202519D01*
X78005668Y-96272076D01*
X77746373Y-96376572D01*
X77680443Y-96416213D01*
X77513252Y-96508317D01*
X77408461Y-96520374D01*
X77405276Y-96517721D01*
X77356224Y-96410146D01*
X77437166Y-96286139D01*
X77584167Y-96170479D01*
X77818513Y-96049087D01*
X78093043Y-95967360D01*
X78357257Y-95932521D01*
X78560652Y-95951797D01*
D12*
X82100000Y-116975000D02*
X80100000Y-116975000D01*
X80100000Y-114825000D02*
X82100000Y-114825000D01*
X100600000Y-106975000D02*
X98600000Y-106975000D01*
X98600000Y-104825000D02*
X100600000Y-104825000D01*
X107350000Y-108975000D02*
X105350000Y-108975000D01*
X105350000Y-106825000D02*
X107350000Y-106825000D01*
X73100000Y-114825000D02*
X75100000Y-114825000D01*
X75100000Y-116975000D02*
X73100000Y-116975000D01*
X84900000Y-109700000D02*
X87300000Y-109700000D01*
X87300000Y-109700000D02*
X87300000Y-114100000D01*
X87300000Y-114100000D02*
X84900000Y-114100000D01*
X84900000Y-114100000D02*
X84900000Y-109700000D01*
D11*
X87000000Y-110250000D02*
G75*
G03X87000000Y-110250000I-250000J0D01*
G01*
D12*
X73290000Y-106090000D02*
X73290000Y-113710000D01*
X73290000Y-113710000D02*
X80910000Y-113710000D01*
X80910000Y-113710000D02*
X80910000Y-106090000D01*
X80910000Y-106090000D02*
X73290000Y-106090000D01*
X82025000Y-111900000D02*
X82025000Y-109900000D01*
X84175000Y-109900000D02*
X84175000Y-111900000D01*
X91600000Y-115900000D02*
X91600000Y-113900000D01*
X90100000Y-116354000D02*
X92100000Y-116354000D01*
X90100000Y-113446000D02*
X92200000Y-113446000D01*
D15*
X103910000Y-114500000D02*
X102760000Y-114500000D01*
X103910000Y-109300000D02*
X102710000Y-109300000D01*
X103900000Y-109500000D02*
X103900000Y-109300000D01*
X103900000Y-114500000D02*
X103900000Y-114300000D01*
D12*
X80300000Y-117300000D02*
X80300000Y-130500000D01*
X80300000Y-130500000D02*
X70100000Y-130500000D01*
X70100000Y-130500000D02*
X70100000Y-117300000D01*
X70100000Y-117300000D02*
X80300000Y-117300000D01*
X102800000Y-117300000D02*
X102800000Y-130500000D01*
X102800000Y-130500000D02*
X92600000Y-130500000D01*
X92600000Y-130500000D02*
X92600000Y-117300000D01*
X92600000Y-117300000D02*
X102800000Y-117300000D01*
X91550000Y-117300000D02*
X91550000Y-130500000D01*
X91550000Y-130500000D02*
X81350000Y-130500000D01*
X81350000Y-130500000D02*
X81350000Y-117300000D01*
X81350000Y-117300000D02*
X91550000Y-117300000D01*
X114050000Y-117300000D02*
X114050000Y-130500000D01*
X114050000Y-130500000D02*
X103850000Y-130500000D01*
X103850000Y-130500000D02*
X103850000Y-117300000D01*
X103850000Y-117300000D02*
X114050000Y-117300000D01*
D14*
G36*
X95055814Y-97468931D02*
X95139635Y-97913555D01*
X95448920Y-98041053D01*
X95758206Y-98168551D01*
X96129246Y-97916246D01*
X96233157Y-97845996D01*
X96327087Y-97783272D01*
X96406652Y-97730938D01*
X96467470Y-97691857D01*
X96505157Y-97668893D01*
X96515421Y-97663942D01*
X96533910Y-97676676D01*
X96573420Y-97711882D01*
X96629522Y-97765062D01*
X96697787Y-97831718D01*
X96773786Y-97907354D01*
X96853092Y-97987472D01*
X96931275Y-98067574D01*
X97003907Y-98143164D01*
X97066559Y-98209745D01*
X97114803Y-98262818D01*
X97144210Y-98297887D01*
X97151241Y-98309623D01*
X97141123Y-98331260D01*
X97112759Y-98378662D01*
X97069129Y-98447193D01*
X97013218Y-98532215D01*
X96948006Y-98629093D01*
X96910219Y-98684350D01*
X96841343Y-98785248D01*
X96780140Y-98876299D01*
X96729578Y-98952970D01*
X96692628Y-99010728D01*
X96672258Y-99045043D01*
X96669197Y-99052254D01*
X96676136Y-99072748D01*
X96695051Y-99120513D01*
X96723087Y-99188832D01*
X96757391Y-99270989D01*
X96795109Y-99360270D01*
X96833387Y-99449958D01*
X96869370Y-99533338D01*
X96900206Y-99603694D01*
X96923039Y-99654310D01*
X96935017Y-99678471D01*
X96935724Y-99679422D01*
X96954531Y-99684036D01*
X97004618Y-99694328D01*
X97080793Y-99709287D01*
X97177865Y-99727901D01*
X97290643Y-99749159D01*
X97356442Y-99761418D01*
X97476950Y-99784362D01*
X97585797Y-99806195D01*
X97677476Y-99825722D01*
X97746481Y-99841748D01*
X97787304Y-99853079D01*
X97795511Y-99856674D01*
X97803548Y-99881006D01*
X97810033Y-99935959D01*
X97814970Y-100015108D01*
X97818364Y-100112026D01*
X97820218Y-100220287D01*
X97820538Y-100333465D01*
X97819327Y-100445135D01*
X97816590Y-100548868D01*
X97812331Y-100638241D01*
X97806555Y-100706826D01*
X97799267Y-100748197D01*
X97794895Y-100756810D01*
X97768764Y-100767133D01*
X97713393Y-100781892D01*
X97636107Y-100799352D01*
X97544230Y-100817780D01*
X97512158Y-100823741D01*
X97357524Y-100852066D01*
X97235375Y-100874876D01*
X97141673Y-100893080D01*
X97072384Y-100907583D01*
X97023471Y-100919292D01*
X96990897Y-100929115D01*
X96970628Y-100937956D01*
X96958626Y-100946724D01*
X96956947Y-100948457D01*
X96940184Y-100976371D01*
X96914614Y-101030695D01*
X96882788Y-101104777D01*
X96847260Y-101191965D01*
X96810583Y-101285608D01*
X96775311Y-101379052D01*
X96743996Y-101465647D01*
X96719193Y-101538740D01*
X96703454Y-101591678D01*
X96699332Y-101617811D01*
X96699676Y-101618726D01*
X96713641Y-101640086D01*
X96745322Y-101687084D01*
X96791391Y-101754827D01*
X96848518Y-101838423D01*
X96913373Y-101932982D01*
X96931843Y-101959854D01*
X96997699Y-102057275D01*
X97055650Y-102146163D01*
X97102538Y-102221412D01*
X97135207Y-102277920D01*
X97150500Y-102310581D01*
X97151241Y-102314593D01*
X97138392Y-102335684D01*
X97102888Y-102377464D01*
X97049293Y-102435445D01*
X96982171Y-102505135D01*
X96906087Y-102582045D01*
X96825604Y-102661683D01*
X96745287Y-102739561D01*
X96669699Y-102811186D01*
X96603405Y-102872070D01*
X96550969Y-102917721D01*
X96516955Y-102943650D01*
X96507545Y-102947883D01*
X96485643Y-102937912D01*
X96440800Y-102911020D01*
X96380321Y-102871736D01*
X96333789Y-102840117D01*
X96249475Y-102782098D01*
X96149626Y-102713784D01*
X96049473Y-102645579D01*
X95995627Y-102609075D01*
X95813371Y-102485800D01*
X95660381Y-102568520D01*
X95590682Y-102604759D01*
X95531414Y-102632926D01*
X95491311Y-102648991D01*
X95481103Y-102651226D01*
X95468829Y-102634722D01*
X95444613Y-102588082D01*
X95410263Y-102515609D01*
X95367588Y-102421606D01*
X95318394Y-102310374D01*
X95264490Y-102186215D01*
X95207684Y-102053432D01*
X95149782Y-101916327D01*
X95092593Y-101779202D01*
X95037924Y-101646358D01*
X94987584Y-101522098D01*
X94943380Y-101410725D01*
X94907119Y-101316539D01*
X94880609Y-101243844D01*
X94865658Y-101196941D01*
X94863254Y-101180833D01*
X94882311Y-101160286D01*
X94924036Y-101126933D01*
X94979706Y-101087702D01*
X94984378Y-101084599D01*
X95128264Y-100969423D01*
X95244283Y-100835053D01*
X95331430Y-100685784D01*
X95388699Y-100525913D01*
X95415086Y-100359737D01*
X95409585Y-100191552D01*
X95371190Y-100025655D01*
X95298895Y-99866342D01*
X95277626Y-99831487D01*
X95166996Y-99690737D01*
X95036302Y-99577714D01*
X94890064Y-99493003D01*
X94732808Y-99437194D01*
X94569057Y-99410874D01*
X94403333Y-99414630D01*
X94240162Y-99449050D01*
X94084065Y-99514723D01*
X93939567Y-99612235D01*
X93894869Y-99651813D01*
X93781112Y-99775703D01*
X93698218Y-99906124D01*
X93641356Y-100052315D01*
X93609687Y-100197088D01*
X93601869Y-100359860D01*
X93627938Y-100523440D01*
X93685245Y-100682298D01*
X93771144Y-100830906D01*
X93882986Y-100963735D01*
X94018123Y-101075256D01*
X94035883Y-101087011D01*
X94092150Y-101125508D01*
X94134923Y-101158863D01*
X94155372Y-101180160D01*
X94155669Y-101180833D01*
X94151279Y-101203871D01*
X94133876Y-101256157D01*
X94105268Y-101333390D01*
X94067265Y-101431268D01*
X94021674Y-101545491D01*
X93970303Y-101671758D01*
X93914962Y-101805767D01*
X93857458Y-101943218D01*
X93799601Y-102079808D01*
X93743198Y-102211237D01*
X93690058Y-102333205D01*
X93641990Y-102441409D01*
X93600801Y-102531549D01*
X93568301Y-102599323D01*
X93546297Y-102640430D01*
X93537436Y-102651226D01*
X93510360Y-102642819D01*
X93459697Y-102620272D01*
X93394183Y-102587613D01*
X93358159Y-102568520D01*
X93205168Y-102485800D01*
X93022912Y-102609075D01*
X92929875Y-102672228D01*
X92828015Y-102741727D01*
X92732562Y-102807165D01*
X92684750Y-102840117D01*
X92617505Y-102885273D01*
X92560564Y-102921057D01*
X92521354Y-102942938D01*
X92508619Y-102947563D01*
X92490083Y-102935085D01*
X92449059Y-102900252D01*
X92389525Y-102846678D01*
X92315458Y-102777983D01*
X92230835Y-102697781D01*
X92177315Y-102646286D01*
X92083681Y-102554286D01*
X92002759Y-102471999D01*
X91937823Y-102402945D01*
X91892142Y-102350644D01*
X91868989Y-102318616D01*
X91866768Y-102312116D01*
X91877076Y-102287394D01*
X91905561Y-102237405D01*
X91949063Y-102167212D01*
X92004423Y-102081875D01*
X92068480Y-101986456D01*
X92086697Y-101959854D01*
X92153073Y-101863167D01*
X92212622Y-101776117D01*
X92262016Y-101703595D01*
X92297925Y-101650493D01*
X92317019Y-101621703D01*
X92318864Y-101618726D01*
X92316105Y-101595782D01*
X92301462Y-101545336D01*
X92277487Y-101474041D01*
X92246734Y-101388547D01*
X92211756Y-101295507D01*
X92175107Y-101201574D01*
X92139339Y-101113399D01*
X92107006Y-101037634D01*
X92080662Y-100980931D01*
X92062858Y-100949943D01*
X92061593Y-100948457D01*
X92050706Y-100939601D01*
X92032318Y-100930843D01*
X92002394Y-100921277D01*
X91956897Y-100909996D01*
X91891791Y-100896093D01*
X91803039Y-100878663D01*
X91686607Y-100856798D01*
X91538458Y-100829591D01*
X91506382Y-100823741D01*
X91411314Y-100805374D01*
X91328435Y-100787405D01*
X91265070Y-100771569D01*
X91228542Y-100759600D01*
X91223644Y-100756810D01*
X91215573Y-100732072D01*
X91209013Y-100676790D01*
X91203967Y-100597389D01*
X91200441Y-100500296D01*
X91198439Y-100391938D01*
X91197964Y-100278740D01*
X91199023Y-100167128D01*
X91201618Y-100063529D01*
X91205754Y-99974368D01*
X91211437Y-99906072D01*
X91218669Y-99865066D01*
X91223029Y-99856674D01*
X91247302Y-99848208D01*
X91302574Y-99834435D01*
X91383338Y-99816550D01*
X91484088Y-99795748D01*
X91599317Y-99773223D01*
X91662098Y-99761418D01*
X91781213Y-99739151D01*
X91887435Y-99718979D01*
X91975573Y-99701915D01*
X92040434Y-99688969D01*
X92076826Y-99681155D01*
X92082816Y-99679422D01*
X92092939Y-99659890D01*
X92114338Y-99612843D01*
X92144161Y-99545003D01*
X92179555Y-99463091D01*
X92217668Y-99373828D01*
X92255647Y-99283935D01*
X92290640Y-99200135D01*
X92319794Y-99129147D01*
X92340257Y-99077694D01*
X92349177Y-99052497D01*
X92349343Y-99051396D01*
X92339231Y-99031519D01*
X92310883Y-98985777D01*
X92267277Y-98918717D01*
X92211394Y-98834884D01*
X92146213Y-98738826D01*
X92108321Y-98683650D01*
X92039275Y-98582481D01*
X91977950Y-98490630D01*
X91927337Y-98412744D01*
X91890429Y-98353469D01*
X91870218Y-98317451D01*
X91867299Y-98309377D01*
X91879847Y-98290584D01*
X91914537Y-98250457D01*
X91966937Y-98193493D01*
X92032616Y-98124185D01*
X92107144Y-98047031D01*
X92186087Y-97966525D01*
X92265017Y-97887163D01*
X92339500Y-97813440D01*
X92405106Y-97749852D01*
X92457404Y-97700894D01*
X92491961Y-97671061D01*
X92503522Y-97663942D01*
X92522346Y-97673953D01*
X92567369Y-97702078D01*
X92634213Y-97745454D01*
X92718501Y-97801218D01*
X92815856Y-97866506D01*
X92889293Y-97916246D01*
X93260333Y-98168551D01*
X93878905Y-97913555D01*
X93962725Y-97468931D01*
X94046546Y-97024307D01*
X94971994Y-97024307D01*
X95055814Y-97468931D01*
X95055814Y-97468931D01*
G37*
X95055814Y-97468931D02*
X95139635Y-97913555D01*
X95448920Y-98041053D01*
X95758206Y-98168551D01*
X96129246Y-97916246D01*
X96233157Y-97845996D01*
X96327087Y-97783272D01*
X96406652Y-97730938D01*
X96467470Y-97691857D01*
X96505157Y-97668893D01*
X96515421Y-97663942D01*
X96533910Y-97676676D01*
X96573420Y-97711882D01*
X96629522Y-97765062D01*
X96697787Y-97831718D01*
X96773786Y-97907354D01*
X96853092Y-97987472D01*
X96931275Y-98067574D01*
X97003907Y-98143164D01*
X97066559Y-98209745D01*
X97114803Y-98262818D01*
X97144210Y-98297887D01*
X97151241Y-98309623D01*
X97141123Y-98331260D01*
X97112759Y-98378662D01*
X97069129Y-98447193D01*
X97013218Y-98532215D01*
X96948006Y-98629093D01*
X96910219Y-98684350D01*
X96841343Y-98785248D01*
X96780140Y-98876299D01*
X96729578Y-98952970D01*
X96692628Y-99010728D01*
X96672258Y-99045043D01*
X96669197Y-99052254D01*
X96676136Y-99072748D01*
X96695051Y-99120513D01*
X96723087Y-99188832D01*
X96757391Y-99270989D01*
X96795109Y-99360270D01*
X96833387Y-99449958D01*
X96869370Y-99533338D01*
X96900206Y-99603694D01*
X96923039Y-99654310D01*
X96935017Y-99678471D01*
X96935724Y-99679422D01*
X96954531Y-99684036D01*
X97004618Y-99694328D01*
X97080793Y-99709287D01*
X97177865Y-99727901D01*
X97290643Y-99749159D01*
X97356442Y-99761418D01*
X97476950Y-99784362D01*
X97585797Y-99806195D01*
X97677476Y-99825722D01*
X97746481Y-99841748D01*
X97787304Y-99853079D01*
X97795511Y-99856674D01*
X97803548Y-99881006D01*
X97810033Y-99935959D01*
X97814970Y-100015108D01*
X97818364Y-100112026D01*
X97820218Y-100220287D01*
X97820538Y-100333465D01*
X97819327Y-100445135D01*
X97816590Y-100548868D01*
X97812331Y-100638241D01*
X97806555Y-100706826D01*
X97799267Y-100748197D01*
X97794895Y-100756810D01*
X97768764Y-100767133D01*
X97713393Y-100781892D01*
X97636107Y-100799352D01*
X97544230Y-100817780D01*
X97512158Y-100823741D01*
X97357524Y-100852066D01*
X97235375Y-100874876D01*
X97141673Y-100893080D01*
X97072384Y-100907583D01*
X97023471Y-100919292D01*
X96990897Y-100929115D01*
X96970628Y-100937956D01*
X96958626Y-100946724D01*
X96956947Y-100948457D01*
X96940184Y-100976371D01*
X96914614Y-101030695D01*
X96882788Y-101104777D01*
X96847260Y-101191965D01*
X96810583Y-101285608D01*
X96775311Y-101379052D01*
X96743996Y-101465647D01*
X96719193Y-101538740D01*
X96703454Y-101591678D01*
X96699332Y-101617811D01*
X96699676Y-101618726D01*
X96713641Y-101640086D01*
X96745322Y-101687084D01*
X96791391Y-101754827D01*
X96848518Y-101838423D01*
X96913373Y-101932982D01*
X96931843Y-101959854D01*
X96997699Y-102057275D01*
X97055650Y-102146163D01*
X97102538Y-102221412D01*
X97135207Y-102277920D01*
X97150500Y-102310581D01*
X97151241Y-102314593D01*
X97138392Y-102335684D01*
X97102888Y-102377464D01*
X97049293Y-102435445D01*
X96982171Y-102505135D01*
X96906087Y-102582045D01*
X96825604Y-102661683D01*
X96745287Y-102739561D01*
X96669699Y-102811186D01*
X96603405Y-102872070D01*
X96550969Y-102917721D01*
X96516955Y-102943650D01*
X96507545Y-102947883D01*
X96485643Y-102937912D01*
X96440800Y-102911020D01*
X96380321Y-102871736D01*
X96333789Y-102840117D01*
X96249475Y-102782098D01*
X96149626Y-102713784D01*
X96049473Y-102645579D01*
X95995627Y-102609075D01*
X95813371Y-102485800D01*
X95660381Y-102568520D01*
X95590682Y-102604759D01*
X95531414Y-102632926D01*
X95491311Y-102648991D01*
X95481103Y-102651226D01*
X95468829Y-102634722D01*
X95444613Y-102588082D01*
X95410263Y-102515609D01*
X95367588Y-102421606D01*
X95318394Y-102310374D01*
X95264490Y-102186215D01*
X95207684Y-102053432D01*
X95149782Y-101916327D01*
X95092593Y-101779202D01*
X95037924Y-101646358D01*
X94987584Y-101522098D01*
X94943380Y-101410725D01*
X94907119Y-101316539D01*
X94880609Y-101243844D01*
X94865658Y-101196941D01*
X94863254Y-101180833D01*
X94882311Y-101160286D01*
X94924036Y-101126933D01*
X94979706Y-101087702D01*
X94984378Y-101084599D01*
X95128264Y-100969423D01*
X95244283Y-100835053D01*
X95331430Y-100685784D01*
X95388699Y-100525913D01*
X95415086Y-100359737D01*
X95409585Y-100191552D01*
X95371190Y-100025655D01*
X95298895Y-99866342D01*
X95277626Y-99831487D01*
X95166996Y-99690737D01*
X95036302Y-99577714D01*
X94890064Y-99493003D01*
X94732808Y-99437194D01*
X94569057Y-99410874D01*
X94403333Y-99414630D01*
X94240162Y-99449050D01*
X94084065Y-99514723D01*
X93939567Y-99612235D01*
X93894869Y-99651813D01*
X93781112Y-99775703D01*
X93698218Y-99906124D01*
X93641356Y-100052315D01*
X93609687Y-100197088D01*
X93601869Y-100359860D01*
X93627938Y-100523440D01*
X93685245Y-100682298D01*
X93771144Y-100830906D01*
X93882986Y-100963735D01*
X94018123Y-101075256D01*
X94035883Y-101087011D01*
X94092150Y-101125508D01*
X94134923Y-101158863D01*
X94155372Y-101180160D01*
X94155669Y-101180833D01*
X94151279Y-101203871D01*
X94133876Y-101256157D01*
X94105268Y-101333390D01*
X94067265Y-101431268D01*
X94021674Y-101545491D01*
X93970303Y-101671758D01*
X93914962Y-101805767D01*
X93857458Y-101943218D01*
X93799601Y-102079808D01*
X93743198Y-102211237D01*
X93690058Y-102333205D01*
X93641990Y-102441409D01*
X93600801Y-102531549D01*
X93568301Y-102599323D01*
X93546297Y-102640430D01*
X93537436Y-102651226D01*
X93510360Y-102642819D01*
X93459697Y-102620272D01*
X93394183Y-102587613D01*
X93358159Y-102568520D01*
X93205168Y-102485800D01*
X93022912Y-102609075D01*
X92929875Y-102672228D01*
X92828015Y-102741727D01*
X92732562Y-102807165D01*
X92684750Y-102840117D01*
X92617505Y-102885273D01*
X92560564Y-102921057D01*
X92521354Y-102942938D01*
X92508619Y-102947563D01*
X92490083Y-102935085D01*
X92449059Y-102900252D01*
X92389525Y-102846678D01*
X92315458Y-102777983D01*
X92230835Y-102697781D01*
X92177315Y-102646286D01*
X92083681Y-102554286D01*
X92002759Y-102471999D01*
X91937823Y-102402945D01*
X91892142Y-102350644D01*
X91868989Y-102318616D01*
X91866768Y-102312116D01*
X91877076Y-102287394D01*
X91905561Y-102237405D01*
X91949063Y-102167212D01*
X92004423Y-102081875D01*
X92068480Y-101986456D01*
X92086697Y-101959854D01*
X92153073Y-101863167D01*
X92212622Y-101776117D01*
X92262016Y-101703595D01*
X92297925Y-101650493D01*
X92317019Y-101621703D01*
X92318864Y-101618726D01*
X92316105Y-101595782D01*
X92301462Y-101545336D01*
X92277487Y-101474041D01*
X92246734Y-101388547D01*
X92211756Y-101295507D01*
X92175107Y-101201574D01*
X92139339Y-101113399D01*
X92107006Y-101037634D01*
X92080662Y-100980931D01*
X92062858Y-100949943D01*
X92061593Y-100948457D01*
X92050706Y-100939601D01*
X92032318Y-100930843D01*
X92002394Y-100921277D01*
X91956897Y-100909996D01*
X91891791Y-100896093D01*
X91803039Y-100878663D01*
X91686607Y-100856798D01*
X91538458Y-100829591D01*
X91506382Y-100823741D01*
X91411314Y-100805374D01*
X91328435Y-100787405D01*
X91265070Y-100771569D01*
X91228542Y-100759600D01*
X91223644Y-100756810D01*
X91215573Y-100732072D01*
X91209013Y-100676790D01*
X91203967Y-100597389D01*
X91200441Y-100500296D01*
X91198439Y-100391938D01*
X91197964Y-100278740D01*
X91199023Y-100167128D01*
X91201618Y-100063529D01*
X91205754Y-99974368D01*
X91211437Y-99906072D01*
X91218669Y-99865066D01*
X91223029Y-99856674D01*
X91247302Y-99848208D01*
X91302574Y-99834435D01*
X91383338Y-99816550D01*
X91484088Y-99795748D01*
X91599317Y-99773223D01*
X91662098Y-99761418D01*
X91781213Y-99739151D01*
X91887435Y-99718979D01*
X91975573Y-99701915D01*
X92040434Y-99688969D01*
X92076826Y-99681155D01*
X92082816Y-99679422D01*
X92092939Y-99659890D01*
X92114338Y-99612843D01*
X92144161Y-99545003D01*
X92179555Y-99463091D01*
X92217668Y-99373828D01*
X92255647Y-99283935D01*
X92290640Y-99200135D01*
X92319794Y-99129147D01*
X92340257Y-99077694D01*
X92349177Y-99052497D01*
X92349343Y-99051396D01*
X92339231Y-99031519D01*
X92310883Y-98985777D01*
X92267277Y-98918717D01*
X92211394Y-98834884D01*
X92146213Y-98738826D01*
X92108321Y-98683650D01*
X92039275Y-98582481D01*
X91977950Y-98490630D01*
X91927337Y-98412744D01*
X91890429Y-98353469D01*
X91870218Y-98317451D01*
X91867299Y-98309377D01*
X91879847Y-98290584D01*
X91914537Y-98250457D01*
X91966937Y-98193493D01*
X92032616Y-98124185D01*
X92107144Y-98047031D01*
X92186087Y-97966525D01*
X92265017Y-97887163D01*
X92339500Y-97813440D01*
X92405106Y-97749852D01*
X92457404Y-97700894D01*
X92491961Y-97671061D01*
X92503522Y-97663942D01*
X92522346Y-97673953D01*
X92567369Y-97702078D01*
X92634213Y-97745454D01*
X92718501Y-97801218D01*
X92815856Y-97866506D01*
X92889293Y-97916246D01*
X93260333Y-98168551D01*
X93878905Y-97913555D01*
X93962725Y-97468931D01*
X94046546Y-97024307D01*
X94971994Y-97024307D01*
X95055814Y-97468931D01*
D12*
X81552381Y-116066666D02*
X81076190Y-116400000D01*
X81552381Y-116638095D02*
X80552381Y-116638095D01*
X80552381Y-116257142D01*
X80600000Y-116161904D01*
X80647619Y-116114285D01*
X80742857Y-116066666D01*
X80885714Y-116066666D01*
X80980952Y-116114285D01*
X81028571Y-116161904D01*
X81076190Y-116257142D01*
X81076190Y-116638095D01*
X80552381Y-115161904D02*
X80552381Y-115638095D01*
X81028571Y-115685714D01*
X80980952Y-115638095D01*
X80933333Y-115542857D01*
X80933333Y-115304761D01*
X80980952Y-115209523D01*
X81028571Y-115161904D01*
X81123810Y-115114285D01*
X81361905Y-115114285D01*
X81457143Y-115161904D01*
X81504762Y-115209523D01*
X81552381Y-115304761D01*
X81552381Y-115542857D01*
X81504762Y-115638095D01*
X81457143Y-115685714D01*
X103843334Y-106192381D02*
X103510000Y-105716190D01*
X103271905Y-106192381D02*
X103271905Y-105192381D01*
X103652858Y-105192381D01*
X103748096Y-105240000D01*
X103795715Y-105287619D01*
X103843334Y-105382857D01*
X103843334Y-105525714D01*
X103795715Y-105620952D01*
X103748096Y-105668571D01*
X103652858Y-105716190D01*
X103271905Y-105716190D01*
X104795715Y-106192381D02*
X104224286Y-106192381D01*
X104510000Y-106192381D02*
X104510000Y-105192381D01*
X104414762Y-105335238D01*
X104319524Y-105430476D01*
X104224286Y-105478095D01*
X110453334Y-108372381D02*
X110120000Y-107896190D01*
X109881905Y-108372381D02*
X109881905Y-107372381D01*
X110262858Y-107372381D01*
X110358096Y-107420000D01*
X110405715Y-107467619D01*
X110453334Y-107562857D01*
X110453334Y-107705714D01*
X110405715Y-107800952D01*
X110358096Y-107848571D01*
X110262858Y-107896190D01*
X109881905Y-107896190D01*
X110834286Y-107467619D02*
X110881905Y-107420000D01*
X110977143Y-107372381D01*
X111215239Y-107372381D01*
X111310477Y-107420000D01*
X111358096Y-107467619D01*
X111405715Y-107562857D01*
X111405715Y-107658095D01*
X111358096Y-107800952D01*
X110786667Y-108372381D01*
X111405715Y-108372381D01*
X69583334Y-116522381D02*
X69250000Y-116046190D01*
X69011905Y-116522381D02*
X69011905Y-115522381D01*
X69392858Y-115522381D01*
X69488096Y-115570000D01*
X69535715Y-115617619D01*
X69583334Y-115712857D01*
X69583334Y-115855714D01*
X69535715Y-115950952D01*
X69488096Y-115998571D01*
X69392858Y-116046190D01*
X69011905Y-116046190D01*
X70440477Y-115855714D02*
X70440477Y-116522381D01*
X70202381Y-115474762D02*
X69964286Y-116189048D01*
X70583334Y-116189048D01*
X87758095Y-109622381D02*
X87758095Y-110431905D01*
X87805714Y-110527143D01*
X87853333Y-110574762D01*
X87948571Y-110622381D01*
X88139048Y-110622381D01*
X88234286Y-110574762D01*
X88281905Y-110527143D01*
X88329524Y-110431905D01*
X88329524Y-109622381D01*
X89329524Y-110622381D02*
X88758095Y-110622381D01*
X89043809Y-110622381D02*
X89043809Y-109622381D01*
X88948571Y-109765238D01*
X88853333Y-109860476D01*
X88758095Y-109908095D01*
X70409524Y-107257143D02*
X70361905Y-107304762D01*
X70219048Y-107352381D01*
X70123810Y-107352381D01*
X69980952Y-107304762D01*
X69885714Y-107209524D01*
X69838095Y-107114286D01*
X69790476Y-106923810D01*
X69790476Y-106780952D01*
X69838095Y-106590476D01*
X69885714Y-106495238D01*
X69980952Y-106400000D01*
X70123810Y-106352381D01*
X70219048Y-106352381D01*
X70361905Y-106400000D01*
X70409524Y-106447619D01*
X70838095Y-107352381D02*
X70838095Y-106352381D01*
X71409524Y-107352381D01*
X71409524Y-106352381D01*
X72409524Y-107352381D02*
X71838095Y-107352381D01*
X72123809Y-107352381D02*
X72123809Y-106352381D01*
X72028571Y-106495238D01*
X71933333Y-106590476D01*
X71838095Y-106638095D01*
X82923334Y-107362381D02*
X82590000Y-106886190D01*
X82351905Y-107362381D02*
X82351905Y-106362381D01*
X82732858Y-106362381D01*
X82828096Y-106410000D01*
X82875715Y-106457619D01*
X82923334Y-106552857D01*
X82923334Y-106695714D01*
X82875715Y-106790952D01*
X82828096Y-106838571D01*
X82732858Y-106886190D01*
X82351905Y-106886190D01*
X83256667Y-106362381D02*
X83875715Y-106362381D01*
X83542381Y-106743333D01*
X83685239Y-106743333D01*
X83780477Y-106790952D01*
X83828096Y-106838571D01*
X83875715Y-106933810D01*
X83875715Y-107171905D01*
X83828096Y-107267143D01*
X83780477Y-107314762D01*
X83685239Y-107362381D01*
X83399524Y-107362381D01*
X83304286Y-107314762D01*
X83256667Y-107267143D01*
X90051905Y-113012381D02*
X90051905Y-112012381D01*
X90290000Y-112012381D01*
X90432858Y-112060000D01*
X90528096Y-112155238D01*
X90575715Y-112250476D01*
X90623334Y-112440952D01*
X90623334Y-112583810D01*
X90575715Y-112774286D01*
X90528096Y-112869524D01*
X90432858Y-112964762D01*
X90290000Y-113012381D01*
X90051905Y-113012381D01*
X90956667Y-112012381D02*
X91575715Y-112012381D01*
X91242381Y-112393333D01*
X91385239Y-112393333D01*
X91480477Y-112440952D01*
X91528096Y-112488571D01*
X91575715Y-112583810D01*
X91575715Y-112821905D01*
X91528096Y-112917143D01*
X91480477Y-112964762D01*
X91385239Y-113012381D01*
X91099524Y-113012381D01*
X91004286Y-112964762D01*
X90956667Y-112917143D01*
X94404762Y-108297619D02*
X94309524Y-108250000D01*
X94214286Y-108154762D01*
X94071429Y-108011905D01*
X93976190Y-107964286D01*
X93880952Y-107964286D01*
X93928571Y-108202381D02*
X93833333Y-108154762D01*
X93738095Y-108059524D01*
X93690476Y-107869048D01*
X93690476Y-107535714D01*
X93738095Y-107345238D01*
X93833333Y-107250000D01*
X93928571Y-107202381D01*
X94119048Y-107202381D01*
X94214286Y-107250000D01*
X94309524Y-107345238D01*
X94357143Y-107535714D01*
X94357143Y-107869048D01*
X94309524Y-108059524D01*
X94214286Y-108154762D01*
X94119048Y-108202381D01*
X93928571Y-108202381D01*
X95309524Y-108202381D02*
X94738095Y-108202381D01*
X95023809Y-108202381D02*
X95023809Y-107202381D01*
X94928571Y-107345238D01*
X94833333Y-107440476D01*
X94738095Y-107488095D01*
X73071429Y-132452381D02*
X73071429Y-131452381D01*
X73452382Y-131452381D01*
X73547620Y-131500000D01*
X73595239Y-131547619D01*
X73642858Y-131642857D01*
X73642858Y-131785714D01*
X73595239Y-131880952D01*
X73547620Y-131928571D01*
X73452382Y-131976190D01*
X73071429Y-131976190D01*
X74261905Y-131452381D02*
X74452382Y-131452381D01*
X74547620Y-131500000D01*
X74642858Y-131595238D01*
X74690477Y-131785714D01*
X74690477Y-132119048D01*
X74642858Y-132309524D01*
X74547620Y-132404762D01*
X74452382Y-132452381D01*
X74261905Y-132452381D01*
X74166667Y-132404762D01*
X74071429Y-132309524D01*
X74023810Y-132119048D01*
X74023810Y-131785714D01*
X74071429Y-131595238D01*
X74166667Y-131500000D01*
X74261905Y-131452381D01*
X75023810Y-131452381D02*
X75261905Y-132452381D01*
X75452382Y-131738095D01*
X75642858Y-132452381D01*
X75880953Y-131452381D01*
X76261905Y-131928571D02*
X76595239Y-131928571D01*
X76738096Y-132452381D02*
X76261905Y-132452381D01*
X76261905Y-131452381D01*
X76738096Y-131452381D01*
X77738096Y-132452381D02*
X77404762Y-131976190D01*
X77166667Y-132452381D02*
X77166667Y-131452381D01*
X77547620Y-131452381D01*
X77642858Y-131500000D01*
X77690477Y-131547619D01*
X77738096Y-131642857D01*
X77738096Y-131785714D01*
X77690477Y-131880952D01*
X77642858Y-131928571D01*
X77547620Y-131976190D01*
X77166667Y-131976190D01*
X78166667Y-132071429D02*
X78928572Y-132071429D01*
X78547620Y-132452381D02*
X78547620Y-131690476D01*
X96500001Y-131928571D02*
X96642858Y-131976190D01*
X96690477Y-132023810D01*
X96738096Y-132119048D01*
X96738096Y-132261905D01*
X96690477Y-132357143D01*
X96642858Y-132404762D01*
X96547620Y-132452381D01*
X96166667Y-132452381D01*
X96166667Y-131452381D01*
X96500001Y-131452381D01*
X96595239Y-131500000D01*
X96642858Y-131547619D01*
X96690477Y-131642857D01*
X96690477Y-131738095D01*
X96642858Y-131833333D01*
X96595239Y-131880952D01*
X96500001Y-131928571D01*
X96166667Y-131928571D01*
X97166667Y-131928571D02*
X97500001Y-131928571D01*
X97642858Y-132452381D02*
X97166667Y-132452381D01*
X97166667Y-131452381D01*
X97642858Y-131452381D01*
X98071429Y-132452381D02*
X98071429Y-131452381D01*
X98309524Y-131452381D01*
X98452382Y-131500000D01*
X98547620Y-131595238D01*
X98595239Y-131690476D01*
X98642858Y-131880952D01*
X98642858Y-132023810D01*
X98595239Y-132214286D01*
X98547620Y-132309524D01*
X98452382Y-132404762D01*
X98309524Y-132452381D01*
X98071429Y-132452381D01*
X99071429Y-132071429D02*
X99833334Y-132071429D01*
X85000001Y-131928571D02*
X85142858Y-131976190D01*
X85190477Y-132023810D01*
X85238096Y-132119048D01*
X85238096Y-132261905D01*
X85190477Y-132357143D01*
X85142858Y-132404762D01*
X85047620Y-132452381D01*
X84666667Y-132452381D01*
X84666667Y-131452381D01*
X85000001Y-131452381D01*
X85095239Y-131500000D01*
X85142858Y-131547619D01*
X85190477Y-131642857D01*
X85190477Y-131738095D01*
X85142858Y-131833333D01*
X85095239Y-131880952D01*
X85000001Y-131928571D01*
X84666667Y-131928571D01*
X85666667Y-131928571D02*
X86000001Y-131928571D01*
X86142858Y-132452381D02*
X85666667Y-132452381D01*
X85666667Y-131452381D01*
X86142858Y-131452381D01*
X86571429Y-132452381D02*
X86571429Y-131452381D01*
X86809524Y-131452381D01*
X86952382Y-131500000D01*
X87047620Y-131595238D01*
X87095239Y-131690476D01*
X87142858Y-131880952D01*
X87142858Y-132023810D01*
X87095239Y-132214286D01*
X87047620Y-132309524D01*
X86952382Y-132404762D01*
X86809524Y-132452381D01*
X86571429Y-132452381D01*
X87571429Y-132071429D02*
X88333334Y-132071429D01*
X87952382Y-132452381D02*
X87952382Y-131690476D01*
X106071429Y-132452381D02*
X106071429Y-131452381D01*
X106452382Y-131452381D01*
X106547620Y-131500000D01*
X106595239Y-131547619D01*
X106642858Y-131642857D01*
X106642858Y-131785714D01*
X106595239Y-131880952D01*
X106547620Y-131928571D01*
X106452382Y-131976190D01*
X106071429Y-131976190D01*
X107261905Y-131452381D02*
X107452382Y-131452381D01*
X107547620Y-131500000D01*
X107642858Y-131595238D01*
X107690477Y-131785714D01*
X107690477Y-132119048D01*
X107642858Y-132309524D01*
X107547620Y-132404762D01*
X107452382Y-132452381D01*
X107261905Y-132452381D01*
X107166667Y-132404762D01*
X107071429Y-132309524D01*
X107023810Y-132119048D01*
X107023810Y-131785714D01*
X107071429Y-131595238D01*
X107166667Y-131500000D01*
X107261905Y-131452381D01*
X108023810Y-131452381D02*
X108261905Y-132452381D01*
X108452382Y-131738095D01*
X108642858Y-132452381D01*
X108880953Y-131452381D01*
X109261905Y-131928571D02*
X109595239Y-131928571D01*
X109738096Y-132452381D02*
X109261905Y-132452381D01*
X109261905Y-131452381D01*
X109738096Y-131452381D01*
X110738096Y-132452381D02*
X110404762Y-131976190D01*
X110166667Y-132452381D02*
X110166667Y-131452381D01*
X110547620Y-131452381D01*
X110642858Y-131500000D01*
X110690477Y-131547619D01*
X110738096Y-131642857D01*
X110738096Y-131785714D01*
X110690477Y-131880952D01*
X110642858Y-131928571D01*
X110547620Y-131976190D01*
X110166667Y-131976190D01*
X111166667Y-132071429D02*
X111928572Y-132071429D01*
M02*
