G04 #@! TF.FileFunction,Legend,Bot*
%FSLAX46Y46*%
G04 Gerber Fmt 4.6, Leading zero omitted, Abs format (unit mm)*
G04 Created by KiCad (PCBNEW 4.0.5) date 01/31/17 22:49:22*
%MOMM*%
%LPD*%
G01*
G04 APERTURE LIST*
%ADD10C,0.100000*%
%ADD11C,0.150000*%
%ADD12C,0.300000*%
%ADD13C,0.400000*%
%ADD14C,0.250000*%
%ADD15C,0.200000*%
%ADD16C,0.010000*%
G04 APERTURE END LIST*
D10*
D11*
X79999600Y-155999600D02*
X79999600Y-187999600D01*
X187999600Y-187999600D01*
X187999600Y-155999600D01*
X79999600Y-155999600D01*
D10*
D11*
X10000000Y-10000000D02*
X10000000Y-189999600D01*
X189999600Y-189999600D01*
X189999600Y-10000000D01*
X10000000Y-10000000D01*
D10*
D11*
X12000000Y-12000000D02*
X12000000Y-187999600D01*
X187999600Y-187999600D01*
X187999600Y-12000000D01*
X12000000Y-12000000D01*
D10*
D11*
X60000000Y-12000000D02*
X60000000Y-10000000D01*
D10*
D11*
X110000000Y-12000000D02*
X110000000Y-10000000D01*
D10*
D11*
X160000000Y-12000000D02*
X160000000Y-10000000D01*
D10*
D11*
X35990476Y-11588095D02*
X35247619Y-11588095D01*
X35619048Y-11588095D02*
X35619048Y-10288095D01*
X35495238Y-10473810D01*
X35371429Y-10597619D01*
X35247619Y-10659524D01*
D10*
D11*
X85247619Y-10411905D02*
X85309524Y-10350000D01*
X85433333Y-10288095D01*
X85742857Y-10288095D01*
X85866667Y-10350000D01*
X85928571Y-10411905D01*
X85990476Y-10535714D01*
X85990476Y-10659524D01*
X85928571Y-10845238D01*
X85185714Y-11588095D01*
X85990476Y-11588095D01*
D10*
D11*
X135185714Y-10288095D02*
X135990476Y-10288095D01*
X135557143Y-10783333D01*
X135742857Y-10783333D01*
X135866667Y-10845238D01*
X135928571Y-10907143D01*
X135990476Y-11030952D01*
X135990476Y-11340476D01*
X135928571Y-11464286D01*
X135866667Y-11526190D01*
X135742857Y-11588095D01*
X135371429Y-11588095D01*
X135247619Y-11526190D01*
X135185714Y-11464286D01*
D10*
D11*
X185866667Y-10721429D02*
X185866667Y-11588095D01*
X185557143Y-10226190D02*
X185247619Y-11154762D01*
X186052381Y-11154762D01*
D10*
D11*
X60000000Y-187999600D02*
X60000000Y-189999600D01*
D10*
D11*
X110000000Y-187999600D02*
X110000000Y-189999600D01*
D10*
D11*
X160000000Y-187999600D02*
X160000000Y-189999600D01*
D10*
D11*
X35990476Y-189587695D02*
X35247619Y-189587695D01*
X35619048Y-189587695D02*
X35619048Y-188287695D01*
X35495238Y-188473410D01*
X35371429Y-188597219D01*
X35247619Y-188659124D01*
D10*
D11*
X85247619Y-188411505D02*
X85309524Y-188349600D01*
X85433333Y-188287695D01*
X85742857Y-188287695D01*
X85866667Y-188349600D01*
X85928571Y-188411505D01*
X85990476Y-188535314D01*
X85990476Y-188659124D01*
X85928571Y-188844838D01*
X85185714Y-189587695D01*
X85990476Y-189587695D01*
D10*
D11*
X135185714Y-188287695D02*
X135990476Y-188287695D01*
X135557143Y-188782933D01*
X135742857Y-188782933D01*
X135866667Y-188844838D01*
X135928571Y-188906743D01*
X135990476Y-189030552D01*
X135990476Y-189340076D01*
X135928571Y-189463886D01*
X135866667Y-189525790D01*
X135742857Y-189587695D01*
X135371429Y-189587695D01*
X135247619Y-189525790D01*
X135185714Y-189463886D01*
D10*
D11*
X185866667Y-188721029D02*
X185866667Y-189587695D01*
X185557143Y-188225790D02*
X185247619Y-189154362D01*
X186052381Y-189154362D01*
D10*
D11*
X10000000Y-60000000D02*
X12000000Y-60000000D01*
D10*
D11*
X10000000Y-110000000D02*
X12000000Y-110000000D01*
D10*
D11*
X10000000Y-160000000D02*
X12000000Y-160000000D01*
D10*
D11*
X10690476Y-35216667D02*
X11309524Y-35216667D01*
X10566667Y-35588095D02*
X11000000Y-34288095D01*
X11433333Y-35588095D01*
D10*
D11*
X11092857Y-84907143D02*
X11278571Y-84969048D01*
X11340476Y-85030952D01*
X11402381Y-85154762D01*
X11402381Y-85340476D01*
X11340476Y-85464286D01*
X11278571Y-85526190D01*
X11154762Y-85588095D01*
X10659524Y-85588095D01*
X10659524Y-84288095D01*
X11092857Y-84288095D01*
X11216667Y-84350000D01*
X11278571Y-84411905D01*
X11340476Y-84535714D01*
X11340476Y-84659524D01*
X11278571Y-84783333D01*
X11216667Y-84845238D01*
X11092857Y-84907143D01*
X10659524Y-84907143D01*
D10*
D11*
X11402381Y-135464286D02*
X11340476Y-135526190D01*
X11154762Y-135588095D01*
X11030952Y-135588095D01*
X10845238Y-135526190D01*
X10721429Y-135402381D01*
X10659524Y-135278571D01*
X10597619Y-135030952D01*
X10597619Y-134845238D01*
X10659524Y-134597619D01*
X10721429Y-134473810D01*
X10845238Y-134350000D01*
X11030952Y-134288095D01*
X11154762Y-134288095D01*
X11340476Y-134350000D01*
X11402381Y-134411905D01*
D10*
D11*
X10659524Y-185588095D02*
X10659524Y-184288095D01*
X10969048Y-184288095D01*
X11154762Y-184350000D01*
X11278571Y-184473810D01*
X11340476Y-184597619D01*
X11402381Y-184845238D01*
X11402381Y-185030952D01*
X11340476Y-185278571D01*
X11278571Y-185402381D01*
X11154762Y-185526190D01*
X10969048Y-185588095D01*
X10659524Y-185588095D01*
D10*
D11*
X189999600Y-60000000D02*
X187999600Y-60000000D01*
D10*
D11*
X189999600Y-110000000D02*
X187999600Y-110000000D01*
D10*
D11*
X189999600Y-160000000D02*
X187999600Y-160000000D01*
D10*
D11*
X188690076Y-35216667D02*
X189309124Y-35216667D01*
X188566267Y-35588095D02*
X188999600Y-34288095D01*
X189432933Y-35588095D01*
D10*
D11*
X189092457Y-84907143D02*
X189278171Y-84969048D01*
X189340076Y-85030952D01*
X189401981Y-85154762D01*
X189401981Y-85340476D01*
X189340076Y-85464286D01*
X189278171Y-85526190D01*
X189154362Y-85588095D01*
X188659124Y-85588095D01*
X188659124Y-84288095D01*
X189092457Y-84288095D01*
X189216267Y-84350000D01*
X189278171Y-84411905D01*
X189340076Y-84535714D01*
X189340076Y-84659524D01*
X189278171Y-84783333D01*
X189216267Y-84845238D01*
X189092457Y-84907143D01*
X188659124Y-84907143D01*
D10*
D11*
X189401981Y-135464286D02*
X189340076Y-135526190D01*
X189154362Y-135588095D01*
X189030552Y-135588095D01*
X188844838Y-135526190D01*
X188721029Y-135402381D01*
X188659124Y-135278571D01*
X188597219Y-135030952D01*
X188597219Y-134845238D01*
X188659124Y-134597619D01*
X188721029Y-134473810D01*
X188844838Y-134350000D01*
X189030552Y-134288095D01*
X189154362Y-134288095D01*
X189340076Y-134350000D01*
X189401981Y-134411905D01*
D10*
D11*
X188659124Y-185588095D02*
X188659124Y-184288095D01*
X188968648Y-184288095D01*
X189154362Y-184350000D01*
X189278171Y-184473810D01*
X189340076Y-184597619D01*
X189401981Y-184845238D01*
X189401981Y-185030952D01*
X189340076Y-185278571D01*
X189278171Y-185402381D01*
X189154362Y-185526190D01*
X188968648Y-185588095D01*
X188659124Y-185588095D01*
D10*
D11*
X103356743Y-183778171D02*
X103356743Y-182278171D01*
X103713886Y-182278171D01*
X103928171Y-182349600D01*
X104071029Y-182492457D01*
X104142457Y-182635314D01*
X104213886Y-182921029D01*
X104213886Y-183135314D01*
X104142457Y-183421029D01*
X104071029Y-183563886D01*
X103928171Y-183706743D01*
X103713886Y-183778171D01*
X103356743Y-183778171D01*
X105499600Y-183778171D02*
X105499600Y-182992457D01*
X105428171Y-182849600D01*
X105285314Y-182778171D01*
X104999600Y-182778171D01*
X104856743Y-182849600D01*
X105499600Y-183706743D02*
X105356743Y-183778171D01*
X104999600Y-183778171D01*
X104856743Y-183706743D01*
X104785314Y-183563886D01*
X104785314Y-183421029D01*
X104856743Y-183278171D01*
X104999600Y-183206743D01*
X105356743Y-183206743D01*
X105499600Y-183135314D01*
X105999600Y-182778171D02*
X106571029Y-182778171D01*
X106213886Y-182278171D02*
X106213886Y-183563886D01*
X106285314Y-183706743D01*
X106428172Y-183778171D01*
X106571029Y-183778171D01*
X107642457Y-183706743D02*
X107499600Y-183778171D01*
X107213886Y-183778171D01*
X107071029Y-183706743D01*
X106999600Y-183563886D01*
X106999600Y-182992457D01*
X107071029Y-182849600D01*
X107213886Y-182778171D01*
X107499600Y-182778171D01*
X107642457Y-182849600D01*
X107713886Y-182992457D01*
X107713886Y-183135314D01*
X106999600Y-183278171D01*
X108356743Y-183635314D02*
X108428171Y-183706743D01*
X108356743Y-183778171D01*
X108285314Y-183706743D01*
X108356743Y-183635314D01*
X108356743Y-183778171D01*
X108356743Y-182849600D02*
X108428171Y-182921029D01*
X108356743Y-182992457D01*
X108285314Y-182921029D01*
X108356743Y-182849600D01*
X108356743Y-182992457D01*
D10*
D11*
X79999600Y-184499600D02*
X187999600Y-184499600D01*
D10*
D11*
X81356743Y-186578171D02*
X81356743Y-185078171D01*
X82213886Y-186578171D02*
X81571029Y-185721029D01*
X82213886Y-185078171D02*
X81356743Y-185935314D01*
X82856743Y-186578171D02*
X82856743Y-185578171D01*
X82856743Y-185078171D02*
X82785314Y-185149600D01*
X82856743Y-185221029D01*
X82928171Y-185149600D01*
X82856743Y-185078171D01*
X82856743Y-185221029D01*
X84428172Y-186435314D02*
X84356743Y-186506743D01*
X84142457Y-186578171D01*
X83999600Y-186578171D01*
X83785315Y-186506743D01*
X83642457Y-186363886D01*
X83571029Y-186221029D01*
X83499600Y-185935314D01*
X83499600Y-185721029D01*
X83571029Y-185435314D01*
X83642457Y-185292457D01*
X83785315Y-185149600D01*
X83999600Y-185078171D01*
X84142457Y-185078171D01*
X84356743Y-185149600D01*
X84428172Y-185221029D01*
X85713886Y-186578171D02*
X85713886Y-185792457D01*
X85642457Y-185649600D01*
X85499600Y-185578171D01*
X85213886Y-185578171D01*
X85071029Y-185649600D01*
X85713886Y-186506743D02*
X85571029Y-186578171D01*
X85213886Y-186578171D01*
X85071029Y-186506743D01*
X84999600Y-186363886D01*
X84999600Y-186221029D01*
X85071029Y-186078171D01*
X85213886Y-186006743D01*
X85571029Y-186006743D01*
X85713886Y-185935314D01*
X87071029Y-186578171D02*
X87071029Y-185078171D01*
X87071029Y-186506743D02*
X86928172Y-186578171D01*
X86642458Y-186578171D01*
X86499600Y-186506743D01*
X86428172Y-186435314D01*
X86356743Y-186292457D01*
X86356743Y-185863886D01*
X86428172Y-185721029D01*
X86499600Y-185649600D01*
X86642458Y-185578171D01*
X86928172Y-185578171D01*
X87071029Y-185649600D01*
X88928172Y-185792457D02*
X89428172Y-185792457D01*
X89642458Y-186578171D02*
X88928172Y-186578171D01*
X88928172Y-185078171D01*
X89642458Y-185078171D01*
X90285315Y-186435314D02*
X90356743Y-186506743D01*
X90285315Y-186578171D01*
X90213886Y-186506743D01*
X90285315Y-186435314D01*
X90285315Y-186578171D01*
X90999601Y-186578171D02*
X90999601Y-185078171D01*
X91356744Y-185078171D01*
X91571029Y-185149600D01*
X91713887Y-185292457D01*
X91785315Y-185435314D01*
X91856744Y-185721029D01*
X91856744Y-185935314D01*
X91785315Y-186221029D01*
X91713887Y-186363886D01*
X91571029Y-186506743D01*
X91356744Y-186578171D01*
X90999601Y-186578171D01*
X92499601Y-186435314D02*
X92571029Y-186506743D01*
X92499601Y-186578171D01*
X92428172Y-186506743D01*
X92499601Y-186435314D01*
X92499601Y-186578171D01*
X93142458Y-186149600D02*
X93856744Y-186149600D01*
X92999601Y-186578171D02*
X93499601Y-185078171D01*
X93999601Y-186578171D01*
X94499601Y-186435314D02*
X94571029Y-186506743D01*
X94499601Y-186578171D01*
X94428172Y-186506743D01*
X94499601Y-186435314D01*
X94499601Y-186578171D01*
X97499601Y-186578171D02*
X97499601Y-185078171D01*
X97642458Y-186006743D02*
X98071029Y-186578171D01*
X98071029Y-185578171D02*
X97499601Y-186149600D01*
X98713887Y-186578171D02*
X98713887Y-185578171D01*
X98713887Y-185078171D02*
X98642458Y-185149600D01*
X98713887Y-185221029D01*
X98785315Y-185149600D01*
X98713887Y-185078171D01*
X98713887Y-185221029D01*
X100071030Y-186506743D02*
X99928173Y-186578171D01*
X99642459Y-186578171D01*
X99499601Y-186506743D01*
X99428173Y-186435314D01*
X99356744Y-186292457D01*
X99356744Y-185863886D01*
X99428173Y-185721029D01*
X99499601Y-185649600D01*
X99642459Y-185578171D01*
X99928173Y-185578171D01*
X100071030Y-185649600D01*
X101356744Y-186578171D02*
X101356744Y-185792457D01*
X101285315Y-185649600D01*
X101142458Y-185578171D01*
X100856744Y-185578171D01*
X100713887Y-185649600D01*
X101356744Y-186506743D02*
X101213887Y-186578171D01*
X100856744Y-186578171D01*
X100713887Y-186506743D01*
X100642458Y-186363886D01*
X100642458Y-186221029D01*
X100713887Y-186078171D01*
X100856744Y-186006743D01*
X101213887Y-186006743D01*
X101356744Y-185935314D01*
X102713887Y-186578171D02*
X102713887Y-185078171D01*
X102713887Y-186506743D02*
X102571030Y-186578171D01*
X102285316Y-186578171D01*
X102142458Y-186506743D01*
X102071030Y-186435314D01*
X101999601Y-186292457D01*
X101999601Y-185863886D01*
X102071030Y-185721029D01*
X102142458Y-185649600D01*
X102285316Y-185578171D01*
X102571030Y-185578171D01*
X102713887Y-185649600D01*
X105213887Y-185578171D02*
X105213887Y-186578171D01*
X104856744Y-185006743D02*
X104499601Y-186078171D01*
X105428173Y-186078171D01*
X105999601Y-186435314D02*
X106071029Y-186506743D01*
X105999601Y-186578171D01*
X105928172Y-186506743D01*
X105999601Y-186435314D01*
X105999601Y-186578171D01*
X106999601Y-185078171D02*
X107142458Y-185078171D01*
X107285315Y-185149600D01*
X107356744Y-185221029D01*
X107428173Y-185363886D01*
X107499601Y-185649600D01*
X107499601Y-186006743D01*
X107428173Y-186292457D01*
X107356744Y-186435314D01*
X107285315Y-186506743D01*
X107142458Y-186578171D01*
X106999601Y-186578171D01*
X106856744Y-186506743D01*
X106785315Y-186435314D01*
X106713887Y-186292457D01*
X106642458Y-186006743D01*
X106642458Y-185649600D01*
X106713887Y-185363886D01*
X106785315Y-185221029D01*
X106856744Y-185149600D01*
X106999601Y-185078171D01*
X108142458Y-186435314D02*
X108213886Y-186506743D01*
X108142458Y-186578171D01*
X108071029Y-186506743D01*
X108142458Y-186435314D01*
X108142458Y-186578171D01*
X109571030Y-185078171D02*
X108856744Y-185078171D01*
X108785315Y-185792457D01*
X108856744Y-185721029D01*
X108999601Y-185649600D01*
X109356744Y-185649600D01*
X109499601Y-185721029D01*
X109571030Y-185792457D01*
X109642458Y-185935314D01*
X109642458Y-186292457D01*
X109571030Y-186435314D01*
X109499601Y-186506743D01*
X109356744Y-186578171D01*
X108999601Y-186578171D01*
X108856744Y-186506743D01*
X108785315Y-186435314D01*
D10*
D11*
X79999600Y-181499600D02*
X187999600Y-181499600D01*
D10*
D12*
X167213886Y-183778171D02*
X166713886Y-183063886D01*
X166356743Y-183778171D02*
X166356743Y-182278171D01*
X166928171Y-182278171D01*
X167071029Y-182349600D01*
X167142457Y-182421029D01*
X167213886Y-182563886D01*
X167213886Y-182778171D01*
X167142457Y-182921029D01*
X167071029Y-182992457D01*
X166928171Y-183063886D01*
X166356743Y-183063886D01*
X168428171Y-183706743D02*
X168285314Y-183778171D01*
X167999600Y-183778171D01*
X167856743Y-183706743D01*
X167785314Y-183563886D01*
X167785314Y-182992457D01*
X167856743Y-182849600D01*
X167999600Y-182778171D01*
X168285314Y-182778171D01*
X168428171Y-182849600D01*
X168499600Y-182992457D01*
X168499600Y-183135314D01*
X167785314Y-183278171D01*
X168999600Y-182778171D02*
X169356743Y-183778171D01*
X169713885Y-182778171D01*
X170285314Y-183635314D02*
X170356742Y-183706743D01*
X170285314Y-183778171D01*
X170213885Y-183706743D01*
X170285314Y-183635314D01*
X170285314Y-183778171D01*
X170285314Y-182849600D02*
X170356742Y-182921029D01*
X170285314Y-182992457D01*
X170213885Y-182921029D01*
X170285314Y-182849600D01*
X170285314Y-182992457D01*
D10*
D11*
X81285314Y-183706743D02*
X81499600Y-183778171D01*
X81856743Y-183778171D01*
X81999600Y-183706743D01*
X82071029Y-183635314D01*
X82142457Y-183492457D01*
X82142457Y-183349600D01*
X82071029Y-183206743D01*
X81999600Y-183135314D01*
X81856743Y-183063886D01*
X81571029Y-182992457D01*
X81428171Y-182921029D01*
X81356743Y-182849600D01*
X81285314Y-182706743D01*
X81285314Y-182563886D01*
X81356743Y-182421029D01*
X81428171Y-182349600D01*
X81571029Y-182278171D01*
X81928171Y-182278171D01*
X82142457Y-182349600D01*
X82785314Y-183778171D02*
X82785314Y-182778171D01*
X82785314Y-182278171D02*
X82713885Y-182349600D01*
X82785314Y-182421029D01*
X82856742Y-182349600D01*
X82785314Y-182278171D01*
X82785314Y-182421029D01*
X83356743Y-182778171D02*
X84142457Y-182778171D01*
X83356743Y-183778171D01*
X84142457Y-183778171D01*
X85285314Y-183706743D02*
X85142457Y-183778171D01*
X84856743Y-183778171D01*
X84713886Y-183706743D01*
X84642457Y-183563886D01*
X84642457Y-182992457D01*
X84713886Y-182849600D01*
X84856743Y-182778171D01*
X85142457Y-182778171D01*
X85285314Y-182849600D01*
X85356743Y-182992457D01*
X85356743Y-183135314D01*
X84642457Y-183278171D01*
X85999600Y-183635314D02*
X86071028Y-183706743D01*
X85999600Y-183778171D01*
X85928171Y-183706743D01*
X85999600Y-183635314D01*
X85999600Y-183778171D01*
X85999600Y-182849600D02*
X86071028Y-182921029D01*
X85999600Y-182992457D01*
X85928171Y-182921029D01*
X85999600Y-182849600D01*
X85999600Y-182992457D01*
X87856743Y-182278171D02*
X87856743Y-183492457D01*
X87928171Y-183635314D01*
X87999600Y-183706743D01*
X88142457Y-183778171D01*
X88428171Y-183778171D01*
X88571029Y-183706743D01*
X88642457Y-183635314D01*
X88713886Y-183492457D01*
X88713886Y-182278171D01*
X89356743Y-183706743D02*
X89499600Y-183778171D01*
X89785315Y-183778171D01*
X89928172Y-183706743D01*
X89999600Y-183563886D01*
X89999600Y-183492457D01*
X89928172Y-183349600D01*
X89785315Y-183278171D01*
X89571029Y-183278171D01*
X89428172Y-183206743D01*
X89356743Y-183063886D01*
X89356743Y-182992457D01*
X89428172Y-182849600D01*
X89571029Y-182778171D01*
X89785315Y-182778171D01*
X89928172Y-182849600D01*
X91213886Y-183706743D02*
X91071029Y-183778171D01*
X90785315Y-183778171D01*
X90642458Y-183706743D01*
X90571029Y-183563886D01*
X90571029Y-182992457D01*
X90642458Y-182849600D01*
X90785315Y-182778171D01*
X91071029Y-182778171D01*
X91213886Y-182849600D01*
X91285315Y-182992457D01*
X91285315Y-183135314D01*
X90571029Y-183278171D01*
X91928172Y-183778171D02*
X91928172Y-182778171D01*
X91928172Y-183063886D02*
X91999600Y-182921029D01*
X92071029Y-182849600D01*
X92213886Y-182778171D01*
X92356743Y-182778171D01*
D10*
D11*
X166356743Y-186578171D02*
X166356743Y-185078171D01*
X167713886Y-186578171D02*
X167713886Y-185078171D01*
X167713886Y-186506743D02*
X167571029Y-186578171D01*
X167285315Y-186578171D01*
X167142457Y-186506743D01*
X167071029Y-186435314D01*
X166999600Y-186292457D01*
X166999600Y-185863886D01*
X167071029Y-185721029D01*
X167142457Y-185649600D01*
X167285315Y-185578171D01*
X167571029Y-185578171D01*
X167713886Y-185649600D01*
X168428172Y-186435314D02*
X168499600Y-186506743D01*
X168428172Y-186578171D01*
X168356743Y-186506743D01*
X168428172Y-186435314D01*
X168428172Y-186578171D01*
X168428172Y-185649600D02*
X168499600Y-185721029D01*
X168428172Y-185792457D01*
X168356743Y-185721029D01*
X168428172Y-185649600D01*
X168428172Y-185792457D01*
X171071029Y-186578171D02*
X170213886Y-186578171D01*
X170642458Y-186578171D02*
X170642458Y-185078171D01*
X170499601Y-185292457D01*
X170356743Y-185435314D01*
X170213886Y-185506743D01*
X172785314Y-185006743D02*
X171499600Y-186935314D01*
X174071029Y-186578171D02*
X173213886Y-186578171D01*
X173642458Y-186578171D02*
X173642458Y-185078171D01*
X173499601Y-185292457D01*
X173356743Y-185435314D01*
X173213886Y-185506743D01*
D10*
D11*
X79999600Y-177499600D02*
X187999600Y-177499600D01*
D10*
D13*
X81451981Y-178204362D02*
X82594838Y-178204362D01*
X81773410Y-180204362D02*
X82023410Y-178204362D01*
X83011505Y-180204362D02*
X83178171Y-178871029D01*
X83261505Y-178204362D02*
X83154362Y-178299600D01*
X83237695Y-178394838D01*
X83344839Y-178299600D01*
X83261505Y-178204362D01*
X83237695Y-178394838D01*
X83844838Y-178871029D02*
X84606743Y-178871029D01*
X84213886Y-178204362D02*
X83999600Y-179918648D01*
X84071030Y-180109124D01*
X84249601Y-180204362D01*
X84440077Y-180204362D01*
X85392458Y-180204362D02*
X85213887Y-180109124D01*
X85142457Y-179918648D01*
X85356743Y-178204362D01*
X86928172Y-180109124D02*
X86725791Y-180204362D01*
X86344839Y-180204362D01*
X86166267Y-180109124D01*
X86094838Y-179918648D01*
X86190076Y-179156743D01*
X86309124Y-178966267D01*
X86511505Y-178871029D01*
X86892457Y-178871029D01*
X87071029Y-178966267D01*
X87142457Y-179156743D01*
X87118648Y-179347219D01*
X86142457Y-179537695D01*
X87892457Y-180013886D02*
X87975792Y-180109124D01*
X87868648Y-180204362D01*
X87785315Y-180109124D01*
X87892457Y-180013886D01*
X87868648Y-180204362D01*
X88023410Y-178966267D02*
X88106744Y-179061505D01*
X87999600Y-179156743D01*
X87916267Y-179061505D01*
X88023410Y-178966267D01*
X87999600Y-179156743D01*
D10*
D11*
X81856743Y-175592457D02*
X81356743Y-175592457D01*
X81356743Y-176378171D02*
X81356743Y-174878171D01*
X82071029Y-174878171D01*
X82642457Y-176378171D02*
X82642457Y-175378171D01*
X82642457Y-174878171D02*
X82571028Y-174949600D01*
X82642457Y-175021029D01*
X82713885Y-174949600D01*
X82642457Y-174878171D01*
X82642457Y-175021029D01*
X83571029Y-176378171D02*
X83428171Y-176306743D01*
X83356743Y-176163886D01*
X83356743Y-174878171D01*
X84713885Y-176306743D02*
X84571028Y-176378171D01*
X84285314Y-176378171D01*
X84142457Y-176306743D01*
X84071028Y-176163886D01*
X84071028Y-175592457D01*
X84142457Y-175449600D01*
X84285314Y-175378171D01*
X84571028Y-175378171D01*
X84713885Y-175449600D01*
X84785314Y-175592457D01*
X84785314Y-175735314D01*
X84071028Y-175878171D01*
X85428171Y-176235314D02*
X85499599Y-176306743D01*
X85428171Y-176378171D01*
X85356742Y-176306743D01*
X85428171Y-176235314D01*
X85428171Y-176378171D01*
X85428171Y-175449600D02*
X85499599Y-175521029D01*
X85428171Y-175592457D01*
X85356742Y-175521029D01*
X85428171Y-175449600D01*
X85428171Y-175592457D01*
X87285314Y-176378171D02*
X87285314Y-174878171D01*
X87285314Y-175592457D02*
X88142457Y-175592457D01*
X88142457Y-176378171D02*
X88142457Y-174878171D01*
X88856743Y-176378171D02*
X88856743Y-175378171D01*
X88856743Y-174878171D02*
X88785314Y-174949600D01*
X88856743Y-175021029D01*
X88928171Y-174949600D01*
X88856743Y-174878171D01*
X88856743Y-175021029D01*
X90213886Y-175378171D02*
X90213886Y-176592457D01*
X90142457Y-176735314D01*
X90071029Y-176806743D01*
X89928172Y-176878171D01*
X89713886Y-176878171D01*
X89571029Y-176806743D01*
X90213886Y-176306743D02*
X90071029Y-176378171D01*
X89785315Y-176378171D01*
X89642457Y-176306743D01*
X89571029Y-176235314D01*
X89499600Y-176092457D01*
X89499600Y-175663886D01*
X89571029Y-175521029D01*
X89642457Y-175449600D01*
X89785315Y-175378171D01*
X90071029Y-175378171D01*
X90213886Y-175449600D01*
X90928172Y-176378171D02*
X90928172Y-174878171D01*
X91571029Y-176378171D02*
X91571029Y-175592457D01*
X91499600Y-175449600D01*
X91356743Y-175378171D01*
X91142458Y-175378171D01*
X90999600Y-175449600D01*
X90928172Y-175521029D01*
X93428172Y-176378171D02*
X93428172Y-174878171D01*
X93999600Y-174878171D01*
X94142458Y-174949600D01*
X94213886Y-175021029D01*
X94285315Y-175163886D01*
X94285315Y-175378171D01*
X94213886Y-175521029D01*
X94142458Y-175592457D01*
X93999600Y-175663886D01*
X93428172Y-175663886D01*
X95142458Y-176378171D02*
X94999600Y-176306743D01*
X94928172Y-176235314D01*
X94856743Y-176092457D01*
X94856743Y-175663886D01*
X94928172Y-175521029D01*
X94999600Y-175449600D01*
X95142458Y-175378171D01*
X95356743Y-175378171D01*
X95499600Y-175449600D01*
X95571029Y-175521029D01*
X95642458Y-175663886D01*
X95642458Y-176092457D01*
X95571029Y-176235314D01*
X95499600Y-176306743D01*
X95356743Y-176378171D01*
X95142458Y-176378171D01*
X96142458Y-175378171D02*
X96428172Y-176378171D01*
X96713886Y-175663886D01*
X96999601Y-176378171D01*
X97285315Y-175378171D01*
X98428172Y-176306743D02*
X98285315Y-176378171D01*
X97999601Y-176378171D01*
X97856744Y-176306743D01*
X97785315Y-176163886D01*
X97785315Y-175592457D01*
X97856744Y-175449600D01*
X97999601Y-175378171D01*
X98285315Y-175378171D01*
X98428172Y-175449600D01*
X98499601Y-175592457D01*
X98499601Y-175735314D01*
X97785315Y-175878171D01*
X99142458Y-176378171D02*
X99142458Y-175378171D01*
X99142458Y-175663886D02*
X99213886Y-175521029D01*
X99285315Y-175449600D01*
X99428172Y-175378171D01*
X99571029Y-175378171D01*
X101142457Y-176306743D02*
X101356743Y-176378171D01*
X101713886Y-176378171D01*
X101856743Y-176306743D01*
X101928172Y-176235314D01*
X101999600Y-176092457D01*
X101999600Y-175949600D01*
X101928172Y-175806743D01*
X101856743Y-175735314D01*
X101713886Y-175663886D01*
X101428172Y-175592457D01*
X101285314Y-175521029D01*
X101213886Y-175449600D01*
X101142457Y-175306743D01*
X101142457Y-175163886D01*
X101213886Y-175021029D01*
X101285314Y-174949600D01*
X101428172Y-174878171D01*
X101785314Y-174878171D01*
X101999600Y-174949600D01*
X102499600Y-174878171D02*
X102856743Y-176378171D01*
X103142457Y-175306743D01*
X103428171Y-176378171D01*
X103785314Y-174878171D01*
X104356743Y-176235314D02*
X104428171Y-176306743D01*
X104356743Y-176378171D01*
X104285314Y-176306743D01*
X104356743Y-176235314D01*
X104356743Y-176378171D01*
X105071029Y-176378171D02*
X105071029Y-174878171D01*
X105213886Y-175806743D02*
X105642457Y-176378171D01*
X105642457Y-175378171D02*
X105071029Y-175949600D01*
X106285315Y-176378171D02*
X106285315Y-175378171D01*
X106285315Y-174878171D02*
X106213886Y-174949600D01*
X106285315Y-175021029D01*
X106356743Y-174949600D01*
X106285315Y-174878171D01*
X106285315Y-175021029D01*
X107642458Y-176306743D02*
X107499601Y-176378171D01*
X107213887Y-176378171D01*
X107071029Y-176306743D01*
X106999601Y-176235314D01*
X106928172Y-176092457D01*
X106928172Y-175663886D01*
X106999601Y-175521029D01*
X107071029Y-175449600D01*
X107213887Y-175378171D01*
X107499601Y-175378171D01*
X107642458Y-175449600D01*
X108928172Y-176378171D02*
X108928172Y-175592457D01*
X108856743Y-175449600D01*
X108713886Y-175378171D01*
X108428172Y-175378171D01*
X108285315Y-175449600D01*
X108928172Y-176306743D02*
X108785315Y-176378171D01*
X108428172Y-176378171D01*
X108285315Y-176306743D01*
X108213886Y-176163886D01*
X108213886Y-176021029D01*
X108285315Y-175878171D01*
X108428172Y-175806743D01*
X108785315Y-175806743D01*
X108928172Y-175735314D01*
X110285315Y-176378171D02*
X110285315Y-174878171D01*
X110285315Y-176306743D02*
X110142458Y-176378171D01*
X109856744Y-176378171D01*
X109713886Y-176306743D01*
X109642458Y-176235314D01*
X109571029Y-176092457D01*
X109571029Y-175663886D01*
X109642458Y-175521029D01*
X109713886Y-175449600D01*
X109856744Y-175378171D01*
X110142458Y-175378171D01*
X110285315Y-175449600D01*
X110642458Y-176521029D02*
X111785315Y-176521029D01*
X112142458Y-175378171D02*
X112142458Y-176878171D01*
X112142458Y-175449600D02*
X112285315Y-175378171D01*
X112571029Y-175378171D01*
X112713886Y-175449600D01*
X112785315Y-175521029D01*
X112856744Y-175663886D01*
X112856744Y-176092457D01*
X112785315Y-176235314D01*
X112713886Y-176306743D01*
X112571029Y-176378171D01*
X112285315Y-176378171D01*
X112142458Y-176306743D01*
X114142458Y-176306743D02*
X113999601Y-176378171D01*
X113713887Y-176378171D01*
X113571029Y-176306743D01*
X113499601Y-176235314D01*
X113428172Y-176092457D01*
X113428172Y-175663886D01*
X113499601Y-175521029D01*
X113571029Y-175449600D01*
X113713887Y-175378171D01*
X113999601Y-175378171D01*
X114142458Y-175449600D01*
X114785315Y-176378171D02*
X114785315Y-174878171D01*
X114785315Y-175449600D02*
X114928172Y-175378171D01*
X115213886Y-175378171D01*
X115356743Y-175449600D01*
X115428172Y-175521029D01*
X115499601Y-175663886D01*
X115499601Y-176092457D01*
X115428172Y-176235314D01*
X115356743Y-176306743D01*
X115213886Y-176378171D01*
X114928172Y-176378171D01*
X114785315Y-176306743D01*
D10*
D11*
X79999600Y-171499600D02*
X187999600Y-171499600D01*
D10*
D11*
X81285314Y-173606743D02*
X81499600Y-173678171D01*
X81856743Y-173678171D01*
X81999600Y-173606743D01*
X82071029Y-173535314D01*
X82142457Y-173392457D01*
X82142457Y-173249600D01*
X82071029Y-173106743D01*
X81999600Y-173035314D01*
X81856743Y-172963886D01*
X81571029Y-172892457D01*
X81428171Y-172821029D01*
X81356743Y-172749600D01*
X81285314Y-172606743D01*
X81285314Y-172463886D01*
X81356743Y-172321029D01*
X81428171Y-172249600D01*
X81571029Y-172178171D01*
X81928171Y-172178171D01*
X82142457Y-172249600D01*
X82785314Y-173678171D02*
X82785314Y-172178171D01*
X83428171Y-173678171D02*
X83428171Y-172892457D01*
X83356742Y-172749600D01*
X83213885Y-172678171D01*
X82999600Y-172678171D01*
X82856742Y-172749600D01*
X82785314Y-172821029D01*
X84713885Y-173606743D02*
X84571028Y-173678171D01*
X84285314Y-173678171D01*
X84142457Y-173606743D01*
X84071028Y-173463886D01*
X84071028Y-172892457D01*
X84142457Y-172749600D01*
X84285314Y-172678171D01*
X84571028Y-172678171D01*
X84713885Y-172749600D01*
X84785314Y-172892457D01*
X84785314Y-173035314D01*
X84071028Y-173178171D01*
X85999599Y-173606743D02*
X85856742Y-173678171D01*
X85571028Y-173678171D01*
X85428171Y-173606743D01*
X85356742Y-173463886D01*
X85356742Y-172892457D01*
X85428171Y-172749600D01*
X85571028Y-172678171D01*
X85856742Y-172678171D01*
X85999599Y-172749600D01*
X86071028Y-172892457D01*
X86071028Y-173035314D01*
X85356742Y-173178171D01*
X86499599Y-172678171D02*
X87071028Y-172678171D01*
X86713885Y-172178171D02*
X86713885Y-173463886D01*
X86785313Y-173606743D01*
X86928171Y-173678171D01*
X87071028Y-173678171D01*
X87571028Y-173535314D02*
X87642456Y-173606743D01*
X87571028Y-173678171D01*
X87499599Y-173606743D01*
X87571028Y-173535314D01*
X87571028Y-173678171D01*
X87571028Y-172749600D02*
X87642456Y-172821029D01*
X87571028Y-172892457D01*
X87499599Y-172821029D01*
X87571028Y-172749600D01*
X87571028Y-172892457D01*
D10*
D11*
X99999600Y-181499600D02*
X99999600Y-184499600D01*
D10*
D11*
X163999600Y-181499600D02*
X163999600Y-187999600D01*
X68766666Y-134900000D02*
G75*
G03X68766666Y-134900000I-1666666J0D01*
G01*
X64600000Y-134900000D02*
X69600000Y-134900000D01*
X67100000Y-132400000D02*
X67100000Y-137400000D01*
X115100000Y-134900000D02*
X67100000Y-134900000D01*
X115100000Y-86900000D02*
X115100000Y-134900000D01*
X113100000Y-86900000D02*
X115100000Y-86900000D01*
X67100000Y-86900000D02*
X113100000Y-86900000D01*
X67100000Y-134900000D02*
X67100000Y-86900000D01*
X68766666Y-134900000D02*
G75*
G03X68766666Y-134900000I-1666666J0D01*
G01*
X64600000Y-134900000D02*
X69600000Y-134900000D01*
X67100000Y-132400000D02*
X67100000Y-137400000D01*
X70292857Y-116290178D02*
X70221429Y-116084820D01*
X70221429Y-115727677D01*
X70292857Y-115575892D01*
X70364286Y-115495534D01*
X70507143Y-115406249D01*
X70650000Y-115388392D01*
X70792857Y-115441963D01*
X70864286Y-115504463D01*
X70935714Y-115638392D01*
X71007143Y-115915177D01*
X71078571Y-116049107D01*
X71150000Y-116111606D01*
X71292857Y-116165178D01*
X71435714Y-116147321D01*
X71578571Y-116058035D01*
X71650000Y-115977678D01*
X71721429Y-115825891D01*
X71721429Y-115468749D01*
X71650000Y-115263392D01*
X70221429Y-114799106D02*
X71221429Y-114674106D01*
X71078571Y-114691964D02*
X71150000Y-114611607D01*
X71221429Y-114459820D01*
X71221429Y-114245535D01*
X71150000Y-114111607D01*
X71007143Y-114058035D01*
X70221429Y-114156249D01*
X71007143Y-114058035D02*
X71150000Y-113968749D01*
X71221429Y-113816963D01*
X71221429Y-113602678D01*
X71150000Y-113468749D01*
X71007143Y-113415178D01*
X70221429Y-113513392D01*
X70221429Y-112156249D02*
X71007143Y-112058035D01*
X71150000Y-112111607D01*
X71221429Y-112245535D01*
X71221429Y-112531249D01*
X71150000Y-112683035D01*
X70292857Y-112147321D02*
X70221429Y-112299106D01*
X70221429Y-112656249D01*
X70292857Y-112790178D01*
X70435714Y-112843750D01*
X70578571Y-112825893D01*
X70721429Y-112736606D01*
X70792857Y-112584821D01*
X70792857Y-112227678D01*
X70864286Y-112075892D01*
X70221429Y-111227677D02*
X70292857Y-111361607D01*
X70435714Y-111415178D01*
X71721429Y-111254463D01*
X70221429Y-110441963D02*
X70292857Y-110575893D01*
X70435714Y-110629464D01*
X71721429Y-110468749D01*
X70221429Y-108727678D02*
X71721429Y-108540178D01*
X71721429Y-108183035D01*
X71650000Y-107977679D01*
X71507143Y-107852678D01*
X71364286Y-107799107D01*
X71078571Y-107763393D01*
X70864286Y-107790178D01*
X70578571Y-107897322D01*
X70435714Y-107986607D01*
X70292857Y-108147322D01*
X70221429Y-108370535D01*
X70221429Y-108727678D01*
X70221429Y-107227678D02*
X71221429Y-107102678D01*
X70935714Y-107138393D02*
X71078571Y-107049108D01*
X71150000Y-106968750D01*
X71221429Y-106816964D01*
X71221429Y-106674107D01*
X70221429Y-106299107D02*
X71221429Y-106174107D01*
X71721429Y-106111607D02*
X71650000Y-106191965D01*
X71578571Y-106129465D01*
X71650000Y-106049108D01*
X71721429Y-106111607D01*
X71578571Y-106129465D01*
X71221429Y-105602678D02*
X70221429Y-105370535D01*
X71221429Y-104888393D01*
X70292857Y-103861608D02*
X70221429Y-104013393D01*
X70221429Y-104299107D01*
X70292857Y-104433036D01*
X70435714Y-104486608D01*
X71007143Y-104415179D01*
X71150000Y-104325893D01*
X71221429Y-104174107D01*
X71221429Y-103888393D01*
X71150000Y-103754465D01*
X71007143Y-103700893D01*
X70864286Y-103718750D01*
X70721429Y-104450893D01*
X70221429Y-103156250D02*
X71221429Y-103031250D01*
X70935714Y-103066965D02*
X71078571Y-102977680D01*
X71150000Y-102897322D01*
X71221429Y-102745536D01*
X71221429Y-102602679D01*
D14*
X72795238Y-116603572D02*
X74795238Y-116353572D01*
X74795238Y-115877381D01*
X74700000Y-115603572D01*
X74509524Y-115436905D01*
X74319048Y-115365476D01*
X73938095Y-115317857D01*
X73652381Y-115353571D01*
X73271429Y-115496428D01*
X73080952Y-115615477D01*
X72890476Y-115829762D01*
X72795238Y-116127381D01*
X72795238Y-116603572D01*
X72795238Y-114603572D02*
X74128571Y-114436906D01*
X74795238Y-114353572D02*
X74700000Y-114460715D01*
X74604762Y-114377382D01*
X74700000Y-114270238D01*
X74795238Y-114353572D01*
X74604762Y-114377382D01*
X74128571Y-112627382D02*
X72509524Y-112829763D01*
X72319048Y-112948810D01*
X72223810Y-113055953D01*
X72128571Y-113258334D01*
X72128571Y-113544048D01*
X72223810Y-113722620D01*
X72890476Y-112782143D02*
X72795238Y-112984524D01*
X72795238Y-113365476D01*
X72890476Y-113544047D01*
X72985714Y-113627382D01*
X73176190Y-113698810D01*
X73747619Y-113627382D01*
X73938095Y-113508334D01*
X74033333Y-113401190D01*
X74128571Y-113198810D01*
X74128571Y-112817858D01*
X74033333Y-112639286D01*
X72795238Y-111841667D02*
X74128571Y-111675001D01*
X74795238Y-111591667D02*
X74700000Y-111698810D01*
X74604762Y-111615477D01*
X74700000Y-111508333D01*
X74795238Y-111591667D01*
X74604762Y-111615477D01*
X74128571Y-111008334D02*
X74128571Y-110246429D01*
X74795238Y-110639286D02*
X73080952Y-110853572D01*
X72890476Y-110782142D01*
X72795238Y-110603571D01*
X72795238Y-110413095D01*
X72795238Y-108889286D02*
X73842857Y-108758334D01*
X74033333Y-108829762D01*
X74128571Y-109008334D01*
X74128571Y-109389286D01*
X74033333Y-109591667D01*
X72890476Y-108877381D02*
X72795238Y-109079762D01*
X72795238Y-109555952D01*
X72890476Y-109734524D01*
X73080952Y-109805953D01*
X73271429Y-109782143D01*
X73461905Y-109663096D01*
X73557143Y-109460714D01*
X73557143Y-108984524D01*
X73652381Y-108782143D01*
X72795238Y-107651190D02*
X72890476Y-107829761D01*
X73080952Y-107901191D01*
X74795238Y-107686905D01*
X72890476Y-105448809D02*
X72795238Y-105174999D01*
X72795238Y-104698809D01*
X72890476Y-104496428D01*
X72985714Y-104389286D01*
X73176190Y-104270237D01*
X73366667Y-104246428D01*
X73557143Y-104317857D01*
X73652381Y-104401190D01*
X73747619Y-104579762D01*
X73842857Y-104948809D01*
X73938095Y-105127380D01*
X74033333Y-105210714D01*
X74223810Y-105282143D01*
X74414286Y-105258333D01*
X74604762Y-105139286D01*
X74700000Y-105032142D01*
X74795238Y-104829761D01*
X74795238Y-104353571D01*
X74700000Y-104079761D01*
X74128571Y-102436905D02*
X72128571Y-102686905D01*
X72890476Y-102591666D02*
X72795238Y-102794047D01*
X72795238Y-103174999D01*
X72890476Y-103353570D01*
X72985714Y-103436905D01*
X73176190Y-103508333D01*
X73747619Y-103436905D01*
X73938095Y-103317857D01*
X74033333Y-103210713D01*
X74128571Y-103008333D01*
X74128571Y-102627381D01*
X74033333Y-102448809D01*
X72795238Y-101651190D02*
X74128571Y-101484524D01*
X73747619Y-101532143D02*
X73938095Y-101413094D01*
X74033333Y-101305951D01*
X74128571Y-101103571D01*
X74128571Y-100913095D01*
X74128571Y-100532143D02*
X74128571Y-99770238D01*
X74795238Y-100163095D02*
X73080952Y-100377381D01*
X72890476Y-100305951D01*
X72795238Y-100127380D01*
X72795238Y-99936904D01*
D15*
X102757143Y-88878571D02*
X102257143Y-90378571D01*
X101757143Y-88878571D01*
X100685715Y-90307143D02*
X100828572Y-90378571D01*
X101114286Y-90378571D01*
X101257143Y-90307143D01*
X101328572Y-90164286D01*
X101328572Y-89592857D01*
X101257143Y-89450000D01*
X101114286Y-89378571D01*
X100828572Y-89378571D01*
X100685715Y-89450000D01*
X100614286Y-89592857D01*
X100614286Y-89735714D01*
X101328572Y-89878571D01*
X99971429Y-90378571D02*
X99971429Y-89378571D01*
X99971429Y-89664286D02*
X99900001Y-89521429D01*
X99828572Y-89450000D01*
X99685715Y-89378571D01*
X99542858Y-89378571D01*
X97114287Y-90378571D02*
X97971430Y-90378571D01*
X97542858Y-90378571D02*
X97542858Y-88878571D01*
X97685715Y-89092857D01*
X97828573Y-89235714D01*
X97971430Y-89307143D01*
X96471430Y-90235714D02*
X96400002Y-90307143D01*
X96471430Y-90378571D01*
X96542859Y-90307143D01*
X96471430Y-90235714D01*
X96471430Y-90378571D01*
X95042858Y-88878571D02*
X95757144Y-88878571D01*
X95828573Y-89592857D01*
X95757144Y-89521429D01*
X95614287Y-89450000D01*
X95257144Y-89450000D01*
X95114287Y-89521429D01*
X95042858Y-89592857D01*
X94971430Y-89735714D01*
X94971430Y-90092857D01*
X95042858Y-90235714D01*
X95114287Y-90307143D01*
X95257144Y-90378571D01*
X95614287Y-90378571D01*
X95757144Y-90307143D01*
X95828573Y-90235714D01*
D16*
G36*
X86931530Y-105654608D02*
X86893260Y-105238789D01*
X86844030Y-104842799D01*
X86792882Y-104561746D01*
X86720261Y-104342156D01*
X86606612Y-104130555D01*
X86432381Y-103873467D01*
X86353586Y-103763009D01*
X86106404Y-103408436D01*
X85854983Y-103032537D01*
X85647747Y-102707953D01*
X85620781Y-102663743D01*
X85271623Y-102217658D01*
X84810005Y-101815702D01*
X84292801Y-101501905D01*
X83938446Y-101361367D01*
X83500995Y-101266418D01*
X82963492Y-101204803D01*
X82392505Y-101179677D01*
X81854605Y-101194197D01*
X81454651Y-101243605D01*
X81081855Y-101346759D01*
X80672882Y-101504649D01*
X80400844Y-101637953D01*
X80124420Y-101786637D01*
X79954016Y-101856754D01*
X79851055Y-101857851D01*
X79776956Y-101799478D01*
X79772011Y-101793601D01*
X79492331Y-101575609D01*
X79113016Y-101444999D01*
X78827504Y-101417639D01*
X78300022Y-101468281D01*
X77901707Y-101624676D01*
X77623369Y-101895845D01*
X77455823Y-102290809D01*
X77389881Y-102818587D01*
X77389566Y-102829459D01*
X77366958Y-103172541D01*
X77305356Y-103439251D01*
X77180345Y-103710688D01*
X77064034Y-103910732D01*
X76554252Y-104873589D01*
X76098877Y-105983663D01*
X75703829Y-107225932D01*
X75590239Y-107652388D01*
X75512832Y-107971416D01*
X75477193Y-108190866D01*
X75480289Y-108374458D01*
X75519086Y-108585913D01*
X75541260Y-108681342D01*
X75632808Y-108899881D01*
X75799536Y-109170530D01*
X75943735Y-109359407D01*
X76136513Y-109609583D01*
X76285615Y-109842121D01*
X76344931Y-109969232D01*
X76469809Y-110246941D01*
X76679296Y-110590032D01*
X76935850Y-110947108D01*
X77201925Y-111266775D01*
X77439978Y-111497635D01*
X77487343Y-111533131D01*
X77755301Y-111686224D01*
X78037257Y-111761357D01*
X78121175Y-111767468D01*
X78121175Y-111506288D01*
X77688476Y-111364870D01*
X77621336Y-111325970D01*
X77424112Y-111154280D01*
X77189826Y-110878576D01*
X76953348Y-110548141D01*
X76749545Y-110212258D01*
X76613285Y-109920210D01*
X76601017Y-109883833D01*
X76508546Y-109703194D01*
X76341649Y-109463919D01*
X76206808Y-109299338D01*
X75998569Y-109045605D01*
X75856236Y-108814461D01*
X75777960Y-108575325D01*
X75761892Y-108297619D01*
X75806182Y-107950762D01*
X75908983Y-107504174D01*
X76064252Y-106941888D01*
X76230598Y-106413736D01*
X76427970Y-105870812D01*
X76644932Y-105336828D01*
X76870047Y-104835496D01*
X77091876Y-104390528D01*
X77298983Y-104025636D01*
X77479930Y-103764533D01*
X77623280Y-103630930D01*
X77667260Y-103618500D01*
X77723327Y-103548325D01*
X77699706Y-103385667D01*
X77651199Y-103028122D01*
X77673215Y-102640762D01*
X77754995Y-102274475D01*
X77885782Y-101980149D01*
X78030051Y-101822872D01*
X78162646Y-101778855D01*
X78400095Y-101731688D01*
X78569528Y-101707164D01*
X79037291Y-101703248D01*
X79391727Y-101821617D01*
X79629987Y-102061230D01*
X79652793Y-102102221D01*
X79757688Y-102388251D01*
X79748619Y-102665140D01*
X79622413Y-102994068D01*
X79604746Y-103029206D01*
X79520173Y-103228284D01*
X79501908Y-103348432D01*
X79520079Y-103364500D01*
X79557171Y-103447042D01*
X79584513Y-103686637D01*
X79601228Y-104071234D01*
X79606466Y-104549833D01*
X79606466Y-105735167D01*
X78995534Y-105735167D01*
X79051419Y-106603000D01*
X79085300Y-107104277D01*
X79117166Y-107461047D01*
X79154732Y-107697856D01*
X79205713Y-107839250D01*
X79277822Y-107909774D01*
X79378774Y-107933976D01*
X79470512Y-107936500D01*
X79665292Y-107962246D01*
X79794201Y-108069672D01*
X79891292Y-108244459D01*
X79992334Y-108581579D01*
X79984913Y-108794792D01*
X79913153Y-108972848D01*
X79766459Y-109033853D01*
X79684406Y-109037167D01*
X79522312Y-109052435D01*
X79453492Y-109131441D01*
X79439571Y-109323983D01*
X79439747Y-109354667D01*
X79455773Y-109700632D01*
X79493974Y-110074004D01*
X79547398Y-110432786D01*
X79609092Y-110734978D01*
X79672104Y-110938581D01*
X79711984Y-110999178D01*
X79760103Y-111054451D01*
X79677780Y-111067870D01*
X79529634Y-111105944D01*
X79292480Y-111203010D01*
X79089796Y-111301406D01*
X78591008Y-111485088D01*
X78121175Y-111506288D01*
X78121175Y-111767468D01*
X78323817Y-111782226D01*
X78651614Y-111808211D01*
X78881392Y-111879231D01*
X79080085Y-112014374D01*
X79352605Y-112186955D01*
X79649532Y-112288713D01*
X79849825Y-112302562D01*
X79849825Y-111996520D01*
X79638312Y-111988210D01*
X79404115Y-111921365D01*
X79205978Y-111814217D01*
X79102647Y-111685000D01*
X79098466Y-111654498D01*
X79156601Y-111644569D01*
X79300801Y-111723074D01*
X79345962Y-111755079D01*
X79627846Y-111891568D01*
X79648231Y-111892161D01*
X79648231Y-111629365D01*
X79501982Y-111573202D01*
X79437133Y-111483442D01*
X79507906Y-111421375D01*
X79601470Y-111407833D01*
X79760237Y-111446193D01*
X79832220Y-111531310D01*
X79784821Y-111613925D01*
X79648231Y-111629365D01*
X79648231Y-111892161D01*
X79809067Y-111896844D01*
X79951663Y-111889697D01*
X79979908Y-111928064D01*
X79849825Y-111996520D01*
X79849825Y-112302562D01*
X79916654Y-112307183D01*
X80072133Y-112249323D01*
X80072133Y-111746500D01*
X80029800Y-111704167D01*
X80072133Y-111661833D01*
X80114466Y-111704167D01*
X80072133Y-111746500D01*
X80072133Y-112249323D01*
X80083443Y-112245114D01*
X80186996Y-112110365D01*
X80186996Y-111561309D01*
X80139592Y-111544273D01*
X80069440Y-111455151D01*
X79965862Y-111306752D01*
X79969126Y-111248439D01*
X80072133Y-111238500D01*
X80174325Y-111310591D01*
X80196440Y-111429000D01*
X80186996Y-111561309D01*
X80186996Y-112110365D01*
X80214590Y-112074458D01*
X80342308Y-111816564D01*
X80431822Y-111550600D01*
X80453133Y-111403425D01*
X80465126Y-111324513D01*
X80524898Y-111302512D01*
X80668142Y-111340490D01*
X80930549Y-111441516D01*
X80939966Y-111445285D01*
X81609381Y-111644840D01*
X82104133Y-111684385D01*
X82104133Y-111420410D01*
X81847166Y-111396882D01*
X81550246Y-111342710D01*
X81242626Y-111267545D01*
X80953555Y-111181036D01*
X80712285Y-111092834D01*
X80548067Y-111012589D01*
X80490153Y-110949951D01*
X80567793Y-110914571D01*
X80570067Y-110914305D01*
X80814000Y-110886444D01*
X80754580Y-110154121D01*
X80713109Y-109679198D01*
X80673975Y-109347971D01*
X80629945Y-109135073D01*
X80573787Y-109015136D01*
X80498267Y-108962794D01*
X80411957Y-108952500D01*
X80273768Y-108920570D01*
X80253921Y-108793141D01*
X80260336Y-108755175D01*
X80252587Y-108550201D01*
X80185683Y-108292896D01*
X80163928Y-108236835D01*
X80069485Y-108006179D01*
X80048493Y-107892662D01*
X80114660Y-107854979D01*
X80281694Y-107851826D01*
X80291701Y-107851833D01*
X80553603Y-107851833D01*
X80498437Y-107026333D01*
X80463649Y-106533952D01*
X80430814Y-106185736D01*
X80392397Y-105956786D01*
X80340865Y-105822200D01*
X80268680Y-105757078D01*
X80168310Y-105736519D01*
X80107739Y-105735167D01*
X79860466Y-105735167D01*
X79860466Y-103438791D01*
X80220300Y-103492236D01*
X80559747Y-103497851D01*
X81045629Y-103437150D01*
X81469133Y-103355502D01*
X82035795Y-103244913D01*
X82482308Y-103189973D01*
X82849850Y-103194884D01*
X83179603Y-103263851D01*
X83512746Y-103401079D01*
X83874137Y-103601035D01*
X84263377Y-103856025D01*
X84555219Y-104095128D01*
X84708001Y-104274667D01*
X84844405Y-104480966D01*
X84918712Y-104530545D01*
X84937903Y-104421286D01*
X84917338Y-104211167D01*
X84894007Y-103999916D01*
X84890655Y-103881633D01*
X84894675Y-103872500D01*
X84985671Y-103946719D01*
X85107650Y-104142563D01*
X85241793Y-104419814D01*
X85369278Y-104738255D01*
X85471285Y-105057667D01*
X85496758Y-105159078D01*
X85646598Y-105810655D01*
X85314699Y-106674300D01*
X85152053Y-107080273D01*
X85018444Y-107362313D01*
X84891499Y-107557832D01*
X84748847Y-107704239D01*
X84654598Y-107778107D01*
X84465896Y-107928555D01*
X84406886Y-108017597D01*
X84461550Y-108070099D01*
X84465510Y-108071651D01*
X84656044Y-108098196D01*
X84814879Y-108084841D01*
X84982072Y-108087038D01*
X85025133Y-108168279D01*
X84965322Y-108410085D01*
X84800524Y-108726167D01*
X84552689Y-109078725D01*
X84371060Y-109294498D01*
X84173312Y-109517641D01*
X84078946Y-109643264D01*
X84077697Y-109699378D01*
X84159301Y-109713997D01*
X84217158Y-109714500D01*
X84533821Y-109650565D01*
X84896645Y-109453343D01*
X85319972Y-109114714D01*
X85391677Y-109049276D01*
X85611222Y-108848149D01*
X85723626Y-108756054D01*
X85745250Y-108766176D01*
X85692455Y-108871698D01*
X85653534Y-108940193D01*
X85492179Y-109173445D01*
X85316318Y-109362464D01*
X85300300Y-109375711D01*
X85161906Y-109510432D01*
X85109800Y-109605612D01*
X85046912Y-109744865D01*
X84877061Y-109957389D01*
X84628468Y-110214478D01*
X84329352Y-110487426D01*
X84007934Y-110747526D01*
X83931575Y-110804147D01*
X83441672Y-111120746D01*
X82989789Y-111315617D01*
X82519708Y-111407720D01*
X82104133Y-111420410D01*
X82104133Y-111684385D01*
X82280698Y-111698498D01*
X82997041Y-111608946D01*
X83120133Y-111581170D01*
X83797466Y-111419815D01*
X83501133Y-111665547D01*
X83310061Y-111813794D01*
X83171969Y-111902560D01*
X83141300Y-111913556D01*
X83080590Y-111982116D01*
X83077800Y-112009679D01*
X83142525Y-112063366D01*
X83301472Y-112047065D01*
X83501796Y-111974727D01*
X83690654Y-111860303D01*
X83712800Y-111842039D01*
X83937034Y-111657702D01*
X84060015Y-111575400D01*
X84073421Y-111597852D01*
X83968935Y-111727778D01*
X83929024Y-111771353D01*
X83771203Y-111969101D01*
X83745025Y-112071653D01*
X83840003Y-112075859D01*
X84045649Y-111978566D01*
X84230152Y-111861814D01*
X84723236Y-111507459D01*
X85099746Y-111180798D01*
X85397126Y-110839162D01*
X85652824Y-110439881D01*
X85890526Y-109969821D01*
X86075645Y-109555274D01*
X86247339Y-109137971D01*
X86382903Y-108774820D01*
X86445115Y-108579821D01*
X86584773Y-108077501D01*
X86694196Y-108345667D01*
X86774221Y-108525219D01*
X86826308Y-108612290D01*
X86829740Y-108613833D01*
X86841809Y-108535746D01*
X86851169Y-108327792D01*
X86856292Y-108029435D01*
X86856795Y-107915333D01*
X86866406Y-107491110D01*
X86890746Y-107043336D01*
X86924605Y-106667140D01*
X86925605Y-106658845D01*
X86950039Y-106206429D01*
X86931530Y-105654608D01*
X86931530Y-105654608D01*
G37*
X86931530Y-105654608D02*
X86893260Y-105238789D01*
X86844030Y-104842799D01*
X86792882Y-104561746D01*
X86720261Y-104342156D01*
X86606612Y-104130555D01*
X86432381Y-103873467D01*
X86353586Y-103763009D01*
X86106404Y-103408436D01*
X85854983Y-103032537D01*
X85647747Y-102707953D01*
X85620781Y-102663743D01*
X85271623Y-102217658D01*
X84810005Y-101815702D01*
X84292801Y-101501905D01*
X83938446Y-101361367D01*
X83500995Y-101266418D01*
X82963492Y-101204803D01*
X82392505Y-101179677D01*
X81854605Y-101194197D01*
X81454651Y-101243605D01*
X81081855Y-101346759D01*
X80672882Y-101504649D01*
X80400844Y-101637953D01*
X80124420Y-101786637D01*
X79954016Y-101856754D01*
X79851055Y-101857851D01*
X79776956Y-101799478D01*
X79772011Y-101793601D01*
X79492331Y-101575609D01*
X79113016Y-101444999D01*
X78827504Y-101417639D01*
X78300022Y-101468281D01*
X77901707Y-101624676D01*
X77623369Y-101895845D01*
X77455823Y-102290809D01*
X77389881Y-102818587D01*
X77389566Y-102829459D01*
X77366958Y-103172541D01*
X77305356Y-103439251D01*
X77180345Y-103710688D01*
X77064034Y-103910732D01*
X76554252Y-104873589D01*
X76098877Y-105983663D01*
X75703829Y-107225932D01*
X75590239Y-107652388D01*
X75512832Y-107971416D01*
X75477193Y-108190866D01*
X75480289Y-108374458D01*
X75519086Y-108585913D01*
X75541260Y-108681342D01*
X75632808Y-108899881D01*
X75799536Y-109170530D01*
X75943735Y-109359407D01*
X76136513Y-109609583D01*
X76285615Y-109842121D01*
X76344931Y-109969232D01*
X76469809Y-110246941D01*
X76679296Y-110590032D01*
X76935850Y-110947108D01*
X77201925Y-111266775D01*
X77439978Y-111497635D01*
X77487343Y-111533131D01*
X77755301Y-111686224D01*
X78037257Y-111761357D01*
X78121175Y-111767468D01*
X78121175Y-111506288D01*
X77688476Y-111364870D01*
X77621336Y-111325970D01*
X77424112Y-111154280D01*
X77189826Y-110878576D01*
X76953348Y-110548141D01*
X76749545Y-110212258D01*
X76613285Y-109920210D01*
X76601017Y-109883833D01*
X76508546Y-109703194D01*
X76341649Y-109463919D01*
X76206808Y-109299338D01*
X75998569Y-109045605D01*
X75856236Y-108814461D01*
X75777960Y-108575325D01*
X75761892Y-108297619D01*
X75806182Y-107950762D01*
X75908983Y-107504174D01*
X76064252Y-106941888D01*
X76230598Y-106413736D01*
X76427970Y-105870812D01*
X76644932Y-105336828D01*
X76870047Y-104835496D01*
X77091876Y-104390528D01*
X77298983Y-104025636D01*
X77479930Y-103764533D01*
X77623280Y-103630930D01*
X77667260Y-103618500D01*
X77723327Y-103548325D01*
X77699706Y-103385667D01*
X77651199Y-103028122D01*
X77673215Y-102640762D01*
X77754995Y-102274475D01*
X77885782Y-101980149D01*
X78030051Y-101822872D01*
X78162646Y-101778855D01*
X78400095Y-101731688D01*
X78569528Y-101707164D01*
X79037291Y-101703248D01*
X79391727Y-101821617D01*
X79629987Y-102061230D01*
X79652793Y-102102221D01*
X79757688Y-102388251D01*
X79748619Y-102665140D01*
X79622413Y-102994068D01*
X79604746Y-103029206D01*
X79520173Y-103228284D01*
X79501908Y-103348432D01*
X79520079Y-103364500D01*
X79557171Y-103447042D01*
X79584513Y-103686637D01*
X79601228Y-104071234D01*
X79606466Y-104549833D01*
X79606466Y-105735167D01*
X78995534Y-105735167D01*
X79051419Y-106603000D01*
X79085300Y-107104277D01*
X79117166Y-107461047D01*
X79154732Y-107697856D01*
X79205713Y-107839250D01*
X79277822Y-107909774D01*
X79378774Y-107933976D01*
X79470512Y-107936500D01*
X79665292Y-107962246D01*
X79794201Y-108069672D01*
X79891292Y-108244459D01*
X79992334Y-108581579D01*
X79984913Y-108794792D01*
X79913153Y-108972848D01*
X79766459Y-109033853D01*
X79684406Y-109037167D01*
X79522312Y-109052435D01*
X79453492Y-109131441D01*
X79439571Y-109323983D01*
X79439747Y-109354667D01*
X79455773Y-109700632D01*
X79493974Y-110074004D01*
X79547398Y-110432786D01*
X79609092Y-110734978D01*
X79672104Y-110938581D01*
X79711984Y-110999178D01*
X79760103Y-111054451D01*
X79677780Y-111067870D01*
X79529634Y-111105944D01*
X79292480Y-111203010D01*
X79089796Y-111301406D01*
X78591008Y-111485088D01*
X78121175Y-111506288D01*
X78121175Y-111767468D01*
X78323817Y-111782226D01*
X78651614Y-111808211D01*
X78881392Y-111879231D01*
X79080085Y-112014374D01*
X79352605Y-112186955D01*
X79649532Y-112288713D01*
X79849825Y-112302562D01*
X79849825Y-111996520D01*
X79638312Y-111988210D01*
X79404115Y-111921365D01*
X79205978Y-111814217D01*
X79102647Y-111685000D01*
X79098466Y-111654498D01*
X79156601Y-111644569D01*
X79300801Y-111723074D01*
X79345962Y-111755079D01*
X79627846Y-111891568D01*
X79648231Y-111892161D01*
X79648231Y-111629365D01*
X79501982Y-111573202D01*
X79437133Y-111483442D01*
X79507906Y-111421375D01*
X79601470Y-111407833D01*
X79760237Y-111446193D01*
X79832220Y-111531310D01*
X79784821Y-111613925D01*
X79648231Y-111629365D01*
X79648231Y-111892161D01*
X79809067Y-111896844D01*
X79951663Y-111889697D01*
X79979908Y-111928064D01*
X79849825Y-111996520D01*
X79849825Y-112302562D01*
X79916654Y-112307183D01*
X80072133Y-112249323D01*
X80072133Y-111746500D01*
X80029800Y-111704167D01*
X80072133Y-111661833D01*
X80114466Y-111704167D01*
X80072133Y-111746500D01*
X80072133Y-112249323D01*
X80083443Y-112245114D01*
X80186996Y-112110365D01*
X80186996Y-111561309D01*
X80139592Y-111544273D01*
X80069440Y-111455151D01*
X79965862Y-111306752D01*
X79969126Y-111248439D01*
X80072133Y-111238500D01*
X80174325Y-111310591D01*
X80196440Y-111429000D01*
X80186996Y-111561309D01*
X80186996Y-112110365D01*
X80214590Y-112074458D01*
X80342308Y-111816564D01*
X80431822Y-111550600D01*
X80453133Y-111403425D01*
X80465126Y-111324513D01*
X80524898Y-111302512D01*
X80668142Y-111340490D01*
X80930549Y-111441516D01*
X80939966Y-111445285D01*
X81609381Y-111644840D01*
X82104133Y-111684385D01*
X82104133Y-111420410D01*
X81847166Y-111396882D01*
X81550246Y-111342710D01*
X81242626Y-111267545D01*
X80953555Y-111181036D01*
X80712285Y-111092834D01*
X80548067Y-111012589D01*
X80490153Y-110949951D01*
X80567793Y-110914571D01*
X80570067Y-110914305D01*
X80814000Y-110886444D01*
X80754580Y-110154121D01*
X80713109Y-109679198D01*
X80673975Y-109347971D01*
X80629945Y-109135073D01*
X80573787Y-109015136D01*
X80498267Y-108962794D01*
X80411957Y-108952500D01*
X80273768Y-108920570D01*
X80253921Y-108793141D01*
X80260336Y-108755175D01*
X80252587Y-108550201D01*
X80185683Y-108292896D01*
X80163928Y-108236835D01*
X80069485Y-108006179D01*
X80048493Y-107892662D01*
X80114660Y-107854979D01*
X80281694Y-107851826D01*
X80291701Y-107851833D01*
X80553603Y-107851833D01*
X80498437Y-107026333D01*
X80463649Y-106533952D01*
X80430814Y-106185736D01*
X80392397Y-105956786D01*
X80340865Y-105822200D01*
X80268680Y-105757078D01*
X80168310Y-105736519D01*
X80107739Y-105735167D01*
X79860466Y-105735167D01*
X79860466Y-103438791D01*
X80220300Y-103492236D01*
X80559747Y-103497851D01*
X81045629Y-103437150D01*
X81469133Y-103355502D01*
X82035795Y-103244913D01*
X82482308Y-103189973D01*
X82849850Y-103194884D01*
X83179603Y-103263851D01*
X83512746Y-103401079D01*
X83874137Y-103601035D01*
X84263377Y-103856025D01*
X84555219Y-104095128D01*
X84708001Y-104274667D01*
X84844405Y-104480966D01*
X84918712Y-104530545D01*
X84937903Y-104421286D01*
X84917338Y-104211167D01*
X84894007Y-103999916D01*
X84890655Y-103881633D01*
X84894675Y-103872500D01*
X84985671Y-103946719D01*
X85107650Y-104142563D01*
X85241793Y-104419814D01*
X85369278Y-104738255D01*
X85471285Y-105057667D01*
X85496758Y-105159078D01*
X85646598Y-105810655D01*
X85314699Y-106674300D01*
X85152053Y-107080273D01*
X85018444Y-107362313D01*
X84891499Y-107557832D01*
X84748847Y-107704239D01*
X84654598Y-107778107D01*
X84465896Y-107928555D01*
X84406886Y-108017597D01*
X84461550Y-108070099D01*
X84465510Y-108071651D01*
X84656044Y-108098196D01*
X84814879Y-108084841D01*
X84982072Y-108087038D01*
X85025133Y-108168279D01*
X84965322Y-108410085D01*
X84800524Y-108726167D01*
X84552689Y-109078725D01*
X84371060Y-109294498D01*
X84173312Y-109517641D01*
X84078946Y-109643264D01*
X84077697Y-109699378D01*
X84159301Y-109713997D01*
X84217158Y-109714500D01*
X84533821Y-109650565D01*
X84896645Y-109453343D01*
X85319972Y-109114714D01*
X85391677Y-109049276D01*
X85611222Y-108848149D01*
X85723626Y-108756054D01*
X85745250Y-108766176D01*
X85692455Y-108871698D01*
X85653534Y-108940193D01*
X85492179Y-109173445D01*
X85316318Y-109362464D01*
X85300300Y-109375711D01*
X85161906Y-109510432D01*
X85109800Y-109605612D01*
X85046912Y-109744865D01*
X84877061Y-109957389D01*
X84628468Y-110214478D01*
X84329352Y-110487426D01*
X84007934Y-110747526D01*
X83931575Y-110804147D01*
X83441672Y-111120746D01*
X82989789Y-111315617D01*
X82519708Y-111407720D01*
X82104133Y-111420410D01*
X82104133Y-111684385D01*
X82280698Y-111698498D01*
X82997041Y-111608946D01*
X83120133Y-111581170D01*
X83797466Y-111419815D01*
X83501133Y-111665547D01*
X83310061Y-111813794D01*
X83171969Y-111902560D01*
X83141300Y-111913556D01*
X83080590Y-111982116D01*
X83077800Y-112009679D01*
X83142525Y-112063366D01*
X83301472Y-112047065D01*
X83501796Y-111974727D01*
X83690654Y-111860303D01*
X83712800Y-111842039D01*
X83937034Y-111657702D01*
X84060015Y-111575400D01*
X84073421Y-111597852D01*
X83968935Y-111727778D01*
X83929024Y-111771353D01*
X83771203Y-111969101D01*
X83745025Y-112071653D01*
X83840003Y-112075859D01*
X84045649Y-111978566D01*
X84230152Y-111861814D01*
X84723236Y-111507459D01*
X85099746Y-111180798D01*
X85397126Y-110839162D01*
X85652824Y-110439881D01*
X85890526Y-109969821D01*
X86075645Y-109555274D01*
X86247339Y-109137971D01*
X86382903Y-108774820D01*
X86445115Y-108579821D01*
X86584773Y-108077501D01*
X86694196Y-108345667D01*
X86774221Y-108525219D01*
X86826308Y-108612290D01*
X86829740Y-108613833D01*
X86841809Y-108535746D01*
X86851169Y-108327792D01*
X86856292Y-108029435D01*
X86856795Y-107915333D01*
X86866406Y-107491110D01*
X86890746Y-107043336D01*
X86924605Y-106667140D01*
X86925605Y-106658845D01*
X86950039Y-106206429D01*
X86931530Y-105654608D01*
G36*
X77687440Y-108183877D02*
X77513837Y-107813781D01*
X77339468Y-107576667D01*
X77205020Y-107459071D01*
X77093278Y-107459099D01*
X76989821Y-107590662D01*
X76880227Y-107867670D01*
X76812816Y-108084667D01*
X76717867Y-108403564D01*
X76639035Y-108663185D01*
X76590299Y-108817625D01*
X76584474Y-108834373D01*
X76636234Y-108915419D01*
X76803525Y-109026189D01*
X76803525Y-108867833D01*
X76734192Y-108854259D01*
X76710620Y-108792279D01*
X76736153Y-108650004D01*
X76814132Y-108395546D01*
X76870908Y-108224982D01*
X76981791Y-107908633D01*
X77060800Y-107729805D01*
X77124262Y-107663692D01*
X77188504Y-107685485D01*
X77211853Y-107706934D01*
X77326682Y-107928773D01*
X77340545Y-108215944D01*
X77257622Y-108501046D01*
X77153095Y-108654078D01*
X76975031Y-108800426D01*
X76813474Y-108867396D01*
X76803525Y-108867833D01*
X76803525Y-109026189D01*
X76806044Y-109027857D01*
X76988969Y-109116845D01*
X77428153Y-109305777D01*
X77605686Y-109128244D01*
X77740351Y-108881830D01*
X77765273Y-108553467D01*
X77687440Y-108183877D01*
X77687440Y-108183877D01*
G37*
X77687440Y-108183877D02*
X77513837Y-107813781D01*
X77339468Y-107576667D01*
X77205020Y-107459071D01*
X77093278Y-107459099D01*
X76989821Y-107590662D01*
X76880227Y-107867670D01*
X76812816Y-108084667D01*
X76717867Y-108403564D01*
X76639035Y-108663185D01*
X76590299Y-108817625D01*
X76584474Y-108834373D01*
X76636234Y-108915419D01*
X76803525Y-109026189D01*
X76803525Y-108867833D01*
X76734192Y-108854259D01*
X76710620Y-108792279D01*
X76736153Y-108650004D01*
X76814132Y-108395546D01*
X76870908Y-108224982D01*
X76981791Y-107908633D01*
X77060800Y-107729805D01*
X77124262Y-107663692D01*
X77188504Y-107685485D01*
X77211853Y-107706934D01*
X77326682Y-107928773D01*
X77340545Y-108215944D01*
X77257622Y-108501046D01*
X77153095Y-108654078D01*
X76975031Y-108800426D01*
X76813474Y-108867396D01*
X76803525Y-108867833D01*
X76803525Y-109026189D01*
X76806044Y-109027857D01*
X76988969Y-109116845D01*
X77428153Y-109305777D01*
X77605686Y-109128244D01*
X77740351Y-108881830D01*
X77765273Y-108553467D01*
X77687440Y-108183877D01*
G36*
X79486293Y-102740228D02*
X79357473Y-102432109D01*
X79137802Y-102248582D01*
X78858532Y-102196915D01*
X78550914Y-102284378D01*
X78300162Y-102464331D01*
X78095830Y-102672937D01*
X78011953Y-102816112D01*
X78034646Y-102931514D01*
X78099400Y-103008900D01*
X78253005Y-103084167D01*
X78459233Y-103116451D01*
X78704265Y-103141991D01*
X78881604Y-103186661D01*
X79092878Y-103195299D01*
X79119691Y-103186241D01*
X79119691Y-102978262D01*
X78896331Y-102934106D01*
X78838290Y-102911775D01*
X78619281Y-102843327D01*
X78457994Y-102828322D01*
X78442242Y-102832240D01*
X78360288Y-102832913D01*
X78377162Y-102759696D01*
X78466183Y-102652371D01*
X78600670Y-102550718D01*
X78647186Y-102526684D01*
X78914520Y-102465541D01*
X79115444Y-102541004D01*
X79213552Y-102709677D01*
X79224128Y-102904154D01*
X79119691Y-102978262D01*
X79119691Y-103186241D01*
X79292266Y-103127938D01*
X79460630Y-103019050D01*
X79505717Y-102883418D01*
X79486293Y-102740228D01*
X79486293Y-102740228D01*
G37*
X79486293Y-102740228D02*
X79357473Y-102432109D01*
X79137802Y-102248582D01*
X78858532Y-102196915D01*
X78550914Y-102284378D01*
X78300162Y-102464331D01*
X78095830Y-102672937D01*
X78011953Y-102816112D01*
X78034646Y-102931514D01*
X78099400Y-103008900D01*
X78253005Y-103084167D01*
X78459233Y-103116451D01*
X78704265Y-103141991D01*
X78881604Y-103186661D01*
X79092878Y-103195299D01*
X79119691Y-103186241D01*
X79119691Y-102978262D01*
X78896331Y-102934106D01*
X78838290Y-102911775D01*
X78619281Y-102843327D01*
X78457994Y-102828322D01*
X78442242Y-102832240D01*
X78360288Y-102832913D01*
X78377162Y-102759696D01*
X78466183Y-102652371D01*
X78600670Y-102550718D01*
X78647186Y-102526684D01*
X78914520Y-102465541D01*
X79115444Y-102541004D01*
X79213552Y-102709677D01*
X79224128Y-102904154D01*
X79119691Y-102978262D01*
X79119691Y-103186241D01*
X79292266Y-103127938D01*
X79460630Y-103019050D01*
X79505717Y-102883418D01*
X79486293Y-102740228D01*
G36*
X78592222Y-108076490D02*
X78583982Y-108066949D01*
X78476426Y-108043595D01*
X78373100Y-108143182D01*
X78265041Y-108328201D01*
X78281698Y-108442933D01*
X78330673Y-108483253D01*
X78434818Y-108467852D01*
X78539207Y-108352058D01*
X78604717Y-108200171D01*
X78592222Y-108076490D01*
X78592222Y-108076490D01*
G37*
X78592222Y-108076490D02*
X78583982Y-108066949D01*
X78476426Y-108043595D01*
X78373100Y-108143182D01*
X78265041Y-108328201D01*
X78281698Y-108442933D01*
X78330673Y-108483253D01*
X78434818Y-108467852D01*
X78539207Y-108352058D01*
X78604717Y-108200171D01*
X78592222Y-108076490D01*
G36*
X78788678Y-109012342D02*
X78680434Y-108895605D01*
X78534815Y-108831593D01*
X78461016Y-108838156D01*
X78346137Y-108925239D01*
X78389318Y-109051147D01*
X78438066Y-109104900D01*
X78606228Y-109198552D01*
X78758879Y-109171152D01*
X78797915Y-109128659D01*
X78788678Y-109012342D01*
X78788678Y-109012342D01*
G37*
X78788678Y-109012342D02*
X78680434Y-108895605D01*
X78534815Y-108831593D01*
X78461016Y-108838156D01*
X78346137Y-108925239D01*
X78389318Y-109051147D01*
X78438066Y-109104900D01*
X78606228Y-109198552D01*
X78758879Y-109171152D01*
X78797915Y-109128659D01*
X78788678Y-109012342D01*
G36*
X79049033Y-108342264D02*
X78935421Y-108034420D01*
X78820192Y-107873741D01*
X78661927Y-107743267D01*
X78550941Y-107701195D01*
X78536588Y-107708157D01*
X78542574Y-107762221D01*
X78577600Y-107767167D01*
X78727939Y-107844284D01*
X78855333Y-108046367D01*
X78949396Y-108329515D01*
X78999740Y-108649829D01*
X78995981Y-108963406D01*
X78927730Y-109226347D01*
X78924462Y-109233233D01*
X78866015Y-109360241D01*
X78890777Y-109348274D01*
X78973462Y-109248833D01*
X79074904Y-109010929D01*
X79097811Y-108688253D01*
X79049033Y-108342264D01*
X79049033Y-108342264D01*
G37*
X79049033Y-108342264D02*
X78935421Y-108034420D01*
X78820192Y-107873741D01*
X78661927Y-107743267D01*
X78550941Y-107701195D01*
X78536588Y-107708157D01*
X78542574Y-107762221D01*
X78577600Y-107767167D01*
X78727939Y-107844284D01*
X78855333Y-108046367D01*
X78949396Y-108329515D01*
X78999740Y-108649829D01*
X78995981Y-108963406D01*
X78927730Y-109226347D01*
X78924462Y-109233233D01*
X78866015Y-109360241D01*
X78890777Y-109348274D01*
X78973462Y-109248833D01*
X79074904Y-109010929D01*
X79097811Y-108688253D01*
X79049033Y-108342264D01*
G36*
X82261429Y-106316932D02*
X82117146Y-106043417D01*
X82093518Y-106000573D01*
X81924992Y-105695160D01*
X81818453Y-105510956D01*
X81751233Y-105422514D01*
X81700668Y-105404388D01*
X81644090Y-105431132D01*
X81606226Y-105453511D01*
X81550322Y-105511804D01*
X81556199Y-105615271D01*
X81633287Y-105797232D01*
X81782158Y-106075105D01*
X81931733Y-106342912D01*
X82045819Y-106545332D01*
X82102712Y-106643889D01*
X82104964Y-106647326D01*
X82186081Y-106641456D01*
X82263177Y-106616400D01*
X82325527Y-106571055D01*
X82327916Y-106482022D01*
X82261429Y-106316932D01*
X82261429Y-106316932D01*
G37*
X82261429Y-106316932D02*
X82117146Y-106043417D01*
X82093518Y-106000573D01*
X81924992Y-105695160D01*
X81818453Y-105510956D01*
X81751233Y-105422514D01*
X81700668Y-105404388D01*
X81644090Y-105431132D01*
X81606226Y-105453511D01*
X81550322Y-105511804D01*
X81556199Y-105615271D01*
X81633287Y-105797232D01*
X81782158Y-106075105D01*
X81931733Y-106342912D01*
X82045819Y-106545332D01*
X82102712Y-106643889D01*
X82104964Y-106647326D01*
X82186081Y-106641456D01*
X82263177Y-106616400D01*
X82325527Y-106571055D01*
X82327916Y-106482022D01*
X82261429Y-106316932D01*
G36*
X82348003Y-109859848D02*
X82281616Y-109771676D01*
X82196244Y-109782237D01*
X82136592Y-109911713D01*
X82097281Y-110121062D01*
X82027724Y-110414832D01*
X81923228Y-110674127D01*
X81883587Y-110740057D01*
X81791483Y-110907248D01*
X81779426Y-111012039D01*
X81782079Y-111015224D01*
X81889654Y-111064276D01*
X82013661Y-110983334D01*
X82129321Y-110836333D01*
X82250713Y-110601987D01*
X82332440Y-110327457D01*
X82367279Y-110063243D01*
X82348003Y-109859848D01*
X82348003Y-109859848D01*
G37*
X82348003Y-109859848D02*
X82281616Y-109771676D01*
X82196244Y-109782237D01*
X82136592Y-109911713D01*
X82097281Y-110121062D01*
X82027724Y-110414832D01*
X81923228Y-110674127D01*
X81883587Y-110740057D01*
X81791483Y-110907248D01*
X81779426Y-111012039D01*
X81782079Y-111015224D01*
X81889654Y-111064276D01*
X82013661Y-110983334D01*
X82129321Y-110836333D01*
X82250713Y-110601987D01*
X82332440Y-110327457D01*
X82367279Y-110063243D01*
X82348003Y-109859848D01*
M02*
