G04 #@! TF.FileFunction,Legend,Bot*
%FSLAX46Y46*%
G04 Gerber Fmt 4.6, Leading zero omitted, Abs format (unit mm)*
G04 Created by KiCad (PCBNEW 4.0.6) date 04/13/17 22:35:33*
%MOMM*%
%LPD*%
G01*
G04 APERTURE LIST*
%ADD10C,0.100000*%
%ADD11C,0.300000*%
%ADD12C,0.200000*%
%ADD13C,0.010000*%
G04 APERTURE END LIST*
D10*
D11*
X104321429Y-104178571D02*
X103964286Y-105678571D01*
X103678572Y-104607143D01*
X103392858Y-105678571D01*
X103035715Y-104178571D01*
X102607143Y-104178571D02*
X102250000Y-105678571D01*
X101964286Y-104607143D01*
X101678572Y-105678571D01*
X101321429Y-104178571D01*
X100892857Y-104178571D02*
X100535714Y-105678571D01*
X100250000Y-104607143D01*
X99964286Y-105678571D01*
X99607143Y-104178571D01*
X99035714Y-105535714D02*
X98964286Y-105607143D01*
X99035714Y-105678571D01*
X99107143Y-105607143D01*
X99035714Y-105535714D01*
X99035714Y-105678571D01*
X98321428Y-105678571D02*
X98321428Y-104178571D01*
X97964285Y-104178571D01*
X97750000Y-104250000D01*
X97607142Y-104392857D01*
X97535714Y-104535714D01*
X97464285Y-104821429D01*
X97464285Y-105035714D01*
X97535714Y-105321429D01*
X97607142Y-105464286D01*
X97750000Y-105607143D01*
X97964285Y-105678571D01*
X98321428Y-105678571D01*
X96821428Y-105678571D02*
X96821428Y-104678571D01*
X96821428Y-104178571D02*
X96892857Y-104250000D01*
X96821428Y-104321429D01*
X96750000Y-104250000D01*
X96821428Y-104178571D01*
X96821428Y-104321429D01*
X95464285Y-104678571D02*
X95464285Y-105892857D01*
X95535714Y-106035714D01*
X95607142Y-106107143D01*
X95749999Y-106178571D01*
X95964285Y-106178571D01*
X96107142Y-106107143D01*
X95464285Y-105607143D02*
X95607142Y-105678571D01*
X95892856Y-105678571D01*
X96035714Y-105607143D01*
X96107142Y-105535714D01*
X96178571Y-105392857D01*
X96178571Y-104964286D01*
X96107142Y-104821429D01*
X96035714Y-104750000D01*
X95892856Y-104678571D01*
X95607142Y-104678571D01*
X95464285Y-104750000D01*
X94749999Y-105678571D02*
X94749999Y-104678571D01*
X94749999Y-104178571D02*
X94821428Y-104250000D01*
X94749999Y-104321429D01*
X94678571Y-104250000D01*
X94749999Y-104178571D01*
X94749999Y-104321429D01*
X94249999Y-104678571D02*
X93678570Y-104678571D01*
X94035713Y-104178571D02*
X94035713Y-105464286D01*
X93964285Y-105607143D01*
X93821427Y-105678571D01*
X93678570Y-105678571D01*
X92535713Y-105678571D02*
X92535713Y-104892857D01*
X92607142Y-104750000D01*
X92749999Y-104678571D01*
X93035713Y-104678571D01*
X93178570Y-104750000D01*
X92535713Y-105607143D02*
X92678570Y-105678571D01*
X93035713Y-105678571D01*
X93178570Y-105607143D01*
X93249999Y-105464286D01*
X93249999Y-105321429D01*
X93178570Y-105178571D01*
X93035713Y-105107143D01*
X92678570Y-105107143D01*
X92535713Y-105035714D01*
X91607141Y-105678571D02*
X91749999Y-105607143D01*
X91821427Y-105464286D01*
X91821427Y-104178571D01*
X91035713Y-105107143D02*
X89892856Y-105107143D01*
X89249999Y-105607143D02*
X89035713Y-105678571D01*
X88678570Y-105678571D01*
X88535713Y-105607143D01*
X88464284Y-105535714D01*
X88392856Y-105392857D01*
X88392856Y-105250000D01*
X88464284Y-105107143D01*
X88535713Y-105035714D01*
X88678570Y-104964286D01*
X88964284Y-104892857D01*
X89107142Y-104821429D01*
X89178570Y-104750000D01*
X89249999Y-104607143D01*
X89249999Y-104464286D01*
X89178570Y-104321429D01*
X89107142Y-104250000D01*
X88964284Y-104178571D01*
X88607142Y-104178571D01*
X88392856Y-104250000D01*
X87107142Y-104678571D02*
X87107142Y-106178571D01*
X87107142Y-105607143D02*
X87249999Y-105678571D01*
X87535713Y-105678571D01*
X87678571Y-105607143D01*
X87749999Y-105535714D01*
X87821428Y-105392857D01*
X87821428Y-104964286D01*
X87749999Y-104821429D01*
X87678571Y-104750000D01*
X87535713Y-104678571D01*
X87249999Y-104678571D01*
X87107142Y-104750000D01*
X86392856Y-105678571D02*
X86392856Y-104678571D01*
X86392856Y-104964286D02*
X86321428Y-104821429D01*
X86249999Y-104750000D01*
X86107142Y-104678571D01*
X85964285Y-104678571D01*
X85678571Y-104678571D02*
X85107142Y-104678571D01*
X85464285Y-104178571D02*
X85464285Y-105464286D01*
X85392857Y-105607143D01*
X85249999Y-105678571D01*
X85107142Y-105678571D01*
X84607142Y-105535714D02*
X84535714Y-105607143D01*
X84607142Y-105678571D01*
X84678571Y-105607143D01*
X84607142Y-105535714D01*
X84607142Y-105678571D01*
X83035713Y-105535714D02*
X83107142Y-105607143D01*
X83321428Y-105678571D01*
X83464285Y-105678571D01*
X83678570Y-105607143D01*
X83821428Y-105464286D01*
X83892856Y-105321429D01*
X83964285Y-105035714D01*
X83964285Y-104821429D01*
X83892856Y-104535714D01*
X83821428Y-104392857D01*
X83678570Y-104250000D01*
X83464285Y-104178571D01*
X83321428Y-104178571D01*
X83107142Y-104250000D01*
X83035713Y-104321429D01*
X82107142Y-104178571D02*
X81821428Y-104178571D01*
X81678570Y-104250000D01*
X81535713Y-104392857D01*
X81464285Y-104678571D01*
X81464285Y-105178571D01*
X81535713Y-105464286D01*
X81678570Y-105607143D01*
X81821428Y-105678571D01*
X82107142Y-105678571D01*
X82249999Y-105607143D01*
X82392856Y-105464286D01*
X82464285Y-105178571D01*
X82464285Y-104678571D01*
X82392856Y-104392857D01*
X82249999Y-104250000D01*
X82107142Y-104178571D01*
X80821427Y-105678571D02*
X80821427Y-104178571D01*
X80321427Y-105250000D01*
X79821427Y-104178571D01*
X79821427Y-105678571D01*
D10*
X82079762Y-113652381D02*
X82555953Y-113652381D01*
X82430953Y-112652381D01*
X81746429Y-113652381D02*
X81663095Y-112985714D01*
X81621429Y-112652381D02*
X81675000Y-112700000D01*
X81633333Y-112747619D01*
X81579762Y-112700000D01*
X81621429Y-112652381D01*
X81633333Y-112747619D01*
X81329762Y-112985714D02*
X80948810Y-112985714D01*
X81145239Y-112652381D02*
X81252381Y-113509524D01*
X81216667Y-113604762D01*
X81127382Y-113652381D01*
X81032144Y-113652381D01*
X80758333Y-112985714D02*
X80377381Y-112985714D01*
X80573810Y-112652381D02*
X80680952Y-113509524D01*
X80645238Y-113604762D01*
X80555953Y-113652381D01*
X80460715Y-113652381D01*
X79984524Y-113652381D02*
X80073809Y-113604762D01*
X80109523Y-113509524D01*
X80002381Y-112652381D01*
X79216665Y-113604762D02*
X79317856Y-113652381D01*
X79508333Y-113652381D01*
X79597618Y-113604762D01*
X79633332Y-113509524D01*
X79585713Y-113128571D01*
X79526190Y-113033333D01*
X79424999Y-112985714D01*
X79234522Y-112985714D01*
X79145237Y-113033333D01*
X79109522Y-113128571D01*
X79121427Y-113223810D01*
X79609523Y-113319048D01*
X77984523Y-113652381D02*
X77859523Y-112652381D01*
X77621428Y-112652381D01*
X77484522Y-112700000D01*
X77401189Y-112795238D01*
X77365474Y-112890476D01*
X77341665Y-113080952D01*
X77359522Y-113223810D01*
X77430951Y-113414286D01*
X77490474Y-113509524D01*
X77597617Y-113604762D01*
X77746428Y-113652381D01*
X77984523Y-113652381D01*
X76984523Y-113652381D02*
X76901189Y-112985714D01*
X76924999Y-113176190D02*
X76865475Y-113080952D01*
X76811904Y-113033333D01*
X76710713Y-112985714D01*
X76615474Y-112985714D01*
X76365475Y-113652381D02*
X76282141Y-112985714D01*
X76240475Y-112652381D02*
X76294046Y-112700000D01*
X76252379Y-112747619D01*
X76198808Y-112700000D01*
X76240475Y-112652381D01*
X76252379Y-112747619D01*
X75901189Y-112985714D02*
X75746428Y-113652381D01*
X75424998Y-112985714D01*
X74740474Y-113604762D02*
X74841665Y-113652381D01*
X75032142Y-113652381D01*
X75121427Y-113604762D01*
X75157141Y-113509524D01*
X75109522Y-113128571D01*
X75049999Y-113033333D01*
X74948808Y-112985714D01*
X74758331Y-112985714D01*
X74669046Y-113033333D01*
X74633331Y-113128571D01*
X74645236Y-113223810D01*
X75133332Y-113319048D01*
X74270237Y-113652381D02*
X74186903Y-112985714D01*
X74210713Y-113176190D02*
X74151189Y-113080952D01*
X74097618Y-113033333D01*
X73996427Y-112985714D01*
X73901188Y-112985714D01*
D12*
X82572916Y-111591667D02*
X82354166Y-109841667D01*
X81937500Y-109841667D01*
X81697917Y-109925000D01*
X81552083Y-110091667D01*
X81489584Y-110258333D01*
X81447916Y-110591667D01*
X81479166Y-110841667D01*
X81604167Y-111175000D01*
X81708333Y-111341667D01*
X81895834Y-111508333D01*
X82156250Y-111591667D01*
X82572916Y-111591667D01*
X80822916Y-111591667D02*
X80677083Y-110425000D01*
X80604166Y-109841667D02*
X80697917Y-109925000D01*
X80625000Y-110008333D01*
X80531250Y-109925000D01*
X80604166Y-109841667D01*
X80625000Y-110008333D01*
X79093750Y-110425000D02*
X79270833Y-111841667D01*
X79375001Y-112008333D01*
X79468750Y-112091667D01*
X79645834Y-112175000D01*
X79895834Y-112175000D01*
X80052083Y-112091667D01*
X79229167Y-111508333D02*
X79406250Y-111591667D01*
X79739583Y-111591667D01*
X79895834Y-111508333D01*
X79968750Y-111425000D01*
X80031251Y-111258333D01*
X79968751Y-110758333D01*
X79864583Y-110591667D01*
X79770834Y-110508333D01*
X79593750Y-110425000D01*
X79260417Y-110425000D01*
X79104167Y-110508333D01*
X78406250Y-111591667D02*
X78260417Y-110425000D01*
X78187500Y-109841667D02*
X78281251Y-109925000D01*
X78208334Y-110008333D01*
X78114584Y-109925000D01*
X78187500Y-109841667D01*
X78208334Y-110008333D01*
X77677084Y-110425000D02*
X77010418Y-110425000D01*
X77354167Y-109841667D02*
X77541667Y-111341667D01*
X77479168Y-111508333D01*
X77322917Y-111591667D01*
X77156251Y-111591667D01*
X75822917Y-111591667D02*
X75708334Y-110675000D01*
X75770835Y-110508333D01*
X75927084Y-110425000D01*
X76260418Y-110425000D01*
X76437501Y-110508333D01*
X75812501Y-111508333D02*
X75989584Y-111591667D01*
X76406251Y-111591667D01*
X76562501Y-111508333D01*
X76625001Y-111341667D01*
X76604168Y-111175000D01*
X76500001Y-111008333D01*
X76322918Y-110925000D01*
X75906251Y-110925000D01*
X75729167Y-110841667D01*
X74739584Y-111591667D02*
X74895835Y-111508333D01*
X74958334Y-111341667D01*
X74770834Y-109841667D01*
X72812502Y-111508333D02*
X72572918Y-111591667D01*
X72156251Y-111591667D01*
X71979168Y-111508333D01*
X71885418Y-111425000D01*
X71781252Y-111258333D01*
X71760418Y-111091667D01*
X71822918Y-110925000D01*
X71895834Y-110841667D01*
X72052085Y-110758333D01*
X72375001Y-110675000D01*
X72531251Y-110591667D01*
X72604168Y-110508333D01*
X72666668Y-110341667D01*
X72645835Y-110175000D01*
X72541668Y-110008333D01*
X72447918Y-109925000D01*
X72270834Y-109841667D01*
X71854168Y-109841667D01*
X71614585Y-109925000D01*
X70177084Y-110425000D02*
X70395834Y-112175000D01*
X70312501Y-111508333D02*
X70489584Y-111591667D01*
X70822917Y-111591667D01*
X70979168Y-111508333D01*
X71052084Y-111425000D01*
X71114585Y-111258333D01*
X71052085Y-110758333D01*
X70947917Y-110591667D01*
X70854168Y-110508333D01*
X70677084Y-110425000D01*
X70343751Y-110425000D01*
X70187501Y-110508333D01*
X69489584Y-111591667D02*
X69343751Y-110425000D01*
X69385418Y-110758333D02*
X69281251Y-110591667D01*
X69187502Y-110508333D01*
X69010418Y-110425000D01*
X68843751Y-110425000D01*
X68510418Y-110425000D02*
X67843752Y-110425000D01*
X68187501Y-109841667D02*
X68375001Y-111341667D01*
X68312502Y-111508333D01*
X68156251Y-111591667D01*
X67989585Y-111591667D01*
D10*
X82504762Y-114252381D02*
X82171429Y-115252381D01*
X81838095Y-114252381D01*
X81123809Y-115204762D02*
X81219047Y-115252381D01*
X81409524Y-115252381D01*
X81504762Y-115204762D01*
X81552381Y-115109524D01*
X81552381Y-114728571D01*
X81504762Y-114633333D01*
X81409524Y-114585714D01*
X81219047Y-114585714D01*
X81123809Y-114633333D01*
X81076190Y-114728571D01*
X81076190Y-114823810D01*
X81552381Y-114919048D01*
X80647619Y-115252381D02*
X80647619Y-114585714D01*
X80647619Y-114776190D02*
X80600000Y-114680952D01*
X80552381Y-114633333D01*
X80457143Y-114585714D01*
X80361904Y-114585714D01*
X78742856Y-115252381D02*
X79314285Y-115252381D01*
X79028571Y-115252381D02*
X79028571Y-114252381D01*
X79123809Y-114395238D01*
X79219047Y-114490476D01*
X79314285Y-114538095D01*
X78314285Y-115157143D02*
X78266666Y-115204762D01*
X78314285Y-115252381D01*
X78361904Y-115204762D01*
X78314285Y-115157143D01*
X78314285Y-115252381D01*
X77695238Y-114680952D02*
X77790476Y-114633333D01*
X77838095Y-114585714D01*
X77885714Y-114490476D01*
X77885714Y-114442857D01*
X77838095Y-114347619D01*
X77790476Y-114300000D01*
X77695238Y-114252381D01*
X77504761Y-114252381D01*
X77409523Y-114300000D01*
X77361904Y-114347619D01*
X77314285Y-114442857D01*
X77314285Y-114490476D01*
X77361904Y-114585714D01*
X77409523Y-114633333D01*
X77504761Y-114680952D01*
X77695238Y-114680952D01*
X77790476Y-114728571D01*
X77838095Y-114776190D01*
X77885714Y-114871429D01*
X77885714Y-115061905D01*
X77838095Y-115157143D01*
X77790476Y-115204762D01*
X77695238Y-115252381D01*
X77504761Y-115252381D01*
X77409523Y-115204762D01*
X77361904Y-115157143D01*
X77314285Y-115061905D01*
X77314285Y-114871429D01*
X77361904Y-114776190D01*
X77409523Y-114728571D01*
X77504761Y-114680952D01*
D13*
G36*
X88004108Y-106988270D02*
X87588289Y-107026540D01*
X87192299Y-107075770D01*
X86911246Y-107126918D01*
X86691656Y-107199539D01*
X86480055Y-107313188D01*
X86222967Y-107487419D01*
X86112509Y-107566214D01*
X85757936Y-107813396D01*
X85382037Y-108064817D01*
X85057453Y-108272053D01*
X85013243Y-108299019D01*
X84567158Y-108648177D01*
X84165202Y-109109795D01*
X83851405Y-109626999D01*
X83710867Y-109981354D01*
X83615918Y-110418805D01*
X83554303Y-110956308D01*
X83529177Y-111527295D01*
X83543697Y-112065195D01*
X83593105Y-112465149D01*
X83696259Y-112837945D01*
X83854149Y-113246918D01*
X83987453Y-113518956D01*
X84136137Y-113795380D01*
X84206254Y-113965784D01*
X84207351Y-114068745D01*
X84148978Y-114142844D01*
X84143101Y-114147789D01*
X83925109Y-114427469D01*
X83794499Y-114806784D01*
X83767139Y-115092296D01*
X83817781Y-115619778D01*
X83974176Y-116018093D01*
X84245345Y-116296431D01*
X84640309Y-116463977D01*
X85168087Y-116529919D01*
X85178959Y-116530234D01*
X85522041Y-116552842D01*
X85788751Y-116614444D01*
X86060188Y-116739455D01*
X86260232Y-116855766D01*
X87223089Y-117365548D01*
X88333163Y-117820923D01*
X89575432Y-118215971D01*
X90001888Y-118329561D01*
X90320916Y-118406968D01*
X90540366Y-118442607D01*
X90723958Y-118439511D01*
X90935413Y-118400714D01*
X91030842Y-118378540D01*
X91249381Y-118286992D01*
X91520030Y-118120264D01*
X91708907Y-117976065D01*
X91959083Y-117783287D01*
X92191621Y-117634185D01*
X92318732Y-117574869D01*
X92596441Y-117449991D01*
X92939532Y-117240504D01*
X93296608Y-116983950D01*
X93616275Y-116717875D01*
X93847135Y-116479822D01*
X93882631Y-116432457D01*
X94035724Y-116164499D01*
X94110857Y-115882543D01*
X94116968Y-115798625D01*
X93855788Y-115798625D01*
X93714370Y-116231324D01*
X93675470Y-116298464D01*
X93503780Y-116495688D01*
X93228076Y-116729974D01*
X92897641Y-116966452D01*
X92561758Y-117170255D01*
X92269710Y-117306515D01*
X92233333Y-117318783D01*
X92052694Y-117411254D01*
X91813419Y-117578151D01*
X91648838Y-117712992D01*
X91395105Y-117921231D01*
X91163961Y-118063564D01*
X90924825Y-118141840D01*
X90647119Y-118157908D01*
X90300262Y-118113618D01*
X89853674Y-118010817D01*
X89291388Y-117855548D01*
X88763236Y-117689202D01*
X88220312Y-117491830D01*
X87686328Y-117274868D01*
X87184996Y-117049753D01*
X86740028Y-116827924D01*
X86375136Y-116620817D01*
X86114033Y-116439870D01*
X85980430Y-116296520D01*
X85968000Y-116252540D01*
X85897825Y-116196473D01*
X85735167Y-116220094D01*
X85377622Y-116268601D01*
X84990262Y-116246585D01*
X84623975Y-116164805D01*
X84329649Y-116034018D01*
X84172372Y-115889749D01*
X84128355Y-115757154D01*
X84081188Y-115519705D01*
X84056664Y-115350272D01*
X84052748Y-114882509D01*
X84171117Y-114528073D01*
X84410730Y-114289813D01*
X84451721Y-114267007D01*
X84737751Y-114162112D01*
X85014640Y-114171181D01*
X85343568Y-114297387D01*
X85378706Y-114315054D01*
X85577784Y-114399627D01*
X85697932Y-114417892D01*
X85714000Y-114399721D01*
X85796542Y-114362629D01*
X86036137Y-114335287D01*
X86420734Y-114318572D01*
X86899333Y-114313334D01*
X88084667Y-114313334D01*
X88084667Y-114924266D01*
X88952500Y-114868381D01*
X89453777Y-114834500D01*
X89810547Y-114802634D01*
X90047356Y-114765068D01*
X90188750Y-114714087D01*
X90259274Y-114641978D01*
X90283476Y-114541026D01*
X90286000Y-114449288D01*
X90311746Y-114254508D01*
X90419172Y-114125599D01*
X90593959Y-114028508D01*
X90931079Y-113927466D01*
X91144292Y-113934887D01*
X91322348Y-114006647D01*
X91383353Y-114153341D01*
X91386667Y-114235394D01*
X91401935Y-114397488D01*
X91480941Y-114466308D01*
X91673483Y-114480229D01*
X91704167Y-114480053D01*
X92050132Y-114464027D01*
X92423504Y-114425826D01*
X92782286Y-114372402D01*
X93084478Y-114310708D01*
X93288081Y-114247696D01*
X93348678Y-114207816D01*
X93403951Y-114159697D01*
X93417370Y-114242020D01*
X93455444Y-114390166D01*
X93552510Y-114627320D01*
X93650906Y-114830004D01*
X93834588Y-115328792D01*
X93855788Y-115798625D01*
X94116968Y-115798625D01*
X94131726Y-115595983D01*
X94157711Y-115268186D01*
X94228731Y-115038408D01*
X94363874Y-114839715D01*
X94536455Y-114567195D01*
X94638213Y-114270268D01*
X94652062Y-114069975D01*
X94346020Y-114069975D01*
X94337710Y-114281488D01*
X94270865Y-114515685D01*
X94163717Y-114713822D01*
X94034500Y-114817153D01*
X94003998Y-114821334D01*
X93994069Y-114763199D01*
X94072574Y-114618999D01*
X94104579Y-114573838D01*
X94241068Y-114291954D01*
X94241661Y-114271569D01*
X93978865Y-114271569D01*
X93922702Y-114417818D01*
X93832942Y-114482667D01*
X93770875Y-114411894D01*
X93757333Y-114318330D01*
X93795693Y-114159563D01*
X93880810Y-114087580D01*
X93963425Y-114134979D01*
X93978865Y-114271569D01*
X94241661Y-114271569D01*
X94246344Y-114110733D01*
X94239197Y-113968137D01*
X94277564Y-113939892D01*
X94346020Y-114069975D01*
X94652062Y-114069975D01*
X94656683Y-114003146D01*
X94598823Y-113847667D01*
X94096000Y-113847667D01*
X94053667Y-113890000D01*
X94011333Y-113847667D01*
X94053667Y-113805334D01*
X94096000Y-113847667D01*
X94598823Y-113847667D01*
X94594614Y-113836357D01*
X94459865Y-113732804D01*
X93910809Y-113732804D01*
X93893773Y-113780208D01*
X93804651Y-113850360D01*
X93656252Y-113953938D01*
X93597939Y-113950674D01*
X93588000Y-113847667D01*
X93660091Y-113745475D01*
X93778500Y-113723360D01*
X93910809Y-113732804D01*
X94459865Y-113732804D01*
X94423958Y-113705210D01*
X94166064Y-113577492D01*
X93900100Y-113487978D01*
X93752925Y-113466667D01*
X93674013Y-113454674D01*
X93652012Y-113394902D01*
X93689990Y-113251658D01*
X93791016Y-112989251D01*
X93794785Y-112979834D01*
X93994340Y-112310419D01*
X94033885Y-111815667D01*
X93769910Y-111815667D01*
X93746382Y-112072634D01*
X93692210Y-112369554D01*
X93617045Y-112677174D01*
X93530536Y-112966245D01*
X93442334Y-113207515D01*
X93362089Y-113371733D01*
X93299451Y-113429647D01*
X93264071Y-113352007D01*
X93263805Y-113349733D01*
X93235944Y-113105800D01*
X92503621Y-113165220D01*
X92028698Y-113206691D01*
X91697471Y-113245825D01*
X91484573Y-113289855D01*
X91364636Y-113346013D01*
X91312294Y-113421533D01*
X91302000Y-113507843D01*
X91270070Y-113646032D01*
X91142641Y-113665879D01*
X91104675Y-113659464D01*
X90899701Y-113667213D01*
X90642396Y-113734117D01*
X90586335Y-113755872D01*
X90355679Y-113850315D01*
X90242162Y-113871307D01*
X90204479Y-113805140D01*
X90201326Y-113638106D01*
X90201333Y-113628099D01*
X90201333Y-113366197D01*
X89375833Y-113421363D01*
X88883452Y-113456151D01*
X88535236Y-113488986D01*
X88306286Y-113527403D01*
X88171700Y-113578935D01*
X88106578Y-113651120D01*
X88086019Y-113751490D01*
X88084667Y-113812061D01*
X88084667Y-114059334D01*
X85788291Y-114059334D01*
X85841736Y-113699500D01*
X85847351Y-113360053D01*
X85786650Y-112874171D01*
X85705002Y-112450667D01*
X85594413Y-111884005D01*
X85539473Y-111437492D01*
X85544384Y-111069950D01*
X85613351Y-110740197D01*
X85750579Y-110407054D01*
X85950535Y-110045663D01*
X86205525Y-109656423D01*
X86444628Y-109364581D01*
X86624167Y-109211799D01*
X86830466Y-109075395D01*
X86880045Y-109001088D01*
X86770786Y-108981897D01*
X86560667Y-109002462D01*
X86349416Y-109025793D01*
X86231133Y-109029145D01*
X86222000Y-109025125D01*
X86296219Y-108934129D01*
X86492063Y-108812150D01*
X86769314Y-108678007D01*
X87087755Y-108550522D01*
X87407167Y-108448515D01*
X87508578Y-108423042D01*
X88160155Y-108273202D01*
X89023800Y-108605101D01*
X89429773Y-108767747D01*
X89711813Y-108901356D01*
X89907332Y-109028301D01*
X90053739Y-109170953D01*
X90127607Y-109265202D01*
X90278055Y-109453904D01*
X90367097Y-109512914D01*
X90419599Y-109458250D01*
X90421151Y-109454290D01*
X90447696Y-109263756D01*
X90434341Y-109104921D01*
X90436538Y-108937728D01*
X90517779Y-108894667D01*
X90759585Y-108954478D01*
X91075667Y-109119276D01*
X91428225Y-109367111D01*
X91643998Y-109548740D01*
X91867141Y-109746488D01*
X91992764Y-109840854D01*
X92048878Y-109842103D01*
X92063497Y-109760499D01*
X92064000Y-109702642D01*
X92000065Y-109385979D01*
X91802843Y-109023155D01*
X91464214Y-108599828D01*
X91398776Y-108528123D01*
X91197649Y-108308578D01*
X91105554Y-108196174D01*
X91115676Y-108174550D01*
X91221198Y-108227345D01*
X91289693Y-108266266D01*
X91522945Y-108427621D01*
X91711964Y-108603482D01*
X91725211Y-108619500D01*
X91859932Y-108757894D01*
X91955112Y-108810000D01*
X92094365Y-108872888D01*
X92306889Y-109042739D01*
X92563978Y-109291332D01*
X92836926Y-109590448D01*
X93097026Y-109911866D01*
X93153647Y-109988225D01*
X93470246Y-110478128D01*
X93665117Y-110930011D01*
X93757220Y-111400092D01*
X93769910Y-111815667D01*
X94033885Y-111815667D01*
X94047998Y-111639102D01*
X93958446Y-110922759D01*
X93930670Y-110799667D01*
X93769315Y-110122334D01*
X94015047Y-110418667D01*
X94163294Y-110609739D01*
X94252060Y-110747831D01*
X94263056Y-110778500D01*
X94331616Y-110839210D01*
X94359179Y-110842000D01*
X94412866Y-110777275D01*
X94396565Y-110618328D01*
X94324227Y-110418004D01*
X94209803Y-110229146D01*
X94191539Y-110207000D01*
X94007202Y-109982766D01*
X93924900Y-109859785D01*
X93947352Y-109846379D01*
X94077278Y-109950865D01*
X94120853Y-109990776D01*
X94318601Y-110148597D01*
X94421153Y-110174775D01*
X94425359Y-110079797D01*
X94328066Y-109874151D01*
X94211314Y-109689648D01*
X93856959Y-109196564D01*
X93530298Y-108820054D01*
X93188662Y-108522674D01*
X92789381Y-108266976D01*
X92319321Y-108029274D01*
X91904774Y-107844155D01*
X91487471Y-107672461D01*
X91124320Y-107536897D01*
X90929321Y-107474685D01*
X90427001Y-107335027D01*
X90695167Y-107225604D01*
X90874719Y-107145579D01*
X90961790Y-107093492D01*
X90963333Y-107090060D01*
X90885246Y-107077991D01*
X90677292Y-107068631D01*
X90378935Y-107063508D01*
X90264833Y-107063005D01*
X89840610Y-107053394D01*
X89392836Y-107029054D01*
X89016640Y-106995195D01*
X89008345Y-106994195D01*
X88555929Y-106969761D01*
X88004108Y-106988270D01*
X88004108Y-106988270D01*
G37*
X88004108Y-106988270D02*
X87588289Y-107026540D01*
X87192299Y-107075770D01*
X86911246Y-107126918D01*
X86691656Y-107199539D01*
X86480055Y-107313188D01*
X86222967Y-107487419D01*
X86112509Y-107566214D01*
X85757936Y-107813396D01*
X85382037Y-108064817D01*
X85057453Y-108272053D01*
X85013243Y-108299019D01*
X84567158Y-108648177D01*
X84165202Y-109109795D01*
X83851405Y-109626999D01*
X83710867Y-109981354D01*
X83615918Y-110418805D01*
X83554303Y-110956308D01*
X83529177Y-111527295D01*
X83543697Y-112065195D01*
X83593105Y-112465149D01*
X83696259Y-112837945D01*
X83854149Y-113246918D01*
X83987453Y-113518956D01*
X84136137Y-113795380D01*
X84206254Y-113965784D01*
X84207351Y-114068745D01*
X84148978Y-114142844D01*
X84143101Y-114147789D01*
X83925109Y-114427469D01*
X83794499Y-114806784D01*
X83767139Y-115092296D01*
X83817781Y-115619778D01*
X83974176Y-116018093D01*
X84245345Y-116296431D01*
X84640309Y-116463977D01*
X85168087Y-116529919D01*
X85178959Y-116530234D01*
X85522041Y-116552842D01*
X85788751Y-116614444D01*
X86060188Y-116739455D01*
X86260232Y-116855766D01*
X87223089Y-117365548D01*
X88333163Y-117820923D01*
X89575432Y-118215971D01*
X90001888Y-118329561D01*
X90320916Y-118406968D01*
X90540366Y-118442607D01*
X90723958Y-118439511D01*
X90935413Y-118400714D01*
X91030842Y-118378540D01*
X91249381Y-118286992D01*
X91520030Y-118120264D01*
X91708907Y-117976065D01*
X91959083Y-117783287D01*
X92191621Y-117634185D01*
X92318732Y-117574869D01*
X92596441Y-117449991D01*
X92939532Y-117240504D01*
X93296608Y-116983950D01*
X93616275Y-116717875D01*
X93847135Y-116479822D01*
X93882631Y-116432457D01*
X94035724Y-116164499D01*
X94110857Y-115882543D01*
X94116968Y-115798625D01*
X93855788Y-115798625D01*
X93714370Y-116231324D01*
X93675470Y-116298464D01*
X93503780Y-116495688D01*
X93228076Y-116729974D01*
X92897641Y-116966452D01*
X92561758Y-117170255D01*
X92269710Y-117306515D01*
X92233333Y-117318783D01*
X92052694Y-117411254D01*
X91813419Y-117578151D01*
X91648838Y-117712992D01*
X91395105Y-117921231D01*
X91163961Y-118063564D01*
X90924825Y-118141840D01*
X90647119Y-118157908D01*
X90300262Y-118113618D01*
X89853674Y-118010817D01*
X89291388Y-117855548D01*
X88763236Y-117689202D01*
X88220312Y-117491830D01*
X87686328Y-117274868D01*
X87184996Y-117049753D01*
X86740028Y-116827924D01*
X86375136Y-116620817D01*
X86114033Y-116439870D01*
X85980430Y-116296520D01*
X85968000Y-116252540D01*
X85897825Y-116196473D01*
X85735167Y-116220094D01*
X85377622Y-116268601D01*
X84990262Y-116246585D01*
X84623975Y-116164805D01*
X84329649Y-116034018D01*
X84172372Y-115889749D01*
X84128355Y-115757154D01*
X84081188Y-115519705D01*
X84056664Y-115350272D01*
X84052748Y-114882509D01*
X84171117Y-114528073D01*
X84410730Y-114289813D01*
X84451721Y-114267007D01*
X84737751Y-114162112D01*
X85014640Y-114171181D01*
X85343568Y-114297387D01*
X85378706Y-114315054D01*
X85577784Y-114399627D01*
X85697932Y-114417892D01*
X85714000Y-114399721D01*
X85796542Y-114362629D01*
X86036137Y-114335287D01*
X86420734Y-114318572D01*
X86899333Y-114313334D01*
X88084667Y-114313334D01*
X88084667Y-114924266D01*
X88952500Y-114868381D01*
X89453777Y-114834500D01*
X89810547Y-114802634D01*
X90047356Y-114765068D01*
X90188750Y-114714087D01*
X90259274Y-114641978D01*
X90283476Y-114541026D01*
X90286000Y-114449288D01*
X90311746Y-114254508D01*
X90419172Y-114125599D01*
X90593959Y-114028508D01*
X90931079Y-113927466D01*
X91144292Y-113934887D01*
X91322348Y-114006647D01*
X91383353Y-114153341D01*
X91386667Y-114235394D01*
X91401935Y-114397488D01*
X91480941Y-114466308D01*
X91673483Y-114480229D01*
X91704167Y-114480053D01*
X92050132Y-114464027D01*
X92423504Y-114425826D01*
X92782286Y-114372402D01*
X93084478Y-114310708D01*
X93288081Y-114247696D01*
X93348678Y-114207816D01*
X93403951Y-114159697D01*
X93417370Y-114242020D01*
X93455444Y-114390166D01*
X93552510Y-114627320D01*
X93650906Y-114830004D01*
X93834588Y-115328792D01*
X93855788Y-115798625D01*
X94116968Y-115798625D01*
X94131726Y-115595983D01*
X94157711Y-115268186D01*
X94228731Y-115038408D01*
X94363874Y-114839715D01*
X94536455Y-114567195D01*
X94638213Y-114270268D01*
X94652062Y-114069975D01*
X94346020Y-114069975D01*
X94337710Y-114281488D01*
X94270865Y-114515685D01*
X94163717Y-114713822D01*
X94034500Y-114817153D01*
X94003998Y-114821334D01*
X93994069Y-114763199D01*
X94072574Y-114618999D01*
X94104579Y-114573838D01*
X94241068Y-114291954D01*
X94241661Y-114271569D01*
X93978865Y-114271569D01*
X93922702Y-114417818D01*
X93832942Y-114482667D01*
X93770875Y-114411894D01*
X93757333Y-114318330D01*
X93795693Y-114159563D01*
X93880810Y-114087580D01*
X93963425Y-114134979D01*
X93978865Y-114271569D01*
X94241661Y-114271569D01*
X94246344Y-114110733D01*
X94239197Y-113968137D01*
X94277564Y-113939892D01*
X94346020Y-114069975D01*
X94652062Y-114069975D01*
X94656683Y-114003146D01*
X94598823Y-113847667D01*
X94096000Y-113847667D01*
X94053667Y-113890000D01*
X94011333Y-113847667D01*
X94053667Y-113805334D01*
X94096000Y-113847667D01*
X94598823Y-113847667D01*
X94594614Y-113836357D01*
X94459865Y-113732804D01*
X93910809Y-113732804D01*
X93893773Y-113780208D01*
X93804651Y-113850360D01*
X93656252Y-113953938D01*
X93597939Y-113950674D01*
X93588000Y-113847667D01*
X93660091Y-113745475D01*
X93778500Y-113723360D01*
X93910809Y-113732804D01*
X94459865Y-113732804D01*
X94423958Y-113705210D01*
X94166064Y-113577492D01*
X93900100Y-113487978D01*
X93752925Y-113466667D01*
X93674013Y-113454674D01*
X93652012Y-113394902D01*
X93689990Y-113251658D01*
X93791016Y-112989251D01*
X93794785Y-112979834D01*
X93994340Y-112310419D01*
X94033885Y-111815667D01*
X93769910Y-111815667D01*
X93746382Y-112072634D01*
X93692210Y-112369554D01*
X93617045Y-112677174D01*
X93530536Y-112966245D01*
X93442334Y-113207515D01*
X93362089Y-113371733D01*
X93299451Y-113429647D01*
X93264071Y-113352007D01*
X93263805Y-113349733D01*
X93235944Y-113105800D01*
X92503621Y-113165220D01*
X92028698Y-113206691D01*
X91697471Y-113245825D01*
X91484573Y-113289855D01*
X91364636Y-113346013D01*
X91312294Y-113421533D01*
X91302000Y-113507843D01*
X91270070Y-113646032D01*
X91142641Y-113665879D01*
X91104675Y-113659464D01*
X90899701Y-113667213D01*
X90642396Y-113734117D01*
X90586335Y-113755872D01*
X90355679Y-113850315D01*
X90242162Y-113871307D01*
X90204479Y-113805140D01*
X90201326Y-113638106D01*
X90201333Y-113628099D01*
X90201333Y-113366197D01*
X89375833Y-113421363D01*
X88883452Y-113456151D01*
X88535236Y-113488986D01*
X88306286Y-113527403D01*
X88171700Y-113578935D01*
X88106578Y-113651120D01*
X88086019Y-113751490D01*
X88084667Y-113812061D01*
X88084667Y-114059334D01*
X85788291Y-114059334D01*
X85841736Y-113699500D01*
X85847351Y-113360053D01*
X85786650Y-112874171D01*
X85705002Y-112450667D01*
X85594413Y-111884005D01*
X85539473Y-111437492D01*
X85544384Y-111069950D01*
X85613351Y-110740197D01*
X85750579Y-110407054D01*
X85950535Y-110045663D01*
X86205525Y-109656423D01*
X86444628Y-109364581D01*
X86624167Y-109211799D01*
X86830466Y-109075395D01*
X86880045Y-109001088D01*
X86770786Y-108981897D01*
X86560667Y-109002462D01*
X86349416Y-109025793D01*
X86231133Y-109029145D01*
X86222000Y-109025125D01*
X86296219Y-108934129D01*
X86492063Y-108812150D01*
X86769314Y-108678007D01*
X87087755Y-108550522D01*
X87407167Y-108448515D01*
X87508578Y-108423042D01*
X88160155Y-108273202D01*
X89023800Y-108605101D01*
X89429773Y-108767747D01*
X89711813Y-108901356D01*
X89907332Y-109028301D01*
X90053739Y-109170953D01*
X90127607Y-109265202D01*
X90278055Y-109453904D01*
X90367097Y-109512914D01*
X90419599Y-109458250D01*
X90421151Y-109454290D01*
X90447696Y-109263756D01*
X90434341Y-109104921D01*
X90436538Y-108937728D01*
X90517779Y-108894667D01*
X90759585Y-108954478D01*
X91075667Y-109119276D01*
X91428225Y-109367111D01*
X91643998Y-109548740D01*
X91867141Y-109746488D01*
X91992764Y-109840854D01*
X92048878Y-109842103D01*
X92063497Y-109760499D01*
X92064000Y-109702642D01*
X92000065Y-109385979D01*
X91802843Y-109023155D01*
X91464214Y-108599828D01*
X91398776Y-108528123D01*
X91197649Y-108308578D01*
X91105554Y-108196174D01*
X91115676Y-108174550D01*
X91221198Y-108227345D01*
X91289693Y-108266266D01*
X91522945Y-108427621D01*
X91711964Y-108603482D01*
X91725211Y-108619500D01*
X91859932Y-108757894D01*
X91955112Y-108810000D01*
X92094365Y-108872888D01*
X92306889Y-109042739D01*
X92563978Y-109291332D01*
X92836926Y-109590448D01*
X93097026Y-109911866D01*
X93153647Y-109988225D01*
X93470246Y-110478128D01*
X93665117Y-110930011D01*
X93757220Y-111400092D01*
X93769910Y-111815667D01*
X94033885Y-111815667D01*
X94047998Y-111639102D01*
X93958446Y-110922759D01*
X93930670Y-110799667D01*
X93769315Y-110122334D01*
X94015047Y-110418667D01*
X94163294Y-110609739D01*
X94252060Y-110747831D01*
X94263056Y-110778500D01*
X94331616Y-110839210D01*
X94359179Y-110842000D01*
X94412866Y-110777275D01*
X94396565Y-110618328D01*
X94324227Y-110418004D01*
X94209803Y-110229146D01*
X94191539Y-110207000D01*
X94007202Y-109982766D01*
X93924900Y-109859785D01*
X93947352Y-109846379D01*
X94077278Y-109950865D01*
X94120853Y-109990776D01*
X94318601Y-110148597D01*
X94421153Y-110174775D01*
X94425359Y-110079797D01*
X94328066Y-109874151D01*
X94211314Y-109689648D01*
X93856959Y-109196564D01*
X93530298Y-108820054D01*
X93188662Y-108522674D01*
X92789381Y-108266976D01*
X92319321Y-108029274D01*
X91904774Y-107844155D01*
X91487471Y-107672461D01*
X91124320Y-107536897D01*
X90929321Y-107474685D01*
X90427001Y-107335027D01*
X90695167Y-107225604D01*
X90874719Y-107145579D01*
X90961790Y-107093492D01*
X90963333Y-107090060D01*
X90885246Y-107077991D01*
X90677292Y-107068631D01*
X90378935Y-107063508D01*
X90264833Y-107063005D01*
X89840610Y-107053394D01*
X89392836Y-107029054D01*
X89016640Y-106995195D01*
X89008345Y-106994195D01*
X88555929Y-106969761D01*
X88004108Y-106988270D01*
G36*
X90533377Y-116232360D02*
X90163281Y-116405963D01*
X89926167Y-116580332D01*
X89808571Y-116714780D01*
X89808599Y-116826522D01*
X89940162Y-116929979D01*
X90217170Y-117039573D01*
X90434167Y-117106984D01*
X90753064Y-117201933D01*
X91012685Y-117280765D01*
X91167125Y-117329501D01*
X91183873Y-117335326D01*
X91264919Y-117283566D01*
X91375689Y-117116275D01*
X91217333Y-117116275D01*
X91203759Y-117185608D01*
X91141779Y-117209180D01*
X90999504Y-117183647D01*
X90745046Y-117105668D01*
X90574482Y-117048892D01*
X90258133Y-116938009D01*
X90079305Y-116859000D01*
X90013192Y-116795538D01*
X90034985Y-116731296D01*
X90056434Y-116707947D01*
X90278273Y-116593118D01*
X90565444Y-116579255D01*
X90850546Y-116662178D01*
X91003578Y-116766705D01*
X91149926Y-116944769D01*
X91216896Y-117106326D01*
X91217333Y-117116275D01*
X91375689Y-117116275D01*
X91377357Y-117113756D01*
X91466345Y-116930831D01*
X91655277Y-116491647D01*
X91477744Y-116314114D01*
X91231330Y-116179449D01*
X90902967Y-116154527D01*
X90533377Y-116232360D01*
X90533377Y-116232360D01*
G37*
X90533377Y-116232360D02*
X90163281Y-116405963D01*
X89926167Y-116580332D01*
X89808571Y-116714780D01*
X89808599Y-116826522D01*
X89940162Y-116929979D01*
X90217170Y-117039573D01*
X90434167Y-117106984D01*
X90753064Y-117201933D01*
X91012685Y-117280765D01*
X91167125Y-117329501D01*
X91183873Y-117335326D01*
X91264919Y-117283566D01*
X91375689Y-117116275D01*
X91217333Y-117116275D01*
X91203759Y-117185608D01*
X91141779Y-117209180D01*
X90999504Y-117183647D01*
X90745046Y-117105668D01*
X90574482Y-117048892D01*
X90258133Y-116938009D01*
X90079305Y-116859000D01*
X90013192Y-116795538D01*
X90034985Y-116731296D01*
X90056434Y-116707947D01*
X90278273Y-116593118D01*
X90565444Y-116579255D01*
X90850546Y-116662178D01*
X91003578Y-116766705D01*
X91149926Y-116944769D01*
X91216896Y-117106326D01*
X91217333Y-117116275D01*
X91375689Y-117116275D01*
X91377357Y-117113756D01*
X91466345Y-116930831D01*
X91655277Y-116491647D01*
X91477744Y-116314114D01*
X91231330Y-116179449D01*
X90902967Y-116154527D01*
X90533377Y-116232360D01*
G36*
X85089728Y-114433507D02*
X84781609Y-114562327D01*
X84598082Y-114781998D01*
X84546415Y-115061268D01*
X84633878Y-115368886D01*
X84813831Y-115619638D01*
X85022437Y-115823970D01*
X85165612Y-115907847D01*
X85281014Y-115885154D01*
X85358400Y-115820400D01*
X85433667Y-115666795D01*
X85465951Y-115460567D01*
X85491491Y-115215535D01*
X85536161Y-115038196D01*
X85544799Y-114826922D01*
X85535741Y-114800109D01*
X85327762Y-114800109D01*
X85283606Y-115023469D01*
X85261275Y-115081510D01*
X85192827Y-115300519D01*
X85177822Y-115461806D01*
X85181740Y-115477558D01*
X85182413Y-115559512D01*
X85109196Y-115542638D01*
X85001871Y-115453617D01*
X84900218Y-115319130D01*
X84876184Y-115272614D01*
X84815041Y-115005280D01*
X84890504Y-114804356D01*
X85059177Y-114706248D01*
X85253654Y-114695672D01*
X85327762Y-114800109D01*
X85535741Y-114800109D01*
X85477438Y-114627534D01*
X85368550Y-114459170D01*
X85232918Y-114414083D01*
X85089728Y-114433507D01*
X85089728Y-114433507D01*
G37*
X85089728Y-114433507D02*
X84781609Y-114562327D01*
X84598082Y-114781998D01*
X84546415Y-115061268D01*
X84633878Y-115368886D01*
X84813831Y-115619638D01*
X85022437Y-115823970D01*
X85165612Y-115907847D01*
X85281014Y-115885154D01*
X85358400Y-115820400D01*
X85433667Y-115666795D01*
X85465951Y-115460567D01*
X85491491Y-115215535D01*
X85536161Y-115038196D01*
X85544799Y-114826922D01*
X85535741Y-114800109D01*
X85327762Y-114800109D01*
X85283606Y-115023469D01*
X85261275Y-115081510D01*
X85192827Y-115300519D01*
X85177822Y-115461806D01*
X85181740Y-115477558D01*
X85182413Y-115559512D01*
X85109196Y-115542638D01*
X85001871Y-115453617D01*
X84900218Y-115319130D01*
X84876184Y-115272614D01*
X84815041Y-115005280D01*
X84890504Y-114804356D01*
X85059177Y-114706248D01*
X85253654Y-114695672D01*
X85327762Y-114800109D01*
X85535741Y-114800109D01*
X85477438Y-114627534D01*
X85368550Y-114459170D01*
X85232918Y-114414083D01*
X85089728Y-114433507D01*
G36*
X90425990Y-115327578D02*
X90416449Y-115335818D01*
X90393095Y-115443374D01*
X90492682Y-115546700D01*
X90677701Y-115654759D01*
X90792433Y-115638102D01*
X90832753Y-115589127D01*
X90817352Y-115484982D01*
X90701558Y-115380593D01*
X90549671Y-115315083D01*
X90425990Y-115327578D01*
X90425990Y-115327578D01*
G37*
X90425990Y-115327578D02*
X90416449Y-115335818D01*
X90393095Y-115443374D01*
X90492682Y-115546700D01*
X90677701Y-115654759D01*
X90792433Y-115638102D01*
X90832753Y-115589127D01*
X90817352Y-115484982D01*
X90701558Y-115380593D01*
X90549671Y-115315083D01*
X90425990Y-115327578D01*
G36*
X91361842Y-115131122D02*
X91245105Y-115239366D01*
X91181093Y-115384985D01*
X91187656Y-115458784D01*
X91274739Y-115573663D01*
X91400647Y-115530482D01*
X91454400Y-115481734D01*
X91548052Y-115313572D01*
X91520652Y-115160921D01*
X91478159Y-115121885D01*
X91361842Y-115131122D01*
X91361842Y-115131122D01*
G37*
X91361842Y-115131122D02*
X91245105Y-115239366D01*
X91181093Y-115384985D01*
X91187656Y-115458784D01*
X91274739Y-115573663D01*
X91400647Y-115530482D01*
X91454400Y-115481734D01*
X91548052Y-115313572D01*
X91520652Y-115160921D01*
X91478159Y-115121885D01*
X91361842Y-115131122D01*
G36*
X90691764Y-114870767D02*
X90383920Y-114984379D01*
X90223241Y-115099608D01*
X90092767Y-115257873D01*
X90050695Y-115368859D01*
X90057657Y-115383212D01*
X90111721Y-115377226D01*
X90116667Y-115342200D01*
X90193784Y-115191861D01*
X90395867Y-115064467D01*
X90679015Y-114970404D01*
X90999329Y-114920060D01*
X91312906Y-114923819D01*
X91575847Y-114992070D01*
X91582733Y-114995338D01*
X91709741Y-115053785D01*
X91697774Y-115029023D01*
X91598333Y-114946338D01*
X91360429Y-114844896D01*
X91037753Y-114821989D01*
X90691764Y-114870767D01*
X90691764Y-114870767D01*
G37*
X90691764Y-114870767D02*
X90383920Y-114984379D01*
X90223241Y-115099608D01*
X90092767Y-115257873D01*
X90050695Y-115368859D01*
X90057657Y-115383212D01*
X90111721Y-115377226D01*
X90116667Y-115342200D01*
X90193784Y-115191861D01*
X90395867Y-115064467D01*
X90679015Y-114970404D01*
X90999329Y-114920060D01*
X91312906Y-114923819D01*
X91575847Y-114992070D01*
X91582733Y-114995338D01*
X91709741Y-115053785D01*
X91697774Y-115029023D01*
X91598333Y-114946338D01*
X91360429Y-114844896D01*
X91037753Y-114821989D01*
X90691764Y-114870767D01*
G36*
X88666432Y-111658371D02*
X88392917Y-111802654D01*
X88350073Y-111826282D01*
X88044660Y-111994808D01*
X87860456Y-112101347D01*
X87772014Y-112168567D01*
X87753888Y-112219132D01*
X87780632Y-112275710D01*
X87803011Y-112313574D01*
X87861304Y-112369478D01*
X87964771Y-112363601D01*
X88146732Y-112286513D01*
X88424605Y-112137642D01*
X88692412Y-111988067D01*
X88894832Y-111873981D01*
X88993389Y-111817088D01*
X88996826Y-111814836D01*
X88990956Y-111733719D01*
X88965900Y-111656623D01*
X88920555Y-111594273D01*
X88831522Y-111591884D01*
X88666432Y-111658371D01*
X88666432Y-111658371D01*
G37*
X88666432Y-111658371D02*
X88392917Y-111802654D01*
X88350073Y-111826282D01*
X88044660Y-111994808D01*
X87860456Y-112101347D01*
X87772014Y-112168567D01*
X87753888Y-112219132D01*
X87780632Y-112275710D01*
X87803011Y-112313574D01*
X87861304Y-112369478D01*
X87964771Y-112363601D01*
X88146732Y-112286513D01*
X88424605Y-112137642D01*
X88692412Y-111988067D01*
X88894832Y-111873981D01*
X88993389Y-111817088D01*
X88996826Y-111814836D01*
X88990956Y-111733719D01*
X88965900Y-111656623D01*
X88920555Y-111594273D01*
X88831522Y-111591884D01*
X88666432Y-111658371D01*
G36*
X92209348Y-111571797D02*
X92121176Y-111638184D01*
X92131737Y-111723556D01*
X92261213Y-111783208D01*
X92470562Y-111822519D01*
X92764332Y-111892076D01*
X93023627Y-111996572D01*
X93089557Y-112036213D01*
X93256748Y-112128317D01*
X93361539Y-112140374D01*
X93364724Y-112137721D01*
X93413776Y-112030146D01*
X93332834Y-111906139D01*
X93185833Y-111790479D01*
X92951487Y-111669087D01*
X92676957Y-111587360D01*
X92412743Y-111552521D01*
X92209348Y-111571797D01*
X92209348Y-111571797D01*
G37*
X92209348Y-111571797D02*
X92121176Y-111638184D01*
X92131737Y-111723556D01*
X92261213Y-111783208D01*
X92470562Y-111822519D01*
X92764332Y-111892076D01*
X93023627Y-111996572D01*
X93089557Y-112036213D01*
X93256748Y-112128317D01*
X93361539Y-112140374D01*
X93364724Y-112137721D01*
X93413776Y-112030146D01*
X93332834Y-111906139D01*
X93185833Y-111790479D01*
X92951487Y-111669087D01*
X92676957Y-111587360D01*
X92412743Y-111552521D01*
X92209348Y-111571797D01*
M02*
