%FSLAX45Y45*%
G04 Gerber Fmt 4.5, Leading zero omitted, Abs format (unit mm)*
G04 Created by KiCad (PCBNEW 4.0.5) date 02/12/17 12:32:28*
%MOMM*%
%LPD*%
G01*
G04 APERTURE LIST*
%ADD10C,0.127000*%
%ADD11C,0.150000*%
%ADD12C,0.200000*%
%ADD13C,0.300000*%
G04 APERTURE END LIST*
D10*
D11*
X6710000Y-10290000D02*
X6710000Y-13490000D01*
X11510000Y-10290000D02*
X6710000Y-10290000D01*
X11510000Y-13490000D02*
X11510000Y-10290000D01*
X11510000Y-13490000D02*
X6710000Y-13490000D01*
D12*
X6850000Y-10430000D02*
X7170000Y-10750000D01*
X7170000Y-10430000D02*
X6850000Y-10750000D01*
X11050000Y-10430000D02*
X11370000Y-10750000D01*
X11370000Y-10430000D02*
X11050000Y-10750000D01*
D13*
X6973928Y-13963214D02*
X6973928Y-13663214D01*
X7045357Y-13663214D01*
X7088214Y-13677500D01*
X7116786Y-13706071D01*
X7131071Y-13734643D01*
X7145357Y-13791786D01*
X7145357Y-13834643D01*
X7131071Y-13891786D01*
X7116786Y-13920357D01*
X7088214Y-13948929D01*
X7045357Y-13963214D01*
X6973928Y-13963214D01*
X7273928Y-13963214D02*
X7273928Y-13763214D01*
X7273928Y-13820357D02*
X7288214Y-13791786D01*
X7302500Y-13777500D01*
X7331071Y-13763214D01*
X7359643Y-13763214D01*
X7459643Y-13963214D02*
X7459643Y-13763214D01*
X7459643Y-13663214D02*
X7445357Y-13677500D01*
X7459643Y-13691786D01*
X7473928Y-13677500D01*
X7459643Y-13663214D01*
X7459643Y-13691786D01*
X7645357Y-13963214D02*
X7616786Y-13948929D01*
X7602500Y-13920357D01*
X7602500Y-13663214D01*
X7802500Y-13963214D02*
X7773928Y-13948929D01*
X7759643Y-13920357D01*
X7759643Y-13663214D01*
X8145357Y-13963214D02*
X8145357Y-13663214D01*
X8245357Y-13877500D01*
X8345357Y-13663214D01*
X8345357Y-13963214D01*
X8616786Y-13963214D02*
X8616786Y-13806071D01*
X8602500Y-13777500D01*
X8573929Y-13763214D01*
X8516786Y-13763214D01*
X8488214Y-13777500D01*
X8616786Y-13948929D02*
X8588214Y-13963214D01*
X8516786Y-13963214D01*
X8488214Y-13948929D01*
X8473929Y-13920357D01*
X8473929Y-13891786D01*
X8488214Y-13863214D01*
X8516786Y-13848929D01*
X8588214Y-13848929D01*
X8616786Y-13834643D01*
X8759643Y-13763214D02*
X8759643Y-14063214D01*
X8759643Y-13777500D02*
X8788214Y-13763214D01*
X8845357Y-13763214D01*
X8873929Y-13777500D01*
X8888214Y-13791786D01*
X8902500Y-13820357D01*
X8902500Y-13906071D01*
X8888214Y-13934643D01*
X8873929Y-13948929D01*
X8845357Y-13963214D01*
X8788214Y-13963214D01*
X8759643Y-13948929D01*
X9031071Y-13934643D02*
X9045357Y-13948929D01*
X9031071Y-13963214D01*
X9016786Y-13948929D01*
X9031071Y-13934643D01*
X9031071Y-13963214D01*
X9031071Y-13777500D02*
X9045357Y-13791786D01*
X9031071Y-13806071D01*
X9016786Y-13791786D01*
X9031071Y-13777500D01*
X9031071Y-13806071D01*
X6382500Y-14297500D02*
X6702500Y-14617500D01*
X6702500Y-14297500D02*
X6382500Y-14617500D01*
X6945357Y-14293214D02*
X7131071Y-14293214D01*
X7031071Y-14407500D01*
X7073928Y-14407500D01*
X7102500Y-14421786D01*
X7116786Y-14436071D01*
X7131071Y-14464643D01*
X7131071Y-14536071D01*
X7116786Y-14564643D01*
X7102500Y-14578929D01*
X7073928Y-14593214D01*
X6988214Y-14593214D01*
X6959643Y-14578929D01*
X6945357Y-14564643D01*
X7259643Y-14564643D02*
X7273928Y-14578929D01*
X7259643Y-14593214D01*
X7245357Y-14578929D01*
X7259643Y-14564643D01*
X7259643Y-14593214D01*
X7388214Y-14321786D02*
X7402500Y-14307500D01*
X7431071Y-14293214D01*
X7502500Y-14293214D01*
X7531071Y-14307500D01*
X7545357Y-14321786D01*
X7559643Y-14350357D01*
X7559643Y-14378929D01*
X7545357Y-14421786D01*
X7373928Y-14593214D01*
X7559643Y-14593214D01*
X7745357Y-14293214D02*
X7773928Y-14293214D01*
X7802500Y-14307500D01*
X7816786Y-14321786D01*
X7831071Y-14350357D01*
X7845357Y-14407500D01*
X7845357Y-14478929D01*
X7831071Y-14536071D01*
X7816786Y-14564643D01*
X7802500Y-14578929D01*
X7773928Y-14593214D01*
X7745357Y-14593214D01*
X7716786Y-14578929D01*
X7702500Y-14564643D01*
X7688214Y-14536071D01*
X7673928Y-14478929D01*
X7673928Y-14407500D01*
X7688214Y-14350357D01*
X7702500Y-14321786D01*
X7716786Y-14307500D01*
X7745357Y-14293214D01*
X7973928Y-14593214D02*
X7973928Y-14393214D01*
X7973928Y-14421786D02*
X7988214Y-14407500D01*
X8016786Y-14393214D01*
X8059643Y-14393214D01*
X8088214Y-14407500D01*
X8102500Y-14436071D01*
X8102500Y-14593214D01*
X8102500Y-14436071D02*
X8116786Y-14407500D01*
X8145357Y-14393214D01*
X8188214Y-14393214D01*
X8216786Y-14407500D01*
X8231071Y-14436071D01*
X8231071Y-14593214D01*
X8373928Y-14593214D02*
X8373928Y-14393214D01*
X8373928Y-14421786D02*
X8388214Y-14407500D01*
X8416786Y-14393214D01*
X8459643Y-14393214D01*
X8488214Y-14407500D01*
X8502500Y-14436071D01*
X8502500Y-14593214D01*
X8502500Y-14436071D02*
X8516786Y-14407500D01*
X8545357Y-14393214D01*
X8588214Y-14393214D01*
X8616786Y-14407500D01*
X8631071Y-14436071D01*
X8631071Y-14593214D01*
X9216786Y-14278929D02*
X8959643Y-14664643D01*
X9602500Y-14293214D02*
X9631071Y-14293214D01*
X9659643Y-14307500D01*
X9673928Y-14321786D01*
X9688214Y-14350357D01*
X9702500Y-14407500D01*
X9702500Y-14478929D01*
X9688214Y-14536071D01*
X9673928Y-14564643D01*
X9659643Y-14578929D01*
X9631071Y-14593214D01*
X9602500Y-14593214D01*
X9573928Y-14578929D01*
X9559643Y-14564643D01*
X9545357Y-14536071D01*
X9531071Y-14478929D01*
X9531071Y-14407500D01*
X9545357Y-14350357D01*
X9559643Y-14321786D01*
X9573928Y-14307500D01*
X9602500Y-14293214D01*
X9831071Y-14564643D02*
X9845357Y-14578929D01*
X9831071Y-14593214D01*
X9816786Y-14578929D01*
X9831071Y-14564643D01*
X9831071Y-14593214D01*
X10131071Y-14593214D02*
X9959643Y-14593214D01*
X10045357Y-14593214D02*
X10045357Y-14293214D01*
X10016786Y-14336071D01*
X9988214Y-14364643D01*
X9959643Y-14378929D01*
X10245357Y-14321786D02*
X10259643Y-14307500D01*
X10288214Y-14293214D01*
X10359643Y-14293214D01*
X10388214Y-14307500D01*
X10402500Y-14321786D01*
X10416786Y-14350357D01*
X10416786Y-14378929D01*
X10402500Y-14421786D01*
X10231071Y-14593214D01*
X10416786Y-14593214D01*
X10673928Y-14293214D02*
X10616786Y-14293214D01*
X10588214Y-14307500D01*
X10573928Y-14321786D01*
X10545357Y-14364643D01*
X10531071Y-14421786D01*
X10531071Y-14536071D01*
X10545357Y-14564643D01*
X10559643Y-14578929D01*
X10588214Y-14593214D01*
X10645357Y-14593214D01*
X10673928Y-14578929D01*
X10688214Y-14564643D01*
X10702500Y-14536071D01*
X10702500Y-14464643D01*
X10688214Y-14436071D01*
X10673928Y-14421786D01*
X10645357Y-14407500D01*
X10588214Y-14407500D01*
X10559643Y-14421786D01*
X10545357Y-14436071D01*
X10531071Y-14464643D01*
X10816786Y-14293214D02*
X10816786Y-14350357D01*
X10931071Y-14293214D02*
X10931071Y-14350357D01*
X11373928Y-14707500D02*
X11359643Y-14693214D01*
X11331071Y-14650357D01*
X11316785Y-14621786D01*
X11302500Y-14578929D01*
X11288214Y-14507500D01*
X11288214Y-14450357D01*
X11302500Y-14378929D01*
X11316785Y-14336071D01*
X11331071Y-14307500D01*
X11359643Y-14264643D01*
X11373928Y-14250357D01*
X11473928Y-14321786D02*
X11488214Y-14307500D01*
X11516785Y-14293214D01*
X11588214Y-14293214D01*
X11616785Y-14307500D01*
X11631071Y-14321786D01*
X11645357Y-14350357D01*
X11645357Y-14378929D01*
X11631071Y-14421786D01*
X11459643Y-14593214D01*
X11645357Y-14593214D01*
X12002500Y-14593214D02*
X12002500Y-14293214D01*
X12131071Y-14593214D02*
X12131071Y-14436071D01*
X12116785Y-14407500D01*
X12088214Y-14393214D01*
X12045357Y-14393214D01*
X12016785Y-14407500D01*
X12002500Y-14421786D01*
X12316785Y-14593214D02*
X12288214Y-14578929D01*
X12273928Y-14564643D01*
X12259643Y-14536071D01*
X12259643Y-14450357D01*
X12273928Y-14421786D01*
X12288214Y-14407500D01*
X12316785Y-14393214D01*
X12359643Y-14393214D01*
X12388214Y-14407500D01*
X12402500Y-14421786D01*
X12416785Y-14450357D01*
X12416785Y-14536071D01*
X12402500Y-14564643D01*
X12388214Y-14578929D01*
X12359643Y-14593214D01*
X12316785Y-14593214D01*
X12588214Y-14593214D02*
X12559643Y-14578929D01*
X12545357Y-14550357D01*
X12545357Y-14293214D01*
X12816786Y-14578929D02*
X12788214Y-14593214D01*
X12731071Y-14593214D01*
X12702500Y-14578929D01*
X12688214Y-14550357D01*
X12688214Y-14436071D01*
X12702500Y-14407500D01*
X12731071Y-14393214D01*
X12788214Y-14393214D01*
X12816786Y-14407500D01*
X12831071Y-14436071D01*
X12831071Y-14464643D01*
X12688214Y-14493214D01*
X12945357Y-14578929D02*
X12973928Y-14593214D01*
X13031071Y-14593214D01*
X13059643Y-14578929D01*
X13073928Y-14550357D01*
X13073928Y-14536071D01*
X13059643Y-14507500D01*
X13031071Y-14493214D01*
X12988214Y-14493214D01*
X12959643Y-14478929D01*
X12945357Y-14450357D01*
X12945357Y-14436071D01*
X12959643Y-14407500D01*
X12988214Y-14393214D01*
X13031071Y-14393214D01*
X13059643Y-14407500D01*
X13173928Y-14707500D02*
X13188214Y-14693214D01*
X13216786Y-14650357D01*
X13231071Y-14621786D01*
X13245357Y-14578929D01*
X13259643Y-14507500D01*
X13259643Y-14450357D01*
X13245357Y-14378929D01*
X13231071Y-14336071D01*
X13216786Y-14307500D01*
X13188214Y-14264643D01*
X13173928Y-14250357D01*
X13716786Y-14707500D02*
X13702500Y-14693214D01*
X13673928Y-14650357D01*
X13659643Y-14621786D01*
X13645357Y-14578929D01*
X13631071Y-14507500D01*
X13631071Y-14450357D01*
X13645357Y-14378929D01*
X13659643Y-14336071D01*
X13673928Y-14307500D01*
X13702500Y-14264643D01*
X13716786Y-14250357D01*
X13831071Y-14393214D02*
X13831071Y-14593214D01*
X13831071Y-14421786D02*
X13845357Y-14407500D01*
X13873928Y-14393214D01*
X13916786Y-14393214D01*
X13945357Y-14407500D01*
X13959643Y-14436071D01*
X13959643Y-14593214D01*
X14145357Y-14593214D02*
X14116786Y-14578929D01*
X14102500Y-14564643D01*
X14088214Y-14536071D01*
X14088214Y-14450357D01*
X14102500Y-14421786D01*
X14116786Y-14407500D01*
X14145357Y-14393214D01*
X14188214Y-14393214D01*
X14216786Y-14407500D01*
X14231071Y-14421786D01*
X14245357Y-14450357D01*
X14245357Y-14536071D01*
X14231071Y-14564643D01*
X14216786Y-14578929D01*
X14188214Y-14593214D01*
X14145357Y-14593214D01*
X14331071Y-14393214D02*
X14445357Y-14393214D01*
X14373928Y-14293214D02*
X14373928Y-14550357D01*
X14388214Y-14578929D01*
X14416786Y-14593214D01*
X14445357Y-14593214D01*
X14773928Y-14393214D02*
X14773928Y-14693214D01*
X14773928Y-14407500D02*
X14802500Y-14393214D01*
X14859643Y-14393214D01*
X14888214Y-14407500D01*
X14902500Y-14421786D01*
X14916786Y-14450357D01*
X14916786Y-14536071D01*
X14902500Y-14564643D01*
X14888214Y-14578929D01*
X14859643Y-14593214D01*
X14802500Y-14593214D01*
X14773928Y-14578929D01*
X15088214Y-14593214D02*
X15059643Y-14578929D01*
X15045357Y-14550357D01*
X15045357Y-14293214D01*
X15331071Y-14593214D02*
X15331071Y-14436071D01*
X15316786Y-14407500D01*
X15288214Y-14393214D01*
X15231071Y-14393214D01*
X15202500Y-14407500D01*
X15331071Y-14578929D02*
X15302500Y-14593214D01*
X15231071Y-14593214D01*
X15202500Y-14578929D01*
X15188214Y-14550357D01*
X15188214Y-14521786D01*
X15202500Y-14493214D01*
X15231071Y-14478929D01*
X15302500Y-14478929D01*
X15331071Y-14464643D01*
X15431071Y-14393214D02*
X15545357Y-14393214D01*
X15473929Y-14293214D02*
X15473929Y-14550357D01*
X15488214Y-14578929D01*
X15516786Y-14593214D01*
X15545357Y-14593214D01*
X15759643Y-14578929D02*
X15731071Y-14593214D01*
X15673929Y-14593214D01*
X15645357Y-14578929D01*
X15631071Y-14550357D01*
X15631071Y-14436071D01*
X15645357Y-14407500D01*
X15673929Y-14393214D01*
X15731071Y-14393214D01*
X15759643Y-14407500D01*
X15773929Y-14436071D01*
X15773929Y-14464643D01*
X15631071Y-14493214D01*
X16031071Y-14593214D02*
X16031071Y-14293214D01*
X16031071Y-14578929D02*
X16002500Y-14593214D01*
X15945357Y-14593214D01*
X15916786Y-14578929D01*
X15902500Y-14564643D01*
X15888214Y-14536071D01*
X15888214Y-14450357D01*
X15902500Y-14421786D01*
X15916786Y-14407500D01*
X15945357Y-14393214D01*
X16002500Y-14393214D01*
X16031071Y-14407500D01*
X16145357Y-14707500D02*
X16159643Y-14693214D01*
X16188214Y-14650357D01*
X16202500Y-14621786D01*
X16216786Y-14578929D01*
X16231071Y-14507500D01*
X16231071Y-14450357D01*
X16216786Y-14378929D01*
X16202500Y-14336071D01*
X16188214Y-14307500D01*
X16159643Y-14264643D01*
X16145357Y-14250357D01*
M02*
