G04 #@! TF.FileFunction,Drawing*
%FSLAX46Y46*%
G04 Gerber Fmt 4.6, Leading zero omitted, Abs format (unit mm)*
G04 Created by KiCad (PCBNEW 4.0.5) date 02/22/17 23:49:27*
%MOMM*%
%LPD*%
G01*
G04 APERTURE LIST*
%ADD10C,0.100000*%
%ADD11C,0.150000*%
%ADD12C,0.300000*%
%ADD13C,0.400000*%
G04 APERTURE END LIST*
D10*
D11*
X79999600Y-155999600D02*
X79999600Y-187999600D01*
X187999600Y-187999600D01*
X187999600Y-155999600D01*
X79999600Y-155999600D01*
D10*
D11*
X10000000Y-10000000D02*
X10000000Y-189999600D01*
X189999600Y-189999600D01*
X189999600Y-10000000D01*
X10000000Y-10000000D01*
D10*
D11*
X12000000Y-12000000D02*
X12000000Y-187999600D01*
X187999600Y-187999600D01*
X187999600Y-12000000D01*
X12000000Y-12000000D01*
D10*
D11*
X60000000Y-12000000D02*
X60000000Y-10000000D01*
D10*
D11*
X110000000Y-12000000D02*
X110000000Y-10000000D01*
D10*
D11*
X160000000Y-12000000D02*
X160000000Y-10000000D01*
D10*
D11*
X35990476Y-11588095D02*
X35247619Y-11588095D01*
X35619048Y-11588095D02*
X35619048Y-10288095D01*
X35495238Y-10473810D01*
X35371429Y-10597619D01*
X35247619Y-10659524D01*
D10*
D11*
X85247619Y-10411905D02*
X85309524Y-10350000D01*
X85433333Y-10288095D01*
X85742857Y-10288095D01*
X85866667Y-10350000D01*
X85928571Y-10411905D01*
X85990476Y-10535714D01*
X85990476Y-10659524D01*
X85928571Y-10845238D01*
X85185714Y-11588095D01*
X85990476Y-11588095D01*
D10*
D11*
X135185714Y-10288095D02*
X135990476Y-10288095D01*
X135557143Y-10783333D01*
X135742857Y-10783333D01*
X135866667Y-10845238D01*
X135928571Y-10907143D01*
X135990476Y-11030952D01*
X135990476Y-11340476D01*
X135928571Y-11464286D01*
X135866667Y-11526190D01*
X135742857Y-11588095D01*
X135371429Y-11588095D01*
X135247619Y-11526190D01*
X135185714Y-11464286D01*
D10*
D11*
X185866667Y-10721429D02*
X185866667Y-11588095D01*
X185557143Y-10226190D02*
X185247619Y-11154762D01*
X186052381Y-11154762D01*
D10*
D11*
X60000000Y-187999600D02*
X60000000Y-189999600D01*
D10*
D11*
X110000000Y-187999600D02*
X110000000Y-189999600D01*
D10*
D11*
X160000000Y-187999600D02*
X160000000Y-189999600D01*
D10*
D11*
X35990476Y-189587695D02*
X35247619Y-189587695D01*
X35619048Y-189587695D02*
X35619048Y-188287695D01*
X35495238Y-188473410D01*
X35371429Y-188597219D01*
X35247619Y-188659124D01*
D10*
D11*
X85247619Y-188411505D02*
X85309524Y-188349600D01*
X85433333Y-188287695D01*
X85742857Y-188287695D01*
X85866667Y-188349600D01*
X85928571Y-188411505D01*
X85990476Y-188535314D01*
X85990476Y-188659124D01*
X85928571Y-188844838D01*
X85185714Y-189587695D01*
X85990476Y-189587695D01*
D10*
D11*
X135185714Y-188287695D02*
X135990476Y-188287695D01*
X135557143Y-188782933D01*
X135742857Y-188782933D01*
X135866667Y-188844838D01*
X135928571Y-188906743D01*
X135990476Y-189030552D01*
X135990476Y-189340076D01*
X135928571Y-189463886D01*
X135866667Y-189525790D01*
X135742857Y-189587695D01*
X135371429Y-189587695D01*
X135247619Y-189525790D01*
X135185714Y-189463886D01*
D10*
D11*
X185866667Y-188721029D02*
X185866667Y-189587695D01*
X185557143Y-188225790D02*
X185247619Y-189154362D01*
X186052381Y-189154362D01*
D10*
D11*
X10000000Y-60000000D02*
X12000000Y-60000000D01*
D10*
D11*
X10000000Y-110000000D02*
X12000000Y-110000000D01*
D10*
D11*
X10000000Y-160000000D02*
X12000000Y-160000000D01*
D10*
D11*
X10690476Y-35216667D02*
X11309524Y-35216667D01*
X10566667Y-35588095D02*
X11000000Y-34288095D01*
X11433333Y-35588095D01*
D10*
D11*
X11092857Y-84907143D02*
X11278571Y-84969048D01*
X11340476Y-85030952D01*
X11402381Y-85154762D01*
X11402381Y-85340476D01*
X11340476Y-85464286D01*
X11278571Y-85526190D01*
X11154762Y-85588095D01*
X10659524Y-85588095D01*
X10659524Y-84288095D01*
X11092857Y-84288095D01*
X11216667Y-84350000D01*
X11278571Y-84411905D01*
X11340476Y-84535714D01*
X11340476Y-84659524D01*
X11278571Y-84783333D01*
X11216667Y-84845238D01*
X11092857Y-84907143D01*
X10659524Y-84907143D01*
D10*
D11*
X11402381Y-135464286D02*
X11340476Y-135526190D01*
X11154762Y-135588095D01*
X11030952Y-135588095D01*
X10845238Y-135526190D01*
X10721429Y-135402381D01*
X10659524Y-135278571D01*
X10597619Y-135030952D01*
X10597619Y-134845238D01*
X10659524Y-134597619D01*
X10721429Y-134473810D01*
X10845238Y-134350000D01*
X11030952Y-134288095D01*
X11154762Y-134288095D01*
X11340476Y-134350000D01*
X11402381Y-134411905D01*
D10*
D11*
X10659524Y-185588095D02*
X10659524Y-184288095D01*
X10969048Y-184288095D01*
X11154762Y-184350000D01*
X11278571Y-184473810D01*
X11340476Y-184597619D01*
X11402381Y-184845238D01*
X11402381Y-185030952D01*
X11340476Y-185278571D01*
X11278571Y-185402381D01*
X11154762Y-185526190D01*
X10969048Y-185588095D01*
X10659524Y-185588095D01*
D10*
D11*
X189999600Y-60000000D02*
X187999600Y-60000000D01*
D10*
D11*
X189999600Y-110000000D02*
X187999600Y-110000000D01*
D10*
D11*
X189999600Y-160000000D02*
X187999600Y-160000000D01*
D10*
D11*
X188690076Y-35216667D02*
X189309124Y-35216667D01*
X188566267Y-35588095D02*
X188999600Y-34288095D01*
X189432933Y-35588095D01*
D10*
D11*
X189092457Y-84907143D02*
X189278171Y-84969048D01*
X189340076Y-85030952D01*
X189401981Y-85154762D01*
X189401981Y-85340476D01*
X189340076Y-85464286D01*
X189278171Y-85526190D01*
X189154362Y-85588095D01*
X188659124Y-85588095D01*
X188659124Y-84288095D01*
X189092457Y-84288095D01*
X189216267Y-84350000D01*
X189278171Y-84411905D01*
X189340076Y-84535714D01*
X189340076Y-84659524D01*
X189278171Y-84783333D01*
X189216267Y-84845238D01*
X189092457Y-84907143D01*
X188659124Y-84907143D01*
D10*
D11*
X189401981Y-135464286D02*
X189340076Y-135526190D01*
X189154362Y-135588095D01*
X189030552Y-135588095D01*
X188844838Y-135526190D01*
X188721029Y-135402381D01*
X188659124Y-135278571D01*
X188597219Y-135030952D01*
X188597219Y-134845238D01*
X188659124Y-134597619D01*
X188721029Y-134473810D01*
X188844838Y-134350000D01*
X189030552Y-134288095D01*
X189154362Y-134288095D01*
X189340076Y-134350000D01*
X189401981Y-134411905D01*
D10*
D11*
X188659124Y-185588095D02*
X188659124Y-184288095D01*
X188968648Y-184288095D01*
X189154362Y-184350000D01*
X189278171Y-184473810D01*
X189340076Y-184597619D01*
X189401981Y-184845238D01*
X189401981Y-185030952D01*
X189340076Y-185278571D01*
X189278171Y-185402381D01*
X189154362Y-185526190D01*
X188968648Y-185588095D01*
X188659124Y-185588095D01*
D10*
D11*
X103356743Y-183778171D02*
X103356743Y-182278171D01*
X103713886Y-182278171D01*
X103928171Y-182349600D01*
X104071029Y-182492457D01*
X104142457Y-182635314D01*
X104213886Y-182921029D01*
X104213886Y-183135314D01*
X104142457Y-183421029D01*
X104071029Y-183563886D01*
X103928171Y-183706743D01*
X103713886Y-183778171D01*
X103356743Y-183778171D01*
X105499600Y-183778171D02*
X105499600Y-182992457D01*
X105428171Y-182849600D01*
X105285314Y-182778171D01*
X104999600Y-182778171D01*
X104856743Y-182849600D01*
X105499600Y-183706743D02*
X105356743Y-183778171D01*
X104999600Y-183778171D01*
X104856743Y-183706743D01*
X104785314Y-183563886D01*
X104785314Y-183421029D01*
X104856743Y-183278171D01*
X104999600Y-183206743D01*
X105356743Y-183206743D01*
X105499600Y-183135314D01*
X105999600Y-182778171D02*
X106571029Y-182778171D01*
X106213886Y-182278171D02*
X106213886Y-183563886D01*
X106285314Y-183706743D01*
X106428172Y-183778171D01*
X106571029Y-183778171D01*
X107642457Y-183706743D02*
X107499600Y-183778171D01*
X107213886Y-183778171D01*
X107071029Y-183706743D01*
X106999600Y-183563886D01*
X106999600Y-182992457D01*
X107071029Y-182849600D01*
X107213886Y-182778171D01*
X107499600Y-182778171D01*
X107642457Y-182849600D01*
X107713886Y-182992457D01*
X107713886Y-183135314D01*
X106999600Y-183278171D01*
X108356743Y-183635314D02*
X108428171Y-183706743D01*
X108356743Y-183778171D01*
X108285314Y-183706743D01*
X108356743Y-183635314D01*
X108356743Y-183778171D01*
X108356743Y-182849600D02*
X108428171Y-182921029D01*
X108356743Y-182992457D01*
X108285314Y-182921029D01*
X108356743Y-182849600D01*
X108356743Y-182992457D01*
D10*
D11*
X79999600Y-184499600D02*
X187999600Y-184499600D01*
D10*
D11*
X81356743Y-186578171D02*
X81356743Y-185078171D01*
X82213886Y-186578171D02*
X81571029Y-185721029D01*
X82213886Y-185078171D02*
X81356743Y-185935314D01*
X82856743Y-186578171D02*
X82856743Y-185578171D01*
X82856743Y-185078171D02*
X82785314Y-185149600D01*
X82856743Y-185221029D01*
X82928171Y-185149600D01*
X82856743Y-185078171D01*
X82856743Y-185221029D01*
X84428172Y-186435314D02*
X84356743Y-186506743D01*
X84142457Y-186578171D01*
X83999600Y-186578171D01*
X83785315Y-186506743D01*
X83642457Y-186363886D01*
X83571029Y-186221029D01*
X83499600Y-185935314D01*
X83499600Y-185721029D01*
X83571029Y-185435314D01*
X83642457Y-185292457D01*
X83785315Y-185149600D01*
X83999600Y-185078171D01*
X84142457Y-185078171D01*
X84356743Y-185149600D01*
X84428172Y-185221029D01*
X85713886Y-186578171D02*
X85713886Y-185792457D01*
X85642457Y-185649600D01*
X85499600Y-185578171D01*
X85213886Y-185578171D01*
X85071029Y-185649600D01*
X85713886Y-186506743D02*
X85571029Y-186578171D01*
X85213886Y-186578171D01*
X85071029Y-186506743D01*
X84999600Y-186363886D01*
X84999600Y-186221029D01*
X85071029Y-186078171D01*
X85213886Y-186006743D01*
X85571029Y-186006743D01*
X85713886Y-185935314D01*
X87071029Y-186578171D02*
X87071029Y-185078171D01*
X87071029Y-186506743D02*
X86928172Y-186578171D01*
X86642458Y-186578171D01*
X86499600Y-186506743D01*
X86428172Y-186435314D01*
X86356743Y-186292457D01*
X86356743Y-185863886D01*
X86428172Y-185721029D01*
X86499600Y-185649600D01*
X86642458Y-185578171D01*
X86928172Y-185578171D01*
X87071029Y-185649600D01*
X88928172Y-185792457D02*
X89428172Y-185792457D01*
X89642458Y-186578171D02*
X88928172Y-186578171D01*
X88928172Y-185078171D01*
X89642458Y-185078171D01*
X90285315Y-186435314D02*
X90356743Y-186506743D01*
X90285315Y-186578171D01*
X90213886Y-186506743D01*
X90285315Y-186435314D01*
X90285315Y-186578171D01*
X90999601Y-186578171D02*
X90999601Y-185078171D01*
X91356744Y-185078171D01*
X91571029Y-185149600D01*
X91713887Y-185292457D01*
X91785315Y-185435314D01*
X91856744Y-185721029D01*
X91856744Y-185935314D01*
X91785315Y-186221029D01*
X91713887Y-186363886D01*
X91571029Y-186506743D01*
X91356744Y-186578171D01*
X90999601Y-186578171D01*
X92499601Y-186435314D02*
X92571029Y-186506743D01*
X92499601Y-186578171D01*
X92428172Y-186506743D01*
X92499601Y-186435314D01*
X92499601Y-186578171D01*
X93142458Y-186149600D02*
X93856744Y-186149600D01*
X92999601Y-186578171D02*
X93499601Y-185078171D01*
X93999601Y-186578171D01*
X94499601Y-186435314D02*
X94571029Y-186506743D01*
X94499601Y-186578171D01*
X94428172Y-186506743D01*
X94499601Y-186435314D01*
X94499601Y-186578171D01*
X97499601Y-186578171D02*
X97499601Y-185078171D01*
X97642458Y-186006743D02*
X98071029Y-186578171D01*
X98071029Y-185578171D02*
X97499601Y-186149600D01*
X98713887Y-186578171D02*
X98713887Y-185578171D01*
X98713887Y-185078171D02*
X98642458Y-185149600D01*
X98713887Y-185221029D01*
X98785315Y-185149600D01*
X98713887Y-185078171D01*
X98713887Y-185221029D01*
X100071030Y-186506743D02*
X99928173Y-186578171D01*
X99642459Y-186578171D01*
X99499601Y-186506743D01*
X99428173Y-186435314D01*
X99356744Y-186292457D01*
X99356744Y-185863886D01*
X99428173Y-185721029D01*
X99499601Y-185649600D01*
X99642459Y-185578171D01*
X99928173Y-185578171D01*
X100071030Y-185649600D01*
X101356744Y-186578171D02*
X101356744Y-185792457D01*
X101285315Y-185649600D01*
X101142458Y-185578171D01*
X100856744Y-185578171D01*
X100713887Y-185649600D01*
X101356744Y-186506743D02*
X101213887Y-186578171D01*
X100856744Y-186578171D01*
X100713887Y-186506743D01*
X100642458Y-186363886D01*
X100642458Y-186221029D01*
X100713887Y-186078171D01*
X100856744Y-186006743D01*
X101213887Y-186006743D01*
X101356744Y-185935314D01*
X102713887Y-186578171D02*
X102713887Y-185078171D01*
X102713887Y-186506743D02*
X102571030Y-186578171D01*
X102285316Y-186578171D01*
X102142458Y-186506743D01*
X102071030Y-186435314D01*
X101999601Y-186292457D01*
X101999601Y-185863886D01*
X102071030Y-185721029D01*
X102142458Y-185649600D01*
X102285316Y-185578171D01*
X102571030Y-185578171D01*
X102713887Y-185649600D01*
X105213887Y-185578171D02*
X105213887Y-186578171D01*
X104856744Y-185006743D02*
X104499601Y-186078171D01*
X105428173Y-186078171D01*
X105999601Y-186435314D02*
X106071029Y-186506743D01*
X105999601Y-186578171D01*
X105928172Y-186506743D01*
X105999601Y-186435314D01*
X105999601Y-186578171D01*
X106999601Y-185078171D02*
X107142458Y-185078171D01*
X107285315Y-185149600D01*
X107356744Y-185221029D01*
X107428173Y-185363886D01*
X107499601Y-185649600D01*
X107499601Y-186006743D01*
X107428173Y-186292457D01*
X107356744Y-186435314D01*
X107285315Y-186506743D01*
X107142458Y-186578171D01*
X106999601Y-186578171D01*
X106856744Y-186506743D01*
X106785315Y-186435314D01*
X106713887Y-186292457D01*
X106642458Y-186006743D01*
X106642458Y-185649600D01*
X106713887Y-185363886D01*
X106785315Y-185221029D01*
X106856744Y-185149600D01*
X106999601Y-185078171D01*
X108142458Y-186435314D02*
X108213886Y-186506743D01*
X108142458Y-186578171D01*
X108071029Y-186506743D01*
X108142458Y-186435314D01*
X108142458Y-186578171D01*
X109571030Y-185078171D02*
X108856744Y-185078171D01*
X108785315Y-185792457D01*
X108856744Y-185721029D01*
X108999601Y-185649600D01*
X109356744Y-185649600D01*
X109499601Y-185721029D01*
X109571030Y-185792457D01*
X109642458Y-185935314D01*
X109642458Y-186292457D01*
X109571030Y-186435314D01*
X109499601Y-186506743D01*
X109356744Y-186578171D01*
X108999601Y-186578171D01*
X108856744Y-186506743D01*
X108785315Y-186435314D01*
D10*
D11*
X79999600Y-181499600D02*
X187999600Y-181499600D01*
D10*
D12*
X167213886Y-183778171D02*
X166713886Y-183063886D01*
X166356743Y-183778171D02*
X166356743Y-182278171D01*
X166928171Y-182278171D01*
X167071029Y-182349600D01*
X167142457Y-182421029D01*
X167213886Y-182563886D01*
X167213886Y-182778171D01*
X167142457Y-182921029D01*
X167071029Y-182992457D01*
X166928171Y-183063886D01*
X166356743Y-183063886D01*
X168428171Y-183706743D02*
X168285314Y-183778171D01*
X167999600Y-183778171D01*
X167856743Y-183706743D01*
X167785314Y-183563886D01*
X167785314Y-182992457D01*
X167856743Y-182849600D01*
X167999600Y-182778171D01*
X168285314Y-182778171D01*
X168428171Y-182849600D01*
X168499600Y-182992457D01*
X168499600Y-183135314D01*
X167785314Y-183278171D01*
X168999600Y-182778171D02*
X169356743Y-183778171D01*
X169713885Y-182778171D01*
X170285314Y-183635314D02*
X170356742Y-183706743D01*
X170285314Y-183778171D01*
X170213885Y-183706743D01*
X170285314Y-183635314D01*
X170285314Y-183778171D01*
X170285314Y-182849600D02*
X170356742Y-182921029D01*
X170285314Y-182992457D01*
X170213885Y-182921029D01*
X170285314Y-182849600D01*
X170285314Y-182992457D01*
D10*
D11*
X81285314Y-183706743D02*
X81499600Y-183778171D01*
X81856743Y-183778171D01*
X81999600Y-183706743D01*
X82071029Y-183635314D01*
X82142457Y-183492457D01*
X82142457Y-183349600D01*
X82071029Y-183206743D01*
X81999600Y-183135314D01*
X81856743Y-183063886D01*
X81571029Y-182992457D01*
X81428171Y-182921029D01*
X81356743Y-182849600D01*
X81285314Y-182706743D01*
X81285314Y-182563886D01*
X81356743Y-182421029D01*
X81428171Y-182349600D01*
X81571029Y-182278171D01*
X81928171Y-182278171D01*
X82142457Y-182349600D01*
X82785314Y-183778171D02*
X82785314Y-182778171D01*
X82785314Y-182278171D02*
X82713885Y-182349600D01*
X82785314Y-182421029D01*
X82856742Y-182349600D01*
X82785314Y-182278171D01*
X82785314Y-182421029D01*
X83356743Y-182778171D02*
X84142457Y-182778171D01*
X83356743Y-183778171D01*
X84142457Y-183778171D01*
X85285314Y-183706743D02*
X85142457Y-183778171D01*
X84856743Y-183778171D01*
X84713886Y-183706743D01*
X84642457Y-183563886D01*
X84642457Y-182992457D01*
X84713886Y-182849600D01*
X84856743Y-182778171D01*
X85142457Y-182778171D01*
X85285314Y-182849600D01*
X85356743Y-182992457D01*
X85356743Y-183135314D01*
X84642457Y-183278171D01*
X85999600Y-183635314D02*
X86071028Y-183706743D01*
X85999600Y-183778171D01*
X85928171Y-183706743D01*
X85999600Y-183635314D01*
X85999600Y-183778171D01*
X85999600Y-182849600D02*
X86071028Y-182921029D01*
X85999600Y-182992457D01*
X85928171Y-182921029D01*
X85999600Y-182849600D01*
X85999600Y-182992457D01*
X87856743Y-182278171D02*
X87856743Y-183492457D01*
X87928171Y-183635314D01*
X87999600Y-183706743D01*
X88142457Y-183778171D01*
X88428171Y-183778171D01*
X88571029Y-183706743D01*
X88642457Y-183635314D01*
X88713886Y-183492457D01*
X88713886Y-182278171D01*
X89356743Y-183706743D02*
X89499600Y-183778171D01*
X89785315Y-183778171D01*
X89928172Y-183706743D01*
X89999600Y-183563886D01*
X89999600Y-183492457D01*
X89928172Y-183349600D01*
X89785315Y-183278171D01*
X89571029Y-183278171D01*
X89428172Y-183206743D01*
X89356743Y-183063886D01*
X89356743Y-182992457D01*
X89428172Y-182849600D01*
X89571029Y-182778171D01*
X89785315Y-182778171D01*
X89928172Y-182849600D01*
X91213886Y-183706743D02*
X91071029Y-183778171D01*
X90785315Y-183778171D01*
X90642458Y-183706743D01*
X90571029Y-183563886D01*
X90571029Y-182992457D01*
X90642458Y-182849600D01*
X90785315Y-182778171D01*
X91071029Y-182778171D01*
X91213886Y-182849600D01*
X91285315Y-182992457D01*
X91285315Y-183135314D01*
X90571029Y-183278171D01*
X91928172Y-183778171D02*
X91928172Y-182778171D01*
X91928172Y-183063886D02*
X91999600Y-182921029D01*
X92071029Y-182849600D01*
X92213886Y-182778171D01*
X92356743Y-182778171D01*
D10*
D11*
X166356743Y-186578171D02*
X166356743Y-185078171D01*
X167713886Y-186578171D02*
X167713886Y-185078171D01*
X167713886Y-186506743D02*
X167571029Y-186578171D01*
X167285315Y-186578171D01*
X167142457Y-186506743D01*
X167071029Y-186435314D01*
X166999600Y-186292457D01*
X166999600Y-185863886D01*
X167071029Y-185721029D01*
X167142457Y-185649600D01*
X167285315Y-185578171D01*
X167571029Y-185578171D01*
X167713886Y-185649600D01*
X168428172Y-186435314D02*
X168499600Y-186506743D01*
X168428172Y-186578171D01*
X168356743Y-186506743D01*
X168428172Y-186435314D01*
X168428172Y-186578171D01*
X168428172Y-185649600D02*
X168499600Y-185721029D01*
X168428172Y-185792457D01*
X168356743Y-185721029D01*
X168428172Y-185649600D01*
X168428172Y-185792457D01*
X171071029Y-186578171D02*
X170213886Y-186578171D01*
X170642458Y-186578171D02*
X170642458Y-185078171D01*
X170499601Y-185292457D01*
X170356743Y-185435314D01*
X170213886Y-185506743D01*
X172785314Y-185006743D02*
X171499600Y-186935314D01*
X174071029Y-186578171D02*
X173213886Y-186578171D01*
X173642458Y-186578171D02*
X173642458Y-185078171D01*
X173499601Y-185292457D01*
X173356743Y-185435314D01*
X173213886Y-185506743D01*
D10*
D11*
X79999600Y-177499600D02*
X187999600Y-177499600D01*
D10*
D13*
X81451981Y-178204362D02*
X82594838Y-178204362D01*
X81773410Y-180204362D02*
X82023410Y-178204362D01*
X83011505Y-180204362D02*
X83178171Y-178871029D01*
X83261505Y-178204362D02*
X83154362Y-178299600D01*
X83237695Y-178394838D01*
X83344839Y-178299600D01*
X83261505Y-178204362D01*
X83237695Y-178394838D01*
X83844838Y-178871029D02*
X84606743Y-178871029D01*
X84213886Y-178204362D02*
X83999600Y-179918648D01*
X84071030Y-180109124D01*
X84249601Y-180204362D01*
X84440077Y-180204362D01*
X85392458Y-180204362D02*
X85213887Y-180109124D01*
X85142457Y-179918648D01*
X85356743Y-178204362D01*
X86928172Y-180109124D02*
X86725791Y-180204362D01*
X86344839Y-180204362D01*
X86166267Y-180109124D01*
X86094838Y-179918648D01*
X86190076Y-179156743D01*
X86309124Y-178966267D01*
X86511505Y-178871029D01*
X86892457Y-178871029D01*
X87071029Y-178966267D01*
X87142457Y-179156743D01*
X87118648Y-179347219D01*
X86142457Y-179537695D01*
X87892457Y-180013886D02*
X87975792Y-180109124D01*
X87868648Y-180204362D01*
X87785315Y-180109124D01*
X87892457Y-180013886D01*
X87868648Y-180204362D01*
X88023410Y-178966267D02*
X88106744Y-179061505D01*
X87999600Y-179156743D01*
X87916267Y-179061505D01*
X88023410Y-178966267D01*
X87999600Y-179156743D01*
D10*
D11*
X81856743Y-175592457D02*
X81356743Y-175592457D01*
X81356743Y-176378171D02*
X81356743Y-174878171D01*
X82071029Y-174878171D01*
X82642457Y-176378171D02*
X82642457Y-175378171D01*
X82642457Y-174878171D02*
X82571028Y-174949600D01*
X82642457Y-175021029D01*
X82713885Y-174949600D01*
X82642457Y-174878171D01*
X82642457Y-175021029D01*
X83571029Y-176378171D02*
X83428171Y-176306743D01*
X83356743Y-176163886D01*
X83356743Y-174878171D01*
X84713885Y-176306743D02*
X84571028Y-176378171D01*
X84285314Y-176378171D01*
X84142457Y-176306743D01*
X84071028Y-176163886D01*
X84071028Y-175592457D01*
X84142457Y-175449600D01*
X84285314Y-175378171D01*
X84571028Y-175378171D01*
X84713885Y-175449600D01*
X84785314Y-175592457D01*
X84785314Y-175735314D01*
X84071028Y-175878171D01*
X85428171Y-176235314D02*
X85499599Y-176306743D01*
X85428171Y-176378171D01*
X85356742Y-176306743D01*
X85428171Y-176235314D01*
X85428171Y-176378171D01*
X85428171Y-175449600D02*
X85499599Y-175521029D01*
X85428171Y-175592457D01*
X85356742Y-175521029D01*
X85428171Y-175449600D01*
X85428171Y-175592457D01*
X87285314Y-176378171D02*
X87285314Y-174878171D01*
X87285314Y-175592457D02*
X88142457Y-175592457D01*
X88142457Y-176378171D02*
X88142457Y-174878171D01*
X88856743Y-176378171D02*
X88856743Y-175378171D01*
X88856743Y-174878171D02*
X88785314Y-174949600D01*
X88856743Y-175021029D01*
X88928171Y-174949600D01*
X88856743Y-174878171D01*
X88856743Y-175021029D01*
X90213886Y-175378171D02*
X90213886Y-176592457D01*
X90142457Y-176735314D01*
X90071029Y-176806743D01*
X89928172Y-176878171D01*
X89713886Y-176878171D01*
X89571029Y-176806743D01*
X90213886Y-176306743D02*
X90071029Y-176378171D01*
X89785315Y-176378171D01*
X89642457Y-176306743D01*
X89571029Y-176235314D01*
X89499600Y-176092457D01*
X89499600Y-175663886D01*
X89571029Y-175521029D01*
X89642457Y-175449600D01*
X89785315Y-175378171D01*
X90071029Y-175378171D01*
X90213886Y-175449600D01*
X90928172Y-176378171D02*
X90928172Y-174878171D01*
X91571029Y-176378171D02*
X91571029Y-175592457D01*
X91499600Y-175449600D01*
X91356743Y-175378171D01*
X91142458Y-175378171D01*
X90999600Y-175449600D01*
X90928172Y-175521029D01*
X93428172Y-176378171D02*
X93428172Y-174878171D01*
X93999600Y-174878171D01*
X94142458Y-174949600D01*
X94213886Y-175021029D01*
X94285315Y-175163886D01*
X94285315Y-175378171D01*
X94213886Y-175521029D01*
X94142458Y-175592457D01*
X93999600Y-175663886D01*
X93428172Y-175663886D01*
X95142458Y-176378171D02*
X94999600Y-176306743D01*
X94928172Y-176235314D01*
X94856743Y-176092457D01*
X94856743Y-175663886D01*
X94928172Y-175521029D01*
X94999600Y-175449600D01*
X95142458Y-175378171D01*
X95356743Y-175378171D01*
X95499600Y-175449600D01*
X95571029Y-175521029D01*
X95642458Y-175663886D01*
X95642458Y-176092457D01*
X95571029Y-176235314D01*
X95499600Y-176306743D01*
X95356743Y-176378171D01*
X95142458Y-176378171D01*
X96142458Y-175378171D02*
X96428172Y-176378171D01*
X96713886Y-175663886D01*
X96999601Y-176378171D01*
X97285315Y-175378171D01*
X98428172Y-176306743D02*
X98285315Y-176378171D01*
X97999601Y-176378171D01*
X97856744Y-176306743D01*
X97785315Y-176163886D01*
X97785315Y-175592457D01*
X97856744Y-175449600D01*
X97999601Y-175378171D01*
X98285315Y-175378171D01*
X98428172Y-175449600D01*
X98499601Y-175592457D01*
X98499601Y-175735314D01*
X97785315Y-175878171D01*
X99142458Y-176378171D02*
X99142458Y-175378171D01*
X99142458Y-175663886D02*
X99213886Y-175521029D01*
X99285315Y-175449600D01*
X99428172Y-175378171D01*
X99571029Y-175378171D01*
X101142457Y-176306743D02*
X101356743Y-176378171D01*
X101713886Y-176378171D01*
X101856743Y-176306743D01*
X101928172Y-176235314D01*
X101999600Y-176092457D01*
X101999600Y-175949600D01*
X101928172Y-175806743D01*
X101856743Y-175735314D01*
X101713886Y-175663886D01*
X101428172Y-175592457D01*
X101285314Y-175521029D01*
X101213886Y-175449600D01*
X101142457Y-175306743D01*
X101142457Y-175163886D01*
X101213886Y-175021029D01*
X101285314Y-174949600D01*
X101428172Y-174878171D01*
X101785314Y-174878171D01*
X101999600Y-174949600D01*
X102499600Y-174878171D02*
X102856743Y-176378171D01*
X103142457Y-175306743D01*
X103428171Y-176378171D01*
X103785314Y-174878171D01*
X104356743Y-176235314D02*
X104428171Y-176306743D01*
X104356743Y-176378171D01*
X104285314Y-176306743D01*
X104356743Y-176235314D01*
X104356743Y-176378171D01*
X105071029Y-176378171D02*
X105071029Y-174878171D01*
X105213886Y-175806743D02*
X105642457Y-176378171D01*
X105642457Y-175378171D02*
X105071029Y-175949600D01*
X106285315Y-176378171D02*
X106285315Y-175378171D01*
X106285315Y-174878171D02*
X106213886Y-174949600D01*
X106285315Y-175021029D01*
X106356743Y-174949600D01*
X106285315Y-174878171D01*
X106285315Y-175021029D01*
X107642458Y-176306743D02*
X107499601Y-176378171D01*
X107213887Y-176378171D01*
X107071029Y-176306743D01*
X106999601Y-176235314D01*
X106928172Y-176092457D01*
X106928172Y-175663886D01*
X106999601Y-175521029D01*
X107071029Y-175449600D01*
X107213887Y-175378171D01*
X107499601Y-175378171D01*
X107642458Y-175449600D01*
X108928172Y-176378171D02*
X108928172Y-175592457D01*
X108856743Y-175449600D01*
X108713886Y-175378171D01*
X108428172Y-175378171D01*
X108285315Y-175449600D01*
X108928172Y-176306743D02*
X108785315Y-176378171D01*
X108428172Y-176378171D01*
X108285315Y-176306743D01*
X108213886Y-176163886D01*
X108213886Y-176021029D01*
X108285315Y-175878171D01*
X108428172Y-175806743D01*
X108785315Y-175806743D01*
X108928172Y-175735314D01*
X110285315Y-176378171D02*
X110285315Y-174878171D01*
X110285315Y-176306743D02*
X110142458Y-176378171D01*
X109856744Y-176378171D01*
X109713886Y-176306743D01*
X109642458Y-176235314D01*
X109571029Y-176092457D01*
X109571029Y-175663886D01*
X109642458Y-175521029D01*
X109713886Y-175449600D01*
X109856744Y-175378171D01*
X110142458Y-175378171D01*
X110285315Y-175449600D01*
X110642458Y-176521029D02*
X111785315Y-176521029D01*
X112142458Y-175378171D02*
X112142458Y-176878171D01*
X112142458Y-175449600D02*
X112285315Y-175378171D01*
X112571029Y-175378171D01*
X112713886Y-175449600D01*
X112785315Y-175521029D01*
X112856744Y-175663886D01*
X112856744Y-176092457D01*
X112785315Y-176235314D01*
X112713886Y-176306743D01*
X112571029Y-176378171D01*
X112285315Y-176378171D01*
X112142458Y-176306743D01*
X114142458Y-176306743D02*
X113999601Y-176378171D01*
X113713887Y-176378171D01*
X113571029Y-176306743D01*
X113499601Y-176235314D01*
X113428172Y-176092457D01*
X113428172Y-175663886D01*
X113499601Y-175521029D01*
X113571029Y-175449600D01*
X113713887Y-175378171D01*
X113999601Y-175378171D01*
X114142458Y-175449600D01*
X114785315Y-176378171D02*
X114785315Y-174878171D01*
X114785315Y-175449600D02*
X114928172Y-175378171D01*
X115213886Y-175378171D01*
X115356743Y-175449600D01*
X115428172Y-175521029D01*
X115499601Y-175663886D01*
X115499601Y-176092457D01*
X115428172Y-176235314D01*
X115356743Y-176306743D01*
X115213886Y-176378171D01*
X114928172Y-176378171D01*
X114785315Y-176306743D01*
D10*
D11*
X79999600Y-171499600D02*
X187999600Y-171499600D01*
D10*
D11*
X81285314Y-173606743D02*
X81499600Y-173678171D01*
X81856743Y-173678171D01*
X81999600Y-173606743D01*
X82071029Y-173535314D01*
X82142457Y-173392457D01*
X82142457Y-173249600D01*
X82071029Y-173106743D01*
X81999600Y-173035314D01*
X81856743Y-172963886D01*
X81571029Y-172892457D01*
X81428171Y-172821029D01*
X81356743Y-172749600D01*
X81285314Y-172606743D01*
X81285314Y-172463886D01*
X81356743Y-172321029D01*
X81428171Y-172249600D01*
X81571029Y-172178171D01*
X81928171Y-172178171D01*
X82142457Y-172249600D01*
X82785314Y-173678171D02*
X82785314Y-172178171D01*
X83428171Y-173678171D02*
X83428171Y-172892457D01*
X83356742Y-172749600D01*
X83213885Y-172678171D01*
X82999600Y-172678171D01*
X82856742Y-172749600D01*
X82785314Y-172821029D01*
X84713885Y-173606743D02*
X84571028Y-173678171D01*
X84285314Y-173678171D01*
X84142457Y-173606743D01*
X84071028Y-173463886D01*
X84071028Y-172892457D01*
X84142457Y-172749600D01*
X84285314Y-172678171D01*
X84571028Y-172678171D01*
X84713885Y-172749600D01*
X84785314Y-172892457D01*
X84785314Y-173035314D01*
X84071028Y-173178171D01*
X85999599Y-173606743D02*
X85856742Y-173678171D01*
X85571028Y-173678171D01*
X85428171Y-173606743D01*
X85356742Y-173463886D01*
X85356742Y-172892457D01*
X85428171Y-172749600D01*
X85571028Y-172678171D01*
X85856742Y-172678171D01*
X85999599Y-172749600D01*
X86071028Y-172892457D01*
X86071028Y-173035314D01*
X85356742Y-173178171D01*
X86499599Y-172678171D02*
X87071028Y-172678171D01*
X86713885Y-172178171D02*
X86713885Y-173463886D01*
X86785313Y-173606743D01*
X86928171Y-173678171D01*
X87071028Y-173678171D01*
X87571028Y-173535314D02*
X87642456Y-173606743D01*
X87571028Y-173678171D01*
X87499599Y-173606743D01*
X87571028Y-173535314D01*
X87571028Y-173678171D01*
X87571028Y-172749600D02*
X87642456Y-172821029D01*
X87571028Y-172892457D01*
X87499599Y-172821029D01*
X87571028Y-172749600D01*
X87571028Y-172892457D01*
D10*
D11*
X99999600Y-181499600D02*
X99999600Y-184499600D01*
D10*
D11*
X163999600Y-181499600D02*
X163999600Y-187999600D01*
D12*
X85600001Y-94228571D02*
X85600001Y-95228571D01*
X85242858Y-93657143D02*
X84885715Y-94728571D01*
X85814287Y-94728571D01*
X86600001Y-94371429D02*
X86457143Y-94300000D01*
X86385715Y-94228571D01*
X86314286Y-94085714D01*
X86314286Y-94014286D01*
X86385715Y-93871429D01*
X86457143Y-93800000D01*
X86600001Y-93728571D01*
X86885715Y-93728571D01*
X87028572Y-93800000D01*
X87100001Y-93871429D01*
X87171429Y-94014286D01*
X87171429Y-94085714D01*
X87100001Y-94228571D01*
X87028572Y-94300000D01*
X86885715Y-94371429D01*
X86600001Y-94371429D01*
X86457143Y-94442857D01*
X86385715Y-94514286D01*
X86314286Y-94657143D01*
X86314286Y-94942857D01*
X86385715Y-95085714D01*
X86457143Y-95157143D01*
X86600001Y-95228571D01*
X86885715Y-95228571D01*
X87028572Y-95157143D01*
X87100001Y-95085714D01*
X87171429Y-94942857D01*
X87171429Y-94657143D01*
X87100001Y-94514286D01*
X87028572Y-94442857D01*
X86885715Y-94371429D01*
X87814286Y-95085714D02*
X87885714Y-95157143D01*
X87814286Y-95228571D01*
X87742857Y-95157143D01*
X87814286Y-95085714D01*
X87814286Y-95228571D01*
X88814286Y-93728571D02*
X88957143Y-93728571D01*
X89100000Y-93800000D01*
X89171429Y-93871429D01*
X89242858Y-94014286D01*
X89314286Y-94300000D01*
X89314286Y-94657143D01*
X89242858Y-94942857D01*
X89171429Y-95085714D01*
X89100000Y-95157143D01*
X88957143Y-95228571D01*
X88814286Y-95228571D01*
X88671429Y-95157143D01*
X88600000Y-95085714D01*
X88528572Y-94942857D01*
X88457143Y-94657143D01*
X88457143Y-94300000D01*
X88528572Y-94014286D01*
X88600000Y-93871429D01*
X88671429Y-93800000D01*
X88814286Y-93728571D01*
X90242857Y-93728571D02*
X90385714Y-93728571D01*
X90528571Y-93800000D01*
X90600000Y-93871429D01*
X90671429Y-94014286D01*
X90742857Y-94300000D01*
X90742857Y-94657143D01*
X90671429Y-94942857D01*
X90600000Y-95085714D01*
X90528571Y-95157143D01*
X90385714Y-95228571D01*
X90242857Y-95228571D01*
X90100000Y-95157143D01*
X90028571Y-95085714D01*
X89957143Y-94942857D01*
X89885714Y-94657143D01*
X89885714Y-94300000D01*
X89957143Y-94014286D01*
X90028571Y-93871429D01*
X90100000Y-93800000D01*
X90242857Y-93728571D01*
X91671428Y-93728571D02*
X91814285Y-93728571D01*
X91957142Y-93800000D01*
X92028571Y-93871429D01*
X92100000Y-94014286D01*
X92171428Y-94300000D01*
X92171428Y-94657143D01*
X92100000Y-94942857D01*
X92028571Y-95085714D01*
X91957142Y-95157143D01*
X91814285Y-95228571D01*
X91671428Y-95228571D01*
X91528571Y-95157143D01*
X91457142Y-95085714D01*
X91385714Y-94942857D01*
X91314285Y-94657143D01*
X91314285Y-94300000D01*
X91385714Y-94014286D01*
X91457142Y-93871429D01*
X91528571Y-93800000D01*
X91671428Y-93728571D01*
X93957142Y-95228571D02*
X93957142Y-94228571D01*
X93957142Y-94371429D02*
X94028570Y-94300000D01*
X94171428Y-94228571D01*
X94385713Y-94228571D01*
X94528570Y-94300000D01*
X94599999Y-94442857D01*
X94599999Y-95228571D01*
X94599999Y-94442857D02*
X94671428Y-94300000D01*
X94814285Y-94228571D01*
X95028570Y-94228571D01*
X95171428Y-94300000D01*
X95242856Y-94442857D01*
X95242856Y-95228571D01*
X95957142Y-95228571D02*
X95957142Y-94228571D01*
X95957142Y-94371429D02*
X96028570Y-94300000D01*
X96171428Y-94228571D01*
X96385713Y-94228571D01*
X96528570Y-94300000D01*
X96599999Y-94442857D01*
X96599999Y-95228571D01*
X96599999Y-94442857D02*
X96671428Y-94300000D01*
X96814285Y-94228571D01*
X97028570Y-94228571D01*
X97171428Y-94300000D01*
X97242856Y-94442857D01*
X97242856Y-95228571D01*
X67100000Y-95900000D02*
X115100000Y-95900000D01*
X67100000Y-102900000D02*
X67100000Y-93200000D01*
X115100000Y-102900000D02*
X115100000Y-93200000D01*
X115100000Y-95900000D02*
X113973496Y-96486421D01*
X115100000Y-95900000D02*
X113973496Y-95313579D01*
X67100000Y-95900000D02*
X68226504Y-96486421D01*
X67100000Y-95900000D02*
X68226504Y-95313579D01*
X125271429Y-112614287D02*
X125271429Y-113542858D01*
X124700000Y-113042858D01*
X124700000Y-113257144D01*
X124628571Y-113400001D01*
X124557143Y-113471430D01*
X124414286Y-113542858D01*
X124057143Y-113542858D01*
X123914286Y-113471430D01*
X123842857Y-113400001D01*
X123771429Y-113257144D01*
X123771429Y-112828572D01*
X123842857Y-112685715D01*
X123914286Y-112614287D01*
X125128571Y-114114286D02*
X125200000Y-114185715D01*
X125271429Y-114328572D01*
X125271429Y-114685715D01*
X125200000Y-114828572D01*
X125128571Y-114900001D01*
X124985714Y-114971429D01*
X124842857Y-114971429D01*
X124628571Y-114900001D01*
X123771429Y-114042858D01*
X123771429Y-114971429D01*
X123914286Y-115614286D02*
X123842857Y-115685714D01*
X123771429Y-115614286D01*
X123842857Y-115542857D01*
X123914286Y-115614286D01*
X123771429Y-115614286D01*
X125271429Y-116614286D02*
X125271429Y-116757143D01*
X125200000Y-116900000D01*
X125128571Y-116971429D01*
X124985714Y-117042858D01*
X124700000Y-117114286D01*
X124342857Y-117114286D01*
X124057143Y-117042858D01*
X123914286Y-116971429D01*
X123842857Y-116900000D01*
X123771429Y-116757143D01*
X123771429Y-116614286D01*
X123842857Y-116471429D01*
X123914286Y-116400000D01*
X124057143Y-116328572D01*
X124342857Y-116257143D01*
X124700000Y-116257143D01*
X124985714Y-116328572D01*
X125128571Y-116400000D01*
X125200000Y-116471429D01*
X125271429Y-116614286D01*
X125271429Y-118042857D02*
X125271429Y-118185714D01*
X125200000Y-118328571D01*
X125128571Y-118400000D01*
X124985714Y-118471429D01*
X124700000Y-118542857D01*
X124342857Y-118542857D01*
X124057143Y-118471429D01*
X123914286Y-118400000D01*
X123842857Y-118328571D01*
X123771429Y-118185714D01*
X123771429Y-118042857D01*
X123842857Y-117900000D01*
X123914286Y-117828571D01*
X124057143Y-117757143D01*
X124342857Y-117685714D01*
X124700000Y-117685714D01*
X124985714Y-117757143D01*
X125128571Y-117828571D01*
X125200000Y-117900000D01*
X125271429Y-118042857D01*
X125271429Y-119471428D02*
X125271429Y-119614285D01*
X125200000Y-119757142D01*
X125128571Y-119828571D01*
X124985714Y-119900000D01*
X124700000Y-119971428D01*
X124342857Y-119971428D01*
X124057143Y-119900000D01*
X123914286Y-119828571D01*
X123842857Y-119757142D01*
X123771429Y-119614285D01*
X123771429Y-119471428D01*
X123842857Y-119328571D01*
X123914286Y-119257142D01*
X124057143Y-119185714D01*
X124342857Y-119114285D01*
X124700000Y-119114285D01*
X124985714Y-119185714D01*
X125128571Y-119257142D01*
X125200000Y-119328571D01*
X125271429Y-119471428D01*
X123771429Y-121757142D02*
X124771429Y-121757142D01*
X124628571Y-121757142D02*
X124700000Y-121828570D01*
X124771429Y-121971428D01*
X124771429Y-122185713D01*
X124700000Y-122328570D01*
X124557143Y-122399999D01*
X123771429Y-122399999D01*
X124557143Y-122399999D02*
X124700000Y-122471428D01*
X124771429Y-122614285D01*
X124771429Y-122828570D01*
X124700000Y-122971428D01*
X124557143Y-123042856D01*
X123771429Y-123042856D01*
X123771429Y-123757142D02*
X124771429Y-123757142D01*
X124628571Y-123757142D02*
X124700000Y-123828570D01*
X124771429Y-123971428D01*
X124771429Y-124185713D01*
X124700000Y-124328570D01*
X124557143Y-124399999D01*
X123771429Y-124399999D01*
X124557143Y-124399999D02*
X124700000Y-124471428D01*
X124771429Y-124614285D01*
X124771429Y-124828570D01*
X124700000Y-124971428D01*
X124557143Y-125042856D01*
X123771429Y-125042856D01*
X123100000Y-102900000D02*
X123100000Y-134900000D01*
X115100000Y-102900000D02*
X125800000Y-102900000D01*
X115100000Y-134900000D02*
X125800000Y-134900000D01*
X123100000Y-134900000D02*
X122513579Y-133773496D01*
X123100000Y-134900000D02*
X123686421Y-133773496D01*
X123100000Y-102900000D02*
X122513579Y-104026504D01*
X123100000Y-102900000D02*
X123686421Y-104026504D01*
X71528573Y-100078571D02*
X72457144Y-100078571D01*
X71957144Y-100650000D01*
X72171430Y-100650000D01*
X72314287Y-100721429D01*
X72385716Y-100792857D01*
X72457144Y-100935714D01*
X72457144Y-101292857D01*
X72385716Y-101435714D01*
X72314287Y-101507143D01*
X72171430Y-101578571D01*
X71742858Y-101578571D01*
X71600001Y-101507143D01*
X71528573Y-101435714D01*
X73100001Y-101435714D02*
X73171429Y-101507143D01*
X73100001Y-101578571D01*
X73028572Y-101507143D01*
X73100001Y-101435714D01*
X73100001Y-101578571D01*
X74100001Y-100078571D02*
X74242858Y-100078571D01*
X74385715Y-100150000D01*
X74457144Y-100221429D01*
X74528573Y-100364286D01*
X74600001Y-100650000D01*
X74600001Y-101007143D01*
X74528573Y-101292857D01*
X74457144Y-101435714D01*
X74385715Y-101507143D01*
X74242858Y-101578571D01*
X74100001Y-101578571D01*
X73957144Y-101507143D01*
X73885715Y-101435714D01*
X73814287Y-101292857D01*
X73742858Y-101007143D01*
X73742858Y-100650000D01*
X73814287Y-100364286D01*
X73885715Y-100221429D01*
X73957144Y-100150000D01*
X74100001Y-100078571D01*
X75528572Y-100078571D02*
X75671429Y-100078571D01*
X75814286Y-100150000D01*
X75885715Y-100221429D01*
X75957144Y-100364286D01*
X76028572Y-100650000D01*
X76028572Y-101007143D01*
X75957144Y-101292857D01*
X75885715Y-101435714D01*
X75814286Y-101507143D01*
X75671429Y-101578571D01*
X75528572Y-101578571D01*
X75385715Y-101507143D01*
X75314286Y-101435714D01*
X75242858Y-101292857D01*
X75171429Y-101007143D01*
X75171429Y-100650000D01*
X75242858Y-100364286D01*
X75314286Y-100221429D01*
X75385715Y-100150000D01*
X75528572Y-100078571D01*
X76957143Y-100078571D02*
X77100000Y-100078571D01*
X77242857Y-100150000D01*
X77314286Y-100221429D01*
X77385715Y-100364286D01*
X77457143Y-100650000D01*
X77457143Y-101007143D01*
X77385715Y-101292857D01*
X77314286Y-101435714D01*
X77242857Y-101507143D01*
X77100000Y-101578571D01*
X76957143Y-101578571D01*
X76814286Y-101507143D01*
X76742857Y-101435714D01*
X76671429Y-101292857D01*
X76600000Y-101007143D01*
X76600000Y-100650000D01*
X76671429Y-100364286D01*
X76742857Y-100221429D01*
X76814286Y-100150000D01*
X76957143Y-100078571D01*
X79242857Y-101578571D02*
X79242857Y-100578571D01*
X79242857Y-100721429D02*
X79314285Y-100650000D01*
X79457143Y-100578571D01*
X79671428Y-100578571D01*
X79814285Y-100650000D01*
X79885714Y-100792857D01*
X79885714Y-101578571D01*
X79885714Y-100792857D02*
X79957143Y-100650000D01*
X80100000Y-100578571D01*
X80314285Y-100578571D01*
X80457143Y-100650000D01*
X80528571Y-100792857D01*
X80528571Y-101578571D01*
X81242857Y-101578571D02*
X81242857Y-100578571D01*
X81242857Y-100721429D02*
X81314285Y-100650000D01*
X81457143Y-100578571D01*
X81671428Y-100578571D01*
X81814285Y-100650000D01*
X81885714Y-100792857D01*
X81885714Y-101578571D01*
X81885714Y-100792857D02*
X81957143Y-100650000D01*
X82100000Y-100578571D01*
X82314285Y-100578571D01*
X82457143Y-100650000D01*
X82528571Y-100792857D01*
X82528571Y-101578571D01*
X70100000Y-100900001D02*
X67100000Y-100900001D01*
X70100000Y-102900000D02*
X70100000Y-98200001D01*
X67100000Y-102900000D02*
X67100000Y-98200001D01*
X67100000Y-100900001D02*
X68226504Y-100313580D01*
X67100000Y-100900001D02*
X68226504Y-101486422D01*
X70100000Y-100900001D02*
X68973496Y-100313580D01*
X70100000Y-100900001D02*
X68973496Y-101486422D01*
X64278571Y-118471427D02*
X64278571Y-117542856D01*
X64850000Y-118042856D01*
X64850000Y-117828570D01*
X64921429Y-117685713D01*
X64992857Y-117614284D01*
X65135714Y-117542856D01*
X65492857Y-117542856D01*
X65635714Y-117614284D01*
X65707143Y-117685713D01*
X65778571Y-117828570D01*
X65778571Y-118257142D01*
X65707143Y-118399999D01*
X65635714Y-118471427D01*
X65635714Y-116899999D02*
X65707143Y-116828571D01*
X65778571Y-116899999D01*
X65707143Y-116971428D01*
X65635714Y-116899999D01*
X65778571Y-116899999D01*
X64278571Y-115899999D02*
X64278571Y-115757142D01*
X64350000Y-115614285D01*
X64421429Y-115542856D01*
X64564286Y-115471427D01*
X64850000Y-115399999D01*
X65207143Y-115399999D01*
X65492857Y-115471427D01*
X65635714Y-115542856D01*
X65707143Y-115614285D01*
X65778571Y-115757142D01*
X65778571Y-115899999D01*
X65707143Y-116042856D01*
X65635714Y-116114285D01*
X65492857Y-116185713D01*
X65207143Y-116257142D01*
X64850000Y-116257142D01*
X64564286Y-116185713D01*
X64421429Y-116114285D01*
X64350000Y-116042856D01*
X64278571Y-115899999D01*
X64278571Y-114471428D02*
X64278571Y-114328571D01*
X64350000Y-114185714D01*
X64421429Y-114114285D01*
X64564286Y-114042856D01*
X64850000Y-113971428D01*
X65207143Y-113971428D01*
X65492857Y-114042856D01*
X65635714Y-114114285D01*
X65707143Y-114185714D01*
X65778571Y-114328571D01*
X65778571Y-114471428D01*
X65707143Y-114614285D01*
X65635714Y-114685714D01*
X65492857Y-114757142D01*
X65207143Y-114828571D01*
X64850000Y-114828571D01*
X64564286Y-114757142D01*
X64421429Y-114685714D01*
X64350000Y-114614285D01*
X64278571Y-114471428D01*
X64278571Y-113042857D02*
X64278571Y-112900000D01*
X64350000Y-112757143D01*
X64421429Y-112685714D01*
X64564286Y-112614285D01*
X64850000Y-112542857D01*
X65207143Y-112542857D01*
X65492857Y-112614285D01*
X65635714Y-112685714D01*
X65707143Y-112757143D01*
X65778571Y-112900000D01*
X65778571Y-113042857D01*
X65707143Y-113185714D01*
X65635714Y-113257143D01*
X65492857Y-113328571D01*
X65207143Y-113400000D01*
X64850000Y-113400000D01*
X64564286Y-113328571D01*
X64421429Y-113257143D01*
X64350000Y-113185714D01*
X64278571Y-113042857D01*
X65778571Y-110757143D02*
X64778571Y-110757143D01*
X64921429Y-110757143D02*
X64850000Y-110685715D01*
X64778571Y-110542857D01*
X64778571Y-110328572D01*
X64850000Y-110185715D01*
X64992857Y-110114286D01*
X65778571Y-110114286D01*
X64992857Y-110114286D02*
X64850000Y-110042857D01*
X64778571Y-109900000D01*
X64778571Y-109685715D01*
X64850000Y-109542857D01*
X64992857Y-109471429D01*
X65778571Y-109471429D01*
X65778571Y-108757143D02*
X64778571Y-108757143D01*
X64921429Y-108757143D02*
X64850000Y-108685715D01*
X64778571Y-108542857D01*
X64778571Y-108328572D01*
X64850000Y-108185715D01*
X64992857Y-108114286D01*
X65778571Y-108114286D01*
X64992857Y-108114286D02*
X64850000Y-108042857D01*
X64778571Y-107900000D01*
X64778571Y-107685715D01*
X64850000Y-107542857D01*
X64992857Y-107471429D01*
X65778571Y-107471429D01*
X65100000Y-105900000D02*
X65100000Y-102900000D01*
X67100000Y-105900000D02*
X62400000Y-105900000D01*
X67100000Y-102900000D02*
X62400000Y-102900000D01*
X65100000Y-102900000D02*
X65686421Y-104026504D01*
X65100000Y-102900000D02*
X64513579Y-104026504D01*
X65100000Y-105900000D02*
X65686421Y-104773496D01*
X65100000Y-105900000D02*
X64513579Y-104773496D01*
X99528573Y-100078571D02*
X100457144Y-100078571D01*
X99957144Y-100650000D01*
X100171430Y-100650000D01*
X100314287Y-100721429D01*
X100385716Y-100792857D01*
X100457144Y-100935714D01*
X100457144Y-101292857D01*
X100385716Y-101435714D01*
X100314287Y-101507143D01*
X100171430Y-101578571D01*
X99742858Y-101578571D01*
X99600001Y-101507143D01*
X99528573Y-101435714D01*
X101100001Y-101435714D02*
X101171429Y-101507143D01*
X101100001Y-101578571D01*
X101028572Y-101507143D01*
X101100001Y-101435714D01*
X101100001Y-101578571D01*
X102100001Y-100078571D02*
X102242858Y-100078571D01*
X102385715Y-100150000D01*
X102457144Y-100221429D01*
X102528573Y-100364286D01*
X102600001Y-100650000D01*
X102600001Y-101007143D01*
X102528573Y-101292857D01*
X102457144Y-101435714D01*
X102385715Y-101507143D01*
X102242858Y-101578571D01*
X102100001Y-101578571D01*
X101957144Y-101507143D01*
X101885715Y-101435714D01*
X101814287Y-101292857D01*
X101742858Y-101007143D01*
X101742858Y-100650000D01*
X101814287Y-100364286D01*
X101885715Y-100221429D01*
X101957144Y-100150000D01*
X102100001Y-100078571D01*
X103528572Y-100078571D02*
X103671429Y-100078571D01*
X103814286Y-100150000D01*
X103885715Y-100221429D01*
X103957144Y-100364286D01*
X104028572Y-100650000D01*
X104028572Y-101007143D01*
X103957144Y-101292857D01*
X103885715Y-101435714D01*
X103814286Y-101507143D01*
X103671429Y-101578571D01*
X103528572Y-101578571D01*
X103385715Y-101507143D01*
X103314286Y-101435714D01*
X103242858Y-101292857D01*
X103171429Y-101007143D01*
X103171429Y-100650000D01*
X103242858Y-100364286D01*
X103314286Y-100221429D01*
X103385715Y-100150000D01*
X103528572Y-100078571D01*
X104957143Y-100078571D02*
X105100000Y-100078571D01*
X105242857Y-100150000D01*
X105314286Y-100221429D01*
X105385715Y-100364286D01*
X105457143Y-100650000D01*
X105457143Y-101007143D01*
X105385715Y-101292857D01*
X105314286Y-101435714D01*
X105242857Y-101507143D01*
X105100000Y-101578571D01*
X104957143Y-101578571D01*
X104814286Y-101507143D01*
X104742857Y-101435714D01*
X104671429Y-101292857D01*
X104600000Y-101007143D01*
X104600000Y-100650000D01*
X104671429Y-100364286D01*
X104742857Y-100221429D01*
X104814286Y-100150000D01*
X104957143Y-100078571D01*
X107242857Y-101578571D02*
X107242857Y-100578571D01*
X107242857Y-100721429D02*
X107314285Y-100650000D01*
X107457143Y-100578571D01*
X107671428Y-100578571D01*
X107814285Y-100650000D01*
X107885714Y-100792857D01*
X107885714Y-101578571D01*
X107885714Y-100792857D02*
X107957143Y-100650000D01*
X108100000Y-100578571D01*
X108314285Y-100578571D01*
X108457143Y-100650000D01*
X108528571Y-100792857D01*
X108528571Y-101578571D01*
X109242857Y-101578571D02*
X109242857Y-100578571D01*
X109242857Y-100721429D02*
X109314285Y-100650000D01*
X109457143Y-100578571D01*
X109671428Y-100578571D01*
X109814285Y-100650000D01*
X109885714Y-100792857D01*
X109885714Y-101578571D01*
X109885714Y-100792857D02*
X109957143Y-100650000D01*
X110100000Y-100578571D01*
X110314285Y-100578571D01*
X110457143Y-100650000D01*
X110528571Y-100792857D01*
X110528571Y-101578571D01*
X115100000Y-100900000D02*
X112100000Y-100900000D01*
X115100000Y-102900000D02*
X115100000Y-98200000D01*
X112100000Y-102900000D02*
X112100000Y-98200000D01*
X112100000Y-100900000D02*
X113226504Y-100313579D01*
X112100000Y-100900000D02*
X113226504Y-101486421D01*
X115100000Y-100900000D02*
X113973496Y-100313579D01*
X115100000Y-100900000D02*
X113973496Y-101486421D01*
X117921429Y-107328573D02*
X117921429Y-108257144D01*
X117350000Y-107757144D01*
X117350000Y-107971430D01*
X117278571Y-108114287D01*
X117207143Y-108185716D01*
X117064286Y-108257144D01*
X116707143Y-108257144D01*
X116564286Y-108185716D01*
X116492857Y-108114287D01*
X116421429Y-107971430D01*
X116421429Y-107542858D01*
X116492857Y-107400001D01*
X116564286Y-107328573D01*
X116564286Y-108900001D02*
X116492857Y-108971429D01*
X116421429Y-108900001D01*
X116492857Y-108828572D01*
X116564286Y-108900001D01*
X116421429Y-108900001D01*
X117921429Y-109900001D02*
X117921429Y-110042858D01*
X117850000Y-110185715D01*
X117778571Y-110257144D01*
X117635714Y-110328573D01*
X117350000Y-110400001D01*
X116992857Y-110400001D01*
X116707143Y-110328573D01*
X116564286Y-110257144D01*
X116492857Y-110185715D01*
X116421429Y-110042858D01*
X116421429Y-109900001D01*
X116492857Y-109757144D01*
X116564286Y-109685715D01*
X116707143Y-109614287D01*
X116992857Y-109542858D01*
X117350000Y-109542858D01*
X117635714Y-109614287D01*
X117778571Y-109685715D01*
X117850000Y-109757144D01*
X117921429Y-109900001D01*
X117921429Y-111328572D02*
X117921429Y-111471429D01*
X117850000Y-111614286D01*
X117778571Y-111685715D01*
X117635714Y-111757144D01*
X117350000Y-111828572D01*
X116992857Y-111828572D01*
X116707143Y-111757144D01*
X116564286Y-111685715D01*
X116492857Y-111614286D01*
X116421429Y-111471429D01*
X116421429Y-111328572D01*
X116492857Y-111185715D01*
X116564286Y-111114286D01*
X116707143Y-111042858D01*
X116992857Y-110971429D01*
X117350000Y-110971429D01*
X117635714Y-111042858D01*
X117778571Y-111114286D01*
X117850000Y-111185715D01*
X117921429Y-111328572D01*
X117921429Y-112757143D02*
X117921429Y-112900000D01*
X117850000Y-113042857D01*
X117778571Y-113114286D01*
X117635714Y-113185715D01*
X117350000Y-113257143D01*
X116992857Y-113257143D01*
X116707143Y-113185715D01*
X116564286Y-113114286D01*
X116492857Y-113042857D01*
X116421429Y-112900000D01*
X116421429Y-112757143D01*
X116492857Y-112614286D01*
X116564286Y-112542857D01*
X116707143Y-112471429D01*
X116992857Y-112400000D01*
X117350000Y-112400000D01*
X117635714Y-112471429D01*
X117778571Y-112542857D01*
X117850000Y-112614286D01*
X117921429Y-112757143D01*
X116421429Y-115042857D02*
X117421429Y-115042857D01*
X117278571Y-115042857D02*
X117350000Y-115114285D01*
X117421429Y-115257143D01*
X117421429Y-115471428D01*
X117350000Y-115614285D01*
X117207143Y-115685714D01*
X116421429Y-115685714D01*
X117207143Y-115685714D02*
X117350000Y-115757143D01*
X117421429Y-115900000D01*
X117421429Y-116114285D01*
X117350000Y-116257143D01*
X117207143Y-116328571D01*
X116421429Y-116328571D01*
X116421429Y-117042857D02*
X117421429Y-117042857D01*
X117278571Y-117042857D02*
X117350000Y-117114285D01*
X117421429Y-117257143D01*
X117421429Y-117471428D01*
X117350000Y-117614285D01*
X117207143Y-117685714D01*
X116421429Y-117685714D01*
X117207143Y-117685714D02*
X117350000Y-117757143D01*
X117421429Y-117900000D01*
X117421429Y-118114285D01*
X117350000Y-118257143D01*
X117207143Y-118328571D01*
X116421429Y-118328571D01*
X117100000Y-102900000D02*
X117100000Y-105900000D01*
X115100000Y-102900000D02*
X119800000Y-102900000D01*
X115100000Y-105900000D02*
X119800000Y-105900000D01*
X117100000Y-105900000D02*
X116513579Y-104773496D01*
X117100000Y-105900000D02*
X117686421Y-104773496D01*
X117100000Y-102900000D02*
X116513579Y-104026504D01*
X117100000Y-102900000D02*
X117686421Y-104026504D01*
D11*
X67100000Y-102900000D02*
X67100000Y-134900000D01*
X115100000Y-102900000D02*
X67100000Y-102900000D01*
X115100000Y-134900000D02*
X115100000Y-102900000D01*
X68766666Y-134900000D02*
G75*
G03X68766666Y-134900000I-1666666J0D01*
G01*
X64600000Y-134900000D02*
X69600000Y-134900000D01*
X67100000Y-132400000D02*
X67100000Y-137400000D01*
X115100000Y-134900000D02*
X67100000Y-134900000D01*
X68766666Y-134900000D02*
G75*
G03X68766666Y-134900000I-1666666J0D01*
G01*
X64600000Y-134900000D02*
X69600000Y-134900000D01*
X67100000Y-132400000D02*
X67100000Y-137400000D01*
D10*
X53576190Y-24804762D02*
X53576190Y-22804762D01*
X54338095Y-22804762D01*
X54528571Y-22900000D01*
X54623810Y-22995238D01*
X54719048Y-23185714D01*
X54719048Y-23471429D01*
X54623810Y-23661905D01*
X54528571Y-23757143D01*
X54338095Y-23852381D01*
X53576190Y-23852381D01*
X55861905Y-24804762D02*
X55671429Y-24709524D01*
X55576190Y-24614286D01*
X55480952Y-24423810D01*
X55480952Y-23852381D01*
X55576190Y-23661905D01*
X55671429Y-23566667D01*
X55861905Y-23471429D01*
X56147619Y-23471429D01*
X56338095Y-23566667D01*
X56433333Y-23661905D01*
X56528571Y-23852381D01*
X56528571Y-24423810D01*
X56433333Y-24614286D01*
X56338095Y-24709524D01*
X56147619Y-24804762D01*
X55861905Y-24804762D01*
X57195238Y-23471429D02*
X57576191Y-24804762D01*
X57957143Y-23852381D01*
X58338095Y-24804762D01*
X58719048Y-23471429D01*
X60242857Y-24709524D02*
X60052381Y-24804762D01*
X59671429Y-24804762D01*
X59480952Y-24709524D01*
X59385714Y-24519048D01*
X59385714Y-23757143D01*
X59480952Y-23566667D01*
X59671429Y-23471429D01*
X60052381Y-23471429D01*
X60242857Y-23566667D01*
X60338095Y-23757143D01*
X60338095Y-23947619D01*
X59385714Y-24138095D01*
X61195238Y-24804762D02*
X61195238Y-23471429D01*
X61195238Y-23852381D02*
X61290477Y-23661905D01*
X61385715Y-23566667D01*
X61576191Y-23471429D01*
X61766667Y-23471429D01*
X63957143Y-24042857D02*
X65480953Y-24042857D01*
X69004763Y-24804762D02*
X67861905Y-24804762D01*
X68433334Y-24804762D02*
X68433334Y-22804762D01*
X68242858Y-23090476D01*
X68052382Y-23280952D01*
X67861905Y-23376190D01*
X70242858Y-22804762D02*
X70433334Y-22804762D01*
X70623810Y-22900000D01*
X70719048Y-22995238D01*
X70814286Y-23185714D01*
X70909525Y-23566667D01*
X70909525Y-24042857D01*
X70814286Y-24423810D01*
X70719048Y-24614286D01*
X70623810Y-24709524D01*
X70433334Y-24804762D01*
X70242858Y-24804762D01*
X70052382Y-24709524D01*
X69957144Y-24614286D01*
X69861905Y-24423810D01*
X69766667Y-24042857D01*
X69766667Y-23566667D01*
X69861905Y-23185714D01*
X69957144Y-22995238D01*
X70052382Y-22900000D01*
X70242858Y-22804762D01*
X71576191Y-23471429D02*
X72052382Y-24804762D01*
X72528572Y-23471429D01*
X74814287Y-24042857D02*
X76338097Y-24042857D01*
X78623811Y-22804762D02*
X79861907Y-22804762D01*
X79195240Y-23566667D01*
X79480954Y-23566667D01*
X79671430Y-23661905D01*
X79766668Y-23757143D01*
X79861907Y-23947619D01*
X79861907Y-24423810D01*
X79766668Y-24614286D01*
X79671430Y-24709524D01*
X79480954Y-24804762D01*
X78909526Y-24804762D01*
X78719049Y-24709524D01*
X78623811Y-24614286D01*
X81100002Y-22804762D02*
X81290478Y-22804762D01*
X81480954Y-22900000D01*
X81576192Y-22995238D01*
X81671430Y-23185714D01*
X81766669Y-23566667D01*
X81766669Y-24042857D01*
X81671430Y-24423810D01*
X81576192Y-24614286D01*
X81480954Y-24709524D01*
X81290478Y-24804762D01*
X81100002Y-24804762D01*
X80909526Y-24709524D01*
X80814288Y-24614286D01*
X80719049Y-24423810D01*
X80623811Y-24042857D01*
X80623811Y-23566667D01*
X80719049Y-23185714D01*
X80814288Y-22995238D01*
X80909526Y-22900000D01*
X81100002Y-22804762D01*
X82433335Y-23471429D02*
X82909526Y-24804762D01*
X83385716Y-23471429D01*
X54147619Y-25904762D02*
X54147619Y-27333333D01*
X54052381Y-27619048D01*
X53861905Y-27809524D01*
X53576190Y-27904762D01*
X53385714Y-27904762D01*
X55100000Y-27904762D02*
X55100000Y-25904762D01*
X55861905Y-25904762D01*
X56052381Y-26000000D01*
X56147620Y-26095238D01*
X56242858Y-26285714D01*
X56242858Y-26571429D01*
X56147620Y-26761905D01*
X56052381Y-26857143D01*
X55861905Y-26952381D01*
X55100000Y-26952381D01*
X58147620Y-27904762D02*
X57004762Y-27904762D01*
X57576191Y-27904762D02*
X57576191Y-25904762D01*
X57385715Y-26190476D01*
X57195239Y-26380952D01*
X57004762Y-26476190D01*
X60528572Y-27142857D02*
X62052382Y-27142857D01*
X64528572Y-27904762D02*
X64528572Y-25904762D01*
X65480953Y-26571429D02*
X65480953Y-27904762D01*
X65480953Y-26761905D02*
X65576192Y-26666667D01*
X65766668Y-26571429D01*
X66052382Y-26571429D01*
X66242858Y-26666667D01*
X66338096Y-26857143D01*
X66338096Y-27904762D01*
X67195239Y-27809524D02*
X67385716Y-27904762D01*
X67766668Y-27904762D01*
X67957144Y-27809524D01*
X68052382Y-27619048D01*
X68052382Y-27523810D01*
X67957144Y-27333333D01*
X67766668Y-27238095D01*
X67480954Y-27238095D01*
X67290477Y-27142857D01*
X67195239Y-26952381D01*
X67195239Y-26857143D01*
X67290477Y-26666667D01*
X67480954Y-26571429D01*
X67766668Y-26571429D01*
X67957144Y-26666667D01*
X68623811Y-26571429D02*
X69385716Y-26571429D01*
X68909525Y-25904762D02*
X68909525Y-27619048D01*
X69004764Y-27809524D01*
X69195240Y-27904762D01*
X69385716Y-27904762D01*
X70909525Y-27904762D02*
X70909525Y-26857143D01*
X70814287Y-26666667D01*
X70623811Y-26571429D01*
X70242859Y-26571429D01*
X70052382Y-26666667D01*
X70909525Y-27809524D02*
X70719049Y-27904762D01*
X70242859Y-27904762D01*
X70052382Y-27809524D01*
X69957144Y-27619048D01*
X69957144Y-27428571D01*
X70052382Y-27238095D01*
X70242859Y-27142857D01*
X70719049Y-27142857D01*
X70909525Y-27047619D01*
X72147621Y-27904762D02*
X71957145Y-27809524D01*
X71861906Y-27619048D01*
X71861906Y-25904762D01*
X73195240Y-27904762D02*
X73004764Y-27809524D01*
X72909525Y-27619048D01*
X72909525Y-25904762D01*
X75480954Y-27904762D02*
X75480954Y-26571429D01*
X75480954Y-25904762D02*
X75385716Y-26000000D01*
X75480954Y-26095238D01*
X75576193Y-26000000D01*
X75480954Y-25904762D01*
X75480954Y-26095238D01*
X76147621Y-26571429D02*
X76909526Y-26571429D01*
X76433335Y-27904762D02*
X76433335Y-26190476D01*
X76528574Y-26000000D01*
X76719050Y-25904762D01*
X76909526Y-25904762D01*
X79100002Y-27904762D02*
X79100002Y-26571429D01*
X79100002Y-25904762D02*
X79004764Y-26000000D01*
X79100002Y-26095238D01*
X79195241Y-26000000D01*
X79100002Y-25904762D01*
X79100002Y-26095238D01*
X80052383Y-26571429D02*
X80052383Y-27904762D01*
X80052383Y-26761905D02*
X80147622Y-26666667D01*
X80338098Y-26571429D01*
X80623812Y-26571429D01*
X80814288Y-26666667D01*
X80909526Y-26857143D01*
X80909526Y-27904762D01*
X81861907Y-26571429D02*
X81861907Y-28571429D01*
X81861907Y-26666667D02*
X82052384Y-26571429D01*
X82433336Y-26571429D01*
X82623812Y-26666667D01*
X82719050Y-26761905D01*
X82814288Y-26952381D01*
X82814288Y-27523810D01*
X82719050Y-27714286D01*
X82623812Y-27809524D01*
X82433336Y-27904762D01*
X82052384Y-27904762D01*
X81861907Y-27809524D01*
X84528574Y-26571429D02*
X84528574Y-27904762D01*
X83671431Y-26571429D02*
X83671431Y-27619048D01*
X83766670Y-27809524D01*
X83957146Y-27904762D01*
X84242860Y-27904762D01*
X84433336Y-27809524D01*
X84528574Y-27714286D01*
X85195241Y-26571429D02*
X85957146Y-26571429D01*
X85480955Y-25904762D02*
X85480955Y-27619048D01*
X85576194Y-27809524D01*
X85766670Y-27904762D01*
X85957146Y-27904762D01*
X87861908Y-26571429D02*
X88623813Y-26571429D01*
X88147622Y-25904762D02*
X88147622Y-27619048D01*
X88242861Y-27809524D01*
X88433337Y-27904762D01*
X88623813Y-27904762D01*
X89290479Y-27904762D02*
X89290479Y-26571429D01*
X89290479Y-26952381D02*
X89385718Y-26761905D01*
X89480956Y-26666667D01*
X89671432Y-26571429D01*
X89861908Y-26571429D01*
X90528574Y-27904762D02*
X90528574Y-26571429D01*
X90528574Y-25904762D02*
X90433336Y-26000000D01*
X90528574Y-26095238D01*
X90623813Y-26000000D01*
X90528574Y-25904762D01*
X90528574Y-26095238D01*
X92338098Y-26571429D02*
X92338098Y-28190476D01*
X92242860Y-28380952D01*
X92147622Y-28476190D01*
X91957146Y-28571429D01*
X91671432Y-28571429D01*
X91480955Y-28476190D01*
X92338098Y-27809524D02*
X92147622Y-27904762D01*
X91766670Y-27904762D01*
X91576194Y-27809524D01*
X91480955Y-27714286D01*
X91385717Y-27523810D01*
X91385717Y-26952381D01*
X91480955Y-26761905D01*
X91576194Y-26666667D01*
X91766670Y-26571429D01*
X92147622Y-26571429D01*
X92338098Y-26666667D01*
X94147622Y-26571429D02*
X94147622Y-28190476D01*
X94052384Y-28380952D01*
X93957146Y-28476190D01*
X93766670Y-28571429D01*
X93480956Y-28571429D01*
X93290479Y-28476190D01*
X94147622Y-27809524D02*
X93957146Y-27904762D01*
X93576194Y-27904762D01*
X93385718Y-27809524D01*
X93290479Y-27714286D01*
X93195241Y-27523810D01*
X93195241Y-26952381D01*
X93290479Y-26761905D01*
X93385718Y-26666667D01*
X93576194Y-26571429D01*
X93957146Y-26571429D01*
X94147622Y-26666667D01*
X95861908Y-27809524D02*
X95671432Y-27904762D01*
X95290480Y-27904762D01*
X95100003Y-27809524D01*
X95004765Y-27619048D01*
X95004765Y-26857143D01*
X95100003Y-26666667D01*
X95290480Y-26571429D01*
X95671432Y-26571429D01*
X95861908Y-26666667D01*
X95957146Y-26857143D01*
X95957146Y-27047619D01*
X95004765Y-27238095D01*
X96814289Y-27904762D02*
X96814289Y-26571429D01*
X96814289Y-26952381D02*
X96909528Y-26761905D01*
X97004766Y-26666667D01*
X97195242Y-26571429D01*
X97385718Y-26571429D01*
X99576194Y-27904762D02*
X99576194Y-26571429D01*
X99576194Y-25904762D02*
X99480956Y-26000000D01*
X99576194Y-26095238D01*
X99671433Y-26000000D01*
X99576194Y-25904762D01*
X99576194Y-26095238D01*
X100433337Y-27809524D02*
X100623814Y-27904762D01*
X101004766Y-27904762D01*
X101195242Y-27809524D01*
X101290480Y-27619048D01*
X101290480Y-27523810D01*
X101195242Y-27333333D01*
X101004766Y-27238095D01*
X100719052Y-27238095D01*
X100528575Y-27142857D01*
X100433337Y-26952381D01*
X100433337Y-26857143D01*
X100528575Y-26666667D01*
X100719052Y-26571429D01*
X101004766Y-26571429D01*
X101195242Y-26666667D01*
X103671433Y-27904762D02*
X103671433Y-25904762D01*
X103671433Y-26666667D02*
X103861910Y-26571429D01*
X104242862Y-26571429D01*
X104433338Y-26666667D01*
X104528576Y-26761905D01*
X104623814Y-26952381D01*
X104623814Y-27523810D01*
X104528576Y-27714286D01*
X104433338Y-27809524D01*
X104242862Y-27904762D01*
X103861910Y-27904762D01*
X103671433Y-27809524D01*
X106242862Y-27809524D02*
X106052386Y-27904762D01*
X105671434Y-27904762D01*
X105480957Y-27809524D01*
X105385719Y-27619048D01*
X105385719Y-26857143D01*
X105480957Y-26666667D01*
X105671434Y-26571429D01*
X106052386Y-26571429D01*
X106242862Y-26666667D01*
X106338100Y-26857143D01*
X106338100Y-27047619D01*
X105385719Y-27238095D01*
X106909529Y-26571429D02*
X107671434Y-26571429D01*
X107195243Y-25904762D02*
X107195243Y-27619048D01*
X107290482Y-27809524D01*
X107480958Y-27904762D01*
X107671434Y-27904762D01*
X108147624Y-26571429D02*
X108528577Y-27904762D01*
X108909529Y-26952381D01*
X109290481Y-27904762D01*
X109671434Y-26571429D01*
X111195243Y-27809524D02*
X111004767Y-27904762D01*
X110623815Y-27904762D01*
X110433338Y-27809524D01*
X110338100Y-27619048D01*
X110338100Y-26857143D01*
X110433338Y-26666667D01*
X110623815Y-26571429D01*
X111004767Y-26571429D01*
X111195243Y-26666667D01*
X111290481Y-26857143D01*
X111290481Y-27047619D01*
X110338100Y-27238095D01*
X112909529Y-27809524D02*
X112719053Y-27904762D01*
X112338101Y-27904762D01*
X112147624Y-27809524D01*
X112052386Y-27619048D01*
X112052386Y-26857143D01*
X112147624Y-26666667D01*
X112338101Y-26571429D01*
X112719053Y-26571429D01*
X112909529Y-26666667D01*
X113004767Y-26857143D01*
X113004767Y-27047619D01*
X112052386Y-27238095D01*
X113861910Y-26571429D02*
X113861910Y-27904762D01*
X113861910Y-26761905D02*
X113957149Y-26666667D01*
X114147625Y-26571429D01*
X114433339Y-26571429D01*
X114623815Y-26666667D01*
X114719053Y-26857143D01*
X114719053Y-27904762D01*
X117004768Y-25904762D02*
X118242864Y-25904762D01*
X117576197Y-26666667D01*
X117861911Y-26666667D01*
X118052387Y-26761905D01*
X118147625Y-26857143D01*
X118242864Y-27047619D01*
X118242864Y-27523810D01*
X118147625Y-27714286D01*
X118052387Y-27809524D01*
X117861911Y-27904762D01*
X117290483Y-27904762D01*
X117100006Y-27809524D01*
X117004768Y-27714286D01*
X119100006Y-27714286D02*
X119195245Y-27809524D01*
X119100006Y-27904762D01*
X119004768Y-27809524D01*
X119100006Y-27714286D01*
X119100006Y-27904762D01*
X120433340Y-25904762D02*
X120623816Y-25904762D01*
X120814292Y-26000000D01*
X120909530Y-26095238D01*
X121004768Y-26285714D01*
X121100007Y-26666667D01*
X121100007Y-27142857D01*
X121004768Y-27523810D01*
X120909530Y-27714286D01*
X120814292Y-27809524D01*
X120623816Y-27904762D01*
X120433340Y-27904762D01*
X120242864Y-27809524D01*
X120147626Y-27714286D01*
X120052387Y-27523810D01*
X119957149Y-27142857D01*
X119957149Y-26666667D01*
X120052387Y-26285714D01*
X120147626Y-26095238D01*
X120242864Y-26000000D01*
X120433340Y-25904762D01*
X121766673Y-26571429D02*
X122242864Y-27904762D01*
X122719054Y-26571429D01*
X125004769Y-27142857D02*
X126528579Y-27142857D01*
X129957150Y-25904762D02*
X129004769Y-25904762D01*
X128909531Y-26857143D01*
X129004769Y-26761905D01*
X129195246Y-26666667D01*
X129671436Y-26666667D01*
X129861912Y-26761905D01*
X129957150Y-26857143D01*
X130052389Y-27047619D01*
X130052389Y-27523810D01*
X129957150Y-27714286D01*
X129861912Y-27809524D01*
X129671436Y-27904762D01*
X129195246Y-27904762D01*
X129004769Y-27809524D01*
X128909531Y-27714286D01*
X130909531Y-27714286D02*
X131004770Y-27809524D01*
X130909531Y-27904762D01*
X130814293Y-27809524D01*
X130909531Y-27714286D01*
X130909531Y-27904762D01*
X132814293Y-25904762D02*
X131861912Y-25904762D01*
X131766674Y-26857143D01*
X131861912Y-26761905D01*
X132052389Y-26666667D01*
X132528579Y-26666667D01*
X132719055Y-26761905D01*
X132814293Y-26857143D01*
X132909532Y-27047619D01*
X132909532Y-27523810D01*
X132814293Y-27714286D01*
X132719055Y-27809524D01*
X132528579Y-27904762D01*
X132052389Y-27904762D01*
X131861912Y-27809524D01*
X131766674Y-27714286D01*
X133576198Y-26571429D02*
X134052389Y-27904762D01*
X134528579Y-26571429D01*
X54147619Y-29004762D02*
X54147619Y-30433333D01*
X54052381Y-30719048D01*
X53861905Y-30909524D01*
X53576190Y-31004762D01*
X53385714Y-31004762D01*
X55100000Y-31004762D02*
X55100000Y-29004762D01*
X55861905Y-29004762D01*
X56052381Y-29100000D01*
X56147620Y-29195238D01*
X56242858Y-29385714D01*
X56242858Y-29671429D01*
X56147620Y-29861905D01*
X56052381Y-29957143D01*
X55861905Y-30052381D01*
X55100000Y-30052381D01*
X58147620Y-31004762D02*
X57004762Y-31004762D01*
X57576191Y-31004762D02*
X57576191Y-29004762D01*
X57385715Y-29290476D01*
X57195239Y-29480952D01*
X57004762Y-29576190D01*
X60528572Y-30242857D02*
X62052382Y-30242857D01*
X65671430Y-31004762D02*
X65004763Y-30052381D01*
X64528572Y-31004762D02*
X64528572Y-29004762D01*
X65290477Y-29004762D01*
X65480953Y-29100000D01*
X65576192Y-29195238D01*
X65671430Y-29385714D01*
X65671430Y-29671429D01*
X65576192Y-29861905D01*
X65480953Y-29957143D01*
X65290477Y-30052381D01*
X64528572Y-30052381D01*
X67290477Y-30909524D02*
X67100001Y-31004762D01*
X66719049Y-31004762D01*
X66528572Y-30909524D01*
X66433334Y-30719048D01*
X66433334Y-29957143D01*
X66528572Y-29766667D01*
X66719049Y-29671429D01*
X67100001Y-29671429D01*
X67290477Y-29766667D01*
X67385715Y-29957143D01*
X67385715Y-30147619D01*
X66433334Y-30338095D01*
X68242858Y-31004762D02*
X68242858Y-29671429D01*
X68242858Y-29861905D02*
X68338097Y-29766667D01*
X68528573Y-29671429D01*
X68814287Y-29671429D01*
X69004763Y-29766667D01*
X69100001Y-29957143D01*
X69100001Y-31004762D01*
X69100001Y-29957143D02*
X69195239Y-29766667D01*
X69385716Y-29671429D01*
X69671430Y-29671429D01*
X69861906Y-29766667D01*
X69957144Y-29957143D01*
X69957144Y-31004762D01*
X71195240Y-31004762D02*
X71004764Y-30909524D01*
X70909525Y-30814286D01*
X70814287Y-30623810D01*
X70814287Y-30052381D01*
X70909525Y-29861905D01*
X71004764Y-29766667D01*
X71195240Y-29671429D01*
X71480954Y-29671429D01*
X71671430Y-29766667D01*
X71766668Y-29861905D01*
X71861906Y-30052381D01*
X71861906Y-30623810D01*
X71766668Y-30814286D01*
X71671430Y-30909524D01*
X71480954Y-31004762D01*
X71195240Y-31004762D01*
X72528573Y-29671429D02*
X73004764Y-31004762D01*
X73480954Y-29671429D01*
X75004764Y-30909524D02*
X74814288Y-31004762D01*
X74433336Y-31004762D01*
X74242859Y-30909524D01*
X74147621Y-30719048D01*
X74147621Y-29957143D01*
X74242859Y-29766667D01*
X74433336Y-29671429D01*
X74814288Y-29671429D01*
X75004764Y-29766667D01*
X75100002Y-29957143D01*
X75100002Y-30147619D01*
X74147621Y-30338095D01*
X77480955Y-31004762D02*
X77480955Y-29671429D01*
X77480955Y-29004762D02*
X77385717Y-29100000D01*
X77480955Y-29195238D01*
X77576194Y-29100000D01*
X77480955Y-29004762D01*
X77480955Y-29195238D01*
X78147622Y-29671429D02*
X78909527Y-29671429D01*
X78433336Y-31004762D02*
X78433336Y-29290476D01*
X78528575Y-29100000D01*
X78719051Y-29004762D01*
X78909527Y-29004762D01*
X81100003Y-31004762D02*
X81100003Y-29671429D01*
X81100003Y-29004762D02*
X81004765Y-29100000D01*
X81100003Y-29195238D01*
X81195242Y-29100000D01*
X81100003Y-29004762D01*
X81100003Y-29195238D01*
X82052384Y-29671429D02*
X82052384Y-31004762D01*
X82052384Y-29861905D02*
X82147623Y-29766667D01*
X82338099Y-29671429D01*
X82623813Y-29671429D01*
X82814289Y-29766667D01*
X82909527Y-29957143D01*
X82909527Y-31004762D01*
X83861908Y-29671429D02*
X83861908Y-31671429D01*
X83861908Y-29766667D02*
X84052385Y-29671429D01*
X84433337Y-29671429D01*
X84623813Y-29766667D01*
X84719051Y-29861905D01*
X84814289Y-30052381D01*
X84814289Y-30623810D01*
X84719051Y-30814286D01*
X84623813Y-30909524D01*
X84433337Y-31004762D01*
X84052385Y-31004762D01*
X83861908Y-30909524D01*
X86528575Y-29671429D02*
X86528575Y-31004762D01*
X85671432Y-29671429D02*
X85671432Y-30719048D01*
X85766671Y-30909524D01*
X85957147Y-31004762D01*
X86242861Y-31004762D01*
X86433337Y-30909524D01*
X86528575Y-30814286D01*
X87195242Y-29671429D02*
X87957147Y-29671429D01*
X87480956Y-29004762D02*
X87480956Y-30719048D01*
X87576195Y-30909524D01*
X87766671Y-31004762D01*
X87957147Y-31004762D01*
X89861909Y-29671429D02*
X90623814Y-29671429D01*
X90147623Y-29004762D02*
X90147623Y-30719048D01*
X90242862Y-30909524D01*
X90433338Y-31004762D01*
X90623814Y-31004762D01*
X91290480Y-31004762D02*
X91290480Y-29671429D01*
X91290480Y-30052381D02*
X91385719Y-29861905D01*
X91480957Y-29766667D01*
X91671433Y-29671429D01*
X91861909Y-29671429D01*
X92528575Y-31004762D02*
X92528575Y-29671429D01*
X92528575Y-29004762D02*
X92433337Y-29100000D01*
X92528575Y-29195238D01*
X92623814Y-29100000D01*
X92528575Y-29004762D01*
X92528575Y-29195238D01*
X94338099Y-29671429D02*
X94338099Y-31290476D01*
X94242861Y-31480952D01*
X94147623Y-31576190D01*
X93957147Y-31671429D01*
X93671433Y-31671429D01*
X93480956Y-31576190D01*
X94338099Y-30909524D02*
X94147623Y-31004762D01*
X93766671Y-31004762D01*
X93576195Y-30909524D01*
X93480956Y-30814286D01*
X93385718Y-30623810D01*
X93385718Y-30052381D01*
X93480956Y-29861905D01*
X93576195Y-29766667D01*
X93766671Y-29671429D01*
X94147623Y-29671429D01*
X94338099Y-29766667D01*
X96147623Y-29671429D02*
X96147623Y-31290476D01*
X96052385Y-31480952D01*
X95957147Y-31576190D01*
X95766671Y-31671429D01*
X95480957Y-31671429D01*
X95290480Y-31576190D01*
X96147623Y-30909524D02*
X95957147Y-31004762D01*
X95576195Y-31004762D01*
X95385719Y-30909524D01*
X95290480Y-30814286D01*
X95195242Y-30623810D01*
X95195242Y-30052381D01*
X95290480Y-29861905D01*
X95385719Y-29766667D01*
X95576195Y-29671429D01*
X95957147Y-29671429D01*
X96147623Y-29766667D01*
X97861909Y-30909524D02*
X97671433Y-31004762D01*
X97290481Y-31004762D01*
X97100004Y-30909524D01*
X97004766Y-30719048D01*
X97004766Y-29957143D01*
X97100004Y-29766667D01*
X97290481Y-29671429D01*
X97671433Y-29671429D01*
X97861909Y-29766667D01*
X97957147Y-29957143D01*
X97957147Y-30147619D01*
X97004766Y-30338095D01*
X98814290Y-31004762D02*
X98814290Y-29671429D01*
X98814290Y-30052381D02*
X98909529Y-29861905D01*
X99004767Y-29766667D01*
X99195243Y-29671429D01*
X99385719Y-29671429D01*
X101576195Y-31004762D02*
X101576195Y-29671429D01*
X101576195Y-29004762D02*
X101480957Y-29100000D01*
X101576195Y-29195238D01*
X101671434Y-29100000D01*
X101576195Y-29004762D01*
X101576195Y-29195238D01*
X102433338Y-30909524D02*
X102623815Y-31004762D01*
X103004767Y-31004762D01*
X103195243Y-30909524D01*
X103290481Y-30719048D01*
X103290481Y-30623810D01*
X103195243Y-30433333D01*
X103004767Y-30338095D01*
X102719053Y-30338095D01*
X102528576Y-30242857D01*
X102433338Y-30052381D01*
X102433338Y-29957143D01*
X102528576Y-29766667D01*
X102719053Y-29671429D01*
X103004767Y-29671429D01*
X103195243Y-29766667D01*
X105671434Y-31004762D02*
X105671434Y-29004762D01*
X105671434Y-29766667D02*
X105861911Y-29671429D01*
X106242863Y-29671429D01*
X106433339Y-29766667D01*
X106528577Y-29861905D01*
X106623815Y-30052381D01*
X106623815Y-30623810D01*
X106528577Y-30814286D01*
X106433339Y-30909524D01*
X106242863Y-31004762D01*
X105861911Y-31004762D01*
X105671434Y-30909524D01*
X108242863Y-30909524D02*
X108052387Y-31004762D01*
X107671435Y-31004762D01*
X107480958Y-30909524D01*
X107385720Y-30719048D01*
X107385720Y-29957143D01*
X107480958Y-29766667D01*
X107671435Y-29671429D01*
X108052387Y-29671429D01*
X108242863Y-29766667D01*
X108338101Y-29957143D01*
X108338101Y-30147619D01*
X107385720Y-30338095D01*
X108909530Y-29671429D02*
X109671435Y-29671429D01*
X109195244Y-29004762D02*
X109195244Y-30719048D01*
X109290483Y-30909524D01*
X109480959Y-31004762D01*
X109671435Y-31004762D01*
X110147625Y-29671429D02*
X110528578Y-31004762D01*
X110909530Y-30052381D01*
X111290482Y-31004762D01*
X111671435Y-29671429D01*
X113195244Y-30909524D02*
X113004768Y-31004762D01*
X112623816Y-31004762D01*
X112433339Y-30909524D01*
X112338101Y-30719048D01*
X112338101Y-29957143D01*
X112433339Y-29766667D01*
X112623816Y-29671429D01*
X113004768Y-29671429D01*
X113195244Y-29766667D01*
X113290482Y-29957143D01*
X113290482Y-30147619D01*
X112338101Y-30338095D01*
X114909530Y-30909524D02*
X114719054Y-31004762D01*
X114338102Y-31004762D01*
X114147625Y-30909524D01*
X114052387Y-30719048D01*
X114052387Y-29957143D01*
X114147625Y-29766667D01*
X114338102Y-29671429D01*
X114719054Y-29671429D01*
X114909530Y-29766667D01*
X115004768Y-29957143D01*
X115004768Y-30147619D01*
X114052387Y-30338095D01*
X115861911Y-29671429D02*
X115861911Y-31004762D01*
X115861911Y-29861905D02*
X115957150Y-29766667D01*
X116147626Y-29671429D01*
X116433340Y-29671429D01*
X116623816Y-29766667D01*
X116719054Y-29957143D01*
X116719054Y-31004762D01*
X120242865Y-31004762D02*
X119100007Y-31004762D01*
X119671436Y-31004762D02*
X119671436Y-29004762D01*
X119480960Y-29290476D01*
X119290484Y-29480952D01*
X119100007Y-29576190D01*
X121480960Y-29004762D02*
X121671436Y-29004762D01*
X121861912Y-29100000D01*
X121957150Y-29195238D01*
X122052388Y-29385714D01*
X122147627Y-29766667D01*
X122147627Y-30242857D01*
X122052388Y-30623810D01*
X121957150Y-30814286D01*
X121861912Y-30909524D01*
X121671436Y-31004762D01*
X121480960Y-31004762D01*
X121290484Y-30909524D01*
X121195246Y-30814286D01*
X121100007Y-30623810D01*
X121004769Y-30242857D01*
X121004769Y-29766667D01*
X121100007Y-29385714D01*
X121195246Y-29195238D01*
X121290484Y-29100000D01*
X121480960Y-29004762D01*
X122814293Y-29671429D02*
X123290484Y-31004762D01*
X123766674Y-29671429D01*
X126052389Y-30242857D02*
X127576199Y-30242857D01*
X129861913Y-29004762D02*
X131100009Y-29004762D01*
X130433342Y-29766667D01*
X130719056Y-29766667D01*
X130909532Y-29861905D01*
X131004770Y-29957143D01*
X131100009Y-30147619D01*
X131100009Y-30623810D01*
X131004770Y-30814286D01*
X130909532Y-30909524D01*
X130719056Y-31004762D01*
X130147628Y-31004762D01*
X129957151Y-30909524D01*
X129861913Y-30814286D01*
X132338104Y-29004762D02*
X132528580Y-29004762D01*
X132719056Y-29100000D01*
X132814294Y-29195238D01*
X132909532Y-29385714D01*
X133004771Y-29766667D01*
X133004771Y-30242857D01*
X132909532Y-30623810D01*
X132814294Y-30814286D01*
X132719056Y-30909524D01*
X132528580Y-31004762D01*
X132338104Y-31004762D01*
X132147628Y-30909524D01*
X132052390Y-30814286D01*
X131957151Y-30623810D01*
X131861913Y-30242857D01*
X131861913Y-29766667D01*
X131957151Y-29385714D01*
X132052390Y-29195238D01*
X132147628Y-29100000D01*
X132338104Y-29004762D01*
X133671437Y-29671429D02*
X134147628Y-31004762D01*
X134623818Y-29671429D01*
X53290476Y-35204762D02*
X54433333Y-35204762D01*
X53861905Y-37204762D02*
X53861905Y-35204762D01*
X55100000Y-37204762D02*
X55100000Y-35204762D01*
X55957143Y-37204762D02*
X55957143Y-36157143D01*
X55861905Y-35966667D01*
X55671429Y-35871429D01*
X55385715Y-35871429D01*
X55195239Y-35966667D01*
X55100000Y-36061905D01*
X57671429Y-37109524D02*
X57480953Y-37204762D01*
X57100001Y-37204762D01*
X56909524Y-37109524D01*
X56814286Y-36919048D01*
X56814286Y-36157143D01*
X56909524Y-35966667D01*
X57100001Y-35871429D01*
X57480953Y-35871429D01*
X57671429Y-35966667D01*
X57766667Y-36157143D01*
X57766667Y-36347619D01*
X56814286Y-36538095D01*
X60147620Y-37204762D02*
X60147620Y-35871429D01*
X60147620Y-35204762D02*
X60052382Y-35300000D01*
X60147620Y-35395238D01*
X60242859Y-35300000D01*
X60147620Y-35204762D01*
X60147620Y-35395238D01*
X61100001Y-35871429D02*
X61100001Y-37204762D01*
X61100001Y-36061905D02*
X61195240Y-35966667D01*
X61385716Y-35871429D01*
X61671430Y-35871429D01*
X61861906Y-35966667D01*
X61957144Y-36157143D01*
X61957144Y-37204762D01*
X62909525Y-35871429D02*
X62909525Y-37871429D01*
X62909525Y-35966667D02*
X63100002Y-35871429D01*
X63480954Y-35871429D01*
X63671430Y-35966667D01*
X63766668Y-36061905D01*
X63861906Y-36252381D01*
X63861906Y-36823810D01*
X63766668Y-37014286D01*
X63671430Y-37109524D01*
X63480954Y-37204762D01*
X63100002Y-37204762D01*
X62909525Y-37109524D01*
X65576192Y-35871429D02*
X65576192Y-37204762D01*
X64719049Y-35871429D02*
X64719049Y-36919048D01*
X64814288Y-37109524D01*
X65004764Y-37204762D01*
X65290478Y-37204762D01*
X65480954Y-37109524D01*
X65576192Y-37014286D01*
X66242859Y-35871429D02*
X67004764Y-35871429D01*
X66528573Y-35204762D02*
X66528573Y-36919048D01*
X66623812Y-37109524D01*
X66814288Y-37204762D01*
X67004764Y-37204762D01*
X68909526Y-35871429D02*
X69671431Y-35871429D01*
X69195240Y-35204762D02*
X69195240Y-36919048D01*
X69290479Y-37109524D01*
X69480955Y-37204762D01*
X69671431Y-37204762D01*
X70338097Y-37204762D02*
X70338097Y-35871429D01*
X70338097Y-36252381D02*
X70433336Y-36061905D01*
X70528574Y-35966667D01*
X70719050Y-35871429D01*
X70909526Y-35871429D01*
X71576192Y-37204762D02*
X71576192Y-35871429D01*
X71576192Y-35204762D02*
X71480954Y-35300000D01*
X71576192Y-35395238D01*
X71671431Y-35300000D01*
X71576192Y-35204762D01*
X71576192Y-35395238D01*
X73385716Y-35871429D02*
X73385716Y-37490476D01*
X73290478Y-37680952D01*
X73195240Y-37776190D01*
X73004764Y-37871429D01*
X72719050Y-37871429D01*
X72528573Y-37776190D01*
X73385716Y-37109524D02*
X73195240Y-37204762D01*
X72814288Y-37204762D01*
X72623812Y-37109524D01*
X72528573Y-37014286D01*
X72433335Y-36823810D01*
X72433335Y-36252381D01*
X72528573Y-36061905D01*
X72623812Y-35966667D01*
X72814288Y-35871429D01*
X73195240Y-35871429D01*
X73385716Y-35966667D01*
X75195240Y-35871429D02*
X75195240Y-37490476D01*
X75100002Y-37680952D01*
X75004764Y-37776190D01*
X74814288Y-37871429D01*
X74528574Y-37871429D01*
X74338097Y-37776190D01*
X75195240Y-37109524D02*
X75004764Y-37204762D01*
X74623812Y-37204762D01*
X74433336Y-37109524D01*
X74338097Y-37014286D01*
X74242859Y-36823810D01*
X74242859Y-36252381D01*
X74338097Y-36061905D01*
X74433336Y-35966667D01*
X74623812Y-35871429D01*
X75004764Y-35871429D01*
X75195240Y-35966667D01*
X76909526Y-37109524D02*
X76719050Y-37204762D01*
X76338098Y-37204762D01*
X76147621Y-37109524D01*
X76052383Y-36919048D01*
X76052383Y-36157143D01*
X76147621Y-35966667D01*
X76338098Y-35871429D01*
X76719050Y-35871429D01*
X76909526Y-35966667D01*
X77004764Y-36157143D01*
X77004764Y-36347619D01*
X76052383Y-36538095D01*
X77861907Y-37204762D02*
X77861907Y-35871429D01*
X77861907Y-36252381D02*
X77957146Y-36061905D01*
X78052384Y-35966667D01*
X78242860Y-35871429D01*
X78433336Y-35871429D01*
X80623812Y-37204762D02*
X80623812Y-35871429D01*
X80623812Y-35204762D02*
X80528574Y-35300000D01*
X80623812Y-35395238D01*
X80719051Y-35300000D01*
X80623812Y-35204762D01*
X80623812Y-35395238D01*
X81480955Y-37109524D02*
X81671432Y-37204762D01*
X82052384Y-37204762D01*
X82242860Y-37109524D01*
X82338098Y-36919048D01*
X82338098Y-36823810D01*
X82242860Y-36633333D01*
X82052384Y-36538095D01*
X81766670Y-36538095D01*
X81576193Y-36442857D01*
X81480955Y-36252381D01*
X81480955Y-36157143D01*
X81576193Y-35966667D01*
X81766670Y-35871429D01*
X82052384Y-35871429D01*
X82242860Y-35966667D01*
X85004766Y-37204762D02*
X84814290Y-37109524D01*
X84719051Y-37014286D01*
X84623813Y-36823810D01*
X84623813Y-36252381D01*
X84719051Y-36061905D01*
X84814290Y-35966667D01*
X85004766Y-35871429D01*
X85290480Y-35871429D01*
X85480956Y-35966667D01*
X85576194Y-36061905D01*
X85671432Y-36252381D01*
X85671432Y-36823810D01*
X85576194Y-37014286D01*
X85480956Y-37109524D01*
X85290480Y-37204762D01*
X85004766Y-37204762D01*
X86528575Y-35871429D02*
X86528575Y-37871429D01*
X86528575Y-35966667D02*
X86719052Y-35871429D01*
X87100004Y-35871429D01*
X87290480Y-35966667D01*
X87385718Y-36061905D01*
X87480956Y-36252381D01*
X87480956Y-36823810D01*
X87385718Y-37014286D01*
X87290480Y-37109524D01*
X87100004Y-37204762D01*
X86719052Y-37204762D01*
X86528575Y-37109524D01*
X88052385Y-35871429D02*
X88814290Y-35871429D01*
X88338099Y-35204762D02*
X88338099Y-36919048D01*
X88433338Y-37109524D01*
X88623814Y-37204762D01*
X88814290Y-37204762D01*
X89480956Y-37204762D02*
X89480956Y-35871429D01*
X89480956Y-35204762D02*
X89385718Y-35300000D01*
X89480956Y-35395238D01*
X89576195Y-35300000D01*
X89480956Y-35204762D01*
X89480956Y-35395238D01*
X91290480Y-37109524D02*
X91100004Y-37204762D01*
X90719052Y-37204762D01*
X90528576Y-37109524D01*
X90433337Y-37014286D01*
X90338099Y-36823810D01*
X90338099Y-36252381D01*
X90433337Y-36061905D01*
X90528576Y-35966667D01*
X90719052Y-35871429D01*
X91100004Y-35871429D01*
X91290480Y-35966667D01*
X92433338Y-37204762D02*
X92242862Y-37109524D01*
X92147623Y-36919048D01*
X92147623Y-35204762D01*
X93004766Y-35871429D02*
X93480957Y-37204762D01*
X93957147Y-35871429D02*
X93480957Y-37204762D01*
X93290481Y-37680952D01*
X93195242Y-37776190D01*
X93004766Y-37871429D01*
X96242862Y-37204762D02*
X96242862Y-35871429D01*
X96242862Y-35204762D02*
X96147624Y-35300000D01*
X96242862Y-35395238D01*
X96338101Y-35300000D01*
X96242862Y-35204762D01*
X96242862Y-35395238D01*
X97100005Y-37109524D02*
X97290482Y-37204762D01*
X97671434Y-37204762D01*
X97861910Y-37109524D01*
X97957148Y-36919048D01*
X97957148Y-36823810D01*
X97861910Y-36633333D01*
X97671434Y-36538095D01*
X97385720Y-36538095D01*
X97195243Y-36442857D01*
X97100005Y-36252381D01*
X97100005Y-36157143D01*
X97195243Y-35966667D01*
X97385720Y-35871429D01*
X97671434Y-35871429D01*
X97861910Y-35966667D01*
X99100006Y-37204762D02*
X98909530Y-37109524D01*
X98814291Y-37014286D01*
X98719053Y-36823810D01*
X98719053Y-36252381D01*
X98814291Y-36061905D01*
X98909530Y-35966667D01*
X99100006Y-35871429D01*
X99385720Y-35871429D01*
X99576196Y-35966667D01*
X99671434Y-36061905D01*
X99766672Y-36252381D01*
X99766672Y-36823810D01*
X99671434Y-37014286D01*
X99576196Y-37109524D01*
X99385720Y-37204762D01*
X99100006Y-37204762D01*
X100909530Y-37204762D02*
X100719054Y-37109524D01*
X100623815Y-36919048D01*
X100623815Y-35204762D01*
X102528577Y-37204762D02*
X102528577Y-36157143D01*
X102433339Y-35966667D01*
X102242863Y-35871429D01*
X101861911Y-35871429D01*
X101671434Y-35966667D01*
X102528577Y-37109524D02*
X102338101Y-37204762D01*
X101861911Y-37204762D01*
X101671434Y-37109524D01*
X101576196Y-36919048D01*
X101576196Y-36728571D01*
X101671434Y-36538095D01*
X101861911Y-36442857D01*
X102338101Y-36442857D01*
X102528577Y-36347619D01*
X103195244Y-35871429D02*
X103957149Y-35871429D01*
X103480958Y-35204762D02*
X103480958Y-36919048D01*
X103576197Y-37109524D01*
X103766673Y-37204762D01*
X103957149Y-37204762D01*
X105385720Y-37109524D02*
X105195244Y-37204762D01*
X104814292Y-37204762D01*
X104623815Y-37109524D01*
X104528577Y-36919048D01*
X104528577Y-36157143D01*
X104623815Y-35966667D01*
X104814292Y-35871429D01*
X105195244Y-35871429D01*
X105385720Y-35966667D01*
X105480958Y-36157143D01*
X105480958Y-36347619D01*
X104528577Y-36538095D01*
X107195244Y-37204762D02*
X107195244Y-35204762D01*
X107195244Y-37109524D02*
X107004768Y-37204762D01*
X106623816Y-37204762D01*
X106433340Y-37109524D01*
X106338101Y-37014286D01*
X106242863Y-36823810D01*
X106242863Y-36252381D01*
X106338101Y-36061905D01*
X106433340Y-35966667D01*
X106623816Y-35871429D01*
X107004768Y-35871429D01*
X107195244Y-35966667D01*
X109385721Y-35871429D02*
X110147626Y-35871429D01*
X109671435Y-37204762D02*
X109671435Y-35490476D01*
X109766674Y-35300000D01*
X109957150Y-35204762D01*
X110147626Y-35204762D01*
X110814292Y-37204762D02*
X110814292Y-35871429D01*
X110814292Y-36252381D02*
X110909531Y-36061905D01*
X111004769Y-35966667D01*
X111195245Y-35871429D01*
X111385721Y-35871429D01*
X112338102Y-37204762D02*
X112147626Y-37109524D01*
X112052387Y-37014286D01*
X111957149Y-36823810D01*
X111957149Y-36252381D01*
X112052387Y-36061905D01*
X112147626Y-35966667D01*
X112338102Y-35871429D01*
X112623816Y-35871429D01*
X112814292Y-35966667D01*
X112909530Y-36061905D01*
X113004768Y-36252381D01*
X113004768Y-36823810D01*
X112909530Y-37014286D01*
X112814292Y-37109524D01*
X112623816Y-37204762D01*
X112338102Y-37204762D01*
X113861911Y-37204762D02*
X113861911Y-35871429D01*
X113861911Y-36061905D02*
X113957150Y-35966667D01*
X114147626Y-35871429D01*
X114433340Y-35871429D01*
X114623816Y-35966667D01*
X114719054Y-36157143D01*
X114719054Y-37204762D01*
X114719054Y-36157143D02*
X114814292Y-35966667D01*
X115004769Y-35871429D01*
X115290483Y-35871429D01*
X115480959Y-35966667D01*
X115576197Y-36157143D01*
X115576197Y-37204762D01*
X117766674Y-35871429D02*
X118528579Y-35871429D01*
X118052388Y-35204762D02*
X118052388Y-36919048D01*
X118147627Y-37109524D01*
X118338103Y-37204762D01*
X118528579Y-37204762D01*
X119195245Y-37204762D02*
X119195245Y-35204762D01*
X120052388Y-37204762D02*
X120052388Y-36157143D01*
X119957150Y-35966667D01*
X119766674Y-35871429D01*
X119480960Y-35871429D01*
X119290484Y-35966667D01*
X119195245Y-36061905D01*
X121766674Y-37109524D02*
X121576198Y-37204762D01*
X121195246Y-37204762D01*
X121004769Y-37109524D01*
X120909531Y-36919048D01*
X120909531Y-36157143D01*
X121004769Y-35966667D01*
X121195246Y-35871429D01*
X121576198Y-35871429D01*
X121766674Y-35966667D01*
X121861912Y-36157143D01*
X121861912Y-36347619D01*
X120909531Y-36538095D01*
X124242865Y-37204762D02*
X124242865Y-35204762D01*
X124242865Y-35966667D02*
X124433342Y-35871429D01*
X124814294Y-35871429D01*
X125004770Y-35966667D01*
X125100008Y-36061905D01*
X125195246Y-36252381D01*
X125195246Y-36823810D01*
X125100008Y-37014286D01*
X125004770Y-37109524D01*
X124814294Y-37204762D01*
X124433342Y-37204762D01*
X124242865Y-37109524D01*
X126814294Y-37109524D02*
X126623818Y-37204762D01*
X126242866Y-37204762D01*
X126052389Y-37109524D01*
X125957151Y-36919048D01*
X125957151Y-36157143D01*
X126052389Y-35966667D01*
X126242866Y-35871429D01*
X126623818Y-35871429D01*
X126814294Y-35966667D01*
X126909532Y-36157143D01*
X126909532Y-36347619D01*
X125957151Y-36538095D01*
X128623818Y-37204762D02*
X128623818Y-35204762D01*
X128623818Y-37109524D02*
X128433342Y-37204762D01*
X128052390Y-37204762D01*
X127861914Y-37109524D01*
X127766675Y-37014286D01*
X127671437Y-36823810D01*
X127671437Y-36252381D01*
X127766675Y-36061905D01*
X127861914Y-35966667D01*
X128052390Y-35871429D01*
X128433342Y-35871429D01*
X128623818Y-35966667D01*
X131100009Y-35871429D02*
X131100009Y-37871429D01*
X131100009Y-35966667D02*
X131290486Y-35871429D01*
X131671438Y-35871429D01*
X131861914Y-35966667D01*
X131957152Y-36061905D01*
X132052390Y-36252381D01*
X132052390Y-36823810D01*
X131957152Y-37014286D01*
X131861914Y-37109524D01*
X131671438Y-37204762D01*
X131290486Y-37204762D01*
X131100009Y-37109524D01*
X133195248Y-37204762D02*
X133004772Y-37109524D01*
X132909533Y-37014286D01*
X132814295Y-36823810D01*
X132814295Y-36252381D01*
X132909533Y-36061905D01*
X133004772Y-35966667D01*
X133195248Y-35871429D01*
X133480962Y-35871429D01*
X133671438Y-35966667D01*
X133766676Y-36061905D01*
X133861914Y-36252381D01*
X133861914Y-36823810D01*
X133766676Y-37014286D01*
X133671438Y-37109524D01*
X133480962Y-37204762D01*
X133195248Y-37204762D01*
X134528581Y-35871429D02*
X134909534Y-37204762D01*
X135290486Y-36252381D01*
X135671438Y-37204762D01*
X136052391Y-35871429D01*
X137576200Y-37109524D02*
X137385724Y-37204762D01*
X137004772Y-37204762D01*
X136814295Y-37109524D01*
X136719057Y-36919048D01*
X136719057Y-36157143D01*
X136814295Y-35966667D01*
X137004772Y-35871429D01*
X137385724Y-35871429D01*
X137576200Y-35966667D01*
X137671438Y-36157143D01*
X137671438Y-36347619D01*
X136719057Y-36538095D01*
X138528581Y-37204762D02*
X138528581Y-35871429D01*
X138528581Y-36252381D02*
X138623820Y-36061905D01*
X138719058Y-35966667D01*
X138909534Y-35871429D01*
X139100010Y-35871429D01*
X141195248Y-37109524D02*
X141385725Y-37204762D01*
X141766677Y-37204762D01*
X141957153Y-37109524D01*
X142052391Y-36919048D01*
X142052391Y-36823810D01*
X141957153Y-36633333D01*
X141766677Y-36538095D01*
X141480963Y-36538095D01*
X141290486Y-36442857D01*
X141195248Y-36252381D01*
X141195248Y-36157143D01*
X141290486Y-35966667D01*
X141480963Y-35871429D01*
X141766677Y-35871429D01*
X141957153Y-35966667D01*
X143766677Y-35871429D02*
X143766677Y-37204762D01*
X142909534Y-35871429D02*
X142909534Y-36919048D01*
X143004773Y-37109524D01*
X143195249Y-37204762D01*
X143480963Y-37204762D01*
X143671439Y-37109524D01*
X143766677Y-37014286D01*
X144719058Y-35871429D02*
X144719058Y-37871429D01*
X144719058Y-35966667D02*
X144909535Y-35871429D01*
X145290487Y-35871429D01*
X145480963Y-35966667D01*
X145576201Y-36061905D01*
X145671439Y-36252381D01*
X145671439Y-36823810D01*
X145576201Y-37014286D01*
X145480963Y-37109524D01*
X145290487Y-37204762D01*
X144909535Y-37204762D01*
X144719058Y-37109524D01*
X146528582Y-35871429D02*
X146528582Y-37871429D01*
X146528582Y-35966667D02*
X146719059Y-35871429D01*
X147100011Y-35871429D01*
X147290487Y-35966667D01*
X147385725Y-36061905D01*
X147480963Y-36252381D01*
X147480963Y-36823810D01*
X147385725Y-37014286D01*
X147290487Y-37109524D01*
X147100011Y-37204762D01*
X146719059Y-37204762D01*
X146528582Y-37109524D01*
X148623821Y-37204762D02*
X148433345Y-37109524D01*
X148338106Y-36919048D01*
X148338106Y-35204762D01*
X149195249Y-35871429D02*
X149671440Y-37204762D01*
X150147630Y-35871429D02*
X149671440Y-37204762D01*
X149480964Y-37680952D01*
X149385725Y-37776190D01*
X149195249Y-37871429D01*
X150909535Y-37014286D02*
X151004774Y-37109524D01*
X150909535Y-37204762D01*
X150814297Y-37109524D01*
X150909535Y-37014286D01*
X150909535Y-37204762D01*
X53385714Y-41404762D02*
X54623810Y-41404762D01*
X53957143Y-42166667D01*
X54242857Y-42166667D01*
X54433333Y-42261905D01*
X54528571Y-42357143D01*
X54623810Y-42547619D01*
X54623810Y-43023810D01*
X54528571Y-43214286D01*
X54433333Y-43309524D01*
X54242857Y-43404762D01*
X53671429Y-43404762D01*
X53480952Y-43309524D01*
X53385714Y-43214286D01*
X55861905Y-41404762D02*
X56052381Y-41404762D01*
X56242857Y-41500000D01*
X56338095Y-41595238D01*
X56433333Y-41785714D01*
X56528572Y-42166667D01*
X56528572Y-42642857D01*
X56433333Y-43023810D01*
X56338095Y-43214286D01*
X56242857Y-43309524D01*
X56052381Y-43404762D01*
X55861905Y-43404762D01*
X55671429Y-43309524D01*
X55576191Y-43214286D01*
X55480952Y-43023810D01*
X55385714Y-42642857D01*
X55385714Y-42166667D01*
X55480952Y-41785714D01*
X55576191Y-41595238D01*
X55671429Y-41500000D01*
X55861905Y-41404762D01*
X57290476Y-42833333D02*
X58242857Y-42833333D01*
X57100000Y-43404762D02*
X57766667Y-41404762D01*
X58433334Y-43404762D01*
X60623810Y-43404762D02*
X60623810Y-41404762D01*
X61290477Y-42833333D01*
X61957144Y-41404762D01*
X61957144Y-43404762D01*
X63766667Y-43404762D02*
X63766667Y-42357143D01*
X63671429Y-42166667D01*
X63480953Y-42071429D01*
X63100001Y-42071429D01*
X62909524Y-42166667D01*
X63766667Y-43309524D02*
X63576191Y-43404762D01*
X63100001Y-43404762D01*
X62909524Y-43309524D01*
X62814286Y-43119048D01*
X62814286Y-42928571D01*
X62909524Y-42738095D01*
X63100001Y-42642857D01*
X63576191Y-42642857D01*
X63766667Y-42547619D01*
X64528572Y-43404762D02*
X65576191Y-42071429D01*
X64528572Y-42071429D02*
X65576191Y-43404762D01*
X68719049Y-43309524D02*
X68528573Y-43404762D01*
X68147621Y-43404762D01*
X67957145Y-43309524D01*
X67861906Y-43214286D01*
X67766668Y-43023810D01*
X67766668Y-42452381D01*
X67861906Y-42261905D01*
X67957145Y-42166667D01*
X68147621Y-42071429D01*
X68528573Y-42071429D01*
X68719049Y-42166667D01*
X70433335Y-42071429D02*
X70433335Y-43404762D01*
X69576192Y-42071429D02*
X69576192Y-43119048D01*
X69671431Y-43309524D01*
X69861907Y-43404762D01*
X70147621Y-43404762D01*
X70338097Y-43309524D01*
X70433335Y-43214286D01*
X71385716Y-43404762D02*
X71385716Y-42071429D01*
X71385716Y-42452381D02*
X71480955Y-42261905D01*
X71576193Y-42166667D01*
X71766669Y-42071429D01*
X71957145Y-42071429D01*
X73385716Y-43309524D02*
X73195240Y-43404762D01*
X72814288Y-43404762D01*
X72623811Y-43309524D01*
X72528573Y-43119048D01*
X72528573Y-42357143D01*
X72623811Y-42166667D01*
X72814288Y-42071429D01*
X73195240Y-42071429D01*
X73385716Y-42166667D01*
X73480954Y-42357143D01*
X73480954Y-42547619D01*
X72528573Y-42738095D01*
X74338097Y-42071429D02*
X74338097Y-43404762D01*
X74338097Y-42261905D02*
X74433336Y-42166667D01*
X74623812Y-42071429D01*
X74909526Y-42071429D01*
X75100002Y-42166667D01*
X75195240Y-42357143D01*
X75195240Y-43404762D01*
X75861907Y-42071429D02*
X76623812Y-42071429D01*
X76147621Y-41404762D02*
X76147621Y-43119048D01*
X76242860Y-43309524D01*
X76433336Y-43404762D01*
X76623812Y-43404762D01*
X78528574Y-42071429D02*
X79290479Y-42071429D01*
X78814288Y-41404762D02*
X78814288Y-43119048D01*
X78909527Y-43309524D01*
X79100003Y-43404762D01*
X79290479Y-43404762D01*
X79957145Y-43404762D02*
X79957145Y-41404762D01*
X80814288Y-43404762D02*
X80814288Y-42357143D01*
X80719050Y-42166667D01*
X80528574Y-42071429D01*
X80242860Y-42071429D01*
X80052384Y-42166667D01*
X79957145Y-42261905D01*
X81766669Y-43404762D02*
X81766669Y-42071429D01*
X81766669Y-42452381D02*
X81861908Y-42261905D01*
X81957146Y-42166667D01*
X82147622Y-42071429D01*
X82338098Y-42071429D01*
X83290479Y-43404762D02*
X83100003Y-43309524D01*
X83004764Y-43214286D01*
X82909526Y-43023810D01*
X82909526Y-42452381D01*
X83004764Y-42261905D01*
X83100003Y-42166667D01*
X83290479Y-42071429D01*
X83576193Y-42071429D01*
X83766669Y-42166667D01*
X83861907Y-42261905D01*
X83957145Y-42452381D01*
X83957145Y-43023810D01*
X83861907Y-43214286D01*
X83766669Y-43309524D01*
X83576193Y-43404762D01*
X83290479Y-43404762D01*
X85671431Y-42071429D02*
X85671431Y-43404762D01*
X84814288Y-42071429D02*
X84814288Y-43119048D01*
X84909527Y-43309524D01*
X85100003Y-43404762D01*
X85385717Y-43404762D01*
X85576193Y-43309524D01*
X85671431Y-43214286D01*
X87480955Y-42071429D02*
X87480955Y-43690476D01*
X87385717Y-43880952D01*
X87290479Y-43976190D01*
X87100003Y-44071429D01*
X86814289Y-44071429D01*
X86623812Y-43976190D01*
X87480955Y-43309524D02*
X87290479Y-43404762D01*
X86909527Y-43404762D01*
X86719051Y-43309524D01*
X86623812Y-43214286D01*
X86528574Y-43023810D01*
X86528574Y-42452381D01*
X86623812Y-42261905D01*
X86719051Y-42166667D01*
X86909527Y-42071429D01*
X87290479Y-42071429D01*
X87480955Y-42166667D01*
X88433336Y-43404762D02*
X88433336Y-41404762D01*
X89290479Y-43404762D02*
X89290479Y-42357143D01*
X89195241Y-42166667D01*
X89004765Y-42071429D01*
X88719051Y-42071429D01*
X88528575Y-42166667D01*
X88433336Y-42261905D01*
X93100004Y-43595238D02*
X92909528Y-43500000D01*
X92719051Y-43309524D01*
X92433337Y-43023810D01*
X92242861Y-42928571D01*
X92052385Y-42928571D01*
X92147623Y-43404762D02*
X91957147Y-43309524D01*
X91766670Y-43119048D01*
X91671432Y-42738095D01*
X91671432Y-42071429D01*
X91766670Y-41690476D01*
X91957147Y-41500000D01*
X92147623Y-41404762D01*
X92528575Y-41404762D01*
X92719051Y-41500000D01*
X92909528Y-41690476D01*
X93004766Y-42071429D01*
X93004766Y-42738095D01*
X92909528Y-43119048D01*
X92719051Y-43309524D01*
X92528575Y-43404762D01*
X92147623Y-43404762D01*
X94909528Y-43404762D02*
X93766670Y-43404762D01*
X94338099Y-43404762D02*
X94338099Y-41404762D01*
X94147623Y-41690476D01*
X93957147Y-41880952D01*
X93766670Y-41976190D01*
X95766670Y-43214286D02*
X95861909Y-43309524D01*
X95766670Y-43404762D01*
X95671432Y-43309524D01*
X95766670Y-43214286D01*
X95766670Y-43404762D01*
X101100005Y-43595238D02*
X100909529Y-43500000D01*
X100719052Y-43309524D01*
X100433338Y-43023810D01*
X100242862Y-42928571D01*
X100052386Y-42928571D01*
X100147624Y-43404762D02*
X99957148Y-43309524D01*
X99766671Y-43119048D01*
X99671433Y-42738095D01*
X99671433Y-42071429D01*
X99766671Y-41690476D01*
X99957148Y-41500000D01*
X100147624Y-41404762D01*
X100528576Y-41404762D01*
X100719052Y-41500000D01*
X100909529Y-41690476D01*
X101004767Y-42071429D01*
X101004767Y-42738095D01*
X100909529Y-43119048D01*
X100719052Y-43309524D01*
X100528576Y-43404762D01*
X100147624Y-43404762D01*
X102909529Y-43404762D02*
X101766671Y-43404762D01*
X102338100Y-43404762D02*
X102338100Y-41404762D01*
X102147624Y-41690476D01*
X101957148Y-41880952D01*
X101766671Y-41976190D01*
X105290481Y-43404762D02*
X105290481Y-42071429D01*
X105290481Y-41404762D02*
X105195243Y-41500000D01*
X105290481Y-41595238D01*
X105385720Y-41500000D01*
X105290481Y-41404762D01*
X105290481Y-41595238D01*
X106147624Y-43309524D02*
X106338101Y-43404762D01*
X106719053Y-43404762D01*
X106909529Y-43309524D01*
X107004767Y-43119048D01*
X107004767Y-43023810D01*
X106909529Y-42833333D01*
X106719053Y-42738095D01*
X106433339Y-42738095D01*
X106242862Y-42642857D01*
X106147624Y-42452381D01*
X106147624Y-42357143D01*
X106242862Y-42166667D01*
X106433339Y-42071429D01*
X106719053Y-42071429D01*
X106909529Y-42166667D01*
X110242863Y-43309524D02*
X110052387Y-43404762D01*
X109671435Y-43404762D01*
X109480959Y-43309524D01*
X109385720Y-43214286D01*
X109290482Y-43023810D01*
X109290482Y-42452381D01*
X109385720Y-42261905D01*
X109480959Y-42166667D01*
X109671435Y-42071429D01*
X110052387Y-42071429D01*
X110242863Y-42166667D01*
X111957149Y-43404762D02*
X111957149Y-42357143D01*
X111861911Y-42166667D01*
X111671435Y-42071429D01*
X111290483Y-42071429D01*
X111100006Y-42166667D01*
X111957149Y-43309524D02*
X111766673Y-43404762D01*
X111290483Y-43404762D01*
X111100006Y-43309524D01*
X111004768Y-43119048D01*
X111004768Y-42928571D01*
X111100006Y-42738095D01*
X111290483Y-42642857D01*
X111766673Y-42642857D01*
X111957149Y-42547619D01*
X112909530Y-42071429D02*
X112909530Y-44071429D01*
X112909530Y-42166667D02*
X113100007Y-42071429D01*
X113480959Y-42071429D01*
X113671435Y-42166667D01*
X113766673Y-42261905D01*
X113861911Y-42452381D01*
X113861911Y-43023810D01*
X113766673Y-43214286D01*
X113671435Y-43309524D01*
X113480959Y-43404762D01*
X113100007Y-43404762D01*
X112909530Y-43309524D01*
X115576197Y-43404762D02*
X115576197Y-42357143D01*
X115480959Y-42166667D01*
X115290483Y-42071429D01*
X114909531Y-42071429D01*
X114719054Y-42166667D01*
X115576197Y-43309524D02*
X115385721Y-43404762D01*
X114909531Y-43404762D01*
X114719054Y-43309524D01*
X114623816Y-43119048D01*
X114623816Y-42928571D01*
X114719054Y-42738095D01*
X114909531Y-42642857D01*
X115385721Y-42642857D01*
X115576197Y-42547619D01*
X116528578Y-43404762D02*
X116528578Y-41404762D01*
X116528578Y-42166667D02*
X116719055Y-42071429D01*
X117100007Y-42071429D01*
X117290483Y-42166667D01*
X117385721Y-42261905D01*
X117480959Y-42452381D01*
X117480959Y-43023810D01*
X117385721Y-43214286D01*
X117290483Y-43309524D01*
X117100007Y-43404762D01*
X116719055Y-43404762D01*
X116528578Y-43309524D01*
X118623817Y-43404762D02*
X118433341Y-43309524D01*
X118338102Y-43119048D01*
X118338102Y-41404762D01*
X120147626Y-43309524D02*
X119957150Y-43404762D01*
X119576198Y-43404762D01*
X119385721Y-43309524D01*
X119290483Y-43119048D01*
X119290483Y-42357143D01*
X119385721Y-42166667D01*
X119576198Y-42071429D01*
X119957150Y-42071429D01*
X120147626Y-42166667D01*
X120242864Y-42357143D01*
X120242864Y-42547619D01*
X119290483Y-42738095D01*
X122909532Y-43404762D02*
X122719056Y-43309524D01*
X122623817Y-43214286D01*
X122528579Y-43023810D01*
X122528579Y-42452381D01*
X122623817Y-42261905D01*
X122719056Y-42166667D01*
X122909532Y-42071429D01*
X123195246Y-42071429D01*
X123385722Y-42166667D01*
X123480960Y-42261905D01*
X123576198Y-42452381D01*
X123576198Y-43023810D01*
X123480960Y-43214286D01*
X123385722Y-43309524D01*
X123195246Y-43404762D01*
X122909532Y-43404762D01*
X124147627Y-42071429D02*
X124909532Y-42071429D01*
X124433341Y-43404762D02*
X124433341Y-41690476D01*
X124528580Y-41500000D01*
X124719056Y-41404762D01*
X124909532Y-41404762D01*
X128147628Y-43404762D02*
X127004770Y-43404762D01*
X127576199Y-43404762D02*
X127576199Y-41404762D01*
X127385723Y-41690476D01*
X127195247Y-41880952D01*
X127004770Y-41976190D01*
X129385723Y-41404762D02*
X129576199Y-41404762D01*
X129766675Y-41500000D01*
X129861913Y-41595238D01*
X129957151Y-41785714D01*
X130052390Y-42166667D01*
X130052390Y-42642857D01*
X129957151Y-43023810D01*
X129861913Y-43214286D01*
X129766675Y-43309524D01*
X129576199Y-43404762D01*
X129385723Y-43404762D01*
X129195247Y-43309524D01*
X129100009Y-43214286D01*
X129004770Y-43023810D01*
X128909532Y-42642857D01*
X128909532Y-42166667D01*
X129004770Y-41785714D01*
X129100009Y-41595238D01*
X129195247Y-41500000D01*
X129385723Y-41404762D01*
X131290485Y-41404762D02*
X131480961Y-41404762D01*
X131671437Y-41500000D01*
X131766675Y-41595238D01*
X131861913Y-41785714D01*
X131957152Y-42166667D01*
X131957152Y-42642857D01*
X131861913Y-43023810D01*
X131766675Y-43214286D01*
X131671437Y-43309524D01*
X131480961Y-43404762D01*
X131290485Y-43404762D01*
X131100009Y-43309524D01*
X131004771Y-43214286D01*
X130909532Y-43023810D01*
X130814294Y-42642857D01*
X130814294Y-42166667D01*
X130909532Y-41785714D01*
X131004771Y-41595238D01*
X131100009Y-41500000D01*
X131290485Y-41404762D01*
X132719056Y-42833333D02*
X133671437Y-42833333D01*
X132528580Y-43404762D02*
X133195247Y-41404762D01*
X133861914Y-43404762D01*
X136909533Y-43404762D02*
X136909533Y-42357143D01*
X136814295Y-42166667D01*
X136623819Y-42071429D01*
X136242867Y-42071429D01*
X136052390Y-42166667D01*
X136909533Y-43309524D02*
X136719057Y-43404762D01*
X136242867Y-43404762D01*
X136052390Y-43309524D01*
X135957152Y-43119048D01*
X135957152Y-42928571D01*
X136052390Y-42738095D01*
X136242867Y-42642857D01*
X136719057Y-42642857D01*
X136909533Y-42547619D01*
X137576200Y-42071429D02*
X138338105Y-42071429D01*
X137861914Y-41404762D02*
X137861914Y-43119048D01*
X137957153Y-43309524D01*
X138147629Y-43404762D01*
X138338105Y-43404762D01*
X53480952Y-44695238D02*
X53576190Y-44600000D01*
X53766667Y-44504762D01*
X54242857Y-44504762D01*
X54433333Y-44600000D01*
X54528571Y-44695238D01*
X54623810Y-44885714D01*
X54623810Y-45076190D01*
X54528571Y-45361905D01*
X53385714Y-46504762D01*
X54623810Y-46504762D01*
X56433333Y-44504762D02*
X55480952Y-44504762D01*
X55385714Y-45457143D01*
X55480952Y-45361905D01*
X55671429Y-45266667D01*
X56147619Y-45266667D01*
X56338095Y-45361905D01*
X56433333Y-45457143D01*
X56528572Y-45647619D01*
X56528572Y-46123810D01*
X56433333Y-46314286D01*
X56338095Y-46409524D01*
X56147619Y-46504762D01*
X55671429Y-46504762D01*
X55480952Y-46409524D01*
X55385714Y-46314286D01*
X59766667Y-46504762D02*
X59766667Y-44504762D01*
X59766667Y-46409524D02*
X59576191Y-46504762D01*
X59195239Y-46504762D01*
X59004763Y-46409524D01*
X58909524Y-46314286D01*
X58814286Y-46123810D01*
X58814286Y-45552381D01*
X58909524Y-45361905D01*
X59004763Y-45266667D01*
X59195239Y-45171429D01*
X59576191Y-45171429D01*
X59766667Y-45266667D01*
X61480953Y-46409524D02*
X61290477Y-46504762D01*
X60909525Y-46504762D01*
X60719048Y-46409524D01*
X60623810Y-46219048D01*
X60623810Y-45457143D01*
X60719048Y-45266667D01*
X60909525Y-45171429D01*
X61290477Y-45171429D01*
X61480953Y-45266667D01*
X61576191Y-45457143D01*
X61576191Y-45647619D01*
X60623810Y-45838095D01*
X63290477Y-45171429D02*
X63290477Y-46790476D01*
X63195239Y-46980952D01*
X63100001Y-47076190D01*
X62909525Y-47171429D01*
X62623811Y-47171429D01*
X62433334Y-47076190D01*
X63290477Y-46409524D02*
X63100001Y-46504762D01*
X62719049Y-46504762D01*
X62528573Y-46409524D01*
X62433334Y-46314286D01*
X62338096Y-46123810D01*
X62338096Y-45552381D01*
X62433334Y-45361905D01*
X62528573Y-45266667D01*
X62719049Y-45171429D01*
X63100001Y-45171429D01*
X63290477Y-45266667D01*
X66909526Y-46314286D02*
X66814288Y-46409524D01*
X66528573Y-46504762D01*
X66338097Y-46504762D01*
X66052383Y-46409524D01*
X65861907Y-46219048D01*
X65766668Y-46028571D01*
X65671430Y-45647619D01*
X65671430Y-45361905D01*
X65766668Y-44980952D01*
X65861907Y-44790476D01*
X66052383Y-44600000D01*
X66338097Y-44504762D01*
X66528573Y-44504762D01*
X66814288Y-44600000D01*
X66909526Y-44695238D01*
X69290478Y-46504762D02*
X69290478Y-44504762D01*
X69290478Y-45266667D02*
X69480955Y-45171429D01*
X69861907Y-45171429D01*
X70052383Y-45266667D01*
X70147621Y-45361905D01*
X70242859Y-45552381D01*
X70242859Y-46123810D01*
X70147621Y-46314286D01*
X70052383Y-46409524D01*
X69861907Y-46504762D01*
X69480955Y-46504762D01*
X69290478Y-46409524D01*
X71957145Y-45171429D02*
X71957145Y-46504762D01*
X71100002Y-45171429D02*
X71100002Y-46219048D01*
X71195241Y-46409524D01*
X71385717Y-46504762D01*
X71671431Y-46504762D01*
X71861907Y-46409524D01*
X71957145Y-46314286D01*
X72623812Y-45171429D02*
X73385717Y-45171429D01*
X72909526Y-44504762D02*
X72909526Y-46219048D01*
X73004765Y-46409524D01*
X73195241Y-46504762D01*
X73385717Y-46504762D01*
X75290479Y-45171429D02*
X76052384Y-45171429D01*
X75576193Y-44504762D02*
X75576193Y-46219048D01*
X75671432Y-46409524D01*
X75861908Y-46504762D01*
X76052384Y-46504762D01*
X76719050Y-46504762D02*
X76719050Y-44504762D01*
X77576193Y-46504762D02*
X77576193Y-45457143D01*
X77480955Y-45266667D01*
X77290479Y-45171429D01*
X77004765Y-45171429D01*
X76814289Y-45266667D01*
X76719050Y-45361905D01*
X79290479Y-46409524D02*
X79100003Y-46504762D01*
X78719051Y-46504762D01*
X78528574Y-46409524D01*
X78433336Y-46219048D01*
X78433336Y-45457143D01*
X78528574Y-45266667D01*
X78719051Y-45171429D01*
X79100003Y-45171429D01*
X79290479Y-45266667D01*
X79385717Y-45457143D01*
X79385717Y-45647619D01*
X78433336Y-45838095D01*
X81766670Y-45171429D02*
X81766670Y-47171429D01*
X81766670Y-45266667D02*
X81957147Y-45171429D01*
X82338099Y-45171429D01*
X82528575Y-45266667D01*
X82623813Y-45361905D01*
X82719051Y-45552381D01*
X82719051Y-46123810D01*
X82623813Y-46314286D01*
X82528575Y-46409524D01*
X82338099Y-46504762D01*
X81957147Y-46504762D01*
X81766670Y-46409524D01*
X83861909Y-46504762D02*
X83671433Y-46409524D01*
X83576194Y-46314286D01*
X83480956Y-46123810D01*
X83480956Y-45552381D01*
X83576194Y-45361905D01*
X83671433Y-45266667D01*
X83861909Y-45171429D01*
X84147623Y-45171429D01*
X84338099Y-45266667D01*
X84433337Y-45361905D01*
X84528575Y-45552381D01*
X84528575Y-46123810D01*
X84433337Y-46314286D01*
X84338099Y-46409524D01*
X84147623Y-46504762D01*
X83861909Y-46504762D01*
X85195242Y-45171429D02*
X85576195Y-46504762D01*
X85957147Y-45552381D01*
X86338099Y-46504762D01*
X86719052Y-45171429D01*
X88242861Y-46409524D02*
X88052385Y-46504762D01*
X87671433Y-46504762D01*
X87480956Y-46409524D01*
X87385718Y-46219048D01*
X87385718Y-45457143D01*
X87480956Y-45266667D01*
X87671433Y-45171429D01*
X88052385Y-45171429D01*
X88242861Y-45266667D01*
X88338099Y-45457143D01*
X88338099Y-45647619D01*
X87385718Y-45838095D01*
X89195242Y-46504762D02*
X89195242Y-45171429D01*
X89195242Y-45552381D02*
X89290481Y-45361905D01*
X89385719Y-45266667D01*
X89576195Y-45171429D01*
X89766671Y-45171429D01*
X91671433Y-45171429D02*
X92433338Y-45171429D01*
X91957147Y-44504762D02*
X91957147Y-46219048D01*
X92052386Y-46409524D01*
X92242862Y-46504762D01*
X92433338Y-46504762D01*
X93861909Y-46409524D02*
X93671433Y-46504762D01*
X93290481Y-46504762D01*
X93100004Y-46409524D01*
X93004766Y-46219048D01*
X93004766Y-45457143D01*
X93100004Y-45266667D01*
X93290481Y-45171429D01*
X93671433Y-45171429D01*
X93861909Y-45266667D01*
X93957147Y-45457143D01*
X93957147Y-45647619D01*
X93004766Y-45838095D01*
X94814290Y-46504762D02*
X94814290Y-45171429D01*
X94814290Y-45552381D02*
X94909529Y-45361905D01*
X95004767Y-45266667D01*
X95195243Y-45171429D01*
X95385719Y-45171429D01*
X96052385Y-46504762D02*
X96052385Y-45171429D01*
X96052385Y-45361905D02*
X96147624Y-45266667D01*
X96338100Y-45171429D01*
X96623814Y-45171429D01*
X96814290Y-45266667D01*
X96909528Y-45457143D01*
X96909528Y-46504762D01*
X96909528Y-45457143D02*
X97004766Y-45266667D01*
X97195243Y-45171429D01*
X97480957Y-45171429D01*
X97671433Y-45266667D01*
X97766671Y-45457143D01*
X97766671Y-46504762D01*
X98719052Y-46504762D02*
X98719052Y-45171429D01*
X98719052Y-44504762D02*
X98623814Y-44600000D01*
X98719052Y-44695238D01*
X98814291Y-44600000D01*
X98719052Y-44504762D01*
X98719052Y-44695238D01*
X99671433Y-45171429D02*
X99671433Y-46504762D01*
X99671433Y-45361905D02*
X99766672Y-45266667D01*
X99957148Y-45171429D01*
X100242862Y-45171429D01*
X100433338Y-45266667D01*
X100528576Y-45457143D01*
X100528576Y-46504762D01*
X102338100Y-46504762D02*
X102338100Y-45457143D01*
X102242862Y-45266667D01*
X102052386Y-45171429D01*
X101671434Y-45171429D01*
X101480957Y-45266667D01*
X102338100Y-46409524D02*
X102147624Y-46504762D01*
X101671434Y-46504762D01*
X101480957Y-46409524D01*
X101385719Y-46219048D01*
X101385719Y-46028571D01*
X101480957Y-45838095D01*
X101671434Y-45742857D01*
X102147624Y-45742857D01*
X102338100Y-45647619D01*
X103576196Y-46504762D02*
X103385720Y-46409524D01*
X103290481Y-46219048D01*
X103290481Y-44504762D01*
X104242862Y-46409524D02*
X104433339Y-46504762D01*
X104814291Y-46504762D01*
X105004767Y-46409524D01*
X105100005Y-46219048D01*
X105100005Y-46123810D01*
X105004767Y-45933333D01*
X104814291Y-45838095D01*
X104528577Y-45838095D01*
X104338100Y-45742857D01*
X104242862Y-45552381D01*
X104242862Y-45457143D01*
X104338100Y-45266667D01*
X104528577Y-45171429D01*
X104814291Y-45171429D01*
X105004767Y-45266667D01*
X108338101Y-46504762D02*
X108338101Y-45457143D01*
X108242863Y-45266667D01*
X108052387Y-45171429D01*
X107671435Y-45171429D01*
X107480958Y-45266667D01*
X108338101Y-46409524D02*
X108147625Y-46504762D01*
X107671435Y-46504762D01*
X107480958Y-46409524D01*
X107385720Y-46219048D01*
X107385720Y-46028571D01*
X107480958Y-45838095D01*
X107671435Y-45742857D01*
X108147625Y-45742857D01*
X108338101Y-45647619D01*
X109290482Y-46504762D02*
X109290482Y-45171429D01*
X109290482Y-45552381D02*
X109385721Y-45361905D01*
X109480959Y-45266667D01*
X109671435Y-45171429D01*
X109861911Y-45171429D01*
X111290482Y-46409524D02*
X111100006Y-46504762D01*
X110719054Y-46504762D01*
X110528577Y-46409524D01*
X110433339Y-46219048D01*
X110433339Y-45457143D01*
X110528577Y-45266667D01*
X110719054Y-45171429D01*
X111100006Y-45171429D01*
X111290482Y-45266667D01*
X111385720Y-45457143D01*
X111385720Y-45647619D01*
X110433339Y-45838095D01*
X113766673Y-46504762D02*
X113766673Y-45171429D01*
X113766673Y-45552381D02*
X113861912Y-45361905D01*
X113957150Y-45266667D01*
X114147626Y-45171429D01*
X114338102Y-45171429D01*
X115861911Y-46504762D02*
X115861911Y-45457143D01*
X115766673Y-45266667D01*
X115576197Y-45171429D01*
X115195245Y-45171429D01*
X115004768Y-45266667D01*
X115861911Y-46409524D02*
X115671435Y-46504762D01*
X115195245Y-46504762D01*
X115004768Y-46409524D01*
X114909530Y-46219048D01*
X114909530Y-46028571D01*
X115004768Y-45838095D01*
X115195245Y-45742857D01*
X115671435Y-45742857D01*
X115861911Y-45647619D01*
X116528578Y-45171429D02*
X117290483Y-45171429D01*
X116814292Y-44504762D02*
X116814292Y-46219048D01*
X116909531Y-46409524D01*
X117100007Y-46504762D01*
X117290483Y-46504762D01*
X118719054Y-46409524D02*
X118528578Y-46504762D01*
X118147626Y-46504762D01*
X117957149Y-46409524D01*
X117861911Y-46219048D01*
X117861911Y-45457143D01*
X117957149Y-45266667D01*
X118147626Y-45171429D01*
X118528578Y-45171429D01*
X118719054Y-45266667D01*
X118814292Y-45457143D01*
X118814292Y-45647619D01*
X117861911Y-45838095D01*
X120528578Y-46504762D02*
X120528578Y-44504762D01*
X120528578Y-46409524D02*
X120338102Y-46504762D01*
X119957150Y-46504762D01*
X119766674Y-46409524D01*
X119671435Y-46314286D01*
X119576197Y-46123810D01*
X119576197Y-45552381D01*
X119671435Y-45361905D01*
X119766674Y-45266667D01*
X119957150Y-45171429D01*
X120338102Y-45171429D01*
X120528578Y-45266667D01*
X122719055Y-45171429D02*
X123480960Y-45171429D01*
X123004769Y-46504762D02*
X123004769Y-44790476D01*
X123100008Y-44600000D01*
X123290484Y-44504762D01*
X123480960Y-44504762D01*
X124433341Y-46504762D02*
X124242865Y-46409524D01*
X124147626Y-46314286D01*
X124052388Y-46123810D01*
X124052388Y-45552381D01*
X124147626Y-45361905D01*
X124242865Y-45266667D01*
X124433341Y-45171429D01*
X124719055Y-45171429D01*
X124909531Y-45266667D01*
X125004769Y-45361905D01*
X125100007Y-45552381D01*
X125100007Y-46123810D01*
X125004769Y-46314286D01*
X124909531Y-46409524D01*
X124719055Y-46504762D01*
X124433341Y-46504762D01*
X125957150Y-46504762D02*
X125957150Y-45171429D01*
X125957150Y-45552381D02*
X126052389Y-45361905D01*
X126147627Y-45266667D01*
X126338103Y-45171429D01*
X126528579Y-45171429D01*
X128528579Y-44504762D02*
X129766675Y-44504762D01*
X129100008Y-45266667D01*
X129385722Y-45266667D01*
X129576198Y-45361905D01*
X129671436Y-45457143D01*
X129766675Y-45647619D01*
X129766675Y-46123810D01*
X129671436Y-46314286D01*
X129576198Y-46409524D01*
X129385722Y-46504762D01*
X128814294Y-46504762D01*
X128623817Y-46409524D01*
X128528579Y-46314286D01*
X131004770Y-44504762D02*
X131195246Y-44504762D01*
X131385722Y-44600000D01*
X131480960Y-44695238D01*
X131576198Y-44885714D01*
X131671437Y-45266667D01*
X131671437Y-45742857D01*
X131576198Y-46123810D01*
X131480960Y-46314286D01*
X131385722Y-46409524D01*
X131195246Y-46504762D01*
X131004770Y-46504762D01*
X130814294Y-46409524D01*
X130719056Y-46314286D01*
X130623817Y-46123810D01*
X130528579Y-45742857D01*
X130528579Y-45266667D01*
X130623817Y-44885714D01*
X130719056Y-44695238D01*
X130814294Y-44600000D01*
X131004770Y-44504762D01*
X132433341Y-45933333D02*
X133385722Y-45933333D01*
X132242865Y-46504762D02*
X132909532Y-44504762D01*
X133576199Y-46504762D01*
X53576190Y-52704762D02*
X53576190Y-50704762D01*
X54242857Y-52133333D01*
X54909524Y-50704762D01*
X54909524Y-52704762D01*
X56719047Y-52704762D02*
X56719047Y-51657143D01*
X56623809Y-51466667D01*
X56433333Y-51371429D01*
X56052381Y-51371429D01*
X55861904Y-51466667D01*
X56719047Y-52609524D02*
X56528571Y-52704762D01*
X56052381Y-52704762D01*
X55861904Y-52609524D01*
X55766666Y-52419048D01*
X55766666Y-52228571D01*
X55861904Y-52038095D01*
X56052381Y-51942857D01*
X56528571Y-51942857D01*
X56719047Y-51847619D01*
X57480952Y-52704762D02*
X58528571Y-51371429D01*
X57480952Y-51371429D02*
X58528571Y-52704762D01*
X60719048Y-52609524D02*
X60909525Y-52704762D01*
X61290477Y-52704762D01*
X61480953Y-52609524D01*
X61576191Y-52419048D01*
X61576191Y-52323810D01*
X61480953Y-52133333D01*
X61290477Y-52038095D01*
X61004763Y-52038095D01*
X60814286Y-51942857D01*
X60719048Y-51752381D01*
X60719048Y-51657143D01*
X60814286Y-51466667D01*
X61004763Y-51371429D01*
X61290477Y-51371429D01*
X61480953Y-51466667D01*
X62433334Y-52704762D02*
X62433334Y-51371429D01*
X62433334Y-50704762D02*
X62338096Y-50800000D01*
X62433334Y-50895238D01*
X62528573Y-50800000D01*
X62433334Y-50704762D01*
X62433334Y-50895238D01*
X63195239Y-51371429D02*
X64242858Y-51371429D01*
X63195239Y-52704762D01*
X64242858Y-52704762D01*
X65766668Y-52609524D02*
X65576192Y-52704762D01*
X65195240Y-52704762D01*
X65004763Y-52609524D01*
X64909525Y-52419048D01*
X64909525Y-51657143D01*
X65004763Y-51466667D01*
X65195240Y-51371429D01*
X65576192Y-51371429D01*
X65766668Y-51466667D01*
X65861906Y-51657143D01*
X65861906Y-51847619D01*
X64909525Y-52038095D01*
X68242859Y-52704762D02*
X68242859Y-50704762D01*
X69100002Y-52704762D02*
X69100002Y-51657143D01*
X69004764Y-51466667D01*
X68814288Y-51371429D01*
X68528574Y-51371429D01*
X68338098Y-51466667D01*
X68242859Y-51561905D01*
X70814288Y-52609524D02*
X70623812Y-52704762D01*
X70242860Y-52704762D01*
X70052383Y-52609524D01*
X69957145Y-52419048D01*
X69957145Y-51657143D01*
X70052383Y-51466667D01*
X70242860Y-51371429D01*
X70623812Y-51371429D01*
X70814288Y-51466667D01*
X70909526Y-51657143D01*
X70909526Y-51847619D01*
X69957145Y-52038095D01*
X72623812Y-52704762D02*
X72623812Y-51657143D01*
X72528574Y-51466667D01*
X72338098Y-51371429D01*
X71957146Y-51371429D01*
X71766669Y-51466667D01*
X72623812Y-52609524D02*
X72433336Y-52704762D01*
X71957146Y-52704762D01*
X71766669Y-52609524D01*
X71671431Y-52419048D01*
X71671431Y-52228571D01*
X71766669Y-52038095D01*
X71957146Y-51942857D01*
X72433336Y-51942857D01*
X72623812Y-51847619D01*
X73290479Y-51371429D02*
X74052384Y-51371429D01*
X73576193Y-50704762D02*
X73576193Y-52419048D01*
X73671432Y-52609524D01*
X73861908Y-52704762D01*
X74052384Y-52704762D01*
X75480955Y-52609524D02*
X75290479Y-52704762D01*
X74909527Y-52704762D01*
X74719050Y-52609524D01*
X74623812Y-52419048D01*
X74623812Y-51657143D01*
X74719050Y-51466667D01*
X74909527Y-51371429D01*
X75290479Y-51371429D01*
X75480955Y-51466667D01*
X75576193Y-51657143D01*
X75576193Y-51847619D01*
X74623812Y-52038095D01*
X77290479Y-52704762D02*
X77290479Y-50704762D01*
X77290479Y-52609524D02*
X77100003Y-52704762D01*
X76719051Y-52704762D01*
X76528575Y-52609524D01*
X76433336Y-52514286D01*
X76338098Y-52323810D01*
X76338098Y-51752381D01*
X76433336Y-51561905D01*
X76528575Y-51466667D01*
X76719051Y-51371429D01*
X77100003Y-51371429D01*
X77290479Y-51466667D01*
X79766670Y-52704762D02*
X79766670Y-50704762D01*
X79766670Y-51466667D02*
X79957147Y-51371429D01*
X80338099Y-51371429D01*
X80528575Y-51466667D01*
X80623813Y-51561905D01*
X80719051Y-51752381D01*
X80719051Y-52323810D01*
X80623813Y-52514286D01*
X80528575Y-52609524D01*
X80338099Y-52704762D01*
X79957147Y-52704762D01*
X79766670Y-52609524D01*
X82338099Y-52609524D02*
X82147623Y-52704762D01*
X81766671Y-52704762D01*
X81576194Y-52609524D01*
X81480956Y-52419048D01*
X81480956Y-51657143D01*
X81576194Y-51466667D01*
X81766671Y-51371429D01*
X82147623Y-51371429D01*
X82338099Y-51466667D01*
X82433337Y-51657143D01*
X82433337Y-51847619D01*
X81480956Y-52038095D01*
X84147623Y-52704762D02*
X84147623Y-50704762D01*
X84147623Y-52609524D02*
X83957147Y-52704762D01*
X83576195Y-52704762D01*
X83385719Y-52609524D01*
X83290480Y-52514286D01*
X83195242Y-52323810D01*
X83195242Y-51752381D01*
X83290480Y-51561905D01*
X83385719Y-51466667D01*
X83576195Y-51371429D01*
X83957147Y-51371429D01*
X84147623Y-51466667D01*
X61004764Y-53804762D02*
X62242860Y-53804762D01*
X61576193Y-54566667D01*
X61861907Y-54566667D01*
X62052383Y-54661905D01*
X62147621Y-54757143D01*
X62242860Y-54947619D01*
X62242860Y-55423810D01*
X62147621Y-55614286D01*
X62052383Y-55709524D01*
X61861907Y-55804762D01*
X61290479Y-55804762D01*
X61100002Y-55709524D01*
X61004764Y-55614286D01*
X63480955Y-53804762D02*
X63671431Y-53804762D01*
X63861907Y-53900000D01*
X63957145Y-53995238D01*
X64052383Y-54185714D01*
X64147622Y-54566667D01*
X64147622Y-55042857D01*
X64052383Y-55423810D01*
X63957145Y-55614286D01*
X63861907Y-55709524D01*
X63671431Y-55804762D01*
X63480955Y-55804762D01*
X63290479Y-55709524D01*
X63195241Y-55614286D01*
X63100002Y-55423810D01*
X63004764Y-55042857D01*
X63004764Y-54566667D01*
X63100002Y-54185714D01*
X63195241Y-53995238D01*
X63290479Y-53900000D01*
X63480955Y-53804762D01*
X64814288Y-54471429D02*
X65290479Y-55804762D01*
X65766669Y-54471429D01*
X68052384Y-55042857D02*
X69576194Y-55042857D01*
X72147623Y-55804762D02*
X72528575Y-55804762D01*
X72719051Y-55709524D01*
X72814289Y-55614286D01*
X73004765Y-55328571D01*
X73100004Y-54947619D01*
X73100004Y-54185714D01*
X73004765Y-53995238D01*
X72909527Y-53900000D01*
X72719051Y-53804762D01*
X72338099Y-53804762D01*
X72147623Y-53900000D01*
X72052384Y-53995238D01*
X71957146Y-54185714D01*
X71957146Y-54661905D01*
X72052384Y-54852381D01*
X72147623Y-54947619D01*
X72338099Y-55042857D01*
X72719051Y-55042857D01*
X72909527Y-54947619D01*
X73004765Y-54852381D01*
X73100004Y-54661905D01*
X74338099Y-53804762D02*
X74528575Y-53804762D01*
X74719051Y-53900000D01*
X74814289Y-53995238D01*
X74909527Y-54185714D01*
X75004766Y-54566667D01*
X75004766Y-55042857D01*
X74909527Y-55423810D01*
X74814289Y-55614286D01*
X74719051Y-55709524D01*
X74528575Y-55804762D01*
X74338099Y-55804762D01*
X74147623Y-55709524D01*
X74052385Y-55614286D01*
X73957146Y-55423810D01*
X73861908Y-55042857D01*
X73861908Y-54566667D01*
X73957146Y-54185714D01*
X74052385Y-53995238D01*
X74147623Y-53900000D01*
X74338099Y-53804762D01*
X76242861Y-53804762D02*
X76433337Y-53804762D01*
X76623813Y-53900000D01*
X76719051Y-53995238D01*
X76814289Y-54185714D01*
X76909528Y-54566667D01*
X76909528Y-55042857D01*
X76814289Y-55423810D01*
X76719051Y-55614286D01*
X76623813Y-55709524D01*
X76433337Y-55804762D01*
X76242861Y-55804762D01*
X76052385Y-55709524D01*
X75957147Y-55614286D01*
X75861908Y-55423810D01*
X75766670Y-55042857D01*
X75766670Y-54566667D01*
X75861908Y-54185714D01*
X75957147Y-53995238D01*
X76052385Y-53900000D01*
X76242861Y-53804762D01*
X79100004Y-53804762D02*
X79576195Y-55804762D01*
X79957147Y-54376190D01*
X80338100Y-55804762D01*
X80814290Y-53804762D01*
X82433337Y-55804762D02*
X82433337Y-54757143D01*
X82338099Y-54566667D01*
X82147623Y-54471429D01*
X81766671Y-54471429D01*
X81576194Y-54566667D01*
X82433337Y-55709524D02*
X82242861Y-55804762D01*
X81766671Y-55804762D01*
X81576194Y-55709524D01*
X81480956Y-55519048D01*
X81480956Y-55328571D01*
X81576194Y-55138095D01*
X81766671Y-55042857D01*
X82242861Y-55042857D01*
X82433337Y-54947619D01*
X83100004Y-54471429D02*
X83861909Y-54471429D01*
X83385718Y-53804762D02*
X83385718Y-55519048D01*
X83480957Y-55709524D01*
X83671433Y-55804762D01*
X83861909Y-55804762D01*
X84242861Y-54471429D02*
X85004766Y-54471429D01*
X84528575Y-53804762D02*
X84528575Y-55519048D01*
X84623814Y-55709524D01*
X84814290Y-55804762D01*
X85004766Y-55804762D01*
X85576194Y-55709524D02*
X85766671Y-55804762D01*
X86147623Y-55804762D01*
X86338099Y-55709524D01*
X86433337Y-55519048D01*
X86433337Y-55423810D01*
X86338099Y-55233333D01*
X86147623Y-55138095D01*
X85861909Y-55138095D01*
X85671432Y-55042857D01*
X85576194Y-54852381D01*
X85576194Y-54757143D01*
X85671432Y-54566667D01*
X85861909Y-54471429D01*
X86147623Y-54471429D01*
X86338099Y-54566667D01*
X89385719Y-56566667D02*
X89290481Y-56471429D01*
X89100005Y-56185714D01*
X89004767Y-55995238D01*
X88909529Y-55709524D01*
X88814290Y-55233333D01*
X88814290Y-54852381D01*
X88909529Y-54376190D01*
X89004767Y-54090476D01*
X89100005Y-53900000D01*
X89290481Y-53614286D01*
X89385719Y-53519048D01*
X91195243Y-55804762D02*
X90052385Y-55804762D01*
X90623814Y-55804762D02*
X90623814Y-53804762D01*
X90433338Y-54090476D01*
X90242862Y-54280952D01*
X90052385Y-54376190D01*
X93957148Y-53804762D02*
X94338100Y-53804762D01*
X94528576Y-53900000D01*
X94719053Y-54090476D01*
X94814291Y-54471429D01*
X94814291Y-55138095D01*
X94719053Y-55519048D01*
X94528576Y-55709524D01*
X94338100Y-55804762D01*
X93957148Y-55804762D01*
X93766672Y-55709524D01*
X93576195Y-55519048D01*
X93480957Y-55138095D01*
X93480957Y-54471429D01*
X93576195Y-54090476D01*
X93766672Y-53900000D01*
X93957148Y-53804762D01*
X95671433Y-55804762D02*
X95671433Y-53804762D01*
X96528576Y-55804762D02*
X96528576Y-54757143D01*
X96433338Y-54566667D01*
X96242862Y-54471429D01*
X95957148Y-54471429D01*
X95766672Y-54566667D01*
X95671433Y-54661905D01*
X97480957Y-55804762D02*
X97480957Y-54471429D01*
X97480957Y-54661905D02*
X97576196Y-54566667D01*
X97766672Y-54471429D01*
X98052386Y-54471429D01*
X98242862Y-54566667D01*
X98338100Y-54757143D01*
X98338100Y-55804762D01*
X98338100Y-54757143D02*
X98433338Y-54566667D01*
X98623815Y-54471429D01*
X98909529Y-54471429D01*
X99100005Y-54566667D01*
X99195243Y-54757143D01*
X99195243Y-55804762D01*
X100052386Y-55709524D02*
X100242863Y-55804762D01*
X100623815Y-55804762D01*
X100814291Y-55709524D01*
X100909529Y-55519048D01*
X100909529Y-55423810D01*
X100814291Y-55233333D01*
X100623815Y-55138095D01*
X100338101Y-55138095D01*
X100147624Y-55042857D01*
X100052386Y-54852381D01*
X100052386Y-54757143D01*
X100147624Y-54566667D01*
X100338101Y-54471429D01*
X100623815Y-54471429D01*
X100814291Y-54566667D01*
X101576196Y-56566667D02*
X101671434Y-56471429D01*
X101861911Y-56185714D01*
X101957149Y-55995238D01*
X102052387Y-55709524D01*
X102147625Y-55233333D01*
X102147625Y-54852381D01*
X102052387Y-54376190D01*
X101957149Y-54090476D01*
X101861911Y-53900000D01*
X101671434Y-53614286D01*
X101576196Y-53519048D01*
X61100002Y-57095238D02*
X61195240Y-57000000D01*
X61385717Y-56904762D01*
X61861907Y-56904762D01*
X62052383Y-57000000D01*
X62147621Y-57095238D01*
X62242860Y-57285714D01*
X62242860Y-57476190D01*
X62147621Y-57761905D01*
X61004764Y-58904762D01*
X62242860Y-58904762D01*
X63957145Y-57571429D02*
X63957145Y-58904762D01*
X63480955Y-56809524D02*
X63004764Y-58238095D01*
X64242860Y-58238095D01*
X64814288Y-57571429D02*
X65290479Y-58904762D01*
X65766669Y-57571429D01*
X68052384Y-58142857D02*
X69576194Y-58142857D01*
X71861908Y-56904762D02*
X73195242Y-56904762D01*
X72338099Y-58904762D01*
X73861908Y-57095238D02*
X73957146Y-57000000D01*
X74147623Y-56904762D01*
X74623813Y-56904762D01*
X74814289Y-57000000D01*
X74909527Y-57095238D01*
X75004766Y-57285714D01*
X75004766Y-57476190D01*
X74909527Y-57761905D01*
X73766670Y-58904762D01*
X75004766Y-58904762D01*
X76242861Y-56904762D02*
X76433337Y-56904762D01*
X76623813Y-57000000D01*
X76719051Y-57095238D01*
X76814289Y-57285714D01*
X76909528Y-57666667D01*
X76909528Y-58142857D01*
X76814289Y-58523810D01*
X76719051Y-58714286D01*
X76623813Y-58809524D01*
X76433337Y-58904762D01*
X76242861Y-58904762D01*
X76052385Y-58809524D01*
X75957147Y-58714286D01*
X75861908Y-58523810D01*
X75766670Y-58142857D01*
X75766670Y-57666667D01*
X75861908Y-57285714D01*
X75957147Y-57095238D01*
X76052385Y-57000000D01*
X76242861Y-56904762D01*
X79100004Y-56904762D02*
X79576195Y-58904762D01*
X79957147Y-57476190D01*
X80338100Y-58904762D01*
X80814290Y-56904762D01*
X82433337Y-58904762D02*
X82433337Y-57857143D01*
X82338099Y-57666667D01*
X82147623Y-57571429D01*
X81766671Y-57571429D01*
X81576194Y-57666667D01*
X82433337Y-58809524D02*
X82242861Y-58904762D01*
X81766671Y-58904762D01*
X81576194Y-58809524D01*
X81480956Y-58619048D01*
X81480956Y-58428571D01*
X81576194Y-58238095D01*
X81766671Y-58142857D01*
X82242861Y-58142857D01*
X82433337Y-58047619D01*
X83100004Y-57571429D02*
X83861909Y-57571429D01*
X83385718Y-56904762D02*
X83385718Y-58619048D01*
X83480957Y-58809524D01*
X83671433Y-58904762D01*
X83861909Y-58904762D01*
X84242861Y-57571429D02*
X85004766Y-57571429D01*
X84528575Y-56904762D02*
X84528575Y-58619048D01*
X84623814Y-58809524D01*
X84814290Y-58904762D01*
X85004766Y-58904762D01*
X85576194Y-58809524D02*
X85766671Y-58904762D01*
X86147623Y-58904762D01*
X86338099Y-58809524D01*
X86433337Y-58619048D01*
X86433337Y-58523810D01*
X86338099Y-58333333D01*
X86147623Y-58238095D01*
X85861909Y-58238095D01*
X85671432Y-58142857D01*
X85576194Y-57952381D01*
X85576194Y-57857143D01*
X85671432Y-57666667D01*
X85861909Y-57571429D01*
X86147623Y-57571429D01*
X86338099Y-57666667D01*
X89385719Y-59666667D02*
X89290481Y-59571429D01*
X89100005Y-59285714D01*
X89004767Y-59095238D01*
X88909529Y-58809524D01*
X88814290Y-58333333D01*
X88814290Y-57952381D01*
X88909529Y-57476190D01*
X89004767Y-57190476D01*
X89100005Y-57000000D01*
X89290481Y-56714286D01*
X89385719Y-56619048D01*
X90528576Y-56904762D02*
X90719052Y-56904762D01*
X90909528Y-57000000D01*
X91004766Y-57095238D01*
X91100004Y-57285714D01*
X91195243Y-57666667D01*
X91195243Y-58142857D01*
X91100004Y-58523810D01*
X91004766Y-58714286D01*
X90909528Y-58809524D01*
X90719052Y-58904762D01*
X90528576Y-58904762D01*
X90338100Y-58809524D01*
X90242862Y-58714286D01*
X90147623Y-58523810D01*
X90052385Y-58142857D01*
X90052385Y-57666667D01*
X90147623Y-57285714D01*
X90242862Y-57095238D01*
X90338100Y-57000000D01*
X90528576Y-56904762D01*
X92052385Y-58714286D02*
X92147624Y-58809524D01*
X92052385Y-58904762D01*
X91957147Y-58809524D01*
X92052385Y-58714286D01*
X92052385Y-58904762D01*
X93290481Y-57761905D02*
X93100005Y-57666667D01*
X93004766Y-57571429D01*
X92909528Y-57380952D01*
X92909528Y-57285714D01*
X93004766Y-57095238D01*
X93100005Y-57000000D01*
X93290481Y-56904762D01*
X93671433Y-56904762D01*
X93861909Y-57000000D01*
X93957147Y-57095238D01*
X94052386Y-57285714D01*
X94052386Y-57380952D01*
X93957147Y-57571429D01*
X93861909Y-57666667D01*
X93671433Y-57761905D01*
X93290481Y-57761905D01*
X93100005Y-57857143D01*
X93004766Y-57952381D01*
X92909528Y-58142857D01*
X92909528Y-58523810D01*
X93004766Y-58714286D01*
X93100005Y-58809524D01*
X93290481Y-58904762D01*
X93671433Y-58904762D01*
X93861909Y-58809524D01*
X93957147Y-58714286D01*
X94052386Y-58523810D01*
X94052386Y-58142857D01*
X93957147Y-57952381D01*
X93861909Y-57857143D01*
X93671433Y-57761905D01*
X96814291Y-56904762D02*
X97195243Y-56904762D01*
X97385719Y-57000000D01*
X97576196Y-57190476D01*
X97671434Y-57571429D01*
X97671434Y-58238095D01*
X97576196Y-58619048D01*
X97385719Y-58809524D01*
X97195243Y-58904762D01*
X96814291Y-58904762D01*
X96623815Y-58809524D01*
X96433338Y-58619048D01*
X96338100Y-58238095D01*
X96338100Y-57571429D01*
X96433338Y-57190476D01*
X96623815Y-57000000D01*
X96814291Y-56904762D01*
X98528576Y-58904762D02*
X98528576Y-56904762D01*
X99385719Y-58904762D02*
X99385719Y-57857143D01*
X99290481Y-57666667D01*
X99100005Y-57571429D01*
X98814291Y-57571429D01*
X98623815Y-57666667D01*
X98528576Y-57761905D01*
X100338100Y-58904762D02*
X100338100Y-57571429D01*
X100338100Y-57761905D02*
X100433339Y-57666667D01*
X100623815Y-57571429D01*
X100909529Y-57571429D01*
X101100005Y-57666667D01*
X101195243Y-57857143D01*
X101195243Y-58904762D01*
X101195243Y-57857143D02*
X101290481Y-57666667D01*
X101480958Y-57571429D01*
X101766672Y-57571429D01*
X101957148Y-57666667D01*
X102052386Y-57857143D01*
X102052386Y-58904762D01*
X102909529Y-58809524D02*
X103100006Y-58904762D01*
X103480958Y-58904762D01*
X103671434Y-58809524D01*
X103766672Y-58619048D01*
X103766672Y-58523810D01*
X103671434Y-58333333D01*
X103480958Y-58238095D01*
X103195244Y-58238095D01*
X103004767Y-58142857D01*
X102909529Y-57952381D01*
X102909529Y-57857143D01*
X103004767Y-57666667D01*
X103195244Y-57571429D01*
X103480958Y-57571429D01*
X103671434Y-57666667D01*
X104433339Y-59666667D02*
X104528577Y-59571429D01*
X104719054Y-59285714D01*
X104814292Y-59095238D01*
X104909530Y-58809524D01*
X105004768Y-58333333D01*
X105004768Y-57952381D01*
X104909530Y-57476190D01*
X104814292Y-57190476D01*
X104719054Y-57000000D01*
X104528577Y-56714286D01*
X104433339Y-56619048D01*
X62242860Y-62004762D02*
X61100002Y-62004762D01*
X61671431Y-62004762D02*
X61671431Y-60004762D01*
X61480955Y-60290476D01*
X61290479Y-60480952D01*
X61100002Y-60576190D01*
X63004764Y-60195238D02*
X63100002Y-60100000D01*
X63290479Y-60004762D01*
X63766669Y-60004762D01*
X63957145Y-60100000D01*
X64052383Y-60195238D01*
X64147622Y-60385714D01*
X64147622Y-60576190D01*
X64052383Y-60861905D01*
X62909526Y-62004762D01*
X64147622Y-62004762D01*
X64814288Y-60671429D02*
X65290479Y-62004762D01*
X65766669Y-60671429D01*
X68052384Y-61242857D02*
X69576194Y-61242857D01*
X71861908Y-60004762D02*
X73100004Y-60004762D01*
X72433337Y-60766667D01*
X72719051Y-60766667D01*
X72909527Y-60861905D01*
X73004765Y-60957143D01*
X73100004Y-61147619D01*
X73100004Y-61623810D01*
X73004765Y-61814286D01*
X72909527Y-61909524D01*
X72719051Y-62004762D01*
X72147623Y-62004762D01*
X71957146Y-61909524D01*
X71861908Y-61814286D01*
X74814289Y-60004762D02*
X74433337Y-60004762D01*
X74242861Y-60100000D01*
X74147623Y-60195238D01*
X73957146Y-60480952D01*
X73861908Y-60861905D01*
X73861908Y-61623810D01*
X73957146Y-61814286D01*
X74052385Y-61909524D01*
X74242861Y-62004762D01*
X74623813Y-62004762D01*
X74814289Y-61909524D01*
X74909527Y-61814286D01*
X75004766Y-61623810D01*
X75004766Y-61147619D01*
X74909527Y-60957143D01*
X74814289Y-60861905D01*
X74623813Y-60766667D01*
X74242861Y-60766667D01*
X74052385Y-60861905D01*
X73957146Y-60957143D01*
X73861908Y-61147619D01*
X76242861Y-60004762D02*
X76433337Y-60004762D01*
X76623813Y-60100000D01*
X76719051Y-60195238D01*
X76814289Y-60385714D01*
X76909528Y-60766667D01*
X76909528Y-61242857D01*
X76814289Y-61623810D01*
X76719051Y-61814286D01*
X76623813Y-61909524D01*
X76433337Y-62004762D01*
X76242861Y-62004762D01*
X76052385Y-61909524D01*
X75957147Y-61814286D01*
X75861908Y-61623810D01*
X75766670Y-61242857D01*
X75766670Y-60766667D01*
X75861908Y-60385714D01*
X75957147Y-60195238D01*
X76052385Y-60100000D01*
X76242861Y-60004762D01*
X79100004Y-60004762D02*
X79576195Y-62004762D01*
X79957147Y-60576190D01*
X80338100Y-62004762D01*
X80814290Y-60004762D01*
X82433337Y-62004762D02*
X82433337Y-60957143D01*
X82338099Y-60766667D01*
X82147623Y-60671429D01*
X81766671Y-60671429D01*
X81576194Y-60766667D01*
X82433337Y-61909524D02*
X82242861Y-62004762D01*
X81766671Y-62004762D01*
X81576194Y-61909524D01*
X81480956Y-61719048D01*
X81480956Y-61528571D01*
X81576194Y-61338095D01*
X81766671Y-61242857D01*
X82242861Y-61242857D01*
X82433337Y-61147619D01*
X83100004Y-60671429D02*
X83861909Y-60671429D01*
X83385718Y-60004762D02*
X83385718Y-61719048D01*
X83480957Y-61909524D01*
X83671433Y-62004762D01*
X83861909Y-62004762D01*
X84242861Y-60671429D02*
X85004766Y-60671429D01*
X84528575Y-60004762D02*
X84528575Y-61719048D01*
X84623814Y-61909524D01*
X84814290Y-62004762D01*
X85004766Y-62004762D01*
X85576194Y-61909524D02*
X85766671Y-62004762D01*
X86147623Y-62004762D01*
X86338099Y-61909524D01*
X86433337Y-61719048D01*
X86433337Y-61623810D01*
X86338099Y-61433333D01*
X86147623Y-61338095D01*
X85861909Y-61338095D01*
X85671432Y-61242857D01*
X85576194Y-61052381D01*
X85576194Y-60957143D01*
X85671432Y-60766667D01*
X85861909Y-60671429D01*
X86147623Y-60671429D01*
X86338099Y-60766667D01*
X89385719Y-62766667D02*
X89290481Y-62671429D01*
X89100005Y-62385714D01*
X89004767Y-62195238D01*
X88909529Y-61909524D01*
X88814290Y-61433333D01*
X88814290Y-61052381D01*
X88909529Y-60576190D01*
X89004767Y-60290476D01*
X89100005Y-60100000D01*
X89290481Y-59814286D01*
X89385719Y-59719048D01*
X90528576Y-60004762D02*
X90719052Y-60004762D01*
X90909528Y-60100000D01*
X91004766Y-60195238D01*
X91100004Y-60385714D01*
X91195243Y-60766667D01*
X91195243Y-61242857D01*
X91100004Y-61623810D01*
X91004766Y-61814286D01*
X90909528Y-61909524D01*
X90719052Y-62004762D01*
X90528576Y-62004762D01*
X90338100Y-61909524D01*
X90242862Y-61814286D01*
X90147623Y-61623810D01*
X90052385Y-61242857D01*
X90052385Y-60766667D01*
X90147623Y-60385714D01*
X90242862Y-60195238D01*
X90338100Y-60100000D01*
X90528576Y-60004762D01*
X92052385Y-61814286D02*
X92147624Y-61909524D01*
X92052385Y-62004762D01*
X91957147Y-61909524D01*
X92052385Y-61814286D01*
X92052385Y-62004762D01*
X93861909Y-60671429D02*
X93861909Y-62004762D01*
X93385719Y-59909524D02*
X92909528Y-61338095D01*
X94147624Y-61338095D01*
X96814291Y-60004762D02*
X97195243Y-60004762D01*
X97385719Y-60100000D01*
X97576196Y-60290476D01*
X97671434Y-60671429D01*
X97671434Y-61338095D01*
X97576196Y-61719048D01*
X97385719Y-61909524D01*
X97195243Y-62004762D01*
X96814291Y-62004762D01*
X96623815Y-61909524D01*
X96433338Y-61719048D01*
X96338100Y-61338095D01*
X96338100Y-60671429D01*
X96433338Y-60290476D01*
X96623815Y-60100000D01*
X96814291Y-60004762D01*
X98528576Y-62004762D02*
X98528576Y-60004762D01*
X99385719Y-62004762D02*
X99385719Y-60957143D01*
X99290481Y-60766667D01*
X99100005Y-60671429D01*
X98814291Y-60671429D01*
X98623815Y-60766667D01*
X98528576Y-60861905D01*
X100338100Y-62004762D02*
X100338100Y-60671429D01*
X100338100Y-60861905D02*
X100433339Y-60766667D01*
X100623815Y-60671429D01*
X100909529Y-60671429D01*
X101100005Y-60766667D01*
X101195243Y-60957143D01*
X101195243Y-62004762D01*
X101195243Y-60957143D02*
X101290481Y-60766667D01*
X101480958Y-60671429D01*
X101766672Y-60671429D01*
X101957148Y-60766667D01*
X102052386Y-60957143D01*
X102052386Y-62004762D01*
X102909529Y-61909524D02*
X103100006Y-62004762D01*
X103480958Y-62004762D01*
X103671434Y-61909524D01*
X103766672Y-61719048D01*
X103766672Y-61623810D01*
X103671434Y-61433333D01*
X103480958Y-61338095D01*
X103195244Y-61338095D01*
X103004767Y-61242857D01*
X102909529Y-61052381D01*
X102909529Y-60957143D01*
X103004767Y-60766667D01*
X103195244Y-60671429D01*
X103480958Y-60671429D01*
X103671434Y-60766667D01*
X104433339Y-62766667D02*
X104528577Y-62671429D01*
X104719054Y-62385714D01*
X104814292Y-62195238D01*
X104909530Y-61909524D01*
X105004768Y-61433333D01*
X105004768Y-61052381D01*
X104909530Y-60576190D01*
X104814292Y-60290476D01*
X104719054Y-60100000D01*
X104528577Y-59814286D01*
X104433339Y-59719048D01*
M02*
