G04 #@! TF.FileFunction,Legend,Top*
%FSLAX46Y46*%
G04 Gerber Fmt 4.6, Leading zero omitted, Abs format (unit mm)*
G04 Created by KiCad (PCBNEW 4.0.6) date 05/11/17 00:47:05*
%MOMM*%
%LPD*%
G01*
G04 APERTURE LIST*
%ADD10C,0.100000*%
%ADD11C,0.150000*%
%ADD12C,0.300000*%
%ADD13C,0.010000*%
G04 APERTURE END LIST*
D10*
D11*
X115000000Y-104000000D02*
X115000000Y-139000000D01*
X67000000Y-104000000D02*
X115000000Y-104000000D01*
X67000000Y-139000000D02*
X67000000Y-104000000D01*
X67250000Y-139000000D02*
X115000000Y-139000000D01*
X67000000Y-139000000D02*
X67250000Y-139000000D01*
X81285715Y-105702381D02*
X81523810Y-106702381D01*
X81714287Y-105988095D01*
X81904763Y-106702381D01*
X82142858Y-105702381D01*
X82428572Y-105702381D02*
X82666667Y-106702381D01*
X82857144Y-105988095D01*
X83047620Y-106702381D01*
X83285715Y-105702381D01*
X83571429Y-105702381D02*
X83809524Y-106702381D01*
X84000001Y-105988095D01*
X84190477Y-106702381D01*
X84428572Y-105702381D01*
X84809524Y-106607143D02*
X84857143Y-106654762D01*
X84809524Y-106702381D01*
X84761905Y-106654762D01*
X84809524Y-106607143D01*
X84809524Y-106702381D01*
X85285714Y-106702381D02*
X85285714Y-105702381D01*
X85523809Y-105702381D01*
X85666667Y-105750000D01*
X85761905Y-105845238D01*
X85809524Y-105940476D01*
X85857143Y-106130952D01*
X85857143Y-106273810D01*
X85809524Y-106464286D01*
X85761905Y-106559524D01*
X85666667Y-106654762D01*
X85523809Y-106702381D01*
X85285714Y-106702381D01*
X86285714Y-106702381D02*
X86285714Y-106035714D01*
X86285714Y-105702381D02*
X86238095Y-105750000D01*
X86285714Y-105797619D01*
X86333333Y-105750000D01*
X86285714Y-105702381D01*
X86285714Y-105797619D01*
X87190476Y-106035714D02*
X87190476Y-106845238D01*
X87142857Y-106940476D01*
X87095238Y-106988095D01*
X86999999Y-107035714D01*
X86857142Y-107035714D01*
X86761904Y-106988095D01*
X87190476Y-106654762D02*
X87095238Y-106702381D01*
X86904761Y-106702381D01*
X86809523Y-106654762D01*
X86761904Y-106607143D01*
X86714285Y-106511905D01*
X86714285Y-106226190D01*
X86761904Y-106130952D01*
X86809523Y-106083333D01*
X86904761Y-106035714D01*
X87095238Y-106035714D01*
X87190476Y-106083333D01*
X87666666Y-106702381D02*
X87666666Y-106035714D01*
X87666666Y-105702381D02*
X87619047Y-105750000D01*
X87666666Y-105797619D01*
X87714285Y-105750000D01*
X87666666Y-105702381D01*
X87666666Y-105797619D01*
X87999999Y-106035714D02*
X88380951Y-106035714D01*
X88142856Y-105702381D02*
X88142856Y-106559524D01*
X88190475Y-106654762D01*
X88285713Y-106702381D01*
X88380951Y-106702381D01*
X89142857Y-106702381D02*
X89142857Y-106178571D01*
X89095238Y-106083333D01*
X89000000Y-106035714D01*
X88809523Y-106035714D01*
X88714285Y-106083333D01*
X89142857Y-106654762D02*
X89047619Y-106702381D01*
X88809523Y-106702381D01*
X88714285Y-106654762D01*
X88666666Y-106559524D01*
X88666666Y-106464286D01*
X88714285Y-106369048D01*
X88809523Y-106321429D01*
X89047619Y-106321429D01*
X89142857Y-106273810D01*
X89761904Y-106702381D02*
X89666666Y-106654762D01*
X89619047Y-106559524D01*
X89619047Y-105702381D01*
X90142857Y-106321429D02*
X90904762Y-106321429D01*
X91333333Y-106654762D02*
X91476190Y-106702381D01*
X91714286Y-106702381D01*
X91809524Y-106654762D01*
X91857143Y-106607143D01*
X91904762Y-106511905D01*
X91904762Y-106416667D01*
X91857143Y-106321429D01*
X91809524Y-106273810D01*
X91714286Y-106226190D01*
X91523809Y-106178571D01*
X91428571Y-106130952D01*
X91380952Y-106083333D01*
X91333333Y-105988095D01*
X91333333Y-105892857D01*
X91380952Y-105797619D01*
X91428571Y-105750000D01*
X91523809Y-105702381D01*
X91761905Y-105702381D01*
X91904762Y-105750000D01*
X92761905Y-106035714D02*
X92761905Y-107035714D01*
X92761905Y-106654762D02*
X92666667Y-106702381D01*
X92476190Y-106702381D01*
X92380952Y-106654762D01*
X92333333Y-106607143D01*
X92285714Y-106511905D01*
X92285714Y-106226190D01*
X92333333Y-106130952D01*
X92380952Y-106083333D01*
X92476190Y-106035714D01*
X92666667Y-106035714D01*
X92761905Y-106083333D01*
X93238095Y-106702381D02*
X93238095Y-106035714D01*
X93238095Y-106226190D02*
X93285714Y-106130952D01*
X93333333Y-106083333D01*
X93428571Y-106035714D01*
X93523810Y-106035714D01*
X93714286Y-106035714D02*
X94095238Y-106035714D01*
X93857143Y-105702381D02*
X93857143Y-106559524D01*
X93904762Y-106654762D01*
X94000000Y-106702381D01*
X94095238Y-106702381D01*
X94428572Y-106607143D02*
X94476191Y-106654762D01*
X94428572Y-106702381D01*
X94380953Y-106654762D01*
X94428572Y-106607143D01*
X94428572Y-106702381D01*
X95476191Y-106607143D02*
X95428572Y-106654762D01*
X95285715Y-106702381D01*
X95190477Y-106702381D01*
X95047619Y-106654762D01*
X94952381Y-106559524D01*
X94904762Y-106464286D01*
X94857143Y-106273810D01*
X94857143Y-106130952D01*
X94904762Y-105940476D01*
X94952381Y-105845238D01*
X95047619Y-105750000D01*
X95190477Y-105702381D01*
X95285715Y-105702381D01*
X95428572Y-105750000D01*
X95476191Y-105797619D01*
X96095238Y-105702381D02*
X96285715Y-105702381D01*
X96380953Y-105750000D01*
X96476191Y-105845238D01*
X96523810Y-106035714D01*
X96523810Y-106369048D01*
X96476191Y-106559524D01*
X96380953Y-106654762D01*
X96285715Y-106702381D01*
X96095238Y-106702381D01*
X96000000Y-106654762D01*
X95904762Y-106559524D01*
X95857143Y-106369048D01*
X95857143Y-106035714D01*
X95904762Y-105845238D01*
X96000000Y-105750000D01*
X96095238Y-105702381D01*
X96952381Y-106702381D02*
X96952381Y-105702381D01*
X97285715Y-106416667D01*
X97619048Y-105702381D01*
X97619048Y-106702381D01*
X67986667Y-121352381D02*
X67986667Y-122066667D01*
X67939047Y-122209524D01*
X67843809Y-122304762D01*
X67700952Y-122352381D01*
X67605714Y-122352381D01*
X68462857Y-122352381D02*
X68462857Y-121352381D01*
X68843810Y-121352381D01*
X68939048Y-121400000D01*
X68986667Y-121447619D01*
X69034286Y-121542857D01*
X69034286Y-121685714D01*
X68986667Y-121780952D01*
X68939048Y-121828571D01*
X68843810Y-121876190D01*
X68462857Y-121876190D01*
X69986667Y-122352381D02*
X69415238Y-122352381D01*
X69700952Y-122352381D02*
X69700952Y-121352381D01*
X69605714Y-121495238D01*
X69510476Y-121590476D01*
X69415238Y-121638095D01*
X68010477Y-119348571D02*
X67677143Y-119348571D01*
X67677143Y-119872381D02*
X67677143Y-118872381D01*
X68153334Y-118872381D01*
X68486667Y-119586667D02*
X68962858Y-119586667D01*
X68391429Y-119872381D02*
X68724762Y-118872381D01*
X69058096Y-119872381D01*
X69391429Y-119872381D02*
X69391429Y-118872381D01*
X69962858Y-119872381D01*
X69962858Y-118872381D01*
D12*
X75928572Y-114607143D02*
X77071429Y-114607143D01*
X71428572Y-114607143D02*
X72571429Y-114607143D01*
X72000000Y-115178571D02*
X72000000Y-114035714D01*
D11*
X75510417Y-109041667D02*
X74677084Y-109041667D01*
X74895834Y-107291667D01*
X76093751Y-109041667D02*
X76239584Y-107875000D01*
X76312501Y-107291667D02*
X76218750Y-107375000D01*
X76291667Y-107458333D01*
X76385417Y-107375000D01*
X76312501Y-107291667D01*
X76291667Y-107458333D01*
X76822917Y-107875000D02*
X77489583Y-107875000D01*
X77145834Y-107291667D02*
X76958334Y-108791667D01*
X77020833Y-108958333D01*
X77177084Y-109041667D01*
X77343750Y-109041667D01*
X77822917Y-107875000D02*
X78489583Y-107875000D01*
X78145834Y-107291667D02*
X77958334Y-108791667D01*
X78020833Y-108958333D01*
X78177084Y-109041667D01*
X78343750Y-109041667D01*
X79177084Y-109041667D02*
X79020833Y-108958333D01*
X78958334Y-108791667D01*
X79145834Y-107291667D01*
X80520833Y-108958333D02*
X80343751Y-109041667D01*
X80010417Y-109041667D01*
X79854167Y-108958333D01*
X79791667Y-108791667D01*
X79875000Y-108125000D01*
X79979167Y-107958333D01*
X80156250Y-107875000D01*
X80489584Y-107875000D01*
X80645833Y-107958333D01*
X80708334Y-108125000D01*
X80687501Y-108291667D01*
X79833333Y-108458333D01*
X82677084Y-109041667D02*
X82895834Y-107291667D01*
X83312500Y-107291667D01*
X83552083Y-107375000D01*
X83697917Y-107541667D01*
X83760416Y-107708333D01*
X83802084Y-108041667D01*
X83770834Y-108291667D01*
X83645833Y-108625000D01*
X83541667Y-108791667D01*
X83354166Y-108958333D01*
X83093750Y-109041667D01*
X82677084Y-109041667D01*
X84427084Y-109041667D02*
X84572917Y-107875000D01*
X84531250Y-108208333D02*
X84635417Y-108041667D01*
X84729166Y-107958333D01*
X84906250Y-107875000D01*
X85072917Y-107875000D01*
X85510417Y-109041667D02*
X85656250Y-107875000D01*
X85729167Y-107291667D02*
X85635416Y-107375000D01*
X85708333Y-107458333D01*
X85802083Y-107375000D01*
X85729167Y-107291667D01*
X85708333Y-107458333D01*
X86322916Y-107875000D02*
X86593750Y-109041667D01*
X87156249Y-107875000D01*
X88354165Y-108958333D02*
X88177083Y-109041667D01*
X87843749Y-109041667D01*
X87687499Y-108958333D01*
X87624999Y-108791667D01*
X87708332Y-108125000D01*
X87812499Y-107958333D01*
X87989582Y-107875000D01*
X88322916Y-107875000D01*
X88479165Y-107958333D01*
X88541666Y-108125000D01*
X88520833Y-108291667D01*
X87666665Y-108458333D01*
X89177083Y-109041667D02*
X89322916Y-107875000D01*
X89281249Y-108208333D02*
X89385416Y-108041667D01*
X89479165Y-107958333D01*
X89656249Y-107875000D01*
X89822916Y-107875000D01*
X74494047Y-110452381D02*
X74619047Y-109452381D01*
X74571428Y-109833333D02*
X74672619Y-109785714D01*
X74863096Y-109785714D01*
X74952381Y-109833333D01*
X74994048Y-109880952D01*
X75029762Y-109976190D01*
X74994048Y-110261905D01*
X74934524Y-110357143D01*
X74880953Y-110404762D01*
X74779762Y-110452381D01*
X74589285Y-110452381D01*
X74500000Y-110404762D01*
X75386905Y-109785714D02*
X75541666Y-110452381D01*
X75863096Y-109785714D02*
X75541666Y-110452381D01*
X75416666Y-110690476D01*
X75363095Y-110738095D01*
X75261905Y-110785714D01*
X76922619Y-110452381D02*
X77047619Y-109452381D01*
X77285714Y-109452381D01*
X77422620Y-109500000D01*
X77505953Y-109595238D01*
X77541668Y-109690476D01*
X77565477Y-109880952D01*
X77547620Y-110023810D01*
X77476191Y-110214286D01*
X77416668Y-110309524D01*
X77309525Y-110404762D01*
X77160714Y-110452381D01*
X76922619Y-110452381D01*
X77922619Y-110452381D02*
X78005953Y-109785714D01*
X78047619Y-109452381D02*
X77994048Y-109500000D01*
X78035715Y-109547619D01*
X78089286Y-109500000D01*
X78047619Y-109452381D01*
X78035715Y-109547619D01*
X78910715Y-109785714D02*
X78809524Y-110595238D01*
X78750000Y-110690476D01*
X78696429Y-110738095D01*
X78595238Y-110785714D01*
X78452381Y-110785714D01*
X78363095Y-110738095D01*
X78833334Y-110404762D02*
X78732143Y-110452381D01*
X78541666Y-110452381D01*
X78452381Y-110404762D01*
X78410714Y-110357143D01*
X78375000Y-110261905D01*
X78410714Y-109976190D01*
X78470238Y-109880952D01*
X78523809Y-109833333D01*
X78625000Y-109785714D01*
X78815477Y-109785714D01*
X78904762Y-109833333D01*
X79303571Y-110452381D02*
X79386905Y-109785714D01*
X79428571Y-109452381D02*
X79375000Y-109500000D01*
X79416667Y-109547619D01*
X79470238Y-109500000D01*
X79428571Y-109452381D01*
X79416667Y-109547619D01*
X79720238Y-109785714D02*
X80101190Y-109785714D01*
X79904761Y-109452381D02*
X79797619Y-110309524D01*
X79833333Y-110404762D01*
X79922618Y-110452381D01*
X80017856Y-110452381D01*
X80779762Y-110452381D02*
X80845239Y-109928571D01*
X80809524Y-109833333D01*
X80720239Y-109785714D01*
X80529762Y-109785714D01*
X80428571Y-109833333D01*
X80785715Y-110404762D02*
X80684524Y-110452381D01*
X80446428Y-110452381D01*
X80357143Y-110404762D01*
X80321429Y-110309524D01*
X80333333Y-110214286D01*
X80392857Y-110119048D01*
X80494047Y-110071429D01*
X80732143Y-110071429D01*
X80833334Y-110023810D01*
X81398809Y-110452381D02*
X81309524Y-110404762D01*
X81273810Y-110309524D01*
X81380952Y-109452381D01*
X82500001Y-110404762D02*
X82636905Y-110452381D01*
X82875001Y-110452381D01*
X82976192Y-110404762D01*
X83029763Y-110357143D01*
X83089287Y-110261905D01*
X83101192Y-110166667D01*
X83065477Y-110071429D01*
X83023811Y-110023810D01*
X82934525Y-109976190D01*
X82750001Y-109928571D01*
X82660715Y-109880952D01*
X82619048Y-109833333D01*
X82583334Y-109738095D01*
X82595239Y-109642857D01*
X82654763Y-109547619D01*
X82708334Y-109500000D01*
X82809524Y-109452381D01*
X83047620Y-109452381D01*
X83184525Y-109500000D01*
X84005954Y-109785714D02*
X83880954Y-110785714D01*
X83928573Y-110404762D02*
X83827382Y-110452381D01*
X83636905Y-110452381D01*
X83547620Y-110404762D01*
X83505953Y-110357143D01*
X83470239Y-110261905D01*
X83505953Y-109976190D01*
X83565477Y-109880952D01*
X83619048Y-109833333D01*
X83720239Y-109785714D01*
X83910716Y-109785714D01*
X84000001Y-109833333D01*
X84398810Y-110452381D02*
X84482144Y-109785714D01*
X84458334Y-109976190D02*
X84517858Y-109880952D01*
X84571429Y-109833333D01*
X84672620Y-109785714D01*
X84767859Y-109785714D01*
X84958335Y-109785714D02*
X85339287Y-109785714D01*
X85142858Y-109452381D02*
X85035716Y-110309524D01*
X85071430Y-110404762D01*
X85160715Y-110452381D01*
X85255953Y-110452381D01*
D10*
X90695238Y-109052381D02*
X91028571Y-110052381D01*
X91361905Y-109052381D01*
X92076191Y-110004762D02*
X91980953Y-110052381D01*
X91790476Y-110052381D01*
X91695238Y-110004762D01*
X91647619Y-109909524D01*
X91647619Y-109528571D01*
X91695238Y-109433333D01*
X91790476Y-109385714D01*
X91980953Y-109385714D01*
X92076191Y-109433333D01*
X92123810Y-109528571D01*
X92123810Y-109623810D01*
X91647619Y-109719048D01*
X92552381Y-110052381D02*
X92552381Y-109385714D01*
X92552381Y-109576190D02*
X92600000Y-109480952D01*
X92647619Y-109433333D01*
X92742857Y-109385714D01*
X92838096Y-109385714D01*
X94457144Y-110052381D02*
X93885715Y-110052381D01*
X94171429Y-110052381D02*
X94171429Y-109052381D01*
X94076191Y-109195238D01*
X93980953Y-109290476D01*
X93885715Y-109338095D01*
X94885715Y-109957143D02*
X94933334Y-110004762D01*
X94885715Y-110052381D01*
X94838096Y-110004762D01*
X94885715Y-109957143D01*
X94885715Y-110052381D01*
X95409524Y-110052381D02*
X95600000Y-110052381D01*
X95695239Y-110004762D01*
X95742858Y-109957143D01*
X95838096Y-109814286D01*
X95885715Y-109623810D01*
X95885715Y-109242857D01*
X95838096Y-109147619D01*
X95790477Y-109100000D01*
X95695239Y-109052381D01*
X95504762Y-109052381D01*
X95409524Y-109100000D01*
X95361905Y-109147619D01*
X95314286Y-109242857D01*
X95314286Y-109480952D01*
X95361905Y-109576190D01*
X95409524Y-109623810D01*
X95504762Y-109671429D01*
X95695239Y-109671429D01*
X95790477Y-109623810D01*
X95838096Y-109576190D01*
X95885715Y-109480952D01*
D13*
G36*
X85015892Y-111368270D02*
X85431711Y-111406540D01*
X85827701Y-111455770D01*
X86108754Y-111506918D01*
X86328344Y-111579539D01*
X86539945Y-111693188D01*
X86797033Y-111867419D01*
X86907491Y-111946214D01*
X87262064Y-112193396D01*
X87637963Y-112444817D01*
X87962547Y-112652053D01*
X88006757Y-112679019D01*
X88452842Y-113028177D01*
X88854798Y-113489795D01*
X89168595Y-114006999D01*
X89309133Y-114361354D01*
X89404082Y-114798805D01*
X89465697Y-115336308D01*
X89490823Y-115907295D01*
X89476303Y-116445195D01*
X89426895Y-116845149D01*
X89323741Y-117217945D01*
X89165851Y-117626918D01*
X89032547Y-117898956D01*
X88883863Y-118175380D01*
X88813746Y-118345784D01*
X88812649Y-118448745D01*
X88871022Y-118522844D01*
X88876899Y-118527789D01*
X89094891Y-118807469D01*
X89225501Y-119186784D01*
X89252861Y-119472296D01*
X89202219Y-119999778D01*
X89045824Y-120398093D01*
X88774655Y-120676431D01*
X88379691Y-120843977D01*
X87851913Y-120909919D01*
X87841041Y-120910234D01*
X87497959Y-120932842D01*
X87231249Y-120994444D01*
X86959812Y-121119455D01*
X86759768Y-121235766D01*
X85796911Y-121745548D01*
X84686837Y-122200923D01*
X83444568Y-122595971D01*
X83018112Y-122709561D01*
X82699084Y-122786968D01*
X82479634Y-122822607D01*
X82296042Y-122819511D01*
X82084587Y-122780714D01*
X81989158Y-122758540D01*
X81770619Y-122666992D01*
X81499970Y-122500264D01*
X81311093Y-122356065D01*
X81060917Y-122163287D01*
X80828379Y-122014185D01*
X80701268Y-121954869D01*
X80423559Y-121829991D01*
X80080468Y-121620504D01*
X79723392Y-121363950D01*
X79403725Y-121097875D01*
X79172865Y-120859822D01*
X79137369Y-120812457D01*
X78984276Y-120544499D01*
X78909143Y-120262543D01*
X78903032Y-120178625D01*
X79164212Y-120178625D01*
X79305630Y-120611324D01*
X79344530Y-120678464D01*
X79516220Y-120875688D01*
X79791924Y-121109974D01*
X80122359Y-121346452D01*
X80458242Y-121550255D01*
X80750290Y-121686515D01*
X80786667Y-121698783D01*
X80967306Y-121791254D01*
X81206581Y-121958151D01*
X81371162Y-122092992D01*
X81624895Y-122301231D01*
X81856039Y-122443564D01*
X82095175Y-122521840D01*
X82372881Y-122537908D01*
X82719738Y-122493618D01*
X83166326Y-122390817D01*
X83728612Y-122235548D01*
X84256764Y-122069202D01*
X84799688Y-121871830D01*
X85333672Y-121654868D01*
X85835004Y-121429753D01*
X86279972Y-121207924D01*
X86644864Y-121000817D01*
X86905967Y-120819870D01*
X87039570Y-120676520D01*
X87052000Y-120632540D01*
X87122175Y-120576473D01*
X87284833Y-120600094D01*
X87642378Y-120648601D01*
X88029738Y-120626585D01*
X88396025Y-120544805D01*
X88690351Y-120414018D01*
X88847628Y-120269749D01*
X88891645Y-120137154D01*
X88938812Y-119899705D01*
X88963336Y-119730272D01*
X88967252Y-119262509D01*
X88848883Y-118908073D01*
X88609270Y-118669813D01*
X88568279Y-118647007D01*
X88282249Y-118542112D01*
X88005360Y-118551181D01*
X87676432Y-118677387D01*
X87641294Y-118695054D01*
X87442216Y-118779627D01*
X87322068Y-118797892D01*
X87306000Y-118779721D01*
X87223458Y-118742629D01*
X86983863Y-118715287D01*
X86599266Y-118698572D01*
X86120667Y-118693334D01*
X84935333Y-118693334D01*
X84935333Y-119304266D01*
X84067500Y-119248381D01*
X83566223Y-119214500D01*
X83209453Y-119182634D01*
X82972644Y-119145068D01*
X82831250Y-119094087D01*
X82760726Y-119021978D01*
X82736524Y-118921026D01*
X82734000Y-118829288D01*
X82708254Y-118634508D01*
X82600828Y-118505599D01*
X82426041Y-118408508D01*
X82088921Y-118307466D01*
X81875708Y-118314887D01*
X81697652Y-118386647D01*
X81636647Y-118533341D01*
X81633333Y-118615394D01*
X81618065Y-118777488D01*
X81539059Y-118846308D01*
X81346517Y-118860229D01*
X81315833Y-118860053D01*
X80969868Y-118844027D01*
X80596496Y-118805826D01*
X80237714Y-118752402D01*
X79935522Y-118690708D01*
X79731919Y-118627696D01*
X79671322Y-118587816D01*
X79616049Y-118539697D01*
X79602630Y-118622020D01*
X79564556Y-118770166D01*
X79467490Y-119007320D01*
X79369094Y-119210004D01*
X79185412Y-119708792D01*
X79164212Y-120178625D01*
X78903032Y-120178625D01*
X78888274Y-119975983D01*
X78862289Y-119648186D01*
X78791269Y-119418408D01*
X78656126Y-119219715D01*
X78483545Y-118947195D01*
X78381787Y-118650268D01*
X78367938Y-118449975D01*
X78673980Y-118449975D01*
X78682290Y-118661488D01*
X78749135Y-118895685D01*
X78856283Y-119093822D01*
X78985500Y-119197153D01*
X79016002Y-119201334D01*
X79025931Y-119143199D01*
X78947426Y-118998999D01*
X78915421Y-118953838D01*
X78778932Y-118671954D01*
X78778339Y-118651569D01*
X79041135Y-118651569D01*
X79097298Y-118797818D01*
X79187058Y-118862667D01*
X79249125Y-118791894D01*
X79262667Y-118698330D01*
X79224307Y-118539563D01*
X79139190Y-118467580D01*
X79056575Y-118514979D01*
X79041135Y-118651569D01*
X78778339Y-118651569D01*
X78773656Y-118490733D01*
X78780803Y-118348137D01*
X78742436Y-118319892D01*
X78673980Y-118449975D01*
X78367938Y-118449975D01*
X78363317Y-118383146D01*
X78421177Y-118227667D01*
X78924000Y-118227667D01*
X78966333Y-118270000D01*
X79008667Y-118227667D01*
X78966333Y-118185334D01*
X78924000Y-118227667D01*
X78421177Y-118227667D01*
X78425386Y-118216357D01*
X78560135Y-118112804D01*
X79109191Y-118112804D01*
X79126227Y-118160208D01*
X79215349Y-118230360D01*
X79363748Y-118333938D01*
X79422061Y-118330674D01*
X79432000Y-118227667D01*
X79359909Y-118125475D01*
X79241500Y-118103360D01*
X79109191Y-118112804D01*
X78560135Y-118112804D01*
X78596042Y-118085210D01*
X78853936Y-117957492D01*
X79119900Y-117867978D01*
X79267075Y-117846667D01*
X79345987Y-117834674D01*
X79367988Y-117774902D01*
X79330010Y-117631658D01*
X79228984Y-117369251D01*
X79225215Y-117359834D01*
X79025660Y-116690419D01*
X78986115Y-116195667D01*
X79250090Y-116195667D01*
X79273618Y-116452634D01*
X79327790Y-116749554D01*
X79402955Y-117057174D01*
X79489464Y-117346245D01*
X79577666Y-117587515D01*
X79657911Y-117751733D01*
X79720549Y-117809647D01*
X79755929Y-117732007D01*
X79756195Y-117729733D01*
X79784056Y-117485800D01*
X80516379Y-117545220D01*
X80991302Y-117586691D01*
X81322529Y-117625825D01*
X81535427Y-117669855D01*
X81655364Y-117726013D01*
X81707706Y-117801533D01*
X81718000Y-117887843D01*
X81749930Y-118026032D01*
X81877359Y-118045879D01*
X81915325Y-118039464D01*
X82120299Y-118047213D01*
X82377604Y-118114117D01*
X82433665Y-118135872D01*
X82664321Y-118230315D01*
X82777838Y-118251307D01*
X82815521Y-118185140D01*
X82818674Y-118018106D01*
X82818667Y-118008099D01*
X82818667Y-117746197D01*
X83644167Y-117801363D01*
X84136548Y-117836151D01*
X84484764Y-117868986D01*
X84713714Y-117907403D01*
X84848300Y-117958935D01*
X84913422Y-118031120D01*
X84933981Y-118131490D01*
X84935333Y-118192061D01*
X84935333Y-118439334D01*
X87231709Y-118439334D01*
X87178264Y-118079500D01*
X87172649Y-117740053D01*
X87233350Y-117254171D01*
X87314998Y-116830667D01*
X87425587Y-116264005D01*
X87480527Y-115817492D01*
X87475616Y-115449950D01*
X87406649Y-115120197D01*
X87269421Y-114787054D01*
X87069465Y-114425663D01*
X86814475Y-114036423D01*
X86575372Y-113744581D01*
X86395833Y-113591799D01*
X86189534Y-113455395D01*
X86139955Y-113381088D01*
X86249214Y-113361897D01*
X86459333Y-113382462D01*
X86670584Y-113405793D01*
X86788867Y-113409145D01*
X86798000Y-113405125D01*
X86723781Y-113314129D01*
X86527937Y-113192150D01*
X86250686Y-113058007D01*
X85932245Y-112930522D01*
X85612833Y-112828515D01*
X85511422Y-112803042D01*
X84859845Y-112653202D01*
X83996200Y-112985101D01*
X83590227Y-113147747D01*
X83308187Y-113281356D01*
X83112668Y-113408301D01*
X82966261Y-113550953D01*
X82892393Y-113645202D01*
X82741945Y-113833904D01*
X82652903Y-113892914D01*
X82600401Y-113838250D01*
X82598849Y-113834290D01*
X82572304Y-113643756D01*
X82585659Y-113484921D01*
X82583462Y-113317728D01*
X82502221Y-113274667D01*
X82260415Y-113334478D01*
X81944333Y-113499276D01*
X81591775Y-113747111D01*
X81376002Y-113928740D01*
X81152859Y-114126488D01*
X81027236Y-114220854D01*
X80971122Y-114222103D01*
X80956503Y-114140499D01*
X80956000Y-114082642D01*
X81019935Y-113765979D01*
X81217157Y-113403155D01*
X81555786Y-112979828D01*
X81621224Y-112908123D01*
X81822351Y-112688578D01*
X81914446Y-112576174D01*
X81904324Y-112554550D01*
X81798802Y-112607345D01*
X81730307Y-112646266D01*
X81497055Y-112807621D01*
X81308036Y-112983482D01*
X81294789Y-112999500D01*
X81160068Y-113137894D01*
X81064888Y-113190000D01*
X80925635Y-113252888D01*
X80713111Y-113422739D01*
X80456022Y-113671332D01*
X80183074Y-113970448D01*
X79922974Y-114291866D01*
X79866353Y-114368225D01*
X79549754Y-114858128D01*
X79354883Y-115310011D01*
X79262780Y-115780092D01*
X79250090Y-116195667D01*
X78986115Y-116195667D01*
X78972002Y-116019102D01*
X79061554Y-115302759D01*
X79089330Y-115179667D01*
X79250685Y-114502334D01*
X79004953Y-114798667D01*
X78856706Y-114989739D01*
X78767940Y-115127831D01*
X78756944Y-115158500D01*
X78688384Y-115219210D01*
X78660821Y-115222000D01*
X78607134Y-115157275D01*
X78623435Y-114998328D01*
X78695773Y-114798004D01*
X78810197Y-114609146D01*
X78828461Y-114587000D01*
X79012798Y-114362766D01*
X79095100Y-114239785D01*
X79072648Y-114226379D01*
X78942722Y-114330865D01*
X78899147Y-114370776D01*
X78701399Y-114528597D01*
X78598847Y-114554775D01*
X78594641Y-114459797D01*
X78691934Y-114254151D01*
X78808686Y-114069648D01*
X79163041Y-113576564D01*
X79489702Y-113200054D01*
X79831338Y-112902674D01*
X80230619Y-112646976D01*
X80700679Y-112409274D01*
X81115226Y-112224155D01*
X81532529Y-112052461D01*
X81895680Y-111916897D01*
X82090679Y-111854685D01*
X82592999Y-111715027D01*
X82324833Y-111605604D01*
X82145281Y-111525579D01*
X82058210Y-111473492D01*
X82056667Y-111470060D01*
X82134754Y-111457991D01*
X82342708Y-111448631D01*
X82641065Y-111443508D01*
X82755167Y-111443005D01*
X83179390Y-111433394D01*
X83627164Y-111409054D01*
X84003360Y-111375195D01*
X84011655Y-111374195D01*
X84464071Y-111349761D01*
X85015892Y-111368270D01*
X85015892Y-111368270D01*
G37*
X85015892Y-111368270D02*
X85431711Y-111406540D01*
X85827701Y-111455770D01*
X86108754Y-111506918D01*
X86328344Y-111579539D01*
X86539945Y-111693188D01*
X86797033Y-111867419D01*
X86907491Y-111946214D01*
X87262064Y-112193396D01*
X87637963Y-112444817D01*
X87962547Y-112652053D01*
X88006757Y-112679019D01*
X88452842Y-113028177D01*
X88854798Y-113489795D01*
X89168595Y-114006999D01*
X89309133Y-114361354D01*
X89404082Y-114798805D01*
X89465697Y-115336308D01*
X89490823Y-115907295D01*
X89476303Y-116445195D01*
X89426895Y-116845149D01*
X89323741Y-117217945D01*
X89165851Y-117626918D01*
X89032547Y-117898956D01*
X88883863Y-118175380D01*
X88813746Y-118345784D01*
X88812649Y-118448745D01*
X88871022Y-118522844D01*
X88876899Y-118527789D01*
X89094891Y-118807469D01*
X89225501Y-119186784D01*
X89252861Y-119472296D01*
X89202219Y-119999778D01*
X89045824Y-120398093D01*
X88774655Y-120676431D01*
X88379691Y-120843977D01*
X87851913Y-120909919D01*
X87841041Y-120910234D01*
X87497959Y-120932842D01*
X87231249Y-120994444D01*
X86959812Y-121119455D01*
X86759768Y-121235766D01*
X85796911Y-121745548D01*
X84686837Y-122200923D01*
X83444568Y-122595971D01*
X83018112Y-122709561D01*
X82699084Y-122786968D01*
X82479634Y-122822607D01*
X82296042Y-122819511D01*
X82084587Y-122780714D01*
X81989158Y-122758540D01*
X81770619Y-122666992D01*
X81499970Y-122500264D01*
X81311093Y-122356065D01*
X81060917Y-122163287D01*
X80828379Y-122014185D01*
X80701268Y-121954869D01*
X80423559Y-121829991D01*
X80080468Y-121620504D01*
X79723392Y-121363950D01*
X79403725Y-121097875D01*
X79172865Y-120859822D01*
X79137369Y-120812457D01*
X78984276Y-120544499D01*
X78909143Y-120262543D01*
X78903032Y-120178625D01*
X79164212Y-120178625D01*
X79305630Y-120611324D01*
X79344530Y-120678464D01*
X79516220Y-120875688D01*
X79791924Y-121109974D01*
X80122359Y-121346452D01*
X80458242Y-121550255D01*
X80750290Y-121686515D01*
X80786667Y-121698783D01*
X80967306Y-121791254D01*
X81206581Y-121958151D01*
X81371162Y-122092992D01*
X81624895Y-122301231D01*
X81856039Y-122443564D01*
X82095175Y-122521840D01*
X82372881Y-122537908D01*
X82719738Y-122493618D01*
X83166326Y-122390817D01*
X83728612Y-122235548D01*
X84256764Y-122069202D01*
X84799688Y-121871830D01*
X85333672Y-121654868D01*
X85835004Y-121429753D01*
X86279972Y-121207924D01*
X86644864Y-121000817D01*
X86905967Y-120819870D01*
X87039570Y-120676520D01*
X87052000Y-120632540D01*
X87122175Y-120576473D01*
X87284833Y-120600094D01*
X87642378Y-120648601D01*
X88029738Y-120626585D01*
X88396025Y-120544805D01*
X88690351Y-120414018D01*
X88847628Y-120269749D01*
X88891645Y-120137154D01*
X88938812Y-119899705D01*
X88963336Y-119730272D01*
X88967252Y-119262509D01*
X88848883Y-118908073D01*
X88609270Y-118669813D01*
X88568279Y-118647007D01*
X88282249Y-118542112D01*
X88005360Y-118551181D01*
X87676432Y-118677387D01*
X87641294Y-118695054D01*
X87442216Y-118779627D01*
X87322068Y-118797892D01*
X87306000Y-118779721D01*
X87223458Y-118742629D01*
X86983863Y-118715287D01*
X86599266Y-118698572D01*
X86120667Y-118693334D01*
X84935333Y-118693334D01*
X84935333Y-119304266D01*
X84067500Y-119248381D01*
X83566223Y-119214500D01*
X83209453Y-119182634D01*
X82972644Y-119145068D01*
X82831250Y-119094087D01*
X82760726Y-119021978D01*
X82736524Y-118921026D01*
X82734000Y-118829288D01*
X82708254Y-118634508D01*
X82600828Y-118505599D01*
X82426041Y-118408508D01*
X82088921Y-118307466D01*
X81875708Y-118314887D01*
X81697652Y-118386647D01*
X81636647Y-118533341D01*
X81633333Y-118615394D01*
X81618065Y-118777488D01*
X81539059Y-118846308D01*
X81346517Y-118860229D01*
X81315833Y-118860053D01*
X80969868Y-118844027D01*
X80596496Y-118805826D01*
X80237714Y-118752402D01*
X79935522Y-118690708D01*
X79731919Y-118627696D01*
X79671322Y-118587816D01*
X79616049Y-118539697D01*
X79602630Y-118622020D01*
X79564556Y-118770166D01*
X79467490Y-119007320D01*
X79369094Y-119210004D01*
X79185412Y-119708792D01*
X79164212Y-120178625D01*
X78903032Y-120178625D01*
X78888274Y-119975983D01*
X78862289Y-119648186D01*
X78791269Y-119418408D01*
X78656126Y-119219715D01*
X78483545Y-118947195D01*
X78381787Y-118650268D01*
X78367938Y-118449975D01*
X78673980Y-118449975D01*
X78682290Y-118661488D01*
X78749135Y-118895685D01*
X78856283Y-119093822D01*
X78985500Y-119197153D01*
X79016002Y-119201334D01*
X79025931Y-119143199D01*
X78947426Y-118998999D01*
X78915421Y-118953838D01*
X78778932Y-118671954D01*
X78778339Y-118651569D01*
X79041135Y-118651569D01*
X79097298Y-118797818D01*
X79187058Y-118862667D01*
X79249125Y-118791894D01*
X79262667Y-118698330D01*
X79224307Y-118539563D01*
X79139190Y-118467580D01*
X79056575Y-118514979D01*
X79041135Y-118651569D01*
X78778339Y-118651569D01*
X78773656Y-118490733D01*
X78780803Y-118348137D01*
X78742436Y-118319892D01*
X78673980Y-118449975D01*
X78367938Y-118449975D01*
X78363317Y-118383146D01*
X78421177Y-118227667D01*
X78924000Y-118227667D01*
X78966333Y-118270000D01*
X79008667Y-118227667D01*
X78966333Y-118185334D01*
X78924000Y-118227667D01*
X78421177Y-118227667D01*
X78425386Y-118216357D01*
X78560135Y-118112804D01*
X79109191Y-118112804D01*
X79126227Y-118160208D01*
X79215349Y-118230360D01*
X79363748Y-118333938D01*
X79422061Y-118330674D01*
X79432000Y-118227667D01*
X79359909Y-118125475D01*
X79241500Y-118103360D01*
X79109191Y-118112804D01*
X78560135Y-118112804D01*
X78596042Y-118085210D01*
X78853936Y-117957492D01*
X79119900Y-117867978D01*
X79267075Y-117846667D01*
X79345987Y-117834674D01*
X79367988Y-117774902D01*
X79330010Y-117631658D01*
X79228984Y-117369251D01*
X79225215Y-117359834D01*
X79025660Y-116690419D01*
X78986115Y-116195667D01*
X79250090Y-116195667D01*
X79273618Y-116452634D01*
X79327790Y-116749554D01*
X79402955Y-117057174D01*
X79489464Y-117346245D01*
X79577666Y-117587515D01*
X79657911Y-117751733D01*
X79720549Y-117809647D01*
X79755929Y-117732007D01*
X79756195Y-117729733D01*
X79784056Y-117485800D01*
X80516379Y-117545220D01*
X80991302Y-117586691D01*
X81322529Y-117625825D01*
X81535427Y-117669855D01*
X81655364Y-117726013D01*
X81707706Y-117801533D01*
X81718000Y-117887843D01*
X81749930Y-118026032D01*
X81877359Y-118045879D01*
X81915325Y-118039464D01*
X82120299Y-118047213D01*
X82377604Y-118114117D01*
X82433665Y-118135872D01*
X82664321Y-118230315D01*
X82777838Y-118251307D01*
X82815521Y-118185140D01*
X82818674Y-118018106D01*
X82818667Y-118008099D01*
X82818667Y-117746197D01*
X83644167Y-117801363D01*
X84136548Y-117836151D01*
X84484764Y-117868986D01*
X84713714Y-117907403D01*
X84848300Y-117958935D01*
X84913422Y-118031120D01*
X84933981Y-118131490D01*
X84935333Y-118192061D01*
X84935333Y-118439334D01*
X87231709Y-118439334D01*
X87178264Y-118079500D01*
X87172649Y-117740053D01*
X87233350Y-117254171D01*
X87314998Y-116830667D01*
X87425587Y-116264005D01*
X87480527Y-115817492D01*
X87475616Y-115449950D01*
X87406649Y-115120197D01*
X87269421Y-114787054D01*
X87069465Y-114425663D01*
X86814475Y-114036423D01*
X86575372Y-113744581D01*
X86395833Y-113591799D01*
X86189534Y-113455395D01*
X86139955Y-113381088D01*
X86249214Y-113361897D01*
X86459333Y-113382462D01*
X86670584Y-113405793D01*
X86788867Y-113409145D01*
X86798000Y-113405125D01*
X86723781Y-113314129D01*
X86527937Y-113192150D01*
X86250686Y-113058007D01*
X85932245Y-112930522D01*
X85612833Y-112828515D01*
X85511422Y-112803042D01*
X84859845Y-112653202D01*
X83996200Y-112985101D01*
X83590227Y-113147747D01*
X83308187Y-113281356D01*
X83112668Y-113408301D01*
X82966261Y-113550953D01*
X82892393Y-113645202D01*
X82741945Y-113833904D01*
X82652903Y-113892914D01*
X82600401Y-113838250D01*
X82598849Y-113834290D01*
X82572304Y-113643756D01*
X82585659Y-113484921D01*
X82583462Y-113317728D01*
X82502221Y-113274667D01*
X82260415Y-113334478D01*
X81944333Y-113499276D01*
X81591775Y-113747111D01*
X81376002Y-113928740D01*
X81152859Y-114126488D01*
X81027236Y-114220854D01*
X80971122Y-114222103D01*
X80956503Y-114140499D01*
X80956000Y-114082642D01*
X81019935Y-113765979D01*
X81217157Y-113403155D01*
X81555786Y-112979828D01*
X81621224Y-112908123D01*
X81822351Y-112688578D01*
X81914446Y-112576174D01*
X81904324Y-112554550D01*
X81798802Y-112607345D01*
X81730307Y-112646266D01*
X81497055Y-112807621D01*
X81308036Y-112983482D01*
X81294789Y-112999500D01*
X81160068Y-113137894D01*
X81064888Y-113190000D01*
X80925635Y-113252888D01*
X80713111Y-113422739D01*
X80456022Y-113671332D01*
X80183074Y-113970448D01*
X79922974Y-114291866D01*
X79866353Y-114368225D01*
X79549754Y-114858128D01*
X79354883Y-115310011D01*
X79262780Y-115780092D01*
X79250090Y-116195667D01*
X78986115Y-116195667D01*
X78972002Y-116019102D01*
X79061554Y-115302759D01*
X79089330Y-115179667D01*
X79250685Y-114502334D01*
X79004953Y-114798667D01*
X78856706Y-114989739D01*
X78767940Y-115127831D01*
X78756944Y-115158500D01*
X78688384Y-115219210D01*
X78660821Y-115222000D01*
X78607134Y-115157275D01*
X78623435Y-114998328D01*
X78695773Y-114798004D01*
X78810197Y-114609146D01*
X78828461Y-114587000D01*
X79012798Y-114362766D01*
X79095100Y-114239785D01*
X79072648Y-114226379D01*
X78942722Y-114330865D01*
X78899147Y-114370776D01*
X78701399Y-114528597D01*
X78598847Y-114554775D01*
X78594641Y-114459797D01*
X78691934Y-114254151D01*
X78808686Y-114069648D01*
X79163041Y-113576564D01*
X79489702Y-113200054D01*
X79831338Y-112902674D01*
X80230619Y-112646976D01*
X80700679Y-112409274D01*
X81115226Y-112224155D01*
X81532529Y-112052461D01*
X81895680Y-111916897D01*
X82090679Y-111854685D01*
X82592999Y-111715027D01*
X82324833Y-111605604D01*
X82145281Y-111525579D01*
X82058210Y-111473492D01*
X82056667Y-111470060D01*
X82134754Y-111457991D01*
X82342708Y-111448631D01*
X82641065Y-111443508D01*
X82755167Y-111443005D01*
X83179390Y-111433394D01*
X83627164Y-111409054D01*
X84003360Y-111375195D01*
X84011655Y-111374195D01*
X84464071Y-111349761D01*
X85015892Y-111368270D01*
G36*
X82486623Y-120612360D02*
X82856719Y-120785963D01*
X83093833Y-120960332D01*
X83211429Y-121094780D01*
X83211401Y-121206522D01*
X83079838Y-121309979D01*
X82802830Y-121419573D01*
X82585833Y-121486984D01*
X82266936Y-121581933D01*
X82007315Y-121660765D01*
X81852875Y-121709501D01*
X81836127Y-121715326D01*
X81755081Y-121663566D01*
X81644311Y-121496275D01*
X81802667Y-121496275D01*
X81816241Y-121565608D01*
X81878221Y-121589180D01*
X82020496Y-121563647D01*
X82274954Y-121485668D01*
X82445518Y-121428892D01*
X82761867Y-121318009D01*
X82940695Y-121239000D01*
X83006808Y-121175538D01*
X82985015Y-121111296D01*
X82963566Y-121087947D01*
X82741727Y-120973118D01*
X82454556Y-120959255D01*
X82169454Y-121042178D01*
X82016422Y-121146705D01*
X81870074Y-121324769D01*
X81803104Y-121486326D01*
X81802667Y-121496275D01*
X81644311Y-121496275D01*
X81642643Y-121493756D01*
X81553655Y-121310831D01*
X81364723Y-120871647D01*
X81542256Y-120694114D01*
X81788670Y-120559449D01*
X82117033Y-120534527D01*
X82486623Y-120612360D01*
X82486623Y-120612360D01*
G37*
X82486623Y-120612360D02*
X82856719Y-120785963D01*
X83093833Y-120960332D01*
X83211429Y-121094780D01*
X83211401Y-121206522D01*
X83079838Y-121309979D01*
X82802830Y-121419573D01*
X82585833Y-121486984D01*
X82266936Y-121581933D01*
X82007315Y-121660765D01*
X81852875Y-121709501D01*
X81836127Y-121715326D01*
X81755081Y-121663566D01*
X81644311Y-121496275D01*
X81802667Y-121496275D01*
X81816241Y-121565608D01*
X81878221Y-121589180D01*
X82020496Y-121563647D01*
X82274954Y-121485668D01*
X82445518Y-121428892D01*
X82761867Y-121318009D01*
X82940695Y-121239000D01*
X83006808Y-121175538D01*
X82985015Y-121111296D01*
X82963566Y-121087947D01*
X82741727Y-120973118D01*
X82454556Y-120959255D01*
X82169454Y-121042178D01*
X82016422Y-121146705D01*
X81870074Y-121324769D01*
X81803104Y-121486326D01*
X81802667Y-121496275D01*
X81644311Y-121496275D01*
X81642643Y-121493756D01*
X81553655Y-121310831D01*
X81364723Y-120871647D01*
X81542256Y-120694114D01*
X81788670Y-120559449D01*
X82117033Y-120534527D01*
X82486623Y-120612360D01*
G36*
X87930272Y-118813507D02*
X88238391Y-118942327D01*
X88421918Y-119161998D01*
X88473585Y-119441268D01*
X88386122Y-119748886D01*
X88206169Y-119999638D01*
X87997563Y-120203970D01*
X87854388Y-120287847D01*
X87738986Y-120265154D01*
X87661600Y-120200400D01*
X87586333Y-120046795D01*
X87554049Y-119840567D01*
X87528509Y-119595535D01*
X87483839Y-119418196D01*
X87475201Y-119206922D01*
X87484259Y-119180109D01*
X87692238Y-119180109D01*
X87736394Y-119403469D01*
X87758725Y-119461510D01*
X87827173Y-119680519D01*
X87842178Y-119841806D01*
X87838260Y-119857558D01*
X87837587Y-119939512D01*
X87910804Y-119922638D01*
X88018129Y-119833617D01*
X88119782Y-119699130D01*
X88143816Y-119652614D01*
X88204959Y-119385280D01*
X88129496Y-119184356D01*
X87960823Y-119086248D01*
X87766346Y-119075672D01*
X87692238Y-119180109D01*
X87484259Y-119180109D01*
X87542562Y-119007534D01*
X87651450Y-118839170D01*
X87787082Y-118794083D01*
X87930272Y-118813507D01*
X87930272Y-118813507D01*
G37*
X87930272Y-118813507D02*
X88238391Y-118942327D01*
X88421918Y-119161998D01*
X88473585Y-119441268D01*
X88386122Y-119748886D01*
X88206169Y-119999638D01*
X87997563Y-120203970D01*
X87854388Y-120287847D01*
X87738986Y-120265154D01*
X87661600Y-120200400D01*
X87586333Y-120046795D01*
X87554049Y-119840567D01*
X87528509Y-119595535D01*
X87483839Y-119418196D01*
X87475201Y-119206922D01*
X87484259Y-119180109D01*
X87692238Y-119180109D01*
X87736394Y-119403469D01*
X87758725Y-119461510D01*
X87827173Y-119680519D01*
X87842178Y-119841806D01*
X87838260Y-119857558D01*
X87837587Y-119939512D01*
X87910804Y-119922638D01*
X88018129Y-119833617D01*
X88119782Y-119699130D01*
X88143816Y-119652614D01*
X88204959Y-119385280D01*
X88129496Y-119184356D01*
X87960823Y-119086248D01*
X87766346Y-119075672D01*
X87692238Y-119180109D01*
X87484259Y-119180109D01*
X87542562Y-119007534D01*
X87651450Y-118839170D01*
X87787082Y-118794083D01*
X87930272Y-118813507D01*
G36*
X82594010Y-119707578D02*
X82603551Y-119715818D01*
X82626905Y-119823374D01*
X82527318Y-119926700D01*
X82342299Y-120034759D01*
X82227567Y-120018102D01*
X82187247Y-119969127D01*
X82202648Y-119864982D01*
X82318442Y-119760593D01*
X82470329Y-119695083D01*
X82594010Y-119707578D01*
X82594010Y-119707578D01*
G37*
X82594010Y-119707578D02*
X82603551Y-119715818D01*
X82626905Y-119823374D01*
X82527318Y-119926700D01*
X82342299Y-120034759D01*
X82227567Y-120018102D01*
X82187247Y-119969127D01*
X82202648Y-119864982D01*
X82318442Y-119760593D01*
X82470329Y-119695083D01*
X82594010Y-119707578D01*
G36*
X81658158Y-119511122D02*
X81774895Y-119619366D01*
X81838907Y-119764985D01*
X81832344Y-119838784D01*
X81745261Y-119953663D01*
X81619353Y-119910482D01*
X81565600Y-119861734D01*
X81471948Y-119693572D01*
X81499348Y-119540921D01*
X81541841Y-119501885D01*
X81658158Y-119511122D01*
X81658158Y-119511122D01*
G37*
X81658158Y-119511122D02*
X81774895Y-119619366D01*
X81838907Y-119764985D01*
X81832344Y-119838784D01*
X81745261Y-119953663D01*
X81619353Y-119910482D01*
X81565600Y-119861734D01*
X81471948Y-119693572D01*
X81499348Y-119540921D01*
X81541841Y-119501885D01*
X81658158Y-119511122D01*
G36*
X82328236Y-119250767D02*
X82636080Y-119364379D01*
X82796759Y-119479608D01*
X82927233Y-119637873D01*
X82969305Y-119748859D01*
X82962343Y-119763212D01*
X82908279Y-119757226D01*
X82903333Y-119722200D01*
X82826216Y-119571861D01*
X82624133Y-119444467D01*
X82340985Y-119350404D01*
X82020671Y-119300060D01*
X81707094Y-119303819D01*
X81444153Y-119372070D01*
X81437267Y-119375338D01*
X81310259Y-119433785D01*
X81322226Y-119409023D01*
X81421667Y-119326338D01*
X81659571Y-119224896D01*
X81982247Y-119201989D01*
X82328236Y-119250767D01*
X82328236Y-119250767D01*
G37*
X82328236Y-119250767D02*
X82636080Y-119364379D01*
X82796759Y-119479608D01*
X82927233Y-119637873D01*
X82969305Y-119748859D01*
X82962343Y-119763212D01*
X82908279Y-119757226D01*
X82903333Y-119722200D01*
X82826216Y-119571861D01*
X82624133Y-119444467D01*
X82340985Y-119350404D01*
X82020671Y-119300060D01*
X81707094Y-119303819D01*
X81444153Y-119372070D01*
X81437267Y-119375338D01*
X81310259Y-119433785D01*
X81322226Y-119409023D01*
X81421667Y-119326338D01*
X81659571Y-119224896D01*
X81982247Y-119201989D01*
X82328236Y-119250767D01*
G36*
X84353568Y-116038371D02*
X84627083Y-116182654D01*
X84669927Y-116206282D01*
X84975340Y-116374808D01*
X85159544Y-116481347D01*
X85247986Y-116548567D01*
X85266112Y-116599132D01*
X85239368Y-116655710D01*
X85216989Y-116693574D01*
X85158696Y-116749478D01*
X85055229Y-116743601D01*
X84873268Y-116666513D01*
X84595395Y-116517642D01*
X84327588Y-116368067D01*
X84125168Y-116253981D01*
X84026611Y-116197088D01*
X84023174Y-116194836D01*
X84029044Y-116113719D01*
X84054100Y-116036623D01*
X84099445Y-115974273D01*
X84188478Y-115971884D01*
X84353568Y-116038371D01*
X84353568Y-116038371D01*
G37*
X84353568Y-116038371D02*
X84627083Y-116182654D01*
X84669927Y-116206282D01*
X84975340Y-116374808D01*
X85159544Y-116481347D01*
X85247986Y-116548567D01*
X85266112Y-116599132D01*
X85239368Y-116655710D01*
X85216989Y-116693574D01*
X85158696Y-116749478D01*
X85055229Y-116743601D01*
X84873268Y-116666513D01*
X84595395Y-116517642D01*
X84327588Y-116368067D01*
X84125168Y-116253981D01*
X84026611Y-116197088D01*
X84023174Y-116194836D01*
X84029044Y-116113719D01*
X84054100Y-116036623D01*
X84099445Y-115974273D01*
X84188478Y-115971884D01*
X84353568Y-116038371D01*
G36*
X80810652Y-115951797D02*
X80898824Y-116018184D01*
X80888263Y-116103556D01*
X80758787Y-116163208D01*
X80549438Y-116202519D01*
X80255668Y-116272076D01*
X79996373Y-116376572D01*
X79930443Y-116416213D01*
X79763252Y-116508317D01*
X79658461Y-116520374D01*
X79655276Y-116517721D01*
X79606224Y-116410146D01*
X79687166Y-116286139D01*
X79834167Y-116170479D01*
X80068513Y-116049087D01*
X80343043Y-115967360D01*
X80607257Y-115932521D01*
X80810652Y-115951797D01*
X80810652Y-115951797D01*
G37*
X80810652Y-115951797D02*
X80898824Y-116018184D01*
X80888263Y-116103556D01*
X80758787Y-116163208D01*
X80549438Y-116202519D01*
X80255668Y-116272076D01*
X79996373Y-116376572D01*
X79930443Y-116416213D01*
X79763252Y-116508317D01*
X79658461Y-116520374D01*
X79655276Y-116517721D01*
X79606224Y-116410146D01*
X79687166Y-116286139D01*
X79834167Y-116170479D01*
X80068513Y-116049087D01*
X80343043Y-115967360D01*
X80607257Y-115932521D01*
X80810652Y-115951797D01*
D11*
X70430000Y-115520000D02*
X70430000Y-123140000D01*
X70430000Y-123140000D02*
X78050000Y-123140000D01*
X78050000Y-123140000D02*
X78050000Y-115520000D01*
X78050000Y-115520000D02*
X70430000Y-115520000D01*
X104100000Y-109130000D02*
X104100000Y-107130000D01*
X102600000Y-109584000D02*
X104600000Y-109584000D01*
X102600000Y-106676000D02*
X104700000Y-106676000D01*
D13*
G36*
X108555814Y-111718931D02*
X108639635Y-112163555D01*
X108948920Y-112291053D01*
X109258206Y-112418551D01*
X109629246Y-112166246D01*
X109733157Y-112095996D01*
X109827087Y-112033272D01*
X109906652Y-111980938D01*
X109967470Y-111941857D01*
X110005157Y-111918893D01*
X110015421Y-111913942D01*
X110033910Y-111926676D01*
X110073420Y-111961882D01*
X110129522Y-112015062D01*
X110197787Y-112081718D01*
X110273786Y-112157354D01*
X110353092Y-112237472D01*
X110431275Y-112317574D01*
X110503907Y-112393164D01*
X110566559Y-112459745D01*
X110614803Y-112512818D01*
X110644210Y-112547887D01*
X110651241Y-112559623D01*
X110641123Y-112581260D01*
X110612759Y-112628662D01*
X110569129Y-112697193D01*
X110513218Y-112782215D01*
X110448006Y-112879093D01*
X110410219Y-112934350D01*
X110341343Y-113035248D01*
X110280140Y-113126299D01*
X110229578Y-113202970D01*
X110192628Y-113260728D01*
X110172258Y-113295043D01*
X110169197Y-113302254D01*
X110176136Y-113322748D01*
X110195051Y-113370513D01*
X110223087Y-113438832D01*
X110257391Y-113520989D01*
X110295109Y-113610270D01*
X110333387Y-113699958D01*
X110369370Y-113783338D01*
X110400206Y-113853694D01*
X110423039Y-113904310D01*
X110435017Y-113928471D01*
X110435724Y-113929422D01*
X110454531Y-113934036D01*
X110504618Y-113944328D01*
X110580793Y-113959287D01*
X110677865Y-113977901D01*
X110790643Y-113999159D01*
X110856442Y-114011418D01*
X110976950Y-114034362D01*
X111085797Y-114056195D01*
X111177476Y-114075722D01*
X111246481Y-114091748D01*
X111287304Y-114103079D01*
X111295511Y-114106674D01*
X111303548Y-114131006D01*
X111310033Y-114185959D01*
X111314970Y-114265108D01*
X111318364Y-114362026D01*
X111320218Y-114470287D01*
X111320538Y-114583465D01*
X111319327Y-114695135D01*
X111316590Y-114798868D01*
X111312331Y-114888241D01*
X111306555Y-114956826D01*
X111299267Y-114998197D01*
X111294895Y-115006810D01*
X111268764Y-115017133D01*
X111213393Y-115031892D01*
X111136107Y-115049352D01*
X111044230Y-115067780D01*
X111012158Y-115073741D01*
X110857524Y-115102066D01*
X110735375Y-115124876D01*
X110641673Y-115143080D01*
X110572384Y-115157583D01*
X110523471Y-115169292D01*
X110490897Y-115179115D01*
X110470628Y-115187956D01*
X110458626Y-115196724D01*
X110456947Y-115198457D01*
X110440184Y-115226371D01*
X110414614Y-115280695D01*
X110382788Y-115354777D01*
X110347260Y-115441965D01*
X110310583Y-115535608D01*
X110275311Y-115629052D01*
X110243996Y-115715647D01*
X110219193Y-115788740D01*
X110203454Y-115841678D01*
X110199332Y-115867811D01*
X110199676Y-115868726D01*
X110213641Y-115890086D01*
X110245322Y-115937084D01*
X110291391Y-116004827D01*
X110348518Y-116088423D01*
X110413373Y-116182982D01*
X110431843Y-116209854D01*
X110497699Y-116307275D01*
X110555650Y-116396163D01*
X110602538Y-116471412D01*
X110635207Y-116527920D01*
X110650500Y-116560581D01*
X110651241Y-116564593D01*
X110638392Y-116585684D01*
X110602888Y-116627464D01*
X110549293Y-116685445D01*
X110482171Y-116755135D01*
X110406087Y-116832045D01*
X110325604Y-116911683D01*
X110245287Y-116989561D01*
X110169699Y-117061186D01*
X110103405Y-117122070D01*
X110050969Y-117167721D01*
X110016955Y-117193650D01*
X110007545Y-117197883D01*
X109985643Y-117187912D01*
X109940800Y-117161020D01*
X109880321Y-117121736D01*
X109833789Y-117090117D01*
X109749475Y-117032098D01*
X109649626Y-116963784D01*
X109549473Y-116895579D01*
X109495627Y-116859075D01*
X109313371Y-116735800D01*
X109160381Y-116818520D01*
X109090682Y-116854759D01*
X109031414Y-116882926D01*
X108991311Y-116898991D01*
X108981103Y-116901226D01*
X108968829Y-116884722D01*
X108944613Y-116838082D01*
X108910263Y-116765609D01*
X108867588Y-116671606D01*
X108818394Y-116560374D01*
X108764490Y-116436215D01*
X108707684Y-116303432D01*
X108649782Y-116166327D01*
X108592593Y-116029202D01*
X108537924Y-115896358D01*
X108487584Y-115772098D01*
X108443380Y-115660725D01*
X108407119Y-115566539D01*
X108380609Y-115493844D01*
X108365658Y-115446941D01*
X108363254Y-115430833D01*
X108382311Y-115410286D01*
X108424036Y-115376933D01*
X108479706Y-115337702D01*
X108484378Y-115334599D01*
X108628264Y-115219423D01*
X108744283Y-115085053D01*
X108831430Y-114935784D01*
X108888699Y-114775913D01*
X108915086Y-114609737D01*
X108909585Y-114441552D01*
X108871190Y-114275655D01*
X108798895Y-114116342D01*
X108777626Y-114081487D01*
X108666996Y-113940737D01*
X108536302Y-113827714D01*
X108390064Y-113743003D01*
X108232808Y-113687194D01*
X108069057Y-113660874D01*
X107903333Y-113664630D01*
X107740162Y-113699050D01*
X107584065Y-113764723D01*
X107439567Y-113862235D01*
X107394869Y-113901813D01*
X107281112Y-114025703D01*
X107198218Y-114156124D01*
X107141356Y-114302315D01*
X107109687Y-114447088D01*
X107101869Y-114609860D01*
X107127938Y-114773440D01*
X107185245Y-114932298D01*
X107271144Y-115080906D01*
X107382986Y-115213735D01*
X107518123Y-115325256D01*
X107535883Y-115337011D01*
X107592150Y-115375508D01*
X107634923Y-115408863D01*
X107655372Y-115430160D01*
X107655669Y-115430833D01*
X107651279Y-115453871D01*
X107633876Y-115506157D01*
X107605268Y-115583390D01*
X107567265Y-115681268D01*
X107521674Y-115795491D01*
X107470303Y-115921758D01*
X107414962Y-116055767D01*
X107357458Y-116193218D01*
X107299601Y-116329808D01*
X107243198Y-116461237D01*
X107190058Y-116583205D01*
X107141990Y-116691409D01*
X107100801Y-116781549D01*
X107068301Y-116849323D01*
X107046297Y-116890430D01*
X107037436Y-116901226D01*
X107010360Y-116892819D01*
X106959697Y-116870272D01*
X106894183Y-116837613D01*
X106858159Y-116818520D01*
X106705168Y-116735800D01*
X106522912Y-116859075D01*
X106429875Y-116922228D01*
X106328015Y-116991727D01*
X106232562Y-117057165D01*
X106184750Y-117090117D01*
X106117505Y-117135273D01*
X106060564Y-117171057D01*
X106021354Y-117192938D01*
X106008619Y-117197563D01*
X105990083Y-117185085D01*
X105949059Y-117150252D01*
X105889525Y-117096678D01*
X105815458Y-117027983D01*
X105730835Y-116947781D01*
X105677315Y-116896286D01*
X105583681Y-116804286D01*
X105502759Y-116721999D01*
X105437823Y-116652945D01*
X105392142Y-116600644D01*
X105368989Y-116568616D01*
X105366768Y-116562116D01*
X105377076Y-116537394D01*
X105405561Y-116487405D01*
X105449063Y-116417212D01*
X105504423Y-116331875D01*
X105568480Y-116236456D01*
X105586697Y-116209854D01*
X105653073Y-116113167D01*
X105712622Y-116026117D01*
X105762016Y-115953595D01*
X105797925Y-115900493D01*
X105817019Y-115871703D01*
X105818864Y-115868726D01*
X105816105Y-115845782D01*
X105801462Y-115795336D01*
X105777487Y-115724041D01*
X105746734Y-115638547D01*
X105711756Y-115545507D01*
X105675107Y-115451574D01*
X105639339Y-115363399D01*
X105607006Y-115287634D01*
X105580662Y-115230931D01*
X105562858Y-115199943D01*
X105561593Y-115198457D01*
X105550706Y-115189601D01*
X105532318Y-115180843D01*
X105502394Y-115171277D01*
X105456897Y-115159996D01*
X105391791Y-115146093D01*
X105303039Y-115128663D01*
X105186607Y-115106798D01*
X105038458Y-115079591D01*
X105006382Y-115073741D01*
X104911314Y-115055374D01*
X104828435Y-115037405D01*
X104765070Y-115021569D01*
X104728542Y-115009600D01*
X104723644Y-115006810D01*
X104715573Y-114982072D01*
X104709013Y-114926790D01*
X104703967Y-114847389D01*
X104700441Y-114750296D01*
X104698439Y-114641938D01*
X104697964Y-114528740D01*
X104699023Y-114417128D01*
X104701618Y-114313529D01*
X104705754Y-114224368D01*
X104711437Y-114156072D01*
X104718669Y-114115066D01*
X104723029Y-114106674D01*
X104747302Y-114098208D01*
X104802574Y-114084435D01*
X104883338Y-114066550D01*
X104984088Y-114045748D01*
X105099317Y-114023223D01*
X105162098Y-114011418D01*
X105281213Y-113989151D01*
X105387435Y-113968979D01*
X105475573Y-113951915D01*
X105540434Y-113938969D01*
X105576826Y-113931155D01*
X105582816Y-113929422D01*
X105592939Y-113909890D01*
X105614338Y-113862843D01*
X105644161Y-113795003D01*
X105679555Y-113713091D01*
X105717668Y-113623828D01*
X105755647Y-113533935D01*
X105790640Y-113450135D01*
X105819794Y-113379147D01*
X105840257Y-113327694D01*
X105849177Y-113302497D01*
X105849343Y-113301396D01*
X105839231Y-113281519D01*
X105810883Y-113235777D01*
X105767277Y-113168717D01*
X105711394Y-113084884D01*
X105646213Y-112988826D01*
X105608321Y-112933650D01*
X105539275Y-112832481D01*
X105477950Y-112740630D01*
X105427337Y-112662744D01*
X105390429Y-112603469D01*
X105370218Y-112567451D01*
X105367299Y-112559377D01*
X105379847Y-112540584D01*
X105414537Y-112500457D01*
X105466937Y-112443493D01*
X105532616Y-112374185D01*
X105607144Y-112297031D01*
X105686087Y-112216525D01*
X105765017Y-112137163D01*
X105839500Y-112063440D01*
X105905106Y-111999852D01*
X105957404Y-111950894D01*
X105991961Y-111921061D01*
X106003522Y-111913942D01*
X106022346Y-111923953D01*
X106067369Y-111952078D01*
X106134213Y-111995454D01*
X106218501Y-112051218D01*
X106315856Y-112116506D01*
X106389293Y-112166246D01*
X106760333Y-112418551D01*
X107378905Y-112163555D01*
X107462725Y-111718931D01*
X107546546Y-111274307D01*
X108471994Y-111274307D01*
X108555814Y-111718931D01*
X108555814Y-111718931D01*
G37*
X108555814Y-111718931D02*
X108639635Y-112163555D01*
X108948920Y-112291053D01*
X109258206Y-112418551D01*
X109629246Y-112166246D01*
X109733157Y-112095996D01*
X109827087Y-112033272D01*
X109906652Y-111980938D01*
X109967470Y-111941857D01*
X110005157Y-111918893D01*
X110015421Y-111913942D01*
X110033910Y-111926676D01*
X110073420Y-111961882D01*
X110129522Y-112015062D01*
X110197787Y-112081718D01*
X110273786Y-112157354D01*
X110353092Y-112237472D01*
X110431275Y-112317574D01*
X110503907Y-112393164D01*
X110566559Y-112459745D01*
X110614803Y-112512818D01*
X110644210Y-112547887D01*
X110651241Y-112559623D01*
X110641123Y-112581260D01*
X110612759Y-112628662D01*
X110569129Y-112697193D01*
X110513218Y-112782215D01*
X110448006Y-112879093D01*
X110410219Y-112934350D01*
X110341343Y-113035248D01*
X110280140Y-113126299D01*
X110229578Y-113202970D01*
X110192628Y-113260728D01*
X110172258Y-113295043D01*
X110169197Y-113302254D01*
X110176136Y-113322748D01*
X110195051Y-113370513D01*
X110223087Y-113438832D01*
X110257391Y-113520989D01*
X110295109Y-113610270D01*
X110333387Y-113699958D01*
X110369370Y-113783338D01*
X110400206Y-113853694D01*
X110423039Y-113904310D01*
X110435017Y-113928471D01*
X110435724Y-113929422D01*
X110454531Y-113934036D01*
X110504618Y-113944328D01*
X110580793Y-113959287D01*
X110677865Y-113977901D01*
X110790643Y-113999159D01*
X110856442Y-114011418D01*
X110976950Y-114034362D01*
X111085797Y-114056195D01*
X111177476Y-114075722D01*
X111246481Y-114091748D01*
X111287304Y-114103079D01*
X111295511Y-114106674D01*
X111303548Y-114131006D01*
X111310033Y-114185959D01*
X111314970Y-114265108D01*
X111318364Y-114362026D01*
X111320218Y-114470287D01*
X111320538Y-114583465D01*
X111319327Y-114695135D01*
X111316590Y-114798868D01*
X111312331Y-114888241D01*
X111306555Y-114956826D01*
X111299267Y-114998197D01*
X111294895Y-115006810D01*
X111268764Y-115017133D01*
X111213393Y-115031892D01*
X111136107Y-115049352D01*
X111044230Y-115067780D01*
X111012158Y-115073741D01*
X110857524Y-115102066D01*
X110735375Y-115124876D01*
X110641673Y-115143080D01*
X110572384Y-115157583D01*
X110523471Y-115169292D01*
X110490897Y-115179115D01*
X110470628Y-115187956D01*
X110458626Y-115196724D01*
X110456947Y-115198457D01*
X110440184Y-115226371D01*
X110414614Y-115280695D01*
X110382788Y-115354777D01*
X110347260Y-115441965D01*
X110310583Y-115535608D01*
X110275311Y-115629052D01*
X110243996Y-115715647D01*
X110219193Y-115788740D01*
X110203454Y-115841678D01*
X110199332Y-115867811D01*
X110199676Y-115868726D01*
X110213641Y-115890086D01*
X110245322Y-115937084D01*
X110291391Y-116004827D01*
X110348518Y-116088423D01*
X110413373Y-116182982D01*
X110431843Y-116209854D01*
X110497699Y-116307275D01*
X110555650Y-116396163D01*
X110602538Y-116471412D01*
X110635207Y-116527920D01*
X110650500Y-116560581D01*
X110651241Y-116564593D01*
X110638392Y-116585684D01*
X110602888Y-116627464D01*
X110549293Y-116685445D01*
X110482171Y-116755135D01*
X110406087Y-116832045D01*
X110325604Y-116911683D01*
X110245287Y-116989561D01*
X110169699Y-117061186D01*
X110103405Y-117122070D01*
X110050969Y-117167721D01*
X110016955Y-117193650D01*
X110007545Y-117197883D01*
X109985643Y-117187912D01*
X109940800Y-117161020D01*
X109880321Y-117121736D01*
X109833789Y-117090117D01*
X109749475Y-117032098D01*
X109649626Y-116963784D01*
X109549473Y-116895579D01*
X109495627Y-116859075D01*
X109313371Y-116735800D01*
X109160381Y-116818520D01*
X109090682Y-116854759D01*
X109031414Y-116882926D01*
X108991311Y-116898991D01*
X108981103Y-116901226D01*
X108968829Y-116884722D01*
X108944613Y-116838082D01*
X108910263Y-116765609D01*
X108867588Y-116671606D01*
X108818394Y-116560374D01*
X108764490Y-116436215D01*
X108707684Y-116303432D01*
X108649782Y-116166327D01*
X108592593Y-116029202D01*
X108537924Y-115896358D01*
X108487584Y-115772098D01*
X108443380Y-115660725D01*
X108407119Y-115566539D01*
X108380609Y-115493844D01*
X108365658Y-115446941D01*
X108363254Y-115430833D01*
X108382311Y-115410286D01*
X108424036Y-115376933D01*
X108479706Y-115337702D01*
X108484378Y-115334599D01*
X108628264Y-115219423D01*
X108744283Y-115085053D01*
X108831430Y-114935784D01*
X108888699Y-114775913D01*
X108915086Y-114609737D01*
X108909585Y-114441552D01*
X108871190Y-114275655D01*
X108798895Y-114116342D01*
X108777626Y-114081487D01*
X108666996Y-113940737D01*
X108536302Y-113827714D01*
X108390064Y-113743003D01*
X108232808Y-113687194D01*
X108069057Y-113660874D01*
X107903333Y-113664630D01*
X107740162Y-113699050D01*
X107584065Y-113764723D01*
X107439567Y-113862235D01*
X107394869Y-113901813D01*
X107281112Y-114025703D01*
X107198218Y-114156124D01*
X107141356Y-114302315D01*
X107109687Y-114447088D01*
X107101869Y-114609860D01*
X107127938Y-114773440D01*
X107185245Y-114932298D01*
X107271144Y-115080906D01*
X107382986Y-115213735D01*
X107518123Y-115325256D01*
X107535883Y-115337011D01*
X107592150Y-115375508D01*
X107634923Y-115408863D01*
X107655372Y-115430160D01*
X107655669Y-115430833D01*
X107651279Y-115453871D01*
X107633876Y-115506157D01*
X107605268Y-115583390D01*
X107567265Y-115681268D01*
X107521674Y-115795491D01*
X107470303Y-115921758D01*
X107414962Y-116055767D01*
X107357458Y-116193218D01*
X107299601Y-116329808D01*
X107243198Y-116461237D01*
X107190058Y-116583205D01*
X107141990Y-116691409D01*
X107100801Y-116781549D01*
X107068301Y-116849323D01*
X107046297Y-116890430D01*
X107037436Y-116901226D01*
X107010360Y-116892819D01*
X106959697Y-116870272D01*
X106894183Y-116837613D01*
X106858159Y-116818520D01*
X106705168Y-116735800D01*
X106522912Y-116859075D01*
X106429875Y-116922228D01*
X106328015Y-116991727D01*
X106232562Y-117057165D01*
X106184750Y-117090117D01*
X106117505Y-117135273D01*
X106060564Y-117171057D01*
X106021354Y-117192938D01*
X106008619Y-117197563D01*
X105990083Y-117185085D01*
X105949059Y-117150252D01*
X105889525Y-117096678D01*
X105815458Y-117027983D01*
X105730835Y-116947781D01*
X105677315Y-116896286D01*
X105583681Y-116804286D01*
X105502759Y-116721999D01*
X105437823Y-116652945D01*
X105392142Y-116600644D01*
X105368989Y-116568616D01*
X105366768Y-116562116D01*
X105377076Y-116537394D01*
X105405561Y-116487405D01*
X105449063Y-116417212D01*
X105504423Y-116331875D01*
X105568480Y-116236456D01*
X105586697Y-116209854D01*
X105653073Y-116113167D01*
X105712622Y-116026117D01*
X105762016Y-115953595D01*
X105797925Y-115900493D01*
X105817019Y-115871703D01*
X105818864Y-115868726D01*
X105816105Y-115845782D01*
X105801462Y-115795336D01*
X105777487Y-115724041D01*
X105746734Y-115638547D01*
X105711756Y-115545507D01*
X105675107Y-115451574D01*
X105639339Y-115363399D01*
X105607006Y-115287634D01*
X105580662Y-115230931D01*
X105562858Y-115199943D01*
X105561593Y-115198457D01*
X105550706Y-115189601D01*
X105532318Y-115180843D01*
X105502394Y-115171277D01*
X105456897Y-115159996D01*
X105391791Y-115146093D01*
X105303039Y-115128663D01*
X105186607Y-115106798D01*
X105038458Y-115079591D01*
X105006382Y-115073741D01*
X104911314Y-115055374D01*
X104828435Y-115037405D01*
X104765070Y-115021569D01*
X104728542Y-115009600D01*
X104723644Y-115006810D01*
X104715573Y-114982072D01*
X104709013Y-114926790D01*
X104703967Y-114847389D01*
X104700441Y-114750296D01*
X104698439Y-114641938D01*
X104697964Y-114528740D01*
X104699023Y-114417128D01*
X104701618Y-114313529D01*
X104705754Y-114224368D01*
X104711437Y-114156072D01*
X104718669Y-114115066D01*
X104723029Y-114106674D01*
X104747302Y-114098208D01*
X104802574Y-114084435D01*
X104883338Y-114066550D01*
X104984088Y-114045748D01*
X105099317Y-114023223D01*
X105162098Y-114011418D01*
X105281213Y-113989151D01*
X105387435Y-113968979D01*
X105475573Y-113951915D01*
X105540434Y-113938969D01*
X105576826Y-113931155D01*
X105582816Y-113929422D01*
X105592939Y-113909890D01*
X105614338Y-113862843D01*
X105644161Y-113795003D01*
X105679555Y-113713091D01*
X105717668Y-113623828D01*
X105755647Y-113533935D01*
X105790640Y-113450135D01*
X105819794Y-113379147D01*
X105840257Y-113327694D01*
X105849177Y-113302497D01*
X105849343Y-113301396D01*
X105839231Y-113281519D01*
X105810883Y-113235777D01*
X105767277Y-113168717D01*
X105711394Y-113084884D01*
X105646213Y-112988826D01*
X105608321Y-112933650D01*
X105539275Y-112832481D01*
X105477950Y-112740630D01*
X105427337Y-112662744D01*
X105390429Y-112603469D01*
X105370218Y-112567451D01*
X105367299Y-112559377D01*
X105379847Y-112540584D01*
X105414537Y-112500457D01*
X105466937Y-112443493D01*
X105532616Y-112374185D01*
X105607144Y-112297031D01*
X105686087Y-112216525D01*
X105765017Y-112137163D01*
X105839500Y-112063440D01*
X105905106Y-111999852D01*
X105957404Y-111950894D01*
X105991961Y-111921061D01*
X106003522Y-111913942D01*
X106022346Y-111923953D01*
X106067369Y-111952078D01*
X106134213Y-111995454D01*
X106218501Y-112051218D01*
X106315856Y-112116506D01*
X106389293Y-112166246D01*
X106760333Y-112418551D01*
X107378905Y-112163555D01*
X107462725Y-111718931D01*
X107546546Y-111274307D01*
X108471994Y-111274307D01*
X108555814Y-111718931D01*
D11*
X105171429Y-138352381D02*
X105171429Y-137352381D01*
X105552382Y-137352381D01*
X105647620Y-137400000D01*
X105695239Y-137447619D01*
X105742858Y-137542857D01*
X105742858Y-137685714D01*
X105695239Y-137780952D01*
X105647620Y-137828571D01*
X105552382Y-137876190D01*
X105171429Y-137876190D01*
X106361905Y-137352381D02*
X106552382Y-137352381D01*
X106647620Y-137400000D01*
X106742858Y-137495238D01*
X106790477Y-137685714D01*
X106790477Y-138019048D01*
X106742858Y-138209524D01*
X106647620Y-138304762D01*
X106552382Y-138352381D01*
X106361905Y-138352381D01*
X106266667Y-138304762D01*
X106171429Y-138209524D01*
X106123810Y-138019048D01*
X106123810Y-137685714D01*
X106171429Y-137495238D01*
X106266667Y-137400000D01*
X106361905Y-137352381D01*
X107123810Y-137352381D02*
X107361905Y-138352381D01*
X107552382Y-137638095D01*
X107742858Y-138352381D01*
X107980953Y-137352381D01*
X108361905Y-137828571D02*
X108695239Y-137828571D01*
X108838096Y-138352381D02*
X108361905Y-138352381D01*
X108361905Y-137352381D01*
X108838096Y-137352381D01*
X109838096Y-138352381D02*
X109504762Y-137876190D01*
X109266667Y-138352381D02*
X109266667Y-137352381D01*
X109647620Y-137352381D01*
X109742858Y-137400000D01*
X109790477Y-137447619D01*
X109838096Y-137542857D01*
X109838096Y-137685714D01*
X109790477Y-137780952D01*
X109742858Y-137828571D01*
X109647620Y-137876190D01*
X109266667Y-137876190D01*
X110266667Y-137971429D02*
X111028572Y-137971429D01*
X95850001Y-137828571D02*
X95992858Y-137876190D01*
X96040477Y-137923810D01*
X96088096Y-138019048D01*
X96088096Y-138161905D01*
X96040477Y-138257143D01*
X95992858Y-138304762D01*
X95897620Y-138352381D01*
X95516667Y-138352381D01*
X95516667Y-137352381D01*
X95850001Y-137352381D01*
X95945239Y-137400000D01*
X95992858Y-137447619D01*
X96040477Y-137542857D01*
X96040477Y-137638095D01*
X95992858Y-137733333D01*
X95945239Y-137780952D01*
X95850001Y-137828571D01*
X95516667Y-137828571D01*
X96516667Y-137828571D02*
X96850001Y-137828571D01*
X96992858Y-138352381D02*
X96516667Y-138352381D01*
X96516667Y-137352381D01*
X96992858Y-137352381D01*
X97421429Y-138352381D02*
X97421429Y-137352381D01*
X97659524Y-137352381D01*
X97802382Y-137400000D01*
X97897620Y-137495238D01*
X97945239Y-137590476D01*
X97992858Y-137780952D01*
X97992858Y-137923810D01*
X97945239Y-138114286D01*
X97897620Y-138209524D01*
X97802382Y-138304762D01*
X97659524Y-138352381D01*
X97421429Y-138352381D01*
X98421429Y-137971429D02*
X99183334Y-137971429D01*
X84350001Y-137828571D02*
X84492858Y-137876190D01*
X84540477Y-137923810D01*
X84588096Y-138019048D01*
X84588096Y-138161905D01*
X84540477Y-138257143D01*
X84492858Y-138304762D01*
X84397620Y-138352381D01*
X84016667Y-138352381D01*
X84016667Y-137352381D01*
X84350001Y-137352381D01*
X84445239Y-137400000D01*
X84492858Y-137447619D01*
X84540477Y-137542857D01*
X84540477Y-137638095D01*
X84492858Y-137733333D01*
X84445239Y-137780952D01*
X84350001Y-137828571D01*
X84016667Y-137828571D01*
X85016667Y-137828571D02*
X85350001Y-137828571D01*
X85492858Y-138352381D02*
X85016667Y-138352381D01*
X85016667Y-137352381D01*
X85492858Y-137352381D01*
X85921429Y-138352381D02*
X85921429Y-137352381D01*
X86159524Y-137352381D01*
X86302382Y-137400000D01*
X86397620Y-137495238D01*
X86445239Y-137590476D01*
X86492858Y-137780952D01*
X86492858Y-137923810D01*
X86445239Y-138114286D01*
X86397620Y-138209524D01*
X86302382Y-138304762D01*
X86159524Y-138352381D01*
X85921429Y-138352381D01*
X86921429Y-137971429D02*
X87683334Y-137971429D01*
X87302382Y-138352381D02*
X87302382Y-137590476D01*
X71421429Y-138352381D02*
X71421429Y-137352381D01*
X71802382Y-137352381D01*
X71897620Y-137400000D01*
X71945239Y-137447619D01*
X71992858Y-137542857D01*
X71992858Y-137685714D01*
X71945239Y-137780952D01*
X71897620Y-137828571D01*
X71802382Y-137876190D01*
X71421429Y-137876190D01*
X72611905Y-137352381D02*
X72802382Y-137352381D01*
X72897620Y-137400000D01*
X72992858Y-137495238D01*
X73040477Y-137685714D01*
X73040477Y-138019048D01*
X72992858Y-138209524D01*
X72897620Y-138304762D01*
X72802382Y-138352381D01*
X72611905Y-138352381D01*
X72516667Y-138304762D01*
X72421429Y-138209524D01*
X72373810Y-138019048D01*
X72373810Y-137685714D01*
X72421429Y-137495238D01*
X72516667Y-137400000D01*
X72611905Y-137352381D01*
X73373810Y-137352381D02*
X73611905Y-138352381D01*
X73802382Y-137638095D01*
X73992858Y-138352381D01*
X74230953Y-137352381D01*
X74611905Y-137828571D02*
X74945239Y-137828571D01*
X75088096Y-138352381D02*
X74611905Y-138352381D01*
X74611905Y-137352381D01*
X75088096Y-137352381D01*
X76088096Y-138352381D02*
X75754762Y-137876190D01*
X75516667Y-138352381D02*
X75516667Y-137352381D01*
X75897620Y-137352381D01*
X75992858Y-137400000D01*
X76040477Y-137447619D01*
X76088096Y-137542857D01*
X76088096Y-137685714D01*
X76040477Y-137780952D01*
X75992858Y-137828571D01*
X75897620Y-137876190D01*
X75516667Y-137876190D01*
X76516667Y-137971429D02*
X77278572Y-137971429D01*
X76897620Y-138352381D02*
X76897620Y-137590476D01*
X68209524Y-117117143D02*
X68161905Y-117164762D01*
X68019048Y-117212381D01*
X67923810Y-117212381D01*
X67780952Y-117164762D01*
X67685714Y-117069524D01*
X67638095Y-116974286D01*
X67590476Y-116783810D01*
X67590476Y-116640952D01*
X67638095Y-116450476D01*
X67685714Y-116355238D01*
X67780952Y-116260000D01*
X67923810Y-116212381D01*
X68019048Y-116212381D01*
X68161905Y-116260000D01*
X68209524Y-116307619D01*
X68638095Y-117212381D02*
X68638095Y-116212381D01*
X69209524Y-117212381D01*
X69209524Y-116212381D01*
X70209524Y-117212381D02*
X69638095Y-117212381D01*
X69923809Y-117212381D02*
X69923809Y-116212381D01*
X69828571Y-116355238D01*
X69733333Y-116450476D01*
X69638095Y-116498095D01*
X107261905Y-108452381D02*
X107261905Y-107452381D01*
X107500000Y-107452381D01*
X107642858Y-107500000D01*
X107738096Y-107595238D01*
X107785715Y-107690476D01*
X107833334Y-107880952D01*
X107833334Y-108023810D01*
X107785715Y-108214286D01*
X107738096Y-108309524D01*
X107642858Y-108404762D01*
X107500000Y-108452381D01*
X107261905Y-108452381D01*
X108166667Y-107452381D02*
X108785715Y-107452381D01*
X108452381Y-107833333D01*
X108595239Y-107833333D01*
X108690477Y-107880952D01*
X108738096Y-107928571D01*
X108785715Y-108023810D01*
X108785715Y-108261905D01*
X108738096Y-108357143D01*
X108690477Y-108404762D01*
X108595239Y-108452381D01*
X108309524Y-108452381D01*
X108214286Y-108404762D01*
X108166667Y-108357143D01*
M02*
