G04 #@! TF.FileFunction,Soldermask,Bot*
%FSLAX46Y46*%
G04 Gerber Fmt 4.6, Leading zero omitted, Abs format (unit mm)*
G04 Created by KiCad (PCBNEW 4.0.6) date 04/27/17 23:51:26*
%MOMM*%
%LPD*%
G01*
G04 APERTURE LIST*
%ADD10C,0.100000*%
%ADD11C,0.150000*%
%ADD12C,3.600000*%
%ADD13C,2.540000*%
%ADD14R,2.100000X2.400000*%
%ADD15R,2.400000X2.100000*%
%ADD16R,6.900000X9.400000*%
%ADD17R,1.900000X1.900000*%
%ADD18R,5.400000X5.400000*%
%ADD19R,5.400000X4.400000*%
%ADD20R,1.400000X1.900000*%
%ADD21R,2.000000X2.800000*%
G04 APERTURE END LIST*
D10*
D11*
X115000000Y-139000000D02*
X115000000Y-107500000D01*
X67250000Y-139000000D02*
X115000000Y-139000000D01*
X67000000Y-139000000D02*
X67250000Y-139000000D01*
X67000000Y-107500000D02*
X67000000Y-139000000D01*
X115000000Y-107500000D02*
X67000000Y-107500000D01*
D12*
X112000000Y-110500000D03*
X70000000Y-110500000D03*
D13*
X74000000Y-109500000D03*
D14*
X89270000Y-113330000D03*
X89270000Y-117330000D03*
D15*
X92500000Y-112000000D03*
X96500000Y-112000000D03*
X104000000Y-114500000D03*
X108000000Y-114500000D03*
X81510000Y-113070000D03*
X85510000Y-113070000D03*
X81510000Y-110500000D03*
X85510000Y-110500000D03*
D16*
X98310000Y-118400000D03*
D17*
X96560000Y-121900000D03*
X96560000Y-114900000D03*
X98560000Y-121900000D03*
X95810000Y-116650000D03*
X95810000Y-120150000D03*
X100560000Y-121900000D03*
D16*
X98310000Y-118400000D03*
D17*
X95810000Y-118400000D03*
D18*
X71680000Y-134400000D03*
X76690000Y-134400000D03*
D19*
X71680000Y-130400000D03*
X76690000Y-130400000D03*
D18*
X71680000Y-126400000D03*
X76690000Y-126400000D03*
X94180000Y-134400000D03*
X99190000Y-134400000D03*
D19*
X94180000Y-130400000D03*
X99190000Y-130400000D03*
D18*
X94180000Y-126400000D03*
X99190000Y-126400000D03*
X82930000Y-134400000D03*
X87940000Y-134400000D03*
D19*
X82930000Y-130400000D03*
X87940000Y-130400000D03*
D18*
X82930000Y-126400000D03*
X87940000Y-126400000D03*
X105430000Y-134400000D03*
X110440000Y-134400000D03*
D19*
X105430000Y-130400000D03*
X110440000Y-130400000D03*
D18*
X105430000Y-126400000D03*
X110440000Y-126400000D03*
D20*
X82830000Y-115750000D03*
X84100000Y-115750000D03*
X84100000Y-122250000D03*
X82830000Y-122250000D03*
D21*
X86040000Y-121540000D03*
X86040000Y-116460000D03*
X80960000Y-116460000D03*
X80960000Y-121540000D03*
M02*
