G04 #@! TF.FileFunction,Drawing*
%FSLAX46Y46*%
G04 Gerber Fmt 4.6, Leading zero omitted, Abs format (unit mm)*
G04 Created by KiCad (PCBNEW 4.0.5) date 02/10/17 23:38:48*
%MOMM*%
%LPD*%
G01*
G04 APERTURE LIST*
%ADD10C,0.100000*%
%ADD11C,0.150000*%
%ADD12C,0.300000*%
%ADD13C,0.400000*%
G04 APERTURE END LIST*
D10*
D11*
X79999600Y-155999600D02*
X79999600Y-187999600D01*
X187999600Y-187999600D01*
X187999600Y-155999600D01*
X79999600Y-155999600D01*
D10*
D11*
X10000000Y-10000000D02*
X10000000Y-189999600D01*
X189999600Y-189999600D01*
X189999600Y-10000000D01*
X10000000Y-10000000D01*
D10*
D11*
X12000000Y-12000000D02*
X12000000Y-187999600D01*
X187999600Y-187999600D01*
X187999600Y-12000000D01*
X12000000Y-12000000D01*
D10*
D11*
X60000000Y-12000000D02*
X60000000Y-10000000D01*
D10*
D11*
X110000000Y-12000000D02*
X110000000Y-10000000D01*
D10*
D11*
X160000000Y-12000000D02*
X160000000Y-10000000D01*
D10*
D11*
X35990476Y-11588095D02*
X35247619Y-11588095D01*
X35619048Y-11588095D02*
X35619048Y-10288095D01*
X35495238Y-10473810D01*
X35371429Y-10597619D01*
X35247619Y-10659524D01*
D10*
D11*
X85247619Y-10411905D02*
X85309524Y-10350000D01*
X85433333Y-10288095D01*
X85742857Y-10288095D01*
X85866667Y-10350000D01*
X85928571Y-10411905D01*
X85990476Y-10535714D01*
X85990476Y-10659524D01*
X85928571Y-10845238D01*
X85185714Y-11588095D01*
X85990476Y-11588095D01*
D10*
D11*
X135185714Y-10288095D02*
X135990476Y-10288095D01*
X135557143Y-10783333D01*
X135742857Y-10783333D01*
X135866667Y-10845238D01*
X135928571Y-10907143D01*
X135990476Y-11030952D01*
X135990476Y-11340476D01*
X135928571Y-11464286D01*
X135866667Y-11526190D01*
X135742857Y-11588095D01*
X135371429Y-11588095D01*
X135247619Y-11526190D01*
X135185714Y-11464286D01*
D10*
D11*
X185866667Y-10721429D02*
X185866667Y-11588095D01*
X185557143Y-10226190D02*
X185247619Y-11154762D01*
X186052381Y-11154762D01*
D10*
D11*
X60000000Y-187999600D02*
X60000000Y-189999600D01*
D10*
D11*
X110000000Y-187999600D02*
X110000000Y-189999600D01*
D10*
D11*
X160000000Y-187999600D02*
X160000000Y-189999600D01*
D10*
D11*
X35990476Y-189587695D02*
X35247619Y-189587695D01*
X35619048Y-189587695D02*
X35619048Y-188287695D01*
X35495238Y-188473410D01*
X35371429Y-188597219D01*
X35247619Y-188659124D01*
D10*
D11*
X85247619Y-188411505D02*
X85309524Y-188349600D01*
X85433333Y-188287695D01*
X85742857Y-188287695D01*
X85866667Y-188349600D01*
X85928571Y-188411505D01*
X85990476Y-188535314D01*
X85990476Y-188659124D01*
X85928571Y-188844838D01*
X85185714Y-189587695D01*
X85990476Y-189587695D01*
D10*
D11*
X135185714Y-188287695D02*
X135990476Y-188287695D01*
X135557143Y-188782933D01*
X135742857Y-188782933D01*
X135866667Y-188844838D01*
X135928571Y-188906743D01*
X135990476Y-189030552D01*
X135990476Y-189340076D01*
X135928571Y-189463886D01*
X135866667Y-189525790D01*
X135742857Y-189587695D01*
X135371429Y-189587695D01*
X135247619Y-189525790D01*
X135185714Y-189463886D01*
D10*
D11*
X185866667Y-188721029D02*
X185866667Y-189587695D01*
X185557143Y-188225790D02*
X185247619Y-189154362D01*
X186052381Y-189154362D01*
D10*
D11*
X10000000Y-60000000D02*
X12000000Y-60000000D01*
D10*
D11*
X10000000Y-110000000D02*
X12000000Y-110000000D01*
D10*
D11*
X10000000Y-160000000D02*
X12000000Y-160000000D01*
D10*
D11*
X10690476Y-35216667D02*
X11309524Y-35216667D01*
X10566667Y-35588095D02*
X11000000Y-34288095D01*
X11433333Y-35588095D01*
D10*
D11*
X11092857Y-84907143D02*
X11278571Y-84969048D01*
X11340476Y-85030952D01*
X11402381Y-85154762D01*
X11402381Y-85340476D01*
X11340476Y-85464286D01*
X11278571Y-85526190D01*
X11154762Y-85588095D01*
X10659524Y-85588095D01*
X10659524Y-84288095D01*
X11092857Y-84288095D01*
X11216667Y-84350000D01*
X11278571Y-84411905D01*
X11340476Y-84535714D01*
X11340476Y-84659524D01*
X11278571Y-84783333D01*
X11216667Y-84845238D01*
X11092857Y-84907143D01*
X10659524Y-84907143D01*
D10*
D11*
X11402381Y-135464286D02*
X11340476Y-135526190D01*
X11154762Y-135588095D01*
X11030952Y-135588095D01*
X10845238Y-135526190D01*
X10721429Y-135402381D01*
X10659524Y-135278571D01*
X10597619Y-135030952D01*
X10597619Y-134845238D01*
X10659524Y-134597619D01*
X10721429Y-134473810D01*
X10845238Y-134350000D01*
X11030952Y-134288095D01*
X11154762Y-134288095D01*
X11340476Y-134350000D01*
X11402381Y-134411905D01*
D10*
D11*
X10659524Y-185588095D02*
X10659524Y-184288095D01*
X10969048Y-184288095D01*
X11154762Y-184350000D01*
X11278571Y-184473810D01*
X11340476Y-184597619D01*
X11402381Y-184845238D01*
X11402381Y-185030952D01*
X11340476Y-185278571D01*
X11278571Y-185402381D01*
X11154762Y-185526190D01*
X10969048Y-185588095D01*
X10659524Y-185588095D01*
D10*
D11*
X189999600Y-60000000D02*
X187999600Y-60000000D01*
D10*
D11*
X189999600Y-110000000D02*
X187999600Y-110000000D01*
D10*
D11*
X189999600Y-160000000D02*
X187999600Y-160000000D01*
D10*
D11*
X188690076Y-35216667D02*
X189309124Y-35216667D01*
X188566267Y-35588095D02*
X188999600Y-34288095D01*
X189432933Y-35588095D01*
D10*
D11*
X189092457Y-84907143D02*
X189278171Y-84969048D01*
X189340076Y-85030952D01*
X189401981Y-85154762D01*
X189401981Y-85340476D01*
X189340076Y-85464286D01*
X189278171Y-85526190D01*
X189154362Y-85588095D01*
X188659124Y-85588095D01*
X188659124Y-84288095D01*
X189092457Y-84288095D01*
X189216267Y-84350000D01*
X189278171Y-84411905D01*
X189340076Y-84535714D01*
X189340076Y-84659524D01*
X189278171Y-84783333D01*
X189216267Y-84845238D01*
X189092457Y-84907143D01*
X188659124Y-84907143D01*
D10*
D11*
X189401981Y-135464286D02*
X189340076Y-135526190D01*
X189154362Y-135588095D01*
X189030552Y-135588095D01*
X188844838Y-135526190D01*
X188721029Y-135402381D01*
X188659124Y-135278571D01*
X188597219Y-135030952D01*
X188597219Y-134845238D01*
X188659124Y-134597619D01*
X188721029Y-134473810D01*
X188844838Y-134350000D01*
X189030552Y-134288095D01*
X189154362Y-134288095D01*
X189340076Y-134350000D01*
X189401981Y-134411905D01*
D10*
D11*
X188659124Y-185588095D02*
X188659124Y-184288095D01*
X188968648Y-184288095D01*
X189154362Y-184350000D01*
X189278171Y-184473810D01*
X189340076Y-184597619D01*
X189401981Y-184845238D01*
X189401981Y-185030952D01*
X189340076Y-185278571D01*
X189278171Y-185402381D01*
X189154362Y-185526190D01*
X188968648Y-185588095D01*
X188659124Y-185588095D01*
D10*
D11*
X103356743Y-183778171D02*
X103356743Y-182278171D01*
X103713886Y-182278171D01*
X103928171Y-182349600D01*
X104071029Y-182492457D01*
X104142457Y-182635314D01*
X104213886Y-182921029D01*
X104213886Y-183135314D01*
X104142457Y-183421029D01*
X104071029Y-183563886D01*
X103928171Y-183706743D01*
X103713886Y-183778171D01*
X103356743Y-183778171D01*
X105499600Y-183778171D02*
X105499600Y-182992457D01*
X105428171Y-182849600D01*
X105285314Y-182778171D01*
X104999600Y-182778171D01*
X104856743Y-182849600D01*
X105499600Y-183706743D02*
X105356743Y-183778171D01*
X104999600Y-183778171D01*
X104856743Y-183706743D01*
X104785314Y-183563886D01*
X104785314Y-183421029D01*
X104856743Y-183278171D01*
X104999600Y-183206743D01*
X105356743Y-183206743D01*
X105499600Y-183135314D01*
X105999600Y-182778171D02*
X106571029Y-182778171D01*
X106213886Y-182278171D02*
X106213886Y-183563886D01*
X106285314Y-183706743D01*
X106428172Y-183778171D01*
X106571029Y-183778171D01*
X107642457Y-183706743D02*
X107499600Y-183778171D01*
X107213886Y-183778171D01*
X107071029Y-183706743D01*
X106999600Y-183563886D01*
X106999600Y-182992457D01*
X107071029Y-182849600D01*
X107213886Y-182778171D01*
X107499600Y-182778171D01*
X107642457Y-182849600D01*
X107713886Y-182992457D01*
X107713886Y-183135314D01*
X106999600Y-183278171D01*
X108356743Y-183635314D02*
X108428171Y-183706743D01*
X108356743Y-183778171D01*
X108285314Y-183706743D01*
X108356743Y-183635314D01*
X108356743Y-183778171D01*
X108356743Y-182849600D02*
X108428171Y-182921029D01*
X108356743Y-182992457D01*
X108285314Y-182921029D01*
X108356743Y-182849600D01*
X108356743Y-182992457D01*
D10*
D11*
X79999600Y-184499600D02*
X187999600Y-184499600D01*
D10*
D11*
X81356743Y-186578171D02*
X81356743Y-185078171D01*
X82213886Y-186578171D02*
X81571029Y-185721029D01*
X82213886Y-185078171D02*
X81356743Y-185935314D01*
X82856743Y-186578171D02*
X82856743Y-185578171D01*
X82856743Y-185078171D02*
X82785314Y-185149600D01*
X82856743Y-185221029D01*
X82928171Y-185149600D01*
X82856743Y-185078171D01*
X82856743Y-185221029D01*
X84428172Y-186435314D02*
X84356743Y-186506743D01*
X84142457Y-186578171D01*
X83999600Y-186578171D01*
X83785315Y-186506743D01*
X83642457Y-186363886D01*
X83571029Y-186221029D01*
X83499600Y-185935314D01*
X83499600Y-185721029D01*
X83571029Y-185435314D01*
X83642457Y-185292457D01*
X83785315Y-185149600D01*
X83999600Y-185078171D01*
X84142457Y-185078171D01*
X84356743Y-185149600D01*
X84428172Y-185221029D01*
X85713886Y-186578171D02*
X85713886Y-185792457D01*
X85642457Y-185649600D01*
X85499600Y-185578171D01*
X85213886Y-185578171D01*
X85071029Y-185649600D01*
X85713886Y-186506743D02*
X85571029Y-186578171D01*
X85213886Y-186578171D01*
X85071029Y-186506743D01*
X84999600Y-186363886D01*
X84999600Y-186221029D01*
X85071029Y-186078171D01*
X85213886Y-186006743D01*
X85571029Y-186006743D01*
X85713886Y-185935314D01*
X87071029Y-186578171D02*
X87071029Y-185078171D01*
X87071029Y-186506743D02*
X86928172Y-186578171D01*
X86642458Y-186578171D01*
X86499600Y-186506743D01*
X86428172Y-186435314D01*
X86356743Y-186292457D01*
X86356743Y-185863886D01*
X86428172Y-185721029D01*
X86499600Y-185649600D01*
X86642458Y-185578171D01*
X86928172Y-185578171D01*
X87071029Y-185649600D01*
X88928172Y-185792457D02*
X89428172Y-185792457D01*
X89642458Y-186578171D02*
X88928172Y-186578171D01*
X88928172Y-185078171D01*
X89642458Y-185078171D01*
X90285315Y-186435314D02*
X90356743Y-186506743D01*
X90285315Y-186578171D01*
X90213886Y-186506743D01*
X90285315Y-186435314D01*
X90285315Y-186578171D01*
X90999601Y-186578171D02*
X90999601Y-185078171D01*
X91356744Y-185078171D01*
X91571029Y-185149600D01*
X91713887Y-185292457D01*
X91785315Y-185435314D01*
X91856744Y-185721029D01*
X91856744Y-185935314D01*
X91785315Y-186221029D01*
X91713887Y-186363886D01*
X91571029Y-186506743D01*
X91356744Y-186578171D01*
X90999601Y-186578171D01*
X92499601Y-186435314D02*
X92571029Y-186506743D01*
X92499601Y-186578171D01*
X92428172Y-186506743D01*
X92499601Y-186435314D01*
X92499601Y-186578171D01*
X93142458Y-186149600D02*
X93856744Y-186149600D01*
X92999601Y-186578171D02*
X93499601Y-185078171D01*
X93999601Y-186578171D01*
X94499601Y-186435314D02*
X94571029Y-186506743D01*
X94499601Y-186578171D01*
X94428172Y-186506743D01*
X94499601Y-186435314D01*
X94499601Y-186578171D01*
X97499601Y-186578171D02*
X97499601Y-185078171D01*
X97642458Y-186006743D02*
X98071029Y-186578171D01*
X98071029Y-185578171D02*
X97499601Y-186149600D01*
X98713887Y-186578171D02*
X98713887Y-185578171D01*
X98713887Y-185078171D02*
X98642458Y-185149600D01*
X98713887Y-185221029D01*
X98785315Y-185149600D01*
X98713887Y-185078171D01*
X98713887Y-185221029D01*
X100071030Y-186506743D02*
X99928173Y-186578171D01*
X99642459Y-186578171D01*
X99499601Y-186506743D01*
X99428173Y-186435314D01*
X99356744Y-186292457D01*
X99356744Y-185863886D01*
X99428173Y-185721029D01*
X99499601Y-185649600D01*
X99642459Y-185578171D01*
X99928173Y-185578171D01*
X100071030Y-185649600D01*
X101356744Y-186578171D02*
X101356744Y-185792457D01*
X101285315Y-185649600D01*
X101142458Y-185578171D01*
X100856744Y-185578171D01*
X100713887Y-185649600D01*
X101356744Y-186506743D02*
X101213887Y-186578171D01*
X100856744Y-186578171D01*
X100713887Y-186506743D01*
X100642458Y-186363886D01*
X100642458Y-186221029D01*
X100713887Y-186078171D01*
X100856744Y-186006743D01*
X101213887Y-186006743D01*
X101356744Y-185935314D01*
X102713887Y-186578171D02*
X102713887Y-185078171D01*
X102713887Y-186506743D02*
X102571030Y-186578171D01*
X102285316Y-186578171D01*
X102142458Y-186506743D01*
X102071030Y-186435314D01*
X101999601Y-186292457D01*
X101999601Y-185863886D01*
X102071030Y-185721029D01*
X102142458Y-185649600D01*
X102285316Y-185578171D01*
X102571030Y-185578171D01*
X102713887Y-185649600D01*
X105213887Y-185578171D02*
X105213887Y-186578171D01*
X104856744Y-185006743D02*
X104499601Y-186078171D01*
X105428173Y-186078171D01*
X105999601Y-186435314D02*
X106071029Y-186506743D01*
X105999601Y-186578171D01*
X105928172Y-186506743D01*
X105999601Y-186435314D01*
X105999601Y-186578171D01*
X106999601Y-185078171D02*
X107142458Y-185078171D01*
X107285315Y-185149600D01*
X107356744Y-185221029D01*
X107428173Y-185363886D01*
X107499601Y-185649600D01*
X107499601Y-186006743D01*
X107428173Y-186292457D01*
X107356744Y-186435314D01*
X107285315Y-186506743D01*
X107142458Y-186578171D01*
X106999601Y-186578171D01*
X106856744Y-186506743D01*
X106785315Y-186435314D01*
X106713887Y-186292457D01*
X106642458Y-186006743D01*
X106642458Y-185649600D01*
X106713887Y-185363886D01*
X106785315Y-185221029D01*
X106856744Y-185149600D01*
X106999601Y-185078171D01*
X108142458Y-186435314D02*
X108213886Y-186506743D01*
X108142458Y-186578171D01*
X108071029Y-186506743D01*
X108142458Y-186435314D01*
X108142458Y-186578171D01*
X109571030Y-185078171D02*
X108856744Y-185078171D01*
X108785315Y-185792457D01*
X108856744Y-185721029D01*
X108999601Y-185649600D01*
X109356744Y-185649600D01*
X109499601Y-185721029D01*
X109571030Y-185792457D01*
X109642458Y-185935314D01*
X109642458Y-186292457D01*
X109571030Y-186435314D01*
X109499601Y-186506743D01*
X109356744Y-186578171D01*
X108999601Y-186578171D01*
X108856744Y-186506743D01*
X108785315Y-186435314D01*
D10*
D11*
X79999600Y-181499600D02*
X187999600Y-181499600D01*
D10*
D12*
X167213886Y-183778171D02*
X166713886Y-183063886D01*
X166356743Y-183778171D02*
X166356743Y-182278171D01*
X166928171Y-182278171D01*
X167071029Y-182349600D01*
X167142457Y-182421029D01*
X167213886Y-182563886D01*
X167213886Y-182778171D01*
X167142457Y-182921029D01*
X167071029Y-182992457D01*
X166928171Y-183063886D01*
X166356743Y-183063886D01*
X168428171Y-183706743D02*
X168285314Y-183778171D01*
X167999600Y-183778171D01*
X167856743Y-183706743D01*
X167785314Y-183563886D01*
X167785314Y-182992457D01*
X167856743Y-182849600D01*
X167999600Y-182778171D01*
X168285314Y-182778171D01*
X168428171Y-182849600D01*
X168499600Y-182992457D01*
X168499600Y-183135314D01*
X167785314Y-183278171D01*
X168999600Y-182778171D02*
X169356743Y-183778171D01*
X169713885Y-182778171D01*
X170285314Y-183635314D02*
X170356742Y-183706743D01*
X170285314Y-183778171D01*
X170213885Y-183706743D01*
X170285314Y-183635314D01*
X170285314Y-183778171D01*
X170285314Y-182849600D02*
X170356742Y-182921029D01*
X170285314Y-182992457D01*
X170213885Y-182921029D01*
X170285314Y-182849600D01*
X170285314Y-182992457D01*
D10*
D11*
X81285314Y-183706743D02*
X81499600Y-183778171D01*
X81856743Y-183778171D01*
X81999600Y-183706743D01*
X82071029Y-183635314D01*
X82142457Y-183492457D01*
X82142457Y-183349600D01*
X82071029Y-183206743D01*
X81999600Y-183135314D01*
X81856743Y-183063886D01*
X81571029Y-182992457D01*
X81428171Y-182921029D01*
X81356743Y-182849600D01*
X81285314Y-182706743D01*
X81285314Y-182563886D01*
X81356743Y-182421029D01*
X81428171Y-182349600D01*
X81571029Y-182278171D01*
X81928171Y-182278171D01*
X82142457Y-182349600D01*
X82785314Y-183778171D02*
X82785314Y-182778171D01*
X82785314Y-182278171D02*
X82713885Y-182349600D01*
X82785314Y-182421029D01*
X82856742Y-182349600D01*
X82785314Y-182278171D01*
X82785314Y-182421029D01*
X83356743Y-182778171D02*
X84142457Y-182778171D01*
X83356743Y-183778171D01*
X84142457Y-183778171D01*
X85285314Y-183706743D02*
X85142457Y-183778171D01*
X84856743Y-183778171D01*
X84713886Y-183706743D01*
X84642457Y-183563886D01*
X84642457Y-182992457D01*
X84713886Y-182849600D01*
X84856743Y-182778171D01*
X85142457Y-182778171D01*
X85285314Y-182849600D01*
X85356743Y-182992457D01*
X85356743Y-183135314D01*
X84642457Y-183278171D01*
X85999600Y-183635314D02*
X86071028Y-183706743D01*
X85999600Y-183778171D01*
X85928171Y-183706743D01*
X85999600Y-183635314D01*
X85999600Y-183778171D01*
X85999600Y-182849600D02*
X86071028Y-182921029D01*
X85999600Y-182992457D01*
X85928171Y-182921029D01*
X85999600Y-182849600D01*
X85999600Y-182992457D01*
X87856743Y-182278171D02*
X87856743Y-183492457D01*
X87928171Y-183635314D01*
X87999600Y-183706743D01*
X88142457Y-183778171D01*
X88428171Y-183778171D01*
X88571029Y-183706743D01*
X88642457Y-183635314D01*
X88713886Y-183492457D01*
X88713886Y-182278171D01*
X89356743Y-183706743D02*
X89499600Y-183778171D01*
X89785315Y-183778171D01*
X89928172Y-183706743D01*
X89999600Y-183563886D01*
X89999600Y-183492457D01*
X89928172Y-183349600D01*
X89785315Y-183278171D01*
X89571029Y-183278171D01*
X89428172Y-183206743D01*
X89356743Y-183063886D01*
X89356743Y-182992457D01*
X89428172Y-182849600D01*
X89571029Y-182778171D01*
X89785315Y-182778171D01*
X89928172Y-182849600D01*
X91213886Y-183706743D02*
X91071029Y-183778171D01*
X90785315Y-183778171D01*
X90642458Y-183706743D01*
X90571029Y-183563886D01*
X90571029Y-182992457D01*
X90642458Y-182849600D01*
X90785315Y-182778171D01*
X91071029Y-182778171D01*
X91213886Y-182849600D01*
X91285315Y-182992457D01*
X91285315Y-183135314D01*
X90571029Y-183278171D01*
X91928172Y-183778171D02*
X91928172Y-182778171D01*
X91928172Y-183063886D02*
X91999600Y-182921029D01*
X92071029Y-182849600D01*
X92213886Y-182778171D01*
X92356743Y-182778171D01*
D10*
D11*
X166356743Y-186578171D02*
X166356743Y-185078171D01*
X167713886Y-186578171D02*
X167713886Y-185078171D01*
X167713886Y-186506743D02*
X167571029Y-186578171D01*
X167285315Y-186578171D01*
X167142457Y-186506743D01*
X167071029Y-186435314D01*
X166999600Y-186292457D01*
X166999600Y-185863886D01*
X167071029Y-185721029D01*
X167142457Y-185649600D01*
X167285315Y-185578171D01*
X167571029Y-185578171D01*
X167713886Y-185649600D01*
X168428172Y-186435314D02*
X168499600Y-186506743D01*
X168428172Y-186578171D01*
X168356743Y-186506743D01*
X168428172Y-186435314D01*
X168428172Y-186578171D01*
X168428172Y-185649600D02*
X168499600Y-185721029D01*
X168428172Y-185792457D01*
X168356743Y-185721029D01*
X168428172Y-185649600D01*
X168428172Y-185792457D01*
X171071029Y-186578171D02*
X170213886Y-186578171D01*
X170642458Y-186578171D02*
X170642458Y-185078171D01*
X170499601Y-185292457D01*
X170356743Y-185435314D01*
X170213886Y-185506743D01*
X172785314Y-185006743D02*
X171499600Y-186935314D01*
X174071029Y-186578171D02*
X173213886Y-186578171D01*
X173642458Y-186578171D02*
X173642458Y-185078171D01*
X173499601Y-185292457D01*
X173356743Y-185435314D01*
X173213886Y-185506743D01*
D10*
D11*
X79999600Y-177499600D02*
X187999600Y-177499600D01*
D10*
D13*
X81451981Y-178204362D02*
X82594838Y-178204362D01*
X81773410Y-180204362D02*
X82023410Y-178204362D01*
X83011505Y-180204362D02*
X83178171Y-178871029D01*
X83261505Y-178204362D02*
X83154362Y-178299600D01*
X83237695Y-178394838D01*
X83344839Y-178299600D01*
X83261505Y-178204362D01*
X83237695Y-178394838D01*
X83844838Y-178871029D02*
X84606743Y-178871029D01*
X84213886Y-178204362D02*
X83999600Y-179918648D01*
X84071030Y-180109124D01*
X84249601Y-180204362D01*
X84440077Y-180204362D01*
X85392458Y-180204362D02*
X85213887Y-180109124D01*
X85142457Y-179918648D01*
X85356743Y-178204362D01*
X86928172Y-180109124D02*
X86725791Y-180204362D01*
X86344839Y-180204362D01*
X86166267Y-180109124D01*
X86094838Y-179918648D01*
X86190076Y-179156743D01*
X86309124Y-178966267D01*
X86511505Y-178871029D01*
X86892457Y-178871029D01*
X87071029Y-178966267D01*
X87142457Y-179156743D01*
X87118648Y-179347219D01*
X86142457Y-179537695D01*
X87892457Y-180013886D02*
X87975792Y-180109124D01*
X87868648Y-180204362D01*
X87785315Y-180109124D01*
X87892457Y-180013886D01*
X87868648Y-180204362D01*
X88023410Y-178966267D02*
X88106744Y-179061505D01*
X87999600Y-179156743D01*
X87916267Y-179061505D01*
X88023410Y-178966267D01*
X87999600Y-179156743D01*
D10*
D11*
X81856743Y-175592457D02*
X81356743Y-175592457D01*
X81356743Y-176378171D02*
X81356743Y-174878171D01*
X82071029Y-174878171D01*
X82642457Y-176378171D02*
X82642457Y-175378171D01*
X82642457Y-174878171D02*
X82571028Y-174949600D01*
X82642457Y-175021029D01*
X82713885Y-174949600D01*
X82642457Y-174878171D01*
X82642457Y-175021029D01*
X83571029Y-176378171D02*
X83428171Y-176306743D01*
X83356743Y-176163886D01*
X83356743Y-174878171D01*
X84713885Y-176306743D02*
X84571028Y-176378171D01*
X84285314Y-176378171D01*
X84142457Y-176306743D01*
X84071028Y-176163886D01*
X84071028Y-175592457D01*
X84142457Y-175449600D01*
X84285314Y-175378171D01*
X84571028Y-175378171D01*
X84713885Y-175449600D01*
X84785314Y-175592457D01*
X84785314Y-175735314D01*
X84071028Y-175878171D01*
X85428171Y-176235314D02*
X85499599Y-176306743D01*
X85428171Y-176378171D01*
X85356742Y-176306743D01*
X85428171Y-176235314D01*
X85428171Y-176378171D01*
X85428171Y-175449600D02*
X85499599Y-175521029D01*
X85428171Y-175592457D01*
X85356742Y-175521029D01*
X85428171Y-175449600D01*
X85428171Y-175592457D01*
X87285314Y-176378171D02*
X87285314Y-174878171D01*
X87285314Y-175592457D02*
X88142457Y-175592457D01*
X88142457Y-176378171D02*
X88142457Y-174878171D01*
X88856743Y-176378171D02*
X88856743Y-175378171D01*
X88856743Y-174878171D02*
X88785314Y-174949600D01*
X88856743Y-175021029D01*
X88928171Y-174949600D01*
X88856743Y-174878171D01*
X88856743Y-175021029D01*
X90213886Y-175378171D02*
X90213886Y-176592457D01*
X90142457Y-176735314D01*
X90071029Y-176806743D01*
X89928172Y-176878171D01*
X89713886Y-176878171D01*
X89571029Y-176806743D01*
X90213886Y-176306743D02*
X90071029Y-176378171D01*
X89785315Y-176378171D01*
X89642457Y-176306743D01*
X89571029Y-176235314D01*
X89499600Y-176092457D01*
X89499600Y-175663886D01*
X89571029Y-175521029D01*
X89642457Y-175449600D01*
X89785315Y-175378171D01*
X90071029Y-175378171D01*
X90213886Y-175449600D01*
X90928172Y-176378171D02*
X90928172Y-174878171D01*
X91571029Y-176378171D02*
X91571029Y-175592457D01*
X91499600Y-175449600D01*
X91356743Y-175378171D01*
X91142458Y-175378171D01*
X90999600Y-175449600D01*
X90928172Y-175521029D01*
X93428172Y-176378171D02*
X93428172Y-174878171D01*
X93999600Y-174878171D01*
X94142458Y-174949600D01*
X94213886Y-175021029D01*
X94285315Y-175163886D01*
X94285315Y-175378171D01*
X94213886Y-175521029D01*
X94142458Y-175592457D01*
X93999600Y-175663886D01*
X93428172Y-175663886D01*
X95142458Y-176378171D02*
X94999600Y-176306743D01*
X94928172Y-176235314D01*
X94856743Y-176092457D01*
X94856743Y-175663886D01*
X94928172Y-175521029D01*
X94999600Y-175449600D01*
X95142458Y-175378171D01*
X95356743Y-175378171D01*
X95499600Y-175449600D01*
X95571029Y-175521029D01*
X95642458Y-175663886D01*
X95642458Y-176092457D01*
X95571029Y-176235314D01*
X95499600Y-176306743D01*
X95356743Y-176378171D01*
X95142458Y-176378171D01*
X96142458Y-175378171D02*
X96428172Y-176378171D01*
X96713886Y-175663886D01*
X96999601Y-176378171D01*
X97285315Y-175378171D01*
X98428172Y-176306743D02*
X98285315Y-176378171D01*
X97999601Y-176378171D01*
X97856744Y-176306743D01*
X97785315Y-176163886D01*
X97785315Y-175592457D01*
X97856744Y-175449600D01*
X97999601Y-175378171D01*
X98285315Y-175378171D01*
X98428172Y-175449600D01*
X98499601Y-175592457D01*
X98499601Y-175735314D01*
X97785315Y-175878171D01*
X99142458Y-176378171D02*
X99142458Y-175378171D01*
X99142458Y-175663886D02*
X99213886Y-175521029D01*
X99285315Y-175449600D01*
X99428172Y-175378171D01*
X99571029Y-175378171D01*
X101142457Y-176306743D02*
X101356743Y-176378171D01*
X101713886Y-176378171D01*
X101856743Y-176306743D01*
X101928172Y-176235314D01*
X101999600Y-176092457D01*
X101999600Y-175949600D01*
X101928172Y-175806743D01*
X101856743Y-175735314D01*
X101713886Y-175663886D01*
X101428172Y-175592457D01*
X101285314Y-175521029D01*
X101213886Y-175449600D01*
X101142457Y-175306743D01*
X101142457Y-175163886D01*
X101213886Y-175021029D01*
X101285314Y-174949600D01*
X101428172Y-174878171D01*
X101785314Y-174878171D01*
X101999600Y-174949600D01*
X102499600Y-174878171D02*
X102856743Y-176378171D01*
X103142457Y-175306743D01*
X103428171Y-176378171D01*
X103785314Y-174878171D01*
X104356743Y-176235314D02*
X104428171Y-176306743D01*
X104356743Y-176378171D01*
X104285314Y-176306743D01*
X104356743Y-176235314D01*
X104356743Y-176378171D01*
X105071029Y-176378171D02*
X105071029Y-174878171D01*
X105213886Y-175806743D02*
X105642457Y-176378171D01*
X105642457Y-175378171D02*
X105071029Y-175949600D01*
X106285315Y-176378171D02*
X106285315Y-175378171D01*
X106285315Y-174878171D02*
X106213886Y-174949600D01*
X106285315Y-175021029D01*
X106356743Y-174949600D01*
X106285315Y-174878171D01*
X106285315Y-175021029D01*
X107642458Y-176306743D02*
X107499601Y-176378171D01*
X107213887Y-176378171D01*
X107071029Y-176306743D01*
X106999601Y-176235314D01*
X106928172Y-176092457D01*
X106928172Y-175663886D01*
X106999601Y-175521029D01*
X107071029Y-175449600D01*
X107213887Y-175378171D01*
X107499601Y-175378171D01*
X107642458Y-175449600D01*
X108928172Y-176378171D02*
X108928172Y-175592457D01*
X108856743Y-175449600D01*
X108713886Y-175378171D01*
X108428172Y-175378171D01*
X108285315Y-175449600D01*
X108928172Y-176306743D02*
X108785315Y-176378171D01*
X108428172Y-176378171D01*
X108285315Y-176306743D01*
X108213886Y-176163886D01*
X108213886Y-176021029D01*
X108285315Y-175878171D01*
X108428172Y-175806743D01*
X108785315Y-175806743D01*
X108928172Y-175735314D01*
X110285315Y-176378171D02*
X110285315Y-174878171D01*
X110285315Y-176306743D02*
X110142458Y-176378171D01*
X109856744Y-176378171D01*
X109713886Y-176306743D01*
X109642458Y-176235314D01*
X109571029Y-176092457D01*
X109571029Y-175663886D01*
X109642458Y-175521029D01*
X109713886Y-175449600D01*
X109856744Y-175378171D01*
X110142458Y-175378171D01*
X110285315Y-175449600D01*
X110642458Y-176521029D02*
X111785315Y-176521029D01*
X112142458Y-175378171D02*
X112142458Y-176878171D01*
X112142458Y-175449600D02*
X112285315Y-175378171D01*
X112571029Y-175378171D01*
X112713886Y-175449600D01*
X112785315Y-175521029D01*
X112856744Y-175663886D01*
X112856744Y-176092457D01*
X112785315Y-176235314D01*
X112713886Y-176306743D01*
X112571029Y-176378171D01*
X112285315Y-176378171D01*
X112142458Y-176306743D01*
X114142458Y-176306743D02*
X113999601Y-176378171D01*
X113713887Y-176378171D01*
X113571029Y-176306743D01*
X113499601Y-176235314D01*
X113428172Y-176092457D01*
X113428172Y-175663886D01*
X113499601Y-175521029D01*
X113571029Y-175449600D01*
X113713887Y-175378171D01*
X113999601Y-175378171D01*
X114142458Y-175449600D01*
X114785315Y-176378171D02*
X114785315Y-174878171D01*
X114785315Y-175449600D02*
X114928172Y-175378171D01*
X115213886Y-175378171D01*
X115356743Y-175449600D01*
X115428172Y-175521029D01*
X115499601Y-175663886D01*
X115499601Y-176092457D01*
X115428172Y-176235314D01*
X115356743Y-176306743D01*
X115213886Y-176378171D01*
X114928172Y-176378171D01*
X114785315Y-176306743D01*
D10*
D11*
X79999600Y-171499600D02*
X187999600Y-171499600D01*
D10*
D11*
X81285314Y-173606743D02*
X81499600Y-173678171D01*
X81856743Y-173678171D01*
X81999600Y-173606743D01*
X82071029Y-173535314D01*
X82142457Y-173392457D01*
X82142457Y-173249600D01*
X82071029Y-173106743D01*
X81999600Y-173035314D01*
X81856743Y-172963886D01*
X81571029Y-172892457D01*
X81428171Y-172821029D01*
X81356743Y-172749600D01*
X81285314Y-172606743D01*
X81285314Y-172463886D01*
X81356743Y-172321029D01*
X81428171Y-172249600D01*
X81571029Y-172178171D01*
X81928171Y-172178171D01*
X82142457Y-172249600D01*
X82785314Y-173678171D02*
X82785314Y-172178171D01*
X83428171Y-173678171D02*
X83428171Y-172892457D01*
X83356742Y-172749600D01*
X83213885Y-172678171D01*
X82999600Y-172678171D01*
X82856742Y-172749600D01*
X82785314Y-172821029D01*
X84713885Y-173606743D02*
X84571028Y-173678171D01*
X84285314Y-173678171D01*
X84142457Y-173606743D01*
X84071028Y-173463886D01*
X84071028Y-172892457D01*
X84142457Y-172749600D01*
X84285314Y-172678171D01*
X84571028Y-172678171D01*
X84713885Y-172749600D01*
X84785314Y-172892457D01*
X84785314Y-173035314D01*
X84071028Y-173178171D01*
X85999599Y-173606743D02*
X85856742Y-173678171D01*
X85571028Y-173678171D01*
X85428171Y-173606743D01*
X85356742Y-173463886D01*
X85356742Y-172892457D01*
X85428171Y-172749600D01*
X85571028Y-172678171D01*
X85856742Y-172678171D01*
X85999599Y-172749600D01*
X86071028Y-172892457D01*
X86071028Y-173035314D01*
X85356742Y-173178171D01*
X86499599Y-172678171D02*
X87071028Y-172678171D01*
X86713885Y-172178171D02*
X86713885Y-173463886D01*
X86785313Y-173606743D01*
X86928171Y-173678171D01*
X87071028Y-173678171D01*
X87571028Y-173535314D02*
X87642456Y-173606743D01*
X87571028Y-173678171D01*
X87499599Y-173606743D01*
X87571028Y-173535314D01*
X87571028Y-173678171D01*
X87571028Y-172749600D02*
X87642456Y-172821029D01*
X87571028Y-172892457D01*
X87499599Y-172821029D01*
X87571028Y-172749600D01*
X87571028Y-172892457D01*
D10*
D11*
X99999600Y-181499600D02*
X99999600Y-184499600D01*
D10*
D11*
X163999600Y-181499600D02*
X163999600Y-187999600D01*
D12*
X127271429Y-111114287D02*
X127271429Y-112042858D01*
X126700000Y-111542858D01*
X126700000Y-111757144D01*
X126628571Y-111900001D01*
X126557143Y-111971430D01*
X126414286Y-112042858D01*
X126057143Y-112042858D01*
X125914286Y-111971430D01*
X125842857Y-111900001D01*
X125771429Y-111757144D01*
X125771429Y-111328572D01*
X125842857Y-111185715D01*
X125914286Y-111114287D01*
X127271429Y-113400001D02*
X127271429Y-112685715D01*
X126557143Y-112614286D01*
X126628571Y-112685715D01*
X126700000Y-112828572D01*
X126700000Y-113185715D01*
X126628571Y-113328572D01*
X126557143Y-113400001D01*
X126414286Y-113471429D01*
X126057143Y-113471429D01*
X125914286Y-113400001D01*
X125842857Y-113328572D01*
X125771429Y-113185715D01*
X125771429Y-112828572D01*
X125842857Y-112685715D01*
X125914286Y-112614286D01*
X125914286Y-114114286D02*
X125842857Y-114185714D01*
X125771429Y-114114286D01*
X125842857Y-114042857D01*
X125914286Y-114114286D01*
X125771429Y-114114286D01*
X127271429Y-115114286D02*
X127271429Y-115257143D01*
X127200000Y-115400000D01*
X127128571Y-115471429D01*
X126985714Y-115542858D01*
X126700000Y-115614286D01*
X126342857Y-115614286D01*
X126057143Y-115542858D01*
X125914286Y-115471429D01*
X125842857Y-115400000D01*
X125771429Y-115257143D01*
X125771429Y-115114286D01*
X125842857Y-114971429D01*
X125914286Y-114900000D01*
X126057143Y-114828572D01*
X126342857Y-114757143D01*
X126700000Y-114757143D01*
X126985714Y-114828572D01*
X127128571Y-114900000D01*
X127200000Y-114971429D01*
X127271429Y-115114286D01*
X127271429Y-116542857D02*
X127271429Y-116685714D01*
X127200000Y-116828571D01*
X127128571Y-116900000D01*
X126985714Y-116971429D01*
X126700000Y-117042857D01*
X126342857Y-117042857D01*
X126057143Y-116971429D01*
X125914286Y-116900000D01*
X125842857Y-116828571D01*
X125771429Y-116685714D01*
X125771429Y-116542857D01*
X125842857Y-116400000D01*
X125914286Y-116328571D01*
X126057143Y-116257143D01*
X126342857Y-116185714D01*
X126700000Y-116185714D01*
X126985714Y-116257143D01*
X127128571Y-116328571D01*
X127200000Y-116400000D01*
X127271429Y-116542857D01*
X127271429Y-117971428D02*
X127271429Y-118114285D01*
X127200000Y-118257142D01*
X127128571Y-118328571D01*
X126985714Y-118400000D01*
X126700000Y-118471428D01*
X126342857Y-118471428D01*
X126057143Y-118400000D01*
X125914286Y-118328571D01*
X125842857Y-118257142D01*
X125771429Y-118114285D01*
X125771429Y-117971428D01*
X125842857Y-117828571D01*
X125914286Y-117757142D01*
X126057143Y-117685714D01*
X126342857Y-117614285D01*
X126700000Y-117614285D01*
X126985714Y-117685714D01*
X127128571Y-117757142D01*
X127200000Y-117828571D01*
X127271429Y-117971428D01*
X125771429Y-120257142D02*
X126771429Y-120257142D01*
X126628571Y-120257142D02*
X126700000Y-120328570D01*
X126771429Y-120471428D01*
X126771429Y-120685713D01*
X126700000Y-120828570D01*
X126557143Y-120899999D01*
X125771429Y-120899999D01*
X126557143Y-120899999D02*
X126700000Y-120971428D01*
X126771429Y-121114285D01*
X126771429Y-121328570D01*
X126700000Y-121471428D01*
X126557143Y-121542856D01*
X125771429Y-121542856D01*
X125771429Y-122257142D02*
X126771429Y-122257142D01*
X126628571Y-122257142D02*
X126700000Y-122328570D01*
X126771429Y-122471428D01*
X126771429Y-122685713D01*
X126700000Y-122828570D01*
X126557143Y-122899999D01*
X125771429Y-122899999D01*
X126557143Y-122899999D02*
X126700000Y-122971428D01*
X126771429Y-123114285D01*
X126771429Y-123328570D01*
X126700000Y-123471428D01*
X126557143Y-123542856D01*
X125771429Y-123542856D01*
X125100000Y-99900000D02*
X125100000Y-134900000D01*
X115100000Y-99900000D02*
X127800000Y-99900000D01*
X115100000Y-134900000D02*
X127800000Y-134900000D01*
X125100000Y-134900000D02*
X124513579Y-133773496D01*
X125100000Y-134900000D02*
X125686421Y-133773496D01*
X125100000Y-99900000D02*
X124513579Y-101026504D01*
X125100000Y-99900000D02*
X125686421Y-101026504D01*
X85600001Y-88228571D02*
X85600001Y-89228571D01*
X85242858Y-87657143D02*
X84885715Y-88728571D01*
X85814287Y-88728571D01*
X86600001Y-88371429D02*
X86457143Y-88300000D01*
X86385715Y-88228571D01*
X86314286Y-88085714D01*
X86314286Y-88014286D01*
X86385715Y-87871429D01*
X86457143Y-87800000D01*
X86600001Y-87728571D01*
X86885715Y-87728571D01*
X87028572Y-87800000D01*
X87100001Y-87871429D01*
X87171429Y-88014286D01*
X87171429Y-88085714D01*
X87100001Y-88228571D01*
X87028572Y-88300000D01*
X86885715Y-88371429D01*
X86600001Y-88371429D01*
X86457143Y-88442857D01*
X86385715Y-88514286D01*
X86314286Y-88657143D01*
X86314286Y-88942857D01*
X86385715Y-89085714D01*
X86457143Y-89157143D01*
X86600001Y-89228571D01*
X86885715Y-89228571D01*
X87028572Y-89157143D01*
X87100001Y-89085714D01*
X87171429Y-88942857D01*
X87171429Y-88657143D01*
X87100001Y-88514286D01*
X87028572Y-88442857D01*
X86885715Y-88371429D01*
X87814286Y-89085714D02*
X87885714Y-89157143D01*
X87814286Y-89228571D01*
X87742857Y-89157143D01*
X87814286Y-89085714D01*
X87814286Y-89228571D01*
X88814286Y-87728571D02*
X88957143Y-87728571D01*
X89100000Y-87800000D01*
X89171429Y-87871429D01*
X89242858Y-88014286D01*
X89314286Y-88300000D01*
X89314286Y-88657143D01*
X89242858Y-88942857D01*
X89171429Y-89085714D01*
X89100000Y-89157143D01*
X88957143Y-89228571D01*
X88814286Y-89228571D01*
X88671429Y-89157143D01*
X88600000Y-89085714D01*
X88528572Y-88942857D01*
X88457143Y-88657143D01*
X88457143Y-88300000D01*
X88528572Y-88014286D01*
X88600000Y-87871429D01*
X88671429Y-87800000D01*
X88814286Y-87728571D01*
X90242857Y-87728571D02*
X90385714Y-87728571D01*
X90528571Y-87800000D01*
X90600000Y-87871429D01*
X90671429Y-88014286D01*
X90742857Y-88300000D01*
X90742857Y-88657143D01*
X90671429Y-88942857D01*
X90600000Y-89085714D01*
X90528571Y-89157143D01*
X90385714Y-89228571D01*
X90242857Y-89228571D01*
X90100000Y-89157143D01*
X90028571Y-89085714D01*
X89957143Y-88942857D01*
X89885714Y-88657143D01*
X89885714Y-88300000D01*
X89957143Y-88014286D01*
X90028571Y-87871429D01*
X90100000Y-87800000D01*
X90242857Y-87728571D01*
X91671428Y-87728571D02*
X91814285Y-87728571D01*
X91957142Y-87800000D01*
X92028571Y-87871429D01*
X92100000Y-88014286D01*
X92171428Y-88300000D01*
X92171428Y-88657143D01*
X92100000Y-88942857D01*
X92028571Y-89085714D01*
X91957142Y-89157143D01*
X91814285Y-89228571D01*
X91671428Y-89228571D01*
X91528571Y-89157143D01*
X91457142Y-89085714D01*
X91385714Y-88942857D01*
X91314285Y-88657143D01*
X91314285Y-88300000D01*
X91385714Y-88014286D01*
X91457142Y-87871429D01*
X91528571Y-87800000D01*
X91671428Y-87728571D01*
X93957142Y-89228571D02*
X93957142Y-88228571D01*
X93957142Y-88371429D02*
X94028570Y-88300000D01*
X94171428Y-88228571D01*
X94385713Y-88228571D01*
X94528570Y-88300000D01*
X94599999Y-88442857D01*
X94599999Y-89228571D01*
X94599999Y-88442857D02*
X94671428Y-88300000D01*
X94814285Y-88228571D01*
X95028570Y-88228571D01*
X95171428Y-88300000D01*
X95242856Y-88442857D01*
X95242856Y-89228571D01*
X95957142Y-89228571D02*
X95957142Y-88228571D01*
X95957142Y-88371429D02*
X96028570Y-88300000D01*
X96171428Y-88228571D01*
X96385713Y-88228571D01*
X96528570Y-88300000D01*
X96599999Y-88442857D01*
X96599999Y-89228571D01*
X96599999Y-88442857D02*
X96671428Y-88300000D01*
X96814285Y-88228571D01*
X97028570Y-88228571D01*
X97171428Y-88300000D01*
X97242856Y-88442857D01*
X97242856Y-89228571D01*
X67100000Y-89900000D02*
X115100000Y-89900000D01*
X67100000Y-99900000D02*
X67100000Y-87200000D01*
X115100000Y-99900000D02*
X115100000Y-87200000D01*
X115100000Y-89900000D02*
X113973496Y-90486421D01*
X115100000Y-89900000D02*
X113973496Y-89313579D01*
X67100000Y-89900000D02*
X68226504Y-90486421D01*
X67100000Y-89900000D02*
X68226504Y-89313579D01*
X117921429Y-104328573D02*
X117921429Y-105257144D01*
X117350000Y-104757144D01*
X117350000Y-104971430D01*
X117278571Y-105114287D01*
X117207143Y-105185716D01*
X117064286Y-105257144D01*
X116707143Y-105257144D01*
X116564286Y-105185716D01*
X116492857Y-105114287D01*
X116421429Y-104971430D01*
X116421429Y-104542858D01*
X116492857Y-104400001D01*
X116564286Y-104328573D01*
X116564286Y-105900001D02*
X116492857Y-105971429D01*
X116421429Y-105900001D01*
X116492857Y-105828572D01*
X116564286Y-105900001D01*
X116421429Y-105900001D01*
X117921429Y-106900001D02*
X117921429Y-107042858D01*
X117850000Y-107185715D01*
X117778571Y-107257144D01*
X117635714Y-107328573D01*
X117350000Y-107400001D01*
X116992857Y-107400001D01*
X116707143Y-107328573D01*
X116564286Y-107257144D01*
X116492857Y-107185715D01*
X116421429Y-107042858D01*
X116421429Y-106900001D01*
X116492857Y-106757144D01*
X116564286Y-106685715D01*
X116707143Y-106614287D01*
X116992857Y-106542858D01*
X117350000Y-106542858D01*
X117635714Y-106614287D01*
X117778571Y-106685715D01*
X117850000Y-106757144D01*
X117921429Y-106900001D01*
X117921429Y-108328572D02*
X117921429Y-108471429D01*
X117850000Y-108614286D01*
X117778571Y-108685715D01*
X117635714Y-108757144D01*
X117350000Y-108828572D01*
X116992857Y-108828572D01*
X116707143Y-108757144D01*
X116564286Y-108685715D01*
X116492857Y-108614286D01*
X116421429Y-108471429D01*
X116421429Y-108328572D01*
X116492857Y-108185715D01*
X116564286Y-108114286D01*
X116707143Y-108042858D01*
X116992857Y-107971429D01*
X117350000Y-107971429D01*
X117635714Y-108042858D01*
X117778571Y-108114286D01*
X117850000Y-108185715D01*
X117921429Y-108328572D01*
X117921429Y-109757143D02*
X117921429Y-109900000D01*
X117850000Y-110042857D01*
X117778571Y-110114286D01*
X117635714Y-110185715D01*
X117350000Y-110257143D01*
X116992857Y-110257143D01*
X116707143Y-110185715D01*
X116564286Y-110114286D01*
X116492857Y-110042857D01*
X116421429Y-109900000D01*
X116421429Y-109757143D01*
X116492857Y-109614286D01*
X116564286Y-109542857D01*
X116707143Y-109471429D01*
X116992857Y-109400000D01*
X117350000Y-109400000D01*
X117635714Y-109471429D01*
X117778571Y-109542857D01*
X117850000Y-109614286D01*
X117921429Y-109757143D01*
X116421429Y-112042857D02*
X117421429Y-112042857D01*
X117278571Y-112042857D02*
X117350000Y-112114285D01*
X117421429Y-112257143D01*
X117421429Y-112471428D01*
X117350000Y-112614285D01*
X117207143Y-112685714D01*
X116421429Y-112685714D01*
X117207143Y-112685714D02*
X117350000Y-112757143D01*
X117421429Y-112900000D01*
X117421429Y-113114285D01*
X117350000Y-113257143D01*
X117207143Y-113328571D01*
X116421429Y-113328571D01*
X116421429Y-114042857D02*
X117421429Y-114042857D01*
X117278571Y-114042857D02*
X117350000Y-114114285D01*
X117421429Y-114257143D01*
X117421429Y-114471428D01*
X117350000Y-114614285D01*
X117207143Y-114685714D01*
X116421429Y-114685714D01*
X117207143Y-114685714D02*
X117350000Y-114757143D01*
X117421429Y-114900000D01*
X117421429Y-115114285D01*
X117350000Y-115257143D01*
X117207143Y-115328571D01*
X116421429Y-115328571D01*
X117100000Y-99900000D02*
X117100000Y-102900000D01*
X115100000Y-99900000D02*
X119800000Y-99900000D01*
X115100000Y-102900000D02*
X119800000Y-102900000D01*
X117100000Y-102900000D02*
X116513579Y-101773496D01*
X117100000Y-102900000D02*
X117686421Y-101773496D01*
X117100000Y-99900000D02*
X116513579Y-101026504D01*
X117100000Y-99900000D02*
X117686421Y-101026504D01*
X100528573Y-96078571D02*
X101457144Y-96078571D01*
X100957144Y-96650000D01*
X101171430Y-96650000D01*
X101314287Y-96721429D01*
X101385716Y-96792857D01*
X101457144Y-96935714D01*
X101457144Y-97292857D01*
X101385716Y-97435714D01*
X101314287Y-97507143D01*
X101171430Y-97578571D01*
X100742858Y-97578571D01*
X100600001Y-97507143D01*
X100528573Y-97435714D01*
X102100001Y-97435714D02*
X102171429Y-97507143D01*
X102100001Y-97578571D01*
X102028572Y-97507143D01*
X102100001Y-97435714D01*
X102100001Y-97578571D01*
X103100001Y-96078571D02*
X103242858Y-96078571D01*
X103385715Y-96150000D01*
X103457144Y-96221429D01*
X103528573Y-96364286D01*
X103600001Y-96650000D01*
X103600001Y-97007143D01*
X103528573Y-97292857D01*
X103457144Y-97435714D01*
X103385715Y-97507143D01*
X103242858Y-97578571D01*
X103100001Y-97578571D01*
X102957144Y-97507143D01*
X102885715Y-97435714D01*
X102814287Y-97292857D01*
X102742858Y-97007143D01*
X102742858Y-96650000D01*
X102814287Y-96364286D01*
X102885715Y-96221429D01*
X102957144Y-96150000D01*
X103100001Y-96078571D01*
X104528572Y-96078571D02*
X104671429Y-96078571D01*
X104814286Y-96150000D01*
X104885715Y-96221429D01*
X104957144Y-96364286D01*
X105028572Y-96650000D01*
X105028572Y-97007143D01*
X104957144Y-97292857D01*
X104885715Y-97435714D01*
X104814286Y-97507143D01*
X104671429Y-97578571D01*
X104528572Y-97578571D01*
X104385715Y-97507143D01*
X104314286Y-97435714D01*
X104242858Y-97292857D01*
X104171429Y-97007143D01*
X104171429Y-96650000D01*
X104242858Y-96364286D01*
X104314286Y-96221429D01*
X104385715Y-96150000D01*
X104528572Y-96078571D01*
X105957143Y-96078571D02*
X106100000Y-96078571D01*
X106242857Y-96150000D01*
X106314286Y-96221429D01*
X106385715Y-96364286D01*
X106457143Y-96650000D01*
X106457143Y-97007143D01*
X106385715Y-97292857D01*
X106314286Y-97435714D01*
X106242857Y-97507143D01*
X106100000Y-97578571D01*
X105957143Y-97578571D01*
X105814286Y-97507143D01*
X105742857Y-97435714D01*
X105671429Y-97292857D01*
X105600000Y-97007143D01*
X105600000Y-96650000D01*
X105671429Y-96364286D01*
X105742857Y-96221429D01*
X105814286Y-96150000D01*
X105957143Y-96078571D01*
X108242857Y-97578571D02*
X108242857Y-96578571D01*
X108242857Y-96721429D02*
X108314285Y-96650000D01*
X108457143Y-96578571D01*
X108671428Y-96578571D01*
X108814285Y-96650000D01*
X108885714Y-96792857D01*
X108885714Y-97578571D01*
X108885714Y-96792857D02*
X108957143Y-96650000D01*
X109100000Y-96578571D01*
X109314285Y-96578571D01*
X109457143Y-96650000D01*
X109528571Y-96792857D01*
X109528571Y-97578571D01*
X110242857Y-97578571D02*
X110242857Y-96578571D01*
X110242857Y-96721429D02*
X110314285Y-96650000D01*
X110457143Y-96578571D01*
X110671428Y-96578571D01*
X110814285Y-96650000D01*
X110885714Y-96792857D01*
X110885714Y-97578571D01*
X110885714Y-96792857D02*
X110957143Y-96650000D01*
X111100000Y-96578571D01*
X111314285Y-96578571D01*
X111457143Y-96650000D01*
X111528571Y-96792857D01*
X111528571Y-97578571D01*
X115100000Y-96900000D02*
X112100000Y-96900000D01*
X115100000Y-99900000D02*
X115100000Y-94200000D01*
X112100000Y-99900000D02*
X112100000Y-94200000D01*
X112100000Y-96900000D02*
X113226504Y-96313579D01*
X112100000Y-96900000D02*
X113226504Y-97486421D01*
X115100000Y-96900000D02*
X113973496Y-96313579D01*
X115100000Y-96900000D02*
X113973496Y-97486421D01*
X65521429Y-104228573D02*
X65521429Y-105157144D01*
X64950000Y-104657144D01*
X64950000Y-104871430D01*
X64878571Y-105014287D01*
X64807143Y-105085716D01*
X64664286Y-105157144D01*
X64307143Y-105157144D01*
X64164286Y-105085716D01*
X64092857Y-105014287D01*
X64021429Y-104871430D01*
X64021429Y-104442858D01*
X64092857Y-104300001D01*
X64164286Y-104228573D01*
X64164286Y-105800001D02*
X64092857Y-105871429D01*
X64021429Y-105800001D01*
X64092857Y-105728572D01*
X64164286Y-105800001D01*
X64021429Y-105800001D01*
X65521429Y-106800001D02*
X65521429Y-106942858D01*
X65450000Y-107085715D01*
X65378571Y-107157144D01*
X65235714Y-107228573D01*
X64950000Y-107300001D01*
X64592857Y-107300001D01*
X64307143Y-107228573D01*
X64164286Y-107157144D01*
X64092857Y-107085715D01*
X64021429Y-106942858D01*
X64021429Y-106800001D01*
X64092857Y-106657144D01*
X64164286Y-106585715D01*
X64307143Y-106514287D01*
X64592857Y-106442858D01*
X64950000Y-106442858D01*
X65235714Y-106514287D01*
X65378571Y-106585715D01*
X65450000Y-106657144D01*
X65521429Y-106800001D01*
X65521429Y-108228572D02*
X65521429Y-108371429D01*
X65450000Y-108514286D01*
X65378571Y-108585715D01*
X65235714Y-108657144D01*
X64950000Y-108728572D01*
X64592857Y-108728572D01*
X64307143Y-108657144D01*
X64164286Y-108585715D01*
X64092857Y-108514286D01*
X64021429Y-108371429D01*
X64021429Y-108228572D01*
X64092857Y-108085715D01*
X64164286Y-108014286D01*
X64307143Y-107942858D01*
X64592857Y-107871429D01*
X64950000Y-107871429D01*
X65235714Y-107942858D01*
X65378571Y-108014286D01*
X65450000Y-108085715D01*
X65521429Y-108228572D01*
X65521429Y-109657143D02*
X65521429Y-109800000D01*
X65450000Y-109942857D01*
X65378571Y-110014286D01*
X65235714Y-110085715D01*
X64950000Y-110157143D01*
X64592857Y-110157143D01*
X64307143Y-110085715D01*
X64164286Y-110014286D01*
X64092857Y-109942857D01*
X64021429Y-109800000D01*
X64021429Y-109657143D01*
X64092857Y-109514286D01*
X64164286Y-109442857D01*
X64307143Y-109371429D01*
X64592857Y-109300000D01*
X64950000Y-109300000D01*
X65235714Y-109371429D01*
X65378571Y-109442857D01*
X65450000Y-109514286D01*
X65521429Y-109657143D01*
X64021429Y-111942857D02*
X65021429Y-111942857D01*
X64878571Y-111942857D02*
X64950000Y-112014285D01*
X65021429Y-112157143D01*
X65021429Y-112371428D01*
X64950000Y-112514285D01*
X64807143Y-112585714D01*
X64021429Y-112585714D01*
X64807143Y-112585714D02*
X64950000Y-112657143D01*
X65021429Y-112800000D01*
X65021429Y-113014285D01*
X64950000Y-113157143D01*
X64807143Y-113228571D01*
X64021429Y-113228571D01*
X64021429Y-113942857D02*
X65021429Y-113942857D01*
X64878571Y-113942857D02*
X64950000Y-114014285D01*
X65021429Y-114157143D01*
X65021429Y-114371428D01*
X64950000Y-114514285D01*
X64807143Y-114585714D01*
X64021429Y-114585714D01*
X64807143Y-114585714D02*
X64950000Y-114657143D01*
X65021429Y-114800000D01*
X65021429Y-115014285D01*
X64950000Y-115157143D01*
X64807143Y-115228571D01*
X64021429Y-115228571D01*
X64700001Y-99900000D02*
X64700001Y-102900000D01*
X67100000Y-99900000D02*
X62000001Y-99900000D01*
X67100000Y-102900000D02*
X62000001Y-102900000D01*
X64700001Y-102900000D02*
X64113580Y-101773496D01*
X64700001Y-102900000D02*
X65286422Y-101773496D01*
X64700001Y-99900000D02*
X64113580Y-101026504D01*
X64700001Y-99900000D02*
X65286422Y-101026504D01*
X70928573Y-95778571D02*
X71857144Y-95778571D01*
X71357144Y-96350000D01*
X71571430Y-96350000D01*
X71714287Y-96421429D01*
X71785716Y-96492857D01*
X71857144Y-96635714D01*
X71857144Y-96992857D01*
X71785716Y-97135714D01*
X71714287Y-97207143D01*
X71571430Y-97278571D01*
X71142858Y-97278571D01*
X71000001Y-97207143D01*
X70928573Y-97135714D01*
X72500001Y-97135714D02*
X72571429Y-97207143D01*
X72500001Y-97278571D01*
X72428572Y-97207143D01*
X72500001Y-97135714D01*
X72500001Y-97278571D01*
X73500001Y-95778571D02*
X73642858Y-95778571D01*
X73785715Y-95850000D01*
X73857144Y-95921429D01*
X73928573Y-96064286D01*
X74000001Y-96350000D01*
X74000001Y-96707143D01*
X73928573Y-96992857D01*
X73857144Y-97135714D01*
X73785715Y-97207143D01*
X73642858Y-97278571D01*
X73500001Y-97278571D01*
X73357144Y-97207143D01*
X73285715Y-97135714D01*
X73214287Y-96992857D01*
X73142858Y-96707143D01*
X73142858Y-96350000D01*
X73214287Y-96064286D01*
X73285715Y-95921429D01*
X73357144Y-95850000D01*
X73500001Y-95778571D01*
X74928572Y-95778571D02*
X75071429Y-95778571D01*
X75214286Y-95850000D01*
X75285715Y-95921429D01*
X75357144Y-96064286D01*
X75428572Y-96350000D01*
X75428572Y-96707143D01*
X75357144Y-96992857D01*
X75285715Y-97135714D01*
X75214286Y-97207143D01*
X75071429Y-97278571D01*
X74928572Y-97278571D01*
X74785715Y-97207143D01*
X74714286Y-97135714D01*
X74642858Y-96992857D01*
X74571429Y-96707143D01*
X74571429Y-96350000D01*
X74642858Y-96064286D01*
X74714286Y-95921429D01*
X74785715Y-95850000D01*
X74928572Y-95778571D01*
X76357143Y-95778571D02*
X76500000Y-95778571D01*
X76642857Y-95850000D01*
X76714286Y-95921429D01*
X76785715Y-96064286D01*
X76857143Y-96350000D01*
X76857143Y-96707143D01*
X76785715Y-96992857D01*
X76714286Y-97135714D01*
X76642857Y-97207143D01*
X76500000Y-97278571D01*
X76357143Y-97278571D01*
X76214286Y-97207143D01*
X76142857Y-97135714D01*
X76071429Y-96992857D01*
X76000000Y-96707143D01*
X76000000Y-96350000D01*
X76071429Y-96064286D01*
X76142857Y-95921429D01*
X76214286Y-95850000D01*
X76357143Y-95778571D01*
X78642857Y-97278571D02*
X78642857Y-96278571D01*
X78642857Y-96421429D02*
X78714285Y-96350000D01*
X78857143Y-96278571D01*
X79071428Y-96278571D01*
X79214285Y-96350000D01*
X79285714Y-96492857D01*
X79285714Y-97278571D01*
X79285714Y-96492857D02*
X79357143Y-96350000D01*
X79500000Y-96278571D01*
X79714285Y-96278571D01*
X79857143Y-96350000D01*
X79928571Y-96492857D01*
X79928571Y-97278571D01*
X80642857Y-97278571D02*
X80642857Y-96278571D01*
X80642857Y-96421429D02*
X80714285Y-96350000D01*
X80857143Y-96278571D01*
X81071428Y-96278571D01*
X81214285Y-96350000D01*
X81285714Y-96492857D01*
X81285714Y-97278571D01*
X81285714Y-96492857D02*
X81357143Y-96350000D01*
X81500000Y-96278571D01*
X81714285Y-96278571D01*
X81857143Y-96350000D01*
X81928571Y-96492857D01*
X81928571Y-97278571D01*
X67000000Y-96500000D02*
X70000000Y-96500000D01*
X67000000Y-99900000D02*
X67000000Y-93800000D01*
X70000000Y-99900000D02*
X70000000Y-93800000D01*
X70000000Y-96500000D02*
X68873496Y-97086421D01*
X70000000Y-96500000D02*
X68873496Y-95913579D01*
X67000000Y-96500000D02*
X68126504Y-97086421D01*
X67000000Y-96500000D02*
X68126504Y-95913579D01*
D11*
X115100000Y-134900000D02*
X67100000Y-134900000D01*
X115100000Y-133900000D02*
X115100000Y-134900000D01*
X115100000Y-99900000D02*
X115100000Y-133900000D01*
X67100000Y-99900000D02*
X115100000Y-99900000D01*
X67100000Y-134900000D02*
X67100000Y-99900000D01*
X68766666Y-134900000D02*
G75*
G03X68766666Y-134900000I-1666666J0D01*
G01*
X64600000Y-134900000D02*
X69600000Y-134900000D01*
X67100000Y-132400000D02*
X67100000Y-137400000D01*
X68766666Y-134900000D02*
G75*
G03X68766666Y-134900000I-1666666J0D01*
G01*
X64600000Y-134900000D02*
X69600000Y-134900000D01*
X67100000Y-132400000D02*
X67100000Y-137400000D01*
D10*
X61076190Y-43204762D02*
X61076190Y-41204762D01*
X61838095Y-41204762D01*
X62028571Y-41300000D01*
X62123810Y-41395238D01*
X62219048Y-41585714D01*
X62219048Y-41871429D01*
X62123810Y-42061905D01*
X62028571Y-42157143D01*
X61838095Y-42252381D01*
X61076190Y-42252381D01*
X63361905Y-43204762D02*
X63171429Y-43109524D01*
X63076190Y-43014286D01*
X62980952Y-42823810D01*
X62980952Y-42252381D01*
X63076190Y-42061905D01*
X63171429Y-41966667D01*
X63361905Y-41871429D01*
X63647619Y-41871429D01*
X63838095Y-41966667D01*
X63933333Y-42061905D01*
X64028571Y-42252381D01*
X64028571Y-42823810D01*
X63933333Y-43014286D01*
X63838095Y-43109524D01*
X63647619Y-43204762D01*
X63361905Y-43204762D01*
X64695238Y-41871429D02*
X65076191Y-43204762D01*
X65457143Y-42252381D01*
X65838095Y-43204762D01*
X66219048Y-41871429D01*
X67742857Y-43109524D02*
X67552381Y-43204762D01*
X67171429Y-43204762D01*
X66980952Y-43109524D01*
X66885714Y-42919048D01*
X66885714Y-42157143D01*
X66980952Y-41966667D01*
X67171429Y-41871429D01*
X67552381Y-41871429D01*
X67742857Y-41966667D01*
X67838095Y-42157143D01*
X67838095Y-42347619D01*
X66885714Y-42538095D01*
X68695238Y-43204762D02*
X68695238Y-41871429D01*
X68695238Y-42252381D02*
X68790477Y-42061905D01*
X68885715Y-41966667D01*
X69076191Y-41871429D01*
X69266667Y-41871429D01*
X71457143Y-42442857D02*
X72980953Y-42442857D01*
X76504763Y-43204762D02*
X75361905Y-43204762D01*
X75933334Y-43204762D02*
X75933334Y-41204762D01*
X75742858Y-41490476D01*
X75552382Y-41680952D01*
X75361905Y-41776190D01*
X78409525Y-43204762D02*
X77266667Y-43204762D01*
X77838096Y-43204762D02*
X77838096Y-41204762D01*
X77647620Y-41490476D01*
X77457144Y-41680952D01*
X77266667Y-41776190D01*
X79076191Y-41871429D02*
X79552382Y-43204762D01*
X80028572Y-41871429D01*
X82314287Y-42442857D02*
X83838097Y-42442857D01*
X86123811Y-41204762D02*
X87361907Y-41204762D01*
X86695240Y-41966667D01*
X86980954Y-41966667D01*
X87171430Y-42061905D01*
X87266668Y-42157143D01*
X87361907Y-42347619D01*
X87361907Y-42823810D01*
X87266668Y-43014286D01*
X87171430Y-43109524D01*
X86980954Y-43204762D01*
X86409526Y-43204762D01*
X86219049Y-43109524D01*
X86123811Y-43014286D01*
X88600002Y-41204762D02*
X88790478Y-41204762D01*
X88980954Y-41300000D01*
X89076192Y-41395238D01*
X89171430Y-41585714D01*
X89266669Y-41966667D01*
X89266669Y-42442857D01*
X89171430Y-42823810D01*
X89076192Y-43014286D01*
X88980954Y-43109524D01*
X88790478Y-43204762D01*
X88600002Y-43204762D01*
X88409526Y-43109524D01*
X88314288Y-43014286D01*
X88219049Y-42823810D01*
X88123811Y-42442857D01*
X88123811Y-41966667D01*
X88219049Y-41585714D01*
X88314288Y-41395238D01*
X88409526Y-41300000D01*
X88600002Y-41204762D01*
X89933335Y-41871429D02*
X90409526Y-43204762D01*
X90885716Y-41871429D01*
X61647619Y-44304762D02*
X61647619Y-45733333D01*
X61552381Y-46019048D01*
X61361905Y-46209524D01*
X61076190Y-46304762D01*
X60885714Y-46304762D01*
X62600000Y-46304762D02*
X62600000Y-44304762D01*
X63361905Y-44304762D01*
X63552381Y-44400000D01*
X63647620Y-44495238D01*
X63742858Y-44685714D01*
X63742858Y-44971429D01*
X63647620Y-45161905D01*
X63552381Y-45257143D01*
X63361905Y-45352381D01*
X62600000Y-45352381D01*
X65647620Y-46304762D02*
X64504762Y-46304762D01*
X65076191Y-46304762D02*
X65076191Y-44304762D01*
X64885715Y-44590476D01*
X64695239Y-44780952D01*
X64504762Y-44876190D01*
X68028572Y-45542857D02*
X69552382Y-45542857D01*
X72028572Y-46304762D02*
X72028572Y-44304762D01*
X72980953Y-44971429D02*
X72980953Y-46304762D01*
X72980953Y-45161905D02*
X73076192Y-45066667D01*
X73266668Y-44971429D01*
X73552382Y-44971429D01*
X73742858Y-45066667D01*
X73838096Y-45257143D01*
X73838096Y-46304762D01*
X74695239Y-46209524D02*
X74885716Y-46304762D01*
X75266668Y-46304762D01*
X75457144Y-46209524D01*
X75552382Y-46019048D01*
X75552382Y-45923810D01*
X75457144Y-45733333D01*
X75266668Y-45638095D01*
X74980954Y-45638095D01*
X74790477Y-45542857D01*
X74695239Y-45352381D01*
X74695239Y-45257143D01*
X74790477Y-45066667D01*
X74980954Y-44971429D01*
X75266668Y-44971429D01*
X75457144Y-45066667D01*
X76123811Y-44971429D02*
X76885716Y-44971429D01*
X76409525Y-44304762D02*
X76409525Y-46019048D01*
X76504764Y-46209524D01*
X76695240Y-46304762D01*
X76885716Y-46304762D01*
X78409525Y-46304762D02*
X78409525Y-45257143D01*
X78314287Y-45066667D01*
X78123811Y-44971429D01*
X77742859Y-44971429D01*
X77552382Y-45066667D01*
X78409525Y-46209524D02*
X78219049Y-46304762D01*
X77742859Y-46304762D01*
X77552382Y-46209524D01*
X77457144Y-46019048D01*
X77457144Y-45828571D01*
X77552382Y-45638095D01*
X77742859Y-45542857D01*
X78219049Y-45542857D01*
X78409525Y-45447619D01*
X79647621Y-46304762D02*
X79457145Y-46209524D01*
X79361906Y-46019048D01*
X79361906Y-44304762D01*
X80695240Y-46304762D02*
X80504764Y-46209524D01*
X80409525Y-46019048D01*
X80409525Y-44304762D01*
X82980954Y-46304762D02*
X82980954Y-44971429D01*
X82980954Y-44304762D02*
X82885716Y-44400000D01*
X82980954Y-44495238D01*
X83076193Y-44400000D01*
X82980954Y-44304762D01*
X82980954Y-44495238D01*
X83647621Y-44971429D02*
X84409526Y-44971429D01*
X83933335Y-46304762D02*
X83933335Y-44590476D01*
X84028574Y-44400000D01*
X84219050Y-44304762D01*
X84409526Y-44304762D01*
X86600002Y-46304762D02*
X86600002Y-44971429D01*
X86600002Y-44304762D02*
X86504764Y-44400000D01*
X86600002Y-44495238D01*
X86695241Y-44400000D01*
X86600002Y-44304762D01*
X86600002Y-44495238D01*
X87552383Y-44971429D02*
X87552383Y-46304762D01*
X87552383Y-45161905D02*
X87647622Y-45066667D01*
X87838098Y-44971429D01*
X88123812Y-44971429D01*
X88314288Y-45066667D01*
X88409526Y-45257143D01*
X88409526Y-46304762D01*
X89361907Y-44971429D02*
X89361907Y-46971429D01*
X89361907Y-45066667D02*
X89552384Y-44971429D01*
X89933336Y-44971429D01*
X90123812Y-45066667D01*
X90219050Y-45161905D01*
X90314288Y-45352381D01*
X90314288Y-45923810D01*
X90219050Y-46114286D01*
X90123812Y-46209524D01*
X89933336Y-46304762D01*
X89552384Y-46304762D01*
X89361907Y-46209524D01*
X92028574Y-44971429D02*
X92028574Y-46304762D01*
X91171431Y-44971429D02*
X91171431Y-46019048D01*
X91266670Y-46209524D01*
X91457146Y-46304762D01*
X91742860Y-46304762D01*
X91933336Y-46209524D01*
X92028574Y-46114286D01*
X92695241Y-44971429D02*
X93457146Y-44971429D01*
X92980955Y-44304762D02*
X92980955Y-46019048D01*
X93076194Y-46209524D01*
X93266670Y-46304762D01*
X93457146Y-46304762D01*
X95361908Y-44971429D02*
X96123813Y-44971429D01*
X95647622Y-44304762D02*
X95647622Y-46019048D01*
X95742861Y-46209524D01*
X95933337Y-46304762D01*
X96123813Y-46304762D01*
X96790479Y-46304762D02*
X96790479Y-44971429D01*
X96790479Y-45352381D02*
X96885718Y-45161905D01*
X96980956Y-45066667D01*
X97171432Y-44971429D01*
X97361908Y-44971429D01*
X98028574Y-46304762D02*
X98028574Y-44971429D01*
X98028574Y-44304762D02*
X97933336Y-44400000D01*
X98028574Y-44495238D01*
X98123813Y-44400000D01*
X98028574Y-44304762D01*
X98028574Y-44495238D01*
X99838098Y-44971429D02*
X99838098Y-46590476D01*
X99742860Y-46780952D01*
X99647622Y-46876190D01*
X99457146Y-46971429D01*
X99171432Y-46971429D01*
X98980955Y-46876190D01*
X99838098Y-46209524D02*
X99647622Y-46304762D01*
X99266670Y-46304762D01*
X99076194Y-46209524D01*
X98980955Y-46114286D01*
X98885717Y-45923810D01*
X98885717Y-45352381D01*
X98980955Y-45161905D01*
X99076194Y-45066667D01*
X99266670Y-44971429D01*
X99647622Y-44971429D01*
X99838098Y-45066667D01*
X101647622Y-44971429D02*
X101647622Y-46590476D01*
X101552384Y-46780952D01*
X101457146Y-46876190D01*
X101266670Y-46971429D01*
X100980956Y-46971429D01*
X100790479Y-46876190D01*
X101647622Y-46209524D02*
X101457146Y-46304762D01*
X101076194Y-46304762D01*
X100885718Y-46209524D01*
X100790479Y-46114286D01*
X100695241Y-45923810D01*
X100695241Y-45352381D01*
X100790479Y-45161905D01*
X100885718Y-45066667D01*
X101076194Y-44971429D01*
X101457146Y-44971429D01*
X101647622Y-45066667D01*
X103361908Y-46209524D02*
X103171432Y-46304762D01*
X102790480Y-46304762D01*
X102600003Y-46209524D01*
X102504765Y-46019048D01*
X102504765Y-45257143D01*
X102600003Y-45066667D01*
X102790480Y-44971429D01*
X103171432Y-44971429D01*
X103361908Y-45066667D01*
X103457146Y-45257143D01*
X103457146Y-45447619D01*
X102504765Y-45638095D01*
X104314289Y-46304762D02*
X104314289Y-44971429D01*
X104314289Y-45352381D02*
X104409528Y-45161905D01*
X104504766Y-45066667D01*
X104695242Y-44971429D01*
X104885718Y-44971429D01*
X107076194Y-46304762D02*
X107076194Y-44971429D01*
X107076194Y-44304762D02*
X106980956Y-44400000D01*
X107076194Y-44495238D01*
X107171433Y-44400000D01*
X107076194Y-44304762D01*
X107076194Y-44495238D01*
X107933337Y-46209524D02*
X108123814Y-46304762D01*
X108504766Y-46304762D01*
X108695242Y-46209524D01*
X108790480Y-46019048D01*
X108790480Y-45923810D01*
X108695242Y-45733333D01*
X108504766Y-45638095D01*
X108219052Y-45638095D01*
X108028575Y-45542857D01*
X107933337Y-45352381D01*
X107933337Y-45257143D01*
X108028575Y-45066667D01*
X108219052Y-44971429D01*
X108504766Y-44971429D01*
X108695242Y-45066667D01*
X111171433Y-46304762D02*
X111171433Y-44304762D01*
X111171433Y-45066667D02*
X111361910Y-44971429D01*
X111742862Y-44971429D01*
X111933338Y-45066667D01*
X112028576Y-45161905D01*
X112123814Y-45352381D01*
X112123814Y-45923810D01*
X112028576Y-46114286D01*
X111933338Y-46209524D01*
X111742862Y-46304762D01*
X111361910Y-46304762D01*
X111171433Y-46209524D01*
X113742862Y-46209524D02*
X113552386Y-46304762D01*
X113171434Y-46304762D01*
X112980957Y-46209524D01*
X112885719Y-46019048D01*
X112885719Y-45257143D01*
X112980957Y-45066667D01*
X113171434Y-44971429D01*
X113552386Y-44971429D01*
X113742862Y-45066667D01*
X113838100Y-45257143D01*
X113838100Y-45447619D01*
X112885719Y-45638095D01*
X114409529Y-44971429D02*
X115171434Y-44971429D01*
X114695243Y-44304762D02*
X114695243Y-46019048D01*
X114790482Y-46209524D01*
X114980958Y-46304762D01*
X115171434Y-46304762D01*
X115647624Y-44971429D02*
X116028577Y-46304762D01*
X116409529Y-45352381D01*
X116790481Y-46304762D01*
X117171434Y-44971429D01*
X118695243Y-46209524D02*
X118504767Y-46304762D01*
X118123815Y-46304762D01*
X117933338Y-46209524D01*
X117838100Y-46019048D01*
X117838100Y-45257143D01*
X117933338Y-45066667D01*
X118123815Y-44971429D01*
X118504767Y-44971429D01*
X118695243Y-45066667D01*
X118790481Y-45257143D01*
X118790481Y-45447619D01*
X117838100Y-45638095D01*
X120409529Y-46209524D02*
X120219053Y-46304762D01*
X119838101Y-46304762D01*
X119647624Y-46209524D01*
X119552386Y-46019048D01*
X119552386Y-45257143D01*
X119647624Y-45066667D01*
X119838101Y-44971429D01*
X120219053Y-44971429D01*
X120409529Y-45066667D01*
X120504767Y-45257143D01*
X120504767Y-45447619D01*
X119552386Y-45638095D01*
X121361910Y-44971429D02*
X121361910Y-46304762D01*
X121361910Y-45161905D02*
X121457149Y-45066667D01*
X121647625Y-44971429D01*
X121933339Y-44971429D01*
X122123815Y-45066667D01*
X122219053Y-45257143D01*
X122219053Y-46304762D01*
X124504768Y-44304762D02*
X125742864Y-44304762D01*
X125076197Y-45066667D01*
X125361911Y-45066667D01*
X125552387Y-45161905D01*
X125647625Y-45257143D01*
X125742864Y-45447619D01*
X125742864Y-45923810D01*
X125647625Y-46114286D01*
X125552387Y-46209524D01*
X125361911Y-46304762D01*
X124790483Y-46304762D01*
X124600006Y-46209524D01*
X124504768Y-46114286D01*
X126600006Y-46114286D02*
X126695245Y-46209524D01*
X126600006Y-46304762D01*
X126504768Y-46209524D01*
X126600006Y-46114286D01*
X126600006Y-46304762D01*
X127933340Y-44304762D02*
X128123816Y-44304762D01*
X128314292Y-44400000D01*
X128409530Y-44495238D01*
X128504768Y-44685714D01*
X128600007Y-45066667D01*
X128600007Y-45542857D01*
X128504768Y-45923810D01*
X128409530Y-46114286D01*
X128314292Y-46209524D01*
X128123816Y-46304762D01*
X127933340Y-46304762D01*
X127742864Y-46209524D01*
X127647626Y-46114286D01*
X127552387Y-45923810D01*
X127457149Y-45542857D01*
X127457149Y-45066667D01*
X127552387Y-44685714D01*
X127647626Y-44495238D01*
X127742864Y-44400000D01*
X127933340Y-44304762D01*
X129266673Y-44971429D02*
X129742864Y-46304762D01*
X130219054Y-44971429D01*
X132504769Y-45542857D02*
X134028579Y-45542857D01*
X137457150Y-44304762D02*
X136504769Y-44304762D01*
X136409531Y-45257143D01*
X136504769Y-45161905D01*
X136695246Y-45066667D01*
X137171436Y-45066667D01*
X137361912Y-45161905D01*
X137457150Y-45257143D01*
X137552389Y-45447619D01*
X137552389Y-45923810D01*
X137457150Y-46114286D01*
X137361912Y-46209524D01*
X137171436Y-46304762D01*
X136695246Y-46304762D01*
X136504769Y-46209524D01*
X136409531Y-46114286D01*
X138409531Y-46114286D02*
X138504770Y-46209524D01*
X138409531Y-46304762D01*
X138314293Y-46209524D01*
X138409531Y-46114286D01*
X138409531Y-46304762D01*
X140314293Y-44304762D02*
X139361912Y-44304762D01*
X139266674Y-45257143D01*
X139361912Y-45161905D01*
X139552389Y-45066667D01*
X140028579Y-45066667D01*
X140219055Y-45161905D01*
X140314293Y-45257143D01*
X140409532Y-45447619D01*
X140409532Y-45923810D01*
X140314293Y-46114286D01*
X140219055Y-46209524D01*
X140028579Y-46304762D01*
X139552389Y-46304762D01*
X139361912Y-46209524D01*
X139266674Y-46114286D01*
X141076198Y-44971429D02*
X141552389Y-46304762D01*
X142028579Y-44971429D01*
X61647619Y-47404762D02*
X61647619Y-48833333D01*
X61552381Y-49119048D01*
X61361905Y-49309524D01*
X61076190Y-49404762D01*
X60885714Y-49404762D01*
X62600000Y-49404762D02*
X62600000Y-47404762D01*
X63361905Y-47404762D01*
X63552381Y-47500000D01*
X63647620Y-47595238D01*
X63742858Y-47785714D01*
X63742858Y-48071429D01*
X63647620Y-48261905D01*
X63552381Y-48357143D01*
X63361905Y-48452381D01*
X62600000Y-48452381D01*
X65647620Y-49404762D02*
X64504762Y-49404762D01*
X65076191Y-49404762D02*
X65076191Y-47404762D01*
X64885715Y-47690476D01*
X64695239Y-47880952D01*
X64504762Y-47976190D01*
X68028572Y-48642857D02*
X69552382Y-48642857D01*
X73171430Y-49404762D02*
X72504763Y-48452381D01*
X72028572Y-49404762D02*
X72028572Y-47404762D01*
X72790477Y-47404762D01*
X72980953Y-47500000D01*
X73076192Y-47595238D01*
X73171430Y-47785714D01*
X73171430Y-48071429D01*
X73076192Y-48261905D01*
X72980953Y-48357143D01*
X72790477Y-48452381D01*
X72028572Y-48452381D01*
X74790477Y-49309524D02*
X74600001Y-49404762D01*
X74219049Y-49404762D01*
X74028572Y-49309524D01*
X73933334Y-49119048D01*
X73933334Y-48357143D01*
X74028572Y-48166667D01*
X74219049Y-48071429D01*
X74600001Y-48071429D01*
X74790477Y-48166667D01*
X74885715Y-48357143D01*
X74885715Y-48547619D01*
X73933334Y-48738095D01*
X75742858Y-49404762D02*
X75742858Y-48071429D01*
X75742858Y-48261905D02*
X75838097Y-48166667D01*
X76028573Y-48071429D01*
X76314287Y-48071429D01*
X76504763Y-48166667D01*
X76600001Y-48357143D01*
X76600001Y-49404762D01*
X76600001Y-48357143D02*
X76695239Y-48166667D01*
X76885716Y-48071429D01*
X77171430Y-48071429D01*
X77361906Y-48166667D01*
X77457144Y-48357143D01*
X77457144Y-49404762D01*
X78695240Y-49404762D02*
X78504764Y-49309524D01*
X78409525Y-49214286D01*
X78314287Y-49023810D01*
X78314287Y-48452381D01*
X78409525Y-48261905D01*
X78504764Y-48166667D01*
X78695240Y-48071429D01*
X78980954Y-48071429D01*
X79171430Y-48166667D01*
X79266668Y-48261905D01*
X79361906Y-48452381D01*
X79361906Y-49023810D01*
X79266668Y-49214286D01*
X79171430Y-49309524D01*
X78980954Y-49404762D01*
X78695240Y-49404762D01*
X80028573Y-48071429D02*
X80504764Y-49404762D01*
X80980954Y-48071429D01*
X82504764Y-49309524D02*
X82314288Y-49404762D01*
X81933336Y-49404762D01*
X81742859Y-49309524D01*
X81647621Y-49119048D01*
X81647621Y-48357143D01*
X81742859Y-48166667D01*
X81933336Y-48071429D01*
X82314288Y-48071429D01*
X82504764Y-48166667D01*
X82600002Y-48357143D01*
X82600002Y-48547619D01*
X81647621Y-48738095D01*
X84980955Y-49404762D02*
X84980955Y-48071429D01*
X84980955Y-47404762D02*
X84885717Y-47500000D01*
X84980955Y-47595238D01*
X85076194Y-47500000D01*
X84980955Y-47404762D01*
X84980955Y-47595238D01*
X85647622Y-48071429D02*
X86409527Y-48071429D01*
X85933336Y-49404762D02*
X85933336Y-47690476D01*
X86028575Y-47500000D01*
X86219051Y-47404762D01*
X86409527Y-47404762D01*
X88600003Y-49404762D02*
X88600003Y-48071429D01*
X88600003Y-47404762D02*
X88504765Y-47500000D01*
X88600003Y-47595238D01*
X88695242Y-47500000D01*
X88600003Y-47404762D01*
X88600003Y-47595238D01*
X89552384Y-48071429D02*
X89552384Y-49404762D01*
X89552384Y-48261905D02*
X89647623Y-48166667D01*
X89838099Y-48071429D01*
X90123813Y-48071429D01*
X90314289Y-48166667D01*
X90409527Y-48357143D01*
X90409527Y-49404762D01*
X91361908Y-48071429D02*
X91361908Y-50071429D01*
X91361908Y-48166667D02*
X91552385Y-48071429D01*
X91933337Y-48071429D01*
X92123813Y-48166667D01*
X92219051Y-48261905D01*
X92314289Y-48452381D01*
X92314289Y-49023810D01*
X92219051Y-49214286D01*
X92123813Y-49309524D01*
X91933337Y-49404762D01*
X91552385Y-49404762D01*
X91361908Y-49309524D01*
X94028575Y-48071429D02*
X94028575Y-49404762D01*
X93171432Y-48071429D02*
X93171432Y-49119048D01*
X93266671Y-49309524D01*
X93457147Y-49404762D01*
X93742861Y-49404762D01*
X93933337Y-49309524D01*
X94028575Y-49214286D01*
X94695242Y-48071429D02*
X95457147Y-48071429D01*
X94980956Y-47404762D02*
X94980956Y-49119048D01*
X95076195Y-49309524D01*
X95266671Y-49404762D01*
X95457147Y-49404762D01*
X97361909Y-48071429D02*
X98123814Y-48071429D01*
X97647623Y-47404762D02*
X97647623Y-49119048D01*
X97742862Y-49309524D01*
X97933338Y-49404762D01*
X98123814Y-49404762D01*
X98790480Y-49404762D02*
X98790480Y-48071429D01*
X98790480Y-48452381D02*
X98885719Y-48261905D01*
X98980957Y-48166667D01*
X99171433Y-48071429D01*
X99361909Y-48071429D01*
X100028575Y-49404762D02*
X100028575Y-48071429D01*
X100028575Y-47404762D02*
X99933337Y-47500000D01*
X100028575Y-47595238D01*
X100123814Y-47500000D01*
X100028575Y-47404762D01*
X100028575Y-47595238D01*
X101838099Y-48071429D02*
X101838099Y-49690476D01*
X101742861Y-49880952D01*
X101647623Y-49976190D01*
X101457147Y-50071429D01*
X101171433Y-50071429D01*
X100980956Y-49976190D01*
X101838099Y-49309524D02*
X101647623Y-49404762D01*
X101266671Y-49404762D01*
X101076195Y-49309524D01*
X100980956Y-49214286D01*
X100885718Y-49023810D01*
X100885718Y-48452381D01*
X100980956Y-48261905D01*
X101076195Y-48166667D01*
X101266671Y-48071429D01*
X101647623Y-48071429D01*
X101838099Y-48166667D01*
X103647623Y-48071429D02*
X103647623Y-49690476D01*
X103552385Y-49880952D01*
X103457147Y-49976190D01*
X103266671Y-50071429D01*
X102980957Y-50071429D01*
X102790480Y-49976190D01*
X103647623Y-49309524D02*
X103457147Y-49404762D01*
X103076195Y-49404762D01*
X102885719Y-49309524D01*
X102790480Y-49214286D01*
X102695242Y-49023810D01*
X102695242Y-48452381D01*
X102790480Y-48261905D01*
X102885719Y-48166667D01*
X103076195Y-48071429D01*
X103457147Y-48071429D01*
X103647623Y-48166667D01*
X105361909Y-49309524D02*
X105171433Y-49404762D01*
X104790481Y-49404762D01*
X104600004Y-49309524D01*
X104504766Y-49119048D01*
X104504766Y-48357143D01*
X104600004Y-48166667D01*
X104790481Y-48071429D01*
X105171433Y-48071429D01*
X105361909Y-48166667D01*
X105457147Y-48357143D01*
X105457147Y-48547619D01*
X104504766Y-48738095D01*
X106314290Y-49404762D02*
X106314290Y-48071429D01*
X106314290Y-48452381D02*
X106409529Y-48261905D01*
X106504767Y-48166667D01*
X106695243Y-48071429D01*
X106885719Y-48071429D01*
X109076195Y-49404762D02*
X109076195Y-48071429D01*
X109076195Y-47404762D02*
X108980957Y-47500000D01*
X109076195Y-47595238D01*
X109171434Y-47500000D01*
X109076195Y-47404762D01*
X109076195Y-47595238D01*
X109933338Y-49309524D02*
X110123815Y-49404762D01*
X110504767Y-49404762D01*
X110695243Y-49309524D01*
X110790481Y-49119048D01*
X110790481Y-49023810D01*
X110695243Y-48833333D01*
X110504767Y-48738095D01*
X110219053Y-48738095D01*
X110028576Y-48642857D01*
X109933338Y-48452381D01*
X109933338Y-48357143D01*
X110028576Y-48166667D01*
X110219053Y-48071429D01*
X110504767Y-48071429D01*
X110695243Y-48166667D01*
X113171434Y-49404762D02*
X113171434Y-47404762D01*
X113171434Y-48166667D02*
X113361911Y-48071429D01*
X113742863Y-48071429D01*
X113933339Y-48166667D01*
X114028577Y-48261905D01*
X114123815Y-48452381D01*
X114123815Y-49023810D01*
X114028577Y-49214286D01*
X113933339Y-49309524D01*
X113742863Y-49404762D01*
X113361911Y-49404762D01*
X113171434Y-49309524D01*
X115742863Y-49309524D02*
X115552387Y-49404762D01*
X115171435Y-49404762D01*
X114980958Y-49309524D01*
X114885720Y-49119048D01*
X114885720Y-48357143D01*
X114980958Y-48166667D01*
X115171435Y-48071429D01*
X115552387Y-48071429D01*
X115742863Y-48166667D01*
X115838101Y-48357143D01*
X115838101Y-48547619D01*
X114885720Y-48738095D01*
X116409530Y-48071429D02*
X117171435Y-48071429D01*
X116695244Y-47404762D02*
X116695244Y-49119048D01*
X116790483Y-49309524D01*
X116980959Y-49404762D01*
X117171435Y-49404762D01*
X117647625Y-48071429D02*
X118028578Y-49404762D01*
X118409530Y-48452381D01*
X118790482Y-49404762D01*
X119171435Y-48071429D01*
X120695244Y-49309524D02*
X120504768Y-49404762D01*
X120123816Y-49404762D01*
X119933339Y-49309524D01*
X119838101Y-49119048D01*
X119838101Y-48357143D01*
X119933339Y-48166667D01*
X120123816Y-48071429D01*
X120504768Y-48071429D01*
X120695244Y-48166667D01*
X120790482Y-48357143D01*
X120790482Y-48547619D01*
X119838101Y-48738095D01*
X122409530Y-49309524D02*
X122219054Y-49404762D01*
X121838102Y-49404762D01*
X121647625Y-49309524D01*
X121552387Y-49119048D01*
X121552387Y-48357143D01*
X121647625Y-48166667D01*
X121838102Y-48071429D01*
X122219054Y-48071429D01*
X122409530Y-48166667D01*
X122504768Y-48357143D01*
X122504768Y-48547619D01*
X121552387Y-48738095D01*
X123361911Y-48071429D02*
X123361911Y-49404762D01*
X123361911Y-48261905D02*
X123457150Y-48166667D01*
X123647626Y-48071429D01*
X123933340Y-48071429D01*
X124123816Y-48166667D01*
X124219054Y-48357143D01*
X124219054Y-49404762D01*
X127742865Y-49404762D02*
X126600007Y-49404762D01*
X127171436Y-49404762D02*
X127171436Y-47404762D01*
X126980960Y-47690476D01*
X126790484Y-47880952D01*
X126600007Y-47976190D01*
X128980960Y-47404762D02*
X129171436Y-47404762D01*
X129361912Y-47500000D01*
X129457150Y-47595238D01*
X129552388Y-47785714D01*
X129647627Y-48166667D01*
X129647627Y-48642857D01*
X129552388Y-49023810D01*
X129457150Y-49214286D01*
X129361912Y-49309524D01*
X129171436Y-49404762D01*
X128980960Y-49404762D01*
X128790484Y-49309524D01*
X128695246Y-49214286D01*
X128600007Y-49023810D01*
X128504769Y-48642857D01*
X128504769Y-48166667D01*
X128600007Y-47785714D01*
X128695246Y-47595238D01*
X128790484Y-47500000D01*
X128980960Y-47404762D01*
X130314293Y-48071429D02*
X130790484Y-49404762D01*
X131266674Y-48071429D01*
X133552389Y-48642857D02*
X135076199Y-48642857D01*
X137361913Y-47404762D02*
X138600009Y-47404762D01*
X137933342Y-48166667D01*
X138219056Y-48166667D01*
X138409532Y-48261905D01*
X138504770Y-48357143D01*
X138600009Y-48547619D01*
X138600009Y-49023810D01*
X138504770Y-49214286D01*
X138409532Y-49309524D01*
X138219056Y-49404762D01*
X137647628Y-49404762D01*
X137457151Y-49309524D01*
X137361913Y-49214286D01*
X139838104Y-47404762D02*
X140028580Y-47404762D01*
X140219056Y-47500000D01*
X140314294Y-47595238D01*
X140409532Y-47785714D01*
X140504771Y-48166667D01*
X140504771Y-48642857D01*
X140409532Y-49023810D01*
X140314294Y-49214286D01*
X140219056Y-49309524D01*
X140028580Y-49404762D01*
X139838104Y-49404762D01*
X139647628Y-49309524D01*
X139552390Y-49214286D01*
X139457151Y-49023810D01*
X139361913Y-48642857D01*
X139361913Y-48166667D01*
X139457151Y-47785714D01*
X139552390Y-47595238D01*
X139647628Y-47500000D01*
X139838104Y-47404762D01*
X141171437Y-48071429D02*
X141647628Y-49404762D01*
X142123818Y-48071429D01*
X60790476Y-53604762D02*
X61933333Y-53604762D01*
X61361905Y-55604762D02*
X61361905Y-53604762D01*
X62600000Y-55604762D02*
X62600000Y-53604762D01*
X63457143Y-55604762D02*
X63457143Y-54557143D01*
X63361905Y-54366667D01*
X63171429Y-54271429D01*
X62885715Y-54271429D01*
X62695239Y-54366667D01*
X62600000Y-54461905D01*
X65171429Y-55509524D02*
X64980953Y-55604762D01*
X64600001Y-55604762D01*
X64409524Y-55509524D01*
X64314286Y-55319048D01*
X64314286Y-54557143D01*
X64409524Y-54366667D01*
X64600001Y-54271429D01*
X64980953Y-54271429D01*
X65171429Y-54366667D01*
X65266667Y-54557143D01*
X65266667Y-54747619D01*
X64314286Y-54938095D01*
X67647620Y-55604762D02*
X67647620Y-54271429D01*
X67647620Y-53604762D02*
X67552382Y-53700000D01*
X67647620Y-53795238D01*
X67742859Y-53700000D01*
X67647620Y-53604762D01*
X67647620Y-53795238D01*
X68600001Y-54271429D02*
X68600001Y-55604762D01*
X68600001Y-54461905D02*
X68695240Y-54366667D01*
X68885716Y-54271429D01*
X69171430Y-54271429D01*
X69361906Y-54366667D01*
X69457144Y-54557143D01*
X69457144Y-55604762D01*
X70409525Y-54271429D02*
X70409525Y-56271429D01*
X70409525Y-54366667D02*
X70600002Y-54271429D01*
X70980954Y-54271429D01*
X71171430Y-54366667D01*
X71266668Y-54461905D01*
X71361906Y-54652381D01*
X71361906Y-55223810D01*
X71266668Y-55414286D01*
X71171430Y-55509524D01*
X70980954Y-55604762D01*
X70600002Y-55604762D01*
X70409525Y-55509524D01*
X73076192Y-54271429D02*
X73076192Y-55604762D01*
X72219049Y-54271429D02*
X72219049Y-55319048D01*
X72314288Y-55509524D01*
X72504764Y-55604762D01*
X72790478Y-55604762D01*
X72980954Y-55509524D01*
X73076192Y-55414286D01*
X73742859Y-54271429D02*
X74504764Y-54271429D01*
X74028573Y-53604762D02*
X74028573Y-55319048D01*
X74123812Y-55509524D01*
X74314288Y-55604762D01*
X74504764Y-55604762D01*
X76409526Y-54271429D02*
X77171431Y-54271429D01*
X76695240Y-53604762D02*
X76695240Y-55319048D01*
X76790479Y-55509524D01*
X76980955Y-55604762D01*
X77171431Y-55604762D01*
X77838097Y-55604762D02*
X77838097Y-54271429D01*
X77838097Y-54652381D02*
X77933336Y-54461905D01*
X78028574Y-54366667D01*
X78219050Y-54271429D01*
X78409526Y-54271429D01*
X79076192Y-55604762D02*
X79076192Y-54271429D01*
X79076192Y-53604762D02*
X78980954Y-53700000D01*
X79076192Y-53795238D01*
X79171431Y-53700000D01*
X79076192Y-53604762D01*
X79076192Y-53795238D01*
X80885716Y-54271429D02*
X80885716Y-55890476D01*
X80790478Y-56080952D01*
X80695240Y-56176190D01*
X80504764Y-56271429D01*
X80219050Y-56271429D01*
X80028573Y-56176190D01*
X80885716Y-55509524D02*
X80695240Y-55604762D01*
X80314288Y-55604762D01*
X80123812Y-55509524D01*
X80028573Y-55414286D01*
X79933335Y-55223810D01*
X79933335Y-54652381D01*
X80028573Y-54461905D01*
X80123812Y-54366667D01*
X80314288Y-54271429D01*
X80695240Y-54271429D01*
X80885716Y-54366667D01*
X82695240Y-54271429D02*
X82695240Y-55890476D01*
X82600002Y-56080952D01*
X82504764Y-56176190D01*
X82314288Y-56271429D01*
X82028574Y-56271429D01*
X81838097Y-56176190D01*
X82695240Y-55509524D02*
X82504764Y-55604762D01*
X82123812Y-55604762D01*
X81933336Y-55509524D01*
X81838097Y-55414286D01*
X81742859Y-55223810D01*
X81742859Y-54652381D01*
X81838097Y-54461905D01*
X81933336Y-54366667D01*
X82123812Y-54271429D01*
X82504764Y-54271429D01*
X82695240Y-54366667D01*
X84409526Y-55509524D02*
X84219050Y-55604762D01*
X83838098Y-55604762D01*
X83647621Y-55509524D01*
X83552383Y-55319048D01*
X83552383Y-54557143D01*
X83647621Y-54366667D01*
X83838098Y-54271429D01*
X84219050Y-54271429D01*
X84409526Y-54366667D01*
X84504764Y-54557143D01*
X84504764Y-54747619D01*
X83552383Y-54938095D01*
X85361907Y-55604762D02*
X85361907Y-54271429D01*
X85361907Y-54652381D02*
X85457146Y-54461905D01*
X85552384Y-54366667D01*
X85742860Y-54271429D01*
X85933336Y-54271429D01*
X88123812Y-55604762D02*
X88123812Y-54271429D01*
X88123812Y-53604762D02*
X88028574Y-53700000D01*
X88123812Y-53795238D01*
X88219051Y-53700000D01*
X88123812Y-53604762D01*
X88123812Y-53795238D01*
X88980955Y-55509524D02*
X89171432Y-55604762D01*
X89552384Y-55604762D01*
X89742860Y-55509524D01*
X89838098Y-55319048D01*
X89838098Y-55223810D01*
X89742860Y-55033333D01*
X89552384Y-54938095D01*
X89266670Y-54938095D01*
X89076193Y-54842857D01*
X88980955Y-54652381D01*
X88980955Y-54557143D01*
X89076193Y-54366667D01*
X89266670Y-54271429D01*
X89552384Y-54271429D01*
X89742860Y-54366667D01*
X92504766Y-55604762D02*
X92314290Y-55509524D01*
X92219051Y-55414286D01*
X92123813Y-55223810D01*
X92123813Y-54652381D01*
X92219051Y-54461905D01*
X92314290Y-54366667D01*
X92504766Y-54271429D01*
X92790480Y-54271429D01*
X92980956Y-54366667D01*
X93076194Y-54461905D01*
X93171432Y-54652381D01*
X93171432Y-55223810D01*
X93076194Y-55414286D01*
X92980956Y-55509524D01*
X92790480Y-55604762D01*
X92504766Y-55604762D01*
X94028575Y-54271429D02*
X94028575Y-56271429D01*
X94028575Y-54366667D02*
X94219052Y-54271429D01*
X94600004Y-54271429D01*
X94790480Y-54366667D01*
X94885718Y-54461905D01*
X94980956Y-54652381D01*
X94980956Y-55223810D01*
X94885718Y-55414286D01*
X94790480Y-55509524D01*
X94600004Y-55604762D01*
X94219052Y-55604762D01*
X94028575Y-55509524D01*
X95552385Y-54271429D02*
X96314290Y-54271429D01*
X95838099Y-53604762D02*
X95838099Y-55319048D01*
X95933338Y-55509524D01*
X96123814Y-55604762D01*
X96314290Y-55604762D01*
X96980956Y-55604762D02*
X96980956Y-54271429D01*
X96980956Y-53604762D02*
X96885718Y-53700000D01*
X96980956Y-53795238D01*
X97076195Y-53700000D01*
X96980956Y-53604762D01*
X96980956Y-53795238D01*
X98790480Y-55509524D02*
X98600004Y-55604762D01*
X98219052Y-55604762D01*
X98028576Y-55509524D01*
X97933337Y-55414286D01*
X97838099Y-55223810D01*
X97838099Y-54652381D01*
X97933337Y-54461905D01*
X98028576Y-54366667D01*
X98219052Y-54271429D01*
X98600004Y-54271429D01*
X98790480Y-54366667D01*
X99933338Y-55604762D02*
X99742862Y-55509524D01*
X99647623Y-55319048D01*
X99647623Y-53604762D01*
X100504766Y-54271429D02*
X100980957Y-55604762D01*
X101457147Y-54271429D02*
X100980957Y-55604762D01*
X100790481Y-56080952D01*
X100695242Y-56176190D01*
X100504766Y-56271429D01*
X103742862Y-55604762D02*
X103742862Y-54271429D01*
X103742862Y-53604762D02*
X103647624Y-53700000D01*
X103742862Y-53795238D01*
X103838101Y-53700000D01*
X103742862Y-53604762D01*
X103742862Y-53795238D01*
X104600005Y-55509524D02*
X104790482Y-55604762D01*
X105171434Y-55604762D01*
X105361910Y-55509524D01*
X105457148Y-55319048D01*
X105457148Y-55223810D01*
X105361910Y-55033333D01*
X105171434Y-54938095D01*
X104885720Y-54938095D01*
X104695243Y-54842857D01*
X104600005Y-54652381D01*
X104600005Y-54557143D01*
X104695243Y-54366667D01*
X104885720Y-54271429D01*
X105171434Y-54271429D01*
X105361910Y-54366667D01*
X106600006Y-55604762D02*
X106409530Y-55509524D01*
X106314291Y-55414286D01*
X106219053Y-55223810D01*
X106219053Y-54652381D01*
X106314291Y-54461905D01*
X106409530Y-54366667D01*
X106600006Y-54271429D01*
X106885720Y-54271429D01*
X107076196Y-54366667D01*
X107171434Y-54461905D01*
X107266672Y-54652381D01*
X107266672Y-55223810D01*
X107171434Y-55414286D01*
X107076196Y-55509524D01*
X106885720Y-55604762D01*
X106600006Y-55604762D01*
X108409530Y-55604762D02*
X108219054Y-55509524D01*
X108123815Y-55319048D01*
X108123815Y-53604762D01*
X110028577Y-55604762D02*
X110028577Y-54557143D01*
X109933339Y-54366667D01*
X109742863Y-54271429D01*
X109361911Y-54271429D01*
X109171434Y-54366667D01*
X110028577Y-55509524D02*
X109838101Y-55604762D01*
X109361911Y-55604762D01*
X109171434Y-55509524D01*
X109076196Y-55319048D01*
X109076196Y-55128571D01*
X109171434Y-54938095D01*
X109361911Y-54842857D01*
X109838101Y-54842857D01*
X110028577Y-54747619D01*
X110695244Y-54271429D02*
X111457149Y-54271429D01*
X110980958Y-53604762D02*
X110980958Y-55319048D01*
X111076197Y-55509524D01*
X111266673Y-55604762D01*
X111457149Y-55604762D01*
X112885720Y-55509524D02*
X112695244Y-55604762D01*
X112314292Y-55604762D01*
X112123815Y-55509524D01*
X112028577Y-55319048D01*
X112028577Y-54557143D01*
X112123815Y-54366667D01*
X112314292Y-54271429D01*
X112695244Y-54271429D01*
X112885720Y-54366667D01*
X112980958Y-54557143D01*
X112980958Y-54747619D01*
X112028577Y-54938095D01*
X114695244Y-55604762D02*
X114695244Y-53604762D01*
X114695244Y-55509524D02*
X114504768Y-55604762D01*
X114123816Y-55604762D01*
X113933340Y-55509524D01*
X113838101Y-55414286D01*
X113742863Y-55223810D01*
X113742863Y-54652381D01*
X113838101Y-54461905D01*
X113933340Y-54366667D01*
X114123816Y-54271429D01*
X114504768Y-54271429D01*
X114695244Y-54366667D01*
X116885721Y-54271429D02*
X117647626Y-54271429D01*
X117171435Y-55604762D02*
X117171435Y-53890476D01*
X117266674Y-53700000D01*
X117457150Y-53604762D01*
X117647626Y-53604762D01*
X118314292Y-55604762D02*
X118314292Y-54271429D01*
X118314292Y-54652381D02*
X118409531Y-54461905D01*
X118504769Y-54366667D01*
X118695245Y-54271429D01*
X118885721Y-54271429D01*
X119838102Y-55604762D02*
X119647626Y-55509524D01*
X119552387Y-55414286D01*
X119457149Y-55223810D01*
X119457149Y-54652381D01*
X119552387Y-54461905D01*
X119647626Y-54366667D01*
X119838102Y-54271429D01*
X120123816Y-54271429D01*
X120314292Y-54366667D01*
X120409530Y-54461905D01*
X120504768Y-54652381D01*
X120504768Y-55223810D01*
X120409530Y-55414286D01*
X120314292Y-55509524D01*
X120123816Y-55604762D01*
X119838102Y-55604762D01*
X121361911Y-55604762D02*
X121361911Y-54271429D01*
X121361911Y-54461905D02*
X121457150Y-54366667D01*
X121647626Y-54271429D01*
X121933340Y-54271429D01*
X122123816Y-54366667D01*
X122219054Y-54557143D01*
X122219054Y-55604762D01*
X122219054Y-54557143D02*
X122314292Y-54366667D01*
X122504769Y-54271429D01*
X122790483Y-54271429D01*
X122980959Y-54366667D01*
X123076197Y-54557143D01*
X123076197Y-55604762D01*
X125266674Y-54271429D02*
X126028579Y-54271429D01*
X125552388Y-53604762D02*
X125552388Y-55319048D01*
X125647627Y-55509524D01*
X125838103Y-55604762D01*
X126028579Y-55604762D01*
X126695245Y-55604762D02*
X126695245Y-53604762D01*
X127552388Y-55604762D02*
X127552388Y-54557143D01*
X127457150Y-54366667D01*
X127266674Y-54271429D01*
X126980960Y-54271429D01*
X126790484Y-54366667D01*
X126695245Y-54461905D01*
X129266674Y-55509524D02*
X129076198Y-55604762D01*
X128695246Y-55604762D01*
X128504769Y-55509524D01*
X128409531Y-55319048D01*
X128409531Y-54557143D01*
X128504769Y-54366667D01*
X128695246Y-54271429D01*
X129076198Y-54271429D01*
X129266674Y-54366667D01*
X129361912Y-54557143D01*
X129361912Y-54747619D01*
X128409531Y-54938095D01*
X131742865Y-55604762D02*
X131742865Y-53604762D01*
X131742865Y-54366667D02*
X131933342Y-54271429D01*
X132314294Y-54271429D01*
X132504770Y-54366667D01*
X132600008Y-54461905D01*
X132695246Y-54652381D01*
X132695246Y-55223810D01*
X132600008Y-55414286D01*
X132504770Y-55509524D01*
X132314294Y-55604762D01*
X131933342Y-55604762D01*
X131742865Y-55509524D01*
X134314294Y-55509524D02*
X134123818Y-55604762D01*
X133742866Y-55604762D01*
X133552389Y-55509524D01*
X133457151Y-55319048D01*
X133457151Y-54557143D01*
X133552389Y-54366667D01*
X133742866Y-54271429D01*
X134123818Y-54271429D01*
X134314294Y-54366667D01*
X134409532Y-54557143D01*
X134409532Y-54747619D01*
X133457151Y-54938095D01*
X136123818Y-55604762D02*
X136123818Y-53604762D01*
X136123818Y-55509524D02*
X135933342Y-55604762D01*
X135552390Y-55604762D01*
X135361914Y-55509524D01*
X135266675Y-55414286D01*
X135171437Y-55223810D01*
X135171437Y-54652381D01*
X135266675Y-54461905D01*
X135361914Y-54366667D01*
X135552390Y-54271429D01*
X135933342Y-54271429D01*
X136123818Y-54366667D01*
X138600009Y-54271429D02*
X138600009Y-56271429D01*
X138600009Y-54366667D02*
X138790486Y-54271429D01*
X139171438Y-54271429D01*
X139361914Y-54366667D01*
X139457152Y-54461905D01*
X139552390Y-54652381D01*
X139552390Y-55223810D01*
X139457152Y-55414286D01*
X139361914Y-55509524D01*
X139171438Y-55604762D01*
X138790486Y-55604762D01*
X138600009Y-55509524D01*
X140695248Y-55604762D02*
X140504772Y-55509524D01*
X140409533Y-55414286D01*
X140314295Y-55223810D01*
X140314295Y-54652381D01*
X140409533Y-54461905D01*
X140504772Y-54366667D01*
X140695248Y-54271429D01*
X140980962Y-54271429D01*
X141171438Y-54366667D01*
X141266676Y-54461905D01*
X141361914Y-54652381D01*
X141361914Y-55223810D01*
X141266676Y-55414286D01*
X141171438Y-55509524D01*
X140980962Y-55604762D01*
X140695248Y-55604762D01*
X142028581Y-54271429D02*
X142409534Y-55604762D01*
X142790486Y-54652381D01*
X143171438Y-55604762D01*
X143552391Y-54271429D01*
X145076200Y-55509524D02*
X144885724Y-55604762D01*
X144504772Y-55604762D01*
X144314295Y-55509524D01*
X144219057Y-55319048D01*
X144219057Y-54557143D01*
X144314295Y-54366667D01*
X144504772Y-54271429D01*
X144885724Y-54271429D01*
X145076200Y-54366667D01*
X145171438Y-54557143D01*
X145171438Y-54747619D01*
X144219057Y-54938095D01*
X146028581Y-55604762D02*
X146028581Y-54271429D01*
X146028581Y-54652381D02*
X146123820Y-54461905D01*
X146219058Y-54366667D01*
X146409534Y-54271429D01*
X146600010Y-54271429D01*
X148695248Y-55509524D02*
X148885725Y-55604762D01*
X149266677Y-55604762D01*
X149457153Y-55509524D01*
X149552391Y-55319048D01*
X149552391Y-55223810D01*
X149457153Y-55033333D01*
X149266677Y-54938095D01*
X148980963Y-54938095D01*
X148790486Y-54842857D01*
X148695248Y-54652381D01*
X148695248Y-54557143D01*
X148790486Y-54366667D01*
X148980963Y-54271429D01*
X149266677Y-54271429D01*
X149457153Y-54366667D01*
X151266677Y-54271429D02*
X151266677Y-55604762D01*
X150409534Y-54271429D02*
X150409534Y-55319048D01*
X150504773Y-55509524D01*
X150695249Y-55604762D01*
X150980963Y-55604762D01*
X151171439Y-55509524D01*
X151266677Y-55414286D01*
X152219058Y-54271429D02*
X152219058Y-56271429D01*
X152219058Y-54366667D02*
X152409535Y-54271429D01*
X152790487Y-54271429D01*
X152980963Y-54366667D01*
X153076201Y-54461905D01*
X153171439Y-54652381D01*
X153171439Y-55223810D01*
X153076201Y-55414286D01*
X152980963Y-55509524D01*
X152790487Y-55604762D01*
X152409535Y-55604762D01*
X152219058Y-55509524D01*
X154028582Y-54271429D02*
X154028582Y-56271429D01*
X154028582Y-54366667D02*
X154219059Y-54271429D01*
X154600011Y-54271429D01*
X154790487Y-54366667D01*
X154885725Y-54461905D01*
X154980963Y-54652381D01*
X154980963Y-55223810D01*
X154885725Y-55414286D01*
X154790487Y-55509524D01*
X154600011Y-55604762D01*
X154219059Y-55604762D01*
X154028582Y-55509524D01*
X156123821Y-55604762D02*
X155933345Y-55509524D01*
X155838106Y-55319048D01*
X155838106Y-53604762D01*
X156695249Y-54271429D02*
X157171440Y-55604762D01*
X157647630Y-54271429D02*
X157171440Y-55604762D01*
X156980964Y-56080952D01*
X156885725Y-56176190D01*
X156695249Y-56271429D01*
X158409535Y-55414286D02*
X158504774Y-55509524D01*
X158409535Y-55604762D01*
X158314297Y-55509524D01*
X158409535Y-55414286D01*
X158409535Y-55604762D01*
X60885714Y-59804762D02*
X62123810Y-59804762D01*
X61457143Y-60566667D01*
X61742857Y-60566667D01*
X61933333Y-60661905D01*
X62028571Y-60757143D01*
X62123810Y-60947619D01*
X62123810Y-61423810D01*
X62028571Y-61614286D01*
X61933333Y-61709524D01*
X61742857Y-61804762D01*
X61171429Y-61804762D01*
X60980952Y-61709524D01*
X60885714Y-61614286D01*
X63361905Y-59804762D02*
X63552381Y-59804762D01*
X63742857Y-59900000D01*
X63838095Y-59995238D01*
X63933333Y-60185714D01*
X64028572Y-60566667D01*
X64028572Y-61042857D01*
X63933333Y-61423810D01*
X63838095Y-61614286D01*
X63742857Y-61709524D01*
X63552381Y-61804762D01*
X63361905Y-61804762D01*
X63171429Y-61709524D01*
X63076191Y-61614286D01*
X62980952Y-61423810D01*
X62885714Y-61042857D01*
X62885714Y-60566667D01*
X62980952Y-60185714D01*
X63076191Y-59995238D01*
X63171429Y-59900000D01*
X63361905Y-59804762D01*
X64790476Y-61233333D02*
X65742857Y-61233333D01*
X64600000Y-61804762D02*
X65266667Y-59804762D01*
X65933334Y-61804762D01*
X68123810Y-61804762D02*
X68123810Y-59804762D01*
X68790477Y-61233333D01*
X69457144Y-59804762D01*
X69457144Y-61804762D01*
X71266667Y-61804762D02*
X71266667Y-60757143D01*
X71171429Y-60566667D01*
X70980953Y-60471429D01*
X70600001Y-60471429D01*
X70409524Y-60566667D01*
X71266667Y-61709524D02*
X71076191Y-61804762D01*
X70600001Y-61804762D01*
X70409524Y-61709524D01*
X70314286Y-61519048D01*
X70314286Y-61328571D01*
X70409524Y-61138095D01*
X70600001Y-61042857D01*
X71076191Y-61042857D01*
X71266667Y-60947619D01*
X72028572Y-61804762D02*
X73076191Y-60471429D01*
X72028572Y-60471429D02*
X73076191Y-61804762D01*
X76219049Y-61709524D02*
X76028573Y-61804762D01*
X75647621Y-61804762D01*
X75457145Y-61709524D01*
X75361906Y-61614286D01*
X75266668Y-61423810D01*
X75266668Y-60852381D01*
X75361906Y-60661905D01*
X75457145Y-60566667D01*
X75647621Y-60471429D01*
X76028573Y-60471429D01*
X76219049Y-60566667D01*
X77933335Y-60471429D02*
X77933335Y-61804762D01*
X77076192Y-60471429D02*
X77076192Y-61519048D01*
X77171431Y-61709524D01*
X77361907Y-61804762D01*
X77647621Y-61804762D01*
X77838097Y-61709524D01*
X77933335Y-61614286D01*
X78885716Y-61804762D02*
X78885716Y-60471429D01*
X78885716Y-60852381D02*
X78980955Y-60661905D01*
X79076193Y-60566667D01*
X79266669Y-60471429D01*
X79457145Y-60471429D01*
X80885716Y-61709524D02*
X80695240Y-61804762D01*
X80314288Y-61804762D01*
X80123811Y-61709524D01*
X80028573Y-61519048D01*
X80028573Y-60757143D01*
X80123811Y-60566667D01*
X80314288Y-60471429D01*
X80695240Y-60471429D01*
X80885716Y-60566667D01*
X80980954Y-60757143D01*
X80980954Y-60947619D01*
X80028573Y-61138095D01*
X81838097Y-60471429D02*
X81838097Y-61804762D01*
X81838097Y-60661905D02*
X81933336Y-60566667D01*
X82123812Y-60471429D01*
X82409526Y-60471429D01*
X82600002Y-60566667D01*
X82695240Y-60757143D01*
X82695240Y-61804762D01*
X83361907Y-60471429D02*
X84123812Y-60471429D01*
X83647621Y-59804762D02*
X83647621Y-61519048D01*
X83742860Y-61709524D01*
X83933336Y-61804762D01*
X84123812Y-61804762D01*
X86028574Y-60471429D02*
X86790479Y-60471429D01*
X86314288Y-59804762D02*
X86314288Y-61519048D01*
X86409527Y-61709524D01*
X86600003Y-61804762D01*
X86790479Y-61804762D01*
X87457145Y-61804762D02*
X87457145Y-59804762D01*
X88314288Y-61804762D02*
X88314288Y-60757143D01*
X88219050Y-60566667D01*
X88028574Y-60471429D01*
X87742860Y-60471429D01*
X87552384Y-60566667D01*
X87457145Y-60661905D01*
X89266669Y-61804762D02*
X89266669Y-60471429D01*
X89266669Y-60852381D02*
X89361908Y-60661905D01*
X89457146Y-60566667D01*
X89647622Y-60471429D01*
X89838098Y-60471429D01*
X90790479Y-61804762D02*
X90600003Y-61709524D01*
X90504764Y-61614286D01*
X90409526Y-61423810D01*
X90409526Y-60852381D01*
X90504764Y-60661905D01*
X90600003Y-60566667D01*
X90790479Y-60471429D01*
X91076193Y-60471429D01*
X91266669Y-60566667D01*
X91361907Y-60661905D01*
X91457145Y-60852381D01*
X91457145Y-61423810D01*
X91361907Y-61614286D01*
X91266669Y-61709524D01*
X91076193Y-61804762D01*
X90790479Y-61804762D01*
X93171431Y-60471429D02*
X93171431Y-61804762D01*
X92314288Y-60471429D02*
X92314288Y-61519048D01*
X92409527Y-61709524D01*
X92600003Y-61804762D01*
X92885717Y-61804762D01*
X93076193Y-61709524D01*
X93171431Y-61614286D01*
X94980955Y-60471429D02*
X94980955Y-62090476D01*
X94885717Y-62280952D01*
X94790479Y-62376190D01*
X94600003Y-62471429D01*
X94314289Y-62471429D01*
X94123812Y-62376190D01*
X94980955Y-61709524D02*
X94790479Y-61804762D01*
X94409527Y-61804762D01*
X94219051Y-61709524D01*
X94123812Y-61614286D01*
X94028574Y-61423810D01*
X94028574Y-60852381D01*
X94123812Y-60661905D01*
X94219051Y-60566667D01*
X94409527Y-60471429D01*
X94790479Y-60471429D01*
X94980955Y-60566667D01*
X95933336Y-61804762D02*
X95933336Y-59804762D01*
X96790479Y-61804762D02*
X96790479Y-60757143D01*
X96695241Y-60566667D01*
X96504765Y-60471429D01*
X96219051Y-60471429D01*
X96028575Y-60566667D01*
X95933336Y-60661905D01*
X100600004Y-61995238D02*
X100409528Y-61900000D01*
X100219051Y-61709524D01*
X99933337Y-61423810D01*
X99742861Y-61328571D01*
X99552385Y-61328571D01*
X99647623Y-61804762D02*
X99457147Y-61709524D01*
X99266670Y-61519048D01*
X99171432Y-61138095D01*
X99171432Y-60471429D01*
X99266670Y-60090476D01*
X99457147Y-59900000D01*
X99647623Y-59804762D01*
X100028575Y-59804762D01*
X100219051Y-59900000D01*
X100409528Y-60090476D01*
X100504766Y-60471429D01*
X100504766Y-61138095D01*
X100409528Y-61519048D01*
X100219051Y-61709524D01*
X100028575Y-61804762D01*
X99647623Y-61804762D01*
X102409528Y-61804762D02*
X101266670Y-61804762D01*
X101838099Y-61804762D02*
X101838099Y-59804762D01*
X101647623Y-60090476D01*
X101457147Y-60280952D01*
X101266670Y-60376190D01*
X103266670Y-61614286D02*
X103361909Y-61709524D01*
X103266670Y-61804762D01*
X103171432Y-61709524D01*
X103266670Y-61614286D01*
X103266670Y-61804762D01*
X108600005Y-61995238D02*
X108409529Y-61900000D01*
X108219052Y-61709524D01*
X107933338Y-61423810D01*
X107742862Y-61328571D01*
X107552386Y-61328571D01*
X107647624Y-61804762D02*
X107457148Y-61709524D01*
X107266671Y-61519048D01*
X107171433Y-61138095D01*
X107171433Y-60471429D01*
X107266671Y-60090476D01*
X107457148Y-59900000D01*
X107647624Y-59804762D01*
X108028576Y-59804762D01*
X108219052Y-59900000D01*
X108409529Y-60090476D01*
X108504767Y-60471429D01*
X108504767Y-61138095D01*
X108409529Y-61519048D01*
X108219052Y-61709524D01*
X108028576Y-61804762D01*
X107647624Y-61804762D01*
X110409529Y-61804762D02*
X109266671Y-61804762D01*
X109838100Y-61804762D02*
X109838100Y-59804762D01*
X109647624Y-60090476D01*
X109457148Y-60280952D01*
X109266671Y-60376190D01*
X112790481Y-61804762D02*
X112790481Y-60471429D01*
X112790481Y-59804762D02*
X112695243Y-59900000D01*
X112790481Y-59995238D01*
X112885720Y-59900000D01*
X112790481Y-59804762D01*
X112790481Y-59995238D01*
X113647624Y-61709524D02*
X113838101Y-61804762D01*
X114219053Y-61804762D01*
X114409529Y-61709524D01*
X114504767Y-61519048D01*
X114504767Y-61423810D01*
X114409529Y-61233333D01*
X114219053Y-61138095D01*
X113933339Y-61138095D01*
X113742862Y-61042857D01*
X113647624Y-60852381D01*
X113647624Y-60757143D01*
X113742862Y-60566667D01*
X113933339Y-60471429D01*
X114219053Y-60471429D01*
X114409529Y-60566667D01*
X117742863Y-61709524D02*
X117552387Y-61804762D01*
X117171435Y-61804762D01*
X116980959Y-61709524D01*
X116885720Y-61614286D01*
X116790482Y-61423810D01*
X116790482Y-60852381D01*
X116885720Y-60661905D01*
X116980959Y-60566667D01*
X117171435Y-60471429D01*
X117552387Y-60471429D01*
X117742863Y-60566667D01*
X119457149Y-61804762D02*
X119457149Y-60757143D01*
X119361911Y-60566667D01*
X119171435Y-60471429D01*
X118790483Y-60471429D01*
X118600006Y-60566667D01*
X119457149Y-61709524D02*
X119266673Y-61804762D01*
X118790483Y-61804762D01*
X118600006Y-61709524D01*
X118504768Y-61519048D01*
X118504768Y-61328571D01*
X118600006Y-61138095D01*
X118790483Y-61042857D01*
X119266673Y-61042857D01*
X119457149Y-60947619D01*
X120409530Y-60471429D02*
X120409530Y-62471429D01*
X120409530Y-60566667D02*
X120600007Y-60471429D01*
X120980959Y-60471429D01*
X121171435Y-60566667D01*
X121266673Y-60661905D01*
X121361911Y-60852381D01*
X121361911Y-61423810D01*
X121266673Y-61614286D01*
X121171435Y-61709524D01*
X120980959Y-61804762D01*
X120600007Y-61804762D01*
X120409530Y-61709524D01*
X123076197Y-61804762D02*
X123076197Y-60757143D01*
X122980959Y-60566667D01*
X122790483Y-60471429D01*
X122409531Y-60471429D01*
X122219054Y-60566667D01*
X123076197Y-61709524D02*
X122885721Y-61804762D01*
X122409531Y-61804762D01*
X122219054Y-61709524D01*
X122123816Y-61519048D01*
X122123816Y-61328571D01*
X122219054Y-61138095D01*
X122409531Y-61042857D01*
X122885721Y-61042857D01*
X123076197Y-60947619D01*
X124028578Y-61804762D02*
X124028578Y-59804762D01*
X124028578Y-60566667D02*
X124219055Y-60471429D01*
X124600007Y-60471429D01*
X124790483Y-60566667D01*
X124885721Y-60661905D01*
X124980959Y-60852381D01*
X124980959Y-61423810D01*
X124885721Y-61614286D01*
X124790483Y-61709524D01*
X124600007Y-61804762D01*
X124219055Y-61804762D01*
X124028578Y-61709524D01*
X126123817Y-61804762D02*
X125933341Y-61709524D01*
X125838102Y-61519048D01*
X125838102Y-59804762D01*
X127647626Y-61709524D02*
X127457150Y-61804762D01*
X127076198Y-61804762D01*
X126885721Y-61709524D01*
X126790483Y-61519048D01*
X126790483Y-60757143D01*
X126885721Y-60566667D01*
X127076198Y-60471429D01*
X127457150Y-60471429D01*
X127647626Y-60566667D01*
X127742864Y-60757143D01*
X127742864Y-60947619D01*
X126790483Y-61138095D01*
X130409532Y-61804762D02*
X130219056Y-61709524D01*
X130123817Y-61614286D01*
X130028579Y-61423810D01*
X130028579Y-60852381D01*
X130123817Y-60661905D01*
X130219056Y-60566667D01*
X130409532Y-60471429D01*
X130695246Y-60471429D01*
X130885722Y-60566667D01*
X130980960Y-60661905D01*
X131076198Y-60852381D01*
X131076198Y-61423810D01*
X130980960Y-61614286D01*
X130885722Y-61709524D01*
X130695246Y-61804762D01*
X130409532Y-61804762D01*
X131647627Y-60471429D02*
X132409532Y-60471429D01*
X131933341Y-61804762D02*
X131933341Y-60090476D01*
X132028580Y-59900000D01*
X132219056Y-59804762D01*
X132409532Y-59804762D01*
X135647628Y-61804762D02*
X134504770Y-61804762D01*
X135076199Y-61804762D02*
X135076199Y-59804762D01*
X134885723Y-60090476D01*
X134695247Y-60280952D01*
X134504770Y-60376190D01*
X136885723Y-59804762D02*
X137076199Y-59804762D01*
X137266675Y-59900000D01*
X137361913Y-59995238D01*
X137457151Y-60185714D01*
X137552390Y-60566667D01*
X137552390Y-61042857D01*
X137457151Y-61423810D01*
X137361913Y-61614286D01*
X137266675Y-61709524D01*
X137076199Y-61804762D01*
X136885723Y-61804762D01*
X136695247Y-61709524D01*
X136600009Y-61614286D01*
X136504770Y-61423810D01*
X136409532Y-61042857D01*
X136409532Y-60566667D01*
X136504770Y-60185714D01*
X136600009Y-59995238D01*
X136695247Y-59900000D01*
X136885723Y-59804762D01*
X138790485Y-59804762D02*
X138980961Y-59804762D01*
X139171437Y-59900000D01*
X139266675Y-59995238D01*
X139361913Y-60185714D01*
X139457152Y-60566667D01*
X139457152Y-61042857D01*
X139361913Y-61423810D01*
X139266675Y-61614286D01*
X139171437Y-61709524D01*
X138980961Y-61804762D01*
X138790485Y-61804762D01*
X138600009Y-61709524D01*
X138504771Y-61614286D01*
X138409532Y-61423810D01*
X138314294Y-61042857D01*
X138314294Y-60566667D01*
X138409532Y-60185714D01*
X138504771Y-59995238D01*
X138600009Y-59900000D01*
X138790485Y-59804762D01*
X140219056Y-61233333D02*
X141171437Y-61233333D01*
X140028580Y-61804762D02*
X140695247Y-59804762D01*
X141361914Y-61804762D01*
X144409533Y-61804762D02*
X144409533Y-60757143D01*
X144314295Y-60566667D01*
X144123819Y-60471429D01*
X143742867Y-60471429D01*
X143552390Y-60566667D01*
X144409533Y-61709524D02*
X144219057Y-61804762D01*
X143742867Y-61804762D01*
X143552390Y-61709524D01*
X143457152Y-61519048D01*
X143457152Y-61328571D01*
X143552390Y-61138095D01*
X143742867Y-61042857D01*
X144219057Y-61042857D01*
X144409533Y-60947619D01*
X145076200Y-60471429D02*
X145838105Y-60471429D01*
X145361914Y-59804762D02*
X145361914Y-61519048D01*
X145457153Y-61709524D01*
X145647629Y-61804762D01*
X145838105Y-61804762D01*
X60980952Y-63095238D02*
X61076190Y-63000000D01*
X61266667Y-62904762D01*
X61742857Y-62904762D01*
X61933333Y-63000000D01*
X62028571Y-63095238D01*
X62123810Y-63285714D01*
X62123810Y-63476190D01*
X62028571Y-63761905D01*
X60885714Y-64904762D01*
X62123810Y-64904762D01*
X63933333Y-62904762D02*
X62980952Y-62904762D01*
X62885714Y-63857143D01*
X62980952Y-63761905D01*
X63171429Y-63666667D01*
X63647619Y-63666667D01*
X63838095Y-63761905D01*
X63933333Y-63857143D01*
X64028572Y-64047619D01*
X64028572Y-64523810D01*
X63933333Y-64714286D01*
X63838095Y-64809524D01*
X63647619Y-64904762D01*
X63171429Y-64904762D01*
X62980952Y-64809524D01*
X62885714Y-64714286D01*
X67266667Y-64904762D02*
X67266667Y-62904762D01*
X67266667Y-64809524D02*
X67076191Y-64904762D01*
X66695239Y-64904762D01*
X66504763Y-64809524D01*
X66409524Y-64714286D01*
X66314286Y-64523810D01*
X66314286Y-63952381D01*
X66409524Y-63761905D01*
X66504763Y-63666667D01*
X66695239Y-63571429D01*
X67076191Y-63571429D01*
X67266667Y-63666667D01*
X68980953Y-64809524D02*
X68790477Y-64904762D01*
X68409525Y-64904762D01*
X68219048Y-64809524D01*
X68123810Y-64619048D01*
X68123810Y-63857143D01*
X68219048Y-63666667D01*
X68409525Y-63571429D01*
X68790477Y-63571429D01*
X68980953Y-63666667D01*
X69076191Y-63857143D01*
X69076191Y-64047619D01*
X68123810Y-64238095D01*
X70790477Y-63571429D02*
X70790477Y-65190476D01*
X70695239Y-65380952D01*
X70600001Y-65476190D01*
X70409525Y-65571429D01*
X70123811Y-65571429D01*
X69933334Y-65476190D01*
X70790477Y-64809524D02*
X70600001Y-64904762D01*
X70219049Y-64904762D01*
X70028573Y-64809524D01*
X69933334Y-64714286D01*
X69838096Y-64523810D01*
X69838096Y-63952381D01*
X69933334Y-63761905D01*
X70028573Y-63666667D01*
X70219049Y-63571429D01*
X70600001Y-63571429D01*
X70790477Y-63666667D01*
X74409526Y-64714286D02*
X74314288Y-64809524D01*
X74028573Y-64904762D01*
X73838097Y-64904762D01*
X73552383Y-64809524D01*
X73361907Y-64619048D01*
X73266668Y-64428571D01*
X73171430Y-64047619D01*
X73171430Y-63761905D01*
X73266668Y-63380952D01*
X73361907Y-63190476D01*
X73552383Y-63000000D01*
X73838097Y-62904762D01*
X74028573Y-62904762D01*
X74314288Y-63000000D01*
X74409526Y-63095238D01*
X76790478Y-64904762D02*
X76790478Y-62904762D01*
X76790478Y-63666667D02*
X76980955Y-63571429D01*
X77361907Y-63571429D01*
X77552383Y-63666667D01*
X77647621Y-63761905D01*
X77742859Y-63952381D01*
X77742859Y-64523810D01*
X77647621Y-64714286D01*
X77552383Y-64809524D01*
X77361907Y-64904762D01*
X76980955Y-64904762D01*
X76790478Y-64809524D01*
X79457145Y-63571429D02*
X79457145Y-64904762D01*
X78600002Y-63571429D02*
X78600002Y-64619048D01*
X78695241Y-64809524D01*
X78885717Y-64904762D01*
X79171431Y-64904762D01*
X79361907Y-64809524D01*
X79457145Y-64714286D01*
X80123812Y-63571429D02*
X80885717Y-63571429D01*
X80409526Y-62904762D02*
X80409526Y-64619048D01*
X80504765Y-64809524D01*
X80695241Y-64904762D01*
X80885717Y-64904762D01*
X82790479Y-63571429D02*
X83552384Y-63571429D01*
X83076193Y-62904762D02*
X83076193Y-64619048D01*
X83171432Y-64809524D01*
X83361908Y-64904762D01*
X83552384Y-64904762D01*
X84219050Y-64904762D02*
X84219050Y-62904762D01*
X85076193Y-64904762D02*
X85076193Y-63857143D01*
X84980955Y-63666667D01*
X84790479Y-63571429D01*
X84504765Y-63571429D01*
X84314289Y-63666667D01*
X84219050Y-63761905D01*
X86790479Y-64809524D02*
X86600003Y-64904762D01*
X86219051Y-64904762D01*
X86028574Y-64809524D01*
X85933336Y-64619048D01*
X85933336Y-63857143D01*
X86028574Y-63666667D01*
X86219051Y-63571429D01*
X86600003Y-63571429D01*
X86790479Y-63666667D01*
X86885717Y-63857143D01*
X86885717Y-64047619D01*
X85933336Y-64238095D01*
X89266670Y-63571429D02*
X89266670Y-65571429D01*
X89266670Y-63666667D02*
X89457147Y-63571429D01*
X89838099Y-63571429D01*
X90028575Y-63666667D01*
X90123813Y-63761905D01*
X90219051Y-63952381D01*
X90219051Y-64523810D01*
X90123813Y-64714286D01*
X90028575Y-64809524D01*
X89838099Y-64904762D01*
X89457147Y-64904762D01*
X89266670Y-64809524D01*
X91361909Y-64904762D02*
X91171433Y-64809524D01*
X91076194Y-64714286D01*
X90980956Y-64523810D01*
X90980956Y-63952381D01*
X91076194Y-63761905D01*
X91171433Y-63666667D01*
X91361909Y-63571429D01*
X91647623Y-63571429D01*
X91838099Y-63666667D01*
X91933337Y-63761905D01*
X92028575Y-63952381D01*
X92028575Y-64523810D01*
X91933337Y-64714286D01*
X91838099Y-64809524D01*
X91647623Y-64904762D01*
X91361909Y-64904762D01*
X92695242Y-63571429D02*
X93076195Y-64904762D01*
X93457147Y-63952381D01*
X93838099Y-64904762D01*
X94219052Y-63571429D01*
X95742861Y-64809524D02*
X95552385Y-64904762D01*
X95171433Y-64904762D01*
X94980956Y-64809524D01*
X94885718Y-64619048D01*
X94885718Y-63857143D01*
X94980956Y-63666667D01*
X95171433Y-63571429D01*
X95552385Y-63571429D01*
X95742861Y-63666667D01*
X95838099Y-63857143D01*
X95838099Y-64047619D01*
X94885718Y-64238095D01*
X96695242Y-64904762D02*
X96695242Y-63571429D01*
X96695242Y-63952381D02*
X96790481Y-63761905D01*
X96885719Y-63666667D01*
X97076195Y-63571429D01*
X97266671Y-63571429D01*
X99171433Y-63571429D02*
X99933338Y-63571429D01*
X99457147Y-62904762D02*
X99457147Y-64619048D01*
X99552386Y-64809524D01*
X99742862Y-64904762D01*
X99933338Y-64904762D01*
X101361909Y-64809524D02*
X101171433Y-64904762D01*
X100790481Y-64904762D01*
X100600004Y-64809524D01*
X100504766Y-64619048D01*
X100504766Y-63857143D01*
X100600004Y-63666667D01*
X100790481Y-63571429D01*
X101171433Y-63571429D01*
X101361909Y-63666667D01*
X101457147Y-63857143D01*
X101457147Y-64047619D01*
X100504766Y-64238095D01*
X102314290Y-64904762D02*
X102314290Y-63571429D01*
X102314290Y-63952381D02*
X102409529Y-63761905D01*
X102504767Y-63666667D01*
X102695243Y-63571429D01*
X102885719Y-63571429D01*
X103552385Y-64904762D02*
X103552385Y-63571429D01*
X103552385Y-63761905D02*
X103647624Y-63666667D01*
X103838100Y-63571429D01*
X104123814Y-63571429D01*
X104314290Y-63666667D01*
X104409528Y-63857143D01*
X104409528Y-64904762D01*
X104409528Y-63857143D02*
X104504766Y-63666667D01*
X104695243Y-63571429D01*
X104980957Y-63571429D01*
X105171433Y-63666667D01*
X105266671Y-63857143D01*
X105266671Y-64904762D01*
X106219052Y-64904762D02*
X106219052Y-63571429D01*
X106219052Y-62904762D02*
X106123814Y-63000000D01*
X106219052Y-63095238D01*
X106314291Y-63000000D01*
X106219052Y-62904762D01*
X106219052Y-63095238D01*
X107171433Y-63571429D02*
X107171433Y-64904762D01*
X107171433Y-63761905D02*
X107266672Y-63666667D01*
X107457148Y-63571429D01*
X107742862Y-63571429D01*
X107933338Y-63666667D01*
X108028576Y-63857143D01*
X108028576Y-64904762D01*
X109838100Y-64904762D02*
X109838100Y-63857143D01*
X109742862Y-63666667D01*
X109552386Y-63571429D01*
X109171434Y-63571429D01*
X108980957Y-63666667D01*
X109838100Y-64809524D02*
X109647624Y-64904762D01*
X109171434Y-64904762D01*
X108980957Y-64809524D01*
X108885719Y-64619048D01*
X108885719Y-64428571D01*
X108980957Y-64238095D01*
X109171434Y-64142857D01*
X109647624Y-64142857D01*
X109838100Y-64047619D01*
X111076196Y-64904762D02*
X110885720Y-64809524D01*
X110790481Y-64619048D01*
X110790481Y-62904762D01*
X111742862Y-64809524D02*
X111933339Y-64904762D01*
X112314291Y-64904762D01*
X112504767Y-64809524D01*
X112600005Y-64619048D01*
X112600005Y-64523810D01*
X112504767Y-64333333D01*
X112314291Y-64238095D01*
X112028577Y-64238095D01*
X111838100Y-64142857D01*
X111742862Y-63952381D01*
X111742862Y-63857143D01*
X111838100Y-63666667D01*
X112028577Y-63571429D01*
X112314291Y-63571429D01*
X112504767Y-63666667D01*
X115838101Y-64904762D02*
X115838101Y-63857143D01*
X115742863Y-63666667D01*
X115552387Y-63571429D01*
X115171435Y-63571429D01*
X114980958Y-63666667D01*
X115838101Y-64809524D02*
X115647625Y-64904762D01*
X115171435Y-64904762D01*
X114980958Y-64809524D01*
X114885720Y-64619048D01*
X114885720Y-64428571D01*
X114980958Y-64238095D01*
X115171435Y-64142857D01*
X115647625Y-64142857D01*
X115838101Y-64047619D01*
X116790482Y-64904762D02*
X116790482Y-63571429D01*
X116790482Y-63952381D02*
X116885721Y-63761905D01*
X116980959Y-63666667D01*
X117171435Y-63571429D01*
X117361911Y-63571429D01*
X118790482Y-64809524D02*
X118600006Y-64904762D01*
X118219054Y-64904762D01*
X118028577Y-64809524D01*
X117933339Y-64619048D01*
X117933339Y-63857143D01*
X118028577Y-63666667D01*
X118219054Y-63571429D01*
X118600006Y-63571429D01*
X118790482Y-63666667D01*
X118885720Y-63857143D01*
X118885720Y-64047619D01*
X117933339Y-64238095D01*
X121266673Y-64904762D02*
X121266673Y-63571429D01*
X121266673Y-63952381D02*
X121361912Y-63761905D01*
X121457150Y-63666667D01*
X121647626Y-63571429D01*
X121838102Y-63571429D01*
X123361911Y-64904762D02*
X123361911Y-63857143D01*
X123266673Y-63666667D01*
X123076197Y-63571429D01*
X122695245Y-63571429D01*
X122504768Y-63666667D01*
X123361911Y-64809524D02*
X123171435Y-64904762D01*
X122695245Y-64904762D01*
X122504768Y-64809524D01*
X122409530Y-64619048D01*
X122409530Y-64428571D01*
X122504768Y-64238095D01*
X122695245Y-64142857D01*
X123171435Y-64142857D01*
X123361911Y-64047619D01*
X124028578Y-63571429D02*
X124790483Y-63571429D01*
X124314292Y-62904762D02*
X124314292Y-64619048D01*
X124409531Y-64809524D01*
X124600007Y-64904762D01*
X124790483Y-64904762D01*
X126219054Y-64809524D02*
X126028578Y-64904762D01*
X125647626Y-64904762D01*
X125457149Y-64809524D01*
X125361911Y-64619048D01*
X125361911Y-63857143D01*
X125457149Y-63666667D01*
X125647626Y-63571429D01*
X126028578Y-63571429D01*
X126219054Y-63666667D01*
X126314292Y-63857143D01*
X126314292Y-64047619D01*
X125361911Y-64238095D01*
X128028578Y-64904762D02*
X128028578Y-62904762D01*
X128028578Y-64809524D02*
X127838102Y-64904762D01*
X127457150Y-64904762D01*
X127266674Y-64809524D01*
X127171435Y-64714286D01*
X127076197Y-64523810D01*
X127076197Y-63952381D01*
X127171435Y-63761905D01*
X127266674Y-63666667D01*
X127457150Y-63571429D01*
X127838102Y-63571429D01*
X128028578Y-63666667D01*
X130219055Y-63571429D02*
X130980960Y-63571429D01*
X130504769Y-64904762D02*
X130504769Y-63190476D01*
X130600008Y-63000000D01*
X130790484Y-62904762D01*
X130980960Y-62904762D01*
X131933341Y-64904762D02*
X131742865Y-64809524D01*
X131647626Y-64714286D01*
X131552388Y-64523810D01*
X131552388Y-63952381D01*
X131647626Y-63761905D01*
X131742865Y-63666667D01*
X131933341Y-63571429D01*
X132219055Y-63571429D01*
X132409531Y-63666667D01*
X132504769Y-63761905D01*
X132600007Y-63952381D01*
X132600007Y-64523810D01*
X132504769Y-64714286D01*
X132409531Y-64809524D01*
X132219055Y-64904762D01*
X131933341Y-64904762D01*
X133457150Y-64904762D02*
X133457150Y-63571429D01*
X133457150Y-63952381D02*
X133552389Y-63761905D01*
X133647627Y-63666667D01*
X133838103Y-63571429D01*
X134028579Y-63571429D01*
X136028579Y-62904762D02*
X137266675Y-62904762D01*
X136600008Y-63666667D01*
X136885722Y-63666667D01*
X137076198Y-63761905D01*
X137171436Y-63857143D01*
X137266675Y-64047619D01*
X137266675Y-64523810D01*
X137171436Y-64714286D01*
X137076198Y-64809524D01*
X136885722Y-64904762D01*
X136314294Y-64904762D01*
X136123817Y-64809524D01*
X136028579Y-64714286D01*
X138504770Y-62904762D02*
X138695246Y-62904762D01*
X138885722Y-63000000D01*
X138980960Y-63095238D01*
X139076198Y-63285714D01*
X139171437Y-63666667D01*
X139171437Y-64142857D01*
X139076198Y-64523810D01*
X138980960Y-64714286D01*
X138885722Y-64809524D01*
X138695246Y-64904762D01*
X138504770Y-64904762D01*
X138314294Y-64809524D01*
X138219056Y-64714286D01*
X138123817Y-64523810D01*
X138028579Y-64142857D01*
X138028579Y-63666667D01*
X138123817Y-63285714D01*
X138219056Y-63095238D01*
X138314294Y-63000000D01*
X138504770Y-62904762D01*
X139933341Y-64333333D02*
X140885722Y-64333333D01*
X139742865Y-64904762D02*
X140409532Y-62904762D01*
X141076199Y-64904762D01*
X61076190Y-71104762D02*
X61076190Y-69104762D01*
X61742857Y-70533333D01*
X62409524Y-69104762D01*
X62409524Y-71104762D01*
X64219047Y-71104762D02*
X64219047Y-70057143D01*
X64123809Y-69866667D01*
X63933333Y-69771429D01*
X63552381Y-69771429D01*
X63361904Y-69866667D01*
X64219047Y-71009524D02*
X64028571Y-71104762D01*
X63552381Y-71104762D01*
X63361904Y-71009524D01*
X63266666Y-70819048D01*
X63266666Y-70628571D01*
X63361904Y-70438095D01*
X63552381Y-70342857D01*
X64028571Y-70342857D01*
X64219047Y-70247619D01*
X64980952Y-71104762D02*
X66028571Y-69771429D01*
X64980952Y-69771429D02*
X66028571Y-71104762D01*
X68219048Y-71009524D02*
X68409525Y-71104762D01*
X68790477Y-71104762D01*
X68980953Y-71009524D01*
X69076191Y-70819048D01*
X69076191Y-70723810D01*
X68980953Y-70533333D01*
X68790477Y-70438095D01*
X68504763Y-70438095D01*
X68314286Y-70342857D01*
X68219048Y-70152381D01*
X68219048Y-70057143D01*
X68314286Y-69866667D01*
X68504763Y-69771429D01*
X68790477Y-69771429D01*
X68980953Y-69866667D01*
X69933334Y-71104762D02*
X69933334Y-69771429D01*
X69933334Y-69104762D02*
X69838096Y-69200000D01*
X69933334Y-69295238D01*
X70028573Y-69200000D01*
X69933334Y-69104762D01*
X69933334Y-69295238D01*
X70695239Y-69771429D02*
X71742858Y-69771429D01*
X70695239Y-71104762D01*
X71742858Y-71104762D01*
X73266668Y-71009524D02*
X73076192Y-71104762D01*
X72695240Y-71104762D01*
X72504763Y-71009524D01*
X72409525Y-70819048D01*
X72409525Y-70057143D01*
X72504763Y-69866667D01*
X72695240Y-69771429D01*
X73076192Y-69771429D01*
X73266668Y-69866667D01*
X73361906Y-70057143D01*
X73361906Y-70247619D01*
X72409525Y-70438095D01*
X75742859Y-71104762D02*
X75742859Y-69104762D01*
X76600002Y-71104762D02*
X76600002Y-70057143D01*
X76504764Y-69866667D01*
X76314288Y-69771429D01*
X76028574Y-69771429D01*
X75838098Y-69866667D01*
X75742859Y-69961905D01*
X78314288Y-71009524D02*
X78123812Y-71104762D01*
X77742860Y-71104762D01*
X77552383Y-71009524D01*
X77457145Y-70819048D01*
X77457145Y-70057143D01*
X77552383Y-69866667D01*
X77742860Y-69771429D01*
X78123812Y-69771429D01*
X78314288Y-69866667D01*
X78409526Y-70057143D01*
X78409526Y-70247619D01*
X77457145Y-70438095D01*
X80123812Y-71104762D02*
X80123812Y-70057143D01*
X80028574Y-69866667D01*
X79838098Y-69771429D01*
X79457146Y-69771429D01*
X79266669Y-69866667D01*
X80123812Y-71009524D02*
X79933336Y-71104762D01*
X79457146Y-71104762D01*
X79266669Y-71009524D01*
X79171431Y-70819048D01*
X79171431Y-70628571D01*
X79266669Y-70438095D01*
X79457146Y-70342857D01*
X79933336Y-70342857D01*
X80123812Y-70247619D01*
X80790479Y-69771429D02*
X81552384Y-69771429D01*
X81076193Y-69104762D02*
X81076193Y-70819048D01*
X81171432Y-71009524D01*
X81361908Y-71104762D01*
X81552384Y-71104762D01*
X82980955Y-71009524D02*
X82790479Y-71104762D01*
X82409527Y-71104762D01*
X82219050Y-71009524D01*
X82123812Y-70819048D01*
X82123812Y-70057143D01*
X82219050Y-69866667D01*
X82409527Y-69771429D01*
X82790479Y-69771429D01*
X82980955Y-69866667D01*
X83076193Y-70057143D01*
X83076193Y-70247619D01*
X82123812Y-70438095D01*
X84790479Y-71104762D02*
X84790479Y-69104762D01*
X84790479Y-71009524D02*
X84600003Y-71104762D01*
X84219051Y-71104762D01*
X84028575Y-71009524D01*
X83933336Y-70914286D01*
X83838098Y-70723810D01*
X83838098Y-70152381D01*
X83933336Y-69961905D01*
X84028575Y-69866667D01*
X84219051Y-69771429D01*
X84600003Y-69771429D01*
X84790479Y-69866667D01*
X87266670Y-71104762D02*
X87266670Y-69104762D01*
X87266670Y-69866667D02*
X87457147Y-69771429D01*
X87838099Y-69771429D01*
X88028575Y-69866667D01*
X88123813Y-69961905D01*
X88219051Y-70152381D01*
X88219051Y-70723810D01*
X88123813Y-70914286D01*
X88028575Y-71009524D01*
X87838099Y-71104762D01*
X87457147Y-71104762D01*
X87266670Y-71009524D01*
X89838099Y-71009524D02*
X89647623Y-71104762D01*
X89266671Y-71104762D01*
X89076194Y-71009524D01*
X88980956Y-70819048D01*
X88980956Y-70057143D01*
X89076194Y-69866667D01*
X89266671Y-69771429D01*
X89647623Y-69771429D01*
X89838099Y-69866667D01*
X89933337Y-70057143D01*
X89933337Y-70247619D01*
X88980956Y-70438095D01*
X91647623Y-71104762D02*
X91647623Y-69104762D01*
X91647623Y-71009524D02*
X91457147Y-71104762D01*
X91076195Y-71104762D01*
X90885719Y-71009524D01*
X90790480Y-70914286D01*
X90695242Y-70723810D01*
X90695242Y-70152381D01*
X90790480Y-69961905D01*
X90885719Y-69866667D01*
X91076195Y-69771429D01*
X91457147Y-69771429D01*
X91647623Y-69866667D01*
X68504764Y-72204762D02*
X69742860Y-72204762D01*
X69076193Y-72966667D01*
X69361907Y-72966667D01*
X69552383Y-73061905D01*
X69647621Y-73157143D01*
X69742860Y-73347619D01*
X69742860Y-73823810D01*
X69647621Y-74014286D01*
X69552383Y-74109524D01*
X69361907Y-74204762D01*
X68790479Y-74204762D01*
X68600002Y-74109524D01*
X68504764Y-74014286D01*
X70980955Y-72204762D02*
X71171431Y-72204762D01*
X71361907Y-72300000D01*
X71457145Y-72395238D01*
X71552383Y-72585714D01*
X71647622Y-72966667D01*
X71647622Y-73442857D01*
X71552383Y-73823810D01*
X71457145Y-74014286D01*
X71361907Y-74109524D01*
X71171431Y-74204762D01*
X70980955Y-74204762D01*
X70790479Y-74109524D01*
X70695241Y-74014286D01*
X70600002Y-73823810D01*
X70504764Y-73442857D01*
X70504764Y-72966667D01*
X70600002Y-72585714D01*
X70695241Y-72395238D01*
X70790479Y-72300000D01*
X70980955Y-72204762D01*
X72314288Y-72871429D02*
X72790479Y-74204762D01*
X73266669Y-72871429D01*
X75552384Y-73442857D02*
X77076194Y-73442857D01*
X79647623Y-74204762D02*
X80028575Y-74204762D01*
X80219051Y-74109524D01*
X80314289Y-74014286D01*
X80504765Y-73728571D01*
X80600004Y-73347619D01*
X80600004Y-72585714D01*
X80504765Y-72395238D01*
X80409527Y-72300000D01*
X80219051Y-72204762D01*
X79838099Y-72204762D01*
X79647623Y-72300000D01*
X79552384Y-72395238D01*
X79457146Y-72585714D01*
X79457146Y-73061905D01*
X79552384Y-73252381D01*
X79647623Y-73347619D01*
X79838099Y-73442857D01*
X80219051Y-73442857D01*
X80409527Y-73347619D01*
X80504765Y-73252381D01*
X80600004Y-73061905D01*
X81838099Y-72204762D02*
X82028575Y-72204762D01*
X82219051Y-72300000D01*
X82314289Y-72395238D01*
X82409527Y-72585714D01*
X82504766Y-72966667D01*
X82504766Y-73442857D01*
X82409527Y-73823810D01*
X82314289Y-74014286D01*
X82219051Y-74109524D01*
X82028575Y-74204762D01*
X81838099Y-74204762D01*
X81647623Y-74109524D01*
X81552385Y-74014286D01*
X81457146Y-73823810D01*
X81361908Y-73442857D01*
X81361908Y-72966667D01*
X81457146Y-72585714D01*
X81552385Y-72395238D01*
X81647623Y-72300000D01*
X81838099Y-72204762D01*
X83742861Y-72204762D02*
X83933337Y-72204762D01*
X84123813Y-72300000D01*
X84219051Y-72395238D01*
X84314289Y-72585714D01*
X84409528Y-72966667D01*
X84409528Y-73442857D01*
X84314289Y-73823810D01*
X84219051Y-74014286D01*
X84123813Y-74109524D01*
X83933337Y-74204762D01*
X83742861Y-74204762D01*
X83552385Y-74109524D01*
X83457147Y-74014286D01*
X83361908Y-73823810D01*
X83266670Y-73442857D01*
X83266670Y-72966667D01*
X83361908Y-72585714D01*
X83457147Y-72395238D01*
X83552385Y-72300000D01*
X83742861Y-72204762D01*
X86600004Y-72204762D02*
X87076195Y-74204762D01*
X87457147Y-72776190D01*
X87838100Y-74204762D01*
X88314290Y-72204762D01*
X89933337Y-74204762D02*
X89933337Y-73157143D01*
X89838099Y-72966667D01*
X89647623Y-72871429D01*
X89266671Y-72871429D01*
X89076194Y-72966667D01*
X89933337Y-74109524D02*
X89742861Y-74204762D01*
X89266671Y-74204762D01*
X89076194Y-74109524D01*
X88980956Y-73919048D01*
X88980956Y-73728571D01*
X89076194Y-73538095D01*
X89266671Y-73442857D01*
X89742861Y-73442857D01*
X89933337Y-73347619D01*
X90600004Y-72871429D02*
X91361909Y-72871429D01*
X90885718Y-72204762D02*
X90885718Y-73919048D01*
X90980957Y-74109524D01*
X91171433Y-74204762D01*
X91361909Y-74204762D01*
X91742861Y-72871429D02*
X92504766Y-72871429D01*
X92028575Y-72204762D02*
X92028575Y-73919048D01*
X92123814Y-74109524D01*
X92314290Y-74204762D01*
X92504766Y-74204762D01*
X93076194Y-74109524D02*
X93266671Y-74204762D01*
X93647623Y-74204762D01*
X93838099Y-74109524D01*
X93933337Y-73919048D01*
X93933337Y-73823810D01*
X93838099Y-73633333D01*
X93647623Y-73538095D01*
X93361909Y-73538095D01*
X93171432Y-73442857D01*
X93076194Y-73252381D01*
X93076194Y-73157143D01*
X93171432Y-72966667D01*
X93361909Y-72871429D01*
X93647623Y-72871429D01*
X93838099Y-72966667D01*
X96885719Y-74966667D02*
X96790481Y-74871429D01*
X96600005Y-74585714D01*
X96504767Y-74395238D01*
X96409529Y-74109524D01*
X96314290Y-73633333D01*
X96314290Y-73252381D01*
X96409529Y-72776190D01*
X96504767Y-72490476D01*
X96600005Y-72300000D01*
X96790481Y-72014286D01*
X96885719Y-71919048D01*
X98695243Y-74204762D02*
X97552385Y-74204762D01*
X98123814Y-74204762D02*
X98123814Y-72204762D01*
X97933338Y-72490476D01*
X97742862Y-72680952D01*
X97552385Y-72776190D01*
X101457148Y-72204762D02*
X101838100Y-72204762D01*
X102028576Y-72300000D01*
X102219053Y-72490476D01*
X102314291Y-72871429D01*
X102314291Y-73538095D01*
X102219053Y-73919048D01*
X102028576Y-74109524D01*
X101838100Y-74204762D01*
X101457148Y-74204762D01*
X101266672Y-74109524D01*
X101076195Y-73919048D01*
X100980957Y-73538095D01*
X100980957Y-72871429D01*
X101076195Y-72490476D01*
X101266672Y-72300000D01*
X101457148Y-72204762D01*
X103171433Y-74204762D02*
X103171433Y-72204762D01*
X104028576Y-74204762D02*
X104028576Y-73157143D01*
X103933338Y-72966667D01*
X103742862Y-72871429D01*
X103457148Y-72871429D01*
X103266672Y-72966667D01*
X103171433Y-73061905D01*
X104980957Y-74204762D02*
X104980957Y-72871429D01*
X104980957Y-73061905D02*
X105076196Y-72966667D01*
X105266672Y-72871429D01*
X105552386Y-72871429D01*
X105742862Y-72966667D01*
X105838100Y-73157143D01*
X105838100Y-74204762D01*
X105838100Y-73157143D02*
X105933338Y-72966667D01*
X106123815Y-72871429D01*
X106409529Y-72871429D01*
X106600005Y-72966667D01*
X106695243Y-73157143D01*
X106695243Y-74204762D01*
X107552386Y-74109524D02*
X107742863Y-74204762D01*
X108123815Y-74204762D01*
X108314291Y-74109524D01*
X108409529Y-73919048D01*
X108409529Y-73823810D01*
X108314291Y-73633333D01*
X108123815Y-73538095D01*
X107838101Y-73538095D01*
X107647624Y-73442857D01*
X107552386Y-73252381D01*
X107552386Y-73157143D01*
X107647624Y-72966667D01*
X107838101Y-72871429D01*
X108123815Y-72871429D01*
X108314291Y-72966667D01*
X109076196Y-74966667D02*
X109171434Y-74871429D01*
X109361911Y-74585714D01*
X109457149Y-74395238D01*
X109552387Y-74109524D01*
X109647625Y-73633333D01*
X109647625Y-73252381D01*
X109552387Y-72776190D01*
X109457149Y-72490476D01*
X109361911Y-72300000D01*
X109171434Y-72014286D01*
X109076196Y-71919048D01*
X68600002Y-75495238D02*
X68695240Y-75400000D01*
X68885717Y-75304762D01*
X69361907Y-75304762D01*
X69552383Y-75400000D01*
X69647621Y-75495238D01*
X69742860Y-75685714D01*
X69742860Y-75876190D01*
X69647621Y-76161905D01*
X68504764Y-77304762D01*
X69742860Y-77304762D01*
X71457145Y-75971429D02*
X71457145Y-77304762D01*
X70980955Y-75209524D02*
X70504764Y-76638095D01*
X71742860Y-76638095D01*
X72314288Y-75971429D02*
X72790479Y-77304762D01*
X73266669Y-75971429D01*
X75552384Y-76542857D02*
X77076194Y-76542857D01*
X79361908Y-75304762D02*
X80695242Y-75304762D01*
X79838099Y-77304762D01*
X81361908Y-75495238D02*
X81457146Y-75400000D01*
X81647623Y-75304762D01*
X82123813Y-75304762D01*
X82314289Y-75400000D01*
X82409527Y-75495238D01*
X82504766Y-75685714D01*
X82504766Y-75876190D01*
X82409527Y-76161905D01*
X81266670Y-77304762D01*
X82504766Y-77304762D01*
X83742861Y-75304762D02*
X83933337Y-75304762D01*
X84123813Y-75400000D01*
X84219051Y-75495238D01*
X84314289Y-75685714D01*
X84409528Y-76066667D01*
X84409528Y-76542857D01*
X84314289Y-76923810D01*
X84219051Y-77114286D01*
X84123813Y-77209524D01*
X83933337Y-77304762D01*
X83742861Y-77304762D01*
X83552385Y-77209524D01*
X83457147Y-77114286D01*
X83361908Y-76923810D01*
X83266670Y-76542857D01*
X83266670Y-76066667D01*
X83361908Y-75685714D01*
X83457147Y-75495238D01*
X83552385Y-75400000D01*
X83742861Y-75304762D01*
X86600004Y-75304762D02*
X87076195Y-77304762D01*
X87457147Y-75876190D01*
X87838100Y-77304762D01*
X88314290Y-75304762D01*
X89933337Y-77304762D02*
X89933337Y-76257143D01*
X89838099Y-76066667D01*
X89647623Y-75971429D01*
X89266671Y-75971429D01*
X89076194Y-76066667D01*
X89933337Y-77209524D02*
X89742861Y-77304762D01*
X89266671Y-77304762D01*
X89076194Y-77209524D01*
X88980956Y-77019048D01*
X88980956Y-76828571D01*
X89076194Y-76638095D01*
X89266671Y-76542857D01*
X89742861Y-76542857D01*
X89933337Y-76447619D01*
X90600004Y-75971429D02*
X91361909Y-75971429D01*
X90885718Y-75304762D02*
X90885718Y-77019048D01*
X90980957Y-77209524D01*
X91171433Y-77304762D01*
X91361909Y-77304762D01*
X91742861Y-75971429D02*
X92504766Y-75971429D01*
X92028575Y-75304762D02*
X92028575Y-77019048D01*
X92123814Y-77209524D01*
X92314290Y-77304762D01*
X92504766Y-77304762D01*
X93076194Y-77209524D02*
X93266671Y-77304762D01*
X93647623Y-77304762D01*
X93838099Y-77209524D01*
X93933337Y-77019048D01*
X93933337Y-76923810D01*
X93838099Y-76733333D01*
X93647623Y-76638095D01*
X93361909Y-76638095D01*
X93171432Y-76542857D01*
X93076194Y-76352381D01*
X93076194Y-76257143D01*
X93171432Y-76066667D01*
X93361909Y-75971429D01*
X93647623Y-75971429D01*
X93838099Y-76066667D01*
X96885719Y-78066667D02*
X96790481Y-77971429D01*
X96600005Y-77685714D01*
X96504767Y-77495238D01*
X96409529Y-77209524D01*
X96314290Y-76733333D01*
X96314290Y-76352381D01*
X96409529Y-75876190D01*
X96504767Y-75590476D01*
X96600005Y-75400000D01*
X96790481Y-75114286D01*
X96885719Y-75019048D01*
X98028576Y-75304762D02*
X98219052Y-75304762D01*
X98409528Y-75400000D01*
X98504766Y-75495238D01*
X98600004Y-75685714D01*
X98695243Y-76066667D01*
X98695243Y-76542857D01*
X98600004Y-76923810D01*
X98504766Y-77114286D01*
X98409528Y-77209524D01*
X98219052Y-77304762D01*
X98028576Y-77304762D01*
X97838100Y-77209524D01*
X97742862Y-77114286D01*
X97647623Y-76923810D01*
X97552385Y-76542857D01*
X97552385Y-76066667D01*
X97647623Y-75685714D01*
X97742862Y-75495238D01*
X97838100Y-75400000D01*
X98028576Y-75304762D01*
X99552385Y-77114286D02*
X99647624Y-77209524D01*
X99552385Y-77304762D01*
X99457147Y-77209524D01*
X99552385Y-77114286D01*
X99552385Y-77304762D01*
X100790481Y-76161905D02*
X100600005Y-76066667D01*
X100504766Y-75971429D01*
X100409528Y-75780952D01*
X100409528Y-75685714D01*
X100504766Y-75495238D01*
X100600005Y-75400000D01*
X100790481Y-75304762D01*
X101171433Y-75304762D01*
X101361909Y-75400000D01*
X101457147Y-75495238D01*
X101552386Y-75685714D01*
X101552386Y-75780952D01*
X101457147Y-75971429D01*
X101361909Y-76066667D01*
X101171433Y-76161905D01*
X100790481Y-76161905D01*
X100600005Y-76257143D01*
X100504766Y-76352381D01*
X100409528Y-76542857D01*
X100409528Y-76923810D01*
X100504766Y-77114286D01*
X100600005Y-77209524D01*
X100790481Y-77304762D01*
X101171433Y-77304762D01*
X101361909Y-77209524D01*
X101457147Y-77114286D01*
X101552386Y-76923810D01*
X101552386Y-76542857D01*
X101457147Y-76352381D01*
X101361909Y-76257143D01*
X101171433Y-76161905D01*
X104314291Y-75304762D02*
X104695243Y-75304762D01*
X104885719Y-75400000D01*
X105076196Y-75590476D01*
X105171434Y-75971429D01*
X105171434Y-76638095D01*
X105076196Y-77019048D01*
X104885719Y-77209524D01*
X104695243Y-77304762D01*
X104314291Y-77304762D01*
X104123815Y-77209524D01*
X103933338Y-77019048D01*
X103838100Y-76638095D01*
X103838100Y-75971429D01*
X103933338Y-75590476D01*
X104123815Y-75400000D01*
X104314291Y-75304762D01*
X106028576Y-77304762D02*
X106028576Y-75304762D01*
X106885719Y-77304762D02*
X106885719Y-76257143D01*
X106790481Y-76066667D01*
X106600005Y-75971429D01*
X106314291Y-75971429D01*
X106123815Y-76066667D01*
X106028576Y-76161905D01*
X107838100Y-77304762D02*
X107838100Y-75971429D01*
X107838100Y-76161905D02*
X107933339Y-76066667D01*
X108123815Y-75971429D01*
X108409529Y-75971429D01*
X108600005Y-76066667D01*
X108695243Y-76257143D01*
X108695243Y-77304762D01*
X108695243Y-76257143D02*
X108790481Y-76066667D01*
X108980958Y-75971429D01*
X109266672Y-75971429D01*
X109457148Y-76066667D01*
X109552386Y-76257143D01*
X109552386Y-77304762D01*
X110409529Y-77209524D02*
X110600006Y-77304762D01*
X110980958Y-77304762D01*
X111171434Y-77209524D01*
X111266672Y-77019048D01*
X111266672Y-76923810D01*
X111171434Y-76733333D01*
X110980958Y-76638095D01*
X110695244Y-76638095D01*
X110504767Y-76542857D01*
X110409529Y-76352381D01*
X110409529Y-76257143D01*
X110504767Y-76066667D01*
X110695244Y-75971429D01*
X110980958Y-75971429D01*
X111171434Y-76066667D01*
X111933339Y-78066667D02*
X112028577Y-77971429D01*
X112219054Y-77685714D01*
X112314292Y-77495238D01*
X112409530Y-77209524D01*
X112504768Y-76733333D01*
X112504768Y-76352381D01*
X112409530Y-75876190D01*
X112314292Y-75590476D01*
X112219054Y-75400000D01*
X112028577Y-75114286D01*
X111933339Y-75019048D01*
X69742860Y-80404762D02*
X68600002Y-80404762D01*
X69171431Y-80404762D02*
X69171431Y-78404762D01*
X68980955Y-78690476D01*
X68790479Y-78880952D01*
X68600002Y-78976190D01*
X70504764Y-78595238D02*
X70600002Y-78500000D01*
X70790479Y-78404762D01*
X71266669Y-78404762D01*
X71457145Y-78500000D01*
X71552383Y-78595238D01*
X71647622Y-78785714D01*
X71647622Y-78976190D01*
X71552383Y-79261905D01*
X70409526Y-80404762D01*
X71647622Y-80404762D01*
X72314288Y-79071429D02*
X72790479Y-80404762D01*
X73266669Y-79071429D01*
X75552384Y-79642857D02*
X77076194Y-79642857D01*
X79361908Y-78404762D02*
X80600004Y-78404762D01*
X79933337Y-79166667D01*
X80219051Y-79166667D01*
X80409527Y-79261905D01*
X80504765Y-79357143D01*
X80600004Y-79547619D01*
X80600004Y-80023810D01*
X80504765Y-80214286D01*
X80409527Y-80309524D01*
X80219051Y-80404762D01*
X79647623Y-80404762D01*
X79457146Y-80309524D01*
X79361908Y-80214286D01*
X82314289Y-78404762D02*
X81933337Y-78404762D01*
X81742861Y-78500000D01*
X81647623Y-78595238D01*
X81457146Y-78880952D01*
X81361908Y-79261905D01*
X81361908Y-80023810D01*
X81457146Y-80214286D01*
X81552385Y-80309524D01*
X81742861Y-80404762D01*
X82123813Y-80404762D01*
X82314289Y-80309524D01*
X82409527Y-80214286D01*
X82504766Y-80023810D01*
X82504766Y-79547619D01*
X82409527Y-79357143D01*
X82314289Y-79261905D01*
X82123813Y-79166667D01*
X81742861Y-79166667D01*
X81552385Y-79261905D01*
X81457146Y-79357143D01*
X81361908Y-79547619D01*
X83742861Y-78404762D02*
X83933337Y-78404762D01*
X84123813Y-78500000D01*
X84219051Y-78595238D01*
X84314289Y-78785714D01*
X84409528Y-79166667D01*
X84409528Y-79642857D01*
X84314289Y-80023810D01*
X84219051Y-80214286D01*
X84123813Y-80309524D01*
X83933337Y-80404762D01*
X83742861Y-80404762D01*
X83552385Y-80309524D01*
X83457147Y-80214286D01*
X83361908Y-80023810D01*
X83266670Y-79642857D01*
X83266670Y-79166667D01*
X83361908Y-78785714D01*
X83457147Y-78595238D01*
X83552385Y-78500000D01*
X83742861Y-78404762D01*
X86600004Y-78404762D02*
X87076195Y-80404762D01*
X87457147Y-78976190D01*
X87838100Y-80404762D01*
X88314290Y-78404762D01*
X89933337Y-80404762D02*
X89933337Y-79357143D01*
X89838099Y-79166667D01*
X89647623Y-79071429D01*
X89266671Y-79071429D01*
X89076194Y-79166667D01*
X89933337Y-80309524D02*
X89742861Y-80404762D01*
X89266671Y-80404762D01*
X89076194Y-80309524D01*
X88980956Y-80119048D01*
X88980956Y-79928571D01*
X89076194Y-79738095D01*
X89266671Y-79642857D01*
X89742861Y-79642857D01*
X89933337Y-79547619D01*
X90600004Y-79071429D02*
X91361909Y-79071429D01*
X90885718Y-78404762D02*
X90885718Y-80119048D01*
X90980957Y-80309524D01*
X91171433Y-80404762D01*
X91361909Y-80404762D01*
X91742861Y-79071429D02*
X92504766Y-79071429D01*
X92028575Y-78404762D02*
X92028575Y-80119048D01*
X92123814Y-80309524D01*
X92314290Y-80404762D01*
X92504766Y-80404762D01*
X93076194Y-80309524D02*
X93266671Y-80404762D01*
X93647623Y-80404762D01*
X93838099Y-80309524D01*
X93933337Y-80119048D01*
X93933337Y-80023810D01*
X93838099Y-79833333D01*
X93647623Y-79738095D01*
X93361909Y-79738095D01*
X93171432Y-79642857D01*
X93076194Y-79452381D01*
X93076194Y-79357143D01*
X93171432Y-79166667D01*
X93361909Y-79071429D01*
X93647623Y-79071429D01*
X93838099Y-79166667D01*
X96885719Y-81166667D02*
X96790481Y-81071429D01*
X96600005Y-80785714D01*
X96504767Y-80595238D01*
X96409529Y-80309524D01*
X96314290Y-79833333D01*
X96314290Y-79452381D01*
X96409529Y-78976190D01*
X96504767Y-78690476D01*
X96600005Y-78500000D01*
X96790481Y-78214286D01*
X96885719Y-78119048D01*
X98028576Y-78404762D02*
X98219052Y-78404762D01*
X98409528Y-78500000D01*
X98504766Y-78595238D01*
X98600004Y-78785714D01*
X98695243Y-79166667D01*
X98695243Y-79642857D01*
X98600004Y-80023810D01*
X98504766Y-80214286D01*
X98409528Y-80309524D01*
X98219052Y-80404762D01*
X98028576Y-80404762D01*
X97838100Y-80309524D01*
X97742862Y-80214286D01*
X97647623Y-80023810D01*
X97552385Y-79642857D01*
X97552385Y-79166667D01*
X97647623Y-78785714D01*
X97742862Y-78595238D01*
X97838100Y-78500000D01*
X98028576Y-78404762D01*
X99552385Y-80214286D02*
X99647624Y-80309524D01*
X99552385Y-80404762D01*
X99457147Y-80309524D01*
X99552385Y-80214286D01*
X99552385Y-80404762D01*
X101361909Y-79071429D02*
X101361909Y-80404762D01*
X100885719Y-78309524D02*
X100409528Y-79738095D01*
X101647624Y-79738095D01*
X104314291Y-78404762D02*
X104695243Y-78404762D01*
X104885719Y-78500000D01*
X105076196Y-78690476D01*
X105171434Y-79071429D01*
X105171434Y-79738095D01*
X105076196Y-80119048D01*
X104885719Y-80309524D01*
X104695243Y-80404762D01*
X104314291Y-80404762D01*
X104123815Y-80309524D01*
X103933338Y-80119048D01*
X103838100Y-79738095D01*
X103838100Y-79071429D01*
X103933338Y-78690476D01*
X104123815Y-78500000D01*
X104314291Y-78404762D01*
X106028576Y-80404762D02*
X106028576Y-78404762D01*
X106885719Y-80404762D02*
X106885719Y-79357143D01*
X106790481Y-79166667D01*
X106600005Y-79071429D01*
X106314291Y-79071429D01*
X106123815Y-79166667D01*
X106028576Y-79261905D01*
X107838100Y-80404762D02*
X107838100Y-79071429D01*
X107838100Y-79261905D02*
X107933339Y-79166667D01*
X108123815Y-79071429D01*
X108409529Y-79071429D01*
X108600005Y-79166667D01*
X108695243Y-79357143D01*
X108695243Y-80404762D01*
X108695243Y-79357143D02*
X108790481Y-79166667D01*
X108980958Y-79071429D01*
X109266672Y-79071429D01*
X109457148Y-79166667D01*
X109552386Y-79357143D01*
X109552386Y-80404762D01*
X110409529Y-80309524D02*
X110600006Y-80404762D01*
X110980958Y-80404762D01*
X111171434Y-80309524D01*
X111266672Y-80119048D01*
X111266672Y-80023810D01*
X111171434Y-79833333D01*
X110980958Y-79738095D01*
X110695244Y-79738095D01*
X110504767Y-79642857D01*
X110409529Y-79452381D01*
X110409529Y-79357143D01*
X110504767Y-79166667D01*
X110695244Y-79071429D01*
X110980958Y-79071429D01*
X111171434Y-79166667D01*
X111933339Y-81166667D02*
X112028577Y-81071429D01*
X112219054Y-80785714D01*
X112314292Y-80595238D01*
X112409530Y-80309524D01*
X112504768Y-79833333D01*
X112504768Y-79452381D01*
X112409530Y-78976190D01*
X112314292Y-78690476D01*
X112219054Y-78500000D01*
X112028577Y-78214286D01*
X111933339Y-78119048D01*
M02*
