M48
;DRILL file {KiCad 4.0.6} date 04/27/17 23:51:21
;FORMAT={-:-/ absolute / metric / decimal}
FMAT,2
METRIC,TZ
T1C0.400
T2C1.000
T3C2.000
%
G90
G05
M71
T1
X71.92Y-121.79
X72.01Y-116.84
X74.Y-109.5
X76.5Y-116.75
X76.67Y-121.82
X89.Y-121.48
X103.39Y-116.49
X103.39Y-119.04
X103.39Y-120.31
T2
X95.81Y-116.65
X95.81Y-118.4
X95.81Y-120.15
X96.56Y-114.9
X96.56Y-121.9
X98.56Y-114.9
X98.56Y-121.9
X100.56Y-114.9
X100.56Y-121.9
T3
X70.68Y-125.4
X70.68Y-130.4
X70.68Y-135.4
X77.69Y-125.4
X77.69Y-130.4
X77.69Y-135.4
X81.93Y-125.4
X81.93Y-130.4
X81.93Y-135.4
X88.94Y-125.4
X88.94Y-130.4
X88.94Y-135.4
X93.18Y-125.4
X93.18Y-130.4
X93.18Y-135.4
X100.19Y-125.4
X100.19Y-130.4
X100.19Y-135.4
X104.43Y-125.4
X104.43Y-130.4
X104.43Y-135.4
X111.44Y-125.4
X111.44Y-130.4
X111.44Y-135.4
T0
M30
