%FSLAX45Y45*%
G04 Gerber Fmt 4.5, Leading zero omitted, Abs format (unit mm)*
G04 Created by KiCad (PCBNEW 4.0.6) date 05/13/17 18:14:58*
%MOMM*%
%LPD*%
G01*
G04 APERTURE LIST*
%ADD10C,0.127000*%
%ADD11C,0.150000*%
%ADD12C,0.200000*%
%ADD13C,0.300000*%
G04 APERTURE END LIST*
D10*
D11*
X11500000Y-10400000D02*
X11500000Y-13900000D01*
X6700000Y-10400000D02*
X11500000Y-10400000D01*
X6700000Y-13900000D02*
X6700000Y-10400000D01*
X6725000Y-13900000D02*
X11500000Y-13900000D01*
X6700000Y-13900000D02*
X6725000Y-13900000D01*
D12*
X7170000Y-11470000D02*
X7210000Y-11510000D01*
X7210000Y-11470000D02*
X7170000Y-11510000D01*
X7180000Y-11990000D02*
X7220000Y-12030000D01*
X7220000Y-11990000D02*
X7180000Y-12030000D01*
X7630000Y-11480000D02*
X7670000Y-11520000D01*
X7670000Y-11480000D02*
X7630000Y-11520000D01*
X7640000Y-11980000D02*
X7680000Y-12020000D01*
X7680000Y-11980000D02*
X7640000Y-12020000D01*
X10180000Y-10805000D02*
X10220000Y-10845000D01*
X10220000Y-10805000D02*
X10180000Y-10845000D01*
X10405000Y-11930000D02*
X10445000Y-11970000D01*
X10445000Y-11930000D02*
X10405000Y-11970000D01*
X10505000Y-11930000D02*
X10545000Y-11970000D01*
X10545000Y-11930000D02*
X10505000Y-11970000D01*
X10605000Y-11930000D02*
X10645000Y-11970000D01*
X10645000Y-11930000D02*
X10605000Y-11970000D01*
X10705000Y-11930000D02*
X10745000Y-11970000D01*
X10745000Y-11930000D02*
X10705000Y-11970000D01*
X9150000Y-11200000D02*
G75*
G03X9150000Y-11200000I-50000J0D01*
G01*
X9150000Y-11400000D02*
G75*
G03X9150000Y-11400000I-50000J0D01*
G01*
X9150000Y-11600000D02*
G75*
G03X9150000Y-11600000I-50000J0D01*
G01*
X9150000Y-11800000D02*
G75*
G03X9150000Y-11800000I-50000J0D01*
G01*
X9150000Y-12000000D02*
G75*
G03X9150000Y-12000000I-50000J0D01*
G01*
X9150000Y-12200000D02*
G75*
G03X9150000Y-12200000I-50000J0D01*
G01*
X9350000Y-11200000D02*
G75*
G03X9350000Y-11200000I-50000J0D01*
G01*
X9350000Y-11400000D02*
G75*
G03X9350000Y-11400000I-50000J0D01*
G01*
X9350000Y-11600000D02*
G75*
G03X9350000Y-11600000I-50000J0D01*
G01*
X9350000Y-11800000D02*
G75*
G03X9350000Y-11800000I-50000J0D01*
G01*
X9350000Y-12000000D02*
G75*
G03X9350000Y-12000000I-50000J0D01*
G01*
X9350000Y-12200000D02*
G75*
G03X9350000Y-12200000I-50000J0D01*
G01*
X9550000Y-11200000D02*
G75*
G03X9550000Y-11200000I-50000J0D01*
G01*
X9550000Y-11400000D02*
G75*
G03X9550000Y-11400000I-50000J0D01*
G01*
X9550000Y-11600000D02*
G75*
G03X9550000Y-11600000I-50000J0D01*
G01*
X9550000Y-11800000D02*
G75*
G03X9550000Y-11800000I-50000J0D01*
G01*
X9550000Y-12000000D02*
G75*
G03X9550000Y-12000000I-50000J0D01*
G01*
X9550000Y-12200000D02*
G75*
G03X9550000Y-12200000I-50000J0D01*
G01*
X9750000Y-11200000D02*
G75*
G03X9750000Y-11200000I-50000J0D01*
G01*
X9750000Y-11400000D02*
G75*
G03X9750000Y-11400000I-50000J0D01*
G01*
X9750000Y-11600000D02*
G75*
G03X9750000Y-11600000I-50000J0D01*
G01*
X9750000Y-11800000D02*
G75*
G03X9750000Y-11800000I-50000J0D01*
G01*
X9750000Y-12000000D02*
G75*
G03X9750000Y-12000000I-50000J0D01*
G01*
X9750000Y-12200000D02*
G75*
G03X9750000Y-12200000I-50000J0D01*
G01*
X9950000Y-11200000D02*
G75*
G03X9950000Y-11200000I-50000J0D01*
G01*
X9950000Y-11400000D02*
G75*
G03X9950000Y-11400000I-50000J0D01*
G01*
X9950000Y-11600000D02*
G75*
G03X9950000Y-11600000I-50000J0D01*
G01*
X9950000Y-11800000D02*
G75*
G03X9950000Y-11800000I-50000J0D01*
G01*
X9950000Y-12000000D02*
G75*
G03X9950000Y-12000000I-50000J0D01*
G01*
X9950000Y-12200000D02*
G75*
G03X9950000Y-12200000I-50000J0D01*
G01*
X10150000Y-11200000D02*
G75*
G03X10150000Y-11200000I-50000J0D01*
G01*
X10150000Y-11400000D02*
G75*
G03X10150000Y-11400000I-50000J0D01*
G01*
X10150000Y-11600000D02*
G75*
G03X10150000Y-11600000I-50000J0D01*
G01*
X10150000Y-11800000D02*
G75*
G03X10150000Y-11800000I-50000J0D01*
G01*
X10150000Y-12000000D02*
G75*
G03X10150000Y-12000000I-50000J0D01*
G01*
X10150000Y-12200000D02*
G75*
G03X10150000Y-12200000I-50000J0D01*
G01*
X7068000Y-12440000D02*
X7068000Y-12640000D01*
X6968000Y-12540000D02*
X7168000Y-12540000D01*
X7068000Y-12940000D02*
X7068000Y-13140000D01*
X6968000Y-13040000D02*
X7168000Y-13040000D01*
X7068000Y-13440000D02*
X7068000Y-13640000D01*
X6968000Y-13540000D02*
X7168000Y-13540000D01*
X7769000Y-12440000D02*
X7769000Y-12640000D01*
X7669000Y-12540000D02*
X7869000Y-12540000D01*
X7769000Y-12940000D02*
X7769000Y-13140000D01*
X7669000Y-13040000D02*
X7869000Y-13040000D01*
X7769000Y-13440000D02*
X7769000Y-13640000D01*
X7669000Y-13540000D02*
X7869000Y-13540000D01*
X8193000Y-12440000D02*
X8193000Y-12640000D01*
X8093000Y-12540000D02*
X8293000Y-12540000D01*
X8193000Y-12940000D02*
X8193000Y-13140000D01*
X8093000Y-13040000D02*
X8293000Y-13040000D01*
X8193000Y-13440000D02*
X8193000Y-13640000D01*
X8093000Y-13540000D02*
X8293000Y-13540000D01*
X8894000Y-12440000D02*
X8894000Y-12640000D01*
X8794000Y-12540000D02*
X8994000Y-12540000D01*
X8894000Y-12940000D02*
X8894000Y-13140000D01*
X8794000Y-13040000D02*
X8994000Y-13040000D01*
X8894000Y-13440000D02*
X8894000Y-13640000D01*
X8794000Y-13540000D02*
X8994000Y-13540000D01*
X9318000Y-12440000D02*
X9318000Y-12640000D01*
X9218000Y-12540000D02*
X9418000Y-12540000D01*
X9318000Y-12940000D02*
X9318000Y-13140000D01*
X9218000Y-13040000D02*
X9418000Y-13040000D01*
X9318000Y-13440000D02*
X9318000Y-13640000D01*
X9218000Y-13540000D02*
X9418000Y-13540000D01*
X10019000Y-12440000D02*
X10019000Y-12640000D01*
X9919000Y-12540000D02*
X10119000Y-12540000D01*
X10019000Y-12940000D02*
X10019000Y-13140000D01*
X9919000Y-13040000D02*
X10119000Y-13040000D01*
X10019000Y-13440000D02*
X10019000Y-13640000D01*
X9919000Y-13540000D02*
X10119000Y-13540000D01*
X10443000Y-12440000D02*
X10443000Y-12640000D01*
X10343000Y-12540000D02*
X10543000Y-12540000D01*
X10443000Y-12940000D02*
X10443000Y-13140000D01*
X10343000Y-13040000D02*
X10543000Y-13040000D01*
X10443000Y-13440000D02*
X10443000Y-13640000D01*
X10343000Y-13540000D02*
X10543000Y-13540000D01*
X11144000Y-12440000D02*
X11144000Y-12640000D01*
X11044000Y-12540000D02*
X11244000Y-12540000D01*
X11144000Y-12940000D02*
X11144000Y-13140000D01*
X11044000Y-13040000D02*
X11244000Y-13040000D01*
X11144000Y-13440000D02*
X11144000Y-13640000D01*
X11044000Y-13540000D02*
X11244000Y-13540000D01*
D13*
X6963928Y-14373214D02*
X6963928Y-14073214D01*
X7035357Y-14073214D01*
X7078214Y-14087500D01*
X7106786Y-14116071D01*
X7121071Y-14144643D01*
X7135357Y-14201786D01*
X7135357Y-14244643D01*
X7121071Y-14301786D01*
X7106786Y-14330357D01*
X7078214Y-14358929D01*
X7035357Y-14373214D01*
X6963928Y-14373214D01*
X7263928Y-14373214D02*
X7263928Y-14173214D01*
X7263928Y-14230357D02*
X7278214Y-14201786D01*
X7292500Y-14187500D01*
X7321071Y-14173214D01*
X7349643Y-14173214D01*
X7449643Y-14373214D02*
X7449643Y-14173214D01*
X7449643Y-14073214D02*
X7435357Y-14087500D01*
X7449643Y-14101786D01*
X7463928Y-14087500D01*
X7449643Y-14073214D01*
X7449643Y-14101786D01*
X7635357Y-14373214D02*
X7606786Y-14358929D01*
X7592500Y-14330357D01*
X7592500Y-14073214D01*
X7792500Y-14373214D02*
X7763928Y-14358929D01*
X7749643Y-14330357D01*
X7749643Y-14073214D01*
X8135357Y-14373214D02*
X8135357Y-14073214D01*
X8235357Y-14287500D01*
X8335357Y-14073214D01*
X8335357Y-14373214D01*
X8606786Y-14373214D02*
X8606786Y-14216071D01*
X8592500Y-14187500D01*
X8563929Y-14173214D01*
X8506786Y-14173214D01*
X8478214Y-14187500D01*
X8606786Y-14358929D02*
X8578214Y-14373214D01*
X8506786Y-14373214D01*
X8478214Y-14358929D01*
X8463929Y-14330357D01*
X8463929Y-14301786D01*
X8478214Y-14273214D01*
X8506786Y-14258929D01*
X8578214Y-14258929D01*
X8606786Y-14244643D01*
X8749643Y-14173214D02*
X8749643Y-14473214D01*
X8749643Y-14187500D02*
X8778214Y-14173214D01*
X8835357Y-14173214D01*
X8863929Y-14187500D01*
X8878214Y-14201786D01*
X8892500Y-14230357D01*
X8892500Y-14316071D01*
X8878214Y-14344643D01*
X8863929Y-14358929D01*
X8835357Y-14373214D01*
X8778214Y-14373214D01*
X8749643Y-14358929D01*
X9021071Y-14344643D02*
X9035357Y-14358929D01*
X9021071Y-14373214D01*
X9006786Y-14358929D01*
X9021071Y-14344643D01*
X9021071Y-14373214D01*
X9021071Y-14187500D02*
X9035357Y-14201786D01*
X9021071Y-14216071D01*
X9006786Y-14201786D01*
X9021071Y-14187500D01*
X9021071Y-14216071D01*
X6652500Y-14847500D02*
X6692500Y-14887500D01*
X6692500Y-14847500D02*
X6652500Y-14887500D01*
X7021071Y-14703214D02*
X7049643Y-14703214D01*
X7078214Y-14717500D01*
X7092500Y-14731786D01*
X7106786Y-14760357D01*
X7121071Y-14817500D01*
X7121071Y-14888929D01*
X7106786Y-14946071D01*
X7092500Y-14974643D01*
X7078214Y-14988929D01*
X7049643Y-15003214D01*
X7021071Y-15003214D01*
X6992500Y-14988929D01*
X6978214Y-14974643D01*
X6963928Y-14946071D01*
X6949643Y-14888929D01*
X6949643Y-14817500D01*
X6963928Y-14760357D01*
X6978214Y-14731786D01*
X6992500Y-14717500D01*
X7021071Y-14703214D01*
X7249643Y-14974643D02*
X7263928Y-14988929D01*
X7249643Y-15003214D01*
X7235357Y-14988929D01*
X7249643Y-14974643D01*
X7249643Y-15003214D01*
X7521071Y-14803214D02*
X7521071Y-15003214D01*
X7449643Y-14688929D02*
X7378214Y-14903214D01*
X7563928Y-14903214D01*
X7735357Y-14703214D02*
X7763928Y-14703214D01*
X7792500Y-14717500D01*
X7806786Y-14731786D01*
X7821071Y-14760357D01*
X7835357Y-14817500D01*
X7835357Y-14888929D01*
X7821071Y-14946071D01*
X7806786Y-14974643D01*
X7792500Y-14988929D01*
X7763928Y-15003214D01*
X7735357Y-15003214D01*
X7706786Y-14988929D01*
X7692500Y-14974643D01*
X7678214Y-14946071D01*
X7663928Y-14888929D01*
X7663928Y-14817500D01*
X7678214Y-14760357D01*
X7692500Y-14731786D01*
X7706786Y-14717500D01*
X7735357Y-14703214D01*
X7963928Y-15003214D02*
X7963928Y-14803214D01*
X7963928Y-14831786D02*
X7978214Y-14817500D01*
X8006786Y-14803214D01*
X8049643Y-14803214D01*
X8078214Y-14817500D01*
X8092500Y-14846071D01*
X8092500Y-15003214D01*
X8092500Y-14846071D02*
X8106786Y-14817500D01*
X8135357Y-14803214D01*
X8178214Y-14803214D01*
X8206786Y-14817500D01*
X8221071Y-14846071D01*
X8221071Y-15003214D01*
X8363928Y-15003214D02*
X8363928Y-14803214D01*
X8363928Y-14831786D02*
X8378214Y-14817500D01*
X8406786Y-14803214D01*
X8449643Y-14803214D01*
X8478214Y-14817500D01*
X8492500Y-14846071D01*
X8492500Y-15003214D01*
X8492500Y-14846071D02*
X8506786Y-14817500D01*
X8535357Y-14803214D01*
X8578214Y-14803214D01*
X8606786Y-14817500D01*
X8621071Y-14846071D01*
X8621071Y-15003214D01*
X9206786Y-14688929D02*
X8949643Y-15074643D01*
X9592500Y-14703214D02*
X9621071Y-14703214D01*
X9649643Y-14717500D01*
X9663928Y-14731786D01*
X9678214Y-14760357D01*
X9692500Y-14817500D01*
X9692500Y-14888929D01*
X9678214Y-14946071D01*
X9663928Y-14974643D01*
X9649643Y-14988929D01*
X9621071Y-15003214D01*
X9592500Y-15003214D01*
X9563928Y-14988929D01*
X9549643Y-14974643D01*
X9535357Y-14946071D01*
X9521071Y-14888929D01*
X9521071Y-14817500D01*
X9535357Y-14760357D01*
X9549643Y-14731786D01*
X9563928Y-14717500D01*
X9592500Y-14703214D01*
X9821071Y-14974643D02*
X9835357Y-14988929D01*
X9821071Y-15003214D01*
X9806786Y-14988929D01*
X9821071Y-14974643D01*
X9821071Y-15003214D01*
X10021071Y-14703214D02*
X10049643Y-14703214D01*
X10078214Y-14717500D01*
X10092500Y-14731786D01*
X10106786Y-14760357D01*
X10121071Y-14817500D01*
X10121071Y-14888929D01*
X10106786Y-14946071D01*
X10092500Y-14974643D01*
X10078214Y-14988929D01*
X10049643Y-15003214D01*
X10021071Y-15003214D01*
X9992500Y-14988929D01*
X9978214Y-14974643D01*
X9963928Y-14946071D01*
X9949643Y-14888929D01*
X9949643Y-14817500D01*
X9963928Y-14760357D01*
X9978214Y-14731786D01*
X9992500Y-14717500D01*
X10021071Y-14703214D01*
X10406786Y-15003214D02*
X10235357Y-15003214D01*
X10321071Y-15003214D02*
X10321071Y-14703214D01*
X10292500Y-14746071D01*
X10263928Y-14774643D01*
X10235357Y-14788929D01*
X10663928Y-14703214D02*
X10606786Y-14703214D01*
X10578214Y-14717500D01*
X10563928Y-14731786D01*
X10535357Y-14774643D01*
X10521071Y-14831786D01*
X10521071Y-14946071D01*
X10535357Y-14974643D01*
X10549643Y-14988929D01*
X10578214Y-15003214D01*
X10635357Y-15003214D01*
X10663928Y-14988929D01*
X10678214Y-14974643D01*
X10692500Y-14946071D01*
X10692500Y-14874643D01*
X10678214Y-14846071D01*
X10663928Y-14831786D01*
X10635357Y-14817500D01*
X10578214Y-14817500D01*
X10549643Y-14831786D01*
X10535357Y-14846071D01*
X10521071Y-14874643D01*
X10806786Y-14703214D02*
X10806786Y-14760357D01*
X10921071Y-14703214D02*
X10921071Y-14760357D01*
X11363928Y-15117500D02*
X11349643Y-15103214D01*
X11321071Y-15060357D01*
X11306785Y-15031786D01*
X11292500Y-14988929D01*
X11278214Y-14917500D01*
X11278214Y-14860357D01*
X11292500Y-14788929D01*
X11306785Y-14746071D01*
X11321071Y-14717500D01*
X11349643Y-14674643D01*
X11363928Y-14660357D01*
X11492500Y-15003214D02*
X11549643Y-15003214D01*
X11578214Y-14988929D01*
X11592500Y-14974643D01*
X11621071Y-14931786D01*
X11635357Y-14874643D01*
X11635357Y-14760357D01*
X11621071Y-14731786D01*
X11606785Y-14717500D01*
X11578214Y-14703214D01*
X11521071Y-14703214D01*
X11492500Y-14717500D01*
X11478214Y-14731786D01*
X11463928Y-14760357D01*
X11463928Y-14831786D01*
X11478214Y-14860357D01*
X11492500Y-14874643D01*
X11521071Y-14888929D01*
X11578214Y-14888929D01*
X11606785Y-14874643D01*
X11621071Y-14860357D01*
X11635357Y-14831786D01*
X11992500Y-15003214D02*
X11992500Y-14703214D01*
X12121071Y-15003214D02*
X12121071Y-14846071D01*
X12106785Y-14817500D01*
X12078214Y-14803214D01*
X12035357Y-14803214D01*
X12006785Y-14817500D01*
X11992500Y-14831786D01*
X12306785Y-15003214D02*
X12278214Y-14988929D01*
X12263928Y-14974643D01*
X12249643Y-14946071D01*
X12249643Y-14860357D01*
X12263928Y-14831786D01*
X12278214Y-14817500D01*
X12306785Y-14803214D01*
X12349643Y-14803214D01*
X12378214Y-14817500D01*
X12392500Y-14831786D01*
X12406785Y-14860357D01*
X12406785Y-14946071D01*
X12392500Y-14974643D01*
X12378214Y-14988929D01*
X12349643Y-15003214D01*
X12306785Y-15003214D01*
X12578214Y-15003214D02*
X12549643Y-14988929D01*
X12535357Y-14960357D01*
X12535357Y-14703214D01*
X12806786Y-14988929D02*
X12778214Y-15003214D01*
X12721071Y-15003214D01*
X12692500Y-14988929D01*
X12678214Y-14960357D01*
X12678214Y-14846071D01*
X12692500Y-14817500D01*
X12721071Y-14803214D01*
X12778214Y-14803214D01*
X12806786Y-14817500D01*
X12821071Y-14846071D01*
X12821071Y-14874643D01*
X12678214Y-14903214D01*
X12935357Y-14988929D02*
X12963928Y-15003214D01*
X13021071Y-15003214D01*
X13049643Y-14988929D01*
X13063928Y-14960357D01*
X13063928Y-14946071D01*
X13049643Y-14917500D01*
X13021071Y-14903214D01*
X12978214Y-14903214D01*
X12949643Y-14888929D01*
X12935357Y-14860357D01*
X12935357Y-14846071D01*
X12949643Y-14817500D01*
X12978214Y-14803214D01*
X13021071Y-14803214D01*
X13049643Y-14817500D01*
X13163928Y-15117500D02*
X13178214Y-15103214D01*
X13206786Y-15060357D01*
X13221071Y-15031786D01*
X13235357Y-14988929D01*
X13249643Y-14917500D01*
X13249643Y-14860357D01*
X13235357Y-14788929D01*
X13221071Y-14746071D01*
X13206786Y-14717500D01*
X13178214Y-14674643D01*
X13163928Y-14660357D01*
X6692500Y-15263500D02*
G75*
G03X6692500Y-15263500I-50000J0D01*
G01*
X7121071Y-15399214D02*
X6949643Y-15399214D01*
X7035357Y-15399214D02*
X7035357Y-15099214D01*
X7006786Y-15142071D01*
X6978214Y-15170643D01*
X6949643Y-15184929D01*
X7249643Y-15370643D02*
X7263928Y-15384929D01*
X7249643Y-15399214D01*
X7235357Y-15384929D01*
X7249643Y-15370643D01*
X7249643Y-15399214D01*
X7449643Y-15099214D02*
X7478214Y-15099214D01*
X7506786Y-15113500D01*
X7521071Y-15127786D01*
X7535357Y-15156357D01*
X7549643Y-15213500D01*
X7549643Y-15284929D01*
X7535357Y-15342071D01*
X7521071Y-15370643D01*
X7506786Y-15384929D01*
X7478214Y-15399214D01*
X7449643Y-15399214D01*
X7421071Y-15384929D01*
X7406786Y-15370643D01*
X7392500Y-15342071D01*
X7378214Y-15284929D01*
X7378214Y-15213500D01*
X7392500Y-15156357D01*
X7406786Y-15127786D01*
X7421071Y-15113500D01*
X7449643Y-15099214D01*
X7735357Y-15099214D02*
X7763928Y-15099214D01*
X7792500Y-15113500D01*
X7806786Y-15127786D01*
X7821071Y-15156357D01*
X7835357Y-15213500D01*
X7835357Y-15284929D01*
X7821071Y-15342071D01*
X7806786Y-15370643D01*
X7792500Y-15384929D01*
X7763928Y-15399214D01*
X7735357Y-15399214D01*
X7706786Y-15384929D01*
X7692500Y-15370643D01*
X7678214Y-15342071D01*
X7663928Y-15284929D01*
X7663928Y-15213500D01*
X7678214Y-15156357D01*
X7692500Y-15127786D01*
X7706786Y-15113500D01*
X7735357Y-15099214D01*
X7963928Y-15399214D02*
X7963928Y-15199214D01*
X7963928Y-15227786D02*
X7978214Y-15213500D01*
X8006786Y-15199214D01*
X8049643Y-15199214D01*
X8078214Y-15213500D01*
X8092500Y-15242071D01*
X8092500Y-15399214D01*
X8092500Y-15242071D02*
X8106786Y-15213500D01*
X8135357Y-15199214D01*
X8178214Y-15199214D01*
X8206786Y-15213500D01*
X8221071Y-15242071D01*
X8221071Y-15399214D01*
X8363928Y-15399214D02*
X8363928Y-15199214D01*
X8363928Y-15227786D02*
X8378214Y-15213500D01*
X8406786Y-15199214D01*
X8449643Y-15199214D01*
X8478214Y-15213500D01*
X8492500Y-15242071D01*
X8492500Y-15399214D01*
X8492500Y-15242071D02*
X8506786Y-15213500D01*
X8535357Y-15199214D01*
X8578214Y-15199214D01*
X8606786Y-15213500D01*
X8621071Y-15242071D01*
X8621071Y-15399214D01*
X9206786Y-15084929D02*
X8949643Y-15470643D01*
X9592500Y-15099214D02*
X9621071Y-15099214D01*
X9649643Y-15113500D01*
X9663928Y-15127786D01*
X9678214Y-15156357D01*
X9692500Y-15213500D01*
X9692500Y-15284929D01*
X9678214Y-15342071D01*
X9663928Y-15370643D01*
X9649643Y-15384929D01*
X9621071Y-15399214D01*
X9592500Y-15399214D01*
X9563928Y-15384929D01*
X9549643Y-15370643D01*
X9535357Y-15342071D01*
X9521071Y-15284929D01*
X9521071Y-15213500D01*
X9535357Y-15156357D01*
X9549643Y-15127786D01*
X9563928Y-15113500D01*
X9592500Y-15099214D01*
X9821071Y-15370643D02*
X9835357Y-15384929D01*
X9821071Y-15399214D01*
X9806786Y-15384929D01*
X9821071Y-15370643D01*
X9821071Y-15399214D01*
X10021071Y-15099214D02*
X10049643Y-15099214D01*
X10078214Y-15113500D01*
X10092500Y-15127786D01*
X10106786Y-15156357D01*
X10121071Y-15213500D01*
X10121071Y-15284929D01*
X10106786Y-15342071D01*
X10092500Y-15370643D01*
X10078214Y-15384929D01*
X10049643Y-15399214D01*
X10021071Y-15399214D01*
X9992500Y-15384929D01*
X9978214Y-15370643D01*
X9963928Y-15342071D01*
X9949643Y-15284929D01*
X9949643Y-15213500D01*
X9963928Y-15156357D01*
X9978214Y-15127786D01*
X9992500Y-15113500D01*
X10021071Y-15099214D01*
X10221071Y-15099214D02*
X10406786Y-15099214D01*
X10306786Y-15213500D01*
X10349643Y-15213500D01*
X10378214Y-15227786D01*
X10392500Y-15242071D01*
X10406786Y-15270643D01*
X10406786Y-15342071D01*
X10392500Y-15370643D01*
X10378214Y-15384929D01*
X10349643Y-15399214D01*
X10263928Y-15399214D01*
X10235357Y-15384929D01*
X10221071Y-15370643D01*
X10549643Y-15399214D02*
X10606786Y-15399214D01*
X10635357Y-15384929D01*
X10649643Y-15370643D01*
X10678214Y-15327786D01*
X10692500Y-15270643D01*
X10692500Y-15156357D01*
X10678214Y-15127786D01*
X10663928Y-15113500D01*
X10635357Y-15099214D01*
X10578214Y-15099214D01*
X10549643Y-15113500D01*
X10535357Y-15127786D01*
X10521071Y-15156357D01*
X10521071Y-15227786D01*
X10535357Y-15256357D01*
X10549643Y-15270643D01*
X10578214Y-15284929D01*
X10635357Y-15284929D01*
X10663928Y-15270643D01*
X10678214Y-15256357D01*
X10692500Y-15227786D01*
X10806786Y-15099214D02*
X10806786Y-15156357D01*
X10921071Y-15099214D02*
X10921071Y-15156357D01*
X11363928Y-15513500D02*
X11349643Y-15499214D01*
X11321071Y-15456357D01*
X11306785Y-15427786D01*
X11292500Y-15384929D01*
X11278214Y-15313500D01*
X11278214Y-15256357D01*
X11292500Y-15184929D01*
X11306785Y-15142071D01*
X11321071Y-15113500D01*
X11349643Y-15070643D01*
X11363928Y-15056357D01*
X11449643Y-15099214D02*
X11635357Y-15099214D01*
X11535357Y-15213500D01*
X11578214Y-15213500D01*
X11606785Y-15227786D01*
X11621071Y-15242071D01*
X11635357Y-15270643D01*
X11635357Y-15342071D01*
X11621071Y-15370643D01*
X11606785Y-15384929D01*
X11578214Y-15399214D01*
X11492500Y-15399214D01*
X11463928Y-15384929D01*
X11449643Y-15370643D01*
X11892500Y-15099214D02*
X11835357Y-15099214D01*
X11806785Y-15113500D01*
X11792500Y-15127786D01*
X11763928Y-15170643D01*
X11749643Y-15227786D01*
X11749643Y-15342071D01*
X11763928Y-15370643D01*
X11778214Y-15384929D01*
X11806785Y-15399214D01*
X11863928Y-15399214D01*
X11892500Y-15384929D01*
X11906785Y-15370643D01*
X11921071Y-15342071D01*
X11921071Y-15270643D01*
X11906785Y-15242071D01*
X11892500Y-15227786D01*
X11863928Y-15213500D01*
X11806785Y-15213500D01*
X11778214Y-15227786D01*
X11763928Y-15242071D01*
X11749643Y-15270643D01*
X12278214Y-15399214D02*
X12278214Y-15099214D01*
X12406785Y-15399214D02*
X12406785Y-15242071D01*
X12392500Y-15213500D01*
X12363928Y-15199214D01*
X12321071Y-15199214D01*
X12292500Y-15213500D01*
X12278214Y-15227786D01*
X12592500Y-15399214D02*
X12563928Y-15384929D01*
X12549643Y-15370643D01*
X12535357Y-15342071D01*
X12535357Y-15256357D01*
X12549643Y-15227786D01*
X12563928Y-15213500D01*
X12592500Y-15199214D01*
X12635357Y-15199214D01*
X12663928Y-15213500D01*
X12678214Y-15227786D01*
X12692500Y-15256357D01*
X12692500Y-15342071D01*
X12678214Y-15370643D01*
X12663928Y-15384929D01*
X12635357Y-15399214D01*
X12592500Y-15399214D01*
X12863928Y-15399214D02*
X12835357Y-15384929D01*
X12821071Y-15356357D01*
X12821071Y-15099214D01*
X13092500Y-15384929D02*
X13063928Y-15399214D01*
X13006786Y-15399214D01*
X12978214Y-15384929D01*
X12963928Y-15356357D01*
X12963928Y-15242071D01*
X12978214Y-15213500D01*
X13006786Y-15199214D01*
X13063928Y-15199214D01*
X13092500Y-15213500D01*
X13106786Y-15242071D01*
X13106786Y-15270643D01*
X12963928Y-15299214D01*
X13221071Y-15384929D02*
X13249643Y-15399214D01*
X13306786Y-15399214D01*
X13335357Y-15384929D01*
X13349643Y-15356357D01*
X13349643Y-15342071D01*
X13335357Y-15313500D01*
X13306786Y-15299214D01*
X13263928Y-15299214D01*
X13235357Y-15284929D01*
X13221071Y-15256357D01*
X13221071Y-15242071D01*
X13235357Y-15213500D01*
X13263928Y-15199214D01*
X13306786Y-15199214D01*
X13335357Y-15213500D01*
X13449643Y-15513500D02*
X13463928Y-15499214D01*
X13492500Y-15456357D01*
X13506786Y-15427786D01*
X13521071Y-15384929D01*
X13535357Y-15313500D01*
X13535357Y-15256357D01*
X13521071Y-15184929D01*
X13506786Y-15142071D01*
X13492500Y-15113500D01*
X13463928Y-15070643D01*
X13449643Y-15056357D01*
X6592500Y-15559500D02*
X6592500Y-15759500D01*
X6492500Y-15659500D02*
X6692500Y-15659500D01*
X6949643Y-15523786D02*
X6963928Y-15509500D01*
X6992500Y-15495214D01*
X7063928Y-15495214D01*
X7092500Y-15509500D01*
X7106786Y-15523786D01*
X7121071Y-15552357D01*
X7121071Y-15580929D01*
X7106786Y-15623786D01*
X6935357Y-15795214D01*
X7121071Y-15795214D01*
X7249643Y-15766643D02*
X7263928Y-15780929D01*
X7249643Y-15795214D01*
X7235357Y-15780929D01*
X7249643Y-15766643D01*
X7249643Y-15795214D01*
X7449643Y-15495214D02*
X7478214Y-15495214D01*
X7506786Y-15509500D01*
X7521071Y-15523786D01*
X7535357Y-15552357D01*
X7549643Y-15609500D01*
X7549643Y-15680929D01*
X7535357Y-15738071D01*
X7521071Y-15766643D01*
X7506786Y-15780929D01*
X7478214Y-15795214D01*
X7449643Y-15795214D01*
X7421071Y-15780929D01*
X7406786Y-15766643D01*
X7392500Y-15738071D01*
X7378214Y-15680929D01*
X7378214Y-15609500D01*
X7392500Y-15552357D01*
X7406786Y-15523786D01*
X7421071Y-15509500D01*
X7449643Y-15495214D01*
X7735357Y-15495214D02*
X7763928Y-15495214D01*
X7792500Y-15509500D01*
X7806786Y-15523786D01*
X7821071Y-15552357D01*
X7835357Y-15609500D01*
X7835357Y-15680929D01*
X7821071Y-15738071D01*
X7806786Y-15766643D01*
X7792500Y-15780929D01*
X7763928Y-15795214D01*
X7735357Y-15795214D01*
X7706786Y-15780929D01*
X7692500Y-15766643D01*
X7678214Y-15738071D01*
X7663928Y-15680929D01*
X7663928Y-15609500D01*
X7678214Y-15552357D01*
X7692500Y-15523786D01*
X7706786Y-15509500D01*
X7735357Y-15495214D01*
X7963928Y-15795214D02*
X7963928Y-15595214D01*
X7963928Y-15623786D02*
X7978214Y-15609500D01*
X8006786Y-15595214D01*
X8049643Y-15595214D01*
X8078214Y-15609500D01*
X8092500Y-15638071D01*
X8092500Y-15795214D01*
X8092500Y-15638071D02*
X8106786Y-15609500D01*
X8135357Y-15595214D01*
X8178214Y-15595214D01*
X8206786Y-15609500D01*
X8221071Y-15638071D01*
X8221071Y-15795214D01*
X8363928Y-15795214D02*
X8363928Y-15595214D01*
X8363928Y-15623786D02*
X8378214Y-15609500D01*
X8406786Y-15595214D01*
X8449643Y-15595214D01*
X8478214Y-15609500D01*
X8492500Y-15638071D01*
X8492500Y-15795214D01*
X8492500Y-15638071D02*
X8506786Y-15609500D01*
X8535357Y-15595214D01*
X8578214Y-15595214D01*
X8606786Y-15609500D01*
X8621071Y-15638071D01*
X8621071Y-15795214D01*
X9206786Y-15480929D02*
X8949643Y-15866643D01*
X9592500Y-15495214D02*
X9621071Y-15495214D01*
X9649643Y-15509500D01*
X9663928Y-15523786D01*
X9678214Y-15552357D01*
X9692500Y-15609500D01*
X9692500Y-15680929D01*
X9678214Y-15738071D01*
X9663928Y-15766643D01*
X9649643Y-15780929D01*
X9621071Y-15795214D01*
X9592500Y-15795214D01*
X9563928Y-15780929D01*
X9549643Y-15766643D01*
X9535357Y-15738071D01*
X9521071Y-15680929D01*
X9521071Y-15609500D01*
X9535357Y-15552357D01*
X9549643Y-15523786D01*
X9563928Y-15509500D01*
X9592500Y-15495214D01*
X9821071Y-15766643D02*
X9835357Y-15780929D01*
X9821071Y-15795214D01*
X9806786Y-15780929D01*
X9821071Y-15766643D01*
X9821071Y-15795214D01*
X10021071Y-15495214D02*
X10049643Y-15495214D01*
X10078214Y-15509500D01*
X10092500Y-15523786D01*
X10106786Y-15552357D01*
X10121071Y-15609500D01*
X10121071Y-15680929D01*
X10106786Y-15738071D01*
X10092500Y-15766643D01*
X10078214Y-15780929D01*
X10049643Y-15795214D01*
X10021071Y-15795214D01*
X9992500Y-15780929D01*
X9978214Y-15766643D01*
X9963928Y-15738071D01*
X9949643Y-15680929D01*
X9949643Y-15609500D01*
X9963928Y-15552357D01*
X9978214Y-15523786D01*
X9992500Y-15509500D01*
X10021071Y-15495214D01*
X10221071Y-15495214D02*
X10421071Y-15495214D01*
X10292500Y-15795214D01*
X10549643Y-15795214D02*
X10606786Y-15795214D01*
X10635357Y-15780929D01*
X10649643Y-15766643D01*
X10678214Y-15723786D01*
X10692500Y-15666643D01*
X10692500Y-15552357D01*
X10678214Y-15523786D01*
X10663928Y-15509500D01*
X10635357Y-15495214D01*
X10578214Y-15495214D01*
X10549643Y-15509500D01*
X10535357Y-15523786D01*
X10521071Y-15552357D01*
X10521071Y-15623786D01*
X10535357Y-15652357D01*
X10549643Y-15666643D01*
X10578214Y-15680929D01*
X10635357Y-15680929D01*
X10663928Y-15666643D01*
X10678214Y-15652357D01*
X10692500Y-15623786D01*
X10806786Y-15495214D02*
X10806786Y-15552357D01*
X10921071Y-15495214D02*
X10921071Y-15552357D01*
X11363928Y-15909500D02*
X11349643Y-15895214D01*
X11321071Y-15852357D01*
X11306785Y-15823786D01*
X11292500Y-15780929D01*
X11278214Y-15709500D01*
X11278214Y-15652357D01*
X11292500Y-15580929D01*
X11306785Y-15538071D01*
X11321071Y-15509500D01*
X11349643Y-15466643D01*
X11363928Y-15452357D01*
X11463928Y-15523786D02*
X11478214Y-15509500D01*
X11506785Y-15495214D01*
X11578214Y-15495214D01*
X11606785Y-15509500D01*
X11621071Y-15523786D01*
X11635357Y-15552357D01*
X11635357Y-15580929D01*
X11621071Y-15623786D01*
X11449643Y-15795214D01*
X11635357Y-15795214D01*
X11892500Y-15595214D02*
X11892500Y-15795214D01*
X11821071Y-15480929D02*
X11749643Y-15695214D01*
X11935357Y-15695214D01*
X12278214Y-15795214D02*
X12278214Y-15495214D01*
X12406785Y-15795214D02*
X12406785Y-15638071D01*
X12392500Y-15609500D01*
X12363928Y-15595214D01*
X12321071Y-15595214D01*
X12292500Y-15609500D01*
X12278214Y-15623786D01*
X12592500Y-15795214D02*
X12563928Y-15780929D01*
X12549643Y-15766643D01*
X12535357Y-15738071D01*
X12535357Y-15652357D01*
X12549643Y-15623786D01*
X12563928Y-15609500D01*
X12592500Y-15595214D01*
X12635357Y-15595214D01*
X12663928Y-15609500D01*
X12678214Y-15623786D01*
X12692500Y-15652357D01*
X12692500Y-15738071D01*
X12678214Y-15766643D01*
X12663928Y-15780929D01*
X12635357Y-15795214D01*
X12592500Y-15795214D01*
X12863928Y-15795214D02*
X12835357Y-15780929D01*
X12821071Y-15752357D01*
X12821071Y-15495214D01*
X13092500Y-15780929D02*
X13063928Y-15795214D01*
X13006786Y-15795214D01*
X12978214Y-15780929D01*
X12963928Y-15752357D01*
X12963928Y-15638071D01*
X12978214Y-15609500D01*
X13006786Y-15595214D01*
X13063928Y-15595214D01*
X13092500Y-15609500D01*
X13106786Y-15638071D01*
X13106786Y-15666643D01*
X12963928Y-15695214D01*
X13221071Y-15780929D02*
X13249643Y-15795214D01*
X13306786Y-15795214D01*
X13335357Y-15780929D01*
X13349643Y-15752357D01*
X13349643Y-15738071D01*
X13335357Y-15709500D01*
X13306786Y-15695214D01*
X13263928Y-15695214D01*
X13235357Y-15680929D01*
X13221071Y-15652357D01*
X13221071Y-15638071D01*
X13235357Y-15609500D01*
X13263928Y-15595214D01*
X13306786Y-15595214D01*
X13335357Y-15609500D01*
X13449643Y-15909500D02*
X13463928Y-15895214D01*
X13492500Y-15852357D01*
X13506786Y-15823786D01*
X13521071Y-15780929D01*
X13535357Y-15709500D01*
X13535357Y-15652357D01*
X13521071Y-15580929D01*
X13506786Y-15538071D01*
X13492500Y-15509500D01*
X13463928Y-15466643D01*
X13449643Y-15452357D01*
M02*
