G04 #@! TF.FileFunction,Legend,Top*
%FSLAX46Y46*%
G04 Gerber Fmt 4.6, Leading zero omitted, Abs format (unit mm)*
G04 Created by KiCad (PCBNEW 4.0.6) date 04/14/17 09:54:29*
%MOMM*%
%LPD*%
G01*
G04 APERTURE LIST*
%ADD10C,0.100000*%
%ADD11C,0.150000*%
%ADD12C,0.300000*%
%ADD13C,0.200000*%
%ADD14C,0.010000*%
%ADD15C,0.120000*%
G04 APERTURE END LIST*
D10*
D11*
X67000000Y-89000000D02*
X67000000Y-139000000D01*
X117000000Y-89000000D02*
X67000000Y-89000000D01*
X117000000Y-139000000D02*
X117000000Y-89000000D01*
X67000000Y-139000000D02*
X117000000Y-139000000D01*
D12*
X79178571Y-135178571D02*
X79535714Y-136678571D01*
X79821428Y-135607143D01*
X80107142Y-136678571D01*
X80464285Y-135178571D01*
X80892857Y-135178571D02*
X81250000Y-136678571D01*
X81535714Y-135607143D01*
X81821428Y-136678571D01*
X82178571Y-135178571D01*
X82607143Y-135178571D02*
X82964286Y-136678571D01*
X83250000Y-135607143D01*
X83535714Y-136678571D01*
X83892857Y-135178571D01*
X84464286Y-136535714D02*
X84535714Y-136607143D01*
X84464286Y-136678571D01*
X84392857Y-136607143D01*
X84464286Y-136535714D01*
X84464286Y-136678571D01*
X85178572Y-136678571D02*
X85178572Y-135178571D01*
X85535715Y-135178571D01*
X85750000Y-135250000D01*
X85892858Y-135392857D01*
X85964286Y-135535714D01*
X86035715Y-135821429D01*
X86035715Y-136035714D01*
X85964286Y-136321429D01*
X85892858Y-136464286D01*
X85750000Y-136607143D01*
X85535715Y-136678571D01*
X85178572Y-136678571D01*
X86678572Y-136678571D02*
X86678572Y-135678571D01*
X86678572Y-135178571D02*
X86607143Y-135250000D01*
X86678572Y-135321429D01*
X86750000Y-135250000D01*
X86678572Y-135178571D01*
X86678572Y-135321429D01*
X88035715Y-135678571D02*
X88035715Y-136892857D01*
X87964286Y-137035714D01*
X87892858Y-137107143D01*
X87750001Y-137178571D01*
X87535715Y-137178571D01*
X87392858Y-137107143D01*
X88035715Y-136607143D02*
X87892858Y-136678571D01*
X87607144Y-136678571D01*
X87464286Y-136607143D01*
X87392858Y-136535714D01*
X87321429Y-136392857D01*
X87321429Y-135964286D01*
X87392858Y-135821429D01*
X87464286Y-135750000D01*
X87607144Y-135678571D01*
X87892858Y-135678571D01*
X88035715Y-135750000D01*
X88750001Y-136678571D02*
X88750001Y-135678571D01*
X88750001Y-135178571D02*
X88678572Y-135250000D01*
X88750001Y-135321429D01*
X88821429Y-135250000D01*
X88750001Y-135178571D01*
X88750001Y-135321429D01*
X89250001Y-135678571D02*
X89821430Y-135678571D01*
X89464287Y-135178571D02*
X89464287Y-136464286D01*
X89535715Y-136607143D01*
X89678573Y-136678571D01*
X89821430Y-136678571D01*
X90964287Y-136678571D02*
X90964287Y-135892857D01*
X90892858Y-135750000D01*
X90750001Y-135678571D01*
X90464287Y-135678571D01*
X90321430Y-135750000D01*
X90964287Y-136607143D02*
X90821430Y-136678571D01*
X90464287Y-136678571D01*
X90321430Y-136607143D01*
X90250001Y-136464286D01*
X90250001Y-136321429D01*
X90321430Y-136178571D01*
X90464287Y-136107143D01*
X90821430Y-136107143D01*
X90964287Y-136035714D01*
X91892859Y-136678571D02*
X91750001Y-136607143D01*
X91678573Y-136464286D01*
X91678573Y-135178571D01*
X92464287Y-136107143D02*
X93607144Y-136107143D01*
X94250001Y-136607143D02*
X94464287Y-136678571D01*
X94821430Y-136678571D01*
X94964287Y-136607143D01*
X95035716Y-136535714D01*
X95107144Y-136392857D01*
X95107144Y-136250000D01*
X95035716Y-136107143D01*
X94964287Y-136035714D01*
X94821430Y-135964286D01*
X94535716Y-135892857D01*
X94392858Y-135821429D01*
X94321430Y-135750000D01*
X94250001Y-135607143D01*
X94250001Y-135464286D01*
X94321430Y-135321429D01*
X94392858Y-135250000D01*
X94535716Y-135178571D01*
X94892858Y-135178571D01*
X95107144Y-135250000D01*
X96392858Y-135678571D02*
X96392858Y-137178571D01*
X96392858Y-136607143D02*
X96250001Y-136678571D01*
X95964287Y-136678571D01*
X95821429Y-136607143D01*
X95750001Y-136535714D01*
X95678572Y-136392857D01*
X95678572Y-135964286D01*
X95750001Y-135821429D01*
X95821429Y-135750000D01*
X95964287Y-135678571D01*
X96250001Y-135678571D01*
X96392858Y-135750000D01*
X97107144Y-136678571D02*
X97107144Y-135678571D01*
X97107144Y-135964286D02*
X97178572Y-135821429D01*
X97250001Y-135750000D01*
X97392858Y-135678571D01*
X97535715Y-135678571D01*
X97821429Y-135678571D02*
X98392858Y-135678571D01*
X98035715Y-135178571D02*
X98035715Y-136464286D01*
X98107143Y-136607143D01*
X98250001Y-136678571D01*
X98392858Y-136678571D01*
X98892858Y-136535714D02*
X98964286Y-136607143D01*
X98892858Y-136678571D01*
X98821429Y-136607143D01*
X98892858Y-136535714D01*
X98892858Y-136678571D01*
X100464287Y-136535714D02*
X100392858Y-136607143D01*
X100178572Y-136678571D01*
X100035715Y-136678571D01*
X99821430Y-136607143D01*
X99678572Y-136464286D01*
X99607144Y-136321429D01*
X99535715Y-136035714D01*
X99535715Y-135821429D01*
X99607144Y-135535714D01*
X99678572Y-135392857D01*
X99821430Y-135250000D01*
X100035715Y-135178571D01*
X100178572Y-135178571D01*
X100392858Y-135250000D01*
X100464287Y-135321429D01*
X101392858Y-135178571D02*
X101678572Y-135178571D01*
X101821430Y-135250000D01*
X101964287Y-135392857D01*
X102035715Y-135678571D01*
X102035715Y-136178571D01*
X101964287Y-136464286D01*
X101821430Y-136607143D01*
X101678572Y-136678571D01*
X101392858Y-136678571D01*
X101250001Y-136607143D01*
X101107144Y-136464286D01*
X101035715Y-136178571D01*
X101035715Y-135678571D01*
X101107144Y-135392857D01*
X101250001Y-135250000D01*
X101392858Y-135178571D01*
X102678573Y-136678571D02*
X102678573Y-135178571D01*
X103178573Y-136250000D01*
X103678573Y-135178571D01*
X103678573Y-136678571D01*
D11*
X73666667Y-110952381D02*
X73666667Y-111666667D01*
X73619047Y-111809524D01*
X73523809Y-111904762D01*
X73380952Y-111952381D01*
X73285714Y-111952381D01*
X74142857Y-111952381D02*
X74142857Y-110952381D01*
X74523810Y-110952381D01*
X74619048Y-111000000D01*
X74666667Y-111047619D01*
X74714286Y-111142857D01*
X74714286Y-111285714D01*
X74666667Y-111380952D01*
X74619048Y-111428571D01*
X74523810Y-111476190D01*
X74142857Y-111476190D01*
X75666667Y-111952381D02*
X75095238Y-111952381D01*
X75380952Y-111952381D02*
X75380952Y-110952381D01*
X75285714Y-111095238D01*
X75190476Y-111190476D01*
X75095238Y-111238095D01*
X73690477Y-108928571D02*
X73357143Y-108928571D01*
X73357143Y-109452381D02*
X73357143Y-108452381D01*
X73833334Y-108452381D01*
X74166667Y-109166667D02*
X74642858Y-109166667D01*
X74071429Y-109452381D02*
X74404762Y-108452381D01*
X74738096Y-109452381D01*
X75071429Y-109452381D02*
X75071429Y-108452381D01*
X75642858Y-109452381D01*
X75642858Y-108452381D01*
D12*
X81428572Y-104107143D02*
X82571429Y-104107143D01*
X76928572Y-104107143D02*
X78071429Y-104107143D01*
X77500000Y-104678571D02*
X77500000Y-103535714D01*
D10*
X91220238Y-95452381D02*
X90744047Y-95452381D01*
X90869047Y-94452381D01*
X91553571Y-95452381D02*
X91636905Y-94785714D01*
X91678571Y-94452381D02*
X91625000Y-94500000D01*
X91666667Y-94547619D01*
X91720238Y-94500000D01*
X91678571Y-94452381D01*
X91666667Y-94547619D01*
X91970238Y-94785714D02*
X92351190Y-94785714D01*
X92154761Y-94452381D02*
X92047619Y-95309524D01*
X92083333Y-95404762D01*
X92172618Y-95452381D01*
X92267856Y-95452381D01*
X92541667Y-94785714D02*
X92922619Y-94785714D01*
X92726190Y-94452381D02*
X92619048Y-95309524D01*
X92654762Y-95404762D01*
X92744047Y-95452381D01*
X92839285Y-95452381D01*
X93315476Y-95452381D02*
X93226191Y-95404762D01*
X93190477Y-95309524D01*
X93297619Y-94452381D01*
X94083335Y-95404762D02*
X93982144Y-95452381D01*
X93791667Y-95452381D01*
X93702382Y-95404762D01*
X93666668Y-95309524D01*
X93714287Y-94928571D01*
X93773810Y-94833333D01*
X93875001Y-94785714D01*
X94065478Y-94785714D01*
X94154763Y-94833333D01*
X94190478Y-94928571D01*
X94178573Y-95023810D01*
X93690477Y-95119048D01*
X95315477Y-95452381D02*
X95440477Y-94452381D01*
X95678572Y-94452381D01*
X95815478Y-94500000D01*
X95898811Y-94595238D01*
X95934526Y-94690476D01*
X95958335Y-94880952D01*
X95940478Y-95023810D01*
X95869049Y-95214286D01*
X95809526Y-95309524D01*
X95702383Y-95404762D01*
X95553572Y-95452381D01*
X95315477Y-95452381D01*
X96315477Y-95452381D02*
X96398811Y-94785714D01*
X96375001Y-94976190D02*
X96434525Y-94880952D01*
X96488096Y-94833333D01*
X96589287Y-94785714D01*
X96684526Y-94785714D01*
X96934525Y-95452381D02*
X97017859Y-94785714D01*
X97059525Y-94452381D02*
X97005954Y-94500000D01*
X97047621Y-94547619D01*
X97101192Y-94500000D01*
X97059525Y-94452381D01*
X97047621Y-94547619D01*
X97398811Y-94785714D02*
X97553572Y-95452381D01*
X97875002Y-94785714D01*
X98559526Y-95404762D02*
X98458335Y-95452381D01*
X98267858Y-95452381D01*
X98178573Y-95404762D01*
X98142859Y-95309524D01*
X98190478Y-94928571D01*
X98250001Y-94833333D01*
X98351192Y-94785714D01*
X98541669Y-94785714D01*
X98630954Y-94833333D01*
X98666669Y-94928571D01*
X98654764Y-95023810D01*
X98166668Y-95119048D01*
X99029763Y-95452381D02*
X99113097Y-94785714D01*
X99089287Y-94976190D02*
X99148811Y-94880952D01*
X99202382Y-94833333D01*
X99303573Y-94785714D01*
X99398812Y-94785714D01*
D13*
X90427084Y-93291667D02*
X90645834Y-91541667D01*
X91062500Y-91541667D01*
X91302083Y-91625000D01*
X91447917Y-91791667D01*
X91510416Y-91958333D01*
X91552084Y-92291667D01*
X91520834Y-92541667D01*
X91395833Y-92875000D01*
X91291667Y-93041667D01*
X91104166Y-93208333D01*
X90843750Y-93291667D01*
X90427084Y-93291667D01*
X92177084Y-93291667D02*
X92322917Y-92125000D01*
X92395834Y-91541667D02*
X92302083Y-91625000D01*
X92375000Y-91708333D01*
X92468750Y-91625000D01*
X92395834Y-91541667D01*
X92375000Y-91708333D01*
X93906250Y-92125000D02*
X93729167Y-93541667D01*
X93624999Y-93708333D01*
X93531250Y-93791667D01*
X93354166Y-93875000D01*
X93104166Y-93875000D01*
X92947917Y-93791667D01*
X93770833Y-93208333D02*
X93593750Y-93291667D01*
X93260417Y-93291667D01*
X93104166Y-93208333D01*
X93031250Y-93125000D01*
X92968749Y-92958333D01*
X93031249Y-92458333D01*
X93135417Y-92291667D01*
X93229166Y-92208333D01*
X93406250Y-92125000D01*
X93739583Y-92125000D01*
X93895833Y-92208333D01*
X94593750Y-93291667D02*
X94739583Y-92125000D01*
X94812500Y-91541667D02*
X94718749Y-91625000D01*
X94791666Y-91708333D01*
X94885416Y-91625000D01*
X94812500Y-91541667D01*
X94791666Y-91708333D01*
X95322916Y-92125000D02*
X95989582Y-92125000D01*
X95645833Y-91541667D02*
X95458333Y-93041667D01*
X95520832Y-93208333D01*
X95677083Y-93291667D01*
X95843749Y-93291667D01*
X97177083Y-93291667D02*
X97291666Y-92375000D01*
X97229165Y-92208333D01*
X97072916Y-92125000D01*
X96739582Y-92125000D01*
X96562499Y-92208333D01*
X97187499Y-93208333D02*
X97010416Y-93291667D01*
X96593749Y-93291667D01*
X96437499Y-93208333D01*
X96374999Y-93041667D01*
X96395832Y-92875000D01*
X96499999Y-92708333D01*
X96677082Y-92625000D01*
X97093749Y-92625000D01*
X97270833Y-92541667D01*
X98260416Y-93291667D02*
X98104165Y-93208333D01*
X98041666Y-93041667D01*
X98229166Y-91541667D01*
X100187498Y-93208333D02*
X100427082Y-93291667D01*
X100843749Y-93291667D01*
X101020832Y-93208333D01*
X101114582Y-93125000D01*
X101218748Y-92958333D01*
X101239582Y-92791667D01*
X101177082Y-92625000D01*
X101104166Y-92541667D01*
X100947915Y-92458333D01*
X100624999Y-92375000D01*
X100468749Y-92291667D01*
X100395832Y-92208333D01*
X100333332Y-92041667D01*
X100354165Y-91875000D01*
X100458332Y-91708333D01*
X100552082Y-91625000D01*
X100729166Y-91541667D01*
X101145832Y-91541667D01*
X101385415Y-91625000D01*
X102822916Y-92125000D02*
X102604166Y-93875000D01*
X102687499Y-93208333D02*
X102510416Y-93291667D01*
X102177083Y-93291667D01*
X102020832Y-93208333D01*
X101947916Y-93125000D01*
X101885415Y-92958333D01*
X101947915Y-92458333D01*
X102052083Y-92291667D01*
X102145832Y-92208333D01*
X102322916Y-92125000D01*
X102656249Y-92125000D01*
X102812499Y-92208333D01*
X103510416Y-93291667D02*
X103656249Y-92125000D01*
X103614582Y-92458333D02*
X103718749Y-92291667D01*
X103812498Y-92208333D01*
X103989582Y-92125000D01*
X104156249Y-92125000D01*
X104489582Y-92125000D02*
X105156248Y-92125000D01*
X104812499Y-91541667D02*
X104624999Y-93041667D01*
X104687498Y-93208333D01*
X104843749Y-93291667D01*
X105010415Y-93291667D01*
D10*
X101595238Y-97452381D02*
X101928571Y-98452381D01*
X102261905Y-97452381D01*
X102976191Y-98404762D02*
X102880953Y-98452381D01*
X102690476Y-98452381D01*
X102595238Y-98404762D01*
X102547619Y-98309524D01*
X102547619Y-97928571D01*
X102595238Y-97833333D01*
X102690476Y-97785714D01*
X102880953Y-97785714D01*
X102976191Y-97833333D01*
X103023810Y-97928571D01*
X103023810Y-98023810D01*
X102547619Y-98119048D01*
X103452381Y-98452381D02*
X103452381Y-97785714D01*
X103452381Y-97976190D02*
X103500000Y-97880952D01*
X103547619Y-97833333D01*
X103642857Y-97785714D01*
X103738096Y-97785714D01*
X105357144Y-98452381D02*
X104785715Y-98452381D01*
X105071429Y-98452381D02*
X105071429Y-97452381D01*
X104976191Y-97595238D01*
X104880953Y-97690476D01*
X104785715Y-97738095D01*
X105785715Y-98357143D02*
X105833334Y-98404762D01*
X105785715Y-98452381D01*
X105738096Y-98404762D01*
X105785715Y-98357143D01*
X105785715Y-98452381D01*
X106309524Y-98452381D02*
X106500000Y-98452381D01*
X106595239Y-98404762D01*
X106642858Y-98357143D01*
X106738096Y-98214286D01*
X106785715Y-98023810D01*
X106785715Y-97642857D01*
X106738096Y-97547619D01*
X106690477Y-97500000D01*
X106595239Y-97452381D01*
X106404762Y-97452381D01*
X106309524Y-97500000D01*
X106261905Y-97547619D01*
X106214286Y-97642857D01*
X106214286Y-97880952D01*
X106261905Y-97976190D01*
X106309524Y-98023810D01*
X106404762Y-98071429D01*
X106595239Y-98071429D01*
X106690477Y-98023810D01*
X106738096Y-97976190D01*
X106785715Y-97880952D01*
D14*
G36*
X84765892Y-90868270D02*
X85181711Y-90906540D01*
X85577701Y-90955770D01*
X85858754Y-91006918D01*
X86078344Y-91079539D01*
X86289945Y-91193188D01*
X86547033Y-91367419D01*
X86657491Y-91446214D01*
X87012064Y-91693396D01*
X87387963Y-91944817D01*
X87712547Y-92152053D01*
X87756757Y-92179019D01*
X88202842Y-92528177D01*
X88604798Y-92989795D01*
X88918595Y-93506999D01*
X89059133Y-93861354D01*
X89154082Y-94298805D01*
X89215697Y-94836308D01*
X89240823Y-95407295D01*
X89226303Y-95945195D01*
X89176895Y-96345149D01*
X89073741Y-96717945D01*
X88915851Y-97126918D01*
X88782547Y-97398956D01*
X88633863Y-97675380D01*
X88563746Y-97845784D01*
X88562649Y-97948745D01*
X88621022Y-98022844D01*
X88626899Y-98027789D01*
X88844891Y-98307469D01*
X88975501Y-98686784D01*
X89002861Y-98972296D01*
X88952219Y-99499778D01*
X88795824Y-99898093D01*
X88524655Y-100176431D01*
X88129691Y-100343977D01*
X87601913Y-100409919D01*
X87591041Y-100410234D01*
X87247959Y-100432842D01*
X86981249Y-100494444D01*
X86709812Y-100619455D01*
X86509768Y-100735766D01*
X85546911Y-101245548D01*
X84436837Y-101700923D01*
X83194568Y-102095971D01*
X82768112Y-102209561D01*
X82449084Y-102286968D01*
X82229634Y-102322607D01*
X82046042Y-102319511D01*
X81834587Y-102280714D01*
X81739158Y-102258540D01*
X81520619Y-102166992D01*
X81249970Y-102000264D01*
X81061093Y-101856065D01*
X80810917Y-101663287D01*
X80578379Y-101514185D01*
X80451268Y-101454869D01*
X80173559Y-101329991D01*
X79830468Y-101120504D01*
X79473392Y-100863950D01*
X79153725Y-100597875D01*
X78922865Y-100359822D01*
X78887369Y-100312457D01*
X78734276Y-100044499D01*
X78659143Y-99762543D01*
X78653032Y-99678625D01*
X78914212Y-99678625D01*
X79055630Y-100111324D01*
X79094530Y-100178464D01*
X79266220Y-100375688D01*
X79541924Y-100609974D01*
X79872359Y-100846452D01*
X80208242Y-101050255D01*
X80500290Y-101186515D01*
X80536667Y-101198783D01*
X80717306Y-101291254D01*
X80956581Y-101458151D01*
X81121162Y-101592992D01*
X81374895Y-101801231D01*
X81606039Y-101943564D01*
X81845175Y-102021840D01*
X82122881Y-102037908D01*
X82469738Y-101993618D01*
X82916326Y-101890817D01*
X83478612Y-101735548D01*
X84006764Y-101569202D01*
X84549688Y-101371830D01*
X85083672Y-101154868D01*
X85585004Y-100929753D01*
X86029972Y-100707924D01*
X86394864Y-100500817D01*
X86655967Y-100319870D01*
X86789570Y-100176520D01*
X86802000Y-100132540D01*
X86872175Y-100076473D01*
X87034833Y-100100094D01*
X87392378Y-100148601D01*
X87779738Y-100126585D01*
X88146025Y-100044805D01*
X88440351Y-99914018D01*
X88597628Y-99769749D01*
X88641645Y-99637154D01*
X88688812Y-99399705D01*
X88713336Y-99230272D01*
X88717252Y-98762509D01*
X88598883Y-98408073D01*
X88359270Y-98169813D01*
X88318279Y-98147007D01*
X88032249Y-98042112D01*
X87755360Y-98051181D01*
X87426432Y-98177387D01*
X87391294Y-98195054D01*
X87192216Y-98279627D01*
X87072068Y-98297892D01*
X87056000Y-98279721D01*
X86973458Y-98242629D01*
X86733863Y-98215287D01*
X86349266Y-98198572D01*
X85870667Y-98193334D01*
X84685333Y-98193334D01*
X84685333Y-98804266D01*
X83817500Y-98748381D01*
X83316223Y-98714500D01*
X82959453Y-98682634D01*
X82722644Y-98645068D01*
X82581250Y-98594087D01*
X82510726Y-98521978D01*
X82486524Y-98421026D01*
X82484000Y-98329288D01*
X82458254Y-98134508D01*
X82350828Y-98005599D01*
X82176041Y-97908508D01*
X81838921Y-97807466D01*
X81625708Y-97814887D01*
X81447652Y-97886647D01*
X81386647Y-98033341D01*
X81383333Y-98115394D01*
X81368065Y-98277488D01*
X81289059Y-98346308D01*
X81096517Y-98360229D01*
X81065833Y-98360053D01*
X80719868Y-98344027D01*
X80346496Y-98305826D01*
X79987714Y-98252402D01*
X79685522Y-98190708D01*
X79481919Y-98127696D01*
X79421322Y-98087816D01*
X79366049Y-98039697D01*
X79352630Y-98122020D01*
X79314556Y-98270166D01*
X79217490Y-98507320D01*
X79119094Y-98710004D01*
X78935412Y-99208792D01*
X78914212Y-99678625D01*
X78653032Y-99678625D01*
X78638274Y-99475983D01*
X78612289Y-99148186D01*
X78541269Y-98918408D01*
X78406126Y-98719715D01*
X78233545Y-98447195D01*
X78131787Y-98150268D01*
X78117938Y-97949975D01*
X78423980Y-97949975D01*
X78432290Y-98161488D01*
X78499135Y-98395685D01*
X78606283Y-98593822D01*
X78735500Y-98697153D01*
X78766002Y-98701334D01*
X78775931Y-98643199D01*
X78697426Y-98498999D01*
X78665421Y-98453838D01*
X78528932Y-98171954D01*
X78528339Y-98151569D01*
X78791135Y-98151569D01*
X78847298Y-98297818D01*
X78937058Y-98362667D01*
X78999125Y-98291894D01*
X79012667Y-98198330D01*
X78974307Y-98039563D01*
X78889190Y-97967580D01*
X78806575Y-98014979D01*
X78791135Y-98151569D01*
X78528339Y-98151569D01*
X78523656Y-97990733D01*
X78530803Y-97848137D01*
X78492436Y-97819892D01*
X78423980Y-97949975D01*
X78117938Y-97949975D01*
X78113317Y-97883146D01*
X78171177Y-97727667D01*
X78674000Y-97727667D01*
X78716333Y-97770000D01*
X78758667Y-97727667D01*
X78716333Y-97685334D01*
X78674000Y-97727667D01*
X78171177Y-97727667D01*
X78175386Y-97716357D01*
X78310135Y-97612804D01*
X78859191Y-97612804D01*
X78876227Y-97660208D01*
X78965349Y-97730360D01*
X79113748Y-97833938D01*
X79172061Y-97830674D01*
X79182000Y-97727667D01*
X79109909Y-97625475D01*
X78991500Y-97603360D01*
X78859191Y-97612804D01*
X78310135Y-97612804D01*
X78346042Y-97585210D01*
X78603936Y-97457492D01*
X78869900Y-97367978D01*
X79017075Y-97346667D01*
X79095987Y-97334674D01*
X79117988Y-97274902D01*
X79080010Y-97131658D01*
X78978984Y-96869251D01*
X78975215Y-96859834D01*
X78775660Y-96190419D01*
X78736115Y-95695667D01*
X79000090Y-95695667D01*
X79023618Y-95952634D01*
X79077790Y-96249554D01*
X79152955Y-96557174D01*
X79239464Y-96846245D01*
X79327666Y-97087515D01*
X79407911Y-97251733D01*
X79470549Y-97309647D01*
X79505929Y-97232007D01*
X79506195Y-97229733D01*
X79534056Y-96985800D01*
X80266379Y-97045220D01*
X80741302Y-97086691D01*
X81072529Y-97125825D01*
X81285427Y-97169855D01*
X81405364Y-97226013D01*
X81457706Y-97301533D01*
X81468000Y-97387843D01*
X81499930Y-97526032D01*
X81627359Y-97545879D01*
X81665325Y-97539464D01*
X81870299Y-97547213D01*
X82127604Y-97614117D01*
X82183665Y-97635872D01*
X82414321Y-97730315D01*
X82527838Y-97751307D01*
X82565521Y-97685140D01*
X82568674Y-97518106D01*
X82568667Y-97508099D01*
X82568667Y-97246197D01*
X83394167Y-97301363D01*
X83886548Y-97336151D01*
X84234764Y-97368986D01*
X84463714Y-97407403D01*
X84598300Y-97458935D01*
X84663422Y-97531120D01*
X84683981Y-97631490D01*
X84685333Y-97692061D01*
X84685333Y-97939334D01*
X86981709Y-97939334D01*
X86928264Y-97579500D01*
X86922649Y-97240053D01*
X86983350Y-96754171D01*
X87064998Y-96330667D01*
X87175587Y-95764005D01*
X87230527Y-95317492D01*
X87225616Y-94949950D01*
X87156649Y-94620197D01*
X87019421Y-94287054D01*
X86819465Y-93925663D01*
X86564475Y-93536423D01*
X86325372Y-93244581D01*
X86145833Y-93091799D01*
X85939534Y-92955395D01*
X85889955Y-92881088D01*
X85999214Y-92861897D01*
X86209333Y-92882462D01*
X86420584Y-92905793D01*
X86538867Y-92909145D01*
X86548000Y-92905125D01*
X86473781Y-92814129D01*
X86277937Y-92692150D01*
X86000686Y-92558007D01*
X85682245Y-92430522D01*
X85362833Y-92328515D01*
X85261422Y-92303042D01*
X84609845Y-92153202D01*
X83746200Y-92485101D01*
X83340227Y-92647747D01*
X83058187Y-92781356D01*
X82862668Y-92908301D01*
X82716261Y-93050953D01*
X82642393Y-93145202D01*
X82491945Y-93333904D01*
X82402903Y-93392914D01*
X82350401Y-93338250D01*
X82348849Y-93334290D01*
X82322304Y-93143756D01*
X82335659Y-92984921D01*
X82333462Y-92817728D01*
X82252221Y-92774667D01*
X82010415Y-92834478D01*
X81694333Y-92999276D01*
X81341775Y-93247111D01*
X81126002Y-93428740D01*
X80902859Y-93626488D01*
X80777236Y-93720854D01*
X80721122Y-93722103D01*
X80706503Y-93640499D01*
X80706000Y-93582642D01*
X80769935Y-93265979D01*
X80967157Y-92903155D01*
X81305786Y-92479828D01*
X81371224Y-92408123D01*
X81572351Y-92188578D01*
X81664446Y-92076174D01*
X81654324Y-92054550D01*
X81548802Y-92107345D01*
X81480307Y-92146266D01*
X81247055Y-92307621D01*
X81058036Y-92483482D01*
X81044789Y-92499500D01*
X80910068Y-92637894D01*
X80814888Y-92690000D01*
X80675635Y-92752888D01*
X80463111Y-92922739D01*
X80206022Y-93171332D01*
X79933074Y-93470448D01*
X79672974Y-93791866D01*
X79616353Y-93868225D01*
X79299754Y-94358128D01*
X79104883Y-94810011D01*
X79012780Y-95280092D01*
X79000090Y-95695667D01*
X78736115Y-95695667D01*
X78722002Y-95519102D01*
X78811554Y-94802759D01*
X78839330Y-94679667D01*
X79000685Y-94002334D01*
X78754953Y-94298667D01*
X78606706Y-94489739D01*
X78517940Y-94627831D01*
X78506944Y-94658500D01*
X78438384Y-94719210D01*
X78410821Y-94722000D01*
X78357134Y-94657275D01*
X78373435Y-94498328D01*
X78445773Y-94298004D01*
X78560197Y-94109146D01*
X78578461Y-94087000D01*
X78762798Y-93862766D01*
X78845100Y-93739785D01*
X78822648Y-93726379D01*
X78692722Y-93830865D01*
X78649147Y-93870776D01*
X78451399Y-94028597D01*
X78348847Y-94054775D01*
X78344641Y-93959797D01*
X78441934Y-93754151D01*
X78558686Y-93569648D01*
X78913041Y-93076564D01*
X79239702Y-92700054D01*
X79581338Y-92402674D01*
X79980619Y-92146976D01*
X80450679Y-91909274D01*
X80865226Y-91724155D01*
X81282529Y-91552461D01*
X81645680Y-91416897D01*
X81840679Y-91354685D01*
X82342999Y-91215027D01*
X82074833Y-91105604D01*
X81895281Y-91025579D01*
X81808210Y-90973492D01*
X81806667Y-90970060D01*
X81884754Y-90957991D01*
X82092708Y-90948631D01*
X82391065Y-90943508D01*
X82505167Y-90943005D01*
X82929390Y-90933394D01*
X83377164Y-90909054D01*
X83753360Y-90875195D01*
X83761655Y-90874195D01*
X84214071Y-90849761D01*
X84765892Y-90868270D01*
X84765892Y-90868270D01*
G37*
X84765892Y-90868270D02*
X85181711Y-90906540D01*
X85577701Y-90955770D01*
X85858754Y-91006918D01*
X86078344Y-91079539D01*
X86289945Y-91193188D01*
X86547033Y-91367419D01*
X86657491Y-91446214D01*
X87012064Y-91693396D01*
X87387963Y-91944817D01*
X87712547Y-92152053D01*
X87756757Y-92179019D01*
X88202842Y-92528177D01*
X88604798Y-92989795D01*
X88918595Y-93506999D01*
X89059133Y-93861354D01*
X89154082Y-94298805D01*
X89215697Y-94836308D01*
X89240823Y-95407295D01*
X89226303Y-95945195D01*
X89176895Y-96345149D01*
X89073741Y-96717945D01*
X88915851Y-97126918D01*
X88782547Y-97398956D01*
X88633863Y-97675380D01*
X88563746Y-97845784D01*
X88562649Y-97948745D01*
X88621022Y-98022844D01*
X88626899Y-98027789D01*
X88844891Y-98307469D01*
X88975501Y-98686784D01*
X89002861Y-98972296D01*
X88952219Y-99499778D01*
X88795824Y-99898093D01*
X88524655Y-100176431D01*
X88129691Y-100343977D01*
X87601913Y-100409919D01*
X87591041Y-100410234D01*
X87247959Y-100432842D01*
X86981249Y-100494444D01*
X86709812Y-100619455D01*
X86509768Y-100735766D01*
X85546911Y-101245548D01*
X84436837Y-101700923D01*
X83194568Y-102095971D01*
X82768112Y-102209561D01*
X82449084Y-102286968D01*
X82229634Y-102322607D01*
X82046042Y-102319511D01*
X81834587Y-102280714D01*
X81739158Y-102258540D01*
X81520619Y-102166992D01*
X81249970Y-102000264D01*
X81061093Y-101856065D01*
X80810917Y-101663287D01*
X80578379Y-101514185D01*
X80451268Y-101454869D01*
X80173559Y-101329991D01*
X79830468Y-101120504D01*
X79473392Y-100863950D01*
X79153725Y-100597875D01*
X78922865Y-100359822D01*
X78887369Y-100312457D01*
X78734276Y-100044499D01*
X78659143Y-99762543D01*
X78653032Y-99678625D01*
X78914212Y-99678625D01*
X79055630Y-100111324D01*
X79094530Y-100178464D01*
X79266220Y-100375688D01*
X79541924Y-100609974D01*
X79872359Y-100846452D01*
X80208242Y-101050255D01*
X80500290Y-101186515D01*
X80536667Y-101198783D01*
X80717306Y-101291254D01*
X80956581Y-101458151D01*
X81121162Y-101592992D01*
X81374895Y-101801231D01*
X81606039Y-101943564D01*
X81845175Y-102021840D01*
X82122881Y-102037908D01*
X82469738Y-101993618D01*
X82916326Y-101890817D01*
X83478612Y-101735548D01*
X84006764Y-101569202D01*
X84549688Y-101371830D01*
X85083672Y-101154868D01*
X85585004Y-100929753D01*
X86029972Y-100707924D01*
X86394864Y-100500817D01*
X86655967Y-100319870D01*
X86789570Y-100176520D01*
X86802000Y-100132540D01*
X86872175Y-100076473D01*
X87034833Y-100100094D01*
X87392378Y-100148601D01*
X87779738Y-100126585D01*
X88146025Y-100044805D01*
X88440351Y-99914018D01*
X88597628Y-99769749D01*
X88641645Y-99637154D01*
X88688812Y-99399705D01*
X88713336Y-99230272D01*
X88717252Y-98762509D01*
X88598883Y-98408073D01*
X88359270Y-98169813D01*
X88318279Y-98147007D01*
X88032249Y-98042112D01*
X87755360Y-98051181D01*
X87426432Y-98177387D01*
X87391294Y-98195054D01*
X87192216Y-98279627D01*
X87072068Y-98297892D01*
X87056000Y-98279721D01*
X86973458Y-98242629D01*
X86733863Y-98215287D01*
X86349266Y-98198572D01*
X85870667Y-98193334D01*
X84685333Y-98193334D01*
X84685333Y-98804266D01*
X83817500Y-98748381D01*
X83316223Y-98714500D01*
X82959453Y-98682634D01*
X82722644Y-98645068D01*
X82581250Y-98594087D01*
X82510726Y-98521978D01*
X82486524Y-98421026D01*
X82484000Y-98329288D01*
X82458254Y-98134508D01*
X82350828Y-98005599D01*
X82176041Y-97908508D01*
X81838921Y-97807466D01*
X81625708Y-97814887D01*
X81447652Y-97886647D01*
X81386647Y-98033341D01*
X81383333Y-98115394D01*
X81368065Y-98277488D01*
X81289059Y-98346308D01*
X81096517Y-98360229D01*
X81065833Y-98360053D01*
X80719868Y-98344027D01*
X80346496Y-98305826D01*
X79987714Y-98252402D01*
X79685522Y-98190708D01*
X79481919Y-98127696D01*
X79421322Y-98087816D01*
X79366049Y-98039697D01*
X79352630Y-98122020D01*
X79314556Y-98270166D01*
X79217490Y-98507320D01*
X79119094Y-98710004D01*
X78935412Y-99208792D01*
X78914212Y-99678625D01*
X78653032Y-99678625D01*
X78638274Y-99475983D01*
X78612289Y-99148186D01*
X78541269Y-98918408D01*
X78406126Y-98719715D01*
X78233545Y-98447195D01*
X78131787Y-98150268D01*
X78117938Y-97949975D01*
X78423980Y-97949975D01*
X78432290Y-98161488D01*
X78499135Y-98395685D01*
X78606283Y-98593822D01*
X78735500Y-98697153D01*
X78766002Y-98701334D01*
X78775931Y-98643199D01*
X78697426Y-98498999D01*
X78665421Y-98453838D01*
X78528932Y-98171954D01*
X78528339Y-98151569D01*
X78791135Y-98151569D01*
X78847298Y-98297818D01*
X78937058Y-98362667D01*
X78999125Y-98291894D01*
X79012667Y-98198330D01*
X78974307Y-98039563D01*
X78889190Y-97967580D01*
X78806575Y-98014979D01*
X78791135Y-98151569D01*
X78528339Y-98151569D01*
X78523656Y-97990733D01*
X78530803Y-97848137D01*
X78492436Y-97819892D01*
X78423980Y-97949975D01*
X78117938Y-97949975D01*
X78113317Y-97883146D01*
X78171177Y-97727667D01*
X78674000Y-97727667D01*
X78716333Y-97770000D01*
X78758667Y-97727667D01*
X78716333Y-97685334D01*
X78674000Y-97727667D01*
X78171177Y-97727667D01*
X78175386Y-97716357D01*
X78310135Y-97612804D01*
X78859191Y-97612804D01*
X78876227Y-97660208D01*
X78965349Y-97730360D01*
X79113748Y-97833938D01*
X79172061Y-97830674D01*
X79182000Y-97727667D01*
X79109909Y-97625475D01*
X78991500Y-97603360D01*
X78859191Y-97612804D01*
X78310135Y-97612804D01*
X78346042Y-97585210D01*
X78603936Y-97457492D01*
X78869900Y-97367978D01*
X79017075Y-97346667D01*
X79095987Y-97334674D01*
X79117988Y-97274902D01*
X79080010Y-97131658D01*
X78978984Y-96869251D01*
X78975215Y-96859834D01*
X78775660Y-96190419D01*
X78736115Y-95695667D01*
X79000090Y-95695667D01*
X79023618Y-95952634D01*
X79077790Y-96249554D01*
X79152955Y-96557174D01*
X79239464Y-96846245D01*
X79327666Y-97087515D01*
X79407911Y-97251733D01*
X79470549Y-97309647D01*
X79505929Y-97232007D01*
X79506195Y-97229733D01*
X79534056Y-96985800D01*
X80266379Y-97045220D01*
X80741302Y-97086691D01*
X81072529Y-97125825D01*
X81285427Y-97169855D01*
X81405364Y-97226013D01*
X81457706Y-97301533D01*
X81468000Y-97387843D01*
X81499930Y-97526032D01*
X81627359Y-97545879D01*
X81665325Y-97539464D01*
X81870299Y-97547213D01*
X82127604Y-97614117D01*
X82183665Y-97635872D01*
X82414321Y-97730315D01*
X82527838Y-97751307D01*
X82565521Y-97685140D01*
X82568674Y-97518106D01*
X82568667Y-97508099D01*
X82568667Y-97246197D01*
X83394167Y-97301363D01*
X83886548Y-97336151D01*
X84234764Y-97368986D01*
X84463714Y-97407403D01*
X84598300Y-97458935D01*
X84663422Y-97531120D01*
X84683981Y-97631490D01*
X84685333Y-97692061D01*
X84685333Y-97939334D01*
X86981709Y-97939334D01*
X86928264Y-97579500D01*
X86922649Y-97240053D01*
X86983350Y-96754171D01*
X87064998Y-96330667D01*
X87175587Y-95764005D01*
X87230527Y-95317492D01*
X87225616Y-94949950D01*
X87156649Y-94620197D01*
X87019421Y-94287054D01*
X86819465Y-93925663D01*
X86564475Y-93536423D01*
X86325372Y-93244581D01*
X86145833Y-93091799D01*
X85939534Y-92955395D01*
X85889955Y-92881088D01*
X85999214Y-92861897D01*
X86209333Y-92882462D01*
X86420584Y-92905793D01*
X86538867Y-92909145D01*
X86548000Y-92905125D01*
X86473781Y-92814129D01*
X86277937Y-92692150D01*
X86000686Y-92558007D01*
X85682245Y-92430522D01*
X85362833Y-92328515D01*
X85261422Y-92303042D01*
X84609845Y-92153202D01*
X83746200Y-92485101D01*
X83340227Y-92647747D01*
X83058187Y-92781356D01*
X82862668Y-92908301D01*
X82716261Y-93050953D01*
X82642393Y-93145202D01*
X82491945Y-93333904D01*
X82402903Y-93392914D01*
X82350401Y-93338250D01*
X82348849Y-93334290D01*
X82322304Y-93143756D01*
X82335659Y-92984921D01*
X82333462Y-92817728D01*
X82252221Y-92774667D01*
X82010415Y-92834478D01*
X81694333Y-92999276D01*
X81341775Y-93247111D01*
X81126002Y-93428740D01*
X80902859Y-93626488D01*
X80777236Y-93720854D01*
X80721122Y-93722103D01*
X80706503Y-93640499D01*
X80706000Y-93582642D01*
X80769935Y-93265979D01*
X80967157Y-92903155D01*
X81305786Y-92479828D01*
X81371224Y-92408123D01*
X81572351Y-92188578D01*
X81664446Y-92076174D01*
X81654324Y-92054550D01*
X81548802Y-92107345D01*
X81480307Y-92146266D01*
X81247055Y-92307621D01*
X81058036Y-92483482D01*
X81044789Y-92499500D01*
X80910068Y-92637894D01*
X80814888Y-92690000D01*
X80675635Y-92752888D01*
X80463111Y-92922739D01*
X80206022Y-93171332D01*
X79933074Y-93470448D01*
X79672974Y-93791866D01*
X79616353Y-93868225D01*
X79299754Y-94358128D01*
X79104883Y-94810011D01*
X79012780Y-95280092D01*
X79000090Y-95695667D01*
X78736115Y-95695667D01*
X78722002Y-95519102D01*
X78811554Y-94802759D01*
X78839330Y-94679667D01*
X79000685Y-94002334D01*
X78754953Y-94298667D01*
X78606706Y-94489739D01*
X78517940Y-94627831D01*
X78506944Y-94658500D01*
X78438384Y-94719210D01*
X78410821Y-94722000D01*
X78357134Y-94657275D01*
X78373435Y-94498328D01*
X78445773Y-94298004D01*
X78560197Y-94109146D01*
X78578461Y-94087000D01*
X78762798Y-93862766D01*
X78845100Y-93739785D01*
X78822648Y-93726379D01*
X78692722Y-93830865D01*
X78649147Y-93870776D01*
X78451399Y-94028597D01*
X78348847Y-94054775D01*
X78344641Y-93959797D01*
X78441934Y-93754151D01*
X78558686Y-93569648D01*
X78913041Y-93076564D01*
X79239702Y-92700054D01*
X79581338Y-92402674D01*
X79980619Y-92146976D01*
X80450679Y-91909274D01*
X80865226Y-91724155D01*
X81282529Y-91552461D01*
X81645680Y-91416897D01*
X81840679Y-91354685D01*
X82342999Y-91215027D01*
X82074833Y-91105604D01*
X81895281Y-91025579D01*
X81808210Y-90973492D01*
X81806667Y-90970060D01*
X81884754Y-90957991D01*
X82092708Y-90948631D01*
X82391065Y-90943508D01*
X82505167Y-90943005D01*
X82929390Y-90933394D01*
X83377164Y-90909054D01*
X83753360Y-90875195D01*
X83761655Y-90874195D01*
X84214071Y-90849761D01*
X84765892Y-90868270D01*
G36*
X82236623Y-100112360D02*
X82606719Y-100285963D01*
X82843833Y-100460332D01*
X82961429Y-100594780D01*
X82961401Y-100706522D01*
X82829838Y-100809979D01*
X82552830Y-100919573D01*
X82335833Y-100986984D01*
X82016936Y-101081933D01*
X81757315Y-101160765D01*
X81602875Y-101209501D01*
X81586127Y-101215326D01*
X81505081Y-101163566D01*
X81394311Y-100996275D01*
X81552667Y-100996275D01*
X81566241Y-101065608D01*
X81628221Y-101089180D01*
X81770496Y-101063647D01*
X82024954Y-100985668D01*
X82195518Y-100928892D01*
X82511867Y-100818009D01*
X82690695Y-100739000D01*
X82756808Y-100675538D01*
X82735015Y-100611296D01*
X82713566Y-100587947D01*
X82491727Y-100473118D01*
X82204556Y-100459255D01*
X81919454Y-100542178D01*
X81766422Y-100646705D01*
X81620074Y-100824769D01*
X81553104Y-100986326D01*
X81552667Y-100996275D01*
X81394311Y-100996275D01*
X81392643Y-100993756D01*
X81303655Y-100810831D01*
X81114723Y-100371647D01*
X81292256Y-100194114D01*
X81538670Y-100059449D01*
X81867033Y-100034527D01*
X82236623Y-100112360D01*
X82236623Y-100112360D01*
G37*
X82236623Y-100112360D02*
X82606719Y-100285963D01*
X82843833Y-100460332D01*
X82961429Y-100594780D01*
X82961401Y-100706522D01*
X82829838Y-100809979D01*
X82552830Y-100919573D01*
X82335833Y-100986984D01*
X82016936Y-101081933D01*
X81757315Y-101160765D01*
X81602875Y-101209501D01*
X81586127Y-101215326D01*
X81505081Y-101163566D01*
X81394311Y-100996275D01*
X81552667Y-100996275D01*
X81566241Y-101065608D01*
X81628221Y-101089180D01*
X81770496Y-101063647D01*
X82024954Y-100985668D01*
X82195518Y-100928892D01*
X82511867Y-100818009D01*
X82690695Y-100739000D01*
X82756808Y-100675538D01*
X82735015Y-100611296D01*
X82713566Y-100587947D01*
X82491727Y-100473118D01*
X82204556Y-100459255D01*
X81919454Y-100542178D01*
X81766422Y-100646705D01*
X81620074Y-100824769D01*
X81553104Y-100986326D01*
X81552667Y-100996275D01*
X81394311Y-100996275D01*
X81392643Y-100993756D01*
X81303655Y-100810831D01*
X81114723Y-100371647D01*
X81292256Y-100194114D01*
X81538670Y-100059449D01*
X81867033Y-100034527D01*
X82236623Y-100112360D01*
G36*
X87680272Y-98313507D02*
X87988391Y-98442327D01*
X88171918Y-98661998D01*
X88223585Y-98941268D01*
X88136122Y-99248886D01*
X87956169Y-99499638D01*
X87747563Y-99703970D01*
X87604388Y-99787847D01*
X87488986Y-99765154D01*
X87411600Y-99700400D01*
X87336333Y-99546795D01*
X87304049Y-99340567D01*
X87278509Y-99095535D01*
X87233839Y-98918196D01*
X87225201Y-98706922D01*
X87234259Y-98680109D01*
X87442238Y-98680109D01*
X87486394Y-98903469D01*
X87508725Y-98961510D01*
X87577173Y-99180519D01*
X87592178Y-99341806D01*
X87588260Y-99357558D01*
X87587587Y-99439512D01*
X87660804Y-99422638D01*
X87768129Y-99333617D01*
X87869782Y-99199130D01*
X87893816Y-99152614D01*
X87954959Y-98885280D01*
X87879496Y-98684356D01*
X87710823Y-98586248D01*
X87516346Y-98575672D01*
X87442238Y-98680109D01*
X87234259Y-98680109D01*
X87292562Y-98507534D01*
X87401450Y-98339170D01*
X87537082Y-98294083D01*
X87680272Y-98313507D01*
X87680272Y-98313507D01*
G37*
X87680272Y-98313507D02*
X87988391Y-98442327D01*
X88171918Y-98661998D01*
X88223585Y-98941268D01*
X88136122Y-99248886D01*
X87956169Y-99499638D01*
X87747563Y-99703970D01*
X87604388Y-99787847D01*
X87488986Y-99765154D01*
X87411600Y-99700400D01*
X87336333Y-99546795D01*
X87304049Y-99340567D01*
X87278509Y-99095535D01*
X87233839Y-98918196D01*
X87225201Y-98706922D01*
X87234259Y-98680109D01*
X87442238Y-98680109D01*
X87486394Y-98903469D01*
X87508725Y-98961510D01*
X87577173Y-99180519D01*
X87592178Y-99341806D01*
X87588260Y-99357558D01*
X87587587Y-99439512D01*
X87660804Y-99422638D01*
X87768129Y-99333617D01*
X87869782Y-99199130D01*
X87893816Y-99152614D01*
X87954959Y-98885280D01*
X87879496Y-98684356D01*
X87710823Y-98586248D01*
X87516346Y-98575672D01*
X87442238Y-98680109D01*
X87234259Y-98680109D01*
X87292562Y-98507534D01*
X87401450Y-98339170D01*
X87537082Y-98294083D01*
X87680272Y-98313507D01*
G36*
X82344010Y-99207578D02*
X82353551Y-99215818D01*
X82376905Y-99323374D01*
X82277318Y-99426700D01*
X82092299Y-99534759D01*
X81977567Y-99518102D01*
X81937247Y-99469127D01*
X81952648Y-99364982D01*
X82068442Y-99260593D01*
X82220329Y-99195083D01*
X82344010Y-99207578D01*
X82344010Y-99207578D01*
G37*
X82344010Y-99207578D02*
X82353551Y-99215818D01*
X82376905Y-99323374D01*
X82277318Y-99426700D01*
X82092299Y-99534759D01*
X81977567Y-99518102D01*
X81937247Y-99469127D01*
X81952648Y-99364982D01*
X82068442Y-99260593D01*
X82220329Y-99195083D01*
X82344010Y-99207578D01*
G36*
X81408158Y-99011122D02*
X81524895Y-99119366D01*
X81588907Y-99264985D01*
X81582344Y-99338784D01*
X81495261Y-99453663D01*
X81369353Y-99410482D01*
X81315600Y-99361734D01*
X81221948Y-99193572D01*
X81249348Y-99040921D01*
X81291841Y-99001885D01*
X81408158Y-99011122D01*
X81408158Y-99011122D01*
G37*
X81408158Y-99011122D02*
X81524895Y-99119366D01*
X81588907Y-99264985D01*
X81582344Y-99338784D01*
X81495261Y-99453663D01*
X81369353Y-99410482D01*
X81315600Y-99361734D01*
X81221948Y-99193572D01*
X81249348Y-99040921D01*
X81291841Y-99001885D01*
X81408158Y-99011122D01*
G36*
X82078236Y-98750767D02*
X82386080Y-98864379D01*
X82546759Y-98979608D01*
X82677233Y-99137873D01*
X82719305Y-99248859D01*
X82712343Y-99263212D01*
X82658279Y-99257226D01*
X82653333Y-99222200D01*
X82576216Y-99071861D01*
X82374133Y-98944467D01*
X82090985Y-98850404D01*
X81770671Y-98800060D01*
X81457094Y-98803819D01*
X81194153Y-98872070D01*
X81187267Y-98875338D01*
X81060259Y-98933785D01*
X81072226Y-98909023D01*
X81171667Y-98826338D01*
X81409571Y-98724896D01*
X81732247Y-98701989D01*
X82078236Y-98750767D01*
X82078236Y-98750767D01*
G37*
X82078236Y-98750767D02*
X82386080Y-98864379D01*
X82546759Y-98979608D01*
X82677233Y-99137873D01*
X82719305Y-99248859D01*
X82712343Y-99263212D01*
X82658279Y-99257226D01*
X82653333Y-99222200D01*
X82576216Y-99071861D01*
X82374133Y-98944467D01*
X82090985Y-98850404D01*
X81770671Y-98800060D01*
X81457094Y-98803819D01*
X81194153Y-98872070D01*
X81187267Y-98875338D01*
X81060259Y-98933785D01*
X81072226Y-98909023D01*
X81171667Y-98826338D01*
X81409571Y-98724896D01*
X81732247Y-98701989D01*
X82078236Y-98750767D01*
G36*
X84103568Y-95538371D02*
X84377083Y-95682654D01*
X84419927Y-95706282D01*
X84725340Y-95874808D01*
X84909544Y-95981347D01*
X84997986Y-96048567D01*
X85016112Y-96099132D01*
X84989368Y-96155710D01*
X84966989Y-96193574D01*
X84908696Y-96249478D01*
X84805229Y-96243601D01*
X84623268Y-96166513D01*
X84345395Y-96017642D01*
X84077588Y-95868067D01*
X83875168Y-95753981D01*
X83776611Y-95697088D01*
X83773174Y-95694836D01*
X83779044Y-95613719D01*
X83804100Y-95536623D01*
X83849445Y-95474273D01*
X83938478Y-95471884D01*
X84103568Y-95538371D01*
X84103568Y-95538371D01*
G37*
X84103568Y-95538371D02*
X84377083Y-95682654D01*
X84419927Y-95706282D01*
X84725340Y-95874808D01*
X84909544Y-95981347D01*
X84997986Y-96048567D01*
X85016112Y-96099132D01*
X84989368Y-96155710D01*
X84966989Y-96193574D01*
X84908696Y-96249478D01*
X84805229Y-96243601D01*
X84623268Y-96166513D01*
X84345395Y-96017642D01*
X84077588Y-95868067D01*
X83875168Y-95753981D01*
X83776611Y-95697088D01*
X83773174Y-95694836D01*
X83779044Y-95613719D01*
X83804100Y-95536623D01*
X83849445Y-95474273D01*
X83938478Y-95471884D01*
X84103568Y-95538371D01*
G36*
X80560652Y-95451797D02*
X80648824Y-95518184D01*
X80638263Y-95603556D01*
X80508787Y-95663208D01*
X80299438Y-95702519D01*
X80005668Y-95772076D01*
X79746373Y-95876572D01*
X79680443Y-95916213D01*
X79513252Y-96008317D01*
X79408461Y-96020374D01*
X79405276Y-96017721D01*
X79356224Y-95910146D01*
X79437166Y-95786139D01*
X79584167Y-95670479D01*
X79818513Y-95549087D01*
X80093043Y-95467360D01*
X80357257Y-95432521D01*
X80560652Y-95451797D01*
X80560652Y-95451797D01*
G37*
X80560652Y-95451797D02*
X80648824Y-95518184D01*
X80638263Y-95603556D01*
X80508787Y-95663208D01*
X80299438Y-95702519D01*
X80005668Y-95772076D01*
X79746373Y-95876572D01*
X79680443Y-95916213D01*
X79513252Y-96008317D01*
X79408461Y-96020374D01*
X79405276Y-96017721D01*
X79356224Y-95910146D01*
X79437166Y-95786139D01*
X79584167Y-95670479D01*
X79818513Y-95549087D01*
X80093043Y-95467360D01*
X80357257Y-95432521D01*
X80560652Y-95451797D01*
D11*
X82100000Y-116975000D02*
X80100000Y-116975000D01*
X80100000Y-114825000D02*
X82100000Y-114825000D01*
X98710000Y-106075000D02*
X96710000Y-106075000D01*
X96710000Y-103925000D02*
X98710000Y-103925000D01*
X107350000Y-108975000D02*
X105350000Y-108975000D01*
X105350000Y-106825000D02*
X107350000Y-106825000D01*
X73100000Y-114825000D02*
X75100000Y-114825000D01*
X75100000Y-116975000D02*
X73100000Y-116975000D01*
X72560000Y-110380000D02*
X70160000Y-110380000D01*
X70160000Y-110380000D02*
X70160000Y-105980000D01*
X70160000Y-105980000D02*
X72560000Y-105980000D01*
X72560000Y-105980000D02*
X72560000Y-110380000D01*
D12*
X70960000Y-109830000D02*
G75*
G03X70960000Y-109830000I-250000J0D01*
G01*
D11*
X76190000Y-105190000D02*
X76190000Y-112810000D01*
X76190000Y-112810000D02*
X83810000Y-112810000D01*
X83810000Y-112810000D02*
X83810000Y-105190000D01*
X83810000Y-105190000D02*
X76190000Y-105190000D01*
X85425000Y-110500000D02*
X85425000Y-108500000D01*
X87575000Y-108500000D02*
X87575000Y-110500000D01*
X91600000Y-115900000D02*
X91600000Y-113900000D01*
X90100000Y-116354000D02*
X92100000Y-116354000D01*
X90100000Y-113446000D02*
X92200000Y-113446000D01*
D15*
X103910000Y-114500000D02*
X102760000Y-114500000D01*
X103910000Y-109300000D02*
X102710000Y-109300000D01*
X103900000Y-109500000D02*
X103900000Y-109300000D01*
X103900000Y-114500000D02*
X103900000Y-114300000D01*
D11*
X80300000Y-117300000D02*
X80300000Y-130500000D01*
X80300000Y-130500000D02*
X70100000Y-130500000D01*
X70100000Y-130500000D02*
X70100000Y-117300000D01*
X70100000Y-117300000D02*
X80300000Y-117300000D01*
X102800000Y-117300000D02*
X102800000Y-130500000D01*
X102800000Y-130500000D02*
X92600000Y-130500000D01*
X92600000Y-130500000D02*
X92600000Y-117300000D01*
X92600000Y-117300000D02*
X102800000Y-117300000D01*
X91550000Y-117300000D02*
X91550000Y-130500000D01*
X91550000Y-130500000D02*
X81350000Y-130500000D01*
X81350000Y-130500000D02*
X81350000Y-117300000D01*
X81350000Y-117300000D02*
X91550000Y-117300000D01*
X114050000Y-117300000D02*
X114050000Y-130500000D01*
X114050000Y-130500000D02*
X103850000Y-130500000D01*
X103850000Y-130500000D02*
X103850000Y-117300000D01*
X103850000Y-117300000D02*
X114050000Y-117300000D01*
D14*
G36*
X95555814Y-96468931D02*
X95639635Y-96913555D01*
X95948920Y-97041053D01*
X96258206Y-97168551D01*
X96629246Y-96916246D01*
X96733157Y-96845996D01*
X96827087Y-96783272D01*
X96906652Y-96730938D01*
X96967470Y-96691857D01*
X97005157Y-96668893D01*
X97015421Y-96663942D01*
X97033910Y-96676676D01*
X97073420Y-96711882D01*
X97129522Y-96765062D01*
X97197787Y-96831718D01*
X97273786Y-96907354D01*
X97353092Y-96987472D01*
X97431275Y-97067574D01*
X97503907Y-97143164D01*
X97566559Y-97209745D01*
X97614803Y-97262818D01*
X97644210Y-97297887D01*
X97651241Y-97309623D01*
X97641123Y-97331260D01*
X97612759Y-97378662D01*
X97569129Y-97447193D01*
X97513218Y-97532215D01*
X97448006Y-97629093D01*
X97410219Y-97684350D01*
X97341343Y-97785248D01*
X97280140Y-97876299D01*
X97229578Y-97952970D01*
X97192628Y-98010728D01*
X97172258Y-98045043D01*
X97169197Y-98052254D01*
X97176136Y-98072748D01*
X97195051Y-98120513D01*
X97223087Y-98188832D01*
X97257391Y-98270989D01*
X97295109Y-98360270D01*
X97333387Y-98449958D01*
X97369370Y-98533338D01*
X97400206Y-98603694D01*
X97423039Y-98654310D01*
X97435017Y-98678471D01*
X97435724Y-98679422D01*
X97454531Y-98684036D01*
X97504618Y-98694328D01*
X97580793Y-98709287D01*
X97677865Y-98727901D01*
X97790643Y-98749159D01*
X97856442Y-98761418D01*
X97976950Y-98784362D01*
X98085797Y-98806195D01*
X98177476Y-98825722D01*
X98246481Y-98841748D01*
X98287304Y-98853079D01*
X98295511Y-98856674D01*
X98303548Y-98881006D01*
X98310033Y-98935959D01*
X98314970Y-99015108D01*
X98318364Y-99112026D01*
X98320218Y-99220287D01*
X98320538Y-99333465D01*
X98319327Y-99445135D01*
X98316590Y-99548868D01*
X98312331Y-99638241D01*
X98306555Y-99706826D01*
X98299267Y-99748197D01*
X98294895Y-99756810D01*
X98268764Y-99767133D01*
X98213393Y-99781892D01*
X98136107Y-99799352D01*
X98044230Y-99817780D01*
X98012158Y-99823741D01*
X97857524Y-99852066D01*
X97735375Y-99874876D01*
X97641673Y-99893080D01*
X97572384Y-99907583D01*
X97523471Y-99919292D01*
X97490897Y-99929115D01*
X97470628Y-99937956D01*
X97458626Y-99946724D01*
X97456947Y-99948457D01*
X97440184Y-99976371D01*
X97414614Y-100030695D01*
X97382788Y-100104777D01*
X97347260Y-100191965D01*
X97310583Y-100285608D01*
X97275311Y-100379052D01*
X97243996Y-100465647D01*
X97219193Y-100538740D01*
X97203454Y-100591678D01*
X97199332Y-100617811D01*
X97199676Y-100618726D01*
X97213641Y-100640086D01*
X97245322Y-100687084D01*
X97291391Y-100754827D01*
X97348518Y-100838423D01*
X97413373Y-100932982D01*
X97431843Y-100959854D01*
X97497699Y-101057275D01*
X97555650Y-101146163D01*
X97602538Y-101221412D01*
X97635207Y-101277920D01*
X97650500Y-101310581D01*
X97651241Y-101314593D01*
X97638392Y-101335684D01*
X97602888Y-101377464D01*
X97549293Y-101435445D01*
X97482171Y-101505135D01*
X97406087Y-101582045D01*
X97325604Y-101661683D01*
X97245287Y-101739561D01*
X97169699Y-101811186D01*
X97103405Y-101872070D01*
X97050969Y-101917721D01*
X97016955Y-101943650D01*
X97007545Y-101947883D01*
X96985643Y-101937912D01*
X96940800Y-101911020D01*
X96880321Y-101871736D01*
X96833789Y-101840117D01*
X96749475Y-101782098D01*
X96649626Y-101713784D01*
X96549473Y-101645579D01*
X96495627Y-101609075D01*
X96313371Y-101485800D01*
X96160381Y-101568520D01*
X96090682Y-101604759D01*
X96031414Y-101632926D01*
X95991311Y-101648991D01*
X95981103Y-101651226D01*
X95968829Y-101634722D01*
X95944613Y-101588082D01*
X95910263Y-101515609D01*
X95867588Y-101421606D01*
X95818394Y-101310374D01*
X95764490Y-101186215D01*
X95707684Y-101053432D01*
X95649782Y-100916327D01*
X95592593Y-100779202D01*
X95537924Y-100646358D01*
X95487584Y-100522098D01*
X95443380Y-100410725D01*
X95407119Y-100316539D01*
X95380609Y-100243844D01*
X95365658Y-100196941D01*
X95363254Y-100180833D01*
X95382311Y-100160286D01*
X95424036Y-100126933D01*
X95479706Y-100087702D01*
X95484378Y-100084599D01*
X95628264Y-99969423D01*
X95744283Y-99835053D01*
X95831430Y-99685784D01*
X95888699Y-99525913D01*
X95915086Y-99359737D01*
X95909585Y-99191552D01*
X95871190Y-99025655D01*
X95798895Y-98866342D01*
X95777626Y-98831487D01*
X95666996Y-98690737D01*
X95536302Y-98577714D01*
X95390064Y-98493003D01*
X95232808Y-98437194D01*
X95069057Y-98410874D01*
X94903333Y-98414630D01*
X94740162Y-98449050D01*
X94584065Y-98514723D01*
X94439567Y-98612235D01*
X94394869Y-98651813D01*
X94281112Y-98775703D01*
X94198218Y-98906124D01*
X94141356Y-99052315D01*
X94109687Y-99197088D01*
X94101869Y-99359860D01*
X94127938Y-99523440D01*
X94185245Y-99682298D01*
X94271144Y-99830906D01*
X94382986Y-99963735D01*
X94518123Y-100075256D01*
X94535883Y-100087011D01*
X94592150Y-100125508D01*
X94634923Y-100158863D01*
X94655372Y-100180160D01*
X94655669Y-100180833D01*
X94651279Y-100203871D01*
X94633876Y-100256157D01*
X94605268Y-100333390D01*
X94567265Y-100431268D01*
X94521674Y-100545491D01*
X94470303Y-100671758D01*
X94414962Y-100805767D01*
X94357458Y-100943218D01*
X94299601Y-101079808D01*
X94243198Y-101211237D01*
X94190058Y-101333205D01*
X94141990Y-101441409D01*
X94100801Y-101531549D01*
X94068301Y-101599323D01*
X94046297Y-101640430D01*
X94037436Y-101651226D01*
X94010360Y-101642819D01*
X93959697Y-101620272D01*
X93894183Y-101587613D01*
X93858159Y-101568520D01*
X93705168Y-101485800D01*
X93522912Y-101609075D01*
X93429875Y-101672228D01*
X93328015Y-101741727D01*
X93232562Y-101807165D01*
X93184750Y-101840117D01*
X93117505Y-101885273D01*
X93060564Y-101921057D01*
X93021354Y-101942938D01*
X93008619Y-101947563D01*
X92990083Y-101935085D01*
X92949059Y-101900252D01*
X92889525Y-101846678D01*
X92815458Y-101777983D01*
X92730835Y-101697781D01*
X92677315Y-101646286D01*
X92583681Y-101554286D01*
X92502759Y-101471999D01*
X92437823Y-101402945D01*
X92392142Y-101350644D01*
X92368989Y-101318616D01*
X92366768Y-101312116D01*
X92377076Y-101287394D01*
X92405561Y-101237405D01*
X92449063Y-101167212D01*
X92504423Y-101081875D01*
X92568480Y-100986456D01*
X92586697Y-100959854D01*
X92653073Y-100863167D01*
X92712622Y-100776117D01*
X92762016Y-100703595D01*
X92797925Y-100650493D01*
X92817019Y-100621703D01*
X92818864Y-100618726D01*
X92816105Y-100595782D01*
X92801462Y-100545336D01*
X92777487Y-100474041D01*
X92746734Y-100388547D01*
X92711756Y-100295507D01*
X92675107Y-100201574D01*
X92639339Y-100113399D01*
X92607006Y-100037634D01*
X92580662Y-99980931D01*
X92562858Y-99949943D01*
X92561593Y-99948457D01*
X92550706Y-99939601D01*
X92532318Y-99930843D01*
X92502394Y-99921277D01*
X92456897Y-99909996D01*
X92391791Y-99896093D01*
X92303039Y-99878663D01*
X92186607Y-99856798D01*
X92038458Y-99829591D01*
X92006382Y-99823741D01*
X91911314Y-99805374D01*
X91828435Y-99787405D01*
X91765070Y-99771569D01*
X91728542Y-99759600D01*
X91723644Y-99756810D01*
X91715573Y-99732072D01*
X91709013Y-99676790D01*
X91703967Y-99597389D01*
X91700441Y-99500296D01*
X91698439Y-99391938D01*
X91697964Y-99278740D01*
X91699023Y-99167128D01*
X91701618Y-99063529D01*
X91705754Y-98974368D01*
X91711437Y-98906072D01*
X91718669Y-98865066D01*
X91723029Y-98856674D01*
X91747302Y-98848208D01*
X91802574Y-98834435D01*
X91883338Y-98816550D01*
X91984088Y-98795748D01*
X92099317Y-98773223D01*
X92162098Y-98761418D01*
X92281213Y-98739151D01*
X92387435Y-98718979D01*
X92475573Y-98701915D01*
X92540434Y-98688969D01*
X92576826Y-98681155D01*
X92582816Y-98679422D01*
X92592939Y-98659890D01*
X92614338Y-98612843D01*
X92644161Y-98545003D01*
X92679555Y-98463091D01*
X92717668Y-98373828D01*
X92755647Y-98283935D01*
X92790640Y-98200135D01*
X92819794Y-98129147D01*
X92840257Y-98077694D01*
X92849177Y-98052497D01*
X92849343Y-98051396D01*
X92839231Y-98031519D01*
X92810883Y-97985777D01*
X92767277Y-97918717D01*
X92711394Y-97834884D01*
X92646213Y-97738826D01*
X92608321Y-97683650D01*
X92539275Y-97582481D01*
X92477950Y-97490630D01*
X92427337Y-97412744D01*
X92390429Y-97353469D01*
X92370218Y-97317451D01*
X92367299Y-97309377D01*
X92379847Y-97290584D01*
X92414537Y-97250457D01*
X92466937Y-97193493D01*
X92532616Y-97124185D01*
X92607144Y-97047031D01*
X92686087Y-96966525D01*
X92765017Y-96887163D01*
X92839500Y-96813440D01*
X92905106Y-96749852D01*
X92957404Y-96700894D01*
X92991961Y-96671061D01*
X93003522Y-96663942D01*
X93022346Y-96673953D01*
X93067369Y-96702078D01*
X93134213Y-96745454D01*
X93218501Y-96801218D01*
X93315856Y-96866506D01*
X93389293Y-96916246D01*
X93760333Y-97168551D01*
X94378905Y-96913555D01*
X94462725Y-96468931D01*
X94546546Y-96024307D01*
X95471994Y-96024307D01*
X95555814Y-96468931D01*
X95555814Y-96468931D01*
G37*
X95555814Y-96468931D02*
X95639635Y-96913555D01*
X95948920Y-97041053D01*
X96258206Y-97168551D01*
X96629246Y-96916246D01*
X96733157Y-96845996D01*
X96827087Y-96783272D01*
X96906652Y-96730938D01*
X96967470Y-96691857D01*
X97005157Y-96668893D01*
X97015421Y-96663942D01*
X97033910Y-96676676D01*
X97073420Y-96711882D01*
X97129522Y-96765062D01*
X97197787Y-96831718D01*
X97273786Y-96907354D01*
X97353092Y-96987472D01*
X97431275Y-97067574D01*
X97503907Y-97143164D01*
X97566559Y-97209745D01*
X97614803Y-97262818D01*
X97644210Y-97297887D01*
X97651241Y-97309623D01*
X97641123Y-97331260D01*
X97612759Y-97378662D01*
X97569129Y-97447193D01*
X97513218Y-97532215D01*
X97448006Y-97629093D01*
X97410219Y-97684350D01*
X97341343Y-97785248D01*
X97280140Y-97876299D01*
X97229578Y-97952970D01*
X97192628Y-98010728D01*
X97172258Y-98045043D01*
X97169197Y-98052254D01*
X97176136Y-98072748D01*
X97195051Y-98120513D01*
X97223087Y-98188832D01*
X97257391Y-98270989D01*
X97295109Y-98360270D01*
X97333387Y-98449958D01*
X97369370Y-98533338D01*
X97400206Y-98603694D01*
X97423039Y-98654310D01*
X97435017Y-98678471D01*
X97435724Y-98679422D01*
X97454531Y-98684036D01*
X97504618Y-98694328D01*
X97580793Y-98709287D01*
X97677865Y-98727901D01*
X97790643Y-98749159D01*
X97856442Y-98761418D01*
X97976950Y-98784362D01*
X98085797Y-98806195D01*
X98177476Y-98825722D01*
X98246481Y-98841748D01*
X98287304Y-98853079D01*
X98295511Y-98856674D01*
X98303548Y-98881006D01*
X98310033Y-98935959D01*
X98314970Y-99015108D01*
X98318364Y-99112026D01*
X98320218Y-99220287D01*
X98320538Y-99333465D01*
X98319327Y-99445135D01*
X98316590Y-99548868D01*
X98312331Y-99638241D01*
X98306555Y-99706826D01*
X98299267Y-99748197D01*
X98294895Y-99756810D01*
X98268764Y-99767133D01*
X98213393Y-99781892D01*
X98136107Y-99799352D01*
X98044230Y-99817780D01*
X98012158Y-99823741D01*
X97857524Y-99852066D01*
X97735375Y-99874876D01*
X97641673Y-99893080D01*
X97572384Y-99907583D01*
X97523471Y-99919292D01*
X97490897Y-99929115D01*
X97470628Y-99937956D01*
X97458626Y-99946724D01*
X97456947Y-99948457D01*
X97440184Y-99976371D01*
X97414614Y-100030695D01*
X97382788Y-100104777D01*
X97347260Y-100191965D01*
X97310583Y-100285608D01*
X97275311Y-100379052D01*
X97243996Y-100465647D01*
X97219193Y-100538740D01*
X97203454Y-100591678D01*
X97199332Y-100617811D01*
X97199676Y-100618726D01*
X97213641Y-100640086D01*
X97245322Y-100687084D01*
X97291391Y-100754827D01*
X97348518Y-100838423D01*
X97413373Y-100932982D01*
X97431843Y-100959854D01*
X97497699Y-101057275D01*
X97555650Y-101146163D01*
X97602538Y-101221412D01*
X97635207Y-101277920D01*
X97650500Y-101310581D01*
X97651241Y-101314593D01*
X97638392Y-101335684D01*
X97602888Y-101377464D01*
X97549293Y-101435445D01*
X97482171Y-101505135D01*
X97406087Y-101582045D01*
X97325604Y-101661683D01*
X97245287Y-101739561D01*
X97169699Y-101811186D01*
X97103405Y-101872070D01*
X97050969Y-101917721D01*
X97016955Y-101943650D01*
X97007545Y-101947883D01*
X96985643Y-101937912D01*
X96940800Y-101911020D01*
X96880321Y-101871736D01*
X96833789Y-101840117D01*
X96749475Y-101782098D01*
X96649626Y-101713784D01*
X96549473Y-101645579D01*
X96495627Y-101609075D01*
X96313371Y-101485800D01*
X96160381Y-101568520D01*
X96090682Y-101604759D01*
X96031414Y-101632926D01*
X95991311Y-101648991D01*
X95981103Y-101651226D01*
X95968829Y-101634722D01*
X95944613Y-101588082D01*
X95910263Y-101515609D01*
X95867588Y-101421606D01*
X95818394Y-101310374D01*
X95764490Y-101186215D01*
X95707684Y-101053432D01*
X95649782Y-100916327D01*
X95592593Y-100779202D01*
X95537924Y-100646358D01*
X95487584Y-100522098D01*
X95443380Y-100410725D01*
X95407119Y-100316539D01*
X95380609Y-100243844D01*
X95365658Y-100196941D01*
X95363254Y-100180833D01*
X95382311Y-100160286D01*
X95424036Y-100126933D01*
X95479706Y-100087702D01*
X95484378Y-100084599D01*
X95628264Y-99969423D01*
X95744283Y-99835053D01*
X95831430Y-99685784D01*
X95888699Y-99525913D01*
X95915086Y-99359737D01*
X95909585Y-99191552D01*
X95871190Y-99025655D01*
X95798895Y-98866342D01*
X95777626Y-98831487D01*
X95666996Y-98690737D01*
X95536302Y-98577714D01*
X95390064Y-98493003D01*
X95232808Y-98437194D01*
X95069057Y-98410874D01*
X94903333Y-98414630D01*
X94740162Y-98449050D01*
X94584065Y-98514723D01*
X94439567Y-98612235D01*
X94394869Y-98651813D01*
X94281112Y-98775703D01*
X94198218Y-98906124D01*
X94141356Y-99052315D01*
X94109687Y-99197088D01*
X94101869Y-99359860D01*
X94127938Y-99523440D01*
X94185245Y-99682298D01*
X94271144Y-99830906D01*
X94382986Y-99963735D01*
X94518123Y-100075256D01*
X94535883Y-100087011D01*
X94592150Y-100125508D01*
X94634923Y-100158863D01*
X94655372Y-100180160D01*
X94655669Y-100180833D01*
X94651279Y-100203871D01*
X94633876Y-100256157D01*
X94605268Y-100333390D01*
X94567265Y-100431268D01*
X94521674Y-100545491D01*
X94470303Y-100671758D01*
X94414962Y-100805767D01*
X94357458Y-100943218D01*
X94299601Y-101079808D01*
X94243198Y-101211237D01*
X94190058Y-101333205D01*
X94141990Y-101441409D01*
X94100801Y-101531549D01*
X94068301Y-101599323D01*
X94046297Y-101640430D01*
X94037436Y-101651226D01*
X94010360Y-101642819D01*
X93959697Y-101620272D01*
X93894183Y-101587613D01*
X93858159Y-101568520D01*
X93705168Y-101485800D01*
X93522912Y-101609075D01*
X93429875Y-101672228D01*
X93328015Y-101741727D01*
X93232562Y-101807165D01*
X93184750Y-101840117D01*
X93117505Y-101885273D01*
X93060564Y-101921057D01*
X93021354Y-101942938D01*
X93008619Y-101947563D01*
X92990083Y-101935085D01*
X92949059Y-101900252D01*
X92889525Y-101846678D01*
X92815458Y-101777983D01*
X92730835Y-101697781D01*
X92677315Y-101646286D01*
X92583681Y-101554286D01*
X92502759Y-101471999D01*
X92437823Y-101402945D01*
X92392142Y-101350644D01*
X92368989Y-101318616D01*
X92366768Y-101312116D01*
X92377076Y-101287394D01*
X92405561Y-101237405D01*
X92449063Y-101167212D01*
X92504423Y-101081875D01*
X92568480Y-100986456D01*
X92586697Y-100959854D01*
X92653073Y-100863167D01*
X92712622Y-100776117D01*
X92762016Y-100703595D01*
X92797925Y-100650493D01*
X92817019Y-100621703D01*
X92818864Y-100618726D01*
X92816105Y-100595782D01*
X92801462Y-100545336D01*
X92777487Y-100474041D01*
X92746734Y-100388547D01*
X92711756Y-100295507D01*
X92675107Y-100201574D01*
X92639339Y-100113399D01*
X92607006Y-100037634D01*
X92580662Y-99980931D01*
X92562858Y-99949943D01*
X92561593Y-99948457D01*
X92550706Y-99939601D01*
X92532318Y-99930843D01*
X92502394Y-99921277D01*
X92456897Y-99909996D01*
X92391791Y-99896093D01*
X92303039Y-99878663D01*
X92186607Y-99856798D01*
X92038458Y-99829591D01*
X92006382Y-99823741D01*
X91911314Y-99805374D01*
X91828435Y-99787405D01*
X91765070Y-99771569D01*
X91728542Y-99759600D01*
X91723644Y-99756810D01*
X91715573Y-99732072D01*
X91709013Y-99676790D01*
X91703967Y-99597389D01*
X91700441Y-99500296D01*
X91698439Y-99391938D01*
X91697964Y-99278740D01*
X91699023Y-99167128D01*
X91701618Y-99063529D01*
X91705754Y-98974368D01*
X91711437Y-98906072D01*
X91718669Y-98865066D01*
X91723029Y-98856674D01*
X91747302Y-98848208D01*
X91802574Y-98834435D01*
X91883338Y-98816550D01*
X91984088Y-98795748D01*
X92099317Y-98773223D01*
X92162098Y-98761418D01*
X92281213Y-98739151D01*
X92387435Y-98718979D01*
X92475573Y-98701915D01*
X92540434Y-98688969D01*
X92576826Y-98681155D01*
X92582816Y-98679422D01*
X92592939Y-98659890D01*
X92614338Y-98612843D01*
X92644161Y-98545003D01*
X92679555Y-98463091D01*
X92717668Y-98373828D01*
X92755647Y-98283935D01*
X92790640Y-98200135D01*
X92819794Y-98129147D01*
X92840257Y-98077694D01*
X92849177Y-98052497D01*
X92849343Y-98051396D01*
X92839231Y-98031519D01*
X92810883Y-97985777D01*
X92767277Y-97918717D01*
X92711394Y-97834884D01*
X92646213Y-97738826D01*
X92608321Y-97683650D01*
X92539275Y-97582481D01*
X92477950Y-97490630D01*
X92427337Y-97412744D01*
X92390429Y-97353469D01*
X92370218Y-97317451D01*
X92367299Y-97309377D01*
X92379847Y-97290584D01*
X92414537Y-97250457D01*
X92466937Y-97193493D01*
X92532616Y-97124185D01*
X92607144Y-97047031D01*
X92686087Y-96966525D01*
X92765017Y-96887163D01*
X92839500Y-96813440D01*
X92905106Y-96749852D01*
X92957404Y-96700894D01*
X92991961Y-96671061D01*
X93003522Y-96663942D01*
X93022346Y-96673953D01*
X93067369Y-96702078D01*
X93134213Y-96745454D01*
X93218501Y-96801218D01*
X93315856Y-96866506D01*
X93389293Y-96916246D01*
X93760333Y-97168551D01*
X94378905Y-96913555D01*
X94462725Y-96468931D01*
X94546546Y-96024307D01*
X95471994Y-96024307D01*
X95555814Y-96468931D01*
D11*
X85333334Y-116452381D02*
X85000000Y-115976190D01*
X84761905Y-116452381D02*
X84761905Y-115452381D01*
X85142858Y-115452381D01*
X85238096Y-115500000D01*
X85285715Y-115547619D01*
X85333334Y-115642857D01*
X85333334Y-115785714D01*
X85285715Y-115880952D01*
X85238096Y-115928571D01*
X85142858Y-115976190D01*
X84761905Y-115976190D01*
X86238096Y-115452381D02*
X85761905Y-115452381D01*
X85714286Y-115928571D01*
X85761905Y-115880952D01*
X85857143Y-115833333D01*
X86095239Y-115833333D01*
X86190477Y-115880952D01*
X86238096Y-115928571D01*
X86285715Y-116023810D01*
X86285715Y-116261905D01*
X86238096Y-116357143D01*
X86190477Y-116404762D01*
X86095239Y-116452381D01*
X85857143Y-116452381D01*
X85761905Y-116404762D01*
X85714286Y-116357143D01*
X101953334Y-105292381D02*
X101620000Y-104816190D01*
X101381905Y-105292381D02*
X101381905Y-104292381D01*
X101762858Y-104292381D01*
X101858096Y-104340000D01*
X101905715Y-104387619D01*
X101953334Y-104482857D01*
X101953334Y-104625714D01*
X101905715Y-104720952D01*
X101858096Y-104768571D01*
X101762858Y-104816190D01*
X101381905Y-104816190D01*
X102905715Y-105292381D02*
X102334286Y-105292381D01*
X102620000Y-105292381D02*
X102620000Y-104292381D01*
X102524762Y-104435238D01*
X102429524Y-104530476D01*
X102334286Y-104578095D01*
X110453334Y-108372381D02*
X110120000Y-107896190D01*
X109881905Y-108372381D02*
X109881905Y-107372381D01*
X110262858Y-107372381D01*
X110358096Y-107420000D01*
X110405715Y-107467619D01*
X110453334Y-107562857D01*
X110453334Y-107705714D01*
X110405715Y-107800952D01*
X110358096Y-107848571D01*
X110262858Y-107896190D01*
X109881905Y-107896190D01*
X110834286Y-107467619D02*
X110881905Y-107420000D01*
X110977143Y-107372381D01*
X111215239Y-107372381D01*
X111310477Y-107420000D01*
X111358096Y-107467619D01*
X111405715Y-107562857D01*
X111405715Y-107658095D01*
X111358096Y-107800952D01*
X110786667Y-108372381D01*
X111405715Y-108372381D01*
X69583334Y-116522381D02*
X69250000Y-116046190D01*
X69011905Y-116522381D02*
X69011905Y-115522381D01*
X69392858Y-115522381D01*
X69488096Y-115570000D01*
X69535715Y-115617619D01*
X69583334Y-115712857D01*
X69583334Y-115855714D01*
X69535715Y-115950952D01*
X69488096Y-115998571D01*
X69392858Y-116046190D01*
X69011905Y-116046190D01*
X70440477Y-115855714D02*
X70440477Y-116522381D01*
X70202381Y-115474762D02*
X69964286Y-116189048D01*
X70583334Y-116189048D01*
X70658095Y-102322381D02*
X70658095Y-103131905D01*
X70705714Y-103227143D01*
X70753333Y-103274762D01*
X70848571Y-103322381D01*
X71039048Y-103322381D01*
X71134286Y-103274762D01*
X71181905Y-103227143D01*
X71229524Y-103131905D01*
X71229524Y-102322381D01*
X72229524Y-103322381D02*
X71658095Y-103322381D01*
X71943809Y-103322381D02*
X71943809Y-102322381D01*
X71848571Y-102465238D01*
X71753333Y-102560476D01*
X71658095Y-102608095D01*
X73809524Y-106357143D02*
X73761905Y-106404762D01*
X73619048Y-106452381D01*
X73523810Y-106452381D01*
X73380952Y-106404762D01*
X73285714Y-106309524D01*
X73238095Y-106214286D01*
X73190476Y-106023810D01*
X73190476Y-105880952D01*
X73238095Y-105690476D01*
X73285714Y-105595238D01*
X73380952Y-105500000D01*
X73523810Y-105452381D01*
X73619048Y-105452381D01*
X73761905Y-105500000D01*
X73809524Y-105547619D01*
X74238095Y-106452381D02*
X74238095Y-105452381D01*
X74809524Y-106452381D01*
X74809524Y-105452381D01*
X75809524Y-106452381D02*
X75238095Y-106452381D01*
X75523809Y-106452381D02*
X75523809Y-105452381D01*
X75428571Y-105595238D01*
X75333333Y-105690476D01*
X75238095Y-105738095D01*
X86323334Y-105962381D02*
X85990000Y-105486190D01*
X85751905Y-105962381D02*
X85751905Y-104962381D01*
X86132858Y-104962381D01*
X86228096Y-105010000D01*
X86275715Y-105057619D01*
X86323334Y-105152857D01*
X86323334Y-105295714D01*
X86275715Y-105390952D01*
X86228096Y-105438571D01*
X86132858Y-105486190D01*
X85751905Y-105486190D01*
X86656667Y-104962381D02*
X87275715Y-104962381D01*
X86942381Y-105343333D01*
X87085239Y-105343333D01*
X87180477Y-105390952D01*
X87228096Y-105438571D01*
X87275715Y-105533810D01*
X87275715Y-105771905D01*
X87228096Y-105867143D01*
X87180477Y-105914762D01*
X87085239Y-105962381D01*
X86799524Y-105962381D01*
X86704286Y-105914762D01*
X86656667Y-105867143D01*
X90051905Y-113012381D02*
X90051905Y-112012381D01*
X90290000Y-112012381D01*
X90432858Y-112060000D01*
X90528096Y-112155238D01*
X90575715Y-112250476D01*
X90623334Y-112440952D01*
X90623334Y-112583810D01*
X90575715Y-112774286D01*
X90528096Y-112869524D01*
X90432858Y-112964762D01*
X90290000Y-113012381D01*
X90051905Y-113012381D01*
X90956667Y-112012381D02*
X91575715Y-112012381D01*
X91242381Y-112393333D01*
X91385239Y-112393333D01*
X91480477Y-112440952D01*
X91528096Y-112488571D01*
X91575715Y-112583810D01*
X91575715Y-112821905D01*
X91528096Y-112917143D01*
X91480477Y-112964762D01*
X91385239Y-113012381D01*
X91099524Y-113012381D01*
X91004286Y-112964762D01*
X90956667Y-112917143D01*
X94404762Y-108297619D02*
X94309524Y-108250000D01*
X94214286Y-108154762D01*
X94071429Y-108011905D01*
X93976190Y-107964286D01*
X93880952Y-107964286D01*
X93928571Y-108202381D02*
X93833333Y-108154762D01*
X93738095Y-108059524D01*
X93690476Y-107869048D01*
X93690476Y-107535714D01*
X93738095Y-107345238D01*
X93833333Y-107250000D01*
X93928571Y-107202381D01*
X94119048Y-107202381D01*
X94214286Y-107250000D01*
X94309524Y-107345238D01*
X94357143Y-107535714D01*
X94357143Y-107869048D01*
X94309524Y-108059524D01*
X94214286Y-108154762D01*
X94119048Y-108202381D01*
X93928571Y-108202381D01*
X95309524Y-108202381D02*
X94738095Y-108202381D01*
X95023809Y-108202381D02*
X95023809Y-107202381D01*
X94928571Y-107345238D01*
X94833333Y-107440476D01*
X94738095Y-107488095D01*
X73071429Y-132452381D02*
X73071429Y-131452381D01*
X73452382Y-131452381D01*
X73547620Y-131500000D01*
X73595239Y-131547619D01*
X73642858Y-131642857D01*
X73642858Y-131785714D01*
X73595239Y-131880952D01*
X73547620Y-131928571D01*
X73452382Y-131976190D01*
X73071429Y-131976190D01*
X74261905Y-131452381D02*
X74452382Y-131452381D01*
X74547620Y-131500000D01*
X74642858Y-131595238D01*
X74690477Y-131785714D01*
X74690477Y-132119048D01*
X74642858Y-132309524D01*
X74547620Y-132404762D01*
X74452382Y-132452381D01*
X74261905Y-132452381D01*
X74166667Y-132404762D01*
X74071429Y-132309524D01*
X74023810Y-132119048D01*
X74023810Y-131785714D01*
X74071429Y-131595238D01*
X74166667Y-131500000D01*
X74261905Y-131452381D01*
X75023810Y-131452381D02*
X75261905Y-132452381D01*
X75452382Y-131738095D01*
X75642858Y-132452381D01*
X75880953Y-131452381D01*
X76261905Y-131928571D02*
X76595239Y-131928571D01*
X76738096Y-132452381D02*
X76261905Y-132452381D01*
X76261905Y-131452381D01*
X76738096Y-131452381D01*
X77738096Y-132452381D02*
X77404762Y-131976190D01*
X77166667Y-132452381D02*
X77166667Y-131452381D01*
X77547620Y-131452381D01*
X77642858Y-131500000D01*
X77690477Y-131547619D01*
X77738096Y-131642857D01*
X77738096Y-131785714D01*
X77690477Y-131880952D01*
X77642858Y-131928571D01*
X77547620Y-131976190D01*
X77166667Y-131976190D01*
X78166667Y-132071429D02*
X78928572Y-132071429D01*
X78547620Y-132452381D02*
X78547620Y-131690476D01*
X96500001Y-131928571D02*
X96642858Y-131976190D01*
X96690477Y-132023810D01*
X96738096Y-132119048D01*
X96738096Y-132261905D01*
X96690477Y-132357143D01*
X96642858Y-132404762D01*
X96547620Y-132452381D01*
X96166667Y-132452381D01*
X96166667Y-131452381D01*
X96500001Y-131452381D01*
X96595239Y-131500000D01*
X96642858Y-131547619D01*
X96690477Y-131642857D01*
X96690477Y-131738095D01*
X96642858Y-131833333D01*
X96595239Y-131880952D01*
X96500001Y-131928571D01*
X96166667Y-131928571D01*
X97166667Y-131928571D02*
X97500001Y-131928571D01*
X97642858Y-132452381D02*
X97166667Y-132452381D01*
X97166667Y-131452381D01*
X97642858Y-131452381D01*
X98071429Y-132452381D02*
X98071429Y-131452381D01*
X98309524Y-131452381D01*
X98452382Y-131500000D01*
X98547620Y-131595238D01*
X98595239Y-131690476D01*
X98642858Y-131880952D01*
X98642858Y-132023810D01*
X98595239Y-132214286D01*
X98547620Y-132309524D01*
X98452382Y-132404762D01*
X98309524Y-132452381D01*
X98071429Y-132452381D01*
X99071429Y-132071429D02*
X99833334Y-132071429D01*
X85000001Y-131928571D02*
X85142858Y-131976190D01*
X85190477Y-132023810D01*
X85238096Y-132119048D01*
X85238096Y-132261905D01*
X85190477Y-132357143D01*
X85142858Y-132404762D01*
X85047620Y-132452381D01*
X84666667Y-132452381D01*
X84666667Y-131452381D01*
X85000001Y-131452381D01*
X85095239Y-131500000D01*
X85142858Y-131547619D01*
X85190477Y-131642857D01*
X85190477Y-131738095D01*
X85142858Y-131833333D01*
X85095239Y-131880952D01*
X85000001Y-131928571D01*
X84666667Y-131928571D01*
X85666667Y-131928571D02*
X86000001Y-131928571D01*
X86142858Y-132452381D02*
X85666667Y-132452381D01*
X85666667Y-131452381D01*
X86142858Y-131452381D01*
X86571429Y-132452381D02*
X86571429Y-131452381D01*
X86809524Y-131452381D01*
X86952382Y-131500000D01*
X87047620Y-131595238D01*
X87095239Y-131690476D01*
X87142858Y-131880952D01*
X87142858Y-132023810D01*
X87095239Y-132214286D01*
X87047620Y-132309524D01*
X86952382Y-132404762D01*
X86809524Y-132452381D01*
X86571429Y-132452381D01*
X87571429Y-132071429D02*
X88333334Y-132071429D01*
X87952382Y-132452381D02*
X87952382Y-131690476D01*
X106071429Y-132452381D02*
X106071429Y-131452381D01*
X106452382Y-131452381D01*
X106547620Y-131500000D01*
X106595239Y-131547619D01*
X106642858Y-131642857D01*
X106642858Y-131785714D01*
X106595239Y-131880952D01*
X106547620Y-131928571D01*
X106452382Y-131976190D01*
X106071429Y-131976190D01*
X107261905Y-131452381D02*
X107452382Y-131452381D01*
X107547620Y-131500000D01*
X107642858Y-131595238D01*
X107690477Y-131785714D01*
X107690477Y-132119048D01*
X107642858Y-132309524D01*
X107547620Y-132404762D01*
X107452382Y-132452381D01*
X107261905Y-132452381D01*
X107166667Y-132404762D01*
X107071429Y-132309524D01*
X107023810Y-132119048D01*
X107023810Y-131785714D01*
X107071429Y-131595238D01*
X107166667Y-131500000D01*
X107261905Y-131452381D01*
X108023810Y-131452381D02*
X108261905Y-132452381D01*
X108452382Y-131738095D01*
X108642858Y-132452381D01*
X108880953Y-131452381D01*
X109261905Y-131928571D02*
X109595239Y-131928571D01*
X109738096Y-132452381D02*
X109261905Y-132452381D01*
X109261905Y-131452381D01*
X109738096Y-131452381D01*
X110738096Y-132452381D02*
X110404762Y-131976190D01*
X110166667Y-132452381D02*
X110166667Y-131452381D01*
X110547620Y-131452381D01*
X110642858Y-131500000D01*
X110690477Y-131547619D01*
X110738096Y-131642857D01*
X110738096Y-131785714D01*
X110690477Y-131880952D01*
X110642858Y-131928571D01*
X110547620Y-131976190D01*
X110166667Y-131976190D01*
X111166667Y-132071429D02*
X111928572Y-132071429D01*
M02*
