M48
;DRILL file {KiCad 4.0.5} date 02/10/17 23:38:38
;FORMAT={-:-/ absolute / metric / decimal}
FMAT,2
METRIC,TZ
T1C0.400
T2C1.000
T3C1.500
%
G90
G05
M71
T1
X71.89Y-118.91
X72.84Y-117.54
X73.77Y-101.48
X74.11Y-117.54
X75.39Y-117.54
X76.66Y-117.54
X77.74Y-103.94
X90.47Y-102.04
X95.Y-110.
X97.5Y-110.
X105.25Y-101.56
X110.Y-110.
X112.5Y-112.5
X112.5Y-115.
T2
X71.25Y-110.71
X71.25Y-112.71
X71.25Y-114.71
X73.Y-109.96
X74.75Y-109.96
X76.5Y-109.96
X78.25Y-110.71
X78.25Y-112.71
X78.25Y-114.71
T3
X74.6Y-123.36
X74.6Y-128.44
X84.7Y-123.46
X84.7Y-128.54
X96.9Y-123.46
X96.9Y-128.54
X107.5Y-122.96
X107.5Y-128.04
T0
M30
