M48
;DRILL file {KiCad 4.0.6} date 04/14/17 09:54:23
;FORMAT={-:-/ absolute / metric / decimal}
FMAT,2
METRIC,TZ
T1C0.400
T2C1.000
T3C2.000
%
G90
G05
M71
T1
X104.39Y-111.26
X104.39Y-112.54
X104.39Y-113.81
X110.Y-95.
T2
X96.81Y-110.15
X96.81Y-111.9
X96.81Y-113.65
X97.56Y-108.4
X97.56Y-115.4
X99.56Y-108.4
X99.56Y-115.4
X101.56Y-108.4
X101.56Y-115.4
T3
X71.68Y-118.9
X71.68Y-123.9
X71.68Y-128.9
X78.69Y-118.9
X78.69Y-123.9
X78.69Y-128.9
X82.93Y-118.9
X82.93Y-123.9
X82.93Y-128.9
X89.94Y-118.9
X89.94Y-123.9
X89.94Y-128.9
X94.18Y-118.9
X94.18Y-123.9
X94.18Y-128.9
X101.19Y-118.9
X101.19Y-123.9
X101.19Y-128.9
X105.43Y-118.9
X105.43Y-123.9
X105.43Y-128.9
X112.44Y-118.9
X112.44Y-123.9
X112.44Y-128.9
T0
M30
