M48
;DRILL file {KiCad 4.0.6} date 04/13/17 19:09:52
;FORMAT={-:-/ absolute / inch / decimal}
FMAT,2
INCH,TZ
T1C0.016
T2C0.039
T3C0.079
%
G90
G05
M72
T1
X2.9134Y-4.1339
X4.0705Y-4.4591
X4.0705Y-4.5094
X4.0705Y-4.5594
T2
X3.772Y-4.4154
X3.772Y-4.4843
X3.772Y-4.5531
X3.8016Y-4.3465
X3.8016Y-4.622
X3.8803Y-4.3465
X3.8803Y-4.622
X3.9591Y-4.3465
X3.9591Y-4.622
T3
X2.7827Y-4.7598
X2.7827Y-4.9567
X2.7827Y-5.1535
X3.0587Y-4.7598
X3.0587Y-4.9567
X3.0587Y-5.1535
X3.2256Y-4.7598
X3.2256Y-4.9567
X3.2256Y-5.1535
X3.5016Y-4.7598
X3.5016Y-4.9567
X3.5016Y-5.1535
X3.6685Y-4.7598
X3.6685Y-4.9567
X3.6685Y-5.1535
X3.9445Y-4.7598
X3.9445Y-4.9567
X3.9445Y-5.1535
X4.1114Y-4.7598
X4.1114Y-4.9567
X4.1114Y-5.1535
X4.3874Y-4.7598
X4.3874Y-4.9567
X4.3874Y-5.1535
T0
M30
