G04 #@! TF.FileFunction,Copper,L1,Top,Signal*
%FSLAX46Y46*%
G04 Gerber Fmt 4.6, Leading zero omitted, Abs format (unit mm)*
G04 Created by KiCad (PCBNEW 4.0.6) date 04/14/17 09:54:29*
%MOMM*%
%LPD*%
G01*
G04 APERTURE LIST*
%ADD10C,0.100000*%
%ADD11C,0.150000*%
%ADD12R,2.000000X1.700000*%
%ADD13C,1.000000*%
%ADD14R,0.750000X1.500000*%
%ADD15R,2.540000X1.270000*%
%ADD16R,1.700000X2.000000*%
%ADD17R,2.000000X2.700000*%
%ADD18R,1.500000X1.500000*%
%ADD19R,1.150000X0.700000*%
%ADD20R,1.550000X4.700000*%
%ADD21R,3.300000X4.200000*%
%ADD22R,6.500000X9.000000*%
%ADD23R,5.000000X5.000000*%
%ADD24R,5.000000X4.000000*%
%ADD25C,0.600000*%
%ADD26C,0.400000*%
%ADD27C,0.127000*%
G04 APERTURE END LIST*
D10*
D11*
X67000000Y-89000000D02*
X67000000Y-139000000D01*
X117000000Y-89000000D02*
X67000000Y-89000000D01*
X117000000Y-139000000D02*
X117000000Y-89000000D01*
X67000000Y-139000000D02*
X117000000Y-139000000D01*
D12*
X79100000Y-115900000D03*
X83100000Y-115900000D03*
X95710000Y-105000000D03*
X99710000Y-105000000D03*
X104350000Y-107900000D03*
X108350000Y-107900000D03*
X76100000Y-115900000D03*
X72100000Y-115900000D03*
D13*
X110000000Y-95000000D03*
D14*
X70690000Y-111430000D03*
X71960000Y-111430000D03*
X71960000Y-104930000D03*
X70690000Y-104930000D03*
D15*
X77730000Y-111540000D03*
X82270000Y-111540000D03*
X82270000Y-109000000D03*
X77730000Y-109000000D03*
X77730000Y-106460000D03*
X82270000Y-106460000D03*
D16*
X86500000Y-107500000D03*
X86500000Y-111500000D03*
D17*
X92700000Y-114900000D03*
X89600000Y-114900000D03*
D18*
X97560000Y-115400000D03*
X97560000Y-108400000D03*
X99560000Y-108400000D03*
X101560000Y-108400000D03*
X99560000Y-115400000D03*
X96810000Y-110150000D03*
X96810000Y-113650000D03*
X101560000Y-115400000D03*
D19*
X104390000Y-112540000D03*
X104390000Y-113810000D03*
X104390000Y-111260000D03*
D20*
X98910000Y-111900000D03*
D21*
X101110000Y-111900000D03*
D19*
X104390000Y-109990000D03*
D22*
X99310000Y-111900000D03*
D18*
X96810000Y-111900000D03*
D23*
X72680000Y-127900000D03*
X77690000Y-127900000D03*
D24*
X72680000Y-123900000D03*
X77690000Y-123900000D03*
D23*
X72680000Y-119900000D03*
X77690000Y-119900000D03*
X95180000Y-127900000D03*
X100190000Y-127900000D03*
D24*
X95180000Y-123900000D03*
X100190000Y-123900000D03*
D23*
X95180000Y-119900000D03*
X100190000Y-119900000D03*
X83930000Y-127900000D03*
X88940000Y-127900000D03*
D24*
X83930000Y-123900000D03*
X88940000Y-123900000D03*
D23*
X83930000Y-119900000D03*
X88940000Y-119900000D03*
X106430000Y-127900000D03*
X111440000Y-127900000D03*
D24*
X106430000Y-123900000D03*
X111440000Y-123900000D03*
D23*
X106430000Y-119900000D03*
X111440000Y-119900000D03*
D25*
X110000000Y-95000000D03*
X104390000Y-113810000D03*
X104390000Y-112540000D03*
X104390000Y-111260000D03*
D26*
X81270000Y-109000000D02*
X83770000Y-109000000D01*
X108350000Y-104270000D02*
X108350000Y-107900000D01*
X107320000Y-103240000D02*
X108350000Y-104270000D01*
X98400000Y-103240000D02*
X107320000Y-103240000D01*
X97730000Y-103910000D02*
X98400000Y-103240000D01*
X97730000Y-106260000D02*
X97730000Y-103910000D01*
X97290000Y-106700000D02*
X97730000Y-106260000D01*
X91170000Y-106700000D02*
X97290000Y-106700000D01*
X88320000Y-109550000D02*
X91170000Y-106700000D01*
X84320000Y-109550000D02*
X88320000Y-109550000D01*
X83770000Y-109000000D02*
X84320000Y-109550000D01*
X70690000Y-104930000D02*
X70690000Y-105160000D01*
X70690000Y-105160000D02*
X69240000Y-106610000D01*
X69240000Y-106610000D02*
X69240000Y-116460000D01*
X69240000Y-116460000D02*
X71680000Y-118900000D01*
X74180000Y-114360000D02*
X74180000Y-115760000D01*
X74180000Y-115760000D02*
X74180000Y-116738642D01*
X74180000Y-116738642D02*
X76341358Y-118900000D01*
X76341358Y-118900000D02*
X78690000Y-118900000D01*
X78730000Y-109000000D02*
X79550000Y-109000000D01*
X79550000Y-109000000D02*
X79960000Y-109410000D01*
X79960000Y-112735198D02*
X79625198Y-113070000D01*
X79960000Y-109410000D02*
X79960000Y-112735198D01*
X79625198Y-113070000D02*
X75470000Y-113070000D01*
X75470000Y-113070000D02*
X74180000Y-114360000D01*
X72320000Y-118900000D02*
X71680000Y-118900000D01*
X79100000Y-115900000D02*
X79100000Y-118490000D01*
X79100000Y-118490000D02*
X78690000Y-118900000D01*
X72100000Y-115900000D02*
X72100000Y-111570000D01*
X72100000Y-111570000D02*
X71960000Y-111430000D01*
X71960000Y-111430000D02*
X78620000Y-111430000D01*
X78620000Y-111430000D02*
X78730000Y-111540000D01*
X83100000Y-115900000D02*
X84500000Y-115900000D01*
X84500000Y-115900000D02*
X85500000Y-114900000D01*
X85500000Y-114900000D02*
X90100000Y-114900000D01*
X83100000Y-115900000D02*
X83604801Y-116404801D01*
X83100000Y-115900000D02*
X83100000Y-115650000D01*
X81270000Y-111540000D02*
X81270000Y-113460000D01*
X81270000Y-113460000D02*
X80850000Y-113880000D01*
X80850000Y-113880000D02*
X76870000Y-113880000D01*
X76870000Y-113880000D02*
X76100000Y-114650000D01*
X76100000Y-114650000D02*
X76100000Y-115900000D01*
X81270000Y-111540000D02*
X81310000Y-111500000D01*
X81310000Y-111500000D02*
X86500000Y-111500000D01*
X76100000Y-115900000D02*
X76100000Y-115650000D01*
X92200000Y-114900000D02*
X97060000Y-114900000D01*
X97060000Y-114900000D02*
X97560000Y-115400000D01*
X70690000Y-111430000D02*
X70690000Y-109740000D01*
X73970000Y-106460000D02*
X78730000Y-106460000D01*
X70690000Y-109740000D02*
X73970000Y-106460000D01*
X83910000Y-106460000D02*
X84950000Y-107500000D01*
X84950000Y-107500000D02*
X86500000Y-107500000D01*
X81270000Y-106460000D02*
X83910000Y-106460000D01*
X71960000Y-104930000D02*
X73100000Y-104930000D01*
X94700000Y-103990000D02*
X95710000Y-105000000D01*
X74040000Y-103990000D02*
X94700000Y-103990000D01*
X73100000Y-104930000D02*
X74040000Y-103990000D01*
X99710000Y-105000000D02*
X103070000Y-105000000D01*
X104350000Y-106280000D02*
X104350000Y-107900000D01*
X103070000Y-105000000D02*
X104350000Y-106280000D01*
X104390000Y-109990000D02*
X104390000Y-107940000D01*
X104390000Y-107940000D02*
X104350000Y-107900000D01*
D27*
G36*
X102686500Y-130436500D02*
X92813500Y-130436500D01*
X92813500Y-107313500D01*
X102686500Y-107313500D01*
X102686500Y-130436500D01*
X102686500Y-130436500D01*
G37*
X102686500Y-130436500D02*
X92813500Y-130436500D01*
X92813500Y-107313500D01*
X102686500Y-107313500D01*
X102686500Y-130436500D01*
G36*
X113936500Y-130436500D02*
X103813500Y-130436500D01*
X103813500Y-110715415D01*
X103815000Y-110715719D01*
X104965000Y-110715719D01*
X105101558Y-110690024D01*
X105226978Y-110609318D01*
X105311118Y-110486176D01*
X105340719Y-110340000D01*
X105340719Y-109640000D01*
X105326325Y-109563500D01*
X107000000Y-109563500D01*
X107024705Y-109558497D01*
X107045517Y-109544277D01*
X107059157Y-109523080D01*
X107063500Y-109500000D01*
X107063500Y-106563500D01*
X113936500Y-106563500D01*
X113936500Y-130436500D01*
X113936500Y-130436500D01*
G37*
X113936500Y-130436500D02*
X103813500Y-130436500D01*
X103813500Y-110715415D01*
X103815000Y-110715719D01*
X104965000Y-110715719D01*
X105101558Y-110690024D01*
X105226978Y-110609318D01*
X105311118Y-110486176D01*
X105340719Y-110340000D01*
X105340719Y-109640000D01*
X105326325Y-109563500D01*
X107000000Y-109563500D01*
X107024705Y-109558497D01*
X107045517Y-109544277D01*
X107059157Y-109523080D01*
X107063500Y-109500000D01*
X107063500Y-106563500D01*
X113936500Y-106563500D01*
X113936500Y-130436500D01*
G36*
X91436500Y-130436500D02*
X70063500Y-130436500D01*
X70063500Y-117313500D01*
X91436500Y-117313500D01*
X91436500Y-130436500D01*
X91436500Y-130436500D01*
G37*
X91436500Y-130436500D02*
X70063500Y-130436500D01*
X70063500Y-117313500D01*
X91436500Y-117313500D01*
X91436500Y-130436500D01*
M02*
